<svg width="11" height="22" viewBox="0 0 11 22" fill="none" xmlns="http://www.w3.org/2000/svg">
<path d="M0.5 2C0.5 1.17157 1.17157 0.5 2 0.5H9C9.82843 0.5 10.5 1.17157 10.5 2V20C10.5 20.8284 9.82843 21.5 9 21.5H2C1.17157 21.5 0.5 20.8284 0.5 20V2Z" stroke="white"/>
<path d="M2 0.957031H9C9 1.4853 8.57175 1.91355 8.04348 1.91355H2.95652C2.42825 1.91355 2 1.4853 2 0.957031Z" fill="white"/>
<path d="M3 18.4783C3 18.2141 3.21412 18 3.47826 18H7.52174C7.78588 18 8 18.2141 8 18.4783C8 18.7424 7.78588 18.9565 7.52174 18.9565H3.47826C3.21412 18.9565 3 18.7424 3 18.4783Z" fill="white"/>
</svg>
