<svg width="10" height="9" viewBox="0 0 10 9" fill="none" xmlns="http://www.w3.org/2000/svg">
<path d="M9.38395 1.32028C9.56084 1.10823 9.53233 0.792937 9.32028 0.616049C9.10823 0.439161 8.79294 0.467666 8.61605 0.679716L9.38395 1.32028ZM3.5931 7.4817L3.26092 7.8554L3.64655 8.19818L3.97705 7.80198L3.5931 7.4817ZM1.25861 4.73762C1.05222 4.55416 0.736186 4.57275 0.552727 4.77915C0.369268 4.98554 0.387858 5.30157 0.59425 5.48503L1.25861 4.73762ZM8.61605 0.679716L3.20915 7.16141L3.97705 7.80198L9.38395 1.32028L8.61605 0.679716ZM3.92528 7.10799L1.25861 4.73762L0.59425 5.48503L3.26092 7.8554L3.92528 7.10799Z" fill="white"/>
</svg>
