<svg xmlns="http://www.w3.org/2000/svg" width="99.2" height="32" viewBox="0 0 99.2 32"><title>department-bottom</title><path d="M27.8,19.4A27.2,27.2,0,0,0,49.6,30,27.2,27.2,0,0,0,71.4,19.4c3.4-4.4,7.3-9.2,11.8-12.9S93,0,99.2,0H0C6.2,0,11.5,2.8,16,6.5S24.4,15.1,27.8,19.4Z" style="fill:#1f4e78"/><path d="M83.2,6.5c-4.5,3.7-8.4,8.5-11.8,12.9A27.2,27.2,0,0,1,49.6,30,27.2,27.2,0,0,1,27.8,19.4C24.4,15.1,20.5,10.2,16,6.5S6.2,0,0,0V2c11,0,19.4,9.9,26.1,18.7A29.06,29.06,0,0,0,49.5,32,28.92,28.92,0,0,0,72.9,20.7C79.6,11.9,88.2,2,99.2,2V0C93,0,87.7,2.8,83.2,6.5Z" style="fill:#3b7bb5"/></svg>