<svg width="37" height="32" viewBox="0 0 37 32" fill="none" xmlns="http://www.w3.org/2000/svg">
<path d="M23.1246 31.08C25.9246 31.08 26.9579 27.7467 27.1246 26.08C27.1246 22.7467 27.1246 14.68 27.1246 9.08003C27.1246 3.48003 30.7912 1.41336 32.6246 1.08003C34.2912 0.746697 37.3246 1.28003 36.1246 6.08003C32.5246 6.08003 28.7019 6.08003 27.5352 6.08003M23.1246 31.08C19.6246 31.08 18.6246 28.58 18.6246 26.08H11.125M23.1246 31.08C18.7912 31.08 7.72491 31.08 4.12456 31.08C0.924559 29.88 0.791225 27.2467 1.12456 26.08H11.125M34.2303 1.08003C31.0636 1.08003 23.2303 1.08003 17.2303 1.08003C11.2303 1.48003 11.125 6.08003 11.125 10.0801V26.08" stroke="#3B7BB5"/>
<path d="M14 15H24" stroke="#3B7BB5"/>
</svg>
