<svg width="106" height="15" viewBox="0 0 106 15" fill="none" xmlns="http://www.w3.org/2000/svg">
<path d="M13.6055 7.03906V14H11.3906L11.2148 12.1367C10.2773 13.4961 8.88281 14.1758 7.03125 14.1758C5.17969 14.1758 3.67969 13.5547 2.53125 12.3125C1.40625 11.0703 0.84375 9.42969 0.84375 7.39062C0.84375 5.30469 1.46484 3.62891 2.70703 2.36328C3.94922 1.09766 5.60156 0.464844 7.66406 0.464844C9.02344 0.464844 10.1953 0.769531 11.1797 1.37891C12.1641 1.98828 12.8906 2.85547 13.3594 3.98047L10.582 5.03516C10.3242 4.40234 9.92578 3.91016 9.38672 3.55859C8.87109 3.18359 8.26172 2.99609 7.55859 2.99609C6.43359 2.99609 5.54297 3.38281 4.88672 4.15625C4.25391 4.92969 3.9375 5.98438 3.9375 7.32031C3.9375 8.67969 4.24219 9.74609 4.85156 10.5195C5.48438 11.2695 6.35156 11.6445 7.45312 11.6445C8.25 11.6445 8.92969 11.4336 9.49219 11.0117C10.0781 10.5664 10.4883 9.93359 10.7227 9.11328H7.69922V7.03906H13.6055ZM22.1133 14.1758C20.0977 14.1758 18.4805 13.5547 17.2617 12.3125C16.0664 11.0469 15.4688 9.38281 15.4688 7.32031C15.4688 5.25781 16.0781 3.60547 17.2969 2.36328C18.5156 1.09766 20.1211 0.464844 22.1133 0.464844C24.1289 0.464844 25.7344 1.09766 26.9297 2.36328C28.1484 3.60547 28.7578 5.25781 28.7578 7.32031C28.7578 9.38281 28.1484 11.0469 26.9297 12.3125C25.7109 13.5547 24.1055 14.1758 22.1133 14.1758ZM22.1133 11.5742C23.1914 11.5742 24.0469 11.1875 24.6797 10.4141C25.3359 9.64062 25.6641 8.60938 25.6641 7.32031C25.6641 6.03125 25.3359 5 24.6797 4.22656C24.0469 3.45312 23.1914 3.06641 22.1133 3.06641C21.0352 3.06641 20.168 3.45312 19.5117 4.22656C18.8789 5 18.5625 6.03125 18.5625 7.32031C18.5625 8.60938 18.8789 9.64062 19.5117 10.4141C20.168 11.1875 21.0352 11.5742 22.1133 11.5742ZM39.832 0.640625H43.0312L38.25 14H34.3477L29.5664 0.640625H32.8008L36.3164 11.1523L39.832 0.640625ZM50.8359 0.640625C52.4297 0.640625 53.6719 1.02734 54.5625 1.80078C55.4766 2.55078 55.9336 3.59375 55.9336 4.92969C55.9336 6.28906 55.4766 7.34375 54.5625 8.09375C53.6719 8.84375 52.4297 9.21875 50.8359 9.21875H48.1289V14H45.1406V0.640625H50.8359ZM50.4844 6.82812C51.2578 6.82812 51.8438 6.67578 52.2422 6.37109C52.6641 6.04297 52.875 5.58594 52.875 5C52.875 3.78125 52.0781 3.17188 50.4844 3.17188H48.1289V6.82812H50.4844ZM66.5508 14L65.6016 11.3633H59.7656L58.8164 14H55.6523L60.8555 0.640625H64.582L69.7852 14H66.5508ZM60.7148 8.76172H64.6523L62.6836 3.27734L60.7148 8.76172ZM82.1602 0.640625L76.9219 8.79688V14H73.8984V8.76172L68.6602 0.640625H72.1055L75.4453 6.05469L78.7852 0.640625H82.1602ZM92.8477 11.6445V14H82.8984V12.1719L87.6445 8.09375C88.4414 7.41406 89.0039 6.80469 89.332 6.26562C89.6602 5.72656 89.8242 5.17578 89.8242 4.61328C89.8242 4.07422 89.6367 3.64062 89.2617 3.3125C88.9102 2.96094 88.4414 2.78516 87.8555 2.78516C87.1523 2.78516 86.6016 3.00781 86.2031 3.45312C85.8047 3.875 85.5938 4.53125 85.5703 5.42188L82.9336 5.03516C83.0273 3.60547 83.5312 2.48047 84.4453 1.66016C85.3594 0.839844 86.5547 0.441406 88.0312 0.464844C89.3906 0.488281 90.4922 0.863281 91.3359 1.58984C92.2031 2.29297 92.6367 3.21875 92.6367 4.36719C92.6367 5.375 92.3438 6.27734 91.7578 7.07422C91.1719 7.87109 90.1289 8.89062 88.6289 10.1328L86.8008 11.6445H92.8477ZM105.363 8.51562V10.9062H103.395V14H100.793V10.9062H94.2188V8.58594L99.9844 0.640625H103.395V8.51562H105.363ZM97.0312 8.51562H100.793V3.34766L97.0312 8.51562Z" fill="white"/>
</svg>
