<svg width="357" height="336" viewBox="0 0 357 336" fill="none" xmlns="http://www.w3.org/2000/svg">
<path fill-rule="evenodd" clip-rule="evenodd" d="M195.609 8.68132C224.924 13.8799 251.49 25.3849 276.019 42.2838C301.185 59.6222 326.631 78.4001 338.014 106.79C349.848 136.305 345.951 168.786 339.203 199.865C331.766 234.118 325.877 273.082 297.464 293.549C269.08 313.994 230.551 302.121 195.609 303.298C159.071 304.529 121.318 317.023 88.6514 300.583C53.4197 282.851 25.2436 250.075 14.4091 212.103C3.75021 174.747 17.5141 135.976 31.3248 99.6701C44.4901 65.0608 59.0987 27.4771 91.4582 9.55481C122.603 -7.69461 160.565 2.4668 195.609 8.68132Z" fill="#6791E1" fill-opacity="0.38"/>
<path fill-rule="evenodd" clip-rule="evenodd" d="M171.113 22.4998C207.107 20.4261 248.706 0.395229 281.15 16.0296C314.459 32.0805 327.975 71.7841 339.554 106.739C351.175 141.818 364.932 182.275 346.923 214.577C329.259 246.261 299.165 257.017 269.113 277.5C240.411 297.062 210.137 322.635 176.333 330.844C139.478 339.795 94.1484 335.185 67.669 308.171C41.4947 281.469 37.9499 237.541 26.6132 202C15.4111 166.88 -4.24145 139.511 2.30424 103.247C8.86641 66.892 45.9123 42.3355 79.986 27.6193C110.182 14.5778 138.247 24.3933 171.113 22.4998Z" fill="#7299E2" fill-opacity="0.83" stroke="white" stroke-width="2"/>
<g filter="url(#filter0_d)">
<path d="M151.613 118C151.613 114.134 154.747 111 158.613 111H299.898C303.764 111 306.898 114.134 306.898 118V202C306.898 205.866 303.764 209 299.898 209H158.613C154.747 209 151.613 205.866 151.613 202L151.613 118Z" fill="url(#paint0_linear)"/>
<path d="M185.832 201.365C236.971 189.953 280.849 157.343 306.523 111.667C306.624 111.488 306.898 111.559 306.898 111.765V202C306.898 205.866 303.764 209 299.898 209H154.15C153.816 209 153.763 208.52 154.089 208.448L185.832 201.365Z" fill="#1F4E78" fill-opacity="0.1"/>
<path d="M152.613 118C152.613 114.686 155.3 112 158.613 112H299.898C303.212 112 305.898 114.686 305.898 118V202C305.898 205.314 303.212 208 299.898 208H158.613C155.3 208 152.613 205.314 152.613 202V118Z" stroke="white" stroke-width="2"/>
</g>
<rect x="161.08" y="120.469" width="20.1208" height="16.0966" rx="2" fill="url(#paint1_linear)"/>
<rect x="164.098" y="120.469" width="1.00604" height="16.0966" fill="#C4C4C4"/>
<rect x="177.178" y="120.469" width="1.00604" height="16.0966" fill="#C4C4C4"/>
<rect x="161.08" y="132.541" width="1.00604" height="20.1208" transform="rotate(-90 161.08 132.541)" fill="#C4C4C4"/>
<rect x="161.08" y="125.5" width="1.00604" height="20.1208" transform="rotate(-90 161.08 125.5)" fill="#C4C4C4"/>
<circle cx="278.966" cy="191.484" r="8.04831" fill="#FE9900"/>
<circle cx="289.382" cy="191.484" r="8.04831" fill="#CC0001"/>
<path d="M154.332 155.078C154.895 155.078 155.363 155.266 155.738 155.641C156.124 156.016 156.316 156.484 156.316 157.047C156.316 157.651 156.103 158.141 155.676 158.516C155.249 158.891 154.691 159.078 154.004 159.078C153.535 159.078 153.113 158.984 152.738 158.797C152.363 158.599 152.072 158.333 151.863 158L152.66 157.328C152.796 157.547 152.978 157.724 153.207 157.859C153.436 157.984 153.686 158.047 153.957 158.047C154.29 158.047 154.561 157.953 154.77 157.766C154.978 157.578 155.082 157.328 155.082 157.016C155.082 156.703 154.983 156.453 154.785 156.266C154.598 156.078 154.342 155.984 154.02 155.984C153.603 155.984 153.275 156.146 153.035 156.469L152.145 156.141L152.41 153.062H155.895V154.188H153.379L153.27 155.359C153.551 155.172 153.905 155.078 154.332 155.078ZM162.926 155.078C163.488 155.078 163.957 155.266 164.332 155.641C164.717 156.016 164.91 156.484 164.91 157.047C164.91 157.651 164.697 158.141 164.27 158.516C163.842 158.891 163.285 159.078 162.598 159.078C162.129 159.078 161.707 158.984 161.332 158.797C160.957 158.599 160.665 158.333 160.457 158L161.254 157.328C161.389 157.547 161.572 157.724 161.801 157.859C162.03 157.984 162.28 158.047 162.551 158.047C162.884 158.047 163.155 157.953 163.363 157.766C163.572 157.578 163.676 157.328 163.676 157.016C163.676 156.703 163.577 156.453 163.379 156.266C163.191 156.078 162.936 155.984 162.613 155.984C162.197 155.984 161.868 156.146 161.629 156.469L160.738 156.141L161.004 153.062H164.488V154.188H161.973L161.863 155.359C162.145 155.172 162.499 155.078 162.926 155.078ZM171.52 155.078C172.082 155.078 172.551 155.266 172.926 155.641C173.311 156.016 173.504 156.484 173.504 157.047C173.504 157.651 173.29 158.141 172.863 158.516C172.436 158.891 171.879 159.078 171.191 159.078C170.723 159.078 170.301 158.984 169.926 158.797C169.551 158.599 169.259 158.333 169.051 158L169.848 157.328C169.983 157.547 170.165 157.724 170.395 157.859C170.624 157.984 170.874 158.047 171.145 158.047C171.478 158.047 171.749 157.953 171.957 157.766C172.165 157.578 172.27 157.328 172.27 157.016C172.27 156.703 172.171 156.453 171.973 156.266C171.785 156.078 171.53 155.984 171.207 155.984C170.79 155.984 170.462 156.146 170.223 156.469L169.332 156.141L169.598 153.062H173.082V154.188H170.566L170.457 155.359C170.738 155.172 171.092 155.078 171.52 155.078ZM180.113 155.078C180.676 155.078 181.145 155.266 181.52 155.641C181.905 156.016 182.098 156.484 182.098 157.047C182.098 157.651 181.884 158.141 181.457 158.516C181.03 158.891 180.473 159.078 179.785 159.078C179.316 159.078 178.895 158.984 178.52 158.797C178.145 158.599 177.853 158.333 177.645 158L178.441 157.328C178.577 157.547 178.759 157.724 178.988 157.859C179.217 157.984 179.467 158.047 179.738 158.047C180.072 158.047 180.342 157.953 180.551 157.766C180.759 157.578 180.863 157.328 180.863 157.016C180.863 156.703 180.764 156.453 180.566 156.266C180.379 156.078 180.124 155.984 179.801 155.984C179.384 155.984 179.056 156.146 178.816 156.469L177.926 156.141L178.191 153.062H181.676V154.188H179.16L179.051 155.359C179.332 155.172 179.686 155.078 180.113 155.078ZM200.707 155.078C201.27 155.078 201.738 155.266 202.113 155.641C202.499 156.016 202.691 156.484 202.691 157.047C202.691 157.651 202.478 158.141 202.051 158.516C201.624 158.891 201.066 159.078 200.379 159.078C199.91 159.078 199.488 158.984 199.113 158.797C198.738 158.599 198.447 158.333 198.238 158L199.035 157.328C199.171 157.547 199.353 157.724 199.582 157.859C199.811 157.984 200.061 158.047 200.332 158.047C200.665 158.047 200.936 157.953 201.145 157.766C201.353 157.578 201.457 157.328 201.457 157.016C201.457 156.703 201.358 156.453 201.16 156.266C200.973 156.078 200.717 155.984 200.395 155.984C199.978 155.984 199.65 156.146 199.41 156.469L198.52 156.141L198.785 153.062H202.27V154.188H199.754L199.645 155.359C199.926 155.172 200.28 155.078 200.707 155.078ZM209.301 155.078C209.863 155.078 210.332 155.266 210.707 155.641C211.092 156.016 211.285 156.484 211.285 157.047C211.285 157.651 211.072 158.141 210.645 158.516C210.217 158.891 209.66 159.078 208.973 159.078C208.504 159.078 208.082 158.984 207.707 158.797C207.332 158.599 207.04 158.333 206.832 158L207.629 157.328C207.764 157.547 207.947 157.724 208.176 157.859C208.405 157.984 208.655 158.047 208.926 158.047C209.259 158.047 209.53 157.953 209.738 157.766C209.947 157.578 210.051 157.328 210.051 157.016C210.051 156.703 209.952 156.453 209.754 156.266C209.566 156.078 209.311 155.984 208.988 155.984C208.572 155.984 208.243 156.146 208.004 156.469L207.113 156.141L207.379 153.062H210.863V154.188H208.348L208.238 155.359C208.52 155.172 208.874 155.078 209.301 155.078ZM217.895 155.078C218.457 155.078 218.926 155.266 219.301 155.641C219.686 156.016 219.879 156.484 219.879 157.047C219.879 157.651 219.665 158.141 219.238 158.516C218.811 158.891 218.254 159.078 217.566 159.078C217.098 159.078 216.676 158.984 216.301 158.797C215.926 158.599 215.634 158.333 215.426 158L216.223 157.328C216.358 157.547 216.54 157.724 216.77 157.859C216.999 157.984 217.249 158.047 217.52 158.047C217.853 158.047 218.124 157.953 218.332 157.766C218.54 157.578 218.645 157.328 218.645 157.016C218.645 156.703 218.546 156.453 218.348 156.266C218.16 156.078 217.905 155.984 217.582 155.984C217.165 155.984 216.837 156.146 216.598 156.469L215.707 156.141L215.973 153.062H219.457V154.188H216.941L216.832 155.359C217.113 155.172 217.467 155.078 217.895 155.078ZM226.488 155.078C227.051 155.078 227.52 155.266 227.895 155.641C228.28 156.016 228.473 156.484 228.473 157.047C228.473 157.651 228.259 158.141 227.832 158.516C227.405 158.891 226.848 159.078 226.16 159.078C225.691 159.078 225.27 158.984 224.895 158.797C224.52 158.599 224.228 158.333 224.02 158L224.816 157.328C224.952 157.547 225.134 157.724 225.363 157.859C225.592 157.984 225.842 158.047 226.113 158.047C226.447 158.047 226.717 157.953 226.926 157.766C227.134 157.578 227.238 157.328 227.238 157.016C227.238 156.703 227.139 156.453 226.941 156.266C226.754 156.078 226.499 155.984 226.176 155.984C225.759 155.984 225.431 156.146 225.191 156.469L224.301 156.141L224.566 153.062H228.051V154.188H225.535L225.426 155.359C225.707 155.172 226.061 155.078 226.488 155.078ZM247.082 155.078C247.645 155.078 248.113 155.266 248.488 155.641C248.874 156.016 249.066 156.484 249.066 157.047C249.066 157.651 248.853 158.141 248.426 158.516C247.999 158.891 247.441 159.078 246.754 159.078C246.285 159.078 245.863 158.984 245.488 158.797C245.113 158.599 244.822 158.333 244.613 158L245.41 157.328C245.546 157.547 245.728 157.724 245.957 157.859C246.186 157.984 246.436 158.047 246.707 158.047C247.04 158.047 247.311 157.953 247.52 157.766C247.728 157.578 247.832 157.328 247.832 157.016C247.832 156.703 247.733 156.453 247.535 156.266C247.348 156.078 247.092 155.984 246.77 155.984C246.353 155.984 246.025 156.146 245.785 156.469L244.895 156.141L245.16 153.062H248.645V154.188H246.129L246.02 155.359C246.301 155.172 246.655 155.078 247.082 155.078ZM255.676 155.078C256.238 155.078 256.707 155.266 257.082 155.641C257.467 156.016 257.66 156.484 257.66 157.047C257.66 157.651 257.447 158.141 257.02 158.516C256.592 158.891 256.035 159.078 255.348 159.078C254.879 159.078 254.457 158.984 254.082 158.797C253.707 158.599 253.415 158.333 253.207 158L254.004 157.328C254.139 157.547 254.322 157.724 254.551 157.859C254.78 157.984 255.03 158.047 255.301 158.047C255.634 158.047 255.905 157.953 256.113 157.766C256.322 157.578 256.426 157.328 256.426 157.016C256.426 156.703 256.327 156.453 256.129 156.266C255.941 156.078 255.686 155.984 255.363 155.984C254.947 155.984 254.618 156.146 254.379 156.469L253.488 156.141L253.754 153.062H257.238V154.188H254.723L254.613 155.359C254.895 155.172 255.249 155.078 255.676 155.078ZM264.27 155.078C264.832 155.078 265.301 155.266 265.676 155.641C266.061 156.016 266.254 156.484 266.254 157.047C266.254 157.651 266.04 158.141 265.613 158.516C265.186 158.891 264.629 159.078 263.941 159.078C263.473 159.078 263.051 158.984 262.676 158.797C262.301 158.599 262.009 158.333 261.801 158L262.598 157.328C262.733 157.547 262.915 157.724 263.145 157.859C263.374 157.984 263.624 158.047 263.895 158.047C264.228 158.047 264.499 157.953 264.707 157.766C264.915 157.578 265.02 157.328 265.02 157.016C265.02 156.703 264.921 156.453 264.723 156.266C264.535 156.078 264.28 155.984 263.957 155.984C263.54 155.984 263.212 156.146 262.973 156.469L262.082 156.141L262.348 153.062H265.832V154.188H263.316L263.207 155.359C263.488 155.172 263.842 155.078 264.27 155.078ZM272.863 155.078C273.426 155.078 273.895 155.266 274.27 155.641C274.655 156.016 274.848 156.484 274.848 157.047C274.848 157.651 274.634 158.141 274.207 158.516C273.78 158.891 273.223 159.078 272.535 159.078C272.066 159.078 271.645 158.984 271.27 158.797C270.895 158.599 270.603 158.333 270.395 158L271.191 157.328C271.327 157.547 271.509 157.724 271.738 157.859C271.967 157.984 272.217 158.047 272.488 158.047C272.822 158.047 273.092 157.953 273.301 157.766C273.509 157.578 273.613 157.328 273.613 157.016C273.613 156.703 273.514 156.453 273.316 156.266C273.129 156.078 272.874 155.984 272.551 155.984C272.134 155.984 271.806 156.146 271.566 156.469L270.676 156.141L270.941 153.062H274.426V154.188H271.91L271.801 155.359C272.082 155.172 272.436 155.078 272.863 155.078Z" fill="white"/>
<path d="M87.8387 102.142C89.8677 104.26 91.9938 108.5 91.8472 116.832H91.8463V116.832V116.832V116.832V116.832V116.832V116.832V116.832V116.832V116.833V116.833V116.833V116.833V116.833V116.834V116.834V116.834V116.834V116.835V116.835V116.835V116.836V116.836V116.836V116.837V116.837V116.837V116.838V116.838V116.839V116.839V116.84V116.84V116.841V116.841V116.842V116.842V116.843V116.843V116.844V116.845V116.845V116.846V116.846V116.847V116.847V116.848V116.849V116.85V116.85V116.851V116.851V116.853V116.853V116.854V116.855V116.856V116.856V116.857V116.858V116.859V116.86V116.86V116.862V116.862V116.864V116.864V116.866V116.866V116.868V116.869V116.87V116.871V116.872V116.873V116.874V116.875V116.876V116.877V116.879V116.88V116.881V116.882V116.884V116.884V116.886V116.889V116.889V116.891V116.892V116.893V116.894V116.896V116.898V116.901V116.903V116.906V116.908V116.911V116.914V116.916V116.919V116.922V116.925V116.928V116.931V116.934V116.937V116.94V116.943V116.946V116.949V116.953V116.956V116.959V116.963V116.966V116.969V116.973V116.976V116.98V116.983V116.987V116.991V116.994V116.998V117.002V117.005V117.009V117.013V117.017V117.021V117.025V117.029V117.033V117.037V117.041V117.045V117.049V117.053V117.057V117.062V117.066V117.07V117.074V117.079V117.083V117.088V117.092V117.097V117.101V117.106V117.11V117.115V117.119V117.124V117.129V117.133V117.138V117.143V117.148V117.152V117.157V117.162V117.167V117.172V117.177V117.182V117.187V117.192V117.197V117.202V117.207V117.212V117.217V117.222V117.227V117.233V117.238V117.243V117.248V117.254V117.259V117.264V117.27V117.275V117.28V117.286V117.291V117.297V117.302V117.308V117.313V117.319V117.324V117.33V117.335V117.341V117.347V117.352V117.358V117.364V117.369V117.375V117.381V117.387V117.392V117.398V117.404V117.41V117.416V117.421V117.427V117.433V117.439V117.445V117.451V117.457V117.463V117.469V117.475V117.48V117.486V117.492V117.498V117.505V117.511V117.517V117.523V117.529V117.535V117.541V117.547V117.553V117.559V117.565V117.571V117.578V117.584V117.59V117.596V117.602V117.608V117.615V117.621V117.627V117.633V117.64V117.646V117.652V117.658V117.664V117.671V117.677V117.683V117.69V117.696V117.702V117.708V117.715V117.721V117.727V117.733V117.74V117.746V117.752V117.759V117.765V117.767C91.806 117.766 91.7647 117.765 91.7223 117.764C90.9927 117.748 89.951 117.725 88.7025 117.699C86.2056 117.647 82.8807 117.583 79.5701 117.534C76.2609 117.484 72.9604 117.449 70.5144 117.457C69.4849 117.46 68.5981 117.471 67.9228 117.491C68.0387 117.056 68.1879 116.53 68.3738 115.936C68.9241 114.177 69.7903 111.835 71.0547 109.489C73.6078 104.75 77.6262 100.258 83.7184 100.04L84.0016 100.03L84.0408 100.004C84.0617 100.006 84.0854 100.008 84.1117 100.011C84.3194 100.035 84.6336 100.1 85.0205 100.239C85.7892 100.515 86.8159 101.075 87.8387 102.142Z" fill="white" stroke="#7DA3EF" stroke-width="2"/>
<path d="M84.7321 99H193.581C195.753 99 197.915 99.5653 199.487 101.063C202.056 103.51 205.613 108.158 205.613 115.129C205.613 126.04 205.613 214.433 205.613 214.433H120.379C120.379 214.433 120.854 231.037 106.912 234.516C92.9704 237.994 92.9704 221.865 92.9704 213.959C92.9704 206.053 92.9704 117.027 92.9704 117.027C92.9704 117.027 93.921 102.637 84.7321 99.4744C84.5737 99.3163 84.5737 99 84.7321 99Z" fill="white" stroke="#7DA3EF" stroke-width="2" stroke-miterlimit="10"/>
<path d="M108.901 234C109.727 233.63 110.577 233.192 111.425 232.673C116.225 229.739 120.869 224.278 120.801 214.352H219.42C219.37 214.832 219.292 215.46 219.172 216.196C218.883 217.969 218.354 220.351 217.399 222.806C215.488 227.712 211.956 232.721 205.388 234H205.336H205.26H205.183H205.103H205.022H204.939H204.854H204.768H204.679H204.589H204.497H204.404H204.309H204.212H204.113H204.013H203.91H203.807H203.701H203.594H203.485H203.375H203.263H203.149H203.034H202.917H202.798H202.678H202.556H202.433H202.308H202.181H202.053H201.923H201.792H201.659H201.525H201.389H201.251H201.113H200.972H200.83H200.687H200.542H200.395H200.248H200.098H199.947H199.795H199.642H199.486H199.33H199.172H199.013H198.852H198.69H198.526H198.361H198.195H198.027H197.858H197.688H197.516H197.343H197.169H196.993H196.816H196.638H196.458H196.277H196.095H195.912H195.727H195.541H195.354H195.165H194.976H194.785H194.593H194.399H194.205H194.009H193.812H193.614H193.415H193.214H193.013H192.81H192.606H192.401H192.195H191.988H191.779H191.57H191.359H191.148H190.935H190.721H190.506H190.29H190.073H189.855H189.636H189.416H189.195H188.973H188.75H188.526H188.301H188.075H187.848H187.619H187.391H187.161H186.93H186.698H186.465H186.232H185.997H185.762H185.525H185.288H185.05H184.811H184.571H184.33H184.089H183.846H183.603H183.359H183.114H182.868H182.622H182.374H182.126H181.877H181.628H181.377H181.126H180.874H180.622H180.368H180.114H179.859H179.604H179.347H179.09H178.833H178.574H178.315H178.056H177.795H177.534H177.273H177.011H176.748H176.484H176.22H175.955H175.69H175.424H175.158H174.891H174.623H174.355H174.086H173.817H173.547H173.277H173.006H172.734H172.462H172.19H171.917H171.644H171.37H171.096H170.821H170.546H170.27H169.994H169.717H169.441H169.163H168.885H168.607H168.329H168.05H167.771H167.491H167.211H166.93H166.65H166.369H166.087H165.806H165.524H165.241H164.959H164.676H164.393H164.109H163.825H163.541H163.257H162.973H162.688H162.403H162.118H161.832H161.547H161.261H160.975H160.689H160.402H160.116H159.829H159.542H159.255H158.968H158.681H158.394H158.106H157.819H157.531H157.243H156.955H156.668H156.38H156.092H155.803H155.515H155.227H154.939H154.651H154.362H154.074H153.786H153.498H153.209H152.921H152.633H152.345H152.057H151.769H151.481H151.193H150.905H150.617H150.33H150.042H149.755H149.467H149.18H148.893H148.606H148.319H148.033H147.746H147.46H147.174H146.888H146.602H146.317H146.032H145.746H145.462H145.177H144.892H144.608H144.324H144.041H143.757H143.474H143.191H142.909H142.627H142.345H142.063H141.782H141.501H141.22H140.94H140.66H140.381H140.102H139.823H139.544H139.266H138.989H138.711H138.435H138.158H137.882H137.607H137.332H137.057H136.783H136.509H136.236H135.964H135.691H135.42H135.148H134.878H134.607H134.338H134.069H133.8H133.532H133.265H132.998H132.732H132.466H132.201H131.936H131.672H131.409H131.146H130.884H130.623H130.362H130.102H129.843H129.584H129.326H129.068H128.811H128.555H128.3H128.046H127.792H127.538H127.286H127.034H126.783H126.533H126.284H126.035H125.787H125.54H125.294H125.049H124.804H124.56H124.317H124.075H123.834H123.593H123.354H123.115H122.877H122.64H122.404H122.169H121.935H121.702H121.469H121.238H121.007H120.778H120.549H120.321H120.094H119.869H119.644H119.42H119.197H118.976H118.755H118.535H118.316H118.099H117.882H117.667H117.452H117.239H117.026H116.815H116.605H116.396H116.188H115.981H115.775H115.57H115.367H115.164H114.963H114.763H114.564H114.367H114.17H113.975H113.781H113.588H113.396H113.206H113.016H112.828H112.641H112.456H112.272H112.089H111.907H111.726H111.547H111.369H111.193H111.018H110.844H110.671H110.5H110.33H110.161H109.994H109.828H109.664H109.501H109.339H109.179H109.02H108.901Z" fill="white" stroke="#7FA2E4" stroke-width="2"/>
<path d="M115.595 135.222H106.748C104.852 135.222 103.43 133.8 103.43 131.904V123.056C103.43 121.16 104.852 119.738 106.748 119.738H115.595C117.491 119.738 118.913 121.16 118.913 123.056V131.904C118.913 133.8 117.491 135.222 115.595 135.222Z" stroke="#62C9AA" stroke-width="1.8055" stroke-miterlimit="10"/>
<path d="M128.709 121.16H194.908" stroke="#6892E3" stroke-width="1.8055" stroke-miterlimit="10"/>
<path d="M128.709 127.795H194.908" stroke="#6892E3" stroke-width="1.8055" stroke-miterlimit="10"/>
<path d="M128.709 134.432H194.908" stroke="#6892E3" stroke-width="1.8055" stroke-miterlimit="10"/>
<path d="M115.595 164.45H106.748C104.852 164.45 103.43 163.028 103.43 161.132V152.285C103.43 150.389 104.852 148.967 106.748 148.967H115.595C117.491 148.967 118.913 150.389 118.913 152.285V161.132C118.913 163.028 117.491 164.45 115.595 164.45Z" stroke="#62C9AA" stroke-width="1.8055" stroke-miterlimit="10"/>
<path d="M128.709 150.389H194.908" stroke="#6892E3" stroke-width="1.8055" stroke-miterlimit="10"/>
<path d="M128.709 157.023H194.908" stroke="#6892E3" stroke-width="1.8055" stroke-miterlimit="10"/>
<path d="M128.709 163.66H194.908" stroke="#6892E3" stroke-width="1.8055" stroke-miterlimit="10"/>
<path d="M115.595 193.679H106.748C104.852 193.679 103.43 192.257 103.43 190.361V181.513C103.43 179.617 104.852 178.195 106.748 178.195H115.595C117.491 178.195 118.913 179.617 118.913 181.513V190.361C118.913 192.257 117.491 193.679 115.595 193.679Z" stroke="#62C9AA" stroke-width="1.8055" stroke-miterlimit="10"/>
<path d="M128.709 179.617H194.908" stroke="#6892E3" stroke-width="1.8055" stroke-miterlimit="10"/>
<path d="M128.709 186.252H194.908" stroke="#6892E3" stroke-width="1.8055" stroke-miterlimit="10"/>
<path d="M128.709 192.889H194.908" stroke="#6892E3" stroke-width="1.8055" stroke-miterlimit="10"/>
<path d="M109.613 131L108.872 131.671C109.064 131.884 109.339 132.004 109.627 132C109.914 131.996 110.186 131.869 110.373 131.651L109.613 131ZM105.872 128.355L108.872 131.671L110.355 130.329L107.355 127.013L105.872 128.355ZM110.373 131.651L116.373 124.651L114.854 123.349L108.854 130.349L110.373 131.651Z" fill="#62C9AA"/>
<path d="M109.613 160L108.872 160.671C109.064 160.884 109.339 161.004 109.627 161C109.914 160.996 110.186 160.869 110.373 160.651L109.613 160ZM105.872 157.355L108.872 160.671L110.355 159.329L107.355 156.013L105.872 157.355ZM110.373 160.651L116.373 153.651L114.854 152.349L108.854 159.349L110.373 160.651Z" fill="#62C9AA"/>
<path d="M109.613 189L108.872 189.671C109.064 189.884 109.339 190.004 109.627 190C109.914 189.996 110.186 189.869 110.373 189.651L109.613 189ZM105.872 186.355L108.872 189.671L110.355 188.329L107.355 185.013L105.872 186.355ZM110.373 189.651L116.373 182.651L114.854 181.349L108.854 188.349L110.373 189.651Z" fill="#62C9AA"/>
<g filter="url(#filter1_d)">
<path d="M298.944 92.5013C300.152 91.3277 302.075 91.3277 303.283 92.5013C304.759 93.9346 306.949 94.3441 308.843 93.5407C310.394 92.8828 312.187 93.5773 312.889 95.1082C313.748 96.9778 315.643 98.1511 317.699 98.086C319.382 98.0328 320.803 99.328 320.906 101.009C321.031 103.063 322.374 104.841 324.314 105.523C325.904 106.082 326.761 107.803 326.249 109.408C325.623 111.368 326.233 113.511 327.797 114.848C329.077 115.943 329.254 117.858 328.197 119.169C326.906 120.771 326.7 122.99 327.675 124.802C328.473 126.285 327.947 128.134 326.488 128.975C324.705 130.002 323.712 131.998 323.966 134.039C324.175 135.711 323.016 137.245 321.351 137.502C319.318 137.816 317.671 139.317 317.171 141.313C316.761 142.947 315.127 143.959 313.482 143.597C311.472 143.155 309.394 143.96 308.207 145.64C307.235 147.016 305.345 147.369 303.942 146.438C302.228 145.3 299.999 145.3 298.285 146.438C296.882 147.369 294.992 147.016 294.02 145.64C292.832 143.96 290.754 143.155 288.745 143.597C287.1 143.959 285.465 142.947 285.056 141.313C284.555 139.317 282.908 137.816 280.875 137.502C279.211 137.245 278.052 135.711 278.26 134.039C278.515 131.998 277.521 130.002 275.739 128.975C274.279 128.134 273.753 126.285 274.551 124.802C275.526 122.99 275.321 120.771 274.03 119.169C272.972 117.858 273.15 115.943 274.43 114.848C275.993 113.511 276.603 111.368 275.978 109.408C275.466 107.803 276.323 106.082 277.912 105.523C279.853 104.841 281.196 103.063 281.321 101.009C281.423 99.328 282.844 98.0328 284.528 98.086C286.584 98.1511 288.479 96.9778 289.337 95.1082L288.428 94.691L289.337 95.1082C290.04 93.5773 291.833 92.8828 293.383 93.5407C295.277 94.3441 297.468 93.9346 298.944 92.5013Z" fill="#62C9AA" stroke="white" stroke-width="2"/>
<path d="M282.034 122.068C281.269 122.068 280.653 121.827 280.188 121.344C279.724 120.852 279.491 120.204 279.491 119.402C279.491 118.6 279.724 117.958 280.188 117.475C280.662 116.982 281.278 116.736 282.034 116.736C282.59 116.736 283.064 116.868 283.456 117.133C283.848 117.397 284.121 117.771 284.276 118.254L283.169 118.637C282.978 118.026 282.59 117.721 282.007 117.721C281.606 117.721 281.287 117.871 281.05 118.172C280.813 118.473 280.694 118.883 280.694 119.402C280.694 119.922 280.808 120.332 281.036 120.633C281.273 120.934 281.597 121.084 282.007 121.084C282.59 121.084 282.978 120.779 283.169 120.168L284.276 120.551C284.131 121.025 283.862 121.398 283.47 121.672C283.078 121.936 282.599 122.068 282.034 122.068ZM289.69 116.805V122H288.515V117.871H286.382V122H285.206V116.805H289.69ZM295.515 122H294.339V117.871H292.548V119.389C292.548 120.054 292.511 120.574 292.438 120.947C292.366 121.321 292.233 121.599 292.042 121.781C291.851 121.954 291.573 122.041 291.208 122.041C291.035 122.041 290.83 122.027 290.593 122V120.92H290.88C291.035 120.92 291.144 120.893 291.208 120.838C291.272 120.783 291.317 120.642 291.345 120.414C291.372 120.186 291.386 119.808 291.386 119.279V116.805H295.515V122ZM300.519 122L300.149 120.975H297.88L297.511 122H296.28L298.304 116.805H299.753L301.776 122H300.519ZM298.249 119.963H299.78L299.015 117.83L298.249 119.963ZM305.864 116.805V122H304.688V120.045H303.431C302.811 120.045 302.341 119.904 302.022 119.621C301.703 119.339 301.544 118.924 301.544 118.377V116.805H302.72V118.254C302.72 118.518 302.784 118.71 302.911 118.828C303.039 118.947 303.248 119.006 303.54 119.006H304.688V116.805H305.864ZM308.407 120.975H311.087V122H307.259V116.805H311.019V117.83H308.407V118.842H310.403V119.826H308.407V120.975ZM315.366 116.805H316.542V122H315.366V119.867H313.233V122H312.058V116.805H313.233V118.801H315.366V116.805ZM320.151 122.068C319.368 122.068 318.739 121.827 318.265 121.344C317.8 120.852 317.567 120.204 317.567 119.402C317.567 118.6 317.804 117.958 318.278 117.475C318.752 116.982 319.377 116.736 320.151 116.736C320.935 116.736 321.56 116.982 322.024 117.475C322.498 117.958 322.735 118.6 322.735 119.402C322.735 120.204 322.498 120.852 322.024 121.344C321.55 121.827 320.926 122.068 320.151 122.068ZM320.151 121.057C320.571 121.057 320.903 120.906 321.149 120.605C321.405 120.305 321.532 119.904 321.532 119.402C321.532 118.901 321.405 118.5 321.149 118.199C320.903 117.898 320.571 117.748 320.151 117.748C319.732 117.748 319.395 117.898 319.14 118.199C318.894 118.5 318.771 118.901 318.771 119.402C318.771 119.904 318.894 120.305 319.14 120.605C319.395 120.906 319.732 121.057 320.151 121.057Z" fill="white"/>
</g>
<path d="M60.1895 75.1524C62.7169 75.1524 64.7657 73.1036 64.7657 70.5762C64.7657 68.0488 62.7169 66 60.1895 66C57.6621 66 55.6133 68.0488 55.6133 70.5762C55.6133 73.1036 57.6621 75.1524 60.1895 75.1524Z" stroke="white" stroke-width="3" stroke-miterlimit="10"/>
<path d="M252.19 235.152C254.717 235.152 256.766 233.104 256.766 230.576C256.766 228.049 254.717 226 252.19 226C249.662 226 247.613 228.049 247.613 230.576C247.613 233.104 249.662 235.152 252.19 235.152Z" stroke="white" stroke-width="3" stroke-miterlimit="10"/>
<path d="M270.613 67L278.373 74.9586" stroke="white" stroke-width="3" stroke-miterlimit="10" stroke-linecap="round" stroke-linejoin="round"/>
<path d="M270.613 74.9586L278.373 67" stroke="white" stroke-width="3" stroke-miterlimit="10" stroke-linecap="round" stroke-linejoin="round"/>
<path d="M88.6133 265L96.373 272.959" stroke="white" stroke-width="3" stroke-miterlimit="10" stroke-linecap="round" stroke-linejoin="round"/>
<path d="M88.6133 272.959L96.373 265" stroke="white" stroke-width="3" stroke-miterlimit="10" stroke-linecap="round" stroke-linejoin="round"/>
<path d="M185.984 49V60.1421" stroke="white" stroke-width="3" stroke-miterlimit="10" stroke-linecap="round" stroke-linejoin="round"/>
<path d="M180.613 54.5703H191.556" stroke="white" stroke-width="3" stroke-miterlimit="10" stroke-linecap="round" stroke-linejoin="round"/>
<defs>
<filter id="filter0_d" x="107.613" y="106" width="243.285" height="186" filterUnits="userSpaceOnUse" color-interpolation-filters="sRGB">
<feFlood flood-opacity="0" result="BackgroundImageFix"/>
<feColorMatrix in="SourceAlpha" type="matrix" values="0 0 0 0 0 0 0 0 0 0 0 0 0 0 0 0 0 0 127 0"/>
<feOffset dy="39"/>
<feGaussianBlur stdDeviation="22"/>
<feColorMatrix type="matrix" values="0 0 0 0 0.15125 0 0 0 0 0.270833 0 0 0 0 0.504167 0 0 0 0.31 0"/>
<feBlend mode="normal" in2="BackgroundImageFix" result="effect1_dropShadow"/>
<feBlend mode="normal" in="SourceGraphic" in2="effect1_dropShadow" result="shape"/>
</filter>
<filter id="filter1_d" x="257.34" y="79.6211" width="87.5468" height="87.3365" filterUnits="userSpaceOnUse" color-interpolation-filters="sRGB">
<feFlood flood-opacity="0" result="BackgroundImageFix"/>
<feColorMatrix in="SourceAlpha" type="matrix" values="0 0 0 0 0 0 0 0 0 0 0 0 0 0 0 0 0 0 127 0"/>
<feOffset dy="4"/>
<feGaussianBlur stdDeviation="7.5"/>
<feColorMatrix type="matrix" values="0 0 0 0 0 0 0 0 0 0 0 0 0 0 0 0 0 0 0.25 0"/>
<feBlend mode="normal" in2="BackgroundImageFix" result="effect1_dropShadow"/>
<feBlend mode="normal" in="SourceGraphic" in2="effect1_dropShadow" result="shape"/>
</filter>
<linearGradient id="paint0_linear" x1="151.613" y1="209" x2="306.898" y2="111" gradientUnits="userSpaceOnUse">
<stop stop-color="#7096DF"/>
<stop stop-color="#4B7AD3"/>
<stop offset="1" stop-color="#99BAFF"/>
</linearGradient>
<linearGradient id="paint1_linear" x1="171.14" y1="120.469" x2="171.14" y2="136.565" gradientUnits="userSpaceOnUse">
<stop stop-color="#F3FAFC"/>
<stop offset="1" stop-color="#B5B2BD"/>
</linearGradient>
</defs>
</svg>
