<?xml version="1.0" standalone="no"?>
<!DOCTYPE svg PUBLIC "-//W3C//DTD SVG 20010904//EN"
 "http://www.w3.org/TR/2001/REC-SVG-20010904/DTD/svg10.dtd">
<svg version="1.0" xmlns="http://www.w3.org/2000/svg"
 width="512.000000pt" height="512.000000pt" viewBox="0 0 512.000000 512.000000"
 preserveAspectRatio="xMidYMid meet">
<metadata>
Created by potrace 1.11, written by Peter Selinger 2001-2013
</metadata>
<g transform="translate(0.000000,512.000000) scale(0.100000,-0.100000)"
fill="#000000" stroke="none">
<path d="M2499 5066 c-2 -2 -38 -7 -79 -10 -175 -14 -329 -42 -540 -100 -165
-45 -439 -170 -595 -273 -528 -347 -883 -893 -999 -1533 -24 -133 -25 -137
-42 -290 -4 -36 -8 -180 -8 -320 -1 -224 3 -315 20 -442 2 -18 6 -55 10 -83
16 -139 75 -372 136 -540 171 -465 471 -845 868 -1098 125 -79 380 -198 480
-222 8 -2 40 -11 70 -20 209 -59 388 -80 670 -80 205 0 299 7 425 31 447 84
814 312 1068 663 l32 43 7 -53 c4 -30 9 -88 12 -129 4 -41 8 -93 11 -115 2
-22 7 -69 10 -105 5 -61 15 -160 20 -205 1 -11 3 -32 4 -46 l1 -25 405 0 405
0 0 1273 c0 1011 -3 1273 -12 1274 -17 1 -2108 1 -2129 0 -14 -1 -16 -39 -15
-378 l1 -378 547 0 c520 0 548 -1 548 -18 0 -10 -16 -58 -35 -108 -145 -376
-387 -622 -720 -734 -140 -47 -263 -66 -435 -66 -357 0 -653 113 -876 335
-193 193 -339 528 -380 871 -3 28 -8 61 -10 75 -3 14 -6 129 -8 255 -5 325 25
541 106 779 38 113 149 322 203 383 5 7 30 36 55 65 54 64 150 149 228 201
102 68 274 141 377 161 17 4 41 9 55 11 126 26 303 34 435 20 263 -26 513
-153 722 -365 64 -65 170 -220 208 -305 15 -33 29 -62 31 -64 2 -2 66 20 141
48 157 60 223 85 343 131 47 18 94 36 105 41 11 4 110 42 219 84 110 41 201
77 203 79 12 11 -177 364 -199 374 -5 2 -8 8 -8 13 0 20 -132 181 -230 280
-236 238 -531 412 -870 513 -92 27 -192 52 -254 62 -21 3 -46 7 -55 9 -9 2
-44 6 -76 10 -33 4 -71 9 -85 12 -28 6 -516 14 -521 9z"/>
</g>
</svg>
