<?xml version="1.0" standalone="no"?>
<!DOCTYPE svg PUBLIC "-//W3C//DTD SVG 1.1//EN" "http://www.w3.org/Graphics/SVG/1.1/DTD/svg11.dtd" >
<svg xmlns="http://www.w3.org/2000/svg" xmlns:xlink="http://www.w3.org/1999/xlink" version="1.1">
<metadata>
Created by FontForge 20170731 at Fri Oct 25 21:42:05 2019
 By Aleksey,,,
https://plan.diia.gov.ua
</metadata>
<defs>
<font id="e-Ukraine-Light" horiz-adv-x="360" >
  <font-face 
    font-family="e-Ukraine Light"
    font-weight="300"
    font-stretch="normal"
    units-per-em="512"
    panose-1="0 0 4 0 0 0 0 0 0 0"
    ascent="409"
    descent="-103"
    x-height="300"
    cap-height="380"
    bbox="-342 -154 740 500"
    underline-thickness="32"
    underline-position="-96"
    unicode-range="U+000D-2646"
  />
<missing-glyph horiz-adv-x="558" 
d="M488 -39q13 21 13 45v472h-444v-472q0 -24 13 -45t36 -31l173 -76l173 76q23 10 36 31zM262 -93q-22 17 -37 41t-20 52h-93v402q37 -19 62 -56.5t28 -80.5l14 -113l-7 1q-11 0 -19.5 -8.5t-8.5 -19.5q0 -10 6.5 -17.5t16.5 -9.5l17 -4q44 83 44 156q0 25 -4 75
q-1 10 -2 29.5t-1 34.5q0 31 21 55q21 -24 21 -55q0 -24 -4 -70q-1 -12 -2 -29t-1 -40q0 -73 44 -156l17 4q10 2 16.5 9.5t6.5 17.5q0 11 -8.5 19.5t-19.5 8.5l-7 -1l14 113q5 44 29 81.5t61 55.5v-402h-93q-5 -29 -20 -53t-37 -40q-12 -8 -17 -19q-5 11 -17 19zM185 175
l-11 93q-6 43 -34 76v-205h16q6 23 29 36zM418 344q-30 -35 -34 -76l-11 -93q23 -13 29 -36h16v205zM309 87q-21 39 -30 69q-9 -30 -30 -69q16 -4 30 -20q14 16 30 20zM208 68l-13 3q-14 5 -24.5 15.5t-14.5 24.5h-16v-83h63q0 18 5 40zM418 111h-16q-4 -14 -14.5 -24.5
t-24.5 -15.5l-13 -3q5 -22 5 -40h63v83zM256.5 51q-8.5 10 -21.5 11q-5 -18 -5 -34h35q0 13 -8.5 23zM323 62q-13 -1 -21.5 -11t-8.5 -23h35q0 16 -5 34zM234 0q7 -32 31 -59v59h-31zM324 0h-31v-59q24 27 31 59z" />
    <glyph glyph-name="uni20B4" unicode="&#x3c;&#x433;&#x440;&#x43d;&#x3e;" 
d="M234 212l-53 -44h149v-36h-187q-23 -18 -23 -44q0 -23 17 -35.5t50 -12.5q51 0 88 50l38 -26q-24 -34 -57.5 -51.5t-70.5 -17.5q-52 0 -83.5 23.5t-31.5 61.5q0 29 20 52h-60v36h90l53 44h-143v36h183q13 13 18.5 23.5t5.5 22.5q0 21 -17 34t-44 13q-24 0 -44.5 -13.5
t-34.5 -37.5l-40 27q20 32 50.5 50t67.5 18q51 0 81.5 -24t30.5 -62q0 -29 -17 -51h60v-36h-96z" />
    <glyph glyph-name="arrowleft" unicode="&#x3c;&#x2d;" horiz-adv-x="400" 
d="M400 213v-46h-313l101 -101l-32 -32l-156 156l156 156l32 -32l-101 -101h313z" />
    <glyph glyph-name="arrowup" unicode="&#x2d;^" horiz-adv-x="400" 
d="M356 244l-32 -32l-101 101v-313h-46v313l-101 -101l-32 32l156 156z" />
    <glyph glyph-name="arrowright" unicode="&#x2d;&#x3e;" horiz-adv-x="400" 
d="M244 346l156 -156l-156 -156l-32 32l101 101h-313v46h313l-101 101z" />
    <glyph glyph-name="arrowdown" unicode="^&#x2d;" horiz-adv-x="400" 
d="M324 168l32 -32l-156 -156l-156 156l32 32l101 -101v313h46v-313z" />
    <glyph glyph-name="uni2196" unicode="&#x3c;\" horiz-adv-x="400" 
d="M365 54l-33 -33l-221 222v-143h-45v220h220v-45h-143z" />
    <glyph glyph-name="uni2197" unicode="&#x2f;&#x3e;" horiz-adv-x="400" 
d="M114 320h220v-220h-45v143l-221 -222l-33 33l222 221h-143v45z" />
    <glyph glyph-name="uni2198" unicode="\&#x3e;" horiz-adv-x="400" 
d="M289 263h45v-220h-220v45h143l-222 221l33 33l221 -222v143z" />
    <glyph glyph-name="uni2199" unicode="&#x3c;&#x2f;" horiz-adv-x="400" 
d="M365 309l-222 -221h143v-45h-220v220h45v-143l221 222z" />
    <glyph glyph-name="uni2646" unicode="&#x3c;&#x433;&#x435;&#x440;&#x431;&#x3e;" horiz-adv-x="558" 
d="M64.5 -43q-14.5 23 -14.5 49v479h458v-479q0 -26 -14.5 -49t-38.5 -33l-176 -78l-176 78q-24 10 -38.5 33zM488 -39q13 21 13 45v472h-444v-472q0 -24 13 -45t36 -31l173 -76l173 76q23 10 36 31zM262 -93q-22 17 -37 41t-20 52h-93v402q37 -19 62 -56.5t28 -80.5
l14 -113l-7 1q-11 0 -19.5 -8.5t-8.5 -19.5q0 -10 6.5 -17.5t16.5 -9.5l17 -4q44 83 44 156q0 25 -4 75q-1 10 -2 29.5t-1 34.5q0 31 21 55q21 -24 21 -55q0 -24 -4 -70q-1 -12 -2 -29t-1 -40q0 -73 44 -156l17 4q10 2 16.5 9.5t6.5 17.5q0 11 -8.5 19.5t-19.5 8.5l-7 -1
l14 113q5 44 29 81.5t61 55.5v-402h-93q-5 -29 -20 -53t-37 -40q-12 -8 -17 -19q-5 11 -17 19zM185 175l-11 93q-6 43 -34 76v-205h16q6 23 29 36zM418 344q-30 -35 -34 -76l-11 -93q23 -13 29 -36h16v205zM309 87q-21 39 -30 69q-9 -30 -30 -69q16 -4 30 -20q14 16 30 20z
M208 68l-13 3q-14 5 -24.5 15.5t-14.5 24.5h-16v-83h63q0 18 5 40zM418 111h-16q-4 -14 -14.5 -24.5t-24.5 -15.5l-13 -3q5 -22 5 -40h63v83zM256.5 51q-8.5 10 -21.5 11q-5 -18 -5 -34h35q0 13 -8.5 23zM323 62q-13 -1 -21.5 -11t-8.5 -23h35q0 16 -5 34zM234 0
q7 -32 31 -59v59h-31zM324 0h-31v-59q24 27 31 59z" />
    <glyph glyph-name="I_I.liga" unicode="II" horiz-adv-x="344" 
d="M60 380h52v-380h-52v380zM232 380h52v-380h-52v380z" />
    <glyph glyph-name="dotlessi_dotlessi.liga" unicode="&#x131;&#x131;" horiz-adv-x="320" 
d="M55 300h50v-300h-50v300zM215 300h50v-300h-50v300z" />
    <glyph glyph-name="uni04070407.liga" unicode="&#x407;&#x407;" horiz-adv-x="344" 
d="M60 380h52v-380h-52v380zM232 380h52v-380h-52v380zM10 480h56v-56h-56v56zM99 480h56v-56h-56v56zM189 480h56v-56h-56v56zM278 480h56v-56h-56v56z" />
    <glyph glyph-name="uni04570457.liga" unicode="&#x457;&#x457;" horiz-adv-x="320" 
d="M55 300h50v-300h-50v300zM215 300h50v-300h-50v300zM-2 400h56v-56h-56v56zM87 400h56v-56h-56v56zM177 400h56v-56h-56v56zM266 400h56v-56h-56v56z" />
    <glyph glyph-name="uni2019_uni0457.liga" unicode="&#x2019;&#x457;" horiz-adv-x="298" 
d="M193 300h50v-300h-50v300zM142 400h56v-56h-56v56zM238 400h56v-56h-56v56zM30 308q13 0 19 7.5t6 22.5v6h-35v56h70v-56q0 -35 -16 -52.5t-44 -17.5h-10v34h10z" />
    <glyph glyph-name="ampersand.ss08" unicode="&#x3c;&#x442;&#x430;&#x3e;" horiz-adv-x="345" 
d="M325 44v-44q-4 -2 -17 -2q-28 0 -40.5 10.5t-14.5 37.5q-19 -24 -51 -37.5t-74 -13.5q-46 0 -74.5 21t-28.5 57q0 42 32.5 61t86.5 26v75q-24 -2 -46.5 -13t-39.5 -28l-29 31q44 44 115 52v60h-114v43h269v-43h-113v-59q51 -3 79.5 -27t28.5 -63v-124q0 -20 20 -20h11z
M231.5 224q-16.5 11 -45.5 12v-70q33 5 47.5 10.5t14.5 19.5q0 17 -16.5 28zM233 74q18 19 18 46v28q-20 -15 -65 -22v-81q29 10 47 29zM88 45.5q16 -10.5 41 -10.5q10 0 15 1v85q-35 -5 -53.5 -14.5t-18.5 -31.5q0 -19 16 -29.5z" />
    <glyph glyph-name="trident.ss01" unicode="&#x3c;&#x442;&#x440;&#x438;&#x437;&#x443;&#x431;&#x3e;" horiz-adv-x="558" 
d="M262 -93q-22 17 -37 41t-20 52h-93v402q37 -19 62 -56.5t28 -80.5l14 -113l-7 1q-11 0 -19.5 -8.5t-8.5 -19.5q0 -10 6.5 -17.5t16.5 -9.5l17 -4q44 83 44 156q0 25 -4 75q-1 10 -2 29.5t-1 34.5q0 31 21 55q21 -24 21 -55q0 -24 -4 -70q-1 -12 -2 -29t-1 -40
q0 -73 44 -156l17 4q10 2 16.5 9.5t6.5 17.5q0 11 -8.5 19.5t-19.5 8.5l-7 -1l14 113q5 44 29 81.5t61 55.5v-402h-93q-5 -29 -20 -53t-37 -40q-12 -8 -17 -19q-5 11 -17 19zM185 175l-11 93q-6 43 -34 76v-205h16q6 23 29 36zM418 344q-30 -35 -34 -76l-11 -93
q23 -13 29 -36h16v205zM309 87q-21 39 -30 69q-9 -30 -30 -69q16 -4 30 -20q14 16 30 20zM208 68l-13 3q-14 5 -24.5 15.5t-14.5 24.5h-16v-83h63q0 18 5 40zM418 111h-16q-4 -14 -14.5 -24.5t-24.5 -15.5l-13 -3q5 -22 5 -40h63v83zM256.5 51q-8.5 10 -21.5 11
q-5 -18 -5 -34h35q0 13 -8.5 23zM323 62q-13 -1 -21.5 -11t-8.5 -23h35q0 16 -5 34zM234 0q7 -32 31 -59v59h-31zM324 0h-31v-59q24 27 31 59z" />
    <glyph glyph-name=".notdef" horiz-adv-x="558" 
d="M488 -39q13 21 13 45v472h-444v-472q0 -24 13 -45t36 -31l173 -76l173 76q23 10 36 31zM262 -93q-22 17 -37 41t-20 52h-93v402q37 -19 62 -56.5t28 -80.5l14 -113l-7 1q-11 0 -19.5 -8.5t-8.5 -19.5q0 -10 6.5 -17.5t16.5 -9.5l17 -4q44 83 44 156q0 25 -4 75
q-1 10 -2 29.5t-1 34.5q0 31 21 55q21 -24 21 -55q0 -24 -4 -70q-1 -12 -2 -29t-1 -40q0 -73 44 -156l17 4q10 2 16.5 9.5t6.5 17.5q0 11 -8.5 19.5t-19.5 8.5l-7 -1l14 113q5 44 29 81.5t61 55.5v-402h-93q-5 -29 -20 -53t-37 -40q-12 -8 -17 -19q-5 11 -17 19zM185 175
l-11 93q-6 43 -34 76v-205h16q6 23 29 36zM418 344q-30 -35 -34 -76l-11 -93q23 -13 29 -36h16v205zM309 87q-21 39 -30 69q-9 -30 -30 -69q16 -4 30 -20q14 16 30 20zM208 68l-13 3q-14 5 -24.5 15.5t-14.5 24.5h-16v-83h63q0 18 5 40zM418 111h-16q-4 -14 -14.5 -24.5
t-24.5 -15.5l-13 -3q5 -22 5 -40h63v83zM256.5 51q-8.5 10 -21.5 11q-5 -18 -5 -34h35q0 13 -8.5 23zM323 62q-13 -1 -21.5 -11t-8.5 -23h35q0 16 -5 34zM234 0q7 -32 31 -59v59h-31zM324 0h-31v-59q24 27 31 59z" />
    <glyph glyph-name=".null" horiz-adv-x="0" 
 />
    <glyph glyph-name="nonmarkingreturn" unicode="&#xd;" horiz-adv-x="160" 
 />
    <glyph glyph-name="space" unicode=" " horiz-adv-x="160" 
 />
    <glyph glyph-name="exclam" unicode="!" horiz-adv-x="172" 
d="M56 380h60l-11 -260h-38zM121 70v-70h-70v70h70z" />
    <glyph glyph-name="quotedbl" unicode="&#x22;" horiz-adv-x="204" 
d="M25 380h54l-6 -130h-42zM125 380h54l-6 -130h-42z" />
    <glyph glyph-name="numbersign" unicode="#" 
d="M335 234h-65v-88h65v-50h-65v-96h-44v96h-92v-96h-44v96h-65v50h65v88h-65v50h65v96h44v-96h92v96h44v-96h65v-50zM226 146v88h-92v-88h92z" />
    <glyph glyph-name="dollar" unicode="$" horiz-adv-x="351" 
d="M286.5 31q-33.5 -30 -92.5 -35v-40h-38v39q-79 5 -132 55l32 40q42 -40 100 -48v131q-59 18 -89 40.5t-30 65.5q0 44 32 72t87 33v36h38v-36q65 -3 117 -43l-31 -41q-37 32 -86 38v-123q68 -18 97 -42.5t29 -64.5q0 -47 -33.5 -77zM104 249q15 -13 52 -24v113
q-31 -3 -49 -18t-18 -38q0 -20 15 -33zM248.5 61q19.5 16 19.5 41q0 21 -15.5 34t-58.5 26v-120q35 3 54.5 19z" />
    <glyph glyph-name="percent" unicode="%" horiz-adv-x="534" 
d="M57 186q-27 31 -27 84t27 84t73 31t73 -31t27 -84t-27 -84t-73 -31t-73 31zM409 380l-241 -380h-43l241 380h43zM172 213.5q16 21.5 16 56.5t-16 56.5t-42 21.5t-42 -21.5t-16 -56.5t16 -56.5t42 -21.5t42 21.5zM331 26q-27 31 -27 84t27 84t73 31t73 -31t27 -84t-27 -84
t-73 -31t-73 31zM446 53.5q16 21.5 16 56.5t-16 56.5t-42 21.5t-42 -21.5t-16 -56.5t16 -56.5t42 -21.5t42 21.5z" />
    <glyph glyph-name="ampersand" unicode="&#x26;" horiz-adv-x="482" 
d="M463 75q-3 -38 -23 -59t-53 -21q-37 0 -94 43q-59 -43 -131 -43q-64 0 -100.5 27.5t-36.5 76.5q0 39 23 65t72 42q-22 28 -31.5 48.5t-9.5 40.5q0 40 30 65t77 25q50 0 81 -24t31 -63q0 -34 -26.5 -63t-72.5 -46q46 -48 93 -89q42 45 54 112l48 -11q-16 -76 -65 -131
q42 -31 60 -31q14 0 21 11t10 35zM144 328q-17 -15 -17 -38q0 -14 8.5 -28.5t33.5 -40.5q37 10 57.5 29t20.5 44q0 22 -16.5 35.5t-44.5 13.5q-25 0 -42 -15zM256 69q-47 41 -106 104q-73 -21 -73 -74q0 -26 24.5 -42t64.5 -16q50 0 90 28z" />
    <glyph glyph-name="quotesingle" unicode="'" horiz-adv-x="104" 
d="M25 380h54l-6 -130h-42z" />
    <glyph glyph-name="parenleft" unicode="(" horiz-adv-x="230" 
d="M83 26.5q-36 65.5 -36 143.5t36 143.5t98 100.5l19 -25q-48 -38 -75 -95.5t-27 -123.5t27 -123.5t75 -95.5l-19 -25q-62 35 -98 100.5z" />
    <glyph glyph-name="parenright" unicode=")" horiz-adv-x="230" 
d="M47 -49q48 38 75 95.5t27 123.5t-27 123.5t-75 95.5l19 25q62 -35 98 -100.5t36 -143.5t-36 -143.5t-98 -100.5z" />
    <glyph glyph-name="asterisk" unicode="*" horiz-adv-x="238" 
d="M213 319l-68 -22l42 -57l-26 -19l-42 57l-42 -57l-26 19l42 58l-68 22l10 31l68 -22v71h32v-71l68 22z" />
    <glyph glyph-name="plus" unicode="+" 
d="M315 212v-44h-112v-113h-46v113h-112v44h112v113h46v-113h112z" />
    <glyph glyph-name="comma" unicode="," horiz-adv-x="150" 
d="M50 -36q13 0 19 7.5t6 22.5v6h-35v70h70v-70q0 -35 -16 -52.5t-44 -17.5h-10v34h10z" />
    <glyph glyph-name="hyphen" unicode="-" horiz-adv-x="240" 
d="M35 195h170v-50h-170v50z" />
    <glyph glyph-name="period" unicode="." horiz-adv-x="150" 
d="M40 70h70v-70h-70v70z" />
    <glyph glyph-name="slash" unicode="/" horiz-adv-x="230" 
d="M202 400h48l-222 -420h-48z" />
    <glyph glyph-name="zero" unicode="0" 
d="M71 48q-41 53 -41 142t41 142t109 53t109 -53t41 -142t-41 -142t-109 -53t-109 53zM252 81q27 41 27 109t-27 109t-72 41t-72 -41t-27 -109t27 -109t72 -41t72 41z" />
    <glyph glyph-name="one" unicode="1" horiz-adv-x="225" 
d="M15 277v39h15q50 0 68 13t22 51h35v-380h-50v277h-90z" />
    <glyph glyph-name="two" unicode="2" horiz-adv-x="301" 
d="M281 47v-47h-266v32l131 120q39 36 56.5 64t17.5 56q0 31 -19.5 50t-51.5 19q-38 0 -60.5 -22.5t-25.5 -64.5l-47 10q5 56 41.5 88.5t93.5 32.5q53 0 86.5 -30.5t33.5 -79.5q0 -36 -24 -72.5t-78 -84.5l-79 -71h191z" />
    <glyph glyph-name="three" unicode="3" horiz-adv-x="305" 
d="M248.5 201.5q31.5 -31.5 31.5 -80.5q0 -54 -39.5 -90t-98.5 -36q-48 0 -84 21t-53 59l39 24q28 -60 94 -60q43 0 67 22t24 60q0 34 -20 54.5t-52 20.5q-26 0 -44 -12l-27 28l116 122h-181v46h248v-36l-107 -111h7q48 0 79.5 -31.5z" />
    <glyph glyph-name="four" unicode="4" horiz-adv-x="320" 
d="M315 140v-43h-63v-97h-50v97h-187v39l177 244h60v-240h63zM68 140h134v185z" />
    <glyph glyph-name="five" unicode="5" horiz-adv-x="312" 
d="M250 218.5q37 -36.5 37 -92.5q0 -58 -39.5 -94.5t-102.5 -36.5q-43 0 -77 19t-52 51l36 26q13 -23 38.5 -37.5t54.5 -14.5q41 0 66.5 24t25.5 63t-23.5 63t-62.5 24q-26 0 -46 -11t-32 -32l-39 12l17 198h208v-46h-168l-9 -106q29 27 75 27q56 0 93 -36.5z" />
    <glyph glyph-name="six" unicode="6" horiz-adv-x="326" 
d="M276.5 209.5q36.5 -32.5 36.5 -87.5q0 -36 -18.5 -65t-50 -45.5t-67.5 -16.5q-74 0 -110.5 54.5t-36.5 135.5q0 85 38.5 142.5t117.5 57.5q35 0 66 -13.5t51 -39.5l-34 -32q-30 42 -83 42q-59 0 -85 -44.5t-25 -107.5v-6q16 28 45 43t64 15q55 0 91.5 -32.5zM239 60.5
q26 22.5 26 58.5q0 37 -24 59t-61 22t-62.5 -22t-25.5 -57q0 -37 23.5 -60t61.5 -23q36 0 62 22.5z" />
    <glyph glyph-name="seven" unicode="7" horiz-adv-x="279" 
d="M279 380v-36q-65 -60 -103 -151t-38 -193h-52q0 97 38.5 187t96.5 147h-216v46h274z" />
    <glyph glyph-name="eight" unicode="8" horiz-adv-x="324" 
d="M281 156.5q18 -23.5 18 -56.5q0 -47 -37.5 -76t-99.5 -29t-99.5 29t-37.5 76q0 33 18 56.5t51 35.5q-28 12 -43 34.5t-15 52.5q0 48 34 77t92 29t92 -29t34 -77q0 -30 -15 -52.5t-43 -34.5q33 -12 51 -35.5zM106 326.5q-21 -18.5 -21 -49.5t21 -49t56 -18t56 18t21 49
t-21 49.5t-56 18.5t-56 -18.5zM226 53.5q24 18.5 24 49.5t-24 49t-64 18t-64 -18t-24 -49t24 -49.5t64 -18.5t64 18.5z" />
    <glyph glyph-name="nine" unicode="9" horiz-adv-x="326" 
d="M259.5 330.5q36.5 -54.5 36.5 -135.5q0 -85 -38.5 -142.5t-117.5 -57.5q-35 0 -66 13.5t-51 39.5l34 32q30 -42 83 -42q59 0 85 44.5t25 107.5v6q-16 -28 -45 -43t-64 -15q-55 0 -91.5 32.5t-36.5 87.5q0 36 18.5 65t50 45.5t67.5 16.5q74 0 110.5 -54.5zM208.5 202
q25.5 22 25.5 57q0 37 -23.5 60t-61.5 23q-36 0 -62 -22.5t-26 -58.5q0 -37 24 -59t61 -22t62.5 22z" />
    <glyph glyph-name="colon" unicode=":" horiz-adv-x="150" 
d="M40 70h70v-70h-70v70zM40 300h70v-70h-70v70z" />
    <glyph glyph-name="semicolon" unicode=";" horiz-adv-x="150" 
d="M50 -36q13 0 19 7.5t6 22.5v6h-35v70h70v-70q0 -35 -16 -52.5t-44 -17.5h-10v34h10zM40 300h70v-70h-70v70z" />
    <glyph glyph-name="less" unicode="&#x3c;" 
d="M315 322v-47l-209 -83l209 -84v-50l-270 108v48z" />
    <glyph glyph-name="equal" unicode="=" 
d="M45 146h270v-44h-270v44zM45 278h270v-44h-270v44z" />
    <glyph glyph-name="greater" unicode="&#x3e;" 
d="M45 322l270 -108v-48l-270 -108v47l209 84l-209 83v50z" />
    <glyph glyph-name="question" unicode="?" horiz-adv-x="305" 
d="M134.5 156q9.5 17 40.5 42q28 23 38.5 39t10.5 36q0 32 -19 50t-52 18q-37 0 -60 -23.5t-26 -63.5l-47 10q5 55 42 88t93 33q54 0 87 -30t33 -79q0 -31 -15.5 -56t-50.5 -51q-23 -17 -32.5 -29.5t-9.5 -24.5v-5h-40q-2 29 7.5 46zM184 70v-70h-70v70h70z" />
    <glyph glyph-name="at" unicode="@" horiz-adv-x="429" 
d="M409 44v-44q-3 -1 -8.5 -2t-8.5 0q-28 0 -40.5 11t-14.5 38q-17 -24 -45.5 -38t-61.5 -14q-44 0 -71 24.5t-27 64.5q0 52 39 71.5t102 28.5q28 5 40.5 9t12.5 11q0 24 -28 42t-73 18q-68 0 -110 -44t-42 -117q0 -75 44.5 -119t120.5 -44q56 0 97 28l20 -36
q-55 -32 -119 -32q-60 0 -107 26t-73 72t-26 105q0 58 25.5 104t70 72t100.5 26q70 0 111 -36t41 -97v-108q0 -20 20 -20h11zM302 59.5q28 22.5 28 53.5v49q-14 -9 -59 -17q-44 -7 -66.5 -18.5t-22.5 -41.5q0 -23 14 -35.5t40 -12.5q38 0 66 22.5z" />
    <glyph glyph-name="A" unicode="A" horiz-adv-x="390" 
d="M327 0l-38 95h-189l-38 -95h-54l156 380h62l156 -380h-55zM118 141h152l-76 190z" />
    <glyph glyph-name="B" unicode="B" horiz-adv-x="380" 
d="M335.5 158.5q14.5 -23.5 14.5 -54.5q0 -47 -32 -75.5t-86 -28.5h-172v380h167q52 0 83.5 -27.5t31.5 -73.5q0 -57 -47 -84q26 -13 40.5 -36.5zM110 334v-116h109q72 0 72 58t-72 58h-109zM298 109q0 63 -78 63h-110v-126h110q78 0 78 63z" />
    <glyph glyph-name="C" unicode="C" horiz-adv-x="385" 
d="M78.5 48q-48.5 53 -48.5 142q0 57 22.5 101.5t63 69t92.5 24.5q58 0 99 -29t58 -83l-48 -17q-12 41 -40 62t-69 21q-56 0 -90.5 -41t-34.5 -108q0 -69 34 -109t91 -40q41 0 69 21t40 62l48 -17q-17 -52 -58.5 -82t-98.5 -30q-81 0 -129.5 53z" />
    <glyph glyph-name="D" unicode="D" horiz-adv-x="410" 
d="M331.5 329q48.5 -51 48.5 -139q0 -85 -49.5 -137.5t-135.5 -52.5h-135v380h135q88 0 136.5 -51zM291.5 85q35.5 39 35.5 105t-35.5 105t-96.5 39h-83v-288h83q61 0 96.5 39z" />
    <glyph glyph-name="E" unicode="E" horiz-adv-x="340" 
d="M112 47h208v-47h-260v380h255v-47h-203v-115h158v-46h-158v-125z" />
    <glyph glyph-name="F" unicode="F" horiz-adv-x="328" 
d="M318 333h-206v-115h161v-46h-161v-172h-52v380h258v-47z" />
    <glyph glyph-name="G" unicode="G" horiz-adv-x="416" 
d="M376 190v-190h-39l-5 57q-22 -30 -54 -46t-71 -16q-80 0 -128.5 53.5t-48.5 141.5q0 57 23 101.5t65 69t96 24.5q57 0 98 -26.5t60 -76.5l-48 -18q-13 37 -41 56t-69 19q-59 0 -95 -41t-36 -108q0 -69 34 -109t91 -40q45 0 80 27t43 79h-106v43h151z" />
    <glyph glyph-name="H" unicode="H" horiz-adv-x="430" 
d="M318 380h52v-380h-52v171h-206v-171h-52v380h52v-161h206v161z" />
    <glyph glyph-name="I" unicode="I" horiz-adv-x="172" 
d="M60 380h52v-380h-52v380z" />
    <glyph glyph-name="J" unicode="J" horiz-adv-x="264" 
d="M36.5 14q-26.5 19 -36.5 55l45 19q4 -23 18 -35.5t38 -12.5q27 0 41.5 17.5t14.5 49.5v273h52v-272q0 -53 -30 -83t-81 -30q-35 0 -61.5 19z" />
    <glyph glyph-name="K" unicode="K" horiz-adv-x="388" 
d="M314 0l-143 188l-59 -58v-130h-52v380h52v-190l190 190h65l-159 -156l170 -224h-64z" />
    <glyph glyph-name="L" unicode="L" horiz-adv-x="335" 
d="M112 48h208v-48h-260v380h52v-332z" />
    <glyph glyph-name="M" unicode="M" horiz-adv-x="530" 
d="M470 380v-380h-50v325l-125 -325h-60l-125 325v-325h-50v380h83l123 -322l122 322h82z" />
    <glyph glyph-name="N" unicode="N" horiz-adv-x="430" 
d="M321 380h49v-380h-51l-210 299v-299h-49v380h52l209 -297v297z" />
    <glyph glyph-name="O" unicode="O" horiz-adv-x="420" 
d="M79 48q-49 53 -49 142q0 57 23 101.5t64 69t93 24.5q82 0 131 -53t49 -142q0 -57 -23 -101.5t-64 -69t-93 -24.5q-82 0 -131 53zM302.5 81.5q34.5 40.5 34.5 108.5t-34.5 108.5t-92.5 40.5t-92.5 -40.5t-34.5 -108.5t34.5 -108.5t92.5 -40.5t92.5 40.5z" />
    <glyph glyph-name="P" unicode="P" horiz-adv-x="368" 
d="M312.5 349q35.5 -31 35.5 -84t-35.5 -84t-95.5 -31h-105v-150h-52v380h157q60 0 95.5 -31zM295 265q0 68 -84 68h-99v-136h99q84 0 84 68z" />
    <glyph glyph-name="Q" unicode="Q" horiz-adv-x="420" 
d="M347 58q-43 -53 -112 -61v-22q0 -32 36 -32l48 1v-43q-24 -3 -50 -3q-83 0 -83 80v18q-72 8 -114 60.5t-42 133.5q0 57 23 101.5t64 69t93 24.5q82 0 131 -53t49 -142q0 -79 -43 -132zM117.5 81.5q34.5 -40.5 92.5 -40.5t92.5 40.5t34.5 108.5t-34.5 108.5t-92.5 40.5
t-92.5 -40.5t-34.5 -108.5t34.5 -108.5z" />
    <glyph glyph-name="R" unicode="R" horiz-adv-x="384" 
d="M211 152h-100v-152h-51v380h152q59 0 94.5 -31t35.5 -83q0 -39 -20.5 -66.5t-56.5 -39.5l99 -160h-60zM111 197h94q84 0 84 68t-84 68h-94v-136z" />
    <glyph glyph-name="S" unicode="S" horiz-adv-x="348" 
d="M90 9q-38 14 -66 41l32 40q25 -24 56 -36.5t66 -12.5q42 0 66 16.5t24 44.5q0 23 -19 36.5t-72 28.5q-71 20 -105.5 43t-34.5 69q0 49 38.5 77.5t102.5 28.5q75 0 133 -44l-31 -41q-44 39 -107 39q-38 0 -61 -15.5t-23 -41.5q0 -23 21 -37t75 -28q73 -18 104 -43t31 -66
q0 -52 -40 -82.5t-109 -30.5q-43 0 -81 14z" />
    <glyph glyph-name="T" unicode="T" horiz-adv-x="350" 
d="M340 380v-48h-139v-332h-52v332h-139v48h330z" />
    <glyph glyph-name="U" unicode="U" horiz-adv-x="420" 
d="M97 36.5q-42 41.5 -42 111.5v232h52v-232q0 -49 28 -78t75 -29t75 29t28 78v232h52v-232q0 -70 -42 -111.5t-113 -41.5t-113 41.5z" />
    <glyph glyph-name="V" unicode="V" horiz-adv-x="384" 
d="M315 380h54l-147 -380h-60l-147 380h55l123 -322z" />
    <glyph glyph-name="W" unicode="W" horiz-adv-x="554" 
d="M483 380h51l-110 -380h-55l-93 316l-92 -316h-54l-110 380h53l88 -303l87 303h58l88 -305z" />
    <glyph glyph-name="X" unicode="X" horiz-adv-x="372" 
d="M362 0h-62l-114 158l-115 -158h-61l145 195l-135 185h62l105 -147l105 147h60l-134 -183z" />
    <glyph glyph-name="Y" unicode="Y" horiz-adv-x="362" 
d="M357 380l-150 -227v-153h-52v153l-150 227h60l117 -179l116 179h59z" />
    <glyph glyph-name="Z" unicode="Z" horiz-adv-x="353" 
d="M328 380v-43l-236 -289h236v-48h-303v43l236 289h-225v48h292z" />
    <glyph glyph-name="bracketleft" unicode="[" horiz-adv-x="230" 
d="M190 360h-84v-380h84v-40h-130v460h130v-40z" />
    <glyph glyph-name="backslash" unicode="\" horiz-adv-x="230" 
d="M250 -20h-48l-222 420h48z" />
    <glyph glyph-name="bracketright" unicode="]" horiz-adv-x="240" 
d="M200 400v-460h-130v40h84v380h-84v40h130z" />
    <glyph glyph-name="asciicircum" unicode="^" 
d="M302 190h-49l-73 145l-74 -145h-48l98 190h48z" />
    <glyph glyph-name="underscore" unicode="_" horiz-adv-x="250" 
d="M250 -12v-48h-250v48h250z" />
    <glyph glyph-name="grave" unicode="`" horiz-adv-x="160" 
d="M88 330l-57 70h65l29 -70h-37z" />
    <glyph glyph-name="a" unicode="a" horiz-adv-x="317" 
d="M297 44v-44q-4 -2 -17 -2q-28 0 -40.5 11t-14.5 38q-17 -24 -45.5 -38t-61.5 -14q-44 0 -71 24.5t-27 64.5q0 48 35.5 68.5t93.5 29.5q43 7 56.5 13t13.5 23q0 20 -18.5 32t-48.5 12q-26 0 -50.5 -10.5t-43.5 -30.5l-31 32q52 52 127 52q52 0 82 -26t30 -72v-143
q0 -20 20 -20h11zM190 59.5q28 22.5 28 53.5v46q-8 -6 -21 -9t-41 -7q-43 -7 -64.5 -18t-21.5 -40q0 -23 14 -35.5t40 -12.5q38 0 66 22.5z" />
    <glyph glyph-name="b" unicode="b" horiz-adv-x="362" 
d="M298.5 262.5q36.5 -42.5 36.5 -112.5q0 -69 -37.5 -112t-95.5 -43q-69 0 -106 53l-4 -48h-42v400h50v-145q18 24 44.5 37t57.5 13q60 0 96.5 -42.5zM258.5 69.5q25.5 30.5 25.5 80.5t-25.5 80.5t-68.5 30.5t-68.5 -30.5t-25.5 -80.5t25.5 -80.5t68.5 -30.5t68.5 30.5z
" />
    <glyph glyph-name="c" unicode="c" horiz-adv-x="326" 
d="M68.5 38q-41.5 43 -41.5 112t41.5 112t106.5 43q48 0 83.5 -24t47.5 -66l-47 -15q-11 29 -32.5 45t-51.5 16q-45 0 -71 -30t-26 -81t26 -81t71 -30q30 0 52 16t33 45l46 -15q-13 -42 -48.5 -66t-82.5 -24q-65 0 -106.5 43z" />
    <glyph glyph-name="d" unicode="d" horiz-adv-x="362" 
d="M312 400v-400h-42l-4 50q-18 -26 -45.5 -40.5t-60.5 -14.5q-60 0 -96.5 42.5t-36.5 112.5q0 69 37.5 112t95.5 43q32 0 58.5 -12.5t43.5 -35.5v143h50zM240.5 69.5q25.5 30.5 25.5 80.5t-25.5 80.5t-68.5 30.5t-68.5 -30.5t-25.5 -80.5t25.5 -80.5t68.5 -30.5t68.5 30.5z
" />
    <glyph glyph-name="e" unicode="e" horiz-adv-x="341" 
d="M109.5 64.5q26.5 -25.5 68.5 -25.5q64 0 93 41l36 -31q-18 -24 -50 -39t-78 -15q-71 0 -111.5 43t-40.5 112t41 112t106 43t103.5 -42.5t38.5 -112.5q0 -11 -1 -16h-237q5 -44 31.5 -69.5zM110 238.5q-25 -23.5 -31 -64.5h185q-5 41 -29 64.5t-61 23.5q-39 0 -64 -23.5z
" />
    <glyph glyph-name="f" unicode="f" horiz-adv-x="227" 
d="M138 351q-10 -10 -10 -27v-24h87v-43h-87v-257h-50v257h-63v43h63v26q0 37 24.5 58t67.5 21t77 -24l-24 -39q-23 19 -56 19q-19 0 -29 -10z" />
    <glyph glyph-name="g" unicode="g" horiz-adv-x="362" 
d="M312 300l-1 -273q0 -59 -38.5 -95.5t-103.5 -36.5q-77 0 -119 44l30 35q18 -19 39 -27t50 -8q50 0 72.5 25t22.5 65v32q-18 -24 -45 -37t-59 -13q-60 0 -96.5 40t-36.5 107q0 65 37.5 106t95.5 41q34 0 61.5 -13.5t44.5 -37.5l4 46h42zM240.5 82.5q25.5 28.5 25.5 75.5
t-25.5 75t-68.5 28t-68.5 -28t-25.5 -75t25.5 -75.5t68.5 -28.5t68.5 28.5z" />
    <glyph glyph-name="h" unicode="h" horiz-adv-x="359" 
d="M283.5 273.5q30.5 -31.5 30.5 -83.5v-190h-50v175q0 41 -19 63.5t-53 22.5q-39 0 -65.5 -25t-26.5 -63v-173h-50v400h50v-144q18 23 45 36t59 13q49 0 79.5 -31.5z" />
    <glyph glyph-name="i" unicode="i" horiz-adv-x="160" 
d="M55 300h50v-300h-50v300zM52 400h56v-56h-56v56z" />
    <glyph glyph-name="j" unicode="j" horiz-adv-x="155" 
d="M0 -100v46q8 -1 23 -1q16 0 24 7.5t8 25.5v322h50v-324q0 -78 -77 -78q-12 0 -28 2zM52 400h56v-56h-56v56z" />
    <glyph glyph-name="k" unicode="k" horiz-adv-x="316" 
d="M254 0l-109 145l-45 -42v-103h-50v400h50v-239l146 139h64l-129 -121l135 -179h-62z" />
    <glyph glyph-name="l" unicode="l" horiz-adv-x="150" 
d="M50 400h50v-400h-50v400z" />
    <glyph glyph-name="m" unicode="m" horiz-adv-x="557" 
d="M483 273.5q29 -31.5 29 -83.5v-190h-50v175q0 42 -17.5 64t-50.5 22q-38 0 -63 -24.5t-25 -63.5v-173h-50v175q0 42 -17.5 64t-50.5 22q-38 0 -63 -24.5t-25 -63.5v-173h-50v300h42l4 -48q16 25 43 39t61 14t58.5 -16t36.5 -44q16 28 45 44t65 16q49 0 78 -31.5z" />
    <glyph glyph-name="n" unicode="n" 
d="M284.5 273.5q30.5 -31.5 30.5 -83.5v-190h-50v175q0 41 -19 63.5t-53 22.5q-40 0 -66.5 -24.5t-26.5 -63.5v-173h-50v300h42l4 -50q17 26 45.5 40.5t63.5 14.5q49 0 79.5 -31.5z" />
    <glyph glyph-name="o" unicode="o" horiz-adv-x="354" 
d="M68 37q-41 42 -41 113q0 69 42 112t108 43q68 0 109 -42t41 -113q0 -69 -42 -112t-108 -43q-68 0 -109 42zM249 69.5q27 30.5 27 80.5t-27 80.5t-72 30.5t-72 -30.5t-27 -80.5t27 -80.5t72 -30.5t72 30.5z" />
    <glyph glyph-name="p" unicode="p" horiz-adv-x="362" 
d="M298.5 262.5q36.5 -42.5 36.5 -112.5q0 -69 -37.5 -112t-95.5 -43q-32 0 -58.5 12.5t-43.5 35.5v-143h-50v400h42l4 -50q18 26 45.5 40.5t60.5 14.5q60 0 96.5 -42.5zM258.5 69.5q25.5 30.5 25.5 80.5t-25.5 80.5t-68.5 30.5t-68.5 -30.5t-25.5 -80.5t25.5 -80.5
t68.5 -30.5t68.5 30.5z" />
    <glyph glyph-name="q" unicode="q" horiz-adv-x="362" 
d="M312 300v-400h-50v145q-18 -24 -44.5 -37t-57.5 -13q-60 0 -96.5 42.5t-36.5 112.5q0 69 37.5 112t95.5 43q69 0 106 -53l4 48h42zM240.5 69.5q25.5 30.5 25.5 80.5t-25.5 80.5t-68.5 30.5t-68.5 -30.5t-25.5 -80.5t25.5 -80.5t68.5 -30.5t68.5 30.5z" />
    <glyph glyph-name="r" unicode="r" horiz-adv-x="235" 
d="M225 303v-49q-11 1 -35 1q-38 0 -64 -24t-26 -61v-170h-50v300h42l4 -50q17 26 45.5 40.5t62.5 14.5q7 0 21 -2z" />
    <glyph glyph-name="s" unicode="s" horiz-adv-x="288" 
d="M20 42l29 35q38 -38 98 -38q32 0 50 11t18 30q0 17 -16 28t-59 21q-59 15 -83 35t-24 54q0 39 31.5 63t82.5 24q62 0 110 -37l-30 -39q-34 32 -82 32q-29 0 -46 -10.5t-17 -28.5q0 -16 16 -26.5t56 -20.5q60 -17 84.5 -37t24.5 -54q0 -41 -32 -65t-85 -24q-76 0 -126 47z
" />
    <glyph glyph-name="t" unicode="t" horiz-adv-x="244" 
d="M123 257v-172q0 -25 10.5 -34t34.5 -9t50 7v-47q-28 -7 -58 -7q-43 0 -65 21t-22 60v181h-59v43h59l8 80h42v-80h95v-43h-95z" />
    <glyph glyph-name="u" unicode="u" 
d="M310 300v-300h-42l-4 50q-17 -26 -45.5 -40.5t-63.5 -14.5q-49 0 -79.5 31.5t-30.5 83.5v190h50v-175q0 -41 19 -63.5t53 -22.5q40 0 66.5 24.5t26.5 63.5v173h50z" />
    <glyph glyph-name="v" unicode="v" horiz-adv-x="316" 
d="M253 300h53l-120 -300h-56l-120 300h55l94 -247z" />
    <glyph glyph-name="w" unicode="w" horiz-adv-x="468" 
d="M404 300h49l-94 -300h-54l-71 235l-71 -235h-54l-94 300h51l71 -239l72 239h51l73 -240z" />
    <glyph glyph-name="x" unicode="x" horiz-adv-x="326" 
d="M311 0h-61l-87 119l-89 -119h-59l117 153l-110 147h61l82 -111l83 111h58l-110 -146z" />
    <glyph glyph-name="y" unicode="y" horiz-adv-x="321" 
d="M315 300l-115 -316q-14 -40 -38 -64.5t-57 -24.5q-39 0 -59.5 24t-19.5 60l45 8q-2 -46 34 -46q14 0 24.5 9t19.5 28l-141 322h55l110 -263l90 263h52z" />
    <glyph glyph-name="z" unicode="z" horiz-adv-x="294" 
d="M82 43h192v-43h-254v44l188 213h-179v43h240v-44z" />
    <glyph glyph-name="braceleft" unicode="{" horiz-adv-x="230" 
d="M89 170q32 -12 32 -60v-110q0 -20 20 -20h49v-40h-55q-29 0 -44.5 15.5t-15.5 44.5v107q0 22 -7 32.5t-22 10.5h-16v40h16q15 0 22 10.5t7 32.5v107q0 29 15.5 44.5t44.5 15.5h55v-40h-49q-20 0 -20 -20v-110q0 -48 -32 -60z" />
    <glyph glyph-name="bar" unicode="|" horiz-adv-x="166" 
d="M60 400h46v-460h-46v460z" />
    <glyph glyph-name="braceright" unicode="}" horiz-adv-x="230" 
d="M190 190v-40h-16q-15 0 -22 -10.5t-7 -32.5v-107q0 -29 -15.5 -44.5t-44.5 -15.5h-55v40h49q20 0 20 20v110q0 48 32 60q-32 12 -32 60v110q0 20 -20 20h-49v40h55q29 0 44.5 -15.5t15.5 -44.5v-107q0 -22 7 -32.5t22 -10.5h16z" />
    <glyph glyph-name="asciitilde" unicode="~" 
d="M119 233q19 0 34 -6t32 -16t29 -15t27 -5q28 0 52 37l32 -28q-33 -53 -84 -53q-19 0 -34 6t-32 16t-29 15t-27 5q-28 0 -52 -37l-32 28q33 53 84 53z" />
    <glyph glyph-name="exclamdown" unicode="&#xa1;" horiz-adv-x="172" 
d="M51 230v70h70v-70h-70zM67 180h38l11 -260h-60z" />
    <glyph glyph-name="cent" unicode="&#xa2;" horiz-adv-x="329" 
d="M233 100q18 15 27 40l46 -15q-12 -39 -42.5 -62t-72.5 -27v-36h-38v36q-57 8 -91.5 49.5t-34.5 104.5t34.5 104.5t91.5 49.5v36h38v-36q43 -4 73.5 -27t41.5 -62l-47 -15q-18 51 -68 60v-220q24 5 42 20zM98 117q20 -29 55 -36v218q-35 -7 -55 -36t-20 -73t20 -73z" />
    <glyph glyph-name="sterling" unicode="&#xa3;" 
d="M334 77q-4 -82 -75 -82q-31 0 -55.5 13t-54.5 37q-12 -24 -31.5 -37t-43.5 -13q-28 0 -46 17.5t-18 43.5q0 29 19.5 45.5t50.5 16.5q20 0 39 -8q-1 31 -15 62h-73v36h55q-10 19 -15 36t-5 37q0 48 33 76t87 28q51 0 84 -28t39 -73l-47 -13q-5 34 -24.5 52.5t-52.5 18.5
q-31 0 -51 -16.5t-20 -45.5q0 -16 5.5 -32t17.5 -40h105v-36h-89q12 -33 12 -61q0 -9 -2 -25l17 -12q25 -18 40.5 -26.5t31.5 -8.5q17 0 25.5 11t9.5 34zM115 69q-19 11 -37 11q-14 0 -22 -6.5t-8 -17.5t8 -17t20 -6q29 0 39 36z" />
    <glyph glyph-name="currency" unicode="&#xa4;" 
d="M270 127l53 -53l-27 -27l-53 53q-28 -20 -63 -20t-63 20l-53 -53l-27 27l53 53q-20 28 -20 63t20 63l-53 53l27 27l53 -53q28 20 63 20t63 -20l53 53l27 -27l-53 -53q20 -28 20 -63t-20 -63zM132 142q20 -20 48 -20q29 0 48.5 20t19.5 48q0 29 -19.5 48.5t-48.5 19.5
q-28 0 -48 -19.5t-20 -48.5q0 -28 20 -48z" />
    <glyph glyph-name="yen" unicode="&#xa5;" horiz-adv-x="372" 
d="M357 380l-128 -194h63v-36h-85v-44h85v-36h-85v-70h-52v70h-75v36h75v44h-75v36h53l-128 194h60l117 -179l116 179h59z" />
    <glyph glyph-name="brokenbar" unicode="&#xa6;" horiz-adv-x="166" 
d="M60 400h46v-180h-46v180zM106 -60h-46v180h46v-180z" />
    <glyph glyph-name="section" unicode="&#xa7;" horiz-adv-x="294" 
d="M264 18q0 -37 -32.5 -60t-84.5 -23q-77 0 -130 46l29 36q38 -38 102 -38q26 0 47 9t21 32q0 19 -19.5 29t-61.5 22q-37 11 -59 20.5t-37.5 26.5t-15.5 44q0 53 67 73q-27 12 -41.5 27.5t-14.5 40.5q0 37 31 59.5t83 22.5q29 0 58 -9.5t52 -27.5l-28 -40
q-16 16 -38.5 24.5t-45.5 8.5q-27 0 -45 -9t-18 -30q0 -19 18 -28.5t57 -20.5q36 -10 59 -19t39 -27t16 -47q0 -28 -18 -47t-44 -26q54 -19 54 -69zM100.5 127q28.5 -11 58.5 -11q25 0 45 9.5t20 31.5q0 25 -28.5 36t-58.5 11q-25 0 -45 -9.5t-20 -31.5q0 -25 28.5 -36z" />
    <glyph glyph-name="dieresis" unicode="&#xa8;" horiz-adv-x="160" 
d="M34 400h56v-56h-56v56zM130 400h56v-56h-56v56z" />
    <glyph glyph-name="copyright" unicode="&#xa9;" horiz-adv-x="450" 
d="M124.5 20q-44.5 25 -69.5 69.5t-25 100.5t25 100.5t69.5 69.5t100.5 25t100.5 -25t69.5 -69.5t25 -100.5t-25 -100.5t-69.5 -69.5t-100.5 -25t-100.5 25zM339.5 74q44.5 45 44.5 116t-44.5 116t-114.5 45t-114.5 -45t-44.5 -116t44.5 -116t114.5 -45t114.5 45z
M154.5 113.5q-28.5 29.5 -28.5 76.5t28.5 76.5t73.5 29.5q33 0 57 -16.5t33 -44.5l-43 -16q-6 17 -18.5 26t-28.5 9q-25 0 -40 -17.5t-15 -46.5t15 -46.5t40 -17.5q16 0 28.5 9t18.5 26l43 -16q-9 -28 -33 -44.5t-57 -16.5q-45 0 -73.5 29.5z" />
    <glyph glyph-name="guillemotleft" unicode="&#xab;" horiz-adv-x="340" 
d="M160 282v-56l-76 -55l76 -55v-58l-120 86v52zM290 282v-56l-76 -55l76 -55v-58l-120 86v52z" />
    <glyph glyph-name="logicalnot" unicode="&#xac;" 
d="M315 212v-157h-46v113h-224v44h270z" />
    <glyph glyph-name="registered" unicode="&#xae;" horiz-adv-x="280" 
d="M212 357q28 -28 28 -72q0 -43 -28 -71.5t-72 -28.5q-43 0 -71.5 28.5t-28.5 71.5q0 44 28.5 72t71.5 28q44 0 72 -28zM194.5 230.5q21.5 21.5 21.5 54.5t-21.5 54.5t-54.5 21.5t-54.5 -21.5t-21.5 -54.5t21.5 -54.5t54.5 -21.5t54.5 21.5zM183 260h2v-25h-12
q-10 0 -15.5 5.5t-5.5 15.5v5q0 8 -8 8h-19v-34h-26v102h46q16 0 26.5 -9t10.5 -23q0 -18 -14 -24q10 -3 10 -15v-1q0 -5 5 -5zM125 312v-18h18q12 0 12 9t-12 9h-18z" />
    <glyph glyph-name="macron" unicode="&#xaf;" horiz-adv-x="160" 
d="M30 400h160v-40h-160v40z" />
    <glyph glyph-name="degree" unicode="&#xb0;" horiz-adv-x="217" 
d="M51.5 249q-23.5 23 -23.5 56q0 34 23.5 57t56.5 23q34 0 57 -23t23 -57q0 -33 -23 -56t-57 -23q-33 0 -56.5 23zM139.5 274q12.5 12 12.5 31t-12.5 31.5t-31.5 12.5q-18 0 -30.5 -12.5t-12.5 -31.5t12.5 -31t30.5 -12q19 0 31.5 12z" />
    <glyph glyph-name="plusminus" unicode="&#xb1;" 
d="M315 230v-44h-112v-113h-46v113h-112v44h112v113h46v-113h112zM45 44h270v-44h-270v44z" />
    <glyph glyph-name="uni00B2" unicode="&#xb2;" horiz-adv-x="234" 
d="M208 274v-38h-179v28l85 66q45 36 45 64q0 15 -11.5 24t-30.5 9q-22 0 -34.5 -12t-14.5 -33l-39 6q3 35 27 55t63 20q37 0 59.5 -18t22.5 -47q0 -22 -15.5 -44t-53.5 -51l-36 -29h112z" />
    <glyph glyph-name="uni00B3" unicode="&#xb3;" horiz-adv-x="234" 
d="M184 355.5q19 -17.5 19 -46.5q0 -32 -26 -54t-64 -22q-31 0 -56 13.5t-36 36.5l31 21q17 -35 61 -35q22 0 36 11t14 28q0 18 -12.5 28t-31.5 10q-14 0 -26 -6l-19 21l66 62h-108v37h164v-29l-63 -57q32 -1 51 -18.5z" />
    <glyph glyph-name="acute" unicode="&#xb4;" horiz-adv-x="160" 
d="M124 400h65l-57 -70h-37z" />
    <glyph glyph-name="paragraph" unicode="&#xb6;" horiz-adv-x="369" 
d="M209 -100h-52v292h-9q-49 0 -78.5 25.5t-29.5 68.5t29.5 68.5t78.5 25.5h61v-480zM257 380h52v-480h-52v480z" />
    <glyph glyph-name="periodcentered" unicode="&#xb7;" horiz-adv-x="150" 
d="M40 205h70v-70h-70v70z" />
    <glyph glyph-name="cedilla" unicode="&#xb8;" horiz-adv-x="160" 
d="M168.5 -34q13.5 -11 13.5 -31t-19 -32.5t-49 -12.5q-17 0 -34 5.5t-30 15.5l18 27q25 -17 47 -17q13 0 20 4t7 12q0 7 -5.5 10.5t-14.5 3.5q-11 0 -21 -5l-27 15l24 39h37l-15 -24q5 1 13 1q22 0 35.5 -11z" />
    <glyph glyph-name="uni00B9" unicode="&#xb9;" horiz-adv-x="190" 
d="M90 236v152h-61v34h14q32 0 44 8t14 30h30v-224h-41z" />
    <glyph glyph-name="guillemotright" unicode="&#xbb;" horiz-adv-x="340" 
d="M50 224v58l120 -86v-52l-120 -86v56l76 55zM180 282l120 -86v-52l-120 -86v56l76 55l-76 55v58z" />
    <glyph glyph-name="onequarter" unicode="&#xbc;" horiz-adv-x="444" 
d="M90 156v152h-61v34h14q32 0 44 8t14 30h30v-224h-41zM315 380h43l-241 -380h-43zM428 88v-36h-39v-52h-39v52h-121v33l112 139h48v-136h39zM273 88h77v97z" />
    <glyph glyph-name="onehalf" unicode="&#xbd;" horiz-adv-x="444" 
d="M90 156v152h-61v34h14q32 0 44 8t14 30h30v-224h-41zM299 380h43l-241 -380h-43zM418 38v-38h-179v28l85 66q45 36 45 64q0 15 -11.5 24t-30.5 9q-22 0 -34.5 -12t-14.5 -33l-39 6q3 35 27 55t63 20q37 0 59.5 -18t22.5 -47q0 -22 -15.5 -44t-53.5 -51l-36 -29h112z" />
    <glyph glyph-name="threequarters" unicode="&#xbe;" horiz-adv-x="488" 
d="M184 275.5q19 -17.5 19 -46.5q0 -32 -26 -54t-64 -22q-31 0 -56 13.5t-36 36.5l31 21q17 -35 61 -35q22 0 36 11t14 28q0 18 -12.5 28t-31.5 10q-14 0 -26 -6l-19 21l66 62h-108v37h164v-29l-63 -57q32 -1 51 -18.5zM360 380h43l-241 -380h-43zM472 88v-36h-39v-52h-39
v52h-121v33l112 139h48v-136h39zM317 88h77v97z" />
    <glyph glyph-name="questiondown" unicode="&#xbf;" horiz-adv-x="305" 
d="M121 300h70v-70h-70v70zM170.5 144q-9.5 -17 -40.5 -42q-28 -23 -38.5 -39t-10.5 -36q0 -32 19 -50t52 -18q37 0 60 23.5t26 63.5l47 -10q-5 -55 -42 -88t-93 -33q-54 0 -87 30t-33 79q0 31 15.5 56t50.5 51q23 17 32.5 29.5t9.5 24.5v5h40q2 -29 -7.5 -46z" />
    <glyph glyph-name="Agrave" unicode="&#xc0;" horiz-adv-x="390" 
d="M327 0l-38 95h-189l-38 -95h-54l156 380h62l156 -380h-55zM118 141h152l-76 190zM173 410l-57 70h65l29 -70h-37z" />
    <glyph glyph-name="Aacute" unicode="&#xc1;" horiz-adv-x="390" 
d="M327 0l-38 95h-189l-38 -95h-54l156 380h62l156 -380h-55zM118 141h152l-76 190zM209 480h65l-57 -70h-37z" />
    <glyph glyph-name="Acircumflex" unicode="&#xc2;" horiz-adv-x="390" 
d="M327 0l-38 95h-189l-38 -95h-54l156 380h62l156 -380h-55zM118 141h152l-76 190zM280 410h-47l-37 38l-37 -38h-47l57 70h54z" />
    <glyph glyph-name="Atilde" unicode="&#xc3;" horiz-adv-x="390" 
d="M327 0l-38 95h-189l-38 -95h-54l156 380h62l156 -380h-55zM118 141h152l-76 190zM229 420q-16 0 -40 15q-16 10 -24 10q-16 0 -26 -24l-32 18q18 45 56 45q16 0 40 -15q16 -10 24 -10q16 0 26 24l32 -18q-18 -45 -56 -45z" />
    <glyph glyph-name="Adieresis" unicode="&#xc4;" horiz-adv-x="390" 
d="M327 0l-38 95h-189l-38 -95h-54l156 380h62l156 -380h-55zM118 141h152l-76 190zM119 480h56v-56h-56v56zM215 480h56v-56h-56v56z" />
    <glyph glyph-name="Aring" unicode="&#xc5;" horiz-adv-x="390" 
d="M289 95h-189l-38 -95h-54l154 375q-14 8 -22 21.5t-8 31.5q0 27 18 44.5t45 17.5t45 -17.5t18 -44.5q0 -18 -8 -31.5t-22 -21.5l154 -375h-55zM174 449q-8 -8 -8 -21t8 -21t21 -8t21 8t8 21t-8 21t-21 8t-21 -8zM118 141h152l-76 190z" />
    <glyph glyph-name="AE" unicode="&#xc6;" horiz-adv-x="486" 
d="M333 47h133v-47h-169l-35 95h-167l-35 -95h-52l143 380h310v-47h-235l43 -115h153v-46h-136zM112 141h133l-67 180z" />
    <glyph glyph-name="Ccedilla" unicode="&#xc7;" horiz-adv-x="385" 
d="M277 62q28 21 40 62l48 -17q-15 -48 -51.5 -77.5t-88.5 -33.5l-12 -20q5 1 13 1q22 0 35.5 -11t13.5 -31t-19 -32.5t-49 -12.5q-17 0 -34 5.5t-30 15.5l18 27q26 -17 47 -17q13 0 20 4t7 12q0 7 -5.5 10.5t-14.5 3.5q-11 0 -21 -5l-27 15l21 35q-72 7 -115 59t-43 135
q0 57 22.5 101.5t63 69t92.5 24.5q58 0 99 -29t58 -83l-48 -17q-12 41 -40 62t-69 21q-56 0 -90.5 -41t-34.5 -108q0 -69 34 -109t91 -40q41 0 69 21z" />
    <glyph glyph-name="Egrave" unicode="&#xc8;" horiz-adv-x="340" 
d="M112 47h208v-47h-260v380h255v-47h-203v-115h158v-46h-158v-125zM163 410l-57 70h65l29 -70h-37z" />
    <glyph glyph-name="Eacute" unicode="&#xc9;" horiz-adv-x="340" 
d="M112 47h208v-47h-260v380h255v-47h-203v-115h158v-46h-158v-125zM199 480h65l-57 -70h-37z" />
    <glyph glyph-name="Ecircumflex" unicode="&#xca;" horiz-adv-x="340" 
d="M112 47h208v-47h-260v380h255v-47h-203v-115h158v-46h-158v-125zM270 410h-47l-37 38l-37 -38h-47l57 70h54z" />
    <glyph glyph-name="Edieresis" unicode="&#xcb;" horiz-adv-x="340" 
d="M112 47h208v-47h-260v380h255v-47h-203v-115h158v-46h-158v-125zM109 480h56v-56h-56v56zM205 480h56v-56h-56v56z" />
    <glyph glyph-name="Igrave" unicode="&#xcc;" horiz-adv-x="172" 
d="M60 380h52v-380h-52v380zM64 410l-57 70h65l29 -70h-37z" />
    <glyph glyph-name="Iacute" unicode="&#xcd;" horiz-adv-x="172" 
d="M60 380h52v-380h-52v380zM100 480h65l-57 -70h-37z" />
    <glyph glyph-name="Icircumflex" unicode="&#xce;" horiz-adv-x="172" 
d="M60 380h52v-380h-52v380zM171 410h-47l-37 38l-37 -38h-47l57 70h54z" />
    <glyph glyph-name="Idieresis" unicode="&#xcf;" horiz-adv-x="172" 
d="M60 380h52v-380h-52v380zM10 480h56v-56h-56v56zM106 480h56v-56h-56v56z" />
    <glyph glyph-name="Eth" unicode="&#xd0;" horiz-adv-x="410" 
d="M331.5 329q48.5 -51 48.5 -139q0 -85 -49.5 -137.5t-135.5 -52.5h-135v173h-38v44h38v163h135q88 0 136.5 -51zM291.5 85q35.5 39 35.5 105t-35.5 105t-96.5 39h-83v-117h70v-44h-70v-127h83q61 0 96.5 39z" />
    <glyph glyph-name="Ntilde" unicode="&#xd1;" horiz-adv-x="430" 
d="M321 380h49v-380h-51l-210 299v-299h-49v380h52l209 -297v297zM249 420q-16 0 -40 15q-16 10 -24 10q-16 0 -26 -24l-32 18q18 45 56 45q16 0 40 -15q16 -10 24 -10q16 0 26 24l32 -18q-18 -45 -56 -45z" />
    <glyph glyph-name="Ograve" unicode="&#xd2;" horiz-adv-x="420" 
d="M79 48q-49 53 -49 142q0 57 23 101.5t64 69t93 24.5q82 0 131 -53t49 -142q0 -57 -23 -101.5t-64 -69t-93 -24.5q-82 0 -131 53zM302.5 81.5q34.5 40.5 34.5 108.5t-34.5 108.5t-92.5 40.5t-92.5 -40.5t-34.5 -108.5t34.5 -108.5t92.5 -40.5t92.5 40.5zM188 410l-57 70
h65l29 -70h-37z" />
    <glyph glyph-name="Oacute" unicode="&#xd3;" horiz-adv-x="420" 
d="M79 48q-49 53 -49 142q0 57 23 101.5t64 69t93 24.5q82 0 131 -53t49 -142q0 -57 -23 -101.5t-64 -69t-93 -24.5q-82 0 -131 53zM302.5 81.5q34.5 40.5 34.5 108.5t-34.5 108.5t-92.5 40.5t-92.5 -40.5t-34.5 -108.5t34.5 -108.5t92.5 -40.5t92.5 40.5zM224 480h65
l-57 -70h-37z" />
    <glyph glyph-name="Ocircumflex" unicode="&#xd4;" horiz-adv-x="420" 
d="M79 48q-49 53 -49 142q0 57 23 101.5t64 69t93 24.5q82 0 131 -53t49 -142q0 -57 -23 -101.5t-64 -69t-93 -24.5q-82 0 -131 53zM302.5 81.5q34.5 40.5 34.5 108.5t-34.5 108.5t-92.5 40.5t-92.5 -40.5t-34.5 -108.5t34.5 -108.5t92.5 -40.5t92.5 40.5zM295 410h-47
l-37 38l-37 -38h-47l57 70h54z" />
    <glyph glyph-name="Otilde" unicode="&#xd5;" horiz-adv-x="420" 
d="M79 48q-49 53 -49 142q0 57 23 101.5t64 69t93 24.5q82 0 131 -53t49 -142q0 -57 -23 -101.5t-64 -69t-93 -24.5q-82 0 -131 53zM302.5 81.5q34.5 40.5 34.5 108.5t-34.5 108.5t-92.5 40.5t-92.5 -40.5t-34.5 -108.5t34.5 -108.5t92.5 -40.5t92.5 40.5zM244 420
q-16 0 -40 15q-16 10 -24 10q-16 0 -26 -24l-32 18q18 45 56 45q16 0 40 -15q16 -10 24 -10q16 0 26 24l32 -18q-18 -45 -56 -45z" />
    <glyph glyph-name="Odieresis" unicode="&#xd6;" horiz-adv-x="420" 
d="M79 48q-49 53 -49 142q0 57 23 101.5t64 69t93 24.5q82 0 131 -53t49 -142q0 -57 -23 -101.5t-64 -69t-93 -24.5q-82 0 -131 53zM302.5 81.5q34.5 40.5 34.5 108.5t-34.5 108.5t-92.5 40.5t-92.5 -40.5t-34.5 -108.5t34.5 -108.5t92.5 -40.5t92.5 40.5zM134 480h56v-56
h-56v56zM230 480h56v-56h-56v56z" />
    <glyph glyph-name="multiply" unicode="&#xd7;" 
d="M302 280l-90 -90l90 -90l-32 -32l-90 90l-90 -90l-32 32l90 90l-90 90l32 32l90 -90l90 90z" />
    <glyph glyph-name="Oslash" unicode="&#xd8;" horiz-adv-x="420" 
d="M390 190q0 -57 -23 -101.5t-64 -69t-93 -24.5q-60 0 -104 30l-24 -30h-49l44 56q-47 53 -47 139q0 57 23 101.5t64 69t93 24.5q60 0 104 -30l24 30h49l-44 -56q47 -53 47 -139zM109 93l175 223q-31 23 -74 23q-58 0 -92.5 -40.5t-34.5 -108.5q0 -59 26 -97zM302.5 81.5
q34.5 40.5 34.5 108.5q0 59 -26 97l-175 -223q31 -23 74 -23q58 0 92.5 40.5z" />
    <glyph glyph-name="Ugrave" unicode="&#xd9;" horiz-adv-x="420" 
d="M97 36.5q-42 41.5 -42 111.5v232h52v-232q0 -49 28 -78t75 -29t75 29t28 78v232h52v-232q0 -70 -42 -111.5t-113 -41.5t-113 41.5zM188 410l-57 70h65l29 -70h-37z" />
    <glyph glyph-name="Uacute" unicode="&#xda;" horiz-adv-x="420" 
d="M97 36.5q-42 41.5 -42 111.5v232h52v-232q0 -49 28 -78t75 -29t75 29t28 78v232h52v-232q0 -70 -42 -111.5t-113 -41.5t-113 41.5zM224 480h65l-57 -70h-37z" />
    <glyph glyph-name="Ucircumflex" unicode="&#xdb;" horiz-adv-x="420" 
d="M97 36.5q-42 41.5 -42 111.5v232h52v-232q0 -49 28 -78t75 -29t75 29t28 78v232h52v-232q0 -70 -42 -111.5t-113 -41.5t-113 41.5zM295 410h-47l-37 38l-37 -38h-47l57 70h54z" />
    <glyph glyph-name="Udieresis" unicode="&#xdc;" horiz-adv-x="420" 
d="M97 36.5q-42 41.5 -42 111.5v232h52v-232q0 -49 28 -78t75 -29t75 29t28 78v232h52v-232q0 -70 -42 -111.5t-113 -41.5t-113 41.5zM134 480h56v-56h-56v56zM230 480h56v-56h-56v56z" />
    <glyph glyph-name="Yacute" unicode="&#xdd;" horiz-adv-x="362" 
d="M357 380l-150 -227v-153h-52v153l-150 227h60l117 -179l116 179h59zM195 480h65l-57 -70h-37z" />
    <glyph glyph-name="Thorn" unicode="&#xde;" horiz-adv-x="373" 
d="M312.5 279q35.5 -31 35.5 -84t-35.5 -84t-95.5 -31h-105v-80h-52v380h52v-70h105q60 0 95.5 -31zM295 195q0 68 -84 68h-99v-136h99q84 0 84 68z" />
    <glyph glyph-name="germandbls" unicode="&#xdf;" horiz-adv-x="375" 
d="M141 34l27 35q17 -16 40.5 -24.5t48.5 -8.5t39.5 10t14.5 26q0 13 -13.5 22t-48.5 19q-52 16 -71.5 31t-19.5 45t16.5 44.5t47.5 29.5q25 10 36.5 18.5t11.5 24.5q0 25 -21.5 40t-57.5 15q-91 0 -91 -76v-285h-50v285q0 55 37 87.5t101 32.5q58 0 95 -26t37 -67
q0 -35 -20 -52.5t-54 -30.5q-24 -10 -34.5 -17.5t-10.5 -20.5q0 -11 11.5 -17t44.5 -15q57 -16 80 -35t23 -49q0 -36 -29.5 -58t-76.5 -22q-68 0 -113 39z" />
    <glyph glyph-name="agrave" unicode="&#xe0;" horiz-adv-x="317" 
d="M297 44v-44q-4 -2 -17 -2q-28 0 -40.5 11t-14.5 38q-17 -24 -45.5 -38t-61.5 -14q-44 0 -71 24.5t-27 64.5q0 48 35.5 68.5t93.5 29.5q43 7 56.5 13t13.5 23q0 20 -18.5 32t-48.5 12q-26 0 -50.5 -10.5t-43.5 -30.5l-31 32q52 52 127 52q52 0 82 -26t30 -72v-143
q0 -20 20 -20h11zM190 59.5q28 22.5 28 53.5v46q-8 -6 -21 -9t-41 -7q-43 -7 -64.5 -18t-21.5 -40q0 -23 14 -35.5t40 -12.5q38 0 66 22.5zM132 330l-57 70h65l29 -70h-37z" />
    <glyph glyph-name="aacute" unicode="&#xe1;" horiz-adv-x="317" 
d="M297 44v-44q-4 -2 -17 -2q-28 0 -40.5 11t-14.5 38q-17 -24 -45.5 -38t-61.5 -14q-44 0 -71 24.5t-27 64.5q0 48 35.5 68.5t93.5 29.5q43 7 56.5 13t13.5 23q0 20 -18.5 32t-48.5 12q-26 0 -50.5 -10.5t-43.5 -30.5l-31 32q52 52 127 52q52 0 82 -26t30 -72v-143
q0 -20 20 -20h11zM190 59.5q28 22.5 28 53.5v46q-8 -6 -21 -9t-41 -7q-43 -7 -64.5 -18t-21.5 -40q0 -23 14 -35.5t40 -12.5q38 0 66 22.5zM168 400h65l-57 -70h-37z" />
    <glyph glyph-name="acircumflex" unicode="&#xe2;" horiz-adv-x="317" 
d="M297 44v-44q-4 -2 -17 -2q-28 0 -40.5 11t-14.5 38q-17 -24 -45.5 -38t-61.5 -14q-44 0 -71 24.5t-27 64.5q0 48 35.5 68.5t93.5 29.5q43 7 56.5 13t13.5 23q0 20 -18.5 32t-48.5 12q-26 0 -50.5 -10.5t-43.5 -30.5l-31 32q52 52 127 52q52 0 82 -26t30 -72v-143
q0 -20 20 -20h11zM190 59.5q28 22.5 28 53.5v46q-8 -6 -21 -9t-41 -7q-43 -7 -64.5 -18t-21.5 -40q0 -23 14 -35.5t40 -12.5q38 0 66 22.5zM239 330h-47l-37 38l-37 -38h-47l57 70h54z" />
    <glyph glyph-name="atilde" unicode="&#xe3;" horiz-adv-x="317" 
d="M297 44v-44q-4 -2 -17 -2q-28 0 -40.5 11t-14.5 38q-17 -24 -45.5 -38t-61.5 -14q-44 0 -71 24.5t-27 64.5q0 48 35.5 68.5t93.5 29.5q43 7 56.5 13t13.5 23q0 20 -18.5 32t-48.5 12q-26 0 -50.5 -10.5t-43.5 -30.5l-31 32q52 52 127 52q52 0 82 -26t30 -72v-143
q0 -20 20 -20h11zM190 59.5q28 22.5 28 53.5v46q-8 -6 -21 -9t-41 -7q-43 -7 -64.5 -18t-21.5 -40q0 -23 14 -35.5t40 -12.5q38 0 66 22.5zM188 340q-16 0 -40 15q-16 10 -24 10q-16 0 -26 -24l-32 18q18 45 56 45q16 0 40 -15q16 -10 24 -10q16 0 26 24l32 -18
q-18 -45 -56 -45z" />
    <glyph glyph-name="adieresis" unicode="&#xe4;" horiz-adv-x="317" 
d="M297 44v-44q-4 -2 -17 -2q-28 0 -40.5 11t-14.5 38q-17 -24 -45.5 -38t-61.5 -14q-44 0 -71 24.5t-27 64.5q0 48 35.5 68.5t93.5 29.5q43 7 56.5 13t13.5 23q0 20 -18.5 32t-48.5 12q-26 0 -50.5 -10.5t-43.5 -30.5l-31 32q52 52 127 52q52 0 82 -26t30 -72v-143
q0 -20 20 -20h11zM190 59.5q28 22.5 28 53.5v46q-8 -6 -21 -9t-41 -7q-43 -7 -64.5 -18t-21.5 -40q0 -23 14 -35.5t40 -12.5q38 0 66 22.5zM78 400h56v-56h-56v56zM174 400h56v-56h-56v56z" />
    <glyph glyph-name="aring" unicode="&#xe5;" horiz-adv-x="317" 
d="M297 44v-44q-4 -2 -17 -2q-28 0 -40.5 11t-14.5 38q-17 -24 -45.5 -38t-61.5 -14q-44 0 -71 24.5t-27 64.5q0 48 35.5 68.5t93.5 29.5q43 7 56.5 13t13.5 23q0 20 -18.5 32t-48.5 12q-26 0 -50.5 -10.5t-43.5 -30.5l-31 32q52 52 127 52q52 0 82 -26t30 -72v-143
q0 -20 20 -20h11zM190 59.5q28 22.5 28 53.5v46q-8 -6 -21 -9t-41 -7q-43 -7 -64.5 -18t-21.5 -40q0 -23 14 -35.5t40 -12.5q38 0 66 22.5zM109 347.5q-18 17.5 -18 44.5t18 44.5t45 17.5t45 -17.5t18 -44.5t-18 -44.5t-45 -17.5t-45 17.5zM175 371q8 8 8 21t-8 21t-21 8
t-21 -8t-8 -21t8 -21t21 -8t21 8z" />
    <glyph glyph-name="ae" unicode="&#xe6;" horiz-adv-x="518" 
d="M298 64.5q25 -25.5 65 -25.5q60 0 87 40l34 -31q-17 -24 -47.5 -38.5t-72.5 -14.5q-41 0 -71 17.5t-48 49.5q-15 -28 -43 -47.5t-70 -19.5q-48 0 -77.5 24.5t-29.5 64.5q0 41 32 66t95 33q8 1 33.5 4.5t32 9.5t6.5 19q0 19 -19 32.5t-48 13.5q-26 0 -50.5 -10.5
t-43.5 -30.5l-31 32q52 52 127 52q36 0 60.5 -14t34.5 -40q38 54 105 54q61 0 97.5 -42.5t36.5 -112.5q0 -11 -1 -16h-223q4 -44 29 -69.5zM299 238.5q-24 -23.5 -29 -64.5h172q-5 41 -27 64.5t-56 23.5q-36 0 -60 -23.5zM196 60.5q27 23.5 27 65.5v35q-7 -5 -21.5 -8
t-26.5 -4.5t-18 -2.5q-44 -7 -64 -21.5t-20 -39.5q0 -23 15.5 -35.5t43.5 -12.5q37 0 64 23.5z" />
    <glyph glyph-name="ccedilla" unicode="&#xe7;" horiz-adv-x="326" 
d="M227 55q22 16 33 45l46 -15q-11 -38 -41 -61t-71 -28l-13 -20q5 1 13 1q22 0 35.5 -11t13.5 -31t-19 -32.5t-49 -12.5q-17 0 -34 5.5t-30 15.5l18 27q26 -17 47 -17q13 0 20 4t7 12q0 7 -5.5 10.5t-14.5 3.5q-11 0 -21 -5l-27 15l22 35q-59 6 -94.5 48t-35.5 106
q0 69 41.5 112t106.5 43q48 0 83.5 -24t47.5 -66l-47 -15q-11 29 -32.5 45t-51.5 16q-45 0 -71 -30t-26 -81t26 -81t71 -30q30 0 52 16z" />
    <glyph glyph-name="egrave" unicode="&#xe8;" horiz-adv-x="341" 
d="M109.5 64.5q26.5 -25.5 68.5 -25.5q64 0 93 41l36 -31q-18 -24 -50 -39t-78 -15q-71 0 -111.5 43t-40.5 112t41 112t106 43t103.5 -42.5t38.5 -112.5q0 -11 -1 -16h-237q5 -44 31.5 -69.5zM110 238.5q-25 -23.5 -31 -64.5h185q-5 41 -29 64.5t-61 23.5q-39 0 -64 -23.5z
M149 330l-57 70h65l29 -70h-37z" />
    <glyph glyph-name="eacute" unicode="&#xe9;" horiz-adv-x="341" 
d="M109.5 64.5q26.5 -25.5 68.5 -25.5q64 0 93 41l36 -31q-18 -24 -50 -39t-78 -15q-71 0 -111.5 43t-40.5 112t41 112t106 43t103.5 -42.5t38.5 -112.5q0 -11 -1 -16h-237q5 -44 31.5 -69.5zM110 238.5q-25 -23.5 -31 -64.5h185q-5 41 -29 64.5t-61 23.5q-39 0 -64 -23.5z
M185 400h65l-57 -70h-37z" />
    <glyph glyph-name="ecircumflex" unicode="&#xea;" horiz-adv-x="341" 
d="M109.5 64.5q26.5 -25.5 68.5 -25.5q64 0 93 41l36 -31q-18 -24 -50 -39t-78 -15q-71 0 -111.5 43t-40.5 112t41 112t106 43t103.5 -42.5t38.5 -112.5q0 -11 -1 -16h-237q5 -44 31.5 -69.5zM110 238.5q-25 -23.5 -31 -64.5h185q-5 41 -29 64.5t-61 23.5q-39 0 -64 -23.5z
M256 330h-47l-37 38l-37 -38h-47l57 70h54z" />
    <glyph glyph-name="edieresis" unicode="&#xeb;" horiz-adv-x="341" 
d="M109.5 64.5q26.5 -25.5 68.5 -25.5q64 0 93 41l36 -31q-18 -24 -50 -39t-78 -15q-71 0 -111.5 43t-40.5 112t41 112t106 43t103.5 -42.5t38.5 -112.5q0 -11 -1 -16h-237q5 -44 31.5 -69.5zM110 238.5q-25 -23.5 -31 -64.5h185q-5 41 -29 64.5t-61 23.5q-39 0 -64 -23.5z
M95 400h56v-56h-56v56zM191 400h56v-56h-56v56z" />
    <glyph glyph-name="igrave" unicode="&#xec;" horiz-adv-x="160" 
d="M55 300h50v-300h-50v300zM58 330l-57 70h65l29 -70h-37z" />
    <glyph glyph-name="iacute" unicode="&#xed;" horiz-adv-x="160" 
d="M55 300h50v-300h-50v300zM94 400h65l-57 -70h-37z" />
    <glyph glyph-name="icircumflex" unicode="&#xee;" horiz-adv-x="160" 
d="M55 300h50v-300h-50v300zM165 330h-47l-37 38l-37 -38h-47l57 70h54z" />
    <glyph glyph-name="idieresis" unicode="&#xef;" horiz-adv-x="160" 
d="M55 300h50v-300h-50v300zM4 400h56v-56h-56v56zM100 400h56v-56h-56v56z" />
    <glyph glyph-name="eth" unicode="&#xf0;" horiz-adv-x="343" 
d="M308 156q0 -74 -39 -117.5t-102 -43.5q-64 0 -102 40t-38 107q0 65 37.5 106t96.5 41q46 0 79 -30q-17 41 -52 73l-62 -34l-19 31l48 26q-21 13 -41 20l21 38q37 -15 64 -34l56 31l19 -32l-45 -24q79 -76 79 -198zM231.5 67q24.5 28 24.5 75t-24.5 75t-64.5 28t-64.5 -28
t-24.5 -75t24.5 -75t64.5 -28t64.5 28z" />
    <glyph glyph-name="ntilde" unicode="&#xf1;" 
d="M284.5 273.5q30.5 -31.5 30.5 -83.5v-190h-50v175q0 41 -19 63.5t-53 22.5q-40 0 -66.5 -24.5t-26.5 -63.5v-173h-50v300h42l4 -50q17 26 45.5 40.5t63.5 14.5q49 0 79.5 -31.5zM215 340q-16 0 -40 15q-16 10 -24 10q-16 0 -26 -24l-32 18q18 45 56 45q16 0 40 -15
q16 -10 24 -10q16 0 26 24l32 -18q-18 -45 -56 -45z" />
    <glyph glyph-name="ograve" unicode="&#xf2;" horiz-adv-x="354" 
d="M68 37q-41 42 -41 113q0 69 42 112t108 43q68 0 109 -42t41 -113q0 -69 -42 -112t-108 -43q-68 0 -109 42zM249 69.5q27 30.5 27 80.5t-27 80.5t-72 30.5t-72 -30.5t-27 -80.5t27 -80.5t72 -30.5t72 30.5zM155 330l-57 70h65l29 -70h-37z" />
    <glyph glyph-name="oacute" unicode="&#xf3;" horiz-adv-x="354" 
d="M68 37q-41 42 -41 113q0 69 42 112t108 43q68 0 109 -42t41 -113q0 -69 -42 -112t-108 -43q-68 0 -109 42zM249 69.5q27 30.5 27 80.5t-27 80.5t-72 30.5t-72 -30.5t-27 -80.5t27 -80.5t72 -30.5t72 30.5zM191 400h65l-57 -70h-37z" />
    <glyph glyph-name="ocircumflex" unicode="&#xf4;" horiz-adv-x="354" 
d="M68 37q-41 42 -41 113q0 69 42 112t108 43q68 0 109 -42t41 -113q0 -69 -42 -112t-108 -43q-68 0 -109 42zM249 69.5q27 30.5 27 80.5t-27 80.5t-72 30.5t-72 -30.5t-27 -80.5t27 -80.5t72 -30.5t72 30.5zM262 330h-47l-37 38l-37 -38h-47l57 70h54z" />
    <glyph glyph-name="otilde" unicode="&#xf5;" horiz-adv-x="354" 
d="M68 37q-41 42 -41 113q0 69 42 112t108 43q68 0 109 -42t41 -113q0 -69 -42 -112t-108 -43q-68 0 -109 42zM249 69.5q27 30.5 27 80.5t-27 80.5t-72 30.5t-72 -30.5t-27 -80.5t27 -80.5t72 -30.5t72 30.5zM211 340q-16 0 -40 15q-16 10 -24 10q-16 0 -26 -24l-32 18
q18 45 56 45q16 0 40 -15q16 -10 24 -10q16 0 26 24l32 -18q-18 -45 -56 -45z" />
    <glyph glyph-name="odieresis" unicode="&#xf6;" horiz-adv-x="354" 
d="M68 37q-41 42 -41 113q0 69 42 112t108 43q68 0 109 -42t41 -113q0 -69 -42 -112t-108 -43q-68 0 -109 42zM249 69.5q27 30.5 27 80.5t-27 80.5t-72 30.5t-72 -30.5t-27 -80.5t27 -80.5t72 -30.5t72 30.5zM101 400h56v-56h-56v56zM197 400h56v-56h-56v56z" />
    <glyph glyph-name="divide" unicode="&#xf7;" 
d="M45 212h270v-44h-270v44zM152 325h56v-56h-56v56zM152 111h56v-56h-56v56z" />
    <glyph glyph-name="oslash" unicode="&#xf8;" horiz-adv-x="354" 
d="M290 259q37 -42 37 -109q0 -69 -42 -112t-108 -43q-51 0 -86 24l-20 -24h-44l38 46q-38 41 -38 109q0 69 42 112t108 43q51 0 87 -24l20 24h44zM97 80l137 164q-25 17 -57 17q-45 0 -72 -30.5t-27 -80.5q0 -41 19 -70zM257 220l-136 -165q24 -16 56 -16q45 0 72 30.5
t27 80.5q0 40 -19 70z" />
    <glyph glyph-name="ugrave" unicode="&#xf9;" 
d="M310 300v-300h-42l-4 50q-17 -26 -45.5 -40.5t-63.5 -14.5q-49 0 -79.5 31.5t-30.5 83.5v190h50v-175q0 -41 19 -63.5t53 -22.5q40 0 66.5 24.5t26.5 63.5v173h50zM156 330l-57 70h65l29 -70h-37z" />
    <glyph glyph-name="uacute" unicode="&#xfa;" 
d="M310 300v-300h-42l-4 50q-17 -26 -45.5 -40.5t-63.5 -14.5q-49 0 -79.5 31.5t-30.5 83.5v190h50v-175q0 -41 19 -63.5t53 -22.5q40 0 66.5 24.5t26.5 63.5v173h50zM192 400h65l-57 -70h-37z" />
    <glyph glyph-name="ucircumflex" unicode="&#xfb;" 
d="M310 300v-300h-42l-4 50q-17 -26 -45.5 -40.5t-63.5 -14.5q-49 0 -79.5 31.5t-30.5 83.5v190h50v-175q0 -41 19 -63.5t53 -22.5q40 0 66.5 24.5t26.5 63.5v173h50zM263 330h-47l-37 38l-37 -38h-47l57 70h54z" />
    <glyph glyph-name="udieresis" unicode="&#xfc;" 
d="M310 300v-300h-42l-4 50q-17 -26 -45.5 -40.5t-63.5 -14.5q-49 0 -79.5 31.5t-30.5 83.5v190h50v-175q0 -41 19 -63.5t53 -22.5q40 0 66.5 24.5t26.5 63.5v173h50zM102 400h56v-56h-56v56zM198 400h56v-56h-56v56z" />
    <glyph glyph-name="yacute" unicode="&#xfd;" horiz-adv-x="321" 
d="M315 300l-115 -316q-14 -40 -38 -64.5t-57 -24.5q-39 0 -59.5 24t-19.5 60l45 8q-2 -46 34 -46q14 0 24.5 9t19.5 28l-141 322h55l110 -263l90 263h52zM176 400h65l-57 -70h-37z" />
    <glyph glyph-name="thorn" unicode="&#xfe;" horiz-adv-x="362" 
d="M298.5 262.5q36.5 -42.5 36.5 -112.5q0 -69 -37.5 -112t-95.5 -43q-32 0 -58.5 12.5t-43.5 35.5v-143h-50v500h50v-145q18 24 44.5 37t57.5 13q60 0 96.5 -42.5zM258.5 69.5q25.5 30.5 25.5 80.5t-25.5 80.5t-68.5 30.5t-68.5 -30.5t-25.5 -80.5t25.5 -80.5t68.5 -30.5
t68.5 30.5z" />
    <glyph glyph-name="ydieresis" unicode="&#xff;" horiz-adv-x="321" 
d="M315 300l-115 -316q-14 -40 -38 -64.5t-57 -24.5q-39 0 -59.5 24t-19.5 60l45 8q-2 -46 34 -46q14 0 24.5 9t19.5 28l-141 322h55l110 -263l90 263h52zM86 400h56v-56h-56v56zM182 400h56v-56h-56v56z" />
    <glyph glyph-name="Amacron" unicode="&#x100;" horiz-adv-x="390" 
d="M327 0l-38 95h-189l-38 -95h-54l156 380h62l156 -380h-55zM118 141h152l-76 190zM115 480h160v-40h-160v40z" />
    <glyph glyph-name="amacron" unicode="&#x101;" horiz-adv-x="317" 
d="M297 44v-44q-4 -2 -17 -2q-28 0 -40.5 11t-14.5 38q-17 -24 -45.5 -38t-61.5 -14q-44 0 -71 24.5t-27 64.5q0 48 35.5 68.5t93.5 29.5q43 7 56.5 13t13.5 23q0 20 -18.5 32t-48.5 12q-26 0 -50.5 -10.5t-43.5 -30.5l-31 32q52 52 127 52q52 0 82 -26t30 -72v-143
q0 -20 20 -20h11zM190 59.5q28 22.5 28 53.5v46q-8 -6 -21 -9t-41 -7q-43 -7 -64.5 -18t-21.5 -40q0 -23 14 -35.5t40 -12.5q38 0 66 22.5zM74 400h160v-40h-160v40z" />
    <glyph glyph-name="Abreve" unicode="&#x102;" horiz-adv-x="390" 
d="M327 0l-38 95h-189l-38 -95h-54l156 380h62l156 -380h-55zM118 141h152l-76 190zM138.5 429q-22.5 19 -26.5 51l41 3q5 -35 42 -35t42 35l41 -3q-4 -32 -26.5 -51t-56.5 -19t-56.5 19z" />
    <glyph glyph-name="abreve" unicode="&#x103;" horiz-adv-x="317" 
d="M297 44v-44q-4 -2 -17 -2q-28 0 -40.5 11t-14.5 38q-17 -24 -45.5 -38t-61.5 -14q-44 0 -71 24.5t-27 64.5q0 48 35.5 68.5t93.5 29.5q43 7 56.5 13t13.5 23q0 20 -18.5 32t-48.5 12q-26 0 -50.5 -10.5t-43.5 -30.5l-31 32q52 52 127 52q52 0 82 -26t30 -72v-143
q0 -20 20 -20h11zM190 59.5q28 22.5 28 53.5v46q-8 -6 -21 -9t-41 -7q-43 -7 -64.5 -18t-21.5 -40q0 -23 14 -35.5t40 -12.5q38 0 66 22.5zM97.5 349q-22.5 19 -26.5 51l41 3q5 -35 42 -35t42 35l41 -3q-4 -32 -26.5 -51t-56.5 -19t-56.5 19z" />
    <glyph glyph-name="Aogonek" unicode="&#x104;" horiz-adv-x="390" 
d="M387 -86q-22 -14 -47 -14t-40.5 14t-15.5 36q0 16 11.5 31t30.5 22l-37 92h-189l-38 -95h-54l156 380h62l156 -380q-59 -17 -59 -45q0 -9 5.5 -14t15.5 -5q14 0 26 9zM118 141h152l-76 190z" />
    <glyph glyph-name="aogonek" unicode="&#x105;" horiz-adv-x="317" 
d="M302 -86q-22 -14 -47 -14t-40.5 14t-15.5 36q0 18 12.5 33t34.5 22q-20 11 -21 42q-17 -24 -45.5 -38t-61.5 -14q-44 0 -71 24.5t-27 64.5q0 48 35.5 68.5t93.5 29.5q43 7 56.5 13t13.5 23q0 20 -18.5 32t-48.5 12q-26 0 -50.5 -10.5t-43.5 -30.5l-31 32q52 52 127 52
q52 0 82 -26t30 -72v-143q0 -20 20 -20h11v-44l-2 -1q-57 -17 -57 -44q0 -9 5.5 -14t15.5 -5q14 0 26 9zM190 59.5q28 22.5 28 53.5v46q-8 -6 -21 -9t-41 -7q-43 -7 -64.5 -18t-21.5 -40q0 -23 14 -35.5t40 -12.5q38 0 66 22.5z" />
    <glyph glyph-name="Cacute" unicode="&#x106;" horiz-adv-x="385" 
d="M78.5 48q-48.5 53 -48.5 142q0 57 22.5 101.5t63 69t92.5 24.5q58 0 99 -29t58 -83l-48 -17q-12 41 -40 62t-69 21q-56 0 -90.5 -41t-34.5 -108q0 -69 34 -109t91 -40q41 0 69 21t40 62l48 -17q-17 -52 -58.5 -82t-98.5 -30q-81 0 -129.5 53zM217 480h65l-57 -70h-37z
" />
    <glyph glyph-name="cacute" unicode="&#x107;" horiz-adv-x="326" 
d="M68.5 38q-41.5 43 -41.5 112t41.5 112t106.5 43q48 0 83.5 -24t47.5 -66l-47 -15q-11 29 -32.5 45t-51.5 16q-45 0 -71 -30t-26 -81t26 -81t71 -30q30 0 52 16t33 45l46 -15q-13 -42 -48.5 -66t-82.5 -24q-65 0 -106.5 43zM185 400h65l-57 -70h-37z" />
    <glyph glyph-name="Cdotaccent" unicode="&#x10a;" horiz-adv-x="385" 
d="M78.5 48q-48.5 53 -48.5 142q0 57 22.5 101.5t63 69t92.5 24.5q58 0 99 -29t58 -83l-48 -17q-12 41 -40 62t-69 21q-56 0 -90.5 -41t-34.5 -108q0 -69 34 -109t91 -40q41 0 69 21t40 62l48 -17q-17 -52 -58.5 -82t-98.5 -30q-81 0 -129.5 53zM175 480h56v-56h-56v56z" />
    <glyph glyph-name="cdotaccent" unicode="&#x10b;" horiz-adv-x="326" 
d="M68.5 38q-41.5 43 -41.5 112t41.5 112t106.5 43q48 0 83.5 -24t47.5 -66l-47 -15q-11 29 -32.5 45t-51.5 16q-45 0 -71 -30t-26 -81t26 -81t71 -30q30 0 52 16t33 45l46 -15q-13 -42 -48.5 -66t-82.5 -24q-65 0 -106.5 43zM143 400h56v-56h-56v56z" />
    <glyph glyph-name="Ccaron" unicode="&#x10c;" horiz-adv-x="385" 
d="M78.5 48q-48.5 53 -48.5 142q0 57 22.5 101.5t63 69t92.5 24.5q58 0 99 -29t58 -83l-48 -17q-12 41 -40 62t-69 21q-56 0 -90.5 -41t-34.5 -108q0 -69 34 -109t91 -40q41 0 69 21t40 62l48 -17q-17 -52 -58.5 -82t-98.5 -30q-81 0 -129.5 53zM241 480h47l-57 -70h-54
l-57 70h47l37 -38z" />
    <glyph glyph-name="ccaron" unicode="&#x10d;" horiz-adv-x="326" 
d="M68.5 38q-41.5 43 -41.5 112t41.5 112t106.5 43q48 0 83.5 -24t47.5 -66l-47 -15q-11 29 -32.5 45t-51.5 16q-45 0 -71 -30t-26 -81t26 -81t71 -30q30 0 52 16t33 45l46 -15q-13 -42 -48.5 -66t-82.5 -24q-65 0 -106.5 43zM209 400h47l-57 -70h-54l-57 70h47l37 -38z" />
    <glyph glyph-name="Dcaron" unicode="&#x10e;" horiz-adv-x="410" 
d="M331.5 329q48.5 -51 48.5 -139q0 -85 -49.5 -137.5t-135.5 -52.5h-135v380h135q88 0 136.5 -51zM291.5 85q35.5 39 35.5 105t-35.5 105t-96.5 39h-83v-288h83q61 0 96.5 39zM224 480h47l-57 -70h-54l-57 70h47l37 -38z" />
    <glyph glyph-name="dcaron" unicode="&#x10f;" horiz-adv-x="362" 
d="M312 400v-400h-42l-4 50q-18 -26 -45.5 -40.5t-60.5 -14.5q-60 0 -96.5 42.5t-36.5 112.5q0 69 37.5 112t95.5 43q32 0 58.5 -12.5t43.5 -35.5v143h50zM240.5 69.5q25.5 30.5 25.5 80.5t-25.5 80.5t-68.5 30.5t-68.5 -30.5t-25.5 -80.5t25.5 -80.5t68.5 -30.5t68.5 30.5z
M355 400h54l-20 -80h-34v80z" />
    <glyph glyph-name="Dcroat" unicode="&#x110;" horiz-adv-x="410" 
d="M331.5 329q48.5 -51 48.5 -139q0 -85 -49.5 -137.5t-135.5 -52.5h-135v173h-38v44h38v163h135q88 0 136.5 -51zM291.5 85q35.5 39 35.5 105t-35.5 105t-96.5 39h-83v-117h70v-44h-70v-127h83q61 0 96.5 39z" />
    <glyph glyph-name="dcroat" unicode="&#x111;" horiz-adv-x="362" 
d="M362 324h-50v-324h-42l-4 50q-18 -26 -45.5 -40.5t-60.5 -14.5q-60 0 -96.5 42.5t-36.5 112.5q0 69 37.5 112t95.5 43q32 0 58.5 -12.5t43.5 -35.5v67h-60v41h60v35h50v-35h50v-41zM240.5 69.5q25.5 30.5 25.5 80.5t-25.5 80.5t-68.5 30.5t-68.5 -30.5t-25.5 -80.5
t25.5 -80.5t68.5 -30.5t68.5 30.5z" />
    <glyph glyph-name="Emacron" unicode="&#x112;" horiz-adv-x="340" 
d="M112 47h208v-47h-260v380h255v-47h-203v-115h158v-46h-158v-125zM105 480h160v-40h-160v40z" />
    <glyph glyph-name="emacron" unicode="&#x113;" horiz-adv-x="341" 
d="M109.5 64.5q26.5 -25.5 68.5 -25.5q64 0 93 41l36 -31q-18 -24 -50 -39t-78 -15q-71 0 -111.5 43t-40.5 112t41 112t106 43t103.5 -42.5t38.5 -112.5q0 -11 -1 -16h-237q5 -44 31.5 -69.5zM110 238.5q-25 -23.5 -31 -64.5h185q-5 41 -29 64.5t-61 23.5q-39 0 -64 -23.5z
M91 400h160v-40h-160v40z" />
    <glyph glyph-name="Edotaccent" unicode="&#x116;" horiz-adv-x="340" 
d="M112 47h208v-47h-260v380h255v-47h-203v-115h158v-46h-158v-125zM157 480h56v-56h-56v56z" />
    <glyph glyph-name="edotaccent" unicode="&#x117;" horiz-adv-x="341" 
d="M109.5 64.5q26.5 -25.5 68.5 -25.5q64 0 93 41l36 -31q-18 -24 -50 -39t-78 -15q-71 0 -111.5 43t-40.5 112t41 112t106 43t103.5 -42.5t38.5 -112.5q0 -11 -1 -16h-237q5 -44 31.5 -69.5zM110 238.5q-25 -23.5 -31 -64.5h185q-5 41 -29 64.5t-61 23.5q-39 0 -64 -23.5z
M143 400h56v-56h-56v56z" />
    <glyph glyph-name="Eogonek" unicode="&#x118;" horiz-adv-x="340" 
d="M325 -86q-22 -14 -47 -14t-40.5 14t-15.5 36q0 15 9.5 28.5t25.5 21.5h-197v380h255v-47h-203v-115h158v-46h-158v-125h208v-47q-59 -17 -59 -45q0 -9 5.5 -14t15.5 -5q14 0 26 9z" />
    <glyph glyph-name="eogonek" unicode="&#x119;" horiz-adv-x="343" 
d="M109.5 64.5q26.5 -25.5 68.5 -25.5q64 0 93 41l36 -31q-14 -19 -36 -32l3 1l-33 -22q-20 -12 -27.5 -19.5t-7.5 -19.5q0 -8 5.5 -13t15.5 -5q13 0 28 10l17 -30q-22 -16 -49 -16q-25 0 -40.5 12.5t-15.5 32.5q0 14 8 27t22 21q-6 -1 -18 -1q-71 0 -111.5 43t-40.5 112
t41 112t106 43t103.5 -42.5t38.5 -112.5q0 -11 -1 -16h-237q5 -44 31.5 -69.5zM110 238.5q-25 -23.5 -31 -64.5h185q-5 41 -29 64.5t-61 23.5q-39 0 -64 -23.5z" />
    <glyph glyph-name="Ecaron" unicode="&#x11a;" horiz-adv-x="340" 
d="M112 47h208v-47h-260v380h255v-47h-203v-115h158v-46h-158v-125zM223 480h47l-57 -70h-54l-57 70h47l37 -38z" />
    <glyph glyph-name="ecaron" unicode="&#x11b;" horiz-adv-x="341" 
d="M109.5 64.5q26.5 -25.5 68.5 -25.5q64 0 93 41l36 -31q-18 -24 -50 -39t-78 -15q-71 0 -111.5 43t-40.5 112t41 112t106 43t103.5 -42.5t38.5 -112.5q0 -11 -1 -16h-237q5 -44 31.5 -69.5zM110 238.5q-25 -23.5 -31 -64.5h185q-5 41 -29 64.5t-61 23.5q-39 0 -64 -23.5z
M209 400h47l-57 -70h-54l-57 70h47l37 -38z" />
    <glyph glyph-name="Gbreve" unicode="&#x11e;" horiz-adv-x="416" 
d="M376 190v-190h-39l-5 57q-22 -30 -54 -46t-71 -16q-80 0 -128.5 53.5t-48.5 141.5q0 57 23 101.5t65 69t96 24.5q57 0 98 -26.5t60 -76.5l-48 -18q-13 37 -41 56t-69 19q-59 0 -95 -41t-36 -108q0 -69 34 -109t91 -40q45 0 80 27t43 79h-106v43h151zM155.5 429
q-22.5 19 -26.5 51l41 3q5 -35 42 -35t42 35l41 -3q-4 -32 -26.5 -51t-56.5 -19t-56.5 19z" />
    <glyph glyph-name="gbreve" unicode="&#x11f;" horiz-adv-x="362" 
d="M312 300l-1 -273q0 -59 -38.5 -95.5t-103.5 -36.5q-77 0 -119 44l30 35q18 -19 39 -27t50 -8q50 0 72.5 25t22.5 65v32q-18 -24 -45 -37t-59 -13q-60 0 -96.5 40t-36.5 107q0 65 37.5 106t95.5 41q34 0 61.5 -13.5t44.5 -37.5l4 46h42zM240.5 82.5q25.5 28.5 25.5 75.5
t-25.5 75t-68.5 28t-68.5 -28t-25.5 -75t25.5 -75.5t68.5 -28.5t68.5 28.5zM115.5 349q-22.5 19 -26.5 51l41 3q5 -35 42 -35t42 35l41 -3q-4 -32 -26.5 -51t-56.5 -19t-56.5 19z" />
    <glyph glyph-name="Gdotaccent" unicode="&#x120;" horiz-adv-x="416" 
d="M376 190v-190h-39l-5 57q-22 -30 -54 -46t-71 -16q-80 0 -128.5 53.5t-48.5 141.5q0 57 23 101.5t65 69t96 24.5q57 0 98 -26.5t60 -76.5l-48 -18q-13 37 -41 56t-69 19q-59 0 -95 -41t-36 -108q0 -69 34 -109t91 -40q45 0 80 27t43 79h-106v43h151zM184 480h56v-56h-56
v56z" />
    <glyph glyph-name="gdotaccent" unicode="&#x121;" horiz-adv-x="362" 
d="M312 300l-1 -273q0 -59 -38.5 -95.5t-103.5 -36.5q-77 0 -119 44l30 35q18 -19 39 -27t50 -8q50 0 72.5 25t22.5 65v32q-18 -24 -45 -37t-59 -13q-60 0 -96.5 40t-36.5 107q0 65 37.5 106t95.5 41q34 0 61.5 -13.5t44.5 -37.5l4 46h42zM240.5 82.5q25.5 28.5 25.5 75.5
t-25.5 75t-68.5 28t-68.5 -28t-25.5 -75t25.5 -75.5t68.5 -28.5t68.5 28.5zM144 400h56v-56h-56v56z" />
    <glyph glyph-name="uni0122" unicode="&#x122;" horiz-adv-x="416" 
d="M376 190v-190h-39l-5 57q-22 -30 -54 -46t-71 -16q-80 0 -128.5 53.5t-48.5 141.5q0 57 23 101.5t65 69t96 24.5q57 0 98 -26.5t60 -76.5l-48 -18q-13 37 -41 56t-69 19q-59 0 -95 -41t-36 -108q0 -69 34 -109t91 -40q45 0 80 27t43 79h-106v43h151zM244 -30v-37
q0 -28 -13 -42t-35 -14h-8v27h8q19 0 20 22h-28v44h56z" />
    <glyph glyph-name="uni0123" unicode="&#x123;" horiz-adv-x="362" 
d="M312 300l-1 -273q0 -59 -38.5 -95.5t-103.5 -36.5q-77 0 -119 44l30 35q18 -19 39 -27t50 -8q50 0 72.5 25t22.5 65v32q-18 -24 -45 -37t-59 -13q-60 0 -96.5 40t-36.5 107q0 65 37.5 106t95.5 41q34 0 61.5 -13.5t44.5 -37.5l4 46h42zM240.5 82.5q25.5 28.5 25.5 75.5
t-25.5 75t-68.5 28t-68.5 -28t-25.5 -75t25.5 -75.5t68.5 -28.5t68.5 28.5zM172 393v-5h28v-54h-56v54q0 28 13 42t35 14h8v-27h-8q-20 0 -20 -24z" />
    <glyph glyph-name="Hbar" unicode="&#x126;" horiz-adv-x="430" 
d="M407 320v-44h-37v-276h-52v171h-206v-171h-52v276h-37v44h37v60h52v-60h206v60h52v-60h37zM318 219v57h-206v-57h206z" />
    <glyph glyph-name="hbar" unicode="&#x127;" horiz-adv-x="359" 
d="M283.5 273.5q30.5 -31.5 30.5 -83.5v-190h-50v175q0 41 -19 63.5t-53 22.5q-39 0 -65.5 -25t-26.5 -63v-173h-50v324h-38v41h38v35h50v-35h72v-41h-72v-68q18 23 45 36t59 13q49 0 79.5 -31.5z" />
    <glyph glyph-name="Imacron" unicode="&#x12a;" horiz-adv-x="172" 
d="M60 380h52v-380h-52v380zM6 480h160v-40h-160v40z" />
    <glyph glyph-name="imacron" unicode="&#x12b;" horiz-adv-x="160" 
d="M55 300h50v-300h-50v300zM0 400h160v-40h-160v40z" />
    <glyph glyph-name="Iogonek" unicode="&#x12e;" horiz-adv-x="172" 
d="M117 -86q-22 -14 -47 -14t-40.5 14t-15.5 36q0 17 12.5 32t33.5 22v376h52v-380q-59 -17 -59 -45q0 -9 5.5 -14t15.5 -5q14 0 26 9z" />
    <glyph glyph-name="iogonek" unicode="&#x12f;" horiz-adv-x="160" 
d="M108 400v-56h-56v56h56zM110 -86q-22 -14 -47 -14t-40.5 14t-15.5 36q0 18 13 33t35 22v295h50v-300q-59 -17 -59 -45q0 -9 5.5 -14t15.5 -5q14 0 26 9z" />
    <glyph glyph-name="Idotaccent" unicode="&#x130;" horiz-adv-x="172" 
d="M60 380h52v-380h-52v380zM58 480h56v-56h-56v56z" />
    <glyph glyph-name="dotlessi" unicode="&#x131;" horiz-adv-x="160" 
d="M55 300h50v-300h-50v300z" />
    <glyph glyph-name="uni0136" unicode="&#x136;" horiz-adv-x="388" 
d="M314 0l-143 188l-59 -58v-130h-52v380h52v-190l190 190h65l-159 -156l170 -224h-64zM235 -30v-37q0 -28 -13 -42t-35 -14h-8v27h8q19 0 20 22h-28v44h56z" />
    <glyph glyph-name="uni0137" unicode="&#x137;" horiz-adv-x="316" 
d="M254 0l-109 145l-45 -42v-103h-50v400h50v-239l146 139h64l-129 -121l135 -179h-62zM195 -30v-37q0 -28 -13 -42t-35 -14h-8v27h8q19 0 20 22h-28v44h56z" />
    <glyph glyph-name="kgreenlandic" unicode="&#x138;" horiz-adv-x="316" 
d="M254 0l-109 145l-45 -42v-103h-50v300h50v-139l146 139h64l-129 -121l135 -179h-62z" />
    <glyph glyph-name="Lacute" unicode="&#x139;" horiz-adv-x="335" 
d="M112 48h208v-48h-260v380h52v-332zM100 500h65l-57 -70h-37z" />
    <glyph glyph-name="lacute" unicode="&#x13a;" horiz-adv-x="150" 
d="M50 400h50v-400h-50v400zM89 500h65l-57 -70h-37z" />
    <glyph glyph-name="uni013B" unicode="&#x13b;" horiz-adv-x="335" 
d="M112 48h208v-48h-260v380h52v-332zM217 -30v-37q0 -28 -13 -42t-35 -14h-8v27h8q19 0 20 22h-28v44h56z" />
    <glyph glyph-name="uni013C" unicode="&#x13c;" horiz-adv-x="150" 
d="M50 400h50v-400h-50v400zM103 -30v-37q0 -28 -13 -42t-35 -14h-8v27h8q19 0 20 22h-28v44h56z" />
    <glyph glyph-name="Lcaron" unicode="&#x13d;" horiz-adv-x="335" 
d="M112 48h208v-48h-260v380h52v-332zM152 380h54l-20 -80h-34v80z" />
    <glyph glyph-name="lcaron" unicode="&#x13e;" horiz-adv-x="150" 
d="M50 400h50v-400h-50v400zM140 400h54l-20 -80h-34v80z" />
    <glyph glyph-name="Lslash" unicode="&#x141;" horiz-adv-x="335" 
d="M112 48h208v-48h-260v142l-39 -12v43l39 12v195h52v-179l106 33v-43l-106 -33v-110z" />
    <glyph glyph-name="lslash" unicode="&#x142;" horiz-adv-x="160" 
d="M145 239v-42l-40 -12v-185h-50v169l-40 -12v42l40 12v189h50v-173z" />
    <glyph glyph-name="Nacute" unicode="&#x143;" horiz-adv-x="430" 
d="M321 380h49v-380h-51l-210 299v-299h-49v380h52l209 -297v297zM229 480h65l-57 -70h-37z" />
    <glyph glyph-name="nacute" unicode="&#x144;" 
d="M284.5 273.5q30.5 -31.5 30.5 -83.5v-190h-50v175q0 41 -19 63.5t-53 22.5q-40 0 -66.5 -24.5t-26.5 -63.5v-173h-50v300h42l4 -50q17 26 45.5 40.5t63.5 14.5q49 0 79.5 -31.5zM195 400h65l-57 -70h-37z" />
    <glyph glyph-name="uni0145" unicode="&#x145;" horiz-adv-x="430" 
d="M321 380h49v-380h-51l-210 299v-299h-49v380h52l209 -297v297zM243 -30v-37q0 -28 -13 -42t-35 -14h-8v27h8q19 0 20 22h-28v44h56z" />
    <glyph glyph-name="uni0146" unicode="&#x146;" 
d="M284.5 273.5q30.5 -31.5 30.5 -83.5v-190h-50v175q0 41 -19 63.5t-53 22.5q-40 0 -66.5 -24.5t-26.5 -63.5v-173h-50v300h42l4 -50q17 26 45.5 40.5t63.5 14.5q49 0 79.5 -31.5zM209 -30v-37q0 -28 -13 -42t-35 -14h-8v27h8q19 0 20 22h-28v44h56z" />
    <glyph glyph-name="Ncaron" unicode="&#x147;" horiz-adv-x="430" 
d="M321 380h49v-380h-51l-210 299v-299h-49v380h52l209 -297v297zM253 480h47l-57 -70h-54l-57 70h47l37 -38z" />
    <glyph glyph-name="ncaron" unicode="&#x148;" 
d="M284.5 273.5q30.5 -31.5 30.5 -83.5v-190h-50v175q0 41 -19 63.5t-53 22.5q-40 0 -66.5 -24.5t-26.5 -63.5v-173h-50v300h42l4 -50q17 26 45.5 40.5t63.5 14.5q49 0 79.5 -31.5zM219 400h47l-57 -70h-54l-57 70h47l37 -38z" />
    <glyph glyph-name="Eng" unicode="&#x14a;" horiz-adv-x="430" 
d="M370 380v-404q0 -78 -77 -78q-12 0 -28 2v45h23q16 0 24 7.5t8 25.5v20l-211 301v-299h-49v380h52l209 -297v297h49z" />
    <glyph glyph-name="eng" unicode="&#x14b;" horiz-adv-x="359" 
d="M283.5 273.5q30.5 -31.5 30.5 -83.5v-214q0 -78 -77 -78q-12 0 -28 2v45h23q16 0 24 7.5t8 25.5v197q0 41 -19 63.5t-53 22.5q-39 0 -65.5 -25t-26.5 -63v-173h-50v300h42l4 -50q17 26 45.5 40.5t62.5 14.5q49 0 79.5 -31.5z" />
    <glyph glyph-name="Omacron" unicode="&#x14c;" horiz-adv-x="420" 
d="M79 48q-49 53 -49 142q0 57 23 101.5t64 69t93 24.5q82 0 131 -53t49 -142q0 -57 -23 -101.5t-64 -69t-93 -24.5q-82 0 -131 53zM302.5 81.5q34.5 40.5 34.5 108.5t-34.5 108.5t-92.5 40.5t-92.5 -40.5t-34.5 -108.5t34.5 -108.5t92.5 -40.5t92.5 40.5zM130 480h160v-40
h-160v40z" />
    <glyph glyph-name="omacron" unicode="&#x14d;" horiz-adv-x="354" 
d="M68 37q-41 42 -41 113q0 69 42 112t108 43q68 0 109 -42t41 -113q0 -69 -42 -112t-108 -43q-68 0 -109 42zM249 69.5q27 30.5 27 80.5t-27 80.5t-72 30.5t-72 -30.5t-27 -80.5t27 -80.5t72 -30.5t72 30.5zM97 400h160v-40h-160v40z" />
    <glyph glyph-name="Ohungarumlaut" unicode="&#x150;" horiz-adv-x="420" 
d="M79 48q-49 53 -49 142q0 57 23 101.5t64 69t93 24.5q82 0 131 -53t49 -142q0 -57 -23 -101.5t-64 -69t-93 -24.5q-82 0 -131 53zM302.5 81.5q34.5 40.5 34.5 108.5t-34.5 108.5t-92.5 40.5t-92.5 -40.5t-34.5 -108.5t34.5 -108.5t92.5 -40.5t92.5 40.5zM134 480h56v-56
h-56v56zM230 480h56v-56h-56v56z" />
    <glyph glyph-name="ohungarumlaut" unicode="&#x151;" horiz-adv-x="354" 
d="M68 37q-41 42 -41 113q0 69 42 112t108 43q68 0 109 -42t41 -113q0 -69 -42 -112t-108 -43q-68 0 -109 42zM249 69.5q27 30.5 27 80.5t-27 80.5t-72 30.5t-72 -30.5t-27 -80.5t27 -80.5t72 -30.5t72 30.5zM142 400h65l-57 -70h-37zM232 400h65l-57 -70h-37z" />
    <glyph glyph-name="OE" unicode="&#x152;" horiz-adv-x="521" 
d="M501 47v-47h-286q-88 0 -136.5 51t-48.5 139q0 85 49.5 137.5t135.5 52.5h281v-47h-179v-115h134v-46h-134v-125h184zM265 46v288h-50q-61 0 -96.5 -39t-35.5 -105t35.5 -105t96.5 -39h50z" />
    <glyph glyph-name="oe" unicode="&#x153;" horiz-adv-x="561" 
d="M341 64.5q25 -25.5 65 -25.5q60 0 87 40l34 -31q-17 -24 -47.5 -38.5t-72.5 -14.5q-41 0 -71.5 18t-48.5 51q-18 -33 -49.5 -51t-70.5 -18q-64 0 -102 42t-38 113q0 69 39 112t101 43q41 0 72.5 -18t48.5 -50q17 32 47 50t67 18q61 0 97.5 -42.5t36.5 -112.5
q0 -11 -1 -16h-223q4 -44 29 -69.5zM342 238.5q-24 -23.5 -29 -64.5h172q-5 41 -27 64.5t-56 23.5q-36 0 -60 -23.5zM240.5 69.5q25.5 30.5 25.5 80.5t-25.5 80.5t-68.5 30.5t-68.5 -30.5t-25.5 -80.5t25.5 -80.5t68.5 -30.5t68.5 30.5z" />
    <glyph glyph-name="Racute" unicode="&#x154;" horiz-adv-x="384" 
d="M211 152h-100v-152h-51v380h152q59 0 94.5 -31t35.5 -83q0 -39 -20.5 -66.5t-56.5 -39.5l99 -160h-60zM111 197h94q84 0 84 68t-84 68h-94v-136zM195 480h65l-57 -70h-37z" />
    <glyph glyph-name="racute" unicode="&#x155;" horiz-adv-x="235" 
d="M225 303v-49q-11 1 -35 1q-38 0 -64 -24t-26 -61v-170h-50v300h42l4 -50q17 26 45.5 40.5t62.5 14.5q7 0 21 -2zM148 400h65l-57 -70h-37z" />
    <glyph glyph-name="uni0156" unicode="&#x156;" horiz-adv-x="384" 
d="M211 152h-100v-152h-51v380h152q59 0 94.5 -31t35.5 -83q0 -39 -20.5 -66.5t-56.5 -39.5l99 -160h-60zM111 197h94q84 0 84 68t-84 68h-94v-136zM239 -30v-37q0 -28 -13 -42t-35 -14h-8v27h8q19 0 20 22h-28v44h56z" />
    <glyph glyph-name="uni0157" unicode="&#x157;" horiz-adv-x="235" 
d="M225 303v-49q-11 1 -35 1q-38 0 -64 -24t-26 -61v-170h-50v300h42l4 -50q17 26 45.5 40.5t62.5 14.5q7 0 21 -2zM103 -30v-37q0 -28 -13 -42t-35 -14h-8v27h8q19 0 20 22h-28v44h56z" />
    <glyph glyph-name="Rcaron" unicode="&#x158;" horiz-adv-x="384" 
d="M211 152h-100v-152h-51v380h152q59 0 94.5 -31t35.5 -83q0 -39 -20.5 -66.5t-56.5 -39.5l99 -160h-60zM111 197h94q84 0 84 68t-84 68h-94v-136zM219 480h47l-57 -70h-54l-57 70h47l37 -38z" />
    <glyph glyph-name="rcaron" unicode="&#x159;" horiz-adv-x="235" 
d="M225 303v-49q-11 1 -35 1q-38 0 -64 -24t-26 -61v-170h-50v300h42l4 -50q17 26 45.5 40.5t62.5 14.5q7 0 21 -2zM172 400h47l-57 -70h-54l-57 70h47l37 -38z" />
    <glyph glyph-name="Sacute" unicode="&#x15a;" horiz-adv-x="348" 
d="M90 9q-38 14 -66 41l32 40q25 -24 56 -36.5t66 -12.5q42 0 66 16.5t24 44.5q0 23 -19 36.5t-72 28.5q-71 20 -105.5 43t-34.5 69q0 49 38.5 77.5t102.5 28.5q75 0 133 -44l-31 -41q-44 39 -107 39q-38 0 -61 -15.5t-23 -41.5q0 -23 21 -37t75 -28q73 -18 104 -43t31 -66
q0 -52 -40 -82.5t-109 -30.5q-43 0 -81 14zM186 480h65l-57 -70h-37z" />
    <glyph glyph-name="sacute" unicode="&#x15b;" horiz-adv-x="288" 
d="M20 42l29 35q38 -38 98 -38q32 0 50 11t18 30q0 17 -16 28t-59 21q-59 15 -83 35t-24 54q0 39 31.5 63t82.5 24q62 0 110 -37l-30 -39q-34 32 -82 32q-29 0 -46 -10.5t-17 -28.5q0 -16 16 -26.5t56 -20.5q60 -17 84.5 -37t24.5 -54q0 -41 -32 -65t-85 -24q-76 0 -126 47z
M155 400h65l-57 -70h-37z" />
    <glyph glyph-name="Scedilla" unicode="&#x15e;" horiz-adv-x="348" 
d="M287 31q-33 -30 -92 -35l-13 -20q5 1 13 1q22 0 35.5 -11t13.5 -31t-19 -32.5t-49 -12.5q-17 0 -34 5.5t-30 15.5l18 27q26 -17 47 -17q13 0 20 4t7 12q0 7 -5.5 10.5t-14.5 3.5q-11 0 -21 -5l-27 15l21 34q-80 5 -133 55l32 40q25 -24 56 -36.5t66 -12.5q42 0 66 16.5
t24 44.5q0 23 -19 36.5t-72 28.5q-71 20 -105.5 43t-34.5 69q0 49 38.5 77.5t102.5 28.5q75 0 133 -44l-31 -41q-44 39 -107 39q-38 0 -61 -15.5t-23 -41.5q0 -23 21 -37t75 -28q73 -18 104 -43t31 -66q0 -47 -33 -77z" />
    <glyph glyph-name="scedilla" unicode="&#x15f;" horiz-adv-x="288" 
d="M236 23.5q-27 -23.5 -73 -27.5l-12 -20q5 1 13 1q22 0 35.5 -11t13.5 -31t-19 -32.5t-49 -12.5q-17 0 -34 5.5t-30 15.5l18 27q26 -17 47 -17q13 0 20 4t7 12q0 7 -5.5 10.5t-14.5 3.5q-11 0 -21 -5l-27 15l21 35q-61 4 -106 46l29 35q38 -38 98 -38q32 0 50 11t18 30
q0 17 -16 28t-59 21q-59 15 -83 35t-24 54q0 39 31.5 63t82.5 24q62 0 110 -37l-30 -39q-34 32 -82 32q-29 0 -46 -10.5t-17 -28.5q0 -16 16 -26.5t56 -20.5q60 -17 84.5 -37t24.5 -54q0 -37 -27 -60.5z" />
    <glyph glyph-name="Scaron" unicode="&#x160;" horiz-adv-x="348" 
d="M90 9q-38 14 -66 41l32 40q25 -24 56 -36.5t66 -12.5q42 0 66 16.5t24 44.5q0 23 -19 36.5t-72 28.5q-71 20 -105.5 43t-34.5 69q0 49 38.5 77.5t102.5 28.5q75 0 133 -44l-31 -41q-44 39 -107 39q-38 0 -61 -15.5t-23 -41.5q0 -23 21 -37t75 -28q73 -18 104 -43t31 -66
q0 -52 -40 -82.5t-109 -30.5q-43 0 -81 14zM210 480h47l-57 -70h-54l-57 70h47l37 -38z" />
    <glyph glyph-name="scaron" unicode="&#x161;" horiz-adv-x="288" 
d="M20 42l29 35q38 -38 98 -38q32 0 50 11t18 30q0 17 -16 28t-59 21q-59 15 -83 35t-24 54q0 39 31.5 63t82.5 24q62 0 110 -37l-30 -39q-34 32 -82 32q-29 0 -46 -10.5t-17 -28.5q0 -16 16 -26.5t56 -20.5q60 -17 84.5 -37t24.5 -54q0 -41 -32 -65t-85 -24q-76 0 -126 47z
M179 400h47l-57 -70h-54l-57 70h47l37 -38z" />
    <glyph glyph-name="uni0162" unicode="&#x162;" horiz-adv-x="350" 
d="M340 380v-48h-139v-332h-52v332h-139v48h330zM233.5 -34q13.5 -11 13.5 -31t-19 -32.5t-49 -12.5q-17 0 -34 5.5t-30 15.5l18 27q25 -17 47 -17q13 0 20 4t7 12q0 7 -5.5 10.5t-14.5 3.5q-11 0 -21 -5l-27 15l24 39h37l-15 -24q5 1 13 1q22 0 35.5 -11z" />
    <glyph glyph-name="uni0163" unicode="&#x163;" horiz-adv-x="244" 
d="M205.5 -34q13.5 -11 13.5 -31t-19 -32.5t-49 -12.5q-17 0 -34 5.5t-30 15.5l18 27q26 -17 47 -17q13 0 20 4t7 12q0 7 -5.5 10.5t-14.5 3.5q-11 0 -21 -5l-27 15l22 36q-29 6 -44.5 26.5t-15.5 52.5v181h-59v43h59l8 80h42v-80h95v-43h-95v-172q0 -25 10.5 -34t34.5 -9
t50 7v-47q-23 -5 -49 -7l-12 -19q5 1 13 1q22 0 35.5 -11z" />
    <glyph glyph-name="Tcaron" unicode="&#x164;" horiz-adv-x="350" 
d="M340 380v-48h-139v-332h-52v332h-139v48h330zM213 480h47l-57 -70h-54l-57 70h47l37 -38z" />
    <glyph glyph-name="tcaron" unicode="&#x165;" horiz-adv-x="244" 
d="M123 257v-172q0 -25 10.5 -34t34.5 -9t50 7v-47q-28 -7 -58 -7q-43 0 -65 21t-22 60v181h-59v43h59l8 80h42v-80h95v-43h-95zM163 400h54l-20 -80h-34v80z" />
    <glyph glyph-name="Tbar" unicode="&#x166;" horiz-adv-x="350" 
d="M340 332h-139v-115h77v-44h-77v-173h-52v173h-77v44h77v115h-139v48h330v-48z" />
    <glyph glyph-name="tbar" unicode="&#x167;" horiz-adv-x="244" 
d="M123 257v-82h77v-44h-77v-46q0 -25 10.5 -34t34.5 -9t50 7v-47q-28 -7 -58 -7q-43 0 -65 21t-22 60v55h-57v44h57v82h-59v43h59l8 80h42v-80h95v-43h-95z" />
    <glyph glyph-name="Umacron" unicode="&#x16a;" horiz-adv-x="420" 
d="M97 36.5q-42 41.5 -42 111.5v232h52v-232q0 -49 28 -78t75 -29t75 29t28 78v232h52v-232q0 -70 -42 -111.5t-113 -41.5t-113 41.5zM130 480h160v-40h-160v40z" />
    <glyph glyph-name="umacron" unicode="&#x16b;" 
d="M310 300v-300h-42l-4 50q-17 -26 -45.5 -40.5t-63.5 -14.5q-49 0 -79.5 31.5t-30.5 83.5v190h50v-175q0 -41 19 -63.5t53 -22.5q40 0 66.5 24.5t26.5 63.5v173h50zM98 400h160v-40h-160v40z" />
    <glyph glyph-name="Uring" unicode="&#x16e;" horiz-adv-x="420" 
d="M97 36.5q-42 41.5 -42 111.5v232h52v-232q0 -49 28 -78t75 -29t75 29t28 78v232h52v-232q0 -70 -42 -111.5t-113 -41.5t-113 41.5zM165 383.5q-18 17.5 -18 44.5t18 44.5t45 17.5t45 -17.5t18 -44.5t-18 -44.5t-45 -17.5t-45 17.5zM231 407q8 8 8 21t-8 21t-21 8t-21 -8
t-8 -21t8 -21t21 -8t21 8z" />
    <glyph glyph-name="uring" unicode="&#x16f;" 
d="M310 300v-300h-42l-4 50q-17 -26 -45.5 -40.5t-63.5 -14.5q-49 0 -79.5 31.5t-30.5 83.5v190h50v-175q0 -41 19 -63.5t53 -22.5q40 0 66.5 24.5t26.5 63.5v173h50zM133 347.5q-18 17.5 -18 44.5t18 44.5t45 17.5t45 -17.5t18 -44.5t-18 -44.5t-45 -17.5t-45 17.5z
M199 371q8 8 8 21t-8 21t-21 8t-21 -8t-8 -21t8 -21t21 -8t21 8z" />
    <glyph glyph-name="Uhungarumlaut" unicode="&#x170;" horiz-adv-x="420" 
d="M97 36.5q-42 41.5 -42 111.5v232h52v-232q0 -49 28 -78t75 -29t75 29t28 78v232h52v-232q0 -70 -42 -111.5t-113 -41.5t-113 41.5zM175 480h65l-57 -70h-37zM265 480h65l-57 -70h-37z" />
    <glyph glyph-name="uhungarumlaut" unicode="&#x171;" 
d="M310 300v-300h-42l-4 50q-17 -26 -45.5 -40.5t-63.5 -14.5q-49 0 -79.5 31.5t-30.5 83.5v190h50v-175q0 -41 19 -63.5t53 -22.5q40 0 66.5 24.5t26.5 63.5v173h50zM143 400h65l-57 -70h-37zM233 400h65l-57 -70h-37z" />
    <glyph glyph-name="Uogonek" unicode="&#x172;" horiz-adv-x="420" 
d="M365 380v-232q0 -44 -17 -77t-49 -53q-7 -5 -20 -12q-24 -14 -37 -24.5t-13 -24.5q0 -8 5.5 -13t15.5 -5q13 0 28 10l17 -30q-22 -16 -49 -16q-25 0 -40.5 13t-15.5 33q0 30 29 46h-9q-71 0 -113 41.5t-42 111.5v232h52v-232q0 -49 28 -78t75 -29t75 29t28 78v232h52z
" />
    <glyph glyph-name="uogonek" unicode="&#x173;" 
d="M315 -86q-22 -14 -47 -14t-40.5 14t-15.5 36q0 19 15 35t40 22l-3 43q-17 -26 -45.5 -40.5t-63.5 -14.5q-49 0 -79.5 31.5t-30.5 83.5v190h50v-175q0 -41 19 -63.5t53 -22.5q40 0 66.5 24.5t26.5 63.5v173h50v-300q-59 -17 -59 -45q0 -9 5.5 -14t15.5 -5q14 0 26 9z" />
    <glyph glyph-name="Wcircumflex" unicode="&#x174;" horiz-adv-x="554" 
d="M483 380h51l-110 -380h-55l-93 316l-92 -316h-54l-110 380h53l88 -303l87 303h58l88 -305zM362 410h-47l-37 38l-37 -38h-47l57 70h54z" />
    <glyph glyph-name="wcircumflex" unicode="&#x175;" horiz-adv-x="468" 
d="M404 300h49l-94 -300h-54l-71 235l-71 -235h-54l-94 300h51l71 -239l72 239h51l73 -240zM319 330h-47l-37 38l-37 -38h-47l57 70h54z" />
    <glyph glyph-name="Ycircumflex" unicode="&#x176;" horiz-adv-x="362" 
d="M357 380l-150 -227v-153h-52v153l-150 227h60l117 -179l116 179h59zM266 410h-47l-37 38l-37 -38h-47l57 70h54z" />
    <glyph glyph-name="ycircumflex" unicode="&#x177;" horiz-adv-x="321" 
d="M315 300l-115 -316q-14 -40 -38 -64.5t-57 -24.5q-39 0 -59.5 24t-19.5 60l45 8q-2 -46 34 -46q14 0 24.5 9t19.5 28l-141 322h55l110 -263l90 263h52zM247 330h-47l-37 38l-37 -38h-47l57 70h54z" />
    <glyph glyph-name="Ydieresis" unicode="&#x178;" horiz-adv-x="362" 
d="M357 380l-150 -227v-153h-52v153l-150 227h60l117 -179l116 179h59zM105 480h56v-56h-56v56zM201 480h56v-56h-56v56z" />
    <glyph glyph-name="Zacute" unicode="&#x179;" horiz-adv-x="353" 
d="M328 380v-43l-236 -289h236v-48h-303v43l236 289h-225v48h292zM191 480h65l-57 -70h-37z" />
    <glyph glyph-name="zacute" unicode="&#x17a;" horiz-adv-x="294" 
d="M82 43h192v-43h-254v44l188 213h-179v43h240v-44zM162 400h65l-57 -70h-37z" />
    <glyph glyph-name="Zdotaccent" unicode="&#x17b;" horiz-adv-x="353" 
d="M328 380v-43l-236 -289h236v-48h-303v43l236 289h-225v48h292zM149 480h56v-56h-56v56z" />
    <glyph glyph-name="zdotaccent" unicode="&#x17c;" horiz-adv-x="294" 
d="M82 43h192v-43h-254v44l188 213h-179v43h240v-44zM120 400h56v-56h-56v56z" />
    <glyph glyph-name="Zcaron" unicode="&#x17d;" horiz-adv-x="353" 
d="M328 380v-43l-236 -289h236v-48h-303v43l236 289h-225v48h292zM215 480h47l-57 -70h-54l-57 70h47l37 -38z" />
    <glyph glyph-name="zcaron" unicode="&#x17e;" horiz-adv-x="294" 
d="M82 43h192v-43h-254v44l188 213h-179v43h240v-44zM186 400h47l-57 -70h-54l-57 70h47l37 -38z" />
    <glyph glyph-name="uni0218" unicode="&#x218;" horiz-adv-x="348" 
d="M90 9q-38 14 -66 41l32 40q25 -24 56 -36.5t66 -12.5q42 0 66 16.5t24 44.5q0 23 -19 36.5t-72 28.5q-71 20 -105.5 43t-34.5 69q0 49 38.5 77.5t102.5 28.5q75 0 133 -44l-31 -41q-44 39 -107 39q-38 0 -61 -15.5t-23 -41.5q0 -23 21 -37t75 -28q73 -18 104 -43t31 -66
q0 -52 -40 -82.5t-109 -30.5q-43 0 -81 14zM200 -30v-37q0 -28 -13 -42t-35 -14h-8v27h8q19 0 20 22h-28v44h56z" />
    <glyph glyph-name="uni0219" unicode="&#x219;" horiz-adv-x="288" 
d="M20 42l29 35q38 -38 98 -38q32 0 50 11t18 30q0 17 -16 28t-59 21q-59 15 -83 35t-24 54q0 39 31.5 63t82.5 24q62 0 110 -37l-30 -39q-34 32 -82 32q-29 0 -46 -10.5t-17 -28.5q0 -16 16 -26.5t56 -20.5q60 -17 84.5 -37t24.5 -54q0 -41 -32 -65t-85 -24q-76 0 -126 47z
M169 -30v-37q0 -28 -13 -42t-35 -14h-8v27h8q19 0 20 22h-28v44h56z" />
    <glyph glyph-name="uni021A" unicode="&#x21a;" horiz-adv-x="350" 
d="M340 380v-48h-139v-332h-52v332h-139v48h330zM203 -30v-37q0 -28 -13 -42t-35 -14h-8v27h8q19 0 20 22h-28v44h56z" />
    <glyph glyph-name="uni021B" unicode="&#x21b;" horiz-adv-x="244" 
d="M123 257v-172q0 -25 10.5 -34t34.5 -9t50 7v-47q-28 -7 -58 -7q-43 0 -65 21t-22 60v181h-59v43h59l8 80h42v-80h95v-43h-95zM175 -30v-37q0 -28 -13 -42t-35 -14h-8v27h8q19 0 20 22h-28v44h56z" />
    <glyph glyph-name="uni0237" unicode="&#x237;" horiz-adv-x="155" 
d="M0 -100v46q8 -1 23 -1q16 0 24 7.5t8 25.5v322h50v-324q0 -78 -77 -78q-12 0 -28 2z" />
    <glyph glyph-name="uni02BC" unicode="&#x2bc;" horiz-adv-x="110" 
d="M30 288q13 0 19 7.5t6 22.5v6h-35v56h70v-56q0 -35 -16 -52.5t-44 -17.5h-10v34h10z" />
    <glyph glyph-name="circumflex" unicode="&#x2c6;" horiz-adv-x="160" 
d="M195 330h-47l-37 38l-37 -38h-47l57 70h54z" />
    <glyph glyph-name="caron" unicode="&#x2c7;" horiz-adv-x="160" 
d="M148 400h47l-57 -70h-54l-57 70h47l37 -38z" />
    <glyph glyph-name="breve" unicode="&#x2d8;" horiz-adv-x="160" 
d="M53.5 349q-22.5 19 -26.5 51l41 3q5 -35 42 -35t42 35l41 -3q-4 -32 -26.5 -51t-56.5 -19t-56.5 19z" />
    <glyph glyph-name="dotaccent" unicode="&#x2d9;" horiz-adv-x="160" 
d="M82 400h56v-56h-56v56z" />
    <glyph glyph-name="ring" unicode="&#x2da;" horiz-adv-x="160" 
d="M65 347.5q-18 17.5 -18 44.5t18 44.5t45 17.5t45 -17.5t18 -44.5t-18 -44.5t-45 -17.5t-45 17.5zM131 371q8 8 8 21t-8 21t-21 8t-21 -8t-8 -21t8 -21t21 -8t21 8z" />
    <glyph glyph-name="ogonek" unicode="&#x2db;" horiz-adv-x="160" 
d="M74 -45q0 -9 5.5 -14t15.5 -5q14 0 26 9l17 -31q-22 -14 -47 -14t-40.5 14t-15.5 36t19.5 39.5t50.5 19.5l28 -9q-59 -17 -59 -45z" />
    <glyph glyph-name="tilde" unicode="&#x2dc;" horiz-adv-x="160" 
d="M144 340q-16 0 -40 15q-16 10 -24 10q-16 0 -26 -24l-32 18q18 45 56 45q16 0 40 -15q16 -10 24 -10q16 0 26 24l32 -18q-18 -45 -56 -45z" />
    <glyph glyph-name="hungarumlaut" unicode="&#x2dd;" horiz-adv-x="160" 
d="M75 400h65l-57 -70h-37zM165 400h65l-57 -70h-37z" />
    <glyph glyph-name="gravecomb" unicode="&#x300;" horiz-adv-x="0" 
d="M-202 330l-57 70h65l29 -70h-37z" />
    <glyph glyph-name="acutecomb" unicode="&#x301;" horiz-adv-x="0" 
d="M-166 400h65l-57 -70h-37z" />
    <glyph glyph-name="uni0302" unicode="&#x302;" horiz-adv-x="0" 
d="M-95 330h-47l-37 38l-37 -38h-47l57 70h54z" />
    <glyph glyph-name="tildecomb" unicode="&#x303;" horiz-adv-x="0" 
d="M-146 340q-16 0 -40 15q-16 10 -24 10q-16 0 -26 -24l-32 18q18 45 56 45q16 0 40 -15q16 -10 24 -10q16 0 26 24l32 -18q-18 -45 -56 -45z" />
    <glyph glyph-name="uni0304" unicode="&#x304;" horiz-adv-x="0" 
d="M-260 400h160v-40h-160v40z" />
    <glyph glyph-name="uni0306" unicode="&#x306;" horiz-adv-x="0" 
d="M-236.5 349q-22.5 19 -26.5 51l41 3q5 -35 42 -35t42 35l41 -3q-4 -32 -26.5 -51t-56.5 -19t-56.5 19z" />
    <glyph glyph-name="uni0307" unicode="&#x307;" horiz-adv-x="0" 
d="M-208 400h56v-56h-56v56z" />
    <glyph glyph-name="uni0308" unicode="&#x308;" horiz-adv-x="0" 
d="M-256 400h56v-56h-56v56zM-160 400h56v-56h-56v56z" />
    <glyph glyph-name="uni030A" unicode="&#x30a;" horiz-adv-x="0" 
d="M-225 347.5q-18 17.5 -18 44.5t18 44.5t45 17.5t45 -17.5t18 -44.5t-18 -44.5t-45 -17.5t-45 17.5zM-159 371q8 8 8 21t-8 21t-21 8t-21 -8t-8 -21t8 -21t21 -8t21 8z" />
    <glyph glyph-name="uni030B" unicode="&#x30b;" horiz-adv-x="0" 
d="M-215 400h65l-57 -70h-37zM-125 400h65l-57 -70h-37z" />
    <glyph glyph-name="uni030C" unicode="&#x30c;" horiz-adv-x="0" 
d="M-142 400h47l-57 -70h-54l-57 70h47l37 -38z" />
    <glyph glyph-name="uni0312" unicode="&#x312;" horiz-adv-x="0" 
d="M-180 393v-5h28v-54h-56v54q0 28 13 42t35 14h8v-27h-8q-20 0 -20 -24z" />
    <glyph glyph-name="uni0326" unicode="&#x326;" horiz-adv-x="0" 
d="M-152 -30v-37q0 -28 -13 -42t-35 -14h-8v27h8q19 0 20 22h-28v44h56z" />
    <glyph glyph-name="uni0327" unicode="&#x327;" horiz-adv-x="0" 
d="M-121.5 -34q13.5 -11 13.5 -31t-19 -32.5t-49 -12.5q-17 0 -34 5.5t-30 15.5l18 27q25 -17 47 -17q13 0 20 4t7 12q0 7 -5.5 10.5t-14.5 3.5q-11 0 -21 -5l-27 15l24 39h37l-15 -24q5 1 13 1q22 0 35.5 -11z" />
    <glyph glyph-name="uni0328" unicode="&#x328;" horiz-adv-x="0" 
d="M-216 -45q0 -9 5.5 -14t15.5 -5q14 0 26 9l17 -31q-22 -14 -47 -14t-40.5 14t-15.5 36t19.5 39.5t50.5 19.5l28 -9q-59 -17 -59 -45z" />
    <glyph glyph-name="dieresistonos" unicode="&#x385;" 
d="M232 414l-57 -70h-37l29 70h65zM77 400h56v-56h-56v56zM227 400h56v-56h-56v56z" />
    <glyph glyph-name="uni0401" unicode="&#x401;" horiz-adv-x="340" 
d="M112 47h208v-47h-260v380h255v-47h-203v-115h158v-46h-158v-125zM109 480h56v-56h-56v56zM205 480h56v-56h-56v56z" />
    <glyph glyph-name="uni0404" unicode="&#x404;" horiz-adv-x="385" 
d="M277 62q28 21 40 62l48 -17q-17 -52 -58.5 -82t-98.5 -30q-81 0 -129.5 53t-48.5 142q0 57 22.5 101.5t63 69t92.5 24.5q58 0 99 -29t58 -83l-48 -17q-12 41 -40 62t-69 21q-50 0 -84 -33t-41 -88h162v-46h-163q5 -61 38.5 -96t87.5 -35q41 0 69 21z" />
    <glyph glyph-name="uni0406" unicode="&#x406;" horiz-adv-x="172" 
d="M60 380h52v-380h-52v380z" />
    <glyph glyph-name="uni0407" unicode="&#x407;" horiz-adv-x="172" 
d="M60 380h52v-380h-52v380zM10 480h56v-56h-56v56zM106 480h56v-56h-56v56z" />
    <glyph glyph-name="uni040E" unicode="&#x40e;" horiz-adv-x="384" 
d="M369 380l-131 -313q-29 -72 -89 -72q-35 0 -56 22t-23 59l46 11q3 -47 34 -47q27 0 37 25l-174 315h60l137 -262l103 262h56zM131.5 426q-22.5 18 -26.5 51l40 8q1 -20 13.5 -31t32.5 -11t32.5 11t13.5 31l40 -8q-4 -33 -26.5 -51t-59.5 -18t-59.5 18z" />
    <glyph glyph-name="uni0410" unicode="&#x410;" horiz-adv-x="390" 
d="M327 0l-38 95h-189l-38 -95h-54l156 380h62l156 -380h-55zM118 141h152l-76 190z" />
    <glyph glyph-name="uni0411" unicode="&#x411;" horiz-adv-x="375" 
d="M314.5 199q35.5 -31 35.5 -84t-35.5 -84t-95.5 -31h-159v380h260v-47h-208v-103h107q60 0 95.5 -31zM297 115q0 69 -85 69h-100v-138h100q85 0 85 69z" />
    <glyph glyph-name="uni0412" unicode="&#x412;" horiz-adv-x="380" 
d="M335.5 158.5q14.5 -23.5 14.5 -54.5q0 -47 -32 -75.5t-86 -28.5h-172v380h167q52 0 83.5 -27.5t31.5 -73.5q0 -57 -47 -84q26 -13 40.5 -36.5zM110 334v-116h109q72 0 72 58t-72 58h-109zM298 109q0 63 -78 63h-110v-126h110q78 0 78 63z" />
    <glyph glyph-name="uni0413" unicode="&#x413;" horiz-adv-x="320" 
d="M310 380v-48h-198v-332h-52v380h250z" />
    <glyph glyph-name="uni0414" unicode="&#x414;" horiz-adv-x="422" 
d="M402 -80h-50v80h-284v-80h-50v128h38q14 43 14 163v169h288v-332h44v-128zM306 48v284h-184v-121q0 -98 -15 -163h199z" />
    <glyph glyph-name="uni0415" unicode="&#x415;" horiz-adv-x="340" 
d="M112 47h208v-47h-260v380h255v-47h-203v-115h158v-46h-158v-125z" />
    <glyph glyph-name="uni0416" unicode="&#x416;" horiz-adv-x="566" 
d="M493 0l-128 190l-56 -56v-134h-52v134l-56 56l-128 -190h-63l154 227l-152 153h65l180 -184v184h52v-184l180 184h65l-152 -153l154 -227h-63z" />
    <glyph glyph-name="uni0417" unicode="&#x417;" horiz-adv-x="344" 
d="M302.5 162q16.5 -23 16.5 -55q0 -51 -40 -81.5t-107 -30.5q-56 0 -96 25t-58 68l45 24q13 -33 42 -52t68 -19q43 0 68.5 19t25.5 51q0 28 -22.5 44.5t-61.5 16.5h-50v46h51q30 0 49.5 15t19.5 41q0 30 -21 47.5t-60 17.5q-74 0 -102 -68l-48 17q17 44 57.5 70.5
t93.5 26.5q61 0 97 -29t36 -78q0 -27 -13.5 -48.5t-37.5 -33.5q31 -11 47.5 -34z" />
    <glyph glyph-name="uni0418" unicode="&#x418;" horiz-adv-x="430" 
d="M318 380h52v-380h-52v302l-207 -302h-51v380h52v-300z" />
    <glyph glyph-name="uni0419" unicode="&#x419;" horiz-adv-x="430" 
d="M318 380h52v-380h-52v302l-207 -302h-51v380h52v-300zM155.5 426q-22.5 18 -26.5 51l40 8q1 -20 13.5 -31t32.5 -11t32.5 11t13.5 31l40 -8q-4 -33 -26.5 -51t-59.5 -18t-59.5 18z" />
    <glyph glyph-name="uni041A" unicode="&#x41a;" horiz-adv-x="388" 
d="M314 0l-143 188l-59 -58v-130h-52v380h52v-190l190 190h65l-159 -156l170 -224h-64z" />
    <glyph glyph-name="uni041B" unicode="&#x41b;" horiz-adv-x="430" 
d="M370 0h-52v332h-176v-121q0 -85 -6 -129t-23.5 -63.5t-52.5 -19.5q-22 0 -32 1v50h16q21 0 30 8.5t12.5 42t3.5 111.5v168h280v-380z" />
    <glyph glyph-name="uni041C" unicode="&#x41c;" horiz-adv-x="530" 
d="M470 380v-380h-50v325l-125 -325h-60l-125 325v-325h-50v380h83l123 -322l122 322h82z" />
    <glyph glyph-name="uni041D" unicode="&#x41d;" horiz-adv-x="430" 
d="M318 380h52v-380h-52v171h-206v-171h-52v380h52v-161h206v161z" />
    <glyph glyph-name="uni041E" unicode="&#x41e;" horiz-adv-x="420" 
d="M79 48q-49 53 -49 142q0 57 23 101.5t64 69t93 24.5q82 0 131 -53t49 -142q0 -57 -23 -101.5t-64 -69t-93 -24.5q-82 0 -131 53zM302.5 81.5q34.5 40.5 34.5 108.5t-34.5 108.5t-92.5 40.5t-92.5 -40.5t-34.5 -108.5t34.5 -108.5t92.5 -40.5t92.5 40.5z" />
    <glyph glyph-name="uni041F" unicode="&#x41f;" horiz-adv-x="430" 
d="M370 380v-380h-52v332h-206v-332h-52v380h310z" />
    <glyph glyph-name="uni0420" unicode="&#x420;" horiz-adv-x="368" 
d="M312.5 349q35.5 -31 35.5 -84t-35.5 -84t-95.5 -31h-105v-150h-52v380h157q60 0 95.5 -31zM295 265q0 68 -84 68h-99v-136h99q84 0 84 68z" />
    <glyph glyph-name="uni0421" unicode="&#x421;" horiz-adv-x="385" 
d="M78.5 48q-48.5 53 -48.5 142q0 57 22.5 101.5t63 69t92.5 24.5q58 0 99 -29t58 -83l-48 -17q-12 41 -40 62t-69 21q-56 0 -90.5 -41t-34.5 -108q0 -69 34 -109t91 -40q41 0 69 21t40 62l48 -17q-17 -52 -58.5 -82t-98.5 -30q-81 0 -129.5 53z" />
    <glyph glyph-name="uni0422" unicode="&#x422;" horiz-adv-x="350" 
d="M340 380v-48h-139v-332h-52v332h-139v48h330z" />
    <glyph glyph-name="uni0423" unicode="&#x423;" horiz-adv-x="384" 
d="M369 380l-131 -313q-29 -72 -89 -72q-35 0 -56 22t-23 59l46 11q3 -47 34 -47q27 0 37 25l-174 315h60l137 -262l103 262h56z" />
    <glyph glyph-name="uni0424" unicode="&#x424;" horiz-adv-x="482" 
d="M413.5 304.5q43.5 -40.5 43.5 -109.5q0 -67 -44.5 -108.5t-121.5 -41.5h-24v-51h-52v51h-24q-79 0 -122.5 40.5t-43.5 109.5q0 67 44.5 108.5t121.5 41.5h24v41h52v-41h24q79 0 122.5 -40.5zM215 90v210h-23q-54 0 -84 -27.5t-30 -77.5q0 -105 114 -105h23zM374 117.5
q30 27.5 30 77.5q0 105 -114 105h-23v-210h23q54 0 84 27.5z" />
    <glyph glyph-name="uni0425" unicode="&#x425;" horiz-adv-x="372" 
d="M362 0h-62l-114 158l-115 -158h-61l145 195l-135 185h62l105 -147l105 147h60l-134 -183z" />
    <glyph glyph-name="uni0426" unicode="&#x426;" horiz-adv-x="424" 
d="M404 48v-128h-50v80h-294v380h52v-332h196v332h52v-332h44z" />
    <glyph glyph-name="uni0427" unicode="&#x427;" horiz-adv-x="396" 
d="M336 380v-380h-52v153h-113q-63 0 -97 30t-34 87v110h52v-110q0 -69 82 -69h110v179h52z" />
    <glyph glyph-name="uni0428" unicode="&#x428;" horiz-adv-x="596" 
d="M484 380h52v-380h-476v380h52v-332h160v332h52v-332h160v332z" />
    <glyph glyph-name="uni0429" unicode="&#x429;" horiz-adv-x="600" 
d="M580 48v-128h-50v80h-470v380h52v-332h160v332h52v-332h160v332h52v-332h44z" />
    <glyph glyph-name="uni042A" unicode="&#x42a;" horiz-adv-x="425" 
d="M364.5 199q35.5 -31 35.5 -84t-35.5 -84t-95.5 -31h-159v332h-100v48h152v-150h107q60 0 95.5 -31zM347 115q0 68 -84 68h-101v-136h101q84 0 84 68z" />
    <glyph glyph-name="uni042B" unicode="&#x42b;" horiz-adv-x="527" 
d="M314.5 199q35.5 -31 35.5 -84t-35.5 -84t-95.5 -31h-159v380h52v-150h107q60 0 95.5 -31zM297 115q0 68 -84 68h-101v-136h101q84 0 84 68zM415 380h52v-380h-52v380z" />
    <glyph glyph-name="uni042C" unicode="&#x42c;" horiz-adv-x="375" 
d="M314.5 199q35.5 -31 35.5 -84t-35.5 -84t-95.5 -31h-159v380h52v-150h107q60 0 95.5 -31zM297 115q0 68 -84 68h-101v-136h101q84 0 84 68z" />
    <glyph glyph-name="uni042D" unicode="&#x42d;" horiz-adv-x="380" 
d="M301.5 332q48.5 -53 48.5 -142q0 -57 -22.5 -101.5t-63 -69t-92.5 -24.5q-57 0 -98.5 30t-58.5 82l48 17q12 -41 40 -62t69 -21q53 0 87.5 35.5t38.5 95.5h-163v46h162q-7 56 -40 88.5t-85 32.5q-41 0 -69 -21t-40 -62l-48 17q17 53 59 82.5t98 29.5q81 0 129.5 -53z" />
    <glyph glyph-name="uni042E" unicode="&#x42e;" horiz-adv-x="570" 
d="M492 332q48 -53 48 -142q0 -57 -22 -101.5t-62 -69t-91 -24.5q-75 0 -122 48t-52 128h-79v-171h-52v380h52v-161h80q8 75 55.5 120.5t117.5 45.5q79 0 127 -53zM453.5 81.5q33.5 40.5 33.5 108.5t-33.5 108.5t-88.5 40.5t-88.5 -40.5t-33.5 -108.5t33.5 -108.5
t88.5 -40.5t88.5 40.5z" />
    <glyph glyph-name="uni042F" unicode="&#x42f;" horiz-adv-x="385" 
d="M325 0h-52v152h-100l-93 -152h-60l99 160q-36 12 -56.5 39.5t-20.5 66.5q0 52 35.5 83t94.5 31h153v-380zM273 197v136h-94q-84 0 -84 -68t84 -68h94z" />
    <glyph glyph-name="uni0430" unicode="&#x430;" horiz-adv-x="317" 
d="M297 44v-44q-4 -2 -17 -2q-28 0 -40.5 11t-14.5 38q-17 -24 -45.5 -38t-61.5 -14q-44 0 -71 24.5t-27 64.5q0 48 35.5 68.5t93.5 29.5q43 7 56.5 13t13.5 23q0 20 -18.5 32t-48.5 12q-26 0 -50.5 -10.5t-43.5 -30.5l-31 32q52 52 127 52q52 0 82 -26t30 -72v-143
q0 -20 20 -20h11zM190 59.5q28 22.5 28 53.5v46q-8 -6 -21 -9t-41 -7q-43 -7 -64.5 -18t-21.5 -40q0 -23 14 -35.5t40 -12.5q38 0 66 22.5z" />
    <glyph glyph-name="uni0431" unicode="&#x431;" horiz-adv-x="343" 
d="M278 34q-40 -39 -102 -39q-66 0 -105 46.5t-39 123.5q0 89 31.5 136t101.5 61l71 15q16 3 19 21l1 7l48 -9l-1 -9q-3 -44 -52 -56l-86 -17q-76 -15 -85 -90q16 23 44.5 35.5t64.5 12.5q55 0 91 -39t37 -99q1 -61 -39 -100zM241.5 64.5q24.5 25.5 24.5 68.5q0 44 -24.5 70
t-65.5 26q-42 0 -67 -25t-25 -68t25.5 -70t66.5 -27t65.5 25.5z" />
    <glyph glyph-name="uni0432" unicode="&#x432;" horiz-adv-x="323" 
d="M293 81q0 -39 -26.5 -60t-74.5 -21h-142v300h131q49 0 76.5 -19.5t27.5 -58.5q0 -49 -42 -68q50 -19 50 -73zM99 174h82q29 0 41 10t12 33q0 20 -13 30.5t-36 10.5h-86v-84zM227.5 54q14.5 12 14.5 33q0 22 -15.5 34.5t-43.5 12.5h-84v-92h89q25 0 39.5 12z" />
    <glyph glyph-name="uni0433" unicode="&#x433;" horiz-adv-x="270" 
d="M260 300v-46h-160v-254h-50v300h210z" />
    <glyph glyph-name="uni0434" unicode="&#x434;" 
d="M340 44v-114h-47v70h-228v-70h-47v114h33q11 33 11 131v125h239v-256h39zM251 44v212h-140v-84q0 -79 -11 -128h151z" />
    <glyph glyph-name="uni0435" unicode="&#x435;" horiz-adv-x="341" 
d="M109.5 64.5q26.5 -25.5 68.5 -25.5q64 0 93 41l36 -31q-18 -24 -50 -39t-78 -15q-71 0 -111.5 43t-40.5 112t41 112t106 43t103.5 -42.5t38.5 -112.5q0 -11 -1 -16h-237q5 -44 31.5 -69.5zM110 238.5q-25 -23.5 -31 -64.5h185q-5 41 -29 64.5t-61 23.5q-39 0 -64 -23.5z
" />
    <glyph glyph-name="uni0436" unicode="&#x436;" horiz-adv-x="472" 
d="M405 0l-101 146l-43 -42v-104h-50v104l-43 43l-101 -147h-62l128 181l-122 119h64l136 -137v137h50v-137l136 137h64l-122 -119l128 -181h-62z" />
    <glyph glyph-name="uni0437" unicode="&#x437;" horiz-adv-x="280" 
d="M248.5 129q13.5 -18 13.5 -45q0 -40 -34 -64.5t-89 -24.5q-47 0 -80 21.5t-47 60.5l46 17q11 -27 32.5 -41.5t49.5 -14.5q32 0 51 12.5t19 34.5t-17 34t-48 12h-37v44h35q27 0 41 11.5t14 31.5q0 22 -15 33.5t-42 11.5q-53 0 -72 -51l-47 18q14 35 45.5 55t74.5 20
q47 0 76 -23.5t30 -62.5q0 -44 -39 -64q26 -8 39.5 -26z" />
    <glyph glyph-name="uni0438" unicode="&#x438;" 
d="M257 300h53v-300h-49v233l-158 -233h-53v300h49v-233z" />
    <glyph glyph-name="uni0439" unicode="&#x439;" 
d="M257 300h53v-300h-49v233l-158 -233h-53v300h49v-233zM120.5 346q-22.5 18 -26.5 51l40 8q1 -20 13.5 -31t32.5 -11t32.5 11t13.5 31l40 -8q-4 -33 -26.5 -51t-59.5 -18t-59.5 18z" />
    <glyph glyph-name="uni043A" unicode="&#x43a;" horiz-adv-x="316" 
d="M254 0l-109 145l-45 -42v-103h-50v300h50v-139l146 139h64l-129 -121l135 -179h-62z" />
    <glyph glyph-name="uni043B" unicode="&#x43b;" horiz-adv-x="352" 
d="M302 0h-50v256h-136v-118q0 -55 -7.5 -85t-24 -42.5t-44.5 -12.5q-15 0 -25 2v46h14q16 0 23.5 5.5t11 26t3.5 66.5v156h235v-300z" />
    <glyph glyph-name="uni043C" unicode="&#x43c;" horiz-adv-x="440" 
d="M390 300v-300h-49v251l-93 -251h-56l-93 251v-251h-49v300h80l91 -246l90 246h79z" />
    <glyph glyph-name="uni043D" unicode="&#x43d;" 
d="M260 300h50v-300h-50v130h-160v-130h-50v300h50v-124h160v124z" />
    <glyph glyph-name="uni043E" unicode="&#x43e;" horiz-adv-x="354" 
d="M68 37q-41 42 -41 113q0 69 42 112t108 43q68 0 109 -42t41 -113q0 -69 -42 -112t-108 -43q-68 0 -109 42zM249 69.5q27 30.5 27 80.5t-27 80.5t-72 30.5t-72 -30.5t-27 -80.5t27 -80.5t72 -30.5t72 30.5z" />
    <glyph glyph-name="uni043F" unicode="&#x43f;" 
d="M310 300v-300h-50v256h-160v-256h-50v300h260z" />
    <glyph glyph-name="uni0440" unicode="&#x440;" horiz-adv-x="362" 
d="M298.5 262.5q36.5 -42.5 36.5 -112.5q0 -69 -37.5 -112t-95.5 -43q-32 0 -58.5 12.5t-43.5 35.5v-143h-50v400h42l4 -50q18 26 45.5 40.5t60.5 14.5q60 0 96.5 -42.5zM258.5 69.5q25.5 30.5 25.5 80.5t-25.5 80.5t-68.5 30.5t-68.5 -30.5t-25.5 -80.5t25.5 -80.5
t68.5 -30.5t68.5 30.5z" />
    <glyph glyph-name="uni0441" unicode="&#x441;" horiz-adv-x="326" 
d="M68.5 38q-41.5 43 -41.5 112t41.5 112t106.5 43q48 0 83.5 -24t47.5 -66l-47 -15q-11 29 -32.5 45t-51.5 16q-45 0 -71 -30t-26 -81t26 -81t71 -30q30 0 52 16t33 45l46 -15q-13 -42 -48.5 -66t-82.5 -24q-65 0 -106.5 43z" />
    <glyph glyph-name="uni0442" unicode="&#x442;" horiz-adv-x="290" 
d="M280 300v-44h-110v-256h-50v256h-110v44h270z" />
    <glyph glyph-name="uni0443" unicode="&#x443;" horiz-adv-x="321" 
d="M315 300l-115 -316q-14 -40 -38 -64.5t-57 -24.5q-39 0 -59.5 24t-19.5 60l45 8q-2 -46 34 -46q14 0 24.5 9t19.5 28l-141 322h55l110 -263l90 263h52z" />
    <glyph glyph-name="uni0444" unicode="&#x444;" horiz-adv-x="514" 
d="M454.5 261.5q32.5 -41.5 32.5 -111.5q0 -68 -33.5 -110.5t-84.5 -42.5q-57 0 -87 43v-140h-50v142q-33 -45 -87 -45q-53 0 -85.5 41.5t-32.5 111.5q0 68 33.5 110.5t84.5 42.5q57 0 87 -42v139h50v-142q32 45 87 45q53 0 85.5 -41.5zM213.5 69.5q21.5 30.5 21.5 80.5
t-21.5 80.5t-56.5 30.5q-36 0 -57.5 -30.5t-21.5 -80.5t21.5 -80.5t57.5 -30.5q35 0 56.5 30.5zM414.5 69.5q21.5 30.5 21.5 80.5t-21.5 80.5t-56.5 30.5q-36 0 -57.5 -30.5t-21.5 -80.5t21.5 -80.5t57.5 -30.5q35 0 56.5 30.5z" />
    <glyph glyph-name="uni0445" unicode="&#x445;" horiz-adv-x="326" 
d="M311 0h-61l-87 119l-89 -119h-59l117 153l-110 147h61l82 -111l83 111h58l-110 -146z" />
    <glyph glyph-name="uni0446" unicode="&#x446;" horiz-adv-x="364" 
d="M305 44h39v-114h-47v70h-247v300h50v-256h155v256h50v-256z" />
    <glyph glyph-name="uni0447" unicode="&#x447;" horiz-adv-x="328" 
d="M278 300v-300h-50v117h-82q-56 0 -86 26.5t-30 73.5v83h50v-83q0 -28 15.5 -41t50.5 -13h82v137h50z" />
    <glyph glyph-name="uni0448" unicode="&#x448;" horiz-adv-x="500" 
d="M400 300h50v-300h-400v300h50v-256h125v256h50v-256h125v256z" />
    <glyph glyph-name="uni0449" unicode="&#x449;" horiz-adv-x="509" 
d="M450 44h39v-114h-47v70h-392v300h50v-256h125v256h50v-256h125v256h50v-256z" />
    <glyph glyph-name="uni044A" unicode="&#x44a;" horiz-adv-x="358" 
d="M309.5 157q28.5 -25 28.5 -66t-28.5 -66t-75.5 -25h-139v254h-85v46h135v-118h89q47 0 75.5 -25zM272.5 56q14.5 12 14.5 35t-14.5 35t-41.5 12h-86v-94h86q27 0 41.5 12z" />
    <glyph glyph-name="uni044B" unicode="&#x44b;" horiz-adv-x="445" 
d="M264.5 157q28.5 -25 28.5 -66t-28.5 -66t-75.5 -25h-139v300h50v-118h89q47 0 75.5 -25zM227.5 56q14.5 12 14.5 35t-14.5 35t-41.5 12h-86v-94h86q27 0 41.5 12zM345 300h50v-300h-50v300z" />
    <glyph glyph-name="uni044C" unicode="&#x44c;" horiz-adv-x="313" 
d="M264.5 157q28.5 -25 28.5 -66t-28.5 -66t-75.5 -25h-139v300h50v-118h89q47 0 75.5 -25zM227.5 56q14.5 12 14.5 35t-14.5 35t-41.5 12h-86v-94h86q27 0 41.5 12z" />
    <glyph glyph-name="uni044D" unicode="&#x44d;" horiz-adv-x="327" 
d="M258.5 262q41.5 -43 41.5 -112t-41.5 -112t-106.5 -43q-48 0 -83.5 23.5t-48.5 65.5l46 15q11 -28 33.5 -44t52.5 -16q41 0 66.5 25t30.5 67h-137v44h136q-6 40 -31.5 63t-64.5 23q-31 0 -53.5 -16t-33.5 -44l-45 14q14 42 50 66t82 24q65 0 106.5 -43z" />
    <glyph glyph-name="uni044E" unicode="&#x44e;" horiz-adv-x="482" 
d="M415.5 263q39.5 -42 39.5 -113q0 -69 -40.5 -112t-104.5 -43q-61 0 -100 36.5t-44 98.5h-66v-130h-50v300h50v-124h67q8 59 46.5 94t96.5 35q66 0 105.5 -42zM378.5 69.5q25.5 30.5 25.5 80.5t-25.5 80.5t-68.5 30.5t-68.5 -30.5t-25.5 -80.5t25.5 -80.5t68.5 -30.5
t68.5 30.5z" />
    <glyph glyph-name="uni044F" unicode="&#x44f;" horiz-adv-x="319" 
d="M269 0h-50v118h-73l-77 -118h-57l82 125q-29 9 -45 30.5t-16 50.5q0 42 29 68t77 26h130v-300zM219 157v100h-76q-28 0 -44 -13t-16 -36q0 -24 16 -37.5t44 -13.5h76z" />
    <glyph glyph-name="uni0451" unicode="&#x451;" horiz-adv-x="341" 
d="M109.5 64.5q26.5 -25.5 68.5 -25.5q64 0 93 41l36 -31q-18 -24 -50 -39t-78 -15q-71 0 -111.5 43t-40.5 112t41 112t106 43t103.5 -42.5t38.5 -112.5q0 -11 -1 -16h-237q5 -44 31.5 -69.5zM110 238.5q-25 -23.5 -31 -64.5h185q-5 41 -29 64.5t-61 23.5q-39 0 -64 -23.5z
M95 400h56v-56h-56v56zM191 400h56v-56h-56v56z" />
    <glyph glyph-name="uni0454" unicode="&#x454;" horiz-adv-x="327" 
d="M227.5 55q22.5 16 33.5 44l46 -15q-13 -42 -48.5 -65.5t-83.5 -23.5q-65 0 -106.5 43t-41.5 112t41.5 112t106.5 43q48 0 83.5 -23.5t48.5 -65.5l-47 -15q-11 28 -33 44t-52 16q-39 0 -64.5 -23t-31.5 -63h136v-44h-137q5 -42 30.5 -67t66.5 -25q30 0 52.5 16z" />
    <glyph glyph-name="uni0456" unicode="&#x456;" horiz-adv-x="160" 
d="M55 300h50v-300h-50v300zM52 400h56v-56h-56v56z" />
    <glyph glyph-name="uni0457" unicode="&#x457;" horiz-adv-x="160" 
d="M55 300h50v-300h-50v300zM4 400h56v-56h-56v56zM100 400h56v-56h-56v56z" />
    <glyph glyph-name="uni045E" unicode="&#x45e;" horiz-adv-x="321" 
d="M315 300l-115 -316q-14 -40 -38 -64.5t-57 -24.5q-39 0 -59.5 24t-19.5 60l45 8q-2 -46 34 -46q14 0 24.5 9t19.5 28l-141 322h55l110 -263l90 263h52zM102.5 346q-22.5 18 -26.5 51l40 8q1 -20 13.5 -31t32.5 -11t32.5 11t13.5 31l40 -8q-4 -33 -26.5 -51t-59.5 -18
t-59.5 18z" />
    <glyph glyph-name="uni0490" unicode="&#x490;" horiz-adv-x="320" 
d="M260 460h50v-128h-198v-332h-52v380h200v80z" />
    <glyph glyph-name="uni0491" unicode="&#x491;" horiz-adv-x="270" 
d="M213 380h47v-126h-160v-254h-50v300h163v80z" />
    <glyph glyph-name="Wgrave" unicode="&#x1e80;" horiz-adv-x="554" 
d="M483 380h51l-110 -380h-55l-93 316l-92 -316h-54l-110 380h53l88 -303l87 303h58l88 -305zM255 410l-57 70h65l29 -70h-37z" />
    <glyph glyph-name="wgrave" unicode="&#x1e81;" horiz-adv-x="468" 
d="M404 300h49l-94 -300h-54l-71 235l-71 -235h-54l-94 300h51l71 -239l72 239h51l73 -240zM212 330l-57 70h65l29 -70h-37z" />
    <glyph glyph-name="Wacute" unicode="&#x1e82;" horiz-adv-x="554" 
d="M483 380h51l-110 -380h-55l-93 316l-92 -316h-54l-110 380h53l88 -303l87 303h58l88 -305zM291 480h65l-57 -70h-37z" />
    <glyph glyph-name="wacute" unicode="&#x1e83;" horiz-adv-x="468" 
d="M404 300h49l-94 -300h-54l-71 235l-71 -235h-54l-94 300h51l71 -239l72 239h51l73 -240zM248 400h65l-57 -70h-37z" />
    <glyph glyph-name="Wdieresis" unicode="&#x1e84;" horiz-adv-x="554" 
d="M483 380h51l-110 -380h-55l-93 316l-92 -316h-54l-110 380h53l88 -303l87 303h58l88 -305zM201 480h56v-56h-56v56zM297 480h56v-56h-56v56z" />
    <glyph glyph-name="wdieresis" unicode="&#x1e85;" horiz-adv-x="468" 
d="M404 300h49l-94 -300h-54l-71 235l-71 -235h-54l-94 300h51l71 -239l72 239h51l73 -240zM158 400h56v-56h-56v56zM254 400h56v-56h-56v56z" />
    <glyph glyph-name="uni1E9E" unicode="&#x1e9e;" horiz-adv-x="429" 
d="M368 194q33 -31 33 -81q0 -51 -37 -84.5t-98 -33.5q-35 0 -63.5 12.5t-45.5 35.5l32 32q27 -36 77 -36q37 0 60 19.5t23 53.5q0 32 -21 53t-57 21q-32 0 -55 -16l-27 34l120 129h-197v-333h-52v380h315v-40l-107 -116q5 1 14 1q53 0 86 -31z" />
    <glyph glyph-name="Ygrave" unicode="&#x1ef2;" horiz-adv-x="362" 
d="M357 380l-150 -227v-153h-52v153l-150 227h60l117 -179l116 179h59zM159 410l-57 70h65l29 -70h-37z" />
    <glyph glyph-name="ygrave" unicode="&#x1ef3;" horiz-adv-x="321" 
d="M315 300l-115 -316q-14 -40 -38 -64.5t-57 -24.5q-39 0 -59.5 24t-19.5 60l45 8q-2 -46 34 -46q14 0 24.5 9t19.5 28l-141 322h55l110 -263l90 263h52zM140 330l-57 70h65l29 -70h-37z" />
    <glyph glyph-name="endash" unicode="&#x2013;" horiz-adv-x="320" 
d="M35 194h250v-48h-250v48z" />
    <glyph glyph-name="emdash" unicode="&#x2014;" horiz-adv-x="440" 
d="M35 194h370v-48h-370v48z" />
    <glyph glyph-name="quoteleft" unicode="&#x2018;" horiz-adv-x="140" 
d="M71 358.5q-6 -7.5 -6 -22.5v-6h35v-70h-70v70q0 35 16 52.5t44 17.5h10v-34h-10q-13 0 -19 -7.5z" />
    <glyph glyph-name="quoteright" unicode="&#x2019;" horiz-adv-x="140" 
d="M50 274q13 0 19 7.5t6 22.5v6h-35v70h70v-70q0 -35 -16 -52.5t-44 -17.5h-10v34h10z" />
    <glyph glyph-name="quotesinglbase" unicode="&#x201a;" horiz-adv-x="150" 
d="M50 -36q13 0 19 7.5t6 22.5v6h-35v70h70v-70q0 -35 -16 -52.5t-44 -17.5h-10v34h10z" />
    <glyph glyph-name="quotedblleft" unicode="&#x201c;" horiz-adv-x="250" 
d="M71 358.5q-6 -7.5 -6 -22.5v-6h35v-70h-70v70q0 35 16 52.5t44 17.5h10v-34h-10q-13 0 -19 -7.5zM181 358.5q-6 -7.5 -6 -22.5v-6h35v-70h-70v70q0 35 16 52.5t44 17.5h10v-34h-10q-13 0 -19 -7.5z" />
    <glyph glyph-name="quotedblright" unicode="&#x201d;" horiz-adv-x="250" 
d="M50 274q13 0 19 7.5t6 22.5v6h-35v70h70v-70q0 -35 -16 -52.5t-44 -17.5h-10v34h10zM160 274q13 0 19 7.5t6 22.5v6h-35v70h70v-70q0 -35 -16 -52.5t-44 -17.5h-10v34h10z" />
    <glyph glyph-name="quotedblbase" unicode="&#x201e;" horiz-adv-x="260" 
d="M50 -36q13 0 19 7.5t6 22.5v6h-35v70h70v-70q0 -35 -16 -52.5t-44 -17.5h-10v34h10zM160 -36q13 0 19 7.5t6 22.5v6h-35v70h70v-70q0 -35 -16 -52.5t-44 -17.5h-10v34h10z" />
    <glyph glyph-name="dagger" unicode="&#x2020;" horiz-adv-x="232" 
d="M192 348v-32h-58v-88h-36v88h-58v32h58v52h36v-52h58z" />
    <glyph glyph-name="daggerdbl" unicode="&#x2021;" horiz-adv-x="232" 
d="M192 328h-58v-28h58v-32h-58v-40h-36v40h-58v32h58v28h-58v32h58v40h36v-40h58v-32z" />
    <glyph glyph-name="bullet" unicode="&#x2022;" 
d="M126.5 116.5q-21.5 21.5 -21.5 53.5t21.5 53.5t53.5 21.5t53.5 -21.5t21.5 -53.5t-21.5 -53.5t-53.5 -21.5t-53.5 21.5z" />
    <glyph glyph-name="ellipsis" unicode="&#x2026;" horiz-adv-x="430" 
d="M40 70h70v-70h-70v70zM180 70h70v-70h-70v70zM320 70h70v-70h-70v70z" />
    <glyph glyph-name="perthousand" unicode="&#x2030;" horiz-adv-x="760" 
d="M57 186q-27 31 -27 84t27 84t73 31t73 -31t27 -84t-27 -84t-73 -31t-73 31zM168 0h-43l241 380h43zM172 213.5q16 21.5 16 56.5t-16 56.5t-42 21.5t-42 -21.5t-16 -56.5t16 -56.5t42 -21.5t42 21.5zM331 26q-27 31 -27 84t27 84t73 31t73 -31t27 -84t-27 -84t-73 -31
t-73 31zM567 26q-27 31 -27 84t27 84t73 31t73 -31t27 -84t-27 -84t-73 -31t-73 31zM446 53.5q16 21.5 16 56.5t-16 56.5t-42 21.5t-42 -21.5t-16 -56.5t16 -56.5t42 -21.5t42 21.5zM682 53.5q16 21.5 16 56.5t-16 56.5t-42 21.5t-42 -21.5t-16 -56.5t16 -56.5t42 -21.5
t42 21.5z" />
    <glyph glyph-name="prime" unicode="&#x2032;" horiz-adv-x="300" 
d="M194 400h65l-57 -70h-37z" />
    <glyph glyph-name="guilsinglleft" unicode="&#x2039;" horiz-adv-x="210" 
d="M160 282v-56l-76 -55l76 -55v-58l-120 86v52z" />
    <glyph glyph-name="guilsinglright" unicode="&#x203a;" horiz-adv-x="210" 
d="M50 282l120 -86v-52l-120 -86v56l76 55l-76 55v58z" />
    <glyph glyph-name="fraction" unicode="&#x2044;" horiz-adv-x="20" 
d="M109 380h43l-241 -380h-43z" />
    <glyph glyph-name="uni2070" unicode="&#x2070;" horiz-adv-x="234" 
d="M45 264.5q-27 31.5 -27 83.5t27 83.5t72 31.5t72 -31.5t27 -83.5t-27 -83.5t-72 -31.5t-72 31.5zM159 291.5q16 21.5 16 56.5t-16 57t-42 22t-42 -22t-16 -57t16 -56.5t42 -21.5t42 21.5z" />
    <glyph glyph-name="uni2074" unicode="&#x2074;" horiz-adv-x="234" 
d="M218 324v-36h-39v-52h-39v52h-121v33l112 139h48v-136h39zM63 324h77v97z" />
    <glyph glyph-name="uni2075" unicode="&#x2075;" horiz-adv-x="234" 
d="M179.5 366.5q22.5 -20.5 22.5 -52.5q0 -35 -26.5 -58t-66.5 -23q-29 0 -51.5 11.5t-33.5 31.5l28 22q9 -13 24 -21t34 -8q23 0 37.5 12t14.5 32q0 19 -14 30t-36 11q-15 0 -27 -5.5t-19 -15.5l-30 10l11 117h139v-36h-107l-5 -49q20 12 47 12q36 0 58.5 -20.5z" />
    <glyph glyph-name="uni2076" unicode="&#x2076;" horiz-adv-x="234" 
d="M191.5 361.5q23.5 -20.5 23.5 -52.5q0 -34 -25.5 -55t-64.5 -21q-47 0 -72 32.5t-25 81.5t27 82.5t76 33.5q24 0 43.5 -7.5t32.5 -22.5l-29 -28q-18 21 -49 21q-29 0 -46 -21t-18 -53q22 30 66 30q37 0 60.5 -20.5zM161 279q14 11 14 29q0 17 -14 29t-35 12
q-22 0 -36.5 -11.5t-14.5 -29.5q0 -17 14 -28.5t36 -11.5t36 11z" />
    <glyph glyph-name="uni2077" unicode="&#x2077;" horiz-adv-x="204" 
d="M196 460v-30q-42 -33 -66.5 -84.5t-24.5 -109.5h-43q0 51 23 101t59 84h-138v39h190z" />
    <glyph glyph-name="uni2078" unicode="&#x2078;" horiz-adv-x="234" 
d="M196.5 329q11.5 -14 11.5 -33q0 -29 -24.5 -46t-66.5 -17t-66.5 17t-24.5 46q0 19 11.5 33t31.5 22q-17 7 -26.5 20t-9.5 30q0 28 23 45t61 17t61 -17t23 -45q0 -17 -9.5 -30t-26.5 -20q20 -8 31.5 -22zM83.5 422.5q-12.5 -9.5 -12.5 -25.5q0 -14 12.5 -22.5t33.5 -8.5
t33.5 8.5t12.5 22.5q0 16 -12.5 25.5t-33.5 9.5t-33.5 -9.5zM154.5 274q14.5 9 14.5 24q0 16 -14 24.5t-38 8.5t-38 -8.5t-14 -24.5q0 -15 14.5 -24t37.5 -9t37.5 9z" />
    <glyph glyph-name="uni2079" unicode="&#x2079;" horiz-adv-x="234" 
d="M181 430.5q25 -32.5 25 -81.5t-27 -82.5t-76 -33.5q-24 0 -43.5 7.5t-32.5 22.5l29 28q18 -21 49 -21q29 0 46 21t18 53q-22 -30 -66 -30q-37 0 -60.5 20.5t-23.5 52.5q0 34 25.5 55t64.5 21q47 0 72 -32.5zM144.5 358.5q14.5 11.5 14.5 29.5q0 17 -14 28.5t-36 11.5
t-36 -11t-14 -29q0 -17 14 -29t35 -12q22 0 36.5 11.5z" />
    <glyph glyph-name="uni2080" unicode="&#x2080;" horiz-adv-x="234" 
d="M45 -51.5q-27 31.5 -27 83.5t27 83.5t72 31.5t72 -31.5t27 -83.5t-27 -83.5t-72 -31.5t-72 31.5zM159 -24.5q16 21.5 16 56.5t-16 57t-42 22t-42 -22t-16 -57t16 -56.5t42 -21.5t42 21.5z" />
    <glyph glyph-name="uni2081" unicode="&#x2081;" horiz-adv-x="190" 
d="M90 -80v152h-61v34h14q32 0 44 8t14 30h30v-224h-41z" />
    <glyph glyph-name="uni2082" unicode="&#x2082;" horiz-adv-x="234" 
d="M208 -42v-38h-179v28l85 66q45 36 45 64q0 15 -11.5 24t-30.5 9q-22 0 -34.5 -12t-14.5 -33l-39 6q3 35 27 55t63 20q37 0 59.5 -18t22.5 -47q0 -22 -15.5 -44t-53.5 -51l-36 -29h112z" />
    <glyph glyph-name="uni2083" unicode="&#x2083;" horiz-adv-x="234" 
d="M184 39.5q19 -17.5 19 -46.5q0 -32 -26 -54t-64 -22q-31 0 -56 13.5t-36 36.5l31 21q17 -35 61 -35q22 0 36 11t14 28q0 18 -12.5 28t-31.5 10q-14 0 -26 -6l-19 21l66 62h-108v37h164v-29l-63 -57q32 -1 51 -18.5z" />
    <glyph glyph-name="uni2084" unicode="&#x2084;" horiz-adv-x="234" 
d="M218 8v-36h-39v-52h-39v52h-121v33l112 139h48v-136h39zM63 8h77v97z" />
    <glyph glyph-name="uni2085" unicode="&#x2085;" horiz-adv-x="234" 
d="M179.5 50.5q22.5 -20.5 22.5 -52.5q0 -35 -26.5 -58t-66.5 -23q-29 0 -51.5 11.5t-33.5 31.5l28 22q9 -13 24 -21t34 -8q23 0 37.5 12t14.5 32q0 19 -14 30t-36 11q-15 0 -27 -5.5t-19 -15.5l-30 10l11 117h139v-36h-107l-5 -49q20 12 47 12q36 0 58.5 -20.5z" />
    <glyph glyph-name="uni2086" unicode="&#x2086;" horiz-adv-x="234" 
d="M191.5 45.5q23.5 -20.5 23.5 -52.5q0 -34 -25.5 -55t-64.5 -21q-47 0 -72 32.5t-25 81.5t27 82.5t76 33.5q24 0 43.5 -7.5t32.5 -22.5l-29 -28q-18 21 -49 21q-29 0 -46 -21t-18 -53q22 30 66 30q37 0 60.5 -20.5zM161 -37q14 11 14 29q0 17 -14 29t-35 12
q-22 0 -36.5 -11.5t-14.5 -29.5q0 -17 14 -28.5t36 -11.5t36 11z" />
    <glyph glyph-name="uni2087" unicode="&#x2087;" horiz-adv-x="204" 
d="M196 144v-30q-42 -33 -66.5 -84.5t-24.5 -109.5h-43q0 51 23 101t59 84h-138v39h190z" />
    <glyph glyph-name="uni2088" unicode="&#x2088;" horiz-adv-x="234" 
d="M196.5 13q11.5 -14 11.5 -33q0 -29 -24.5 -46t-66.5 -17t-66.5 17t-24.5 46q0 19 11.5 33t31.5 22q-17 7 -26.5 20t-9.5 30q0 28 23 45t61 17t61 -17t23 -45q0 -17 -9.5 -30t-26.5 -20q20 -8 31.5 -22zM83.5 106.5q-12.5 -9.5 -12.5 -25.5q0 -14 12.5 -22.5t33.5 -8.5
t33.5 8.5t12.5 22.5q0 16 -12.5 25.5t-33.5 9.5t-33.5 -9.5zM154.5 -42q14.5 9 14.5 24q0 16 -14 24.5t-38 8.5t-38 -8.5t-14 -24.5q0 -15 14.5 -24t37.5 -9t37.5 9z" />
    <glyph glyph-name="uni2089" unicode="&#x2089;" horiz-adv-x="234" 
d="M181 114.5q25 -32.5 25 -81.5t-27 -82.5t-76 -33.5q-24 0 -43.5 7.5t-32.5 22.5l29 28q18 -21 49 -21q29 0 46 21t18 53q-22 -30 -66 -30q-37 0 -60.5 20.5t-23.5 52.5q0 34 25.5 55t64.5 21q47 0 72 -32.5zM144.5 42.5q14.5 11.5 14.5 29.5q0 17 -14 28.5t-36 11.5
t-36 -11t-14 -29q0 -17 14 -29t35 -12q22 0 36.5 11.5z" />
    <glyph glyph-name="Euro" unicode="&#x20ac;" 
d="M240.5 57q21.5 17 34.5 48l46 -22q-18 -42 -51.5 -65t-78.5 -23q-56 0 -94 36.5t-51 100.5h-35v36h31q-1 7 -1 22t1 22h-31v36h35q13 64 51 100.5t94 36.5q45 0 78.5 -23t51.5 -65l-46 -22q-13 31 -34.5 48t-49.5 17q-34 0 -58.5 -24.5t-34.5 -67.5h117v-36h-122
q-1 -7 -1 -22t1 -22h122v-36h-117q10 -43 34.5 -67.5t58.5 -24.5q28 0 49.5 17z" />
    <glyph glyph-name="uni20BD" unicode="&#x20bd;" horiz-adv-x="346" 
d="M125 150v-44h141v-36h-141v-70h-50v70h-50v36h50v44h-50v36h50v194h110q60 0 95.5 -31t35.5 -84t-35.5 -84t-95.5 -31h-60zM125 338v-152h46q94 0 94 77q0 37 -24 56t-70 19h-46z" />
    <glyph glyph-name="uni2116" unicode="&#x2116;" horiz-adv-x="623" 
d="M321 83v297h49v-380h-51l-210 299v-299h-49v380h52zM457 241q-23 23 -23 58t23 58t58 23q36 0 58.5 -23t22.5 -58t-22.5 -58t-58.5 -23q-35 0 -58 23zM481 335q-13 -14 -13 -36t13 -36t34 -14t34.5 14t13.5 36t-13.5 36t-34.5 14t-34 -14zM443 143v36h144v-36h-144z" />
    <glyph glyph-name="trademark" unicode="&#x2122;" horiz-adv-x="485" 
d="M189 380v-37h-65v-153h-39v153h-65v37h169zM435 380v-190h-37v141l-52 -141h-41l-52 141v-141h-37v190h56l54 -141l53 141h56z" />
    <glyph glyph-name="oneeighth" unicode="&#x215b;" horiz-adv-x="444" 
d="M90 156v152h-61v34h14q32 0 44 8t14 30h30v-224h-41zM299 380h43l-241 -380h-43zM406.5 93q11.5 -14 11.5 -33q0 -29 -24.5 -46t-66.5 -17t-66.5 17t-24.5 46q0 19 11.5 33t31.5 22q-17 7 -26.5 20t-9.5 30q0 28 23 45t61 17t61 -17t23 -45q0 -17 -9.5 -30t-26.5 -20
q20 -8 31.5 -22zM293.5 186.5q-12.5 -9.5 -12.5 -25.5q0 -14 12.5 -22.5t33.5 -8.5t33.5 8.5t12.5 22.5q0 16 -12.5 25.5t-33.5 9.5t-33.5 -9.5zM364.5 38q14.5 9 14.5 24q0 16 -14 24.5t-38 8.5t-38 -8.5t-14 -24.5q0 -15 14.5 -24t37.5 -9t37.5 9z" />
    <glyph glyph-name="threeeighths" unicode="&#x215c;" horiz-adv-x="488" 
d="M184 275.5q19 -17.5 19 -46.5q0 -32 -26 -54t-64 -22q-31 0 -56 13.5t-36 36.5l31 21q17 -35 61 -35q22 0 36 11t14 28q0 18 -12.5 28t-31.5 10q-14 0 -26 -6l-19 21l66 62h-108v37h164v-29l-63 -57q32 -1 51 -18.5zM343 380h43l-241 -380h-43zM450.5 93
q11.5 -14 11.5 -33q0 -29 -24.5 -46t-66.5 -17t-66.5 17t-24.5 46q0 19 11.5 33t31.5 22q-17 7 -26.5 20t-9.5 30q0 28 23 45t61 17t61 -17t23 -45q0 -17 -9.5 -30t-26.5 -20q20 -8 31.5 -22zM337.5 186.5q-12.5 -9.5 -12.5 -25.5q0 -14 12.5 -22.5t33.5 -8.5t33.5 8.5
t12.5 22.5q0 16 -12.5 25.5t-33.5 9.5t-33.5 -9.5zM408.5 38q14.5 9 14.5 24q0 16 -14 24.5t-38 8.5t-38 -8.5t-14 -24.5q0 -15 14.5 -24t37.5 -9t37.5 9z" />
    <glyph glyph-name="fiveeighths" unicode="&#x215d;" horiz-adv-x="488" 
d="M179.5 286.5q22.5 -20.5 22.5 -52.5q0 -35 -26.5 -58t-66.5 -23q-29 0 -51.5 11.5t-33.5 31.5l28 22q9 -13 24 -21t34 -8q23 0 37.5 12t14.5 32q0 19 -14 30t-36 11q-15 0 -27 -5.5t-19 -15.5l-30 10l11 117h139v-36h-107l-5 -49q20 12 47 12q36 0 58.5 -20.5zM343 380
h43l-241 -380h-43zM450.5 93q11.5 -14 11.5 -33q0 -29 -24.5 -46t-66.5 -17t-66.5 17t-24.5 46q0 19 11.5 33t31.5 22q-17 7 -26.5 20t-9.5 30q0 28 23 45t61 17t61 -17t23 -45q0 -17 -9.5 -30t-26.5 -20q20 -8 31.5 -22zM337.5 186.5q-12.5 -9.5 -12.5 -25.5
q0 -14 12.5 -22.5t33.5 -8.5t33.5 8.5t12.5 22.5q0 16 -12.5 25.5t-33.5 9.5t-33.5 -9.5zM408.5 38q14.5 9 14.5 24q0 16 -14 24.5t-38 8.5t-38 -8.5t-14 -24.5q0 -15 14.5 -24t37.5 -9t37.5 9z" />
    <glyph glyph-name="seveneighths" unicode="&#x215e;" horiz-adv-x="458" 
d="M196 380v-30q-42 -33 -66.5 -84.5t-24.5 -109.5h-43q0 51 23 101t59 84h-138v39h190zM300 380h43l-241 -380h-43zM420.5 93q11.5 -14 11.5 -33q0 -29 -24.5 -46t-66.5 -17t-66.5 17t-24.5 46q0 19 11.5 33t31.5 22q-17 7 -26.5 20t-9.5 30q0 28 23 45t61 17t61 -17
t23 -45q0 -17 -9.5 -30t-26.5 -20q20 -8 31.5 -22zM307.5 186.5q-12.5 -9.5 -12.5 -25.5q0 -14 12.5 -22.5t33.5 -8.5t33.5 8.5t12.5 22.5q0 16 -12.5 25.5t-33.5 9.5t-33.5 -9.5zM378.5 38q14.5 9 14.5 24q0 16 -14 24.5t-38 8.5t-38 -8.5t-14 -24.5q0 -15 14.5 -24
t37.5 -9t37.5 9z" />
    <glyph glyph-name="arrowboth" unicode="&#x2194;" horiz-adv-x="400" 
d="M269 331l141 -141l-141 -141l-32 32l86 86h-246l86 -86l-32 -32l-141 141l141 141l32 -32l-86 -86h246l-86 86z" />
    <glyph glyph-name="arrowupdn" unicode="&#x2195;" horiz-adv-x="400" 
d="M223 67l86 86l32 -32l-141 -141l-141 141l32 32l86 -86v246l-86 -86l-32 32l141 141l141 -141l-32 -32l-86 86v-246z" />
    <glyph glyph-name="minus" unicode="&#x2212;" 
d="M45 212h270v-44h-270v44z" />
    <glyph glyph-name="approxequal" unicode="&#x2248;" 
d="M119 167q19 0 34 -6t32 -16t29 -15t27 -5q28 0 52 37l32 -28q-33 -53 -84 -53q-19 0 -34 6t-32 16t-29 15t-27 5q-28 0 -52 -37l-32 28q33 53 84 53zM119 299q19 0 34 -6t32 -16t29 -15t27 -5q28 0 52 37l32 -28q-33 -53 -84 -53q-19 0 -34 6t-32 16t-29 15t-27 5
q-28 0 -52 -37l-32 28q33 53 84 53z" />
    <glyph glyph-name="notequal" unicode="&#x2260;" 
d="M315 234h-89l-46 -88h135v-44h-158l-24 -47h-46l24 47h-66v44h89l46 88h-135v44h158l24 47h46l-24 -47h66v-44z" />
    <glyph glyph-name="lessequal" unicode="&#x2264;" 
d="M315 342v-47l-209 -83l209 -84v-50l-270 108v48zM45 0v44h270v-44h-270z" />
    <glyph glyph-name="greaterequal" unicode="&#x2265;" 
d="M45 342l270 -108v-48l-270 -108v47l209 84l-209 83v50zM45 44h270v-44h-270v44z" />
    <glyph glyph-name="K.ss01" horiz-adv-x="389" 
d="M361 48v-48h-26q-27 0 -42.5 16t-15.5 46v109h-165v-171h-52v380h52v-161h84l101 161h58l-105 -161h79v-151q0 -9 5.5 -14.5t14.5 -5.5h12z" />
    <glyph glyph-name="uni0136.ss01" horiz-adv-x="389" 
d="M361 48v-48h-26q-27 0 -42.5 16t-15.5 46v109h-165v-171h-52v380h52v-161h84l101 161h58l-105 -161h79v-151q0 -9 5.5 -14.5t14.5 -5.5h12zM235 -30v-37q0 -28 -13 -42t-35 -14h-8v27h8q19 0 20 22h-28v44h56z" />
    <glyph glyph-name="R.ss01" horiz-adv-x="389" 
d="M363 48v-48h-26q-27 0 -42.5 16t-15.5 46v89h-167v-151h-52v380h151q60 0 95.5 -30t35.5 -80q0 -31 -16 -54t-45 -35h50v-113q0 -9 5.5 -14.5t14.5 -5.5h12zM112 333v-136h94q84 0 84 68t-84 68h-94z" />
    <glyph glyph-name="Racute.ss01" horiz-adv-x="389" 
d="M363 48v-48h-26q-27 0 -42.5 16t-15.5 46v89h-167v-151h-52v380h151q60 0 95.5 -30t35.5 -80q0 -31 -16 -54t-45 -35h50v-113q0 -9 5.5 -14.5t14.5 -5.5h12zM112 333v-136h94q84 0 84 68t-84 68h-94zM196 480h65l-57 -70h-37z" />
    <glyph glyph-name="Rcaron.ss01" horiz-adv-x="389" 
d="M363 48v-48h-26q-27 0 -42.5 16t-15.5 46v89h-167v-151h-52v380h151q60 0 95.5 -30t35.5 -80q0 -31 -16 -54t-45 -35h50v-113q0 -9 5.5 -14.5t14.5 -5.5h12zM112 333v-136h94q84 0 84 68t-84 68h-94zM220 480h47l-57 -70h-54l-57 70h47l37 -38z" />
    <glyph glyph-name="uni0156.ss01" horiz-adv-x="389" 
d="M363 48v-48h-26q-27 0 -42.5 16t-15.5 46v89h-167v-151h-52v380h151q60 0 95.5 -30t35.5 -80q0 -31 -16 -54t-45 -35h50v-113q0 -9 5.5 -14.5t14.5 -5.5h12zM112 333v-136h94q84 0 84 68t-84 68h-94zM240 -30v-37q0 -28 -13 -42t-35 -14h-8v27h8q19 0 20 22h-28v44h56z
" />
    <glyph glyph-name="Y.ss01" horiz-adv-x="384" 
d="M362 380l-108 -294q-34 -91 -108 -91q-40 0 -64.5 24t-24.5 63q0 51 38 78h43l-126 220h60l121 -220h35l78 220h56zM181 53.5q13 12.5 23 38.5l9 25h-93q-13 -15 -13 -33q0 -20 11 -31.5t30 -11.5q20 0 33 12.5z" />
    <glyph glyph-name="Yacute.ss01" horiz-adv-x="384" 
d="M362 380l-108 -294q-34 -91 -108 -91q-40 0 -64.5 24t-24.5 63q0 51 38 78h43l-126 220h60l121 -220h35l78 220h56zM181 53.5q13 12.5 23 38.5l9 25h-93q-13 -15 -13 -33q0 -20 11 -31.5t30 -11.5q20 0 33 12.5zM199 480h65l-57 -70h-37z" />
    <glyph glyph-name="Ycircumflex.ss01" horiz-adv-x="384" 
d="M362 380l-108 -294q-34 -91 -108 -91q-40 0 -64.5 24t-24.5 63q0 51 38 78h43l-126 220h60l121 -220h35l78 220h56zM181 53.5q13 12.5 23 38.5l9 25h-93q-13 -15 -13 -33q0 -20 11 -31.5t30 -11.5q20 0 33 12.5zM270 410h-47l-37 38l-37 -38h-47l57 70h54z" />
    <glyph glyph-name="Ydieresis.ss01" horiz-adv-x="384" 
d="M362 380l-108 -294q-34 -91 -108 -91q-40 0 -64.5 24t-24.5 63q0 51 38 78h43l-126 220h60l121 -220h35l78 220h56zM181 53.5q13 12.5 23 38.5l9 25h-93q-13 -15 -13 -33q0 -20 11 -31.5t30 -11.5q20 0 33 12.5zM109 480h56v-56h-56v56zM205 480h56v-56h-56v56z" />
    <glyph glyph-name="Ygrave.ss01" horiz-adv-x="384" 
d="M362 380l-108 -294q-34 -91 -108 -91q-40 0 -64.5 24t-24.5 63q0 51 38 78h43l-126 220h60l121 -220h35l78 220h56zM181 53.5q13 12.5 23 38.5l9 25h-93q-13 -15 -13 -33q0 -20 11 -31.5t30 -11.5q20 0 33 12.5zM163 410l-57 70h65l29 -70h-37z" />
    <glyph glyph-name="K.ss02" horiz-adv-x="388" 
d="M314 0l-143 188l-59 -58v-130h-52v380h52v-190l190 190h65l-159 -156l170 -224h-64z" />
    <glyph glyph-name="uni0136.ss02" horiz-adv-x="388" 
d="M314 0l-143 188l-59 -58v-130h-52v380h52v-190l190 190h65l-159 -156l170 -224h-64zM235 -30v-37q0 -28 -13 -42t-35 -14h-8v27h8q19 0 20 22h-28v44h56z" />
    <glyph glyph-name="R.ss02" horiz-adv-x="384" 
d="M211 152h-100v-152h-51v380h152q59 0 94.5 -31t35.5 -83q0 -39 -20.5 -66.5t-56.5 -39.5l99 -160h-60zM111 197h94q84 0 84 68t-84 68h-94v-136z" />
    <glyph glyph-name="Racute.ss02" horiz-adv-x="384" 
d="M211 152h-100v-152h-51v380h152q59 0 94.5 -31t35.5 -83q0 -39 -20.5 -66.5t-56.5 -39.5l99 -160h-60zM111 197h94q84 0 84 68t-84 68h-94v-136zM195 480h65l-57 -70h-37z" />
    <glyph glyph-name="Rcaron.ss02" horiz-adv-x="384" 
d="M211 152h-100v-152h-51v380h152q59 0 94.5 -31t35.5 -83q0 -39 -20.5 -66.5t-56.5 -39.5l99 -160h-60zM111 197h94q84 0 84 68t-84 68h-94v-136zM219 480h47l-57 -70h-54l-57 70h47l37 -38z" />
    <glyph glyph-name="uni0156.ss02" horiz-adv-x="384" 
d="M211 152h-100v-152h-51v380h152q59 0 94.5 -31t35.5 -83q0 -39 -20.5 -66.5t-56.5 -39.5l99 -160h-60zM111 197h94q84 0 84 68t-84 68h-94v-136zM239 -30v-37q0 -28 -13 -42t-35 -14h-8v27h8q19 0 20 22h-28v44h56z" />
    <glyph glyph-name="Y.ss02" horiz-adv-x="362" 
d="M357 380l-150 -227v-153h-52v153l-150 227h60l117 -179l116 179h59z" />
    <glyph glyph-name="Yacute.ss02" horiz-adv-x="362" 
d="M357 380l-150 -227v-153h-52v153l-150 227h60l117 -179l116 179h59zM195 480h65l-57 -70h-37z" />
    <glyph glyph-name="Ycircumflex.ss02" horiz-adv-x="362" 
d="M357 380l-150 -227v-153h-52v153l-150 227h60l117 -179l116 179h59zM266 410h-47l-37 38l-37 -38h-47l57 70h54z" />
    <glyph glyph-name="Ydieresis.ss02" horiz-adv-x="362" 
d="M357 380l-150 -227v-153h-52v153l-150 227h60l117 -179l116 179h59zM105 480h56v-56h-56v56zM201 480h56v-56h-56v56z" />
    <glyph glyph-name="Ygrave.ss02" horiz-adv-x="362" 
d="M357 380l-150 -227v-153h-52v153l-150 227h60l117 -179l116 179h59zM159 410l-57 70h65l29 -70h-37z" />
    <glyph glyph-name="K.ss03" horiz-adv-x="389" 
d="M361 48v-48h-26q-27 0 -42.5 16t-15.5 46v109h-165v-171h-52v380h52v-161h84l101 161h58l-105 -161h79v-151q0 -9 5.5 -14.5t14.5 -5.5h12z" />
    <glyph glyph-name="uni0136.ss03" horiz-adv-x="389" 
d="M361 48v-48h-26q-27 0 -42.5 16t-15.5 46v109h-165v-171h-52v380h52v-161h84l101 161h58l-105 -161h79v-151q0 -9 5.5 -14.5t14.5 -5.5h12zM235 -30v-37q0 -28 -13 -42t-35 -14h-8v27h8q19 0 20 22h-28v44h56z" />
    <glyph glyph-name="R.ss03" horiz-adv-x="389" 
d="M363 48v-48h-26q-27 0 -42.5 16t-15.5 46v89h-167v-151h-52v380h151q60 0 95.5 -30t35.5 -80q0 -31 -16 -54t-45 -35h50v-113q0 -9 5.5 -14.5t14.5 -5.5h12zM112 333v-136h94q84 0 84 68t-84 68h-94z" />
    <glyph glyph-name="Racute.ss03" horiz-adv-x="389" 
d="M363 48v-48h-26q-27 0 -42.5 16t-15.5 46v89h-167v-151h-52v380h151q60 0 95.5 -30t35.5 -80q0 -31 -16 -54t-45 -35h50v-113q0 -9 5.5 -14.5t14.5 -5.5h12zM112 333v-136h94q84 0 84 68t-84 68h-94zM196 480h65l-57 -70h-37z" />
    <glyph glyph-name="Rcaron.ss03" horiz-adv-x="389" 
d="M363 48v-48h-26q-27 0 -42.5 16t-15.5 46v89h-167v-151h-52v380h151q60 0 95.5 -30t35.5 -80q0 -31 -16 -54t-45 -35h50v-113q0 -9 5.5 -14.5t14.5 -5.5h12zM112 333v-136h94q84 0 84 68t-84 68h-94zM220 480h47l-57 -70h-54l-57 70h47l37 -38z" />
    <glyph glyph-name="uni0156.ss03" horiz-adv-x="389" 
d="M363 48v-48h-26q-27 0 -42.5 16t-15.5 46v89h-167v-151h-52v380h151q60 0 95.5 -30t35.5 -80q0 -31 -16 -54t-45 -35h50v-113q0 -9 5.5 -14.5t14.5 -5.5h12zM112 333v-136h94q84 0 84 68t-84 68h-94zM240 -30v-37q0 -28 -13 -42t-35 -14h-8v27h8q19 0 20 22h-28v44h56z
" />
    <glyph glyph-name="Y.ss03" horiz-adv-x="384" 
d="M362 380l-108 -294q-34 -91 -108 -91q-40 0 -64.5 24t-24.5 63q0 51 38 78h43l-126 220h60l121 -220h35l78 220h56zM181 53.5q13 12.5 23 38.5l9 25h-93q-13 -15 -13 -33q0 -20 11 -31.5t30 -11.5q20 0 33 12.5z" />
    <glyph glyph-name="Yacute.ss03" horiz-adv-x="384" 
d="M362 380l-108 -294q-34 -91 -108 -91q-40 0 -64.5 24t-24.5 63q0 51 38 78h43l-126 220h60l121 -220h35l78 220h56zM181 53.5q13 12.5 23 38.5l9 25h-93q-13 -15 -13 -33q0 -20 11 -31.5t30 -11.5q20 0 33 12.5zM195 480h65l-57 -70h-37z" />
    <glyph glyph-name="Ycircumflex.ss03" horiz-adv-x="384" 
d="M362 380l-108 -294q-34 -91 -108 -91q-40 0 -64.5 24t-24.5 63q0 51 38 78h43l-126 220h60l121 -220h35l78 220h56zM181 53.5q13 12.5 23 38.5l9 25h-93q-13 -15 -13 -33q0 -20 11 -31.5t30 -11.5q20 0 33 12.5zM266 410h-47l-37 38l-37 -38h-47l57 70h54z" />
    <glyph glyph-name="Ydieresis.ss03" horiz-adv-x="384" 
d="M362 380l-108 -294q-34 -91 -108 -91q-40 0 -64.5 24t-24.5 63q0 51 38 78h43l-126 220h60l121 -220h35l78 220h56zM181 53.5q13 12.5 23 38.5l9 25h-93q-13 -15 -13 -33q0 -20 11 -31.5t30 -11.5q20 0 33 12.5zM105 480h56v-56h-56v56zM201 480h56v-56h-56v56z" />
    <glyph glyph-name="Ygrave.ss03" horiz-adv-x="384" 
d="M362 380l-108 -294q-34 -91 -108 -91q-40 0 -64.5 24t-24.5 63q0 51 38 78h43l-126 220h60l121 -220h35l78 220h56zM181 53.5q13 12.5 23 38.5l9 25h-93q-13 -15 -13 -33q0 -20 11 -31.5t30 -11.5q20 0 33 12.5zM159 410l-57 70h65l29 -70h-37z" />
    <glyph glyph-name="K.ss04" horiz-adv-x="389" 
d="M361 48v-48h-26q-27 0 -42.5 16t-15.5 46v65q0 20 -11 32t-30 12h-124v-171h-52v380h52v-161h100l88 161h55l-91 -166q32 -5 48.5 -27.5t16.5 -61.5v-57q0 -9 5.5 -14.5t14.5 -5.5h12z" />
    <glyph glyph-name="uni0136.ss04" horiz-adv-x="389" 
d="M361 48v-48h-26q-27 0 -42.5 16t-15.5 46v65q0 20 -11 32t-30 12h-124v-171h-52v380h52v-161h100l88 161h55l-91 -166q32 -5 48.5 -27.5t16.5 -61.5v-57q0 -9 5.5 -14.5t14.5 -5.5h12zM235 -30v-37q0 -28 -13 -42t-35 -14h-8v27h8q19 0 20 22h-28v44h56z" />
    <glyph glyph-name="R.ss04" horiz-adv-x="389" 
d="M364 48v-48h-26q-27 0 -42.5 16t-15.5 46v45q0 20 -11 32t-30 12h-127v-151h-52v380h151q60 0 95.5 -31t35.5 -84q0 -60 -52 -88q42 -17 42 -75v-34q0 -9 5.5 -14.5t14.5 -5.5h12zM112 333v-136h94q84 0 84 68t-84 68h-94z" />
    <glyph glyph-name="Racute.ss04" horiz-adv-x="389" 
d="M364 48v-48h-26q-27 0 -42.5 16t-15.5 46v45q0 20 -11 32t-30 12h-127v-151h-52v380h151q60 0 95.5 -31t35.5 -84q0 -60 -52 -88q42 -17 42 -75v-34q0 -9 5.5 -14.5t14.5 -5.5h12zM112 333v-136h94q84 0 84 68t-84 68h-94zM196 480h65l-57 -70h-37z" />
    <glyph glyph-name="Rcaron.ss04" horiz-adv-x="389" 
d="M364 48v-48h-26q-27 0 -42.5 16t-15.5 46v45q0 20 -11 32t-30 12h-127v-151h-52v380h151q60 0 95.5 -31t35.5 -84q0 -60 -52 -88q42 -17 42 -75v-34q0 -9 5.5 -14.5t14.5 -5.5h12zM112 333v-136h94q84 0 84 68t-84 68h-94zM220 480h47l-57 -70h-54l-57 70h47l37 -38z" />
    <glyph glyph-name="uni0156.ss04" horiz-adv-x="389" 
d="M364 48v-48h-26q-27 0 -42.5 16t-15.5 46v45q0 20 -11 32t-30 12h-127v-151h-52v380h151q60 0 95.5 -31t35.5 -84q0 -60 -52 -88q42 -17 42 -75v-34q0 -9 5.5 -14.5t14.5 -5.5h12zM112 333v-136h94q84 0 84 68t-84 68h-94zM240 -30v-37q0 -28 -13 -42t-35 -14h-8v27h8
q19 0 20 22h-28v44h56z" />
    <glyph glyph-name="K.ss05" horiz-adv-x="389" 
d="M361 48v-48h-26q-27 0 -42.5 16t-15.5 46v65q0 20 -11 32t-30 12h-124v-171h-52v380h52v-161h100l88 161h55l-91 -166q32 -5 48.5 -27.5t16.5 -61.5v-57q0 -9 5.5 -14.5t14.5 -5.5h12z" />
    <glyph glyph-name="uni0136.ss05" horiz-adv-x="389" 
d="M361 48v-48h-26q-27 0 -42.5 16t-15.5 46v65q0 20 -11 32t-30 12h-124v-171h-52v380h52v-161h100l88 161h55l-91 -166q32 -5 48.5 -27.5t16.5 -61.5v-57q0 -9 5.5 -14.5t14.5 -5.5h12zM235 -30v-37q0 -28 -13 -42t-35 -14h-8v27h8q19 0 20 22h-28v44h56z" />
    <glyph glyph-name="R.ss05" horiz-adv-x="389" 
d="M364 48v-48h-26q-27 0 -42.5 16t-15.5 46v45q0 20 -11 32t-30 12h-127v-151h-52v380h151q60 0 95.5 -31t35.5 -84q0 -60 -52 -88q42 -17 42 -75v-34q0 -9 5.5 -14.5t14.5 -5.5h12zM112 333v-136h94q84 0 84 68t-84 68h-94z" />
    <glyph glyph-name="Racute.ss05" horiz-adv-x="389" 
d="M364 48v-48h-26q-27 0 -42.5 16t-15.5 46v45q0 20 -11 32t-30 12h-127v-151h-52v380h151q60 0 95.5 -31t35.5 -84q0 -60 -52 -88q42 -17 42 -75v-34q0 -9 5.5 -14.5t14.5 -5.5h12zM112 333v-136h94q84 0 84 68t-84 68h-94zM196 480h65l-57 -70h-37z" />
    <glyph glyph-name="Rcaron.ss05" horiz-adv-x="389" 
d="M364 48v-48h-26q-27 0 -42.5 16t-15.5 46v45q0 20 -11 32t-30 12h-127v-151h-52v380h151q60 0 95.5 -31t35.5 -84q0 -60 -52 -88q42 -17 42 -75v-34q0 -9 5.5 -14.5t14.5 -5.5h12zM112 333v-136h94q84 0 84 68t-84 68h-94zM220 480h47l-57 -70h-54l-57 70h47l37 -38z" />
    <glyph glyph-name="uni0156.ss05" horiz-adv-x="389" 
d="M364 48v-48h-26q-27 0 -42.5 16t-15.5 46v45q0 20 -11 32t-30 12h-127v-151h-52v380h151q60 0 95.5 -31t35.5 -84q0 -60 -52 -88q42 -17 42 -75v-34q0 -9 5.5 -14.5t14.5 -5.5h12zM112 333v-136h94q84 0 84 68t-84 68h-94zM240 -30v-37q0 -28 -13 -42t-35 -14h-8v27h8
q19 0 20 22h-28v44h56z" />
    <glyph glyph-name="i.loclTRK" horiz-adv-x="160" 
d="M55 300h50v-300h-50v300zM52 400h56v-56h-56v56z" />
    <glyph glyph-name="k.ss01" horiz-adv-x="329" 
d="M303 44v-44h-24q-24 0 -37.5 13.5t-13.5 37.5v79h-128v-130h-50v400h50v-224h71l72 124h54l-76 -128h56v-113q0 -7 4 -11t11 -4h11z" />
    <glyph glyph-name="uni0137.ss01" horiz-adv-x="329" 
d="M303 44v-44h-24q-24 0 -37.5 13.5t-13.5 37.5v79h-128v-130h-50v400h50v-224h71l72 124h54l-76 -128h56v-113q0 -7 4 -11t11 -4h11zM189 -30v-37q0 -28 -13 -42t-35 -14h-8v27h8q19 0 20 22h-28v44h56z" />
    <glyph glyph-name="y.ss01" horiz-adv-x="321" 
d="M313 300l-102 -300q-19 -55 -44 -80t-60 -25t-56 22t-21 59q0 40 30 68h43l-100 256h55l92 -256h27l83 256h53zM133.5 -51q11.5 11 18.5 30l8 21h-76q-9 -12 -9 -25q0 -16 9.5 -26.5t24.5 -10.5q13 0 24.5 11z" />
    <glyph glyph-name="yacute.ss01" horiz-adv-x="321" 
d="M313 300l-102 -300q-19 -55 -44 -80t-60 -25t-56 22t-21 59q0 40 30 68h43l-100 256h55l92 -256h27l83 256h53zM133.5 -51q11.5 11 18.5 30l8 21h-76q-9 -12 -9 -25q0 -16 9.5 -26.5t24.5 -10.5q13 0 24.5 11zM176 400h65l-57 -70h-37z" />
    <glyph glyph-name="ycircumflex.ss01" horiz-adv-x="321" 
d="M313 300l-102 -300q-19 -55 -44 -80t-60 -25t-56 22t-21 59q0 40 30 68h43l-100 256h55l92 -256h27l83 256h53zM133.5 -51q11.5 11 18.5 30l8 21h-76q-9 -12 -9 -25q0 -16 9.5 -26.5t24.5 -10.5q13 0 24.5 11zM247 330h-47l-37 38l-37 -38h-47l57 70h54z" />
    <glyph glyph-name="ydieresis.ss01" horiz-adv-x="321" 
d="M313 300l-102 -300q-19 -55 -44 -80t-60 -25t-56 22t-21 59q0 40 30 68h43l-100 256h55l92 -256h27l83 256h53zM133.5 -51q11.5 11 18.5 30l8 21h-76q-9 -12 -9 -25q0 -16 9.5 -26.5t24.5 -10.5q13 0 24.5 11zM86 400h56v-56h-56v56zM182 400h56v-56h-56v56z" />
    <glyph glyph-name="ygrave.ss01" horiz-adv-x="321" 
d="M313 300l-102 -300q-19 -55 -44 -80t-60 -25t-56 22t-21 59q0 40 30 68h43l-100 256h55l92 -256h27l83 256h53zM133.5 -51q11.5 11 18.5 30l8 21h-76q-9 -12 -9 -25q0 -16 9.5 -26.5t24.5 -10.5q13 0 24.5 11zM140 330l-57 70h65l29 -70h-37z" />
    <glyph glyph-name="k.ss02" horiz-adv-x="316" 
d="M254 0l-109 145l-45 -42v-103h-50v400h50v-239l146 139h64l-129 -121l135 -179h-62z" />
    <glyph glyph-name="uni0137.ss02" horiz-adv-x="316" 
d="M254 0l-109 145l-45 -42v-103h-50v400h50v-239l146 139h64l-129 -121l135 -179h-62zM195 -30v-37q0 -28 -13 -42t-35 -14h-8v27h8q19 0 20 22h-28v44h56z" />
    <glyph glyph-name="k.ss03" horiz-adv-x="329" 
d="M303 44v-44h-24q-24 0 -37.5 13.5t-13.5 37.5v79h-128v-130h-50v400h50v-224h71l72 124h54l-76 -128h56v-113q0 -7 4 -11t11 -4h11z" />
    <glyph glyph-name="uni0137.ss03" horiz-adv-x="329" 
d="M303 44v-44h-24q-24 0 -37.5 13.5t-13.5 37.5v79h-128v-130h-50v400h50v-224h71l72 124h54l-76 -128h56v-113q0 -7 4 -11t11 -4h11zM189 -30v-37q0 -28 -13 -42t-35 -14h-8v27h8q19 0 20 22h-28v44h56z" />
    <glyph glyph-name="y.ss03" horiz-adv-x="321" 
d="M313 300l-102 -300q-19 -55 -44 -80t-60 -25t-56 22t-21 59q0 40 30 68h43l-100 256h55l92 -256h27l83 256h53zM133.5 -51q11.5 11 18.5 30l8 21h-76q-9 -12 -9 -25q0 -16 9.5 -26.5t24.5 -10.5q13 0 24.5 11z" />
    <glyph glyph-name="yacute.ss03" horiz-adv-x="321" 
d="M313 300l-102 -300q-19 -55 -44 -80t-60 -25t-56 22t-21 59q0 40 30 68h43l-100 256h55l92 -256h27l83 256h53zM133.5 -51q11.5 11 18.5 30l8 21h-76q-9 -12 -9 -25q0 -16 9.5 -26.5t24.5 -10.5q13 0 24.5 11zM176 400h65l-57 -70h-37z" />
    <glyph glyph-name="ycircumflex.ss03" horiz-adv-x="321" 
d="M313 300l-102 -300q-19 -55 -44 -80t-60 -25t-56 22t-21 59q0 40 30 68h43l-100 256h55l92 -256h27l83 256h53zM133.5 -51q11.5 11 18.5 30l8 21h-76q-9 -12 -9 -25q0 -16 9.5 -26.5t24.5 -10.5q13 0 24.5 11zM247 330h-47l-37 38l-37 -38h-47l57 70h54z" />
    <glyph glyph-name="ydieresis.ss03" horiz-adv-x="321" 
d="M313 300l-102 -300q-19 -55 -44 -80t-60 -25t-56 22t-21 59q0 40 30 68h43l-100 256h55l92 -256h27l83 256h53zM133.5 -51q11.5 11 18.5 30l8 21h-76q-9 -12 -9 -25q0 -16 9.5 -26.5t24.5 -10.5q13 0 24.5 11zM86 400h56v-56h-56v56zM182 400h56v-56h-56v56z" />
    <glyph glyph-name="ygrave.ss03" horiz-adv-x="321" 
d="M313 300l-102 -300q-19 -55 -44 -80t-60 -25t-56 22t-21 59q0 40 30 68h43l-100 256h55l92 -256h27l83 256h53zM133.5 -51q11.5 11 18.5 30l8 21h-76q-9 -12 -9 -25q0 -16 9.5 -26.5t24.5 -10.5q13 0 24.5 11zM140 330l-57 70h65l29 -70h-37z" />
    <glyph glyph-name="k.ss04" horiz-adv-x="329" 
d="M301 44v-44h-24q-24 0 -37.5 13.5t-13.5 37.5v43q0 17 -9 26t-26 9h-91v-129h-50v400h50v-227h72l71 127h54l-76 -132q54 -9 54 -72v-37q0 -7 4 -11t11 -4h11z" />
    <glyph glyph-name="uni0137.ss04" horiz-adv-x="329" 
d="M301 44v-44h-24q-24 0 -37.5 13.5t-13.5 37.5v43q0 17 -9 26t-26 9h-91v-129h-50v400h50v-227h72l71 127h54l-76 -132q54 -9 54 -72v-37q0 -7 4 -11t11 -4h11zM201 -30v-37q0 -28 -13 -42t-35 -14h-8v27h8q19 0 20 22h-28v44h56z" />
    <glyph glyph-name="k.ss05" horiz-adv-x="329" 
d="M301 44v-44h-24q-24 0 -37.5 13.5t-13.5 37.5v43q0 17 -9 26t-26 9h-91v-129h-50v400h50v-227h72l71 127h54l-76 -132q54 -9 54 -72v-37q0 -7 4 -11t11 -4h11z" />
    <glyph glyph-name="uni0137.ss05" horiz-adv-x="329" 
d="M301 44v-44h-24q-24 0 -37.5 13.5t-13.5 37.5v43q0 17 -9 26t-26 9h-91v-129h-50v400h50v-227h72l71 127h54l-76 -132q54 -9 54 -72v-37q0 -7 4 -11t11 -4h11zM201 -30v-37q0 -28 -13 -42t-35 -14h-8v27h8q19 0 20 22h-28v44h56z" />
    <glyph glyph-name="f.ss06" horiz-adv-x="227" 
d="M128 319v-19h87v-43h-87v-257h-50v257h-63v43h63v13q0 87 87 87h50v-43h-51q-36 0 -36 -38z" />
    <glyph glyph-name="t.ss06" horiz-adv-x="248" 
d="M124 257v-176q0 -38 36 -38h59v-43h-58q-87 0 -87 87v170h-59v43h59l8 80h42v-80h95v-43h-95z" />
    <glyph glyph-name="tbar.ss06" horiz-adv-x="248" 
d="M124 257v-82h77v-44h-77v-50q0 -38 36 -38h59v-43h-58q-87 0 -87 87v44h-57v44h57v82h-59v43h59l8 80h42v-80h95v-43h-95z" />
    <glyph glyph-name="tcaron.ss06" horiz-adv-x="248" 
d="M124 257v-176q0 -38 36 -38h59v-43h-58q-87 0 -87 87v170h-59v43h59l8 80h42v-80h95v-43h-95zM164 400h54l-20 -80h-34v80z" />
    <glyph glyph-name="uni0163.ss06" horiz-adv-x="248" 
d="M124 257v-176q0 -38 36 -38h59v-43h-58q-87 0 -87 87v170h-59v43h59l8 80h42v-80h95v-43h-95zM206.5 -34q13.5 -11 13.5 -31t-19 -32.5t-49 -12.5q-17 0 -34 5.5t-30 15.5l18 27q25 -17 47 -17q13 0 20 4t7 12q0 7 -5.5 10.5t-14.5 3.5q-11 0 -21 -5l-27 15l24 39h37
l-15 -24q5 1 13 1q22 0 35.5 -11z" />
    <glyph glyph-name="uni021B.ss06" horiz-adv-x="248" 
d="M124 257v-176q0 -38 36 -38h59v-43h-58q-87 0 -87 87v170h-59v43h59l8 80h42v-80h95v-43h-95zM176 -30v-37q0 -28 -13 -42t-35 -14h-8v27h8q19 0 20 22h-28v44h56z" />
    <glyph glyph-name="y.ss06" horiz-adv-x="321" 
d="M311 300l-137 -353q-18 -47 -69 -47h-57v44h52q21 0 29 20l12 33l-126 303h55l97 -242l90 242h54z" />
    <glyph glyph-name="yacute.ss06" horiz-adv-x="321" 
d="M311 300l-137 -353q-18 -47 -69 -47h-57v44h52q21 0 29 20l12 33l-126 303h55l97 -242l90 242h54zM176 400h65l-57 -70h-37z" />
    <glyph glyph-name="ycircumflex.ss06" horiz-adv-x="321" 
d="M311 300l-137 -353q-18 -47 -69 -47h-57v44h52q21 0 29 20l12 33l-126 303h55l97 -242l90 242h54zM247 330h-47l-37 38l-37 -38h-47l57 70h54z" />
    <glyph glyph-name="ydieresis.ss06" horiz-adv-x="321" 
d="M311 300l-137 -353q-18 -47 -69 -47h-57v44h52q21 0 29 20l12 33l-126 303h55l97 -242l90 242h54zM86 400h56v-56h-56v56zM182 400h56v-56h-56v56z" />
    <glyph glyph-name="ygrave.ss06" horiz-adv-x="321" 
d="M311 300l-137 -353q-18 -47 -69 -47h-57v44h52q21 0 29 20l12 33l-126 303h55l97 -242l90 242h54zM140 330l-57 70h65l29 -70h-37z" />
    <glyph glyph-name="uni0416.ss01" horiz-adv-x="546" 
d="M518 48v-48h-26q-27 0 -42.5 16t-15.5 46v109h-135v-171h-52v171h-135v-109q0 -30 -15.5 -46t-42.5 -16h-26v48h12q9 0 14.5 5.5t5.5 14.5v151h79l-105 161h56l103 -161h54v161h52v-161h54l103 161h56l-105 -161h79v-151q0 -9 5.5 -14.5t14.5 -5.5h12z" />
    <glyph glyph-name="uni041A.ss01" horiz-adv-x="389" 
d="M361 48v-48h-26q-27 0 -42.5 16t-15.5 46v109h-165v-171h-52v380h52v-161h84l101 161h58l-105 -161h79v-151q0 -9 5.5 -14.5t14.5 -5.5h12z" />
    <glyph glyph-name="uni0423.ss01" horiz-adv-x="384" 
d="M362 380l-108 -294q-34 -91 -108 -91q-40 0 -64.5 24t-24.5 63q0 51 38 78h43l-126 220h60l121 -220h35l78 220h56zM181 53.5q13 12.5 23 38.5l9 25h-93q-13 -15 -13 -33q0 -20 11 -31.5t30 -11.5q20 0 33 12.5z" />
    <glyph glyph-name="uni040E.ss01" horiz-adv-x="384" 
d="M362 380l-108 -294q-34 -91 -108 -91q-40 0 -64.5 24t-24.5 63q0 51 38 78h43l-126 220h60l121 -220h35l78 220h56zM181 53.5q13 12.5 23 38.5l9 25h-93q-13 -15 -13 -33q0 -20 11 -31.5t30 -11.5q20 0 33 12.5zM125.5 426q-22.5 18 -26.5 51l40 8q1 -20 13.5 -31
t32.5 -11t32.5 11t13.5 31l40 -8q-4 -33 -26.5 -51t-59.5 -18t-59.5 18z" />
    <glyph glyph-name="uni042F.ss01" horiz-adv-x="389" 
d="M329 0h-52v151h-167v-89q0 -30 -15.5 -46t-42.5 -16h-26v48h12q9 0 14.5 5.5t5.5 14.5v113h50q-29 12 -45 35t-16 54q0 50 35.5 80t95.5 30h151v-380zM99 265q0 -68 84 -68h94v136h-94q-84 0 -84 -68z" />
    <glyph glyph-name="uni0416.ss02" horiz-adv-x="566" 
d="M493 0l-128 190l-56 -56v-134h-52v134l-56 56l-128 -190h-63l154 227l-152 153h65l180 -184v184h52v-184l180 184h65l-152 -153l154 -227h-63z" />
    <glyph glyph-name="uni041A.ss02" horiz-adv-x="388" 
d="M314 0l-143 188l-59 -58v-130h-52v380h52v-190l190 190h65l-159 -156l170 -224h-64z" />
    <glyph glyph-name="uni042F.ss02" horiz-adv-x="385" 
d="M325 0h-52v152h-100l-93 -152h-60l99 160q-36 12 -56.5 39.5t-20.5 66.5q0 52 35.5 83t94.5 31h153v-380zM273 197v136h-94q-84 0 -84 -68t84 -68h94z" />
    <glyph glyph-name="uni0416.ss03" horiz-adv-x="546" 
d="M518 48v-48h-26q-27 0 -42.5 16t-15.5 46v109h-135v-171h-52v171h-135v-109q0 -30 -15.5 -46t-42.5 -16h-26v48h12q9 0 14.5 5.5t5.5 14.5v151h79l-105 161h56l103 -161h54v161h52v-161h54l103 161h56l-105 -161h79v-151q0 -9 5.5 -14.5t14.5 -5.5h12z" />
    <glyph glyph-name="uni041A.ss03" horiz-adv-x="389" 
d="M361 48v-48h-26q-27 0 -42.5 16t-15.5 46v109h-165v-171h-52v380h52v-161h84l101 161h58l-105 -161h79v-151q0 -9 5.5 -14.5t14.5 -5.5h12z" />
    <glyph glyph-name="uni0423.ss03" horiz-adv-x="384" 
d="M362 380l-108 -294q-34 -91 -108 -91q-40 0 -64.5 24t-24.5 63q0 51 38 78h43l-126 220h60l121 -220h35l78 220h56zM181 53.5q13 12.5 23 38.5l9 25h-93q-13 -15 -13 -33q0 -20 11 -31.5t30 -11.5q20 0 33 12.5z" />
    <glyph glyph-name="uni040E.ss03" horiz-adv-x="384" 
d="M362 380l-108 -294q-34 -91 -108 -91q-40 0 -64.5 24t-24.5 63q0 51 38 78h43l-126 220h60l121 -220h35l78 220h56zM181 53.5q13 12.5 23 38.5l9 25h-93q-13 -15 -13 -33q0 -20 11 -31.5t30 -11.5q20 0 33 12.5zM125.5 426q-22.5 18 -26.5 51l40 8q1 -20 13.5 -31
t32.5 -11t32.5 11t13.5 31l40 -8q-4 -33 -26.5 -51t-59.5 -18t-59.5 18z" />
    <glyph glyph-name="uni042F.ss03" horiz-adv-x="389" 
d="M329 0h-52v151h-167v-89q0 -30 -15.5 -46t-42.5 -16h-26v48h12q9 0 14.5 5.5t5.5 14.5v113h50q-29 12 -45 35t-16 54q0 50 35.5 80t95.5 30h151v-380zM99 265q0 -68 84 -68h94v136h-94q-84 0 -84 -68z" />
    <glyph glyph-name="uni0416.ss04" horiz-adv-x="550" 
d="M522 48v-48h-26q-27 0 -42.5 16t-15.5 46v64q0 20 -11 32t-30 12h-96v-170h-52v170h-96q-19 0 -30 -12t-11 -32v-64q0 -30 -15.5 -46t-42.5 -16h-26v48h12q9 0 14.5 5.5t5.5 14.5v56q0 40 17.5 62.5t49.5 26.5l-91 167h57l86 -162h70v162h52v-162h70l86 162h57l-91 -167
q32 -4 49.5 -26.5t17.5 -62.5v-56q0 -9 5.5 -14.5t14.5 -5.5h12z" />
    <glyph glyph-name="uni041A.ss04" horiz-adv-x="389" 
d="M361 48v-48h-26q-27 0 -42.5 16t-15.5 46v65q0 20 -11 32t-30 12h-124v-171h-52v380h52v-161h100l88 161h55l-91 -166q32 -5 48.5 -27.5t16.5 -61.5v-57q0 -9 5.5 -14.5t14.5 -5.5h12z" />
    <glyph glyph-name="uni042F.ss04" horiz-adv-x="389" 
d="M329 0h-52v151h-127q-19 0 -30 -12t-11 -32v-45q0 -30 -15.5 -46t-42.5 -16h-26v48h12q9 0 14.5 5.5t5.5 14.5v34q0 58 42 75q-52 28 -52 88q0 53 35.5 84t95.5 31h151v-380zM99 265q0 -68 84 -68h94v136h-94q-84 0 -84 -68z" />
    <glyph glyph-name="uni0416.ss05" horiz-adv-x="550" 
d="M522 48v-48h-26q-27 0 -42.5 16t-15.5 46v64q0 20 -11 32t-30 12h-96v-170h-52v170h-96q-19 0 -30 -12t-11 -32v-64q0 -30 -15.5 -46t-42.5 -16h-26v48h12q9 0 14.5 5.5t5.5 14.5v56q0 40 17.5 62.5t49.5 26.5l-91 167h57l86 -162h70v162h52v-162h70l86 162h57l-91 -167
q32 -4 49.5 -26.5t17.5 -62.5v-56q0 -9 5.5 -14.5t14.5 -5.5h12z" />
    <glyph glyph-name="uni041A.ss05" horiz-adv-x="389" 
d="M361 48v-48h-26q-27 0 -42.5 16t-15.5 46v65q0 20 -11 32t-30 12h-124v-171h-52v380h52v-161h100l88 161h55l-91 -166q32 -5 48.5 -27.5t16.5 -61.5v-57q0 -9 5.5 -14.5t14.5 -5.5h12z" />
    <glyph glyph-name="uni042F.ss05" horiz-adv-x="389" 
d="M329 0h-52v151h-127q-19 0 -30 -12t-11 -32v-45q0 -30 -15.5 -46t-42.5 -16h-26v48h12q9 0 14.5 5.5t5.5 14.5v34q0 58 42 75q-52 28 -52 88q0 53 35.5 84t95.5 31h151v-380zM99 265q0 -68 84 -68h94v136h-94q-84 0 -84 -68z" />
    <glyph glyph-name="uni0423.ss06" horiz-adv-x="384" 
d="M376 380l-146 -327q-14 -31 -33.5 -42t-47.5 -11h-68v48h66q13 0 20.5 5.5t14.5 20.5v1l-165 305h59l136 -259l110 259h54z" />
    <glyph glyph-name="uni040E.ss06" horiz-adv-x="384" 
d="M376 380l-146 -327q-14 -31 -33.5 -42t-47.5 -11h-68v48h66q13 0 20.5 5.5t14.5 20.5v1l-165 305h59l136 -259l110 259h54zM131.5 426q-22.5 18 -26.5 51l40 8q1 -20 13.5 -31t32.5 -11t32.5 11t13.5 31l40 -8q-4 -33 -26.5 -51t-59.5 -18t-59.5 18z" />
    <glyph glyph-name="uni041D.ss07" horiz-adv-x="430" 
d="M321 380h49v-380h-51l-210 299v-299h-49v380h52l209 -297v297z" />
    <glyph glyph-name="uni0410.stress" horiz-adv-x="390" 
d="M327 0l-38 95h-189l-38 -95h-54l156 380h62l156 -380h-55zM118 141h152l-76 190zM209 480h65l-57 -70h-37z" />
    <glyph glyph-name="uni0415.stress" horiz-adv-x="340" 
d="M112 47h208v-47h-260v380h255v-47h-203v-115h158v-46h-158v-125zM199 480h65l-57 -70h-37z" />
    <glyph glyph-name="uni0401.stress" horiz-adv-x="340" 
d="M112 47h208v-47h-260v380h255v-47h-203v-115h158v-46h-158v-125zM237 494l-57 -70h-37l29 70h65zM82 480h56v-56h-56v56zM232 480h56v-56h-56v56z" />
    <glyph glyph-name="uni0418.stress" horiz-adv-x="430" 
d="M318 380h52v-380h-52v302l-207 -302h-51v380h52v-300zM229 480h65l-57 -70h-37z" />
    <glyph glyph-name="uni041E.stress" horiz-adv-x="420" 
d="M79 48q-49 53 -49 142q0 57 23 101.5t64 69t93 24.5q82 0 131 -53t49 -142q0 -57 -23 -101.5t-64 -69t-93 -24.5q-82 0 -131 53zM302.5 81.5q34.5 40.5 34.5 108.5t-34.5 108.5t-92.5 40.5t-92.5 -40.5t-34.5 -108.5t34.5 -108.5t92.5 -40.5t92.5 40.5zM224 480h65
l-57 -70h-37z" />
    <glyph glyph-name="uni0423.stress" horiz-adv-x="384" 
d="M369 380l-131 -313q-29 -72 -89 -72q-35 0 -56 22t-23 59l46 11q3 -47 34 -47q27 0 37 25l-174 315h60l137 -262l103 262h56zM205 480h65l-57 -70h-37z" />
    <glyph glyph-name="uni042B.stress" horiz-adv-x="527" 
d="M314.5 199q35.5 -31 35.5 -84t-35.5 -84t-95.5 -31h-159v380h52v-150h107q60 0 95.5 -31zM297 115q0 68 -84 68h-101v-136h101q84 0 84 68zM415 380h52v-380h-52v380zM278 480h65l-57 -70h-37z" />
    <glyph glyph-name="uni0404.stress" horiz-adv-x="385" 
d="M277 62q28 21 40 62l48 -17q-17 -52 -58.5 -82t-98.5 -30q-81 0 -129.5 53t-48.5 142q0 57 22.5 101.5t63 69t92.5 24.5q58 0 99 -29t58 -83l-48 -17q-12 41 -40 62t-69 21q-50 0 -84 -33t-41 -88h162v-46h-163q5 -61 38.5 -96t87.5 -35q41 0 69 21zM222 480h65l-57 -70
h-37z" />
    <glyph glyph-name="uni042D.stress" horiz-adv-x="380" 
d="M301.5 332q48.5 -53 48.5 -142q0 -57 -22.5 -101.5t-63 -69t-92.5 -24.5q-57 0 -98.5 30t-58.5 82l48 17q12 -41 40 -62t69 -21q53 0 87.5 35.5t38.5 95.5h-163v46h162q-7 56 -40 88.5t-85 32.5q-41 0 -69 -21t-40 -62l-48 17q17 53 59 82.5t98 29.5q81 0 129.5 -53z
M186 480h65l-57 -70h-37z" />
    <glyph glyph-name="uni0406.stress" horiz-adv-x="172" 
d="M60 380h52v-380h-52v380zM100 480h65l-57 -70h-37z" />
    <glyph glyph-name="uni0407.stress" horiz-adv-x="172" 
d="M60 380h52v-380h-52v380zM138 494l-57 -70h-37l29 70h65zM-17 480h56v-56h-56v56zM133 480h56v-56h-56v56z" />
    <glyph glyph-name="uni042E.stress" horiz-adv-x="570" 
d="M492 332q48 -53 48 -142q0 -57 -22 -101.5t-62 -69t-91 -24.5q-75 0 -122 48t-52 128h-79v-171h-52v380h52v-161h80q8 75 55.5 120.5t117.5 45.5q79 0 127 -53zM453.5 81.5q33.5 40.5 33.5 108.5t-33.5 108.5t-88.5 40.5t-88.5 -40.5t-33.5 -108.5t33.5 -108.5
t88.5 -40.5t88.5 40.5zM272 480h65l-57 -70h-37z" />
    <glyph glyph-name="uni042F.stress" horiz-adv-x="385" 
d="M325 0h-52v152h-100l-93 -152h-60l99 160q-36 12 -56.5 39.5t-20.5 66.5q0 52 35.5 83t94.5 31h153v-380zM273 197v136h-94q-84 0 -84 -68t84 -68h94zM222 480h65l-57 -70h-37z" />
    <glyph glyph-name="uni0423.ss03.stress" horiz-adv-x="384" 
d="M362 380l-108 -294q-34 -91 -108 -91q-40 0 -64.5 24t-24.5 63q0 51 38 78h43l-126 220h60l121 -220h35l78 220h56zM181 53.5q13 12.5 23 38.5l9 25h-93q-13 -15 -13 -33q0 -20 11 -31.5t30 -11.5q20 0 33 12.5zM199 480h65l-57 -70h-37z" />
    <glyph glyph-name="uni042F.ss03.stress" horiz-adv-x="389" 
d="M329 0h-52v151h-167v-89q0 -30 -15.5 -46t-42.5 -16h-26v48h12q9 0 14.5 5.5t5.5 14.5v113h50q-29 12 -45 35t-16 54q0 50 35.5 80t95.5 30h151v-380zM99 265q0 -68 84 -68h94v136h-94q-84 0 -84 -68zM212 480h65l-57 -70h-37z" />
    <glyph glyph-name="uni042F.ss04.stress" horiz-adv-x="389" 
d="M329 0h-52v151h-127q-19 0 -30 -12t-11 -32v-45q0 -30 -15.5 -46t-42.5 -16h-26v48h12q9 0 14.5 5.5t5.5 14.5v34q0 58 42 75q-52 28 -52 88q0 53 35.5 84t95.5 31h151v-380zM99 265q0 -68 84 -68h94v136h-94q-84 0 -84 -68zM217 480h65l-57 -70h-37z" />
    <glyph glyph-name="uni0423.ss06.stress" horiz-adv-x="384" 
d="M376 380l-146 -327q-14 -31 -33.5 -42t-47.5 -11h-68v48h66q13 0 20.5 5.5t14.5 20.5v1l-165 305h59l136 -259l110 259h54zM205 480h65l-57 -70h-37z" />
    <glyph glyph-name="uni0436.ss01" horiz-adv-x="468" 
d="M442 44v-44h-24q-24 0 -37.5 13.5t-13.5 37.5v79h-108v-130h-50v130h-108v-79q0 -24 -13.5 -37.5t-37.5 -13.5h-24v44h11q7 0 11 4t4 11v113h56l-76 128h54l72 -125h51v225h50v-225h51l72 125h54l-76 -128h56v-113q0 -7 4 -11t11 -4h11z" />
    <glyph glyph-name="uni043A.ss01" horiz-adv-x="329" 
d="M303 44v-44h-24q-24 0 -37.5 13.5t-13.5 37.5v79h-128v-130h-50v400h50v-224h71l72 124h54l-76 -128h56v-113q0 -7 4 -11t11 -4h11z" />
    <glyph glyph-name="uni0443.ss01" horiz-adv-x="321" 
d="M313 300l-102 -300q-19 -55 -44 -80t-60 -25t-56 22t-21 59q0 40 30 68h43l-100 256h55l92 -256h27l83 256h53zM133.5 -51q11.5 11 18.5 30l8 21h-76q-9 -12 -9 -25q0 -16 9.5 -26.5t24.5 -10.5q13 0 24.5 11z" />
    <glyph glyph-name="uni045E.ss01" horiz-adv-x="321" 
d="M313 300l-102 -300q-19 -55 -44 -80t-60 -25t-56 22t-21 59q0 40 30 68h43l-100 256h55l92 -256h27l83 256h53zM133.5 -51q11.5 11 18.5 30l8 21h-76q-9 -12 -9 -25q0 -16 9.5 -26.5t24.5 -10.5q13 0 24.5 11zM102.5 346q-22.5 18 -26.5 51l40 8q1 -20 13.5 -31t32.5 -11
t32.5 11t13.5 31l40 -8q-4 -33 -26.5 -51t-59.5 -18t-59.5 18z" />
    <glyph glyph-name="uni044F.ss01" horiz-adv-x="330" 
d="M280 0h-50v115h-129v-64q0 -24 -13.5 -37.5t-37.5 -13.5h-24v44h11q7 0 11 4t4 11v80h47q-27 10 -42 29t-15 44q0 39 28.5 63.5t75.5 24.5h134v-300zM108 244.5q-16 -13.5 -16 -36.5t18.5 -37t47.5 -14h72v101h-78q-28 0 -44 -13.5z" />
    <glyph glyph-name="uni0436.ss02" horiz-adv-x="472" 
d="M405 0l-101 146l-43 -42v-104h-50v104l-43 43l-101 -147h-62l128 181l-122 119h64l136 -137v237h50v-237l136 137h64l-122 -119l128 -181h-62z" />
    <glyph glyph-name="uni043A.ss02" horiz-adv-x="316" 
d="M254 0l-109 145l-45 -42v-103h-50v400h50v-239l146 139h64l-129 -121l135 -179h-62z" />
    <glyph glyph-name="uni044F.ss02" horiz-adv-x="319" 
d="M269 0h-50v118h-73l-77 -118h-57l82 125q-29 9 -45 30.5t-16 50.5q0 42 29 68t77 26h130v-300zM219 157v100h-76q-28 0 -44 -13t-16 -36q0 -24 16 -37.5t44 -13.5h76z" />
    <glyph glyph-name="uni0436.ss03" horiz-adv-x="468" 
d="M442 44v-44h-24q-24 0 -37.5 13.5t-13.5 37.5v79h-108v-130h-50v130h-108v-79q0 -24 -13.5 -37.5t-37.5 -13.5h-24v44h11q7 0 11 4t4 11v113h56l-76 128h54l72 -125h51v125h50v-125h51l72 125h54l-76 -128h56v-113q0 -7 4 -11t11 -4h11z" />
    <glyph glyph-name="uni043A.ss03" horiz-adv-x="329" 
d="M303 44v-44h-24q-24 0 -37.5 13.5t-13.5 37.5v79h-128v-130h-50v300h50v-124h71l72 124h54l-76 -128h56v-113q0 -7 4 -11t11 -4h11z" />
    <glyph glyph-name="uni0443.ss03" horiz-adv-x="321" 
d="M313 300l-102 -300q-19 -55 -44 -80t-60 -25t-56 22t-21 59q0 40 30 68h43l-100 256h55l92 -256h27l83 256h53zM133.5 -51q11.5 11 18.5 30l8 21h-76q-9 -12 -9 -25q0 -16 9.5 -26.5t24.5 -10.5q13 0 24.5 11z" />
    <glyph glyph-name="uni045E.ss03" horiz-adv-x="321" 
d="M313 300l-102 -300q-19 -55 -44 -80t-60 -25t-56 22t-21 59q0 40 30 68h43l-100 256h55l92 -256h27l83 256h53zM133.5 -51q11.5 11 18.5 30l8 21h-76q-9 -12 -9 -25q0 -16 9.5 -26.5t24.5 -10.5q13 0 24.5 11zM102.5 346q-22.5 18 -26.5 51l40 8q1 -20 13.5 -31t32.5 -11
t32.5 11t13.5 31l40 -8q-4 -33 -26.5 -51t-59.5 -18t-59.5 18z" />
    <glyph glyph-name="uni044F.ss03" horiz-adv-x="330" 
d="M280 0h-50v115h-129v-64q0 -24 -13.5 -37.5t-37.5 -13.5h-24v44h11q7 0 11 4t4 11v80h47q-27 10 -42 29t-15 44q0 39 28.5 63.5t75.5 24.5h134v-300zM108 244.5q-16 -13.5 -16 -36.5t18.5 -37t47.5 -14h72v101h-78q-28 0 -44 -13.5z" />
    <glyph glyph-name="uni0436.ss04" horiz-adv-x="474" 
d="M446 44v-44h-23q-24 0 -37.5 13.5t-13.5 37.5v43q0 17 -9 26t-26 9h-75v-129h-50v129h-75q-16 0 -25.5 -9t-9.5 -26v-43q0 -24 -13.5 -37.5t-37.5 -13.5h-23v44h11q7 0 11 4t4 11v37q0 63 54 72l-76 132h54l68 -127h58v227h50v-227h58l68 127h54l-76 -132q54 -9 54 -72
v-37q0 -7 4 -11t11 -4h11z" />
    <glyph glyph-name="uni043A.ss04" horiz-adv-x="329" 
d="M301 44v-44h-24q-24 0 -37.5 13.5t-13.5 37.5v43q0 17 -9 26t-26 9h-91v-129h-50v400h50v-227h72l71 127h54l-76 -132q54 -9 54 -72v-37q0 -7 4 -11t11 -4h11z" />
    <glyph glyph-name="uni044F.ss04" horiz-adv-x="330" 
d="M280 0h-50v115h-97q-16 0 -25.5 -9t-9.5 -26v-29q0 -24 -13.5 -37.5t-37.5 -13.5h-22v44h11q7 0 11 4t4 11v24q0 24 8 36.5t25 17.5q-20 11 -31 29t-11 42q0 41 28.5 66.5t75.5 25.5h134v-300zM108 244q-16 -13 -16 -36q0 -24 16 -37.5t44 -13.5h78v100h-78
q-28 0 -44 -13z" />
    <glyph glyph-name="uni0436.ss05" horiz-adv-x="474" 
d="M446 44v-44h-23q-24 0 -37.5 13.5t-13.5 37.5v43q0 17 -9 26t-26 9h-75v-129h-50v129h-75q-16 0 -25.5 -9t-9.5 -26v-43q0 -24 -13.5 -37.5t-37.5 -13.5h-23v44h11q7 0 11 4t4 11v37q0 63 54 72l-76 132h54l68 -127h58v127h50v-127h58l68 127h54l-76 -132q54 -9 54 -72
v-37q0 -7 4 -11t11 -4h11z" />
    <glyph glyph-name="uni043A.ss05" horiz-adv-x="329" 
d="M301 44v-44h-24q-24 0 -37.5 13.5t-13.5 37.5v43q0 17 -9 26t-26 9h-91v-129h-50v300h50v-127h72l71 127h54l-76 -132q54 -9 54 -72v-37q0 -7 4 -11t11 -4h11z" />
    <glyph glyph-name="uni044F.ss05" horiz-adv-x="330" 
d="M280 0h-50v115h-97q-16 0 -25.5 -9t-9.5 -26v-29q0 -24 -13.5 -37.5t-37.5 -13.5h-22v44h11q7 0 11 4t4 11v24q0 24 8 36.5t25 17.5q-20 11 -31 29t-11 42q0 41 28.5 66.5t75.5 25.5h134v-300zM108 244q-16 -13 -16 -36q0 -24 16 -37.5t44 -13.5h78v100h-78
q-28 0 -44 -13z" />
    <glyph glyph-name="uni0443.ss06" horiz-adv-x="321" 
d="M311 300l-137 -353q-18 -47 -69 -47h-57v44h52q21 0 29 20l12 33l-126 303h55l97 -242l90 242h54z" />
    <glyph glyph-name="uni045E.ss06" horiz-adv-x="321" 
d="M311 300l-137 -353q-18 -47 -69 -47h-57v44h52q21 0 29 20l12 33l-126 303h55l97 -242l90 242h54zM102.5 346q-22.5 18 -26.5 51l40 8q1 -20 13.5 -31t32.5 -11t32.5 11t13.5 31l40 -8q-4 -33 -26.5 -51t-59.5 -18t-59.5 18z" />
    <glyph glyph-name="uni043D.ss07" 
d="M262 300h48v-300h-53l-159 224v-224h-48v300h53l159 -224v224z" />
    <glyph glyph-name="uni0430.stress" horiz-adv-x="317" 
d="M297 44v-44q-4 -2 -17 -2q-28 0 -40.5 11t-14.5 38q-17 -24 -45.5 -38t-61.5 -14q-44 0 -71 24.5t-27 64.5q0 48 35.5 68.5t93.5 29.5q43 7 56.5 13t13.5 23q0 20 -18.5 32t-48.5 12q-26 0 -50.5 -10.5t-43.5 -30.5l-31 32q52 52 127 52q52 0 82 -26t30 -72v-143
q0 -20 20 -20h11zM190 59.5q28 22.5 28 53.5v46q-8 -6 -21 -9t-41 -7q-43 -7 -64.5 -18t-21.5 -40q0 -23 14 -35.5t40 -12.5q38 0 66 22.5zM168 400h65l-57 -70h-37z" />
    <glyph glyph-name="uni0435.stress" horiz-adv-x="341" 
d="M109.5 64.5q26.5 -25.5 68.5 -25.5q64 0 93 41l36 -31q-18 -24 -50 -39t-78 -15q-71 0 -111.5 43t-40.5 112t41 112t106 43t103.5 -42.5t38.5 -112.5q0 -11 -1 -16h-237q5 -44 31.5 -69.5zM110 238.5q-25 -23.5 -31 -64.5h185q-5 41 -29 64.5t-61 23.5q-39 0 -64 -23.5z
M185 400h65l-57 -70h-37z" />
    <glyph glyph-name="uni0451.stress" horiz-adv-x="341" 
d="M109.5 64.5q26.5 -25.5 68.5 -25.5q64 0 93 41l36 -31q-18 -24 -50 -39t-78 -15q-71 0 -111.5 43t-40.5 112t41 112t106 43t103.5 -42.5t38.5 -112.5q0 -11 -1 -16h-237q5 -44 31.5 -69.5zM110 238.5q-25 -23.5 -31 -64.5h185q-5 41 -29 64.5t-61 23.5q-39 0 -64 -23.5z
M223 414l-57 -70h-37l29 70h65zM68 400h56v-56h-56v56zM218 400h56v-56h-56v56z" />
    <glyph glyph-name="uni0438.stress" 
d="M257 300h53v-300h-49v233l-158 -233h-53v300h49v-233zM194 400h65l-57 -70h-37z" />
    <glyph glyph-name="uni043E.stress" horiz-adv-x="354" 
d="M68 37q-41 42 -41 113q0 69 42 112t108 43q68 0 109 -42t41 -113q0 -69 -42 -112t-108 -43q-68 0 -109 42zM249 69.5q27 30.5 27 80.5t-27 80.5t-72 30.5t-72 -30.5t-27 -80.5t27 -80.5t72 -30.5t72 30.5zM191 400h65l-57 -70h-37z" />
    <glyph glyph-name="uni0443.stress" horiz-adv-x="321" 
d="M315 300l-115 -316q-14 -40 -38 -64.5t-57 -24.5q-39 0 -59.5 24t-19.5 60l45 8q-2 -46 34 -46q14 0 24.5 9t19.5 28l-141 322h55l110 -263l90 263h52zM176 400h65l-57 -70h-37z" />
    <glyph glyph-name="uni044B.stress" horiz-adv-x="445" 
d="M264.5 157q28.5 -25 28.5 -66t-28.5 -66t-75.5 -25h-139v300h50v-118h89q47 0 75.5 -25zM227.5 56q14.5 12 14.5 35t-14.5 35t-41.5 12h-86v-94h86q27 0 41.5 12zM345 300h50v-300h-50v300zM237 400h65l-57 -70h-37z" />
    <glyph glyph-name="uni0454.stress" horiz-adv-x="327" 
d="M227.5 55q22.5 16 33.5 44l46 -15q-13 -42 -48.5 -65.5t-83.5 -23.5q-65 0 -106.5 43t-41.5 112t41.5 112t106.5 43q48 0 83.5 -23.5t48.5 -65.5l-47 -15q-11 28 -33 44t-52 16q-39 0 -64.5 -23t-31.5 -63h136v-44h-137q5 -42 30.5 -67t66.5 -25q30 0 52.5 16zM188 400
h65l-57 -70h-37z" />
    <glyph glyph-name="uni044D.stress" horiz-adv-x="327" 
d="M258.5 262q41.5 -43 41.5 -112t-41.5 -112t-106.5 -43q-48 0 -83.5 23.5t-48.5 65.5l46 15q11 -28 33.5 -44t52.5 -16q41 0 66.5 25t30.5 67h-137v44h136q-6 40 -31.5 63t-64.5 23q-31 0 -53.5 -16t-33.5 -44l-45 14q14 42 50 66t82 24q65 0 106.5 -43zM165 400h65
l-57 -70h-37z" />
    <glyph glyph-name="uni0456.stress" horiz-adv-x="160" 
d="M55 300h50v-300h-50v300zM94 400h65l-57 -70h-37z" />
    <glyph glyph-name="uni0457.stress" horiz-adv-x="160" 
d="M55 300h50v-300h-50v300zM132 414l-57 -70h-37l29 70h65zM-23 400h56v-56h-56v56zM127 400h56v-56h-56v56z" />
    <glyph glyph-name="uni044E.stress" horiz-adv-x="482" 
d="M415.5 263q39.5 -42 39.5 -113q0 -69 -40.5 -112t-104.5 -43q-61 0 -100 36.5t-44 98.5h-66v-130h-50v300h50v-124h67q8 59 46.5 94t96.5 35q66 0 105.5 -42zM378.5 69.5q25.5 30.5 25.5 80.5t-25.5 80.5t-68.5 30.5t-68.5 -30.5t-25.5 -80.5t25.5 -80.5t68.5 -30.5
t68.5 30.5zM230 400h65l-57 -70h-37z" />
    <glyph glyph-name="uni044F.stress" horiz-adv-x="319" 
d="M269 0h-50v118h-73l-77 -118h-57l82 125q-29 9 -45 30.5t-16 50.5q0 42 29 68t77 26h130v-300zM219 157v100h-76q-28 0 -44 -13t-16 -36q0 -24 16 -37.5t44 -13.5h76zM179 400h65l-57 -70h-37z" />
    <glyph glyph-name="uni0443.ss03.stress" horiz-adv-x="321" 
d="M313 300l-102 -300q-19 -55 -44 -80t-60 -25t-56 22t-21 59q0 40 30 68h43l-100 256h55l92 -256h27l83 256h53zM133.5 -51q11.5 11 18.5 30l8 21h-76q-9 -12 -9 -25q0 -16 9.5 -26.5t24.5 -10.5q13 0 24.5 11zM176 400h65l-57 -70h-37z" />
    <glyph glyph-name="uni044F.ss03.stress" horiz-adv-x="330" 
d="M280 0h-50v115h-129v-64q0 -24 -13.5 -37.5t-37.5 -13.5h-24v44h11q7 0 11 4t4 11v80h47q-27 10 -42 29t-15 44q0 39 28.5 63.5t75.5 24.5h134v-300zM108 244.5q-16 -13.5 -16 -36.5t18.5 -37t47.5 -14h72v101h-78q-28 0 -44 -13.5zM175 400h65l-57 -70h-37z" />
    <glyph glyph-name="uni044F.ss04.stress" horiz-adv-x="330" 
d="M280 0h-50v115h-97q-16 0 -25.5 -9t-9.5 -26v-29q0 -24 -13.5 -37.5t-37.5 -13.5h-22v44h11q7 0 11 4t4 11v24q0 24 8 36.5t25 17.5q-20 11 -31 29t-11 42q0 41 28.5 66.5t75.5 25.5h134v-300zM108 244q-16 -13 -16 -36q0 -24 16 -37.5t44 -13.5h78v100h-78
q-28 0 -44 -13zM184 400h65l-57 -70h-37z" />
    <glyph glyph-name="uni0443.ss06.stress" horiz-adv-x="321" 
d="M311 300l-137 -353q-18 -47 -69 -47h-57v44h52q21 0 29 20l12 33l-126 303h55l97 -242l90 242h54zM176 400h65l-57 -70h-37z" />
    <glyph glyph-name="zero.lf" 
d="M71 48q-41 53 -41 142t41 142t109 53t109 -53t41 -142t-41 -142t-109 -53t-109 53zM252 81q27 41 27 109t-27 109t-72 41t-72 -41t-27 -109t27 -109t72 -41t72 41z" />
    <glyph glyph-name="one.lf" horiz-adv-x="225" 
d="M15 277v39h15q50 0 68 13t22 51h35v-380h-50v277h-90z" />
    <glyph glyph-name="two.lf" horiz-adv-x="301" 
d="M281 47v-47h-266v32l131 120q39 36 56.5 64t17.5 56q0 31 -19.5 50t-51.5 19q-38 0 -60.5 -22.5t-25.5 -64.5l-47 10q5 56 41.5 88.5t93.5 32.5q53 0 86.5 -30.5t33.5 -79.5q0 -36 -24 -72.5t-78 -84.5l-79 -71h191z" />
    <glyph glyph-name="three.lf" horiz-adv-x="305" 
d="M248.5 201.5q31.5 -31.5 31.5 -80.5q0 -54 -39.5 -90t-98.5 -36q-48 0 -84 21t-53 59l39 24q28 -60 94 -60q43 0 67 22t24 60q0 34 -20 54.5t-52 20.5q-26 0 -44 -12l-27 28l116 122h-181v46h248v-36l-107 -111h7q48 0 79.5 -31.5z" />
    <glyph glyph-name="four.lf" horiz-adv-x="320" 
d="M315 140v-43h-63v-97h-50v97h-187v39l177 244h60v-240h63zM68 140h134v185z" />
    <glyph glyph-name="five.lf" horiz-adv-x="316" 
d="M250 218.5q37 -36.5 37 -92.5q0 -58 -39.5 -94.5t-102.5 -36.5q-43 0 -77 19t-52 51l36 26q13 -23 38.5 -37.5t54.5 -14.5q41 0 66.5 24t25.5 63t-23.5 63t-62.5 24q-26 0 -46 -11t-32 -32l-39 12l17 198h208v-46h-168l-9 -106q29 27 75 27q56 0 93 -36.5z" />
    <glyph glyph-name="six.lf" horiz-adv-x="326" 
d="M276.5 209.5q36.5 -32.5 36.5 -87.5q0 -36 -18.5 -65t-50 -45.5t-67.5 -16.5q-74 0 -110.5 54.5t-36.5 135.5q0 85 38.5 142.5t117.5 57.5q35 0 66 -13.5t51 -39.5l-34 -32q-30 42 -83 42q-59 0 -85 -44.5t-25 -107.5v-6q16 28 45 43t64 15q55 0 91.5 -32.5zM239 60.5
q26 22.5 26 58.5q0 37 -24 59t-61 22t-62.5 -22t-25.5 -57q0 -37 23.5 -60t61.5 -23q36 0 62 22.5z" />
    <glyph glyph-name="seven.lf" horiz-adv-x="279" 
d="M279 380v-36q-65 -60 -103 -151t-38 -193h-52q0 97 38.5 187t96.5 147h-216v46h274z" />
    <glyph glyph-name="eight.lf" horiz-adv-x="324" 
d="M281 156.5q18 -23.5 18 -56.5q0 -47 -37.5 -76t-99.5 -29t-99.5 29t-37.5 76q0 33 18 56.5t51 35.5q-28 12 -43 34.5t-15 52.5q0 48 34 77t92 29t92 -29t34 -77q0 -30 -15 -52.5t-43 -34.5q33 -12 51 -35.5zM106 326.5q-21 -18.5 -21 -49.5t21 -49t56 -18t56 18t21 49
t-21 49.5t-56 18.5t-56 -18.5zM226 53.5q24 18.5 24 49.5t-24 49t-64 18t-64 -18t-24 -49t24 -49.5t64 -18.5t64 18.5z" />
    <glyph glyph-name="nine.lf" horiz-adv-x="326" 
d="M259.5 330.5q36.5 -54.5 36.5 -135.5q0 -85 -38.5 -142.5t-117.5 -57.5q-35 0 -66 13.5t-51 39.5l34 32q30 -42 83 -42q59 0 85 44.5t25 107.5v6q-16 -28 -45 -43t-64 -15q-55 0 -91.5 32.5t-36.5 87.5q0 36 18.5 65t50 45.5t67.5 16.5q74 0 110.5 -54.5zM208.5 202
q25.5 22 25.5 57q0 37 -23.5 60t-61.5 23q-36 0 -62 -22.5t-26 -58.5q0 -37 24 -59t61 -22t62.5 22z" />
    <glyph glyph-name="zero.osf" 
d="M71 40q-41 45 -41 120q0 73 42 119t108 46q68 0 109 -45t41 -120q0 -73 -42 -119t-108 -46q-68 0 -109 45zM252 72.5q27 32.5 27 87.5t-27 87.5t-72 32.5t-72 -32.5t-27 -87.5t27 -87.5t72 -32.5t72 32.5z" />
    <glyph glyph-name="one.osf" horiz-adv-x="225" 
d="M17 222v39h15q50 0 68 13t22 51h35v-325h-50v222h-90z" />
    <glyph glyph-name="two.osf" horiz-adv-x="300" 
d="M298 48v-48h-283v32l127 88q48 33 64 53.5t16 47.5t-18.5 43.5t-51.5 16.5q-37 0 -60 -20t-30 -55l-44 8q8 52 46 81.5t91 29.5q51 0 83.5 -27.5t32.5 -72.5q0 -36 -22 -65t-83 -72l-57 -40h189z" />
    <glyph glyph-name="three.osf" horiz-adv-x="300" 
d="M248.5 141.5q31.5 -31.5 31.5 -80.5q0 -54 -39.5 -90t-98.5 -36q-48 0 -84 21t-53 59l39 24q28 -60 94 -60q43 0 67 22t24 60q0 34 -20 54.5t-52 20.5q-26 0 -44 -12l-27 28l116 122h-181v46h248v-36l-107 -111h7q48 0 79.5 -31.5z" />
    <glyph glyph-name="four.osf" horiz-adv-x="320" 
d="M310 80v-43h-63v-97h-50v97h-187v39l177 244h60v-240h63zM63 80h134v185z" />
    <glyph glyph-name="five.osf" horiz-adv-x="316" 
d="M259 158.5q37 -36.5 37 -92.5q0 -58 -39.5 -94.5t-102.5 -36.5q-43 0 -77 19t-52 51l36 26q13 -23 38.5 -37.5t54.5 -14.5q41 0 66.5 24t25.5 63t-23.5 63t-62.5 24q-26 0 -46 -11t-32 -32l-39 12l17 198h208v-46h-168l-9 -106q29 27 75 27q56 0 93 -36.5z" />
    <glyph glyph-name="six.osf" horiz-adv-x="336" 
d="M279.5 209.5q36.5 -32.5 36.5 -87.5q0 -36 -18.5 -65t-50 -45.5t-67.5 -16.5q-74 0 -110.5 54.5t-36.5 135.5q0 85 38.5 142.5t117.5 57.5q35 0 66 -13.5t51 -39.5l-34 -32q-30 42 -83 42q-59 0 -85 -44.5t-25 -107.5v-6q16 28 45 43t64 15q55 0 91.5 -32.5zM242 60.5
q26 22.5 26 58.5q0 37 -24 59t-61 22t-62.5 -22t-25.5 -57q0 -37 23.5 -60t61.5 -23q36 0 62 22.5z" />
    <glyph glyph-name="seven.osf" horiz-adv-x="279" 
d="M276 320v-36q-65 -60 -103 -151t-38 -193h-52q0 97 38.5 187t96.5 147h-216v46h274z" />
    <glyph glyph-name="eight.osf" horiz-adv-x="324" 
d="M281 156.5q18 -23.5 18 -56.5q0 -47 -37.5 -76t-99.5 -29t-99.5 29t-37.5 76q0 33 18 56.5t51 35.5q-28 12 -43 34.5t-15 52.5q0 48 34 77t92 29t92 -29t34 -77q0 -30 -15 -52.5t-43 -34.5q33 -12 51 -35.5zM106 326.5q-21 -18.5 -21 -49.5t21 -49t56 -18t56 18t21 49
t-21 49.5t-56 18.5t-56 -18.5zM226 53.5q24 18.5 24 49.5t-24 49t-64 18t-64 -18t-24 -49t24 -49.5t64 -18.5t64 18.5z" />
    <glyph glyph-name="nine.osf" horiz-adv-x="328" 
d="M261.5 270.5q36.5 -54.5 36.5 -135.5q0 -85 -38.5 -142.5t-117.5 -57.5q-35 0 -66 13.5t-51 39.5l34 32q30 -42 83 -42q59 0 85 44.5t25 107.5v6q-16 -28 -45 -43t-64 -15q-55 0 -91.5 32.5t-36.5 87.5q0 36 18.5 65t50 45.5t67.5 16.5q74 0 110.5 -54.5zM210.5 142
q25.5 22 25.5 57q0 37 -23.5 60t-61.5 23q-36 0 -62 -22.5t-26 -58.5q0 -37 24 -59t61 -22t62.5 22z" />
    <glyph glyph-name="zero.tf" 
d="M71 48q-41 53 -41 142t41 142t109 53t109 -53t41 -142t-41 -142t-109 -53t-109 53zM252 81q27 41 27 109t-27 109t-72 41t-72 -41t-27 -109t27 -109t72 -41t72 41z" />
    <glyph glyph-name="one.tf" 
d="M330 43v-43h-280v43h116v234h-102v39h27q50 0 68 13t22 51h35v-337h114z" />
    <glyph glyph-name="two.tf" 
d="M313 47v-47h-266v32l131 120q39 36 56.5 64t17.5 56q0 31 -19.5 50t-51.5 19q-38 0 -60.5 -22.5t-25.5 -64.5l-47 10q5 56 41.5 88.5t93.5 32.5q53 0 86.5 -30.5t33.5 -79.5q0 -36 -24 -72.5t-78 -84.5l-79 -71h191z" />
    <glyph glyph-name="three.tf" 
d="M278.5 201.5q31.5 -31.5 31.5 -80.5q0 -54 -39.5 -90t-98.5 -36q-48 0 -84 21t-53 59l39 24q28 -60 94 -60q43 0 67 22t24 60q0 34 -20 54.5t-52 20.5q-26 0 -44 -12l-27 28l116 122h-181v46h248v-36l-107 -111h7q48 0 79.5 -31.5z" />
    <glyph glyph-name="four.tf" 
d="M333 140v-43h-63v-97h-50v97h-187v39l177 244h60v-240h63zM86 140h134v185z" />
    <glyph glyph-name="five.tf" 
d="M273 218.5q37 -36.5 37 -92.5q0 -58 -39.5 -94.5t-102.5 -36.5q-43 0 -77 19t-52 51l36 26q13 -23 38.5 -37.5t54.5 -14.5q41 0 66.5 24t25.5 63t-23.5 63t-62.5 24q-26 0 -46 -11t-32 -32l-39 12l17 198h208v-46h-168l-9 -106q29 27 75 27q56 0 93 -36.5z" />
    <glyph glyph-name="six.tf" 
d="M291.5 209.5q36.5 -32.5 36.5 -87.5q0 -36 -18.5 -65t-50 -45.5t-67.5 -16.5q-74 0 -110.5 54.5t-36.5 135.5q0 85 38.5 142.5t117.5 57.5q35 0 66 -13.5t51 -39.5l-34 -32q-30 42 -83 42q-59 0 -85 -44.5t-25 -107.5v-6q16 28 45 43t64 15q55 0 91.5 -32.5zM254 60.5
q26 22.5 26 58.5q0 37 -24 59t-61 22t-62.5 -22t-25.5 -57q0 -37 23.5 -60t61.5 -23q36 0 62 22.5z" />
    <glyph glyph-name="seven.tf" 
d="M331 380v-36q-69 -60 -109 -151t-40 -193h-54q0 93 41.5 185.5t102.5 148.5h-231v46h290z" />
    <glyph glyph-name="eight.tf" 
d="M299 156.5q18 -23.5 18 -56.5q0 -47 -37.5 -76t-99.5 -29t-99.5 29t-37.5 76q0 33 18 56.5t51 35.5q-28 12 -43 34.5t-15 52.5q0 48 34 77t92 29t92 -29t34 -77q0 -30 -15 -52.5t-43 -34.5q33 -12 51 -35.5zM124 326.5q-21 -18.5 -21 -49.5t21 -49t56 -18t56 18t21 49
t-21 49.5t-56 18.5t-56 -18.5zM244 53.5q24 18.5 24 49.5t-24 49t-64 18t-64 -18t-24 -49t24 -49.5t64 -18.5t64 18.5z" />
    <glyph glyph-name="nine.tf" 
d="M278.5 330.5q36.5 -54.5 36.5 -135.5q0 -85 -38.5 -142.5t-117.5 -57.5q-35 0 -66 13.5t-51 39.5l34 32q30 -42 83 -42q59 0 85 44.5t25 107.5v6q-16 -28 -45 -43t-64 -15q-55 0 -91.5 32.5t-36.5 87.5q0 36 18.5 65t50 45.5t67.5 16.5q74 0 110.5 -54.5zM227.5 202
q25.5 22 25.5 57q0 37 -23.5 60t-61.5 23q-36 0 -62 -22.5t-26 -58.5q0 -37 24 -59t61 -22t62.5 22z" />
    <glyph glyph-name="zero.tosf" 
d="M71 40q-41 45 -41 120q0 73 42 119t108 46q68 0 109 -45t41 -120q0 -73 -42 -119t-108 -46q-68 0 -109 45zM252 72.5q27 32.5 27 87.5t-27 87.5t-72 32.5t-72 -32.5t-27 -87.5t27 -87.5t72 -32.5t72 32.5z" />
    <glyph glyph-name="one.tosf" 
d="M330 43v-43h-280v43h116v174h-102v39h27q50 0 68 13t22 51h35v-277h114z" />
    <glyph glyph-name="two.tosf" 
d="M315 48v-48h-283v32l127 88q48 33 64 53.5t16 47.5t-18.5 43.5t-51.5 16.5q-37 0 -60 -20t-30 -55l-44 8q8 52 46 81.5t91 29.5q51 0 83.5 -27.5t32.5 -72.5q0 -36 -22 -65t-83 -72l-57 -40h189z" />
    <glyph glyph-name="three.tosf" 
d="M278.5 141.5q31.5 -31.5 31.5 -80.5q0 -54 -39.5 -90t-98.5 -36q-48 0 -84 21t-53 59l39 24q28 -60 94 -60q43 0 67 22t24 60q0 34 -20 54.5t-52 20.5q-26 0 -44 -12l-27 28l116 122h-181v46h248v-36l-107 -111h7q48 0 79.5 -31.5z" />
    <glyph glyph-name="four.tosf" 
d="M333 80v-43h-63v-97h-50v97h-187v39l177 244h60v-240h63zM86 80h134v185z" />
    <glyph glyph-name="five.tosf" 
d="M273 158.5q37 -36.5 37 -92.5q0 -58 -39.5 -94.5t-102.5 -36.5q-43 0 -77 19t-52 51l36 26q13 -23 38.5 -37.5t54.5 -14.5q41 0 66.5 24t25.5 63t-23.5 63t-62.5 24q-26 0 -46 -11t-32 -32l-39 12l17 198h208v-46h-168l-9 -106q29 27 75 27q56 0 93 -36.5z" />
    <glyph glyph-name="six.tosf" 
d="M291.5 209.5q36.5 -32.5 36.5 -87.5q0 -36 -18.5 -65t-50 -45.5t-67.5 -16.5q-74 0 -110.5 54.5t-36.5 135.5q0 85 38.5 142.5t117.5 57.5q35 0 66 -13.5t51 -39.5l-34 -32q-30 42 -83 42q-59 0 -85 -44.5t-25 -107.5v-6q16 28 45 43t64 15q55 0 91.5 -32.5zM254 60.5
q26 22.5 26 58.5q0 37 -24 59t-61 22t-62.5 -22t-25.5 -57q0 -37 23.5 -60t61.5 -23q36 0 62 22.5z" />
    <glyph glyph-name="seven.tosf" 
d="M331 320v-36q-69 -60 -109 -151t-40 -193h-54q0 93 41.5 185.5t102.5 148.5h-231v46h290z" />
    <glyph glyph-name="eight.tosf" 
d="M299 156.5q18 -23.5 18 -56.5q0 -47 -37.5 -76t-99.5 -29t-99.5 29t-37.5 76q0 33 18 56.5t51 35.5q-28 12 -43 34.5t-15 52.5q0 48 34 77t92 29t92 -29t34 -77q0 -30 -15 -52.5t-43 -34.5q33 -12 51 -35.5zM124 326.5q-21 -18.5 -21 -49.5t21 -49t56 -18t56 18t21 49
t-21 49.5t-56 18.5t-56 -18.5zM244 53.5q24 18.5 24 49.5t-24 49t-64 18t-64 -18t-24 -49t24 -49.5t64 -18.5t64 18.5z" />
    <glyph glyph-name="nine.tosf" 
d="M278.5 270.5q36.5 -54.5 36.5 -135.5q0 -85 -38.5 -142.5t-117.5 -57.5q-35 0 -66 13.5t-51 39.5l34 32q30 -42 83 -42q59 0 85 44.5t25 107.5v6q-16 -28 -45 -43t-64 -15q-55 0 -91.5 32.5t-36.5 87.5q0 36 18.5 65t50 45.5t67.5 16.5q74 0 110.5 -54.5zM227.5 142
q25.5 22 25.5 57q0 37 -23.5 60t-61.5 23q-36 0 -62 -22.5t-26 -58.5q0 -37 24 -59t61 -22t62.5 22z" />
    <glyph glyph-name="zero.dnom" horiz-adv-x="234" 
d="M45 28.5q-27 31.5 -27 83.5t27 83.5t72 31.5t72 -31.5t27 -83.5t-27 -83.5t-72 -31.5t-72 31.5zM159 55.5q16 21.5 16 56.5t-16 57t-42 22t-42 -22t-16 -57t16 -56.5t42 -21.5t42 21.5z" />
    <glyph glyph-name="one.dnom" horiz-adv-x="190" 
d="M90 0v152h-61v34h14q32 0 44 8t14 30h30v-224h-41z" />
    <glyph glyph-name="two.dnom" horiz-adv-x="234" 
d="M208 38v-38h-179v28l85 66q45 36 45 64q0 15 -11.5 24t-30.5 9q-22 0 -34.5 -12t-14.5 -33l-39 6q3 35 27 55t63 20q37 0 59.5 -18t22.5 -47q0 -22 -15.5 -44t-53.5 -51l-36 -29h112z" />
    <glyph glyph-name="three.dnom" horiz-adv-x="234" 
d="M184 119.5q19 -17.5 19 -46.5q0 -32 -26 -54t-64 -22q-31 0 -56 13.5t-36 36.5l31 21q17 -35 61 -35q22 0 36 11t14 28q0 18 -12.5 28t-31.5 10q-14 0 -26 -6l-19 21l66 62h-108v37h164v-29l-63 -57q32 -1 51 -18.5z" />
    <glyph glyph-name="four.dnom" horiz-adv-x="234" 
d="M218 88v-36h-39v-52h-39v52h-121v33l112 139h48v-136h39zM63 88h77v97z" />
    <glyph glyph-name="five.dnom" horiz-adv-x="234" 
d="M179.5 130.5q22.5 -20.5 22.5 -52.5q0 -35 -26.5 -58t-66.5 -23q-29 0 -51.5 11.5t-33.5 31.5l28 22q9 -13 24 -21t34 -8q23 0 37.5 12t14.5 32q0 19 -14 30t-36 11q-15 0 -27 -5.5t-19 -15.5l-30 10l11 117h139v-36h-107l-5 -49q20 12 47 12q36 0 58.5 -20.5z" />
    <glyph glyph-name="six.dnom" horiz-adv-x="234" 
d="M191.5 125.5q23.5 -20.5 23.5 -52.5q0 -34 -25.5 -55t-64.5 -21q-47 0 -72 32.5t-25 81.5t27 82.5t76 33.5q24 0 43.5 -7.5t32.5 -22.5l-29 -28q-18 21 -49 21q-29 0 -46 -21t-18 -53q22 30 66 30q37 0 60.5 -20.5zM161 43q14 11 14 29q0 17 -14 29t-35 12
q-22 0 -36.5 -11.5t-14.5 -29.5q0 -17 14 -28.5t36 -11.5t36 11z" />
    <glyph glyph-name="seven.dnom" horiz-adv-x="204" 
d="M196 224v-30q-42 -33 -66.5 -84.5t-24.5 -109.5h-43q0 51 23 101t59 84h-138v39h190z" />
    <glyph glyph-name="eight.dnom" horiz-adv-x="234" 
d="M196.5 93q11.5 -14 11.5 -33q0 -29 -24.5 -46t-66.5 -17t-66.5 17t-24.5 46q0 19 11.5 33t31.5 22q-17 7 -26.5 20t-9.5 30q0 28 23 45t61 17t61 -17t23 -45q0 -17 -9.5 -30t-26.5 -20q20 -8 31.5 -22zM83.5 186.5q-12.5 -9.5 -12.5 -25.5q0 -14 12.5 -22.5t33.5 -8.5
t33.5 8.5t12.5 22.5q0 16 -12.5 25.5t-33.5 9.5t-33.5 -9.5zM154.5 38q14.5 9 14.5 24q0 16 -14 24.5t-38 8.5t-38 -8.5t-14 -24.5q0 -15 14.5 -24t37.5 -9t37.5 9z" />
    <glyph glyph-name="nine.dnom" horiz-adv-x="234" 
d="M181 194.5q25 -32.5 25 -81.5t-27 -82.5t-76 -33.5q-24 0 -43.5 7.5t-32.5 22.5l29 28q18 -21 49 -21q29 0 46 21t18 53q-22 -30 -66 -30q-37 0 -60.5 20.5t-23.5 52.5q0 34 25.5 55t64.5 21q47 0 72 -32.5zM144.5 122.5q14.5 11.5 14.5 29.5q0 17 -14 28.5t-36 11.5
t-36 -11t-14 -29q0 -17 14 -29t35 -12q22 0 36.5 11.5z" />
    <glyph glyph-name="zero.numr" horiz-adv-x="234" 
d="M45 184.5q-27 31.5 -27 83.5t27 83.5t72 31.5t72 -31.5t27 -83.5t-27 -83.5t-72 -31.5t-72 31.5zM159 211.5q16 21.5 16 56.5t-16 57t-42 22t-42 -22t-16 -57t16 -56.5t42 -21.5t42 21.5z" />
    <glyph glyph-name="one.numr" horiz-adv-x="190" 
d="M90 156v152h-61v34h14q32 0 44 8t14 30h30v-224h-41z" />
    <glyph glyph-name="two.numr" horiz-adv-x="234" 
d="M208 194v-38h-179v28l85 66q45 36 45 64q0 15 -11.5 24t-30.5 9q-22 0 -34.5 -12t-14.5 -33l-39 6q3 35 27 55t63 20q37 0 59.5 -18t22.5 -47q0 -22 -15.5 -44t-53.5 -51l-36 -29h112z" />
    <glyph glyph-name="three.numr" horiz-adv-x="234" 
d="M184 275.5q19 -17.5 19 -46.5q0 -32 -26 -54t-64 -22q-31 0 -56 13.5t-36 36.5l31 21q17 -35 61 -35q22 0 36 11t14 28q0 18 -12.5 28t-31.5 10q-14 0 -26 -6l-19 21l66 62h-108v37h164v-29l-63 -57q32 -1 51 -18.5z" />
    <glyph glyph-name="four.numr" horiz-adv-x="234" 
d="M218 244v-36h-39v-52h-39v52h-121v33l112 139h48v-136h39zM63 244h77v97z" />
    <glyph glyph-name="five.numr" horiz-adv-x="234" 
d="M179.5 286.5q22.5 -20.5 22.5 -52.5q0 -35 -26.5 -58t-66.5 -23q-29 0 -51.5 11.5t-33.5 31.5l28 22q9 -13 24 -21t34 -8q23 0 37.5 12t14.5 32q0 19 -14 30t-36 11q-15 0 -27 -5.5t-19 -15.5l-30 10l11 117h139v-36h-107l-5 -49q20 12 47 12q36 0 58.5 -20.5z" />
    <glyph glyph-name="six.numr" horiz-adv-x="234" 
d="M191.5 281.5q23.5 -20.5 23.5 -52.5q0 -34 -25.5 -55t-64.5 -21q-47 0 -72 32.5t-25 81.5t27 82.5t76 33.5q24 0 43.5 -7.5t32.5 -22.5l-29 -28q-18 21 -49 21q-29 0 -46 -21t-18 -53q22 30 66 30q37 0 60.5 -20.5zM161 199q14 11 14 29q0 17 -14 29t-35 12
q-22 0 -36.5 -11.5t-14.5 -29.5q0 -17 14 -28.5t36 -11.5t36 11z" />
    <glyph glyph-name="seven.numr" horiz-adv-x="204" 
d="M196 380v-30q-42 -33 -66.5 -84.5t-24.5 -109.5h-43q0 51 23 101t59 84h-138v39h190z" />
    <glyph glyph-name="eight.numr" horiz-adv-x="234" 
d="M196.5 249q11.5 -14 11.5 -33q0 -29 -24.5 -46t-66.5 -17t-66.5 17t-24.5 46q0 19 11.5 33t31.5 22q-17 7 -26.5 20t-9.5 30q0 28 23 45t61 17t61 -17t23 -45q0 -17 -9.5 -30t-26.5 -20q20 -8 31.5 -22zM83.5 342.5q-12.5 -9.5 -12.5 -25.5q0 -14 12.5 -22.5t33.5 -8.5
t33.5 8.5t12.5 22.5q0 16 -12.5 25.5t-33.5 9.5t-33.5 -9.5zM154.5 194q14.5 9 14.5 24q0 16 -14 24.5t-38 8.5t-38 -8.5t-14 -24.5q0 -15 14.5 -24t37.5 -9t37.5 9z" />
    <glyph glyph-name="nine.numr" horiz-adv-x="234" 
d="M181 350.5q25 -32.5 25 -81.5t-27 -82.5t-76 -33.5q-24 0 -43.5 7.5t-32.5 22.5l29 28q18 -21 49 -21q29 0 46 21t18 53q-22 -30 -66 -30q-37 0 -60.5 20.5t-23.5 52.5q0 34 25.5 55t64.5 21q47 0 72 -32.5zM144.5 278.5q14.5 11.5 14.5 29.5q0 17 -14 28.5t-36 11.5
t-36 -11t-14 -29q0 -17 14 -29t35 -12q22 0 36.5 11.5z" />
    <glyph glyph-name="exclamdown.case" horiz-adv-x="172" 
d="M51 380h70v-70h-70v70zM56 0l11 260h38l11 -260h-60z" />
    <glyph glyph-name="questiondown.case" horiz-adv-x="305" 
d="M121 380h70v-70h-70v70zM170.5 224q-9.5 -17 -40.5 -42q-28 -23 -38.5 -39t-10.5 -36q0 -32 19 -50t52 -18q37 0 60 23.5t26 63.5l47 -10q-5 -55 -42 -88t-93 -33q-54 0 -87 30t-33 79q0 31 15.5 56t50.5 51q23 17 32.5 29.5t9.5 24.5v5h40q2 -29 -7.5 -46z" />
    <glyph glyph-name="periodcentered.case" horiz-adv-x="150" 
d="M40 225h70v-70h-70v70z" />
    <glyph glyph-name="bullet.case" 
d="M126.5 136.5q-21.5 21.5 -21.5 53.5t21.5 53.5t53.5 21.5t53.5 -21.5t21.5 -53.5t-21.5 -53.5t-53.5 -21.5t-53.5 21.5z" />
    <glyph glyph-name="asterisk.case" horiz-adv-x="238" 
d="M213 299l-68 -22l42 -57l-26 -19l-42 57l-42 -57l-26 19l42 58l-68 22l10 31l68 -22v71h32v-71l68 22z" />
    <glyph glyph-name="slash.case" horiz-adv-x="230" 
d="M191 380h48l-200 -380h-48z" />
    <glyph glyph-name="backslash.case" horiz-adv-x="230" 
d="M225 0h-48l-200 380h48z" />
    <glyph glyph-name="parenleft.case" horiz-adv-x="230" 
d="M168 10l-24 -24q-46 32 -72 86t-26 118t26 118t72 86l24 -24q-72 -67 -72 -180q0 -112 72 -180z" />
    <glyph glyph-name="parenright.case" horiz-adv-x="230" 
d="M62 370l24 24q46 -32 72 -86t26 -118t-26 -118t-72 -86l-24 24q72 68 72 180q0 113 -72 180z" />
    <glyph glyph-name="braceleft.case" horiz-adv-x="230" 
d="M89 190q32 -12 32 -60v-70q0 -20 20 -20h49v-40h-55q-29 0 -44.5 15.5t-15.5 44.5v67q0 22 -7 32.5t-22 10.5h-16v40h16q15 0 22 10.5t7 32.5v67q0 29 15.5 44.5t44.5 15.5h55v-40h-49q-20 0 -20 -20v-70q0 -48 -32 -60z" />
    <glyph glyph-name="braceright.case" horiz-adv-x="230" 
d="M200 210v-40h-16q-15 0 -22 -10.5t-7 -32.5v-67q0 -29 -15.5 -44.5t-44.5 -15.5h-55v40h49q20 0 20 20v70q0 48 32 60q-32 12 -32 60v70q0 20 -20 20h-49v40h55q29 0 44.5 -15.5t15.5 -44.5v-67q0 -22 7 -32.5t22 -10.5h16z" />
    <glyph glyph-name="bracketleft.case" horiz-adv-x="230" 
d="M190 340h-84v-300h84v-40h-130v380h130v-40z" />
    <glyph glyph-name="bracketright.case" horiz-adv-x="230" 
d="M170 380v-380h-130v40h84v300h-84v40h130z" />
    <glyph glyph-name="hyphen.case" horiz-adv-x="240" 
d="M35 215h170v-50h-170v50z" />
    <glyph glyph-name="endash.case" horiz-adv-x="320" 
d="M35 214h250v-48h-250v48z" />
    <glyph glyph-name="emdash.case" horiz-adv-x="440" 
d="M35 214h370v-48h-370v48z" />
    <glyph glyph-name="guillemotleft.case" horiz-adv-x="340" 
d="M160 302v-56l-76 -55l76 -55v-58l-120 86v52zM290 302v-56l-76 -55l76 -55v-58l-120 86v52z" />
    <glyph glyph-name="guillemotright.case" horiz-adv-x="340" 
d="M50 244v58l120 -86v-52l-120 -86v56l76 55zM180 302l120 -86v-52l-120 -86v56l76 55l-76 55v58z" />
    <glyph glyph-name="guilsinglleft.case" horiz-adv-x="210" 
d="M160 302v-56l-76 -55l76 -55v-58l-120 86v52z" />
    <glyph glyph-name="guilsinglright.case" horiz-adv-x="210" 
d="M50 302l120 -86v-52l-120 -86v56l76 55l-76 55v58z" />
    <glyph glyph-name="at.case" horiz-adv-x="431" 
d="M411 134v-43q-3 -1 -8.5 -2t-8.5 0q-28 0 -40.5 11t-14.5 37q-17 -23 -45.5 -37t-61.5 -14q-44 0 -71 24t-27 62q0 35 20.5 55.5t48 29t67.5 14.5q29 5 41.5 9t12.5 12q0 21 -29.5 37t-67.5 16q-67 0 -109.5 -43t-42.5 -111q0 -70 45.5 -114t119.5 -44q57 0 97 27l20 -35
q-53 -31 -119 -31q-61 0 -108 25t-73.5 69.5t-26.5 102.5q0 57 25 101t70 68.5t103 24.5q69 0 110.5 -35t41.5 -93v-104q0 -10 4.5 -14.5t15.5 -4.5h11zM304 149q28 22 28 51v50q-18 -13 -65 -21q-42 -7 -62.5 -17.5t-20.5 -38.5q0 -22 14 -34t40 -12q38 0 66 22z" />
    <glyph glyph-name="bar.case" horiz-adv-x="166" 
d="M60 380h46v-380h-46v380z" />
    <glyph glyph-name="brokenbar.case" horiz-adv-x="166" 
d="M60 380h46v-140h-46v140zM106 0h-46v140h46v-140z" />
    <glyph glyph-name="dagger.case" horiz-adv-x="232" 
d="M192 328v-32h-58v-88h-36v88h-58v32h58v52h36v-52h58z" />
    <glyph glyph-name="daggerdbl.case" horiz-adv-x="232" 
d="M192 308h-58v-28h58v-32h-58v-40h-36v40h-58v32h58v28h-58v32h58v40h36v-40h58v-32z" />
    <glyph glyph-name="caron.alt" 
d="M220 400h54l-20 -80h-34v80z" />
    <glyph glyph-name="uni0308.double" horiz-adv-x="0" 
d="M-342 400h56v-56h-56v56zM-253 400h56v-56h-56v56zM-163 400h56v-56h-56v56zM-74 400h56v-56h-56v56z" />
    <glyph glyph-name="brevecombcy" horiz-adv-x="0" 
d="M-239.5 346q-22.5 18 -26.5 51l40 8q1 -20 13.5 -31t32.5 -11t32.5 11t13.5 31l40 -8q-4 -33 -26.5 -51t-59.5 -18t-59.5 18z" />
    <glyph glyph-name="strokecomb" 
d="M100 217h160v-44h-160v44z" />
    </font>
</defs>
</svg>
