<?xml version="1.0" standalone="no"?>
<!DOCTYPE svg PUBLIC "-//W3C//DTD SVG 1.1//EN" "http://www.w3.org/Graphics/SVG/1.1/DTD/svg11.dtd" >
<svg xmlns="http://www.w3.org/2000/svg" xmlns:xlink="http://www.w3.org/1999/xlink" version="1.1">
<metadata>
Created by FontForge 20170731 at Fri Oct 25 21:42:05 2019
 By Aleksey,,,
https://plan.diia.gov.ua
</metadata>
<defs>
<font id="e-Ukraine-Regular" horiz-adv-x="360" >
  <font-face 
    font-family="e-Ukraine"
    font-weight="400"
    font-stretch="normal"
    units-per-em="512"
    panose-1="0 0 5 0 0 0 0 0 0 0"
    ascent="409"
    descent="-103"
    x-height="300"
    cap-height="380"
    bbox="-356 -154 748 501"
    underline-thickness="35"
    underline-position="-97"
    unicode-range="U+000D-2646"
  />
<missing-glyph horiz-adv-x="558" 
d="M488 -39q13 21 13 45v472h-444v-472q0 -24 13 -45t36 -31l173 -76l173 76q23 10 36 31zM262 -93q-22 17 -37 41t-20 52h-93v402q37 -19 62 -56.5t28 -80.5l14 -113l-7 1q-11 0 -19.5 -8.5t-8.5 -19.5q0 -10 6.5 -17.5t16.5 -9.5l17 -4q44 83 44 156q0 25 -4 75
q-1 10 -2 29.5t-1 34.5q0 31 21 55q21 -24 21 -55q0 -24 -4 -70q-1 -12 -2 -29t-1 -40q0 -73 44 -156l17 4q10 2 16.5 9.5t6.5 17.5q0 11 -8.5 19.5t-19.5 8.5l-7 -1l14 113q5 44 29 81.5t61 55.5v-402h-93q-5 -29 -20 -53t-37 -40q-12 -8 -17 -19q-5 11 -17 19zM185 175
l-11 93q-6 43 -34 76v-205h16q6 23 29 36zM418 344q-30 -35 -34 -76l-11 -93q23 -13 29 -36h16v205zM309 87q-21 39 -30 69q-9 -30 -30 -69q16 -4 30 -20q14 16 30 20zM208 68l-13 3q-14 5 -24.5 15.5t-14.5 24.5h-16v-83h63q0 18 5 40zM418 111h-16q-4 -14 -14.5 -24.5
t-24.5 -15.5l-13 -3q5 -22 5 -40h63v83zM256.5 51q-8.5 10 -21.5 11q-5 -18 -5 -34h35q0 13 -8.5 23zM323 62q-13 -1 -21.5 -11t-8.5 -23h35q0 16 -5 34zM234 0q7 -32 31 -59v59h-31zM324 0h-31v-59q24 27 31 59z" />
    <glyph glyph-name="uni20B4" unicode="&#x3c;&#x433;&#x440;&#x43d;&#x3e;" 
d="M238 211l-52 -42h145v-38h-183q-22 -17 -22 -40q0 -21 15.5 -32t44.5 -11q50 0 82 47l46 -30q-22 -34 -57.5 -52t-73.5 -18q-52 0 -84 23t-32 62q0 28 20 51h-59v38h89l52 42h-141v38h181q22 21 22 42q0 19 -15.5 30.5t-40.5 11.5q-44 0 -74 -47l-46 31q21 33 52.5 50.5
t69.5 17.5q51 0 82 -23.5t31 -62.5q0 -26 -17 -50h58v-38h-93z" />
    <glyph glyph-name="arrowleft" unicode="&#x3c;&#x2d;" horiz-adv-x="400" 
d="M400 218v-56h-295l97 -96l-39 -39l-163 163l163 163l39 -39l-97 -96h295z" />
    <glyph glyph-name="arrowup" unicode="&#x2d;^" horiz-adv-x="400" 
d="M363 237l-39 -39l-96 97v-295h-56v295l-96 -97l-39 39l163 163z" />
    <glyph glyph-name="arrowright" unicode="&#x2d;&#x3e;" horiz-adv-x="400" 
d="M237 353l163 -163l-163 -163l-39 39l97 96h-295v56h295l-97 96z" />
    <glyph glyph-name="arrowdown" unicode="^&#x2d;" horiz-adv-x="400" 
d="M324 182l39 -39l-163 -163l-163 163l39 39l96 -97v295h56v-295z" />
    <glyph glyph-name="uni2196" unicode="&#x3c;\" horiz-adv-x="400" 
d="M368 57l-39 -39l-208 208v-136h-55v230h230v-54h-136z" />
    <glyph glyph-name="uni2197" unicode="&#x2f;&#x3e;" horiz-adv-x="400" 
d="M104 320h230v-230h-55v136l-208 -208l-39 39l208 209h-136v54z" />
    <glyph glyph-name="uni2198" unicode="\&#x3e;" horiz-adv-x="400" 
d="M279 273h55v-230h-230v54h136l-208 209l39 39l208 -208v136z" />
    <glyph glyph-name="uni2199" unicode="&#x3c;&#x2f;" horiz-adv-x="400" 
d="M368 306l-208 -209h136v-54h-230v230h55v-136l208 208z" />
    <glyph glyph-name="uni2646" unicode="&#x3c;&#x433;&#x435;&#x440;&#x431;&#x3e;" horiz-adv-x="558" 
d="M64.5 -43q-14.5 23 -14.5 49v479h458v-479q0 -26 -14.5 -49t-38.5 -33l-176 -78l-176 78q-24 10 -38.5 33zM488 -39q13 21 13 45v472h-444v-472q0 -24 13 -45t36 -31l173 -76l173 76q23 10 36 31zM262 -93q-22 17 -37 41t-20 52h-93v402q37 -19 62 -56.5t28 -80.5
l14 -113l-7 1q-11 0 -19.5 -8.5t-8.5 -19.5q0 -10 6.5 -17.5t16.5 -9.5l17 -4q44 83 44 156q0 25 -4 75q-1 10 -2 29.5t-1 34.5q0 31 21 55q21 -24 21 -55q0 -24 -4 -70q-1 -12 -2 -29t-1 -40q0 -73 44 -156l17 4q10 2 16.5 9.5t6.5 17.5q0 11 -8.5 19.5t-19.5 8.5l-7 -1
l14 113q5 44 29 81.5t61 55.5v-402h-93q-5 -29 -20 -53t-37 -40q-12 -8 -17 -19q-5 11 -17 19zM185 175l-11 93q-6 43 -34 76v-205h16q6 23 29 36zM418 344q-30 -35 -34 -76l-11 -93q23 -13 29 -36h16v205zM309 87q-21 39 -30 69q-9 -30 -30 -69q16 -4 30 -20q14 16 30 20z
M208 68l-13 3q-14 5 -24.5 15.5t-14.5 24.5h-16v-83h63q0 18 5 40zM418 111h-16q-4 -14 -14.5 -24.5t-24.5 -15.5l-13 -3q5 -22 5 -40h63v83zM256.5 51q-8.5 10 -21.5 11q-5 -18 -5 -34h35q0 13 -8.5 23zM323 62q-13 -1 -21.5 -11t-8.5 -23h35q0 16 -5 34zM234 0
q7 -32 31 -59v59h-31zM324 0h-31v-59q24 27 31 59z" />
    <glyph glyph-name="I_I.liga" unicode="II" horiz-adv-x="354" 
d="M57 380h63v-380h-63v380zM234 380h63v-380h-63v380z" />
    <glyph glyph-name="dotlessi_dotlessi.liga" unicode="&#x131;&#x131;" horiz-adv-x="328" 
d="M52 300h60v-300h-60v300zM216 300h60v-300h-60v300z" />
    <glyph glyph-name="uni04070407.liga" unicode="&#x407;&#x407;" horiz-adv-x="354" 
d="M57 380h63v-380h-63v380zM234 380h63v-380h-63v380zM1 482h64v-60h-64v60zM97 482h64v-60h-64v60zM193 482h64v-60h-64v60zM289 482h64v-60h-64v60z" />
    <glyph glyph-name="uni04570457.liga" unicode="&#x457;&#x457;" horiz-adv-x="328" 
d="M52 300h60v-300h-60v300zM216 300h60v-300h-60v300zM-12 402h64v-60h-64v60zM84 402h64v-60h-64v60zM180 402h64v-60h-64v60zM276 402h64v-60h-64v60z" />
    <glyph glyph-name="uni2019_uni0457.liga" unicode="&#x2019;&#x457;" horiz-adv-x="309" 
d="M197 300h60v-300h-60v300zM143 402h65v-60h-65v60zM246 402h65v-60h-65v60zM31 307q16 0 22.5 8t6.5 25v2h-38v60h78v-54q0 -39 -18 -58.5t-49 -19.5h-11v37h9z" />
    <glyph glyph-name="ampersand.ss08" unicode="&#x3c;&#x442;&#x430;&#x3e;" horiz-adv-x="351" 
d="M331 52v-52q-6 -2 -21 -2q-28 0 -41.5 11t-16.5 37q-18 -24 -50 -37.5t-74 -13.5q-46 0 -75.5 21t-29.5 57q0 42 32.5 60.5t86.5 24.5v67q-49 -6 -84 -39l-32 38q45 42 116 50v55h-113v51h275v-51h-113v-54q52 -4 81 -28.5t29 -63.5v-112q0 -19 19 -19h11zM233 215.5
q-14 9.5 -42 10.5v-61q28 4 42 9t14 17q0 15 -14 24.5zM232.5 78q15.5 17 15.5 41v23q-19 -14 -57 -19v-72q26 10 41.5 27zM94.5 49.5q14.5 -9.5 40.5 -9.5h7v77q-31 -4 -46.5 -12.5t-15.5 -27.5q0 -18 14.5 -27.5z" />
    <glyph glyph-name="trident.ss01" unicode="&#x3c;&#x442;&#x440;&#x438;&#x437;&#x443;&#x431;&#x3e;" horiz-adv-x="558" 
d="M262 -93q-22 17 -37 41t-20 52h-93v402q37 -19 62 -56.5t28 -80.5l14 -113l-7 1q-11 0 -19.5 -8.5t-8.5 -19.5q0 -10 6.5 -17.5t16.5 -9.5l17 -4q44 83 44 156q0 25 -4 75q-1 10 -2 29.5t-1 34.5q0 31 21 55q21 -24 21 -55q0 -24 -4 -70q-1 -12 -2 -29t-1 -40
q0 -73 44 -156l17 4q10 2 16.5 9.5t6.5 17.5q0 11 -8.5 19.5t-19.5 8.5l-7 -1l14 113q5 44 29 81.5t61 55.5v-402h-93q-5 -29 -20 -53t-37 -40q-12 -8 -17 -19q-5 11 -17 19zM185 175l-11 93q-6 43 -34 76v-205h16q6 23 29 36zM418 344q-30 -35 -34 -76l-11 -93
q23 -13 29 -36h16v205zM309 87q-21 39 -30 69q-9 -30 -30 -69q16 -4 30 -20q14 16 30 20zM208 68l-13 3q-14 5 -24.5 15.5t-14.5 24.5h-16v-83h63q0 18 5 40zM418 111h-16q-4 -14 -14.5 -24.5t-24.5 -15.5l-13 -3q5 -22 5 -40h63v83zM256.5 51q-8.5 10 -21.5 11
q-5 -18 -5 -34h35q0 13 -8.5 23zM323 62q-13 -1 -21.5 -11t-8.5 -23h35q0 16 -5 34zM234 0q7 -32 31 -59v59h-31zM324 0h-31v-59q24 27 31 59z" />
    <glyph glyph-name=".notdef" horiz-adv-x="558" 
d="M488 -39q13 21 13 45v472h-444v-472q0 -24 13 -45t36 -31l173 -76l173 76q23 10 36 31zM262 -93q-22 17 -37 41t-20 52h-93v402q37 -19 62 -56.5t28 -80.5l14 -113l-7 1q-11 0 -19.5 -8.5t-8.5 -19.5q0 -10 6.5 -17.5t16.5 -9.5l17 -4q44 83 44 156q0 25 -4 75
q-1 10 -2 29.5t-1 34.5q0 31 21 55q21 -24 21 -55q0 -24 -4 -70q-1 -12 -2 -29t-1 -40q0 -73 44 -156l17 4q10 2 16.5 9.5t6.5 17.5q0 11 -8.5 19.5t-19.5 8.5l-7 -1l14 113q5 44 29 81.5t61 55.5v-402h-93q-5 -29 -20 -53t-37 -40q-12 -8 -17 -19q-5 11 -17 19zM185 175
l-11 93q-6 43 -34 76v-205h16q6 23 29 36zM418 344q-30 -35 -34 -76l-11 -93q23 -13 29 -36h16v205zM309 87q-21 39 -30 69q-9 -30 -30 -69q16 -4 30 -20q14 16 30 20zM208 68l-13 3q-14 5 -24.5 15.5t-14.5 24.5h-16v-83h63q0 18 5 40zM418 111h-16q-4 -14 -14.5 -24.5
t-24.5 -15.5l-13 -3q5 -22 5 -40h63v83zM256.5 51q-8.5 10 -21.5 11q-5 -18 -5 -34h35q0 13 -8.5 23zM323 62q-13 -1 -21.5 -11t-8.5 -23h35q0 16 -5 34zM234 0q7 -32 31 -59v59h-31zM324 0h-31v-59q24 27 31 59z" />
    <glyph glyph-name=".null" horiz-adv-x="0" 
 />
    <glyph glyph-name="nonmarkingreturn" unicode="&#xd;" horiz-adv-x="160" 
 />
    <glyph glyph-name="space" unicode=" " horiz-adv-x="160" 
 />
    <glyph glyph-name="exclam" unicode="!" horiz-adv-x="180" 
d="M55 380h70l-11 -254h-48zM129 78v-78h-78v78h78z" />
    <glyph glyph-name="quotedbl" unicode="&#x22;" horiz-adv-x="225" 
d="M27 380h63l-7 -136h-50zM135 380h63l-7 -136h-50z" />
    <glyph glyph-name="numbersign" unicode="#" 
d="M336 231h-62v-82h62v-58h-62v-91h-52v91h-84v-91h-52v91h-62v58h62v82h-62v58h62v91h52v-91h84v91h52v-91h62v-58zM222 149v82h-84v-82h84z" />
    <glyph glyph-name="dollar" unicode="$" horiz-adv-x="353" 
d="M288.5 31.5q-34.5 -30.5 -93.5 -35.5v-40h-39v39q-84 6 -134 55l37 46q39 -38 97 -46v118q-59 18 -90 41.5t-31 67.5q0 45 32.5 73.5t88.5 33.5v36h39v-36q66 -3 119 -44l-35 -47q-36 31 -84 37v-113q67 -17 97.5 -41.5t30.5 -66.5q0 -47 -34.5 -77.5zM109 250
q14 -12 47 -22v102q-29 -3 -45 -16.5t-16 -33.5q0 -18 14 -30zM244 67q17 14 17 36q0 19 -14 31t-52 23v-107q32 3 49 17z" />
    <glyph glyph-name="percent" unicode="%" horiz-adv-x="538" 
d="M55.5 186.5q-27.5 31.5 -27.5 83.5t27.5 83.5t74.5 31.5t74.5 -31.5t27.5 -83.5t-27.5 -83.5t-74.5 -31.5t-74.5 31.5zM413 380l-241 -380h-47l241 380h47zM169.5 217q14.5 20 14.5 53t-14.5 53t-39.5 20t-39.5 -20t-14.5 -53t14.5 -53t39.5 -20t39.5 20zM333.5 26.5
q-27.5 31.5 -27.5 83.5t27.5 83.5t74.5 31.5t74.5 -31.5t27.5 -83.5t-27.5 -83.5t-74.5 -31.5t-74.5 31.5zM447.5 57q14.5 20 14.5 53t-14.5 53t-39.5 20t-39.5 -20t-14.5 -53t14.5 -53t39.5 -20t39.5 20z" />
    <glyph glyph-name="ampersand" unicode="&#x26;" horiz-adv-x="482" 
d="M468 80q-3 -41 -24 -63t-56 -22q-39 0 -95 42q-58 -42 -131 -42q-64 0 -101 28.5t-37 77.5q0 38 22.5 63.5t70.5 41.5q-22 27 -31 47t-9 41q0 40 30.5 65.5t79.5 25.5q52 0 83 -24.5t31 -63.5q0 -34 -25 -62.5t-71 -45.5q44 -45 86 -81q38 44 48 105l56 -12
q-17 -76 -62 -127q38 -27 55 -27q25 0 30 44zM148.5 323q-15.5 -14 -15.5 -35q0 -13 8 -27t30 -37q71 23 71 68q0 21 -14.5 33t-40.5 12q-23 0 -38.5 -14zM250 72q-45 40 -99 97q-66 -21 -66 -68q0 -24 22.5 -39t59.5 -15q44 0 83 25z" />
    <glyph glyph-name="quotesingle" unicode="'" horiz-adv-x="117" 
d="M27 380h63l-7 -136h-50z" />
    <glyph glyph-name="parenleft" unicode="(" horiz-adv-x="236" 
d="M83 25.5q-37 65.5 -37 144.5q0 80 37 145.5t101 99.5l24 -32q-47 -36 -73.5 -91.5t-26.5 -121.5q0 -65 26.5 -120.5t73.5 -92.5l-24 -31q-64 34 -101 99.5z" />
    <glyph glyph-name="parenright" unicode=")" horiz-adv-x="230" 
d="M39 -43q47 37 73.5 92.5t26.5 120.5q0 66 -26.5 121.5t-73.5 91.5l24 32q64 -34 101 -99.5t37 -145.5q0 -79 -37 -144.5t-101 -99.5z" />
    <glyph glyph-name="asterisk" unicode="*" horiz-adv-x="242" 
d="M218 315l-67 -21l41 -57l-30 -22l-41 57l-41 -57l-30 22l41 57l-67 22l11 36l68 -23v71h36v-71l68 23z" />
    <glyph glyph-name="plus" unicode="+" 
d="M316 215v-50h-110v-111h-52v111h-110v50h110v111h52v-111h110z" />
    <glyph glyph-name="comma" unicode="," horiz-adv-x="160" 
d="M51 -35q15 0 21.5 8t6.5 25v2h-38v78h78v-72q0 -39 -18 -58.5t-49 -19.5h-11v37h10z" />
    <glyph glyph-name="hyphen" unicode="-" horiz-adv-x="244" 
d="M35 199h174v-58h-174v58z" />
    <glyph glyph-name="period" unicode="." horiz-adv-x="160" 
d="M41 78h78v-78h-78v78z" />
    <glyph glyph-name="slash" unicode="/" horiz-adv-x="238" 
d="M202 400h56l-222 -420h-56z" />
    <glyph glyph-name="zero" unicode="0" 
d="M69 48q-41 53 -41 142t41 142t111 53t111 -53t41 -142t-41 -142t-111 -53t-111 53zM246.5 85.5q24.5 38.5 24.5 104.5t-24.5 104.5t-66.5 38.5t-66.5 -38.5t-24.5 -104.5t24.5 -104.5t66.5 -38.5t66.5 38.5z" />
    <glyph glyph-name="one" unicode="1" horiz-adv-x="234" 
d="M17 268v47h16q49 0 67 13.5t22 51.5h44v-380h-60v268h-89z" />
    <glyph glyph-name="two" unicode="2" horiz-adv-x="309" 
d="M288 54v-54h-272v39l133 118q37 34 53.5 60.5t16.5 52.5q0 28 -18.5 46t-47.5 18q-35 0 -56 -21.5t-24 -62.5l-56 11q4 57 42 90.5t97 33.5q55 0 89 -30.5t34 -79.5q0 -39 -24.5 -75t-81.5 -85l-70 -61h185z" />
    <glyph glyph-name="three" unicode="3" horiz-adv-x="310" 
d="M253.5 201.5q31.5 -31.5 31.5 -80.5q0 -54 -39.5 -90t-100.5 -36q-50 0 -86.5 21.5t-53.5 61.5l46 27q27 -59 90 -59q39 0 61.5 20t22.5 55q0 32 -18.5 51t-49.5 19q-23 0 -42 -11l-29 32l111 114h-176v54h252v-44l-101 -103q50 0 81.5 -31.5z" />
    <glyph glyph-name="four" unicode="4" horiz-adv-x="328" 
d="M321 145v-51h-60v-94h-58v94h-187v48l172 238h73v-235h60zM78 145h125v173z" />
    <glyph glyph-name="five" unicode="5" horiz-adv-x="317" 
d="M254.5 217.5q36.5 -36.5 36.5 -91.5q0 -58 -40 -94.5t-104 -36.5q-44 0 -78.5 18.5t-52.5 51.5l41 32q13 -23 37 -37t52 -14q38 0 62 22t24 58t-22 58t-58 22q-50 0 -73 -39l-45 15l17 198h213v-55h-166l-8 -95q27 24 72 24q56 0 92.5 -36.5z" />
    <glyph glyph-name="six" unicode="6" horiz-adv-x="333" 
d="M282 210.5q36 -32.5 36 -87.5q0 -56 -40.5 -92t-97.5 -36q-74 0 -112 54t-38 136q0 86 40 143t118 57q37 0 68 -13.5t51 -39.5l-40 -37q-27 39 -78 39q-55 0 -80 -41.5t-24 -101.5q17 25 44 38.5t61 13.5q56 0 92 -32.5zM237 66q23 21 23 54q0 35 -22 55.5t-56 20.5
q-35 0 -58 -20.5t-23 -53.5q0 -35 22 -56t57 -21q34 0 57 21z" />
    <glyph glyph-name="seven" unicode="7" horiz-adv-x="287" 
d="M283 380v-45q-62 -58 -98 -146.5t-36 -188.5h-62q0 92 36.5 180t92.5 145h-208v55h275z" />
    <glyph glyph-name="eight" unicode="8" horiz-adv-x="331" 
d="M288.5 157q17.5 -24 17.5 -56q0 -48 -38 -77t-102 -29t-102 29t-38 77q0 32 17.5 56t49.5 37q-26 12 -41 34.5t-15 50.5q0 48 35 77t94 29t94 -29t35 -77q0 -28 -15 -50.5t-41 -34.5q32 -13 49.5 -37zM113.5 321q-19.5 -17 -19.5 -45t19.5 -45t52.5 -17t52.5 17t19.5 45
t-19.5 45t-52.5 17t-52.5 -17zM225 59.5q22 17.5 22 46.5q0 28 -22 45t-59 17t-59 -17t-22 -45q0 -29 22 -46.5t59 -17.5t59 17.5z" />
    <glyph glyph-name="nine" unicode="9" horiz-adv-x="333" 
d="M265 331q38 -54 38 -136q0 -86 -40 -143t-118 -57q-37 0 -68 13.5t-51 39.5l40 37q27 -39 78 -39q55 0 80 41.5t24 101.5q-17 -25 -44 -38.5t-61 -13.5q-56 0 -92 32.5t-36 87.5q0 56 40.5 92t97.5 36q74 0 112 -54zM209 204.5q23 20.5 23 53.5q0 35 -22 56t-57 21
q-34 0 -57 -21t-23 -54q0 -35 22 -55.5t56 -20.5q35 0 58 20.5z" />
    <glyph glyph-name="colon" unicode=":" horiz-adv-x="158" 
d="M40 78h78v-78h-78v78zM40 300h78v-78h-78v78z" />
    <glyph glyph-name="semicolon" unicode=";" horiz-adv-x="158" 
d="M50 -35q15 0 21.5 8t6.5 25v2h-38v78h78v-72q0 -39 -18 -58.5t-49 -19.5h-11v37h10zM40 300h78v-78h-78v78z" />
    <glyph glyph-name="less" unicode="&#x3c;" 
d="M316 325v-54l-201 -80l201 -79v-57l-272 109v52z" />
    <glyph glyph-name="equal" unicode="=" 
d="M44 147h272v-50h-272v50zM44 283h272v-50h-272v50z" />
    <glyph glyph-name="greater" unicode="&#x3e;" 
d="M44 325l272 -109v-52l-272 -109v54l201 80l-201 79v57z" />
    <glyph glyph-name="question" unicode="?" horiz-adv-x="310" 
d="M133.5 163q9.5 17 40.5 42q27 22 36 35.5t9 32.5q0 28 -17.5 44.5t-46.5 16.5q-34 0 -55.5 -22t-25.5 -60l-55 11q5 56 42 89t95 33q56 0 90 -29.5t34 -78.5q0 -30 -14.5 -53.5t-48.5 -48.5q-23 -17 -32.5 -28.5t-9.5 -24.5v-4h-50q-1 28 8.5 45zM191 78v-78h-78v78h78z
" />
    <glyph glyph-name="at" unicode="@" horiz-adv-x="432" 
d="M413 52v-52q-13 -3 -21 -2q-29 0 -42.5 11t-15.5 37q-16 -23 -44 -36.5t-60 -13.5q-44 0 -71 24t-27 64q0 47 36 68.5t96 29.5q36 6 47 9t11 12q0 23 -26.5 39t-69.5 16q-68 0 -108.5 -42.5t-40.5 -112.5q0 -73 43.5 -115.5t117.5 -42.5q55 0 95 27l21 -41
q-53 -31 -117 -31q-62 0 -109.5 25.5t-73.5 71.5t-26 106q0 58 25.5 104t71 72t103.5 26q70 0 112 -35.5t42 -93.5v-105q0 -19 19 -19h12zM299 65q26 21 26 49v42q-14 -8 -57 -15q-39 -6 -59 -17.5t-20 -36.5q0 -21 13 -32t36 -11q35 0 61 21z" />
    <glyph glyph-name="A" unicode="A" horiz-adv-x="397" 
d="M323 0l-34 88h-182l-34 -88h-66l153 380h77l153 -380h-67zM129 144h138l-69 178z" />
    <glyph glyph-name="B" unicode="B" horiz-adv-x="381" 
d="M338.5 158.5q14.5 -23.5 14.5 -54.5q0 -48 -32.5 -76t-89.5 -28h-174v380h171q54 0 86 -27.5t32 -73.5q0 -28 -12.5 -50t-35.5 -35q26 -12 40.5 -35.5zM118 326v-105h100q66 0 66 53q0 52 -66 52h-100zM290 111q0 57 -71 57h-101v-114h101q71 0 71 57z" />
    <glyph glyph-name="C" unicode="C" horiz-adv-x="387" 
d="M77.5 48q-49.5 53 -49.5 142q0 57 23 101.5t64 69t94 24.5q59 0 101 -29t58 -83l-59 -21q-22 78 -101 78q-52 0 -83.5 -38t-31.5 -102q0 -65 31 -102.5t84 -37.5q79 0 101 78l59 -21q-17 -53 -59 -82.5t-100 -29.5q-82 0 -131.5 53z" />
    <glyph glyph-name="D" unicode="D" horiz-adv-x="412" 
d="M334.5 329q49.5 -51 49.5 -139q0 -85 -50.5 -137.5t-137.5 -52.5h-139v380h139q89 0 138.5 -51zM286.5 91q32.5 36 32.5 99t-32.5 99t-90.5 36h-76v-270h76q58 0 90.5 36z" />
    <glyph glyph-name="E" unicode="E" horiz-adv-x="344" 
d="M120 56h204v-56h-267v380h262v-56h-199v-102h154v-54h-154v-112z" />
    <glyph glyph-name="F" unicode="F" horiz-adv-x="331" 
d="M320 323h-200v-103h155v-55h-155v-165h-63v380h263v-57z" />
    <glyph glyph-name="G" unicode="G" horiz-adv-x="418" 
d="M380 193v-193h-47l-5 57q-43 -62 -123 -62t-128.5 53t-48.5 141t51.5 142t135.5 54q57 0 99 -26.5t61 -75.5l-58 -22q-13 34 -39 51.5t-64 17.5q-55 0 -88 -38t-33 -102q0 -65 31.5 -102.5t84.5 -37.5q41 0 73 24t41 70h-100v49h157z" />
    <glyph glyph-name="H" unicode="H" horiz-adv-x="430" 
d="M310 380h63v-380h-63v166h-190v-166h-63v380h63v-156h190v156z" />
    <glyph glyph-name="I" unicode="I" horiz-adv-x="177" 
d="M57 380h63v-380h-63v380z" />
    <glyph glyph-name="J" unicode="J" horiz-adv-x="275" 
d="M38.5 16q-28.5 21 -39.5 59l53 21q10 -47 55 -47q25 0 39 16.5t14 46.5v268h63v-267q0 -54 -31.5 -86t-85.5 -32q-39 0 -67.5 21z" />
    <glyph glyph-name="K" unicode="K" horiz-adv-x="395" 
d="M309 0l-132 182l-57 -56v-126h-63v380h63v-181l178 181h79l-156 -154l165 -226h-77z" />
    <glyph glyph-name="L" unicode="L" horiz-adv-x="336" 
d="M120 58h201v-58h-264v380h63v-322z" />
    <glyph glyph-name="M" unicode="M" horiz-adv-x="538" 
d="M481 380v-380h-61v308l-116 -308h-70l-116 308v-308h-61v380h97l116 -306l115 306h96z" />
    <glyph glyph-name="N" unicode="N" horiz-adv-x="432" 
d="M315 380h60v-380h-61l-197 281v-281h-60v380h62l196 -279v279z" />
    <glyph glyph-name="O" unicode="O" horiz-adv-x="422" 
d="M78 48q-50 53 -50 142q0 57 23 101.5t65 69t95 24.5q83 0 133 -53t50 -142q0 -57 -23 -101.5t-65 -69t-95 -24.5q-83 0 -133 53zM297 88.5q32 38.5 32 101.5t-32 101.5t-86 38.5t-86 -38.5t-32 -101.5t32 -101.5t86 -38.5t86 38.5z" />
    <glyph glyph-name="P" unicode="P" horiz-adv-x="370" 
d="M314.5 348.5q36.5 -31.5 36.5 -85.5q0 -55 -36.5 -86.5t-98.5 -31.5h-96v-145h-63v380h159q62 0 98.5 -31.5zM267 215q20 16 20 47q0 63 -79 63h-88v-126h88q39 0 59 16z" />
    <glyph glyph-name="Q" unicode="Q" horiz-adv-x="422" 
d="M352.5 60q-41.5 -52 -110.5 -63v-18q0 -30 33 -30q17 0 47 2v-51q-32 -2 -51 -2q-43 0 -65 19.5t-22 64.5v15q-72 8 -114 60t-42 133q0 57 23 101.5t65 69t95 24.5q83 0 133 -53t50 -142q0 -78 -41.5 -130zM125 88.5q32 -38.5 86 -38.5t86 38.5t32 101.5t-32 101.5
t-86 38.5t-86 -38.5t-32 -101.5t32 -101.5z" />
    <glyph glyph-name="R" unicode="R" horiz-adv-x="388" 
d="M209 148h-90v-148h-62v380h157q62 0 98.5 -31.5t36.5 -84.5q0 -39 -19.5 -66.5t-55.5 -40.5l96 -157h-72zM119 200h89q76 0 76 63q0 62 -76 62h-89v-125z" />
    <glyph glyph-name="S" unicode="S" horiz-adv-x="348" 
d="M88.5 9q-39.5 14 -68.5 41l37 48q24 -23 55.5 -35.5t65.5 -12.5q39 0 61 14t22 39q0 20 -18.5 32t-67.5 26q-46 13 -74.5 25.5t-47.5 34.5t-19 56q0 49 39.5 78.5t104.5 29.5q79 0 137 -45l-35 -48q-46 38 -106 38q-35 0 -56 -13.5t-21 -36.5q0 -21 20 -33.5t70 -25.5
q70 -18 103.5 -42.5t33.5 -69.5q0 -53 -40.5 -83.5t-110.5 -30.5q-45 0 -84.5 14z" />
    <glyph glyph-name="T" unicode="T" horiz-adv-x="354" 
d="M344 380v-58h-135v-322h-64v322h-135v58h334z" />
    <glyph glyph-name="U" unicode="U" horiz-adv-x="424" 
d="M95.5 37q-43.5 42 -43.5 113v230h63v-229q0 -46 26 -73t71 -27t71 27t26 73v229h63v-230q0 -71 -43.5 -113t-116.5 -42t-116.5 42z" />
    <glyph glyph-name="V" unicode="V" horiz-adv-x="390" 
d="M310 380h67l-144 -380h-77l-143 380h67l116 -315z" />
    <glyph glyph-name="W" unicode="W" horiz-adv-x="561" 
d="M481 380h62l-110 -380h-66l-87 298l-86 -298h-66l-110 380h65l82 -290l82 290h67l83 -292z" />
    <glyph glyph-name="X" unicode="X" horiz-adv-x="378" 
d="M369 0h-73l-108 150l-106 -150h-73l143 194l-134 186h74l98 -139l99 139h71l-133 -184z" />
    <glyph glyph-name="Y" unicode="Y" horiz-adv-x="371" 
d="M367 380l-150 -230v-150h-63v152l-150 228h73l110 -171l109 171h71z" />
    <glyph glyph-name="Z" unicode="Z" horiz-adv-x="353" 
d="M329 380v-50l-223 -272h223v-58h-306v50l224 272h-213v58h295z" />
    <glyph glyph-name="bracketleft" unicode="[" horiz-adv-x="236" 
d="M197 350h-83v-360h83v-50h-140v460h140v-50z" />
    <glyph glyph-name="backslash" unicode="\" horiz-adv-x="238" 
d="M258 -20h-56l-222 420h56z" />
    <glyph glyph-name="bracketright" unicode="]" horiz-adv-x="240" 
d="M203 400v-460h-140v50h83v360h-83v50h140z" />
    <glyph glyph-name="asciicircum" unicode="^" 
d="M306 190h-55l-71 141l-72 -141h-54l98 190h56z" />
    <glyph glyph-name="underscore" unicode="_" horiz-adv-x="260" 
d="M257 -4v-56h-254v56h254z" />
    <glyph glyph-name="grave" unicode="`" horiz-adv-x="160" 
d="M76 328l-59 73h72l30 -73h-43z" />
    <glyph glyph-name="a" unicode="a" horiz-adv-x="322" 
d="M302 52v-52q-6 -2 -21 -2q-28 0 -41.5 11t-16.5 37q-16 -23 -44 -37t-61 -14q-44 0 -71 24.5t-27 63.5q0 49 35.5 69.5t93.5 29.5q38 5 52.5 11t14.5 22q0 18 -17.5 29t-45.5 11q-25 0 -48.5 -10.5t-41.5 -29.5l-37 39q54 51 130 51q54 0 85 -26.5t31 -72.5v-135
q0 -19 19 -19h11zM188.5 65q25.5 21 25.5 49v39q-7 -5 -22.5 -8.5t-35.5 -6.5q-38 -6 -57.5 -15.5t-19.5 -35.5q0 -21 13 -32t36 -11q35 0 60.5 21z" />
    <glyph glyph-name="b" unicode="b" horiz-adv-x="362" 
d="M301 262.5q36 -42.5 36 -112.5q0 -69 -36.5 -112t-94.5 -43q-33 0 -59.5 13t-43.5 38l-4 -46h-52v400h60v-142q38 47 99 47q59 0 95 -42.5zM253 74.5q23 28.5 23 75.5t-23 75.5t-63 28.5t-63.5 -28.5t-23.5 -75.5t23.5 -75.5t63.5 -28.5t63 28.5z" />
    <glyph glyph-name="c" unicode="c" horiz-adv-x="326" 
d="M66.5 38q-41.5 43 -41.5 112t41.5 112t108.5 43q49 0 85 -24t49 -66l-57 -18q-10 27 -30 42t-47 15q-41 0 -65 -28.5t-24 -75.5t24 -75.5t65 -28.5q27 0 47 15t30 42l57 -18q-13 -42 -49 -66t-85 -24q-67 0 -108.5 43z" />
    <glyph glyph-name="d" unicode="d" horiz-adv-x="362" 
d="M315 400v-400h-52l-4 47q-18 -25 -44.5 -38.5t-58.5 -13.5q-59 0 -95 42.5t-36 112.5q0 69 36.5 112t94.5 43q31 0 56.5 -11.5t42.5 -33.5v140h60zM235.5 74.5q23.5 28.5 23.5 75.5t-23.5 75.5t-63.5 28.5t-63 -28.5t-23 -75.5t23 -75.5t63 -28.5t63.5 28.5z" />
    <glyph glyph-name="e" unicode="e" horiz-adv-x="341" 
d="M114.5 68.5q24.5 -22.5 63.5 -22.5q59 0 89 39l41 -36q-20 -24 -52.5 -39t-77.5 -15q-72 0 -112.5 43t-40.5 112t41 112t107 43t105.5 -42t39.5 -113q0 -12 -2 -19h-231q5 -40 29.5 -62.5zM115.5 234q-22.5 -21 -29.5 -57h171q-6 37 -28 57.5t-56 20.5q-35 0 -57.5 -21z
" />
    <glyph glyph-name="f" unicode="f" horiz-adv-x="234" 
d="M145.5 346.5q-9.5 -9.5 -9.5 -26.5v-20h86v-51h-86v-249h-60v249h-62v51h62v21q0 40 26 63t71 23t82 -25l-28 -45q-25 19 -56 19q-16 0 -25.5 -9.5z" />
    <glyph glyph-name="g" unicode="g" horiz-adv-x="362" 
d="M315 300l-1 -269q0 -61 -39 -98.5t-107 -37.5q-79 0 -122 43l32 42q18 -18 39 -26t50 -8q47 0 69 23.5t22 62.5v29q-38 -48 -102 -48q-59 0 -95 40t-36 106q0 65 36.5 105.5t94.5 40.5q33 0 59 -12.5t44 -35.5l4 43h52zM235.5 88q23.5 26 23.5 70t-23.5 70t-63.5 26
q-39 0 -62.5 -26t-23.5 -70t23.5 -70t62.5 -26q40 0 63.5 26z" />
    <glyph glyph-name="h" unicode="h" horiz-adv-x="359" 
d="M287 273.5q30 -31.5 30 -83.5v-190h-60v174q0 38 -17.5 59t-48.5 21q-35 0 -59.5 -23.5t-24.5 -58.5v-172h-60v400h60v-142q18 22 44 34.5t57 12.5q49 0 79 -31.5z" />
    <glyph glyph-name="i" unicode="i" horiz-adv-x="164" 
d="M52 300h60v-300h-60v300zM49 402h66v-60h-66v60z" />
    <glyph glyph-name="j" unicode="j" horiz-adv-x="160" 
d="M0 -100v54q8 -1 23 -1q30 0 30 31v316h60v-317q0 -85 -83 -85q-12 0 -30 2zM50 402h66v-60h-66v60z" />
    <glyph glyph-name="k" unicode="k" horiz-adv-x="325" 
d="M251 0l-101 139l-43 -41v-98h-60v400h60v-234l135 134h76l-125 -120l131 -180h-73z" />
    <glyph glyph-name="l" unicode="l" horiz-adv-x="154" 
d="M47 400h60v-400h-60v400z" />
    <glyph glyph-name="m" unicode="m" horiz-adv-x="555" 
d="M484 273.5q29 -31.5 29 -83.5v-190h-60v174q0 38 -16 59t-47 21q-35 0 -57.5 -23t-22.5 -59v-172h-60v174q0 39 -16 59.5t-47 20.5q-35 0 -57.5 -23t-22.5 -59v-172h-60v300h52l4 -45q16 24 42 37t59 13t57.5 -15.5t37.5 -42.5q16 27 44 42.5t63 15.5q49 0 78 -31.5z" />
    <glyph glyph-name="n" unicode="n" 
d="M287.5 273q30.5 -32 30.5 -83v-190h-60v174q0 38 -17.5 59t-48.5 21q-36 0 -60.5 -23t-24.5 -59v-172h-60v300h52l4 -47q18 24 45.5 38t60.5 14q48 0 78.5 -32z" />
    <glyph glyph-name="o" unicode="o" horiz-adv-x="354" 
d="M66.5 37.5q-41.5 42.5 -41.5 112.5q0 69 42 112t110 43q69 0 110.5 -42.5t41.5 -112.5q0 -69 -42 -112t-110 -43q-69 0 -110.5 42.5zM243 74.5q25 28.5 25 75.5t-25 75.5t-66 28.5t-66 -28.5t-25 -75.5t25 -75.5t66 -28.5t66 28.5z" />
    <glyph glyph-name="p" unicode="p" horiz-adv-x="362" 
d="M301 262.5q36 -42.5 36 -112.5q0 -69 -36.5 -112t-94.5 -43q-31 0 -56.5 11.5t-42.5 33.5v-140h-60v400h52l4 -47q18 25 44.5 38.5t58.5 13.5q59 0 95 -42.5zM253 74.5q23 28.5 23 75.5t-23 75.5t-63 28.5t-63.5 -28.5t-23.5 -75.5t23.5 -75.5t63.5 -28.5t63 28.5z" />
    <glyph glyph-name="q" unicode="q" horiz-adv-x="362" 
d="M315 300v-400h-60v142q-38 -47 -99 -47q-59 0 -95 42.5t-36 112.5q0 69 36.5 112t94.5 43q33 0 59.5 -13t43.5 -38l4 46h52zM235.5 74.5q23.5 28.5 23.5 75.5t-23.5 75.5t-63.5 28.5t-63 -28.5t-23 -75.5t23 -75.5t63 -28.5t63.5 28.5z" />
    <glyph glyph-name="r" unicode="r" horiz-adv-x="241" 
d="M231 302v-57q-26 2 -40 2q-37 0 -60.5 -21.5t-23.5 -57.5v-168h-60v300h52l4 -48q17 25 44.5 39t60.5 14q11 0 23 -3z" />
    <glyph glyph-name="s" unicode="s" horiz-adv-x="288" 
d="M16 41l33 43q39 -37 98 -37q29 0 45.5 9t16.5 26q0 15 -15 24t-56 19q-59 15 -84 36t-25 55q0 40 32.5 64.5t85.5 24.5q63 0 114 -37l-34 -45q-37 31 -83 31q-26 0 -41.5 -9t-15.5 -25q0 -14 14.5 -23t52.5 -19q62 -16 87.5 -37t25.5 -56q0 -41 -33 -65.5t-89 -24.5
q-78 0 -129 46z" />
    <glyph glyph-name="t" unicode="t" horiz-adv-x="248" 
d="M132 249v-158q0 -22 10 -31t33 -9q25 0 49 6v-55q-28 -7 -61 -7q-44 0 -67.5 21.5t-23.5 62.5v170h-59v51h59l8 80h52v-80h92v-51h-92z" />
    <glyph glyph-name="u" unicode="u" 
d="M313 300v-300h-52l-4 47q-18 -24 -45.5 -38t-60.5 -14q-48 0 -78.5 32t-30.5 83v190h60v-174q0 -38 17.5 -59t48.5 -21q36 0 60.5 23t24.5 59v172h60z" />
    <glyph glyph-name="v" unicode="v" horiz-adv-x="324" 
d="M252 300h63l-118 -300h-70l-118 300h66l88 -239z" />
    <glyph glyph-name="w" unicode="w" horiz-adv-x="474" 
d="M401 300h59l-92 -300h-65l-66 220l-65 -220h-66l-92 300h62l65 -232l67 232h59l68 -232z" />
    <glyph glyph-name="x" unicode="x" horiz-adv-x="331" 
d="M318 0h-72l-81 112l-82 -112h-70l115 153l-109 147h71l77 -106l78 106h68l-109 -147z" />
    <glyph glyph-name="y" unicode="y" horiz-adv-x="328" 
d="M322 300l-111 -311q-15 -43 -41 -68.5t-62 -25.5q-42 0 -64 25.5t-22 62.5l55 9q-2 -43 32 -43q22 0 39 31l-141 320h66l105 -251l82 251h62z" />
    <glyph glyph-name="z" unicode="z" horiz-adv-x="296" 
d="M95 51h181v-51h-257v49l178 200h-169v51h244v-49z" />
    <glyph glyph-name="braceleft" unicode="{" horiz-adv-x="236" 
d="M97 170q34 -14 34 -64v-97q0 -19 19 -19h46v-50h-58q-31 0 -47.5 16.5t-16.5 47.5v100q0 21 -6.5 31t-21.5 10h-16v50h16q15 0 21.5 10t6.5 31v100q0 31 16.5 47.5t47.5 16.5h58v-50h-46q-19 0 -19 -19v-97q0 -50 -34 -64z" />
    <glyph glyph-name="bar" unicode="|" horiz-adv-x="171" 
d="M57 400h57v-460h-57v460z" />
    <glyph glyph-name="braceright" unicode="}" horiz-adv-x="230" 
d="M190 195v-50h-16q-15 0 -21.5 -10t-6.5 -31v-100q0 -31 -16.5 -47.5t-47.5 -16.5h-58v50h46q19 0 19 19v97q0 50 34 64q-34 14 -34 64v97q0 19 -19 19h-46v50h58q31 0 47.5 -16.5t16.5 -47.5v-100q0 -21 6.5 -31t21.5 -10h16z" />
    <glyph glyph-name="asciitilde" unicode="~" 
d="M65.5 218q21.5 18 53.5 18q19 0 34 -6t33 -17q16 -9 28.5 -14t26.5 -5q28 0 51 38l37 -29q-35 -59 -88 -59q-19 0 -34 6t-33 17q-16 9 -28.5 14t-26.5 5q-28 0 -51 -37l-37 29q13 22 34.5 40z" />
    <glyph glyph-name="exclamdown" unicode="&#xa1;" horiz-adv-x="180" 
d="M51 222v78h78v-78h-78zM66 174h48l11 -254h-70z" />
    <glyph glyph-name="cent" unicode="&#xa2;" horiz-adv-x="328" 
d="M230 106q16 14 24 37l55 -17q-11 -39 -42.5 -62.5t-74.5 -27.5v-36h-40v36q-57 8 -92 49.5t-35 104.5t35 104.5t92 49.5v36h40v-36q43 -4 74.5 -27.5t42.5 -62.5l-56 -17q-8 23 -23.5 37t-37.5 18v-204q22 4 38 18zM102 123q18 -27 50 -34v202q-32 -7 -50 -34t-18 -67
t18 -67z" />
    <glyph glyph-name="sterling" unicode="&#xa3;" 
d="M338 85q-2 -46 -21.5 -68t-57.5 -22q-30 0 -54 12.5t-54 35.5q-13 -22 -33 -35t-43 -13q-30 0 -48.5 17.5t-18.5 45.5q0 30 20 47t52 17q21 0 38 -7q-2 27 -15 56h-72v38h52q-20 38 -20 72q0 48 33.5 76t89.5 28q53 0 86.5 -27.5t39.5 -73.5l-55 -15q-5 32 -23.5 49
t-48.5 17q-28 0 -46 -15.5t-18 -41.5q0 -16 5.5 -31.5t16.5 -37.5h99v-38h-83q11 -31 11 -57q0 -9 -2 -25q6 -5 23.5 -17t32 -18.5t27.5 -6.5q16 0 23 11t9 35zM114 70q-19 11 -36 11q-13 0 -21 -6t-8 -17q0 -10 8 -15.5t19 -5.5q28 0 38 33z" />
    <glyph glyph-name="currency" unicode="&#xa4;" 
d="M275 126l52 -52l-31 -31l-52 52q-30 -19 -64 -19t-64 19l-52 -52l-31 31l52 52q-19 30 -19 64t19 64l-52 52l31 31l52 -52q30 19 64 19t64 -19l52 52l31 -31l-52 -52q19 -30 19 -64t-19 -64zM134.5 144.5q18.5 -18.5 45.5 -18.5t45.5 18.5t18.5 45.5t-18.5 45.5
t-45.5 18.5t-45.5 -18.5t-18.5 -45.5t18.5 -45.5z" />
    <glyph glyph-name="yen" unicode="&#xa5;" horiz-adv-x="378" 
d="M367 380l-126 -193h58v-38h-82v-42h82v-38h-82v-69h-63v69h-75v38h75v42h-75v38h51l-126 193h73l109 -171l109 171h72z" />
    <glyph glyph-name="brokenbar" unicode="&#xa6;" horiz-adv-x="171" 
d="M57 400h57v-180h-57v180zM114 -60h-57v180h57v-180z" />
    <glyph glyph-name="section" unicode="&#xa7;" horiz-adv-x="302" 
d="M272 20q0 -38 -33.5 -61.5t-88.5 -23.5q-38 0 -72 11.5t-60 34.5l32 42q19 -19 45.5 -28t55.5 -9q26 0 45 8t19 28q0 18 -18 27t-60 20q-56 15 -85 34t-29 58q0 27 17 45.5t46 27.5q-26 11 -39 27t-13 40q0 39 32 61.5t86 22.5q62 0 113 -37l-31 -46q-37 32 -85 32
q-24 0 -41 -8t-17 -27q0 -17 17 -25.5t55 -18.5q36 -9 59.5 -18t40.5 -27.5t17 -48.5q0 -27 -16 -45t-43 -27q51 -21 51 -69zM106.5 129q26.5 -11 55.5 -11q24 0 43 9.5t19 29.5q0 23 -26.5 34t-55.5 11q-24 0 -43 -9.5t-19 -29.5q0 -23 26.5 -34z" />
    <glyph glyph-name="dieresis" unicode="&#xa8;" horiz-adv-x="160" 
d="M16 402h65v-60h-65v60zM119 402h65v-60h-65v60z" />
    <glyph glyph-name="copyright" unicode="&#xa9;" horiz-adv-x="446" 
d="M122.5 20q-44.5 25 -69.5 69.5t-25 100.5t25 100.5t69.5 69.5t100.5 25t100.5 -25t69.5 -69.5t25 -100.5t-25 -100.5t-69.5 -69.5t-100.5 -25t-100.5 25zM335 76.5q44 44.5 44 113.5t-44 113.5t-112 44.5t-112 -44.5t-44 -113.5t44 -113.5t112 -44.5t112 44.5z
M151.5 113.5q-28.5 29.5 -28.5 76.5t28.5 76.5t74.5 29.5q33 0 57.5 -16.5t33.5 -44.5l-48 -17q-11 32 -43 32q-24 0 -37.5 -16t-13.5 -44t13.5 -44t37.5 -16q32 0 43 32l48 -17q-9 -28 -33.5 -44.5t-57.5 -16.5q-46 0 -74.5 29.5z" />
    <glyph glyph-name="guillemotleft" unicode="&#xab;" horiz-adv-x="338" 
d="M158 286v-65l-71 -50l71 -50v-67l-122 86v60zM293 286v-65l-71 -50l71 -50v-67l-122 86v60z" />
    <glyph glyph-name="logicalnot" unicode="&#xac;" 
d="M316 215v-162h-52v112h-220v50h272z" />
    <glyph glyph-name="registered" unicode="&#xae;" horiz-adv-x="276" 
d="M210 357q28 -28 28 -72q0 -43 -28 -71.5t-72 -28.5q-43 0 -71.5 28.5t-28.5 71.5q0 44 28.5 72t71.5 28q44 0 72 -28zM191.5 231.5q21.5 21.5 21.5 53.5t-21.5 53.5t-53.5 21.5t-53.5 -21.5t-21.5 -53.5t21.5 -53.5t53.5 -21.5t53.5 21.5zM182 260h1v-25h-13
q-10 0 -15.5 5.5t-5.5 15.5v4q0 8 -8 8h-17v-33h-27v102h47q16 0 26.5 -9t10.5 -23q0 -18 -14 -24q10 -3 10 -15v-1q0 -5 5 -5zM124 311v-17h17q12 0 12 8q0 9 -12 9h-17z" />
    <glyph glyph-name="macron" unicode="&#xaf;" horiz-adv-x="160" 
d="M18 400h164v-46h-164v46z" />
    <glyph glyph-name="degree" unicode="&#xb0;" horiz-adv-x="228" 
d="M54.5 243q-24.5 24 -24.5 59t24.5 59t59.5 24t59 -24t24 -59t-24 -59t-59 -24t-59.5 24zM144.5 271q12.5 12 12.5 31q0 18 -12.5 30.5t-30.5 12.5t-30.5 -12.5t-12.5 -30.5q0 -19 12.5 -31t30.5 -12t30.5 12z" />
    <glyph glyph-name="plusminus" unicode="&#xb1;" 
d="M316 239v-50h-110v-111h-52v111h-110v50h110v111h52v-111h110zM44 47h272v-50h-272v50z" />
    <glyph glyph-name="uni00B2" unicode="&#xb2;" horiz-adv-x="234" 
d="M210 278v-42h-182v32l86 64q43 33 43 60q0 14 -10.5 22.5t-28.5 8.5q-20 0 -32 -11t-14 -31l-44 6q3 35 27.5 55.5t64.5 20.5q38 0 61 -18t23 -48q0 -23 -16 -44.5t-55 -50.5l-31 -24h108z" />
    <glyph glyph-name="uni00B3" unicode="&#xb3;" horiz-adv-x="234" 
d="M186 354.5q19 -18.5 19 -45.5q0 -33 -26.5 -54.5t-65.5 -21.5q-32 0 -57.5 14t-36.5 38l35 22q17 -34 59 -34q21 0 33.5 10t12.5 26t-11 25.5t-29 9.5q-14 0 -26 -6l-20 23l63 58h-105v41h166v-34l-60 -52q30 -1 49 -19.5z" />
    <glyph glyph-name="acute" unicode="&#xb4;" horiz-adv-x="160" 
d="M111 401h72l-59 -73h-43z" />
    <glyph glyph-name="paragraph" unicode="&#xb6;" horiz-adv-x="386" 
d="M219 -100h-61v280h-8q-53 0 -84 27t-31 73t31 73t84 27h69v-480zM268 380h61v-480h-61v480z" />
    <glyph glyph-name="periodcentered" unicode="&#xb7;" horiz-adv-x="160" 
d="M41 209h78v-78h-78v78z" />
    <glyph glyph-name="cedilla" unicode="&#xb8;" horiz-adv-x="160" 
d="M160 -32.5q14 -11.5 14 -30.5q0 -21 -19 -34t-50 -13q-37 0 -65 20l19 30q23 -17 46 -17q12 0 19 4t7 11q0 6 -5.5 9.5t-13.5 3.5q-12 0 -20 -5l-29 15l26 42h39l-15 -25q4 1 11 1q22 0 36 -11.5z" />
    <glyph glyph-name="uni00B9" unicode="&#xb9;" horiz-adv-x="190" 
d="M89 236v148h-61v38h15q32 0 43.5 8t13.5 30h35v-224h-46z" />
    <glyph glyph-name="guillemotright" unicode="&#xbb;" horiz-adv-x="338" 
d="M46 219v67l122 -86v-60l-122 -86v65l70 50zM181 286l122 -86v-60l-122 -86v65l70 50l-70 50v67z" />
    <glyph glyph-name="onequarter" unicode="&#xbc;" horiz-adv-x="444" 
d="M89 156v148h-61v38h15q32 0 43.5 8t13.5 30h35v-224h-46zM313 380h47l-241 -380h-47zM429 91v-40h-37v-51h-44v51h-121v37l110 136h55v-133h37zM275 91h73v91z" />
    <glyph glyph-name="onehalf" unicode="&#xbd;" horiz-adv-x="444" 
d="M89 156v148h-61v38h15q32 0 43.5 8t13.5 30h35v-224h-46zM297 380h47l-241 -380h-47zM420 42v-42h-182v32l86 64q43 33 43 60q0 14 -10.5 22.5t-28.5 8.5q-20 0 -32 -11t-14 -31l-44 6q3 35 27.5 55.5t64.5 20.5q38 0 61 -18t23 -48q0 -23 -16 -44.5t-55 -50.5l-31 -24
h108z" />
    <glyph glyph-name="threequarters" unicode="&#xbe;" horiz-adv-x="488" 
d="M186 274.5q19 -18.5 19 -45.5q0 -33 -26.5 -54.5t-65.5 -21.5q-32 0 -57.5 14t-36.5 38l35 22q17 -34 59 -34q21 0 33.5 10t12.5 26t-11 25.5t-29 9.5q-14 0 -26 -6l-20 23l63 58h-105v41h166v-34l-60 -52q30 -1 49 -19.5zM357 380h47l-241 -380h-47zM473 91v-40h-37v-51
h-44v51h-121v37l110 136h55v-133h37zM319 91h73v91z" />
    <glyph glyph-name="questiondown" unicode="&#xbf;" horiz-adv-x="310" 
d="M119 300h78v-78h-78v78zM176.5 137q-9.5 -17 -40.5 -42q-27 -22 -36 -35.5t-9 -32.5q0 -29 17 -45t47 -16q34 0 55.5 22t24.5 60l56 -11q-5 -56 -42.5 -89t-95.5 -33q-56 0 -89.5 29.5t-33.5 78.5q0 30 14.5 53.5t48.5 48.5q22 17 31.5 29t9.5 24v4h50q2 -28 -7.5 -45z
" />
    <glyph glyph-name="Agrave" unicode="&#xc0;" horiz-adv-x="397" 
d="M323 0l-34 88h-182l-34 -88h-66l153 380h77l153 -380h-67zM129 144h138l-69 178zM175 408l-59 73h72l30 -73h-43z" />
    <glyph glyph-name="Aacute" unicode="&#xc1;" horiz-adv-x="397" 
d="M323 0l-34 88h-182l-34 -88h-66l153 380h77l153 -380h-67zM129 144h138l-69 178zM210 481h72l-59 -73h-43z" />
    <glyph glyph-name="Acircumflex" unicode="&#xc2;" horiz-adv-x="397" 
d="M323 0l-34 88h-182l-34 -88h-66l153 380h77l153 -380h-67zM129 144h138l-69 178zM291 408h-54l-37 38l-37 -38h-53l59 73h62z" />
    <glyph glyph-name="Atilde" unicode="&#xc3;" horiz-adv-x="397" 
d="M323 0l-34 88h-182l-34 -88h-66l153 380h77l153 -380h-67zM129 144h138l-69 178zM269.5 428q-15.5 -12 -35.5 -12q-16 0 -40 15q-16 10 -24 10q-17 0 -27 -24l-36 19q9 24 24.5 36t34.5 12q17 0 41 -15q16 -10 24 -10q16 0 26 24l36 -19q-8 -24 -23.5 -36z" />
    <glyph glyph-name="Adieresis" unicode="&#xc4;" horiz-adv-x="397" 
d="M323 0l-34 88h-182l-34 -88h-66l153 380h77l153 -380h-67zM129 144h138l-69 178zM115 482h65v-60h-65v60zM218 482h65v-60h-65v60z" />
    <glyph glyph-name="Aring" unicode="&#xc5;" horiz-adv-x="397" 
d="M289 88h-182l-34 -88h-66l151 376q-26 20 -26 53q0 29 19 47.5t48 18.5t48 -18.5t19 -47.5q0 -35 -27 -54l151 -375h-67zM178 450q-8 -8 -8 -21t8 -21t21 -8t21 8t8 21t-8 21t-21 8t-21 -8zM129 144h138l-69 178z" />
    <glyph glyph-name="AE" unicode="&#xc6;" horiz-adv-x="494" 
d="M339 56h135v-56h-180l-32 89h-159l-32 -89h-64l141 380h321v-56h-229l38 -102h151v-54h-131zM122 143h120l-60 169z" />
    <glyph glyph-name="Ccedilla" unicode="&#xc7;" horiz-adv-x="387" 
d="M309 128l59 -21q-15 -48 -52 -77t-88 -34l-11 -18q4 1 11 1q22 0 36 -11.5t14 -30.5q0 -21 -19 -34t-50 -13q-37 0 -65 20l19 30q23 -17 46 -17q12 0 19 4t7 11q0 6 -5.5 9.5t-13.5 3.5q-12 0 -20 -5l-29 15l22 35q-74 7 -117.5 59t-43.5 135q0 57 23 101.5t64 69
t94 24.5q59 0 101 -29t58 -83l-59 -21q-22 78 -101 78q-52 0 -83.5 -38t-31.5 -102q0 -65 31 -102.5t84 -37.5q79 0 101 78z" />
    <glyph glyph-name="Egrave" unicode="&#xc8;" horiz-adv-x="344" 
d="M120 56h204v-56h-267v380h262v-56h-199v-102h154v-54h-154v-112zM164 408l-59 73h72l30 -73h-43z" />
    <glyph glyph-name="Eacute" unicode="&#xc9;" horiz-adv-x="344" 
d="M120 56h204v-56h-267v380h262v-56h-199v-102h154v-54h-154v-112zM199 481h72l-59 -73h-43z" />
    <glyph glyph-name="Ecircumflex" unicode="&#xca;" horiz-adv-x="344" 
d="M120 56h204v-56h-267v380h262v-56h-199v-102h154v-54h-154v-112zM280 408h-54l-37 38l-37 -38h-53l59 73h62z" />
    <glyph glyph-name="Edieresis" unicode="&#xcb;" horiz-adv-x="344" 
d="M120 56h204v-56h-267v380h262v-56h-199v-102h154v-54h-154v-112zM104 482h65v-60h-65v60zM207 482h65v-60h-65v60z" />
    <glyph glyph-name="Igrave" unicode="&#xcc;" horiz-adv-x="177" 
d="M57 380h63v-380h-63v380zM65 408l-59 73h72l30 -73h-43z" />
    <glyph glyph-name="Iacute" unicode="&#xcd;" horiz-adv-x="177" 
d="M57 380h63v-380h-63v380zM100 481h72l-59 -73h-43z" />
    <glyph glyph-name="Icircumflex" unicode="&#xce;" horiz-adv-x="177" 
d="M57 380h63v-380h-63v380zM181 408h-54l-37 38l-37 -38h-53l59 73h62z" />
    <glyph glyph-name="Idieresis" unicode="&#xcf;" horiz-adv-x="177" 
d="M57 380h63v-380h-63v380zM5 482h65v-60h-65v60zM108 482h65v-60h-65v60z" />
    <glyph glyph-name="Eth" unicode="&#xd0;" horiz-adv-x="412" 
d="M334.5 329q49.5 -51 49.5 -139q0 -85 -50.5 -137.5t-137.5 -52.5h-139v171h-39v48h39v161h139q89 0 138.5 -51zM286.5 91q32.5 36 32.5 99t-32.5 99t-90.5 36h-76v-106h70v-48h-70v-116h76q58 0 90.5 36z" />
    <glyph glyph-name="Ntilde" unicode="&#xd1;" horiz-adv-x="432" 
d="M315 380h60v-380h-61l-197 281v-281h-60v380h62l196 -279v279zM288.5 428q-15.5 -12 -35.5 -12q-16 0 -40 15q-16 10 -24 10q-17 0 -27 -24l-36 19q9 24 24.5 36t34.5 12q17 0 41 -15q16 -10 24 -10q16 0 26 24l36 -19q-8 -24 -23.5 -36z" />
    <glyph glyph-name="Ograve" unicode="&#xd2;" horiz-adv-x="422" 
d="M78 48q-50 53 -50 142q0 57 23 101.5t65 69t95 24.5q83 0 133 -53t50 -142q0 -57 -23 -101.5t-65 -69t-95 -24.5q-83 0 -133 53zM297 88.5q32 38.5 32 101.5t-32 101.5t-86 38.5t-86 -38.5t-32 -101.5t32 -101.5t86 -38.5t86 38.5zM187 408l-59 73h72l30 -73h-43z" />
    <glyph glyph-name="Oacute" unicode="&#xd3;" horiz-adv-x="422" 
d="M78 48q-50 53 -50 142q0 57 23 101.5t65 69t95 24.5q83 0 133 -53t50 -142q0 -57 -23 -101.5t-65 -69t-95 -24.5q-83 0 -133 53zM297 88.5q32 38.5 32 101.5t-32 101.5t-86 38.5t-86 -38.5t-32 -101.5t32 -101.5t86 -38.5t86 38.5zM222 481h72l-59 -73h-43z" />
    <glyph glyph-name="Ocircumflex" unicode="&#xd4;" horiz-adv-x="422" 
d="M78 48q-50 53 -50 142q0 57 23 101.5t65 69t95 24.5q83 0 133 -53t50 -142q0 -57 -23 -101.5t-65 -69t-95 -24.5q-83 0 -133 53zM297 88.5q32 38.5 32 101.5t-32 101.5t-86 38.5t-86 -38.5t-32 -101.5t32 -101.5t86 -38.5t86 38.5zM303 408h-54l-37 38l-37 -38h-53l59 73
h62z" />
    <glyph glyph-name="Otilde" unicode="&#xd5;" horiz-adv-x="422" 
d="M78 48q-50 53 -50 142q0 57 23 101.5t65 69t95 24.5q83 0 133 -53t50 -142q0 -57 -23 -101.5t-65 -69t-95 -24.5q-83 0 -133 53zM297 88.5q32 38.5 32 101.5t-32 101.5t-86 38.5t-86 -38.5t-32 -101.5t32 -101.5t86 -38.5t86 38.5zM281.5 428q-15.5 -12 -35.5 -12
q-16 0 -40 15q-16 10 -24 10q-17 0 -27 -24l-36 19q9 24 24.5 36t34.5 12q17 0 41 -15q16 -10 24 -10q16 0 26 24l36 -19q-8 -24 -23.5 -36z" />
    <glyph glyph-name="Odieresis" unicode="&#xd6;" horiz-adv-x="422" 
d="M78 48q-50 53 -50 142q0 57 23 101.5t65 69t95 24.5q83 0 133 -53t50 -142q0 -57 -23 -101.5t-65 -69t-95 -24.5q-83 0 -133 53zM297 88.5q32 38.5 32 101.5t-32 101.5t-86 38.5t-86 -38.5t-32 -101.5t32 -101.5t86 -38.5t86 38.5zM127 482h65v-60h-65v60zM230 482h65
v-60h-65v60z" />
    <glyph glyph-name="multiply" unicode="&#xd7;" 
d="M305 279l-89 -89l89 -89l-36 -36l-89 89l-89 -89l-36 36l89 89l-89 89l36 36l89 -89l89 89z" />
    <glyph glyph-name="Oslash" unicode="&#xd8;" horiz-adv-x="422" 
d="M394 190q0 -57 -23 -101.5t-65 -69t-95 -24.5q-58 0 -102 27l-21 -27h-59l45 58q-46 52 -46 137q0 57 23 101.5t65 69t95 24.5q58 0 102 -27l21 27h59l-45 -58q46 -52 46 -137zM114 104l162 207q-28 19 -65 19q-54 0 -86 -38.5t-32 -101.5q0 -51 21 -86zM297 88.5
q32 38.5 32 101.5q0 52 -21 86l-162 -207q28 -19 65 -19q54 0 86 38.5z" />
    <glyph glyph-name="Ugrave" unicode="&#xd9;" horiz-adv-x="424" 
d="M95.5 37q-43.5 42 -43.5 113v230h63v-229q0 -46 26 -73t71 -27t71 27t26 73v229h63v-230q0 -71 -43.5 -113t-116.5 -42t-116.5 42zM188 408l-59 73h72l30 -73h-43z" />
    <glyph glyph-name="Uacute" unicode="&#xda;" horiz-adv-x="424" 
d="M95.5 37q-43.5 42 -43.5 113v230h63v-229q0 -46 26 -73t71 -27t71 27t26 73v229h63v-230q0 -71 -43.5 -113t-116.5 -42t-116.5 42zM223 481h72l-59 -73h-43z" />
    <glyph glyph-name="Ucircumflex" unicode="&#xdb;" horiz-adv-x="424" 
d="M95.5 37q-43.5 42 -43.5 113v230h63v-229q0 -46 26 -73t71 -27t71 27t26 73v229h63v-230q0 -71 -43.5 -113t-116.5 -42t-116.5 42zM304 408h-54l-37 38l-37 -38h-53l59 73h62z" />
    <glyph glyph-name="Udieresis" unicode="&#xdc;" horiz-adv-x="424" 
d="M95.5 37q-43.5 42 -43.5 113v230h63v-229q0 -46 26 -73t71 -27t71 27t26 73v229h63v-230q0 -71 -43.5 -113t-116.5 -42t-116.5 42zM128 482h65v-60h-65v60zM231 482h65v-60h-65v60z" />
    <glyph glyph-name="Yacute" unicode="&#xdd;" horiz-adv-x="371" 
d="M367 380l-150 -230v-150h-63v152l-150 228h73l110 -171l109 171h71zM197 481h72l-59 -73h-43z" />
    <glyph glyph-name="Thorn" unicode="&#xde;" horiz-adv-x="374" 
d="M314.5 280.5q36.5 -31.5 36.5 -85.5t-36.5 -85.5t-98.5 -31.5h-96v-78h-63v380h63v-68h96q62 0 98.5 -31.5zM287 194q0 63 -78 63h-89v-127h89q78 0 78 64z" />
    <glyph glyph-name="germandbls" unicode="&#xdf;" horiz-adv-x="383" 
d="M195 5q-29 10 -51 28l31 42q34 -31 84 -31q23 0 37 8.5t14 22.5q0 12 -13 20t-46 17q-51 17 -70.5 32.5t-19.5 46.5q0 29 16.5 44.5t47.5 29.5q23 10 33.5 18t10.5 22q0 23 -20.5 36.5t-55.5 13.5q-42 0 -64 -18t-22 -52v-285h-60v287q0 55 39 87.5t106 32.5
q60 0 98.5 -27t38.5 -68q0 -36 -20.5 -55t-54.5 -32q-21 -9 -30 -15.5t-9 -17.5q0 -9 11 -15t40 -13q53 -15 77.5 -34t24.5 -53q0 -37 -30.5 -59.5t-80.5 -22.5q-33 0 -62 10z" />
    <glyph glyph-name="agrave" unicode="&#xe0;" horiz-adv-x="322" 
d="M302 52v-52q-6 -2 -21 -2q-28 0 -41.5 11t-16.5 37q-16 -23 -44 -37t-61 -14q-44 0 -71 24.5t-27 63.5q0 49 35.5 69.5t93.5 29.5q38 5 52.5 11t14.5 22q0 18 -17.5 29t-45.5 11q-25 0 -48.5 -10.5t-41.5 -29.5l-37 39q54 51 130 51q54 0 85 -26.5t31 -72.5v-135
q0 -19 19 -19h11zM188.5 65q25.5 21 25.5 49v39q-7 -5 -22.5 -8.5t-35.5 -6.5q-38 -6 -57.5 -15.5t-19.5 -35.5q0 -21 13 -32t36 -11q35 0 60.5 21zM132 328l-59 73h72l30 -73h-43z" />
    <glyph glyph-name="aacute" unicode="&#xe1;" horiz-adv-x="322" 
d="M302 52v-52q-6 -2 -21 -2q-28 0 -41.5 11t-16.5 37q-16 -23 -44 -37t-61 -14q-44 0 -71 24.5t-27 63.5q0 49 35.5 69.5t93.5 29.5q38 5 52.5 11t14.5 22q0 18 -17.5 29t-45.5 11q-25 0 -48.5 -10.5t-41.5 -29.5l-37 39q54 51 130 51q54 0 85 -26.5t31 -72.5v-135
q0 -19 19 -19h11zM188.5 65q25.5 21 25.5 49v39q-7 -5 -22.5 -8.5t-35.5 -6.5q-38 -6 -57.5 -15.5t-19.5 -35.5q0 -21 13 -32t36 -11q35 0 60.5 21zM167 401h72l-59 -73h-43z" />
    <glyph glyph-name="acircumflex" unicode="&#xe2;" horiz-adv-x="322" 
d="M302 52v-52q-6 -2 -21 -2q-28 0 -41.5 11t-16.5 37q-16 -23 -44 -37t-61 -14q-44 0 -71 24.5t-27 63.5q0 49 35.5 69.5t93.5 29.5q38 5 52.5 11t14.5 22q0 18 -17.5 29t-45.5 11q-25 0 -48.5 -10.5t-41.5 -29.5l-37 39q54 51 130 51q54 0 85 -26.5t31 -72.5v-135
q0 -19 19 -19h11zM188.5 65q25.5 21 25.5 49v39q-7 -5 -22.5 -8.5t-35.5 -6.5q-38 -6 -57.5 -15.5t-19.5 -35.5q0 -21 13 -32t36 -11q35 0 60.5 21zM248 328h-54l-37 38l-37 -38h-53l59 73h62z" />
    <glyph glyph-name="atilde" unicode="&#xe3;" horiz-adv-x="322" 
d="M302 52v-52q-6 -2 -21 -2q-28 0 -41.5 11t-16.5 37q-16 -23 -44 -37t-61 -14q-44 0 -71 24.5t-27 63.5q0 49 35.5 69.5t93.5 29.5q38 5 52.5 11t14.5 22q0 18 -17.5 29t-45.5 11q-25 0 -48.5 -10.5t-41.5 -29.5l-37 39q54 51 130 51q54 0 85 -26.5t31 -72.5v-135
q0 -19 19 -19h11zM188.5 65q25.5 21 25.5 49v39q-7 -5 -22.5 -8.5t-35.5 -6.5q-38 -6 -57.5 -15.5t-19.5 -35.5q0 -21 13 -32t36 -11q35 0 60.5 21zM226.5 348q-15.5 -12 -35.5 -12q-16 0 -40 15q-16 10 -24 10q-17 0 -27 -24l-36 19q9 24 24.5 36t34.5 12q17 0 41 -15
q16 -10 24 -10q16 0 26 24l36 -19q-8 -24 -23.5 -36z" />
    <glyph glyph-name="adieresis" unicode="&#xe4;" horiz-adv-x="322" 
d="M302 52v-52q-6 -2 -21 -2q-28 0 -41.5 11t-16.5 37q-16 -23 -44 -37t-61 -14q-44 0 -71 24.5t-27 63.5q0 49 35.5 69.5t93.5 29.5q38 5 52.5 11t14.5 22q0 18 -17.5 29t-45.5 11q-25 0 -48.5 -10.5t-41.5 -29.5l-37 39q54 51 130 51q54 0 85 -26.5t31 -72.5v-135
q0 -19 19 -19h11zM188.5 65q25.5 21 25.5 49v39q-7 -5 -22.5 -8.5t-35.5 -6.5q-38 -6 -57.5 -15.5t-19.5 -35.5q0 -21 13 -32t36 -11q35 0 60.5 21zM72 402h65v-60h-65v60zM175 402h65v-60h-65v60z" />
    <glyph glyph-name="aring" unicode="&#xe5;" horiz-adv-x="322" 
d="M302 52v-52q-6 -2 -21 -2q-28 0 -41.5 11t-16.5 37q-16 -23 -44 -37t-61 -14q-44 0 -71 24.5t-27 63.5q0 49 35.5 69.5t93.5 29.5q38 5 52.5 11t14.5 22q0 18 -17.5 29t-45.5 11q-25 0 -48.5 -10.5t-41.5 -29.5l-37 39q54 51 130 51q54 0 85 -26.5t31 -72.5v-135
q0 -19 19 -19h11zM188.5 65q25.5 21 25.5 49v39q-7 -5 -22.5 -8.5t-35.5 -6.5q-38 -6 -57.5 -15.5t-19.5 -35.5q0 -21 13 -32t36 -11q35 0 60.5 21zM108 347q-19 19 -19 47q0 29 19 47.5t48 18.5t48 -18.5t19 -47.5q0 -28 -19 -47t-48 -19t-48 19zM177 373q8 8 8 21t-8 21
t-21 8t-21 -8t-8 -21t8 -21t21 -8t21 8z" />
    <glyph glyph-name="ae" unicode="&#xe6;" horiz-adv-x="516" 
d="M299 69q23 -23 60 -23q58 0 84 38l39 -36q-19 -24 -49.5 -38.5t-72.5 -14.5q-40 0 -69.5 16.5t-47.5 45.5q-16 -27 -44.5 -44.5t-68.5 -17.5q-48 0 -77.5 24.5t-29.5 64.5t31.5 65t92.5 32q8 1 33.5 4.5t32 9.5t6.5 18q0 17 -17.5 29.5t-44.5 12.5q-53 0 -91 -40l-37 39
q53 51 127 51q35 0 59.5 -13t35.5 -37q40 50 106 50q62 0 99 -42.5t37 -112.5q0 -12 -2 -18h-220q5 -40 28 -63zM432 175q-5 37 -25.5 58.5t-51.5 21.5q-34 0 -56 -21.5t-27 -58.5h160zM193 65.5q25 21.5 25 59.5v30q-10 -6 -32 -9.5t-30 -4.5q-40 -6 -58 -19t-18 -35
q0 -21 14 -32t39 -11q35 0 60 21.5z" />
    <glyph glyph-name="ccedilla" unicode="&#xe7;" horiz-adv-x="326" 
d="M222 61q20 15 30 42l57 -18q-11 -38 -41.5 -61t-72.5 -28l-11 -18q4 1 11 1q22 0 36 -11.5t14 -30.5q0 -21 -19 -34t-50 -13q-37 0 -65 20l19 30q23 -17 46 -17q12 0 19 4t7 11q0 6 -5.5 9.5t-13.5 3.5q-12 0 -20 -5l-29 15l22 35q-59 7 -95 48.5t-36 105.5
q0 69 41.5 112t108.5 43q49 0 85 -24t49 -66l-57 -18q-10 27 -30 42t-47 15q-41 0 -65 -28.5t-24 -75.5t24 -75.5t65 -28.5q27 0 47 15z" />
    <glyph glyph-name="egrave" unicode="&#xe8;" horiz-adv-x="341" 
d="M114.5 68.5q24.5 -22.5 63.5 -22.5q59 0 89 39l41 -36q-20 -24 -52.5 -39t-77.5 -15q-72 0 -112.5 43t-40.5 112t41 112t107 43t105.5 -42t39.5 -113q0 -12 -2 -19h-231q5 -40 29.5 -62.5zM115.5 234q-22.5 -21 -29.5 -57h171q-6 37 -28 57.5t-56 20.5q-35 0 -57.5 -21z
M147 328l-59 73h72l30 -73h-43z" />
    <glyph glyph-name="eacute" unicode="&#xe9;" horiz-adv-x="341" 
d="M114.5 68.5q24.5 -22.5 63.5 -22.5q59 0 89 39l41 -36q-20 -24 -52.5 -39t-77.5 -15q-72 0 -112.5 43t-40.5 112t41 112t107 43t105.5 -42t39.5 -113q0 -12 -2 -19h-231q5 -40 29.5 -62.5zM115.5 234q-22.5 -21 -29.5 -57h171q-6 37 -28 57.5t-56 20.5q-35 0 -57.5 -21z
M182 401h72l-59 -73h-43z" />
    <glyph glyph-name="ecircumflex" unicode="&#xea;" horiz-adv-x="341" 
d="M114.5 68.5q24.5 -22.5 63.5 -22.5q59 0 89 39l41 -36q-20 -24 -52.5 -39t-77.5 -15q-72 0 -112.5 43t-40.5 112t41 112t107 43t105.5 -42t39.5 -113q0 -12 -2 -19h-231q5 -40 29.5 -62.5zM115.5 234q-22.5 -21 -29.5 -57h171q-6 37 -28 57.5t-56 20.5q-35 0 -57.5 -21z
M263 328h-54l-37 38l-37 -38h-53l59 73h62z" />
    <glyph glyph-name="edieresis" unicode="&#xeb;" horiz-adv-x="341" 
d="M114.5 68.5q24.5 -22.5 63.5 -22.5q59 0 89 39l41 -36q-20 -24 -52.5 -39t-77.5 -15q-72 0 -112.5 43t-40.5 112t41 112t107 43t105.5 -42t39.5 -113q0 -12 -2 -19h-231q5 -40 29.5 -62.5zM115.5 234q-22.5 -21 -29.5 -57h171q-6 37 -28 57.5t-56 20.5q-35 0 -57.5 -21z
M87 402h65v-60h-65v60zM190 402h65v-60h-65v60z" />
    <glyph glyph-name="igrave" unicode="&#xec;" horiz-adv-x="164" 
d="M52 300h60v-300h-60v300zM58 328l-59 73h72l30 -73h-43z" />
    <glyph glyph-name="iacute" unicode="&#xed;" horiz-adv-x="164" 
d="M52 300h60v-300h-60v300zM93 401h72l-59 -73h-43z" />
    <glyph glyph-name="icircumflex" unicode="&#xee;" horiz-adv-x="164" 
d="M52 300h60v-300h-60v300zM174 328h-54l-37 38l-37 -38h-53l59 73h62z" />
    <glyph glyph-name="idieresis" unicode="&#xef;" horiz-adv-x="164" 
d="M52 300h60v-300h-60v300zM-2 402h65v-60h-65v60zM101 402h65v-60h-65v60z" />
    <glyph glyph-name="eth" unicode="&#xf0;" horiz-adv-x="342" 
d="M292.5 268.5q21.5 -49.5 21.5 -110.5q0 -75 -40 -119t-106 -44q-65 0 -104 39.5t-39 105.5q0 63 37 103t95 40q47 0 81 -31q-17 45 -55 76l-60 -33l-22 34l44 24q-12 7 -40 17l24 43q36 -12 67 -32l60 32l21 -34l-46 -25q40 -36 61.5 -85.5zM229 71q23 26 23 68t-23 68
t-60 26q-38 0 -60.5 -25.5t-22.5 -68.5q0 -42 23 -68t60 -26t60 26z" />
    <glyph glyph-name="ntilde" unicode="&#xf1;" 
d="M287.5 273q30.5 -32 30.5 -83v-190h-60v174q0 38 -17.5 59t-48.5 21q-36 0 -60.5 -23t-24.5 -59v-172h-60v300h52l4 -47q18 24 45.5 38t60.5 14q48 0 78.5 -32zM251.5 348q-15.5 -12 -35.5 -12q-16 0 -40 15q-16 10 -24 10q-17 0 -27 -24l-36 19q9 24 24.5 36t34.5 12
q17 0 41 -15q16 -10 24 -10q16 0 26 24l36 -19q-8 -24 -23.5 -36z" />
    <glyph glyph-name="ograve" unicode="&#xf2;" horiz-adv-x="354" 
d="M66.5 37.5q-41.5 42.5 -41.5 112.5q0 69 42 112t110 43q69 0 110.5 -42.5t41.5 -112.5q0 -69 -42 -112t-110 -43q-69 0 -110.5 42.5zM243 74.5q25 28.5 25 75.5t-25 75.5t-66 28.5t-66 -28.5t-25 -75.5t25 -75.5t66 -28.5t66 28.5zM153 328l-59 73h72l30 -73h-43z" />
    <glyph glyph-name="oacute" unicode="&#xf3;" horiz-adv-x="354" 
d="M66.5 37.5q-41.5 42.5 -41.5 112.5q0 69 42 112t110 43q69 0 110.5 -42.5t41.5 -112.5q0 -69 -42 -112t-110 -43q-69 0 -110.5 42.5zM243 74.5q25 28.5 25 75.5t-25 75.5t-66 28.5t-66 -28.5t-25 -75.5t25 -75.5t66 -28.5t66 28.5zM188 401h72l-59 -73h-43z" />
    <glyph glyph-name="ocircumflex" unicode="&#xf4;" horiz-adv-x="354" 
d="M66.5 37.5q-41.5 42.5 -41.5 112.5q0 69 42 112t110 43q69 0 110.5 -42.5t41.5 -112.5q0 -69 -42 -112t-110 -43q-69 0 -110.5 42.5zM243 74.5q25 28.5 25 75.5t-25 75.5t-66 28.5t-66 -28.5t-25 -75.5t25 -75.5t66 -28.5t66 28.5zM269 328h-54l-37 38l-37 -38h-53l59 73
h62z" />
    <glyph glyph-name="otilde" unicode="&#xf5;" horiz-adv-x="354" 
d="M66.5 37.5q-41.5 42.5 -41.5 112.5q0 69 42 112t110 43q69 0 110.5 -42.5t41.5 -112.5q0 -69 -42 -112t-110 -43q-69 0 -110.5 42.5zM243 74.5q25 28.5 25 75.5t-25 75.5t-66 28.5t-66 -28.5t-25 -75.5t25 -75.5t66 -28.5t66 28.5zM247.5 348q-15.5 -12 -35.5 -12
q-16 0 -40 15q-16 10 -24 10q-17 0 -27 -24l-36 19q9 24 24.5 36t34.5 12q17 0 41 -15q16 -10 24 -10q16 0 26 24l36 -19q-8 -24 -23.5 -36z" />
    <glyph glyph-name="odieresis" unicode="&#xf6;" horiz-adv-x="354" 
d="M66.5 37.5q-41.5 42.5 -41.5 112.5q0 69 42 112t110 43q69 0 110.5 -42.5t41.5 -112.5q0 -69 -42 -112t-110 -43q-69 0 -110.5 42.5zM243 74.5q25 28.5 25 75.5t-25 75.5t-66 28.5t-66 -28.5t-25 -75.5t25 -75.5t66 -28.5t66 28.5zM93 402h65v-60h-65v60zM196 402h65v-60
h-65v60z" />
    <glyph glyph-name="divide" unicode="&#xf7;" 
d="M44 215h272v-50h-272v50zM147 328h66v-60h-66v60zM147 112h66v-60h-66v60z" />
    <glyph glyph-name="oslash" unicode="&#xf8;" horiz-adv-x="354" 
d="M292 258q37 -40 37 -108q0 -69 -42 -112t-110 -43q-45 0 -80 19l-16 -19h-53l36 45q-39 42 -39 110q0 69 42 112t110 43q47 0 82 -20l16 20h54zM102 87l122 154q-19 13 -47 13q-41 0 -66 -28.5t-25 -75.5q0 -36 16 -63zM254 211l-123 -153q20 -12 46 -12q41 0 66 28.5
t25 75.5q0 35 -14 61z" />
    <glyph glyph-name="ugrave" unicode="&#xf9;" 
d="M313 300v-300h-52l-4 47q-18 -24 -45.5 -38t-60.5 -14q-48 0 -78.5 32t-30.5 83v190h60v-174q0 -38 17.5 -59t48.5 -21q36 0 60.5 23t24.5 59v172h60zM154 328l-59 73h72l30 -73h-43z" />
    <glyph glyph-name="uacute" unicode="&#xfa;" 
d="M313 300v-300h-52l-4 47q-18 -24 -45.5 -38t-60.5 -14q-48 0 -78.5 32t-30.5 83v190h60v-174q0 -38 17.5 -59t48.5 -21q36 0 60.5 23t24.5 59v172h60zM189 401h72l-59 -73h-43z" />
    <glyph glyph-name="ucircumflex" unicode="&#xfb;" 
d="M313 300v-300h-52l-4 47q-18 -24 -45.5 -38t-60.5 -14q-48 0 -78.5 32t-30.5 83v190h60v-174q0 -38 17.5 -59t48.5 -21q36 0 60.5 23t24.5 59v172h60zM270 328h-54l-37 38l-37 -38h-53l59 73h62z" />
    <glyph glyph-name="udieresis" unicode="&#xfc;" 
d="M313 300v-300h-52l-4 47q-18 -24 -45.5 -38t-60.5 -14q-48 0 -78.5 32t-30.5 83v190h60v-174q0 -38 17.5 -59t48.5 -21q36 0 60.5 23t24.5 59v172h60zM94 402h65v-60h-65v60zM197 402h65v-60h-65v60z" />
    <glyph glyph-name="yacute" unicode="&#xfd;" horiz-adv-x="328" 
d="M322 300l-111 -311q-15 -43 -41 -68.5t-62 -25.5q-42 0 -64 25.5t-22 62.5l55 9q-2 -43 32 -43q22 0 39 31l-141 320h66l105 -251l82 251h62zM176 401h72l-59 -73h-43z" />
    <glyph glyph-name="thorn" unicode="&#xfe;" horiz-adv-x="362" 
d="M301 262.5q36 -42.5 36 -112.5q0 -69 -36.5 -112t-94.5 -43q-31 0 -56.5 11.5t-42.5 33.5v-140h-60v500h60v-142q38 47 99 47q59 0 95 -42.5zM253 74.5q23 28.5 23 75.5t-23 75.5t-63 28.5t-63.5 -28.5t-23.5 -75.5t23.5 -75.5t63.5 -28.5t63 28.5z" />
    <glyph glyph-name="ydieresis" unicode="&#xff;" horiz-adv-x="328" 
d="M322 300l-111 -311q-15 -43 -41 -68.5t-62 -25.5q-42 0 -64 25.5t-22 62.5l55 9q-2 -43 32 -43q22 0 39 31l-141 320h66l105 -251l82 251h62zM81 402h65v-60h-65v60zM184 402h65v-60h-65v60z" />
    <glyph glyph-name="Amacron" unicode="&#x100;" horiz-adv-x="397" 
d="M323 0l-34 88h-182l-34 -88h-66l153 380h77l153 -380h-67zM129 144h138l-69 178zM117 480h164v-46h-164v46z" />
    <glyph glyph-name="amacron" unicode="&#x101;" horiz-adv-x="322" 
d="M302 52v-52q-6 -2 -21 -2q-28 0 -41.5 11t-16.5 37q-16 -23 -44 -37t-61 -14q-44 0 -71 24.5t-27 63.5q0 49 35.5 69.5t93.5 29.5q38 5 52.5 11t14.5 22q0 18 -17.5 29t-45.5 11q-25 0 -48.5 -10.5t-41.5 -29.5l-37 39q54 51 130 51q54 0 85 -26.5t31 -72.5v-135
q0 -19 19 -19h11zM188.5 65q25.5 21 25.5 49v39q-7 -5 -22.5 -8.5t-35.5 -6.5q-38 -6 -57.5 -15.5t-19.5 -35.5q0 -21 13 -32t36 -11q35 0 60.5 21zM74 400h164v-46h-164v46z" />
    <glyph glyph-name="Abreve" unicode="&#x102;" horiz-adv-x="397" 
d="M323 0l-34 88h-182l-34 -88h-66l153 380h77l153 -380h-67zM129 144h138l-69 178zM139 427.5q-23 19.5 -27 51.5l48 5q4 -34 39 -34t39 34l48 -5q-4 -32 -27 -51.5t-60 -19.5t-60 19.5z" />
    <glyph glyph-name="abreve" unicode="&#x103;" horiz-adv-x="322" 
d="M302 52v-52q-6 -2 -21 -2q-28 0 -41.5 11t-16.5 37q-16 -23 -44 -37t-61 -14q-44 0 -71 24.5t-27 63.5q0 49 35.5 69.5t93.5 29.5q38 5 52.5 11t14.5 22q0 18 -17.5 29t-45.5 11q-25 0 -48.5 -10.5t-41.5 -29.5l-37 39q54 51 130 51q54 0 85 -26.5t31 -72.5v-135
q0 -19 19 -19h11zM188.5 65q25.5 21 25.5 49v39q-7 -5 -22.5 -8.5t-35.5 -6.5q-38 -6 -57.5 -15.5t-19.5 -35.5q0 -21 13 -32t36 -11q35 0 60.5 21zM96 347.5q-23 19.5 -27 51.5l48 5q4 -34 39 -34t39 34l48 -5q-4 -32 -27 -51.5t-60 -19.5t-60 19.5z" />
    <glyph glyph-name="Aogonek" unicode="&#x104;" horiz-adv-x="397" 
d="M401 -85q-22 -16 -49 -16t-43 14.5t-16 37.5q0 14 8.5 27t22.5 22h-1l-34 88h-182l-34 -88h-66l153 380h77l153 -380q-53 -18 -53 -43q0 -8 5.5 -13t13.5 -5q11 0 26 10zM129 144h138l-69 178z" />
    <glyph glyph-name="aogonek" unicode="&#x105;" horiz-adv-x="322" 
d="M309 -85q-22 -16 -49 -16t-43 14.5t-16 37.5q0 17 12 32t31 23q-18 12 -21 40q-16 -23 -44 -37t-61 -14q-44 0 -71 24.5t-27 63.5q0 49 35.5 69.5t93.5 29.5q38 5 52.5 11t14.5 22q0 18 -17.5 29t-45.5 11q-25 0 -48.5 -10.5t-41.5 -29.5l-37 39q54 51 130 51
q54 0 85 -26.5t31 -72.5v-135q0 -19 19 -19h11v-52q-2 -1 -8 -1q-49 -18 -49 -42q0 -8 5.5 -13t13.5 -5q11 0 26 10zM188.5 65q25.5 21 25.5 49v39q-7 -5 -22.5 -8.5t-35.5 -6.5q-38 -6 -57.5 -15.5t-19.5 -35.5q0 -21 13 -32t36 -11q35 0 60.5 21z" />
    <glyph glyph-name="Cacute" unicode="&#x106;" horiz-adv-x="387" 
d="M77.5 48q-49.5 53 -49.5 142q0 57 23 101.5t64 69t94 24.5q59 0 101 -29t58 -83l-59 -21q-22 78 -101 78q-52 0 -83.5 -38t-31.5 -102q0 -65 31 -102.5t84 -37.5q79 0 101 78l59 -21q-17 -53 -59 -82.5t-100 -29.5q-82 0 -131.5 53zM215 481h72l-59 -73h-43z" />
    <glyph glyph-name="cacute" unicode="&#x107;" horiz-adv-x="326" 
d="M66.5 38q-41.5 43 -41.5 112t41.5 112t108.5 43q49 0 85 -24t49 -66l-57 -18q-10 27 -30 42t-47 15q-41 0 -65 -28.5t-24 -75.5t24 -75.5t65 -28.5q27 0 47 15t30 42l57 -18q-13 -42 -49 -66t-85 -24q-67 0 -108.5 43zM182 401h72l-59 -73h-43z" />
    <glyph glyph-name="Cdotaccent" unicode="&#x10a;" horiz-adv-x="387" 
d="M77.5 48q-49.5 53 -49.5 142q0 57 23 101.5t64 69t94 24.5q59 0 101 -29t58 -83l-59 -21q-22 78 -101 78q-52 0 -83.5 -38t-31.5 -102q0 -65 31 -102.5t84 -37.5q79 0 101 78l59 -21q-17 -53 -59 -82.5t-100 -29.5q-82 0 -131.5 53zM171 482h66v-60h-66v60z" />
    <glyph glyph-name="cdotaccent" unicode="&#x10b;" horiz-adv-x="326" 
d="M66.5 38q-41.5 43 -41.5 112t41.5 112t108.5 43q49 0 85 -24t49 -66l-57 -18q-10 27 -30 42t-47 15q-41 0 -65 -28.5t-24 -75.5t24 -75.5t65 -28.5q27 0 47 15t30 42l57 -18q-13 -42 -49 -66t-85 -24q-67 0 -108.5 43zM138 402h66v-60h-66v60z" />
    <glyph glyph-name="Ccaron" unicode="&#x10c;" horiz-adv-x="387" 
d="M77.5 48q-49.5 53 -49.5 142q0 57 23 101.5t64 69t94 24.5q59 0 101 -29t58 -83l-59 -21q-22 78 -101 78q-52 0 -83.5 -38t-31.5 -102q0 -65 31 -102.5t84 -37.5q79 0 101 78l59 -21q-17 -53 -59 -82.5t-100 -29.5q-82 0 -131.5 53zM242 481h53l-59 -73h-62l-60 73h54
l37 -38z" />
    <glyph glyph-name="ccaron" unicode="&#x10d;" horiz-adv-x="326" 
d="M66.5 38q-41.5 43 -41.5 112t41.5 112t108.5 43q49 0 85 -24t49 -66l-57 -18q-10 27 -30 42t-47 15q-41 0 -65 -28.5t-24 -75.5t24 -75.5t65 -28.5q27 0 47 15t30 42l57 -18q-13 -42 -49 -66t-85 -24q-67 0 -108.5 43zM209 401h53l-59 -73h-62l-60 73h54l37 -38z" />
    <glyph glyph-name="Dcaron" unicode="&#x10e;" horiz-adv-x="412" 
d="M334.5 329q49.5 -51 49.5 -139q0 -85 -50.5 -137.5t-137.5 -52.5h-139v380h139q89 0 138.5 -51zM286.5 91q32.5 36 32.5 99t-32.5 99t-90.5 36h-76v-270h76q58 0 90.5 36zM224 481h53l-59 -73h-62l-60 73h54l37 -38z" />
    <glyph glyph-name="dcaron" unicode="&#x10f;" horiz-adv-x="362" 
d="M315 400v-400h-52l-4 47q-18 -25 -44.5 -38.5t-58.5 -13.5q-59 0 -95 42.5t-36 112.5q0 69 36.5 112t94.5 43q31 0 56.5 -11.5t42.5 -33.5v140h60zM235.5 74.5q23.5 28.5 23.5 75.5t-23.5 75.5t-63.5 28.5t-63 -28.5t-23 -75.5t23 -75.5t63 -28.5t63.5 28.5zM355 400h60
l-20 -84h-40v84z" />
    <glyph glyph-name="Dcroat" unicode="&#x110;" horiz-adv-x="412" 
d="M334.5 329q49.5 -51 49.5 -139q0 -85 -50.5 -137.5t-137.5 -52.5h-139v171h-39v48h39v161h139q89 0 138.5 -51zM286.5 91q32.5 36 32.5 99t-32.5 99t-90.5 36h-76v-106h70v-48h-70v-116h76q58 0 90.5 36z" />
    <glyph glyph-name="dcroat" unicode="&#x111;" horiz-adv-x="362" 
d="M362 322h-47v-322h-52l-4 47q-18 -25 -44.5 -38.5t-58.5 -13.5q-59 0 -95 42.5t-36 112.5q0 69 36.5 112t94.5 43q31 0 56.5 -11.5t42.5 -33.5v62h-59v45h59v33h60v-33h47v-45zM235.5 74.5q23.5 28.5 23.5 75.5t-23.5 75.5t-63.5 28.5t-63 -28.5t-23 -75.5t23 -75.5
t63 -28.5t63.5 28.5z" />
    <glyph glyph-name="Emacron" unicode="&#x112;" horiz-adv-x="344" 
d="M120 56h204v-56h-267v380h262v-56h-199v-102h154v-54h-154v-112zM106 480h164v-46h-164v46z" />
    <glyph glyph-name="emacron" unicode="&#x113;" horiz-adv-x="341" 
d="M114.5 68.5q24.5 -22.5 63.5 -22.5q59 0 89 39l41 -36q-20 -24 -52.5 -39t-77.5 -15q-72 0 -112.5 43t-40.5 112t41 112t107 43t105.5 -42t39.5 -113q0 -12 -2 -19h-231q5 -40 29.5 -62.5zM115.5 234q-22.5 -21 -29.5 -57h171q-6 37 -28 57.5t-56 20.5q-35 0 -57.5 -21z
M89 400h164v-46h-164v46z" />
    <glyph glyph-name="Edotaccent" unicode="&#x116;" horiz-adv-x="344" 
d="M120 56h204v-56h-267v380h262v-56h-199v-102h154v-54h-154v-112zM155 482h66v-60h-66v60z" />
    <glyph glyph-name="edotaccent" unicode="&#x117;" horiz-adv-x="341" 
d="M114.5 68.5q24.5 -22.5 63.5 -22.5q59 0 89 39l41 -36q-20 -24 -52.5 -39t-77.5 -15q-72 0 -112.5 43t-40.5 112t41 112t107 43t105.5 -42t39.5 -113q0 -12 -2 -19h-231q5 -40 29.5 -62.5zM115.5 234q-22.5 -21 -29.5 -57h171q-6 37 -28 57.5t-56 20.5q-35 0 -57.5 -21z
M138 402h66v-60h-66v60z" />
    <glyph glyph-name="Eogonek" unicode="&#x118;" horiz-adv-x="344" 
d="M334 -85q-22 -16 -49 -16t-43 14.5t-16 37.5q0 14 8.5 27t22.5 22h-200v380h262v-56h-199v-102h154v-54h-154v-112h204v-56h-1q-53 -18 -53 -43q0 -8 5.5 -13t13.5 -5q11 0 26 10z" />
    <glyph glyph-name="eogonek" unicode="&#x119;" horiz-adv-x="343" 
d="M114.5 68.5q24.5 -22.5 63.5 -22.5q59 0 89 39l41 -36q-16 -19 -39 -32h2l-19 -13q-23 -14 -33.5 -24t-10.5 -22q0 -7 5.5 -12t13.5 -5q13 0 27 11l20 -34q-26 -17 -51 -17q-27 0 -43 13.5t-16 35.5q0 27 25 45h-11q-72 0 -112.5 43t-40.5 112t41 112t107 43t105.5 -42
t39.5 -113q0 -12 -2 -19h-231q5 -40 29.5 -62.5zM115.5 234q-22.5 -21 -29.5 -57h171q-6 37 -28 57.5t-56 20.5q-35 0 -57.5 -21z" />
    <glyph glyph-name="Ecaron" unicode="&#x11a;" horiz-adv-x="344" 
d="M120 56h204v-56h-267v380h262v-56h-199v-102h154v-54h-154v-112zM226 481h53l-59 -73h-62l-60 73h54l37 -38z" />
    <glyph glyph-name="ecaron" unicode="&#x11b;" horiz-adv-x="341" 
d="M114.5 68.5q24.5 -22.5 63.5 -22.5q59 0 89 39l41 -36q-20 -24 -52.5 -39t-77.5 -15q-72 0 -112.5 43t-40.5 112t41 112t107 43t105.5 -42t39.5 -113q0 -12 -2 -19h-231q5 -40 29.5 -62.5zM115.5 234q-22.5 -21 -29.5 -57h171q-6 37 -28 57.5t-56 20.5q-35 0 -57.5 -21z
M209 401h53l-59 -73h-62l-60 73h54l37 -38z" />
    <glyph glyph-name="Gbreve" unicode="&#x11e;" horiz-adv-x="418" 
d="M380 193v-193h-47l-5 57q-43 -62 -123 -62t-128.5 53t-48.5 141t51.5 142t135.5 54q57 0 99 -26.5t61 -75.5l-58 -22q-13 34 -39 51.5t-64 17.5q-55 0 -88 -38t-33 -102q0 -65 31.5 -102.5t84.5 -37.5q41 0 73 24t41 70h-100v49h157zM152 427.5q-23 19.5 -27 51.5l48 5
q4 -34 39 -34t39 34l48 -5q-4 -32 -27 -51.5t-60 -19.5t-60 19.5z" />
    <glyph glyph-name="gbreve" unicode="&#x11f;" horiz-adv-x="362" 
d="M315 300l-1 -269q0 -61 -39 -98.5t-107 -37.5q-79 0 -122 43l32 42q18 -18 39 -26t50 -8q47 0 69 23.5t22 62.5v29q-38 -48 -102 -48q-59 0 -95 40t-36 106q0 65 36.5 105.5t94.5 40.5q33 0 59 -12.5t44 -35.5l4 43h52zM235.5 88q23.5 26 23.5 70t-23.5 70t-63.5 26
q-39 0 -62.5 -26t-23.5 -70t23.5 -70t62.5 -26q40 0 63.5 26zM112 347.5q-23 19.5 -27 51.5l48 5q4 -34 39 -34t39 34l48 -5q-4 -32 -27 -51.5t-60 -19.5t-60 19.5z" />
    <glyph glyph-name="Gdotaccent" unicode="&#x120;" horiz-adv-x="418" 
d="M380 193v-193h-47l-5 57q-43 -62 -123 -62t-128.5 53t-48.5 141t51.5 142t135.5 54q57 0 99 -26.5t61 -75.5l-58 -22q-13 34 -39 51.5t-64 17.5q-55 0 -88 -38t-33 -102q0 -65 31.5 -102.5t84.5 -37.5q41 0 73 24t41 70h-100v49h157zM179 482h66v-60h-66v60z" />
    <glyph glyph-name="gdotaccent" unicode="&#x121;" horiz-adv-x="362" 
d="M315 300l-1 -269q0 -61 -39 -98.5t-107 -37.5q-79 0 -122 43l32 42q18 -18 39 -26t50 -8q47 0 69 23.5t22 62.5v29q-38 -48 -102 -48q-59 0 -95 40t-36 106q0 65 36.5 105.5t94.5 40.5q33 0 59 -12.5t44 -35.5l4 43h52zM235.5 88q23.5 26 23.5 70t-23.5 70t-63.5 26
q-39 0 -62.5 -26t-23.5 -70t23.5 -70t62.5 -26q40 0 63.5 26zM139 402h66v-60h-66v60z" />
    <glyph glyph-name="uni0122" unicode="&#x122;" horiz-adv-x="418" 
d="M380 193v-193h-47l-5 57q-43 -62 -123 -62t-128.5 53t-48.5 141t51.5 142t135.5 54q57 0 99 -26.5t61 -75.5l-58 -22q-13 34 -39 51.5t-64 17.5q-55 0 -88 -38t-33 -102q0 -65 31.5 -102.5t84.5 -37.5q41 0 73 24t41 70h-100v49h157zM246 -30v-35q0 -29 -13.5 -43.5
t-37.5 -14.5h-13v27h11q18 0 20 21h-31v45h64z" />
    <glyph glyph-name="uni0123" unicode="&#x123;" horiz-adv-x="362" 
d="M315 300l-1 -269q0 -61 -39 -98.5t-107 -37.5q-79 0 -122 43l32 42q18 -18 39 -26t50 -8q47 0 69 23.5t22 62.5v29q-38 -48 -102 -48q-59 0 -95 40t-36 106q0 65 36.5 105.5t94.5 40.5q33 0 59 -12.5t44 -35.5l4 43h52zM235.5 88q23.5 26 23.5 70t-23.5 70t-63.5 26
q-39 0 -62.5 -26t-23.5 -70t23.5 -70t62.5 -26q40 0 63.5 26zM171 392v-6h31v-53h-64v52q0 29 13.5 44t37.5 15h13v-29h-11q-20 0 -20 -23z" />
    <glyph glyph-name="Hbar" unicode="&#x126;" horiz-adv-x="430" 
d="M412 322v-48h-39v-274h-63v166h-190v-166h-63v274h-39v48h39v58h63v-58h190v58h63v-58h39zM310 224v50h-190v-50h190z" />
    <glyph glyph-name="hbar" unicode="&#x127;" horiz-adv-x="359" 
d="M287 273.5q30 -31.5 30 -83.5v-190h-60v174q0 38 -17.5 59t-48.5 21q-35 0 -59.5 -23.5t-24.5 -58.5v-172h-60v322h-39v45h39v33h60v-33h67v-45h-67v-64q18 22 44 34.5t57 12.5q49 0 79 -31.5z" />
    <glyph glyph-name="Imacron" unicode="&#x12a;" horiz-adv-x="177" 
d="M57 380h63v-380h-63v380zM7 480h164v-46h-164v46z" />
    <glyph glyph-name="imacron" unicode="&#x12b;" horiz-adv-x="164" 
d="M52 300h60v-300h-60v300zM0 400h164v-46h-164v46z" />
    <glyph glyph-name="Iogonek" unicode="&#x12e;" horiz-adv-x="177" 
d="M131 -85q-22 -16 -49 -16t-43 14.5t-16 37.5q0 15 9 28.5t25 22.5v378h63v-380q-53 -18 -53 -43q0 -8 5.5 -13t13.5 -5q11 0 26 10z" />
    <glyph glyph-name="iogonek" unicode="&#x12f;" horiz-adv-x="164" 
d="M115 402v-60h-66v60h66zM123 -85q-22 -16 -49 -16t-43 14.5t-16 37.5q0 16 10 30t27 23v296h60v-300q-53 -18 -53 -43q0 -8 5.5 -13t13.5 -5q11 0 26 10z" />
    <glyph glyph-name="Idotaccent" unicode="&#x130;" horiz-adv-x="177" 
d="M57 380h63v-380h-63v380zM56 482h66v-60h-66v60z" />
    <glyph glyph-name="dotlessi" unicode="&#x131;" horiz-adv-x="164" 
d="M52 300h60v-300h-60v300z" />
    <glyph glyph-name="uni0136" unicode="&#x136;" horiz-adv-x="395" 
d="M309 0l-132 182l-57 -56v-126h-63v380h63v-181l178 181h79l-156 -154l165 -226h-77zM237 -30v-35q0 -29 -13.5 -43.5t-37.5 -14.5h-13v27h11q18 0 20 21h-31v45h64z" />
    <glyph glyph-name="uni0137" unicode="&#x137;" horiz-adv-x="325" 
d="M251 0l-101 139l-43 -41v-98h-60v400h60v-234l135 134h76l-125 -120l131 -180h-73zM203 -30v-35q0 -29 -13.5 -43.5t-37.5 -14.5h-13v27h11q18 0 20 21h-31v45h64z" />
    <glyph glyph-name="kgreenlandic" unicode="&#x138;" horiz-adv-x="325" 
d="M251 0l-101 139l-43 -41v-98h-60v300h60v-134l135 134h76l-125 -120l131 -180h-73z" />
    <glyph glyph-name="Lacute" unicode="&#x139;" horiz-adv-x="336" 
d="M120 58h201v-58h-264v380h63v-322zM100 501h72l-59 -73h-43z" />
    <glyph glyph-name="lacute" unicode="&#x13a;" horiz-adv-x="154" 
d="M47 400h60v-400h-60v400zM88 501h72l-59 -73h-43z" />
    <glyph glyph-name="uni013B" unicode="&#x13b;" horiz-adv-x="336" 
d="M120 58h201v-58h-264v380h63v-322zM222 -30v-35q0 -29 -13.5 -43.5t-37.5 -14.5h-13v27h11q18 0 20 21h-31v45h64z" />
    <glyph glyph-name="uni013C" unicode="&#x13c;" horiz-adv-x="154" 
d="M47 400h60v-400h-60v400zM107 -30v-35q0 -29 -13.5 -43.5t-37.5 -14.5h-13v27h11q18 0 20 21h-31v45h64z" />
    <glyph glyph-name="Lcaron" unicode="&#x13d;" horiz-adv-x="336" 
d="M120 58h201v-58h-264v380h63v-322zM155 380h60l-20 -84h-40v84z" />
    <glyph glyph-name="lcaron" unicode="&#x13e;" horiz-adv-x="154" 
d="M47 400h60v-400h-60v400zM142 400h60l-20 -84h-40v84z" />
    <glyph glyph-name="Lslash" unicode="&#x141;" horiz-adv-x="336" 
d="M120 58h201v-58h-264v142l-41 -13v48l41 13v190h63v-170l104 32v-49l-104 -32v-103z" />
    <glyph glyph-name="lslash" unicode="&#x142;" horiz-adv-x="173" 
d="M160 244v-49l-43 -13v-182h-60v163l-44 -13v49l44 13v188h60v-169z" />
    <glyph glyph-name="Nacute" unicode="&#x143;" horiz-adv-x="432" 
d="M315 380h60v-380h-61l-197 281v-281h-60v380h62l196 -279v279zM229 481h72l-59 -73h-43z" />
    <glyph glyph-name="nacute" unicode="&#x144;" 
d="M287.5 273q30.5 -32 30.5 -83v-190h-60v174q0 38 -17.5 59t-48.5 21q-36 0 -60.5 -23t-24.5 -59v-172h-60v300h52l4 -47q18 24 45.5 38t60.5 14q48 0 78.5 -32zM192 401h72l-59 -73h-43z" />
    <glyph glyph-name="uni0145" unicode="&#x145;" horiz-adv-x="432" 
d="M315 380h60v-380h-61l-197 281v-281h-60v380h62l196 -279v279zM248 -30v-35q0 -29 -13.5 -43.5t-37.5 -14.5h-13v27h11q18 0 20 21h-31v45h64z" />
    <glyph glyph-name="uni0146" unicode="&#x146;" 
d="M287.5 273q30.5 -32 30.5 -83v-190h-60v174q0 38 -17.5 59t-48.5 21q-36 0 -60.5 -23t-24.5 -59v-172h-60v300h52l4 -47q18 24 45.5 38t60.5 14q48 0 78.5 -32zM211 -30v-35q0 -29 -13.5 -43.5t-37.5 -14.5h-13v27h11q18 0 20 21h-31v45h64z" />
    <glyph glyph-name="Ncaron" unicode="&#x147;" horiz-adv-x="432" 
d="M315 380h60v-380h-61l-197 281v-281h-60v380h62l196 -279v279zM256 481h53l-59 -73h-62l-60 73h54l37 -38z" />
    <glyph glyph-name="ncaron" unicode="&#x148;" 
d="M287.5 273q30.5 -32 30.5 -83v-190h-60v174q0 38 -17.5 59t-48.5 21q-36 0 -60.5 -23t-24.5 -59v-172h-60v300h52l4 -47q18 24 45.5 38t60.5 14q48 0 78.5 -32zM219 401h53l-59 -73h-62l-60 73h54l37 -38z" />
    <glyph glyph-name="Eng" unicode="&#x14a;" horiz-adv-x="432" 
d="M375 380v-397q0 -85 -83 -85q-14 0 -34 2v53h27q30 0 30 31v14l-198 282v-280h-60v380h62l196 -279v279h60z" />
    <glyph glyph-name="eng" unicode="&#x14b;" horiz-adv-x="359" 
d="M287 273.5q30 -31.5 30 -83.5v-207q0 -85 -83 -85q-12 0 -30 2v53h24q29 0 29 31v190q0 38 -17.5 59t-48.5 21q-35 0 -59.5 -23.5t-24.5 -58.5v-172h-60v300h52l4 -47q17 24 44.5 38t60.5 14q49 0 79 -31.5z" />
    <glyph glyph-name="Omacron" unicode="&#x14c;" horiz-adv-x="422" 
d="M78 48q-50 53 -50 142q0 57 23 101.5t65 69t95 24.5q83 0 133 -53t50 -142q0 -57 -23 -101.5t-65 -69t-95 -24.5q-83 0 -133 53zM297 88.5q32 38.5 32 101.5t-32 101.5t-86 38.5t-86 -38.5t-32 -101.5t32 -101.5t86 -38.5t86 38.5zM129 480h164v-46h-164v46z" />
    <glyph glyph-name="omacron" unicode="&#x14d;" horiz-adv-x="354" 
d="M66.5 37.5q-41.5 42.5 -41.5 112.5q0 69 42 112t110 43q69 0 110.5 -42.5t41.5 -112.5q0 -69 -42 -112t-110 -43q-69 0 -110.5 42.5zM243 74.5q25 28.5 25 75.5t-25 75.5t-66 28.5t-66 -28.5t-25 -75.5t25 -75.5t66 -28.5t66 28.5zM95 400h164v-46h-164v46z" />
    <glyph glyph-name="Ohungarumlaut" unicode="&#x150;" horiz-adv-x="422" 
d="M78 48q-50 53 -50 142q0 57 23 101.5t65 69t95 24.5q83 0 133 -53t50 -142q0 -57 -23 -101.5t-65 -69t-95 -24.5q-83 0 -133 53zM297 88.5q32 38.5 32 101.5t-32 101.5t-86 38.5t-86 -38.5t-32 -101.5t32 -101.5t86 -38.5t86 38.5zM127 482h65v-60h-65v60zM230 482h65
v-60h-65v60z" />
    <glyph glyph-name="ohungarumlaut" unicode="&#x151;" horiz-adv-x="354" 
d="M66.5 37.5q-41.5 42.5 -41.5 112.5q0 69 42 112t110 43q69 0 110.5 -42.5t41.5 -112.5q0 -69 -42 -112t-110 -43q-69 0 -110.5 42.5zM243 74.5q25 28.5 25 75.5t-25 75.5t-66 28.5t-66 -28.5t-25 -75.5t25 -75.5t66 -28.5t66 28.5zM137 401h72l-59 -73h-43zM233 401h72
l-59 -73h-43z" />
    <glyph glyph-name="OE" unicode="&#x152;" horiz-adv-x="526" 
d="M506 56v-56h-290q-89 0 -138.5 51.5t-49.5 138.5q0 86 50 138t138 52h285v-56h-176v-102h131v-54h-131v-112h181zM263 55v270h-47q-58 0 -90.5 -36t-32.5 -99t32.5 -99t90.5 -36h47z" />
    <glyph glyph-name="oe" unicode="&#x153;" horiz-adv-x="560" 
d="M343 69q23 -23 60 -23q58 0 84 38l39 -36q-19 -24 -49 -38.5t-71 -14.5t-71.5 17t-48.5 47q-18 -30 -49 -47t-70 -17q-65 0 -103.5 42.5t-38.5 112.5q0 69 39.5 112t102.5 43q40 0 71 -16.5t49 -46.5q17 30 47 46.5t67 16.5q62 0 99 -42t37 -113q0 -12 -2 -18h-220
q5 -40 28 -63zM476 175q-5 37 -25.5 58.5t-51.5 21.5q-34 0 -56 -21.5t-27 -58.5h160zM236.5 74.5q23.5 28.5 23.5 75.5t-23.5 75.5t-63.5 28.5t-63.5 -28.5t-23.5 -75.5t23.5 -75.5t63.5 -28.5t63.5 28.5z" />
    <glyph glyph-name="Racute" unicode="&#x154;" horiz-adv-x="388" 
d="M209 148h-90v-148h-62v380h157q62 0 98.5 -31.5t36.5 -84.5q0 -39 -19.5 -66.5t-55.5 -40.5l96 -157h-72zM119 200h89q76 0 76 63q0 62 -76 62h-89v-125zM192 481h72l-59 -73h-43z" />
    <glyph glyph-name="racute" unicode="&#x155;" horiz-adv-x="241" 
d="M231 302v-57q-26 2 -40 2q-37 0 -60.5 -21.5t-23.5 -57.5v-168h-60v300h52l4 -48q17 25 44.5 39t60.5 14q11 0 23 -3zM145 401h72l-59 -73h-43z" />
    <glyph glyph-name="uni0156" unicode="&#x156;" horiz-adv-x="388" 
d="M209 148h-90v-148h-62v380h157q62 0 98.5 -31.5t36.5 -84.5q0 -39 -19.5 -66.5t-55.5 -40.5l96 -157h-72zM119 200h89q76 0 76 63q0 62 -76 62h-89v-125zM241 -30v-35q0 -29 -13.5 -43.5t-37.5 -14.5h-13v27h11q18 0 20 21h-31v45h64z" />
    <glyph glyph-name="uni0157" unicode="&#x157;" horiz-adv-x="241" 
d="M231 302v-57q-26 2 -40 2q-37 0 -60.5 -21.5t-23.5 -57.5v-168h-60v300h52l4 -48q17 25 44.5 39t60.5 14q11 0 23 -3zM105 -30v-35q0 -29 -13.5 -43.5t-37.5 -14.5h-13v27h11q18 0 20 21h-31v45h64z" />
    <glyph glyph-name="Rcaron" unicode="&#x158;" horiz-adv-x="388" 
d="M209 148h-90v-148h-62v380h157q62 0 98.5 -31.5t36.5 -84.5q0 -39 -19.5 -66.5t-55.5 -40.5l96 -157h-72zM119 200h89q76 0 76 63q0 62 -76 62h-89v-125zM219 481h53l-59 -73h-62l-60 73h54l37 -38z" />
    <glyph glyph-name="rcaron" unicode="&#x159;" horiz-adv-x="241" 
d="M231 302v-57q-26 2 -40 2q-37 0 -60.5 -21.5t-23.5 -57.5v-168h-60v300h52l4 -48q17 25 44.5 39t60.5 14q11 0 23 -3zM172 401h53l-59 -73h-62l-60 73h54l37 -38z" />
    <glyph glyph-name="Sacute" unicode="&#x15a;" horiz-adv-x="348" 
d="M88.5 9q-39.5 14 -68.5 41l37 48q24 -23 55.5 -35.5t65.5 -12.5q39 0 61 14t22 39q0 20 -18.5 32t-67.5 26q-46 13 -74.5 25.5t-47.5 34.5t-19 56q0 49 39.5 78.5t104.5 29.5q79 0 137 -45l-35 -48q-46 38 -106 38q-35 0 -56 -13.5t-21 -36.5q0 -21 20 -33.5t70 -25.5
q70 -18 103.5 -42.5t33.5 -69.5q0 -53 -40.5 -83.5t-110.5 -30.5q-45 0 -84.5 14zM183 481h72l-59 -73h-43z" />
    <glyph glyph-name="sacute" unicode="&#x15b;" horiz-adv-x="288" 
d="M16 41l33 43q39 -37 98 -37q29 0 45.5 9t16.5 26q0 15 -15 24t-56 19q-59 15 -84 36t-25 55q0 40 32.5 64.5t85.5 24.5q63 0 114 -37l-34 -45q-37 31 -83 31q-26 0 -41.5 -9t-15.5 -25q0 -14 14.5 -23t52.5 -19q62 -16 87.5 -37t25.5 -56q0 -41 -33 -65.5t-89 -24.5
q-78 0 -129 46zM152 401h72l-59 -73h-43z" />
    <glyph glyph-name="Scedilla" unicode="&#x15e;" horiz-adv-x="348" 
d="M290 31q-34 -30 -94 -35l-11 -18q4 1 11 1q22 0 36 -11.5t14 -30.5q0 -21 -19 -34t-50 -13q-37 0 -65 20l19 30q23 -17 46 -17q12 0 19 4t7 11q0 6 -5.5 9.5t-13.5 3.5q-12 0 -20 -5l-29 15l21 35q-40 2 -75 16t-61 38l37 48q24 -23 55.5 -35.5t65.5 -12.5q39 0 61 14
t22 39q0 20 -18.5 32t-67.5 26q-46 13 -74.5 25.5t-47.5 34.5t-19 56q0 49 39.5 78.5t104.5 29.5q79 0 137 -45l-35 -48q-46 38 -106 38q-35 0 -56 -13.5t-21 -36.5q0 -21 20 -33.5t70 -25.5q70 -18 103.5 -42.5t33.5 -69.5q0 -48 -34 -78z" />
    <glyph glyph-name="scedilla" unicode="&#x15f;" horiz-adv-x="288" 
d="M239.5 24.5q-27.5 -23.5 -74.5 -28.5l-11 -18q4 1 11 1q22 0 36 -11.5t14 -30.5q0 -21 -19 -34t-50 -13q-37 0 -65 20l19 30q23 -17 46 -17q12 0 19 4t7 11q0 6 -5.5 9.5t-13.5 3.5q-12 0 -20 -5l-29 15l22 35q-65 5 -110 45l33 43q39 -37 98 -37q29 0 45.5 9t16.5 26
q0 15 -15 24t-56 19q-59 15 -84 36t-25 55q0 40 32.5 64.5t85.5 24.5q63 0 114 -37l-34 -45q-37 31 -83 31q-26 0 -41.5 -9t-15.5 -25q0 -14 14.5 -23t52.5 -19q62 -16 87.5 -37t25.5 -56q0 -37 -27.5 -60.5z" />
    <glyph glyph-name="Scaron" unicode="&#x160;" horiz-adv-x="348" 
d="M88.5 9q-39.5 14 -68.5 41l37 48q24 -23 55.5 -35.5t65.5 -12.5q39 0 61 14t22 39q0 20 -18.5 32t-67.5 26q-46 13 -74.5 25.5t-47.5 34.5t-19 56q0 49 39.5 78.5t104.5 29.5q79 0 137 -45l-35 -48q-46 38 -106 38q-35 0 -56 -13.5t-21 -36.5q0 -21 20 -33.5t70 -25.5
q70 -18 103.5 -42.5t33.5 -69.5q0 -53 -40.5 -83.5t-110.5 -30.5q-45 0 -84.5 14zM210 481h53l-59 -73h-62l-60 73h54l37 -38z" />
    <glyph glyph-name="scaron" unicode="&#x161;" horiz-adv-x="288" 
d="M16 41l33 43q39 -37 98 -37q29 0 45.5 9t16.5 26q0 15 -15 24t-56 19q-59 15 -84 36t-25 55q0 40 32.5 64.5t85.5 24.5q63 0 114 -37l-34 -45q-37 31 -83 31q-26 0 -41.5 -9t-15.5 -25q0 -14 14.5 -23t52.5 -19q62 -16 87.5 -37t25.5 -56q0 -41 -33 -65.5t-89 -24.5
q-78 0 -129 46zM179 401h53l-59 -73h-62l-60 73h54l37 -38z" />
    <glyph glyph-name="uni0162" unicode="&#x162;" horiz-adv-x="354" 
d="M203 0l-13 -22q4 1 11 1q22 0 36 -11.5t14 -30.5q0 -21 -19 -34t-50 -13q-37 0 -65 20l19 30q23 -17 46 -17q12 0 19 4t7 11q0 6 -5.5 9.5t-13.5 3.5q-12 0 -20 -5l-29 15l24 39h-19v322h-135v58h334v-58h-135v-322h-6z" />
    <glyph glyph-name="uni0163" unicode="&#x163;" horiz-adv-x="248" 
d="M132 249v-158q0 -22 10 -31t33 -9q25 0 49 6v-55q-23 -5 -51 -7l-10 -17q4 1 11 1q22 0 36 -11.5t14 -30.5q0 -21 -19 -34t-50 -13q-37 0 -65 20l19 30q23 -17 46 -17q12 0 19 4t7 11q0 6 -5.5 9.5t-13.5 3.5q-12 0 -20 -5l-29 15l23 36q-64 12 -64 82v170h-59v51h59
l8 80h52v-80h92v-51h-92z" />
    <glyph glyph-name="Tcaron" unicode="&#x164;" horiz-adv-x="354" 
d="M344 380v-58h-135v-322h-64v322h-135v58h334zM215 481h53l-59 -73h-62l-60 73h54l37 -38z" />
    <glyph glyph-name="tcaron" unicode="&#x165;" horiz-adv-x="248" 
d="M132 249v-158q0 -22 10 -31t33 -9q25 0 49 6v-55q-28 -7 -61 -7q-44 0 -67.5 21.5t-23.5 62.5v170h-59v51h59l8 80h52v-80h92v-51h-92zM166 400h60l-20 -84h-40v84z" />
    <glyph glyph-name="Tbar" unicode="&#x166;" horiz-adv-x="354" 
d="M344 322h-135v-103h77v-48h-77v-171h-64v171h-77v48h77v103h-135v58h334v-58z" />
    <glyph glyph-name="tbar" unicode="&#x167;" horiz-adv-x="248" 
d="M132 249v-72h74v-48h-74v-38q0 -22 10 -31t33 -9q25 0 49 6v-55q-28 -7 -61 -7q-44 0 -67.5 21.5t-23.5 62.5v50h-56v48h56v72h-59v51h59l8 80h52v-80h92v-51h-92z" />
    <glyph glyph-name="Umacron" unicode="&#x16a;" horiz-adv-x="424" 
d="M95.5 37q-43.5 42 -43.5 113v230h63v-229q0 -46 26 -73t71 -27t71 27t26 73v229h63v-230q0 -71 -43.5 -113t-116.5 -42t-116.5 42zM130 480h164v-46h-164v46z" />
    <glyph glyph-name="umacron" unicode="&#x16b;" 
d="M313 300v-300h-52l-4 47q-18 -24 -45.5 -38t-60.5 -14q-48 0 -78.5 32t-30.5 83v190h60v-174q0 -38 17.5 -59t48.5 -21q36 0 60.5 23t24.5 59v172h60zM96 400h164v-46h-164v46z" />
    <glyph glyph-name="Uring" unicode="&#x16e;" horiz-adv-x="424" 
d="M95.5 37q-43.5 42 -43.5 113v230h63v-229q0 -46 26 -73t71 -27t71 27t26 73v229h63v-230q0 -71 -43.5 -113t-116.5 -42t-116.5 42zM164 382q-19 19 -19 47q0 29 19 47.5t48 18.5t48 -18.5t19 -47.5q0 -28 -19 -47t-48 -19t-48 19zM233 408q8 8 8 21t-8 21t-21 8t-21 -8
t-8 -21t8 -21t21 -8t21 8z" />
    <glyph glyph-name="uring" unicode="&#x16f;" 
d="M313 300v-300h-52l-4 47q-18 -24 -45.5 -38t-60.5 -14q-48 0 -78.5 32t-30.5 83v190h60v-174q0 -38 17.5 -59t48.5 -21q36 0 60.5 23t24.5 59v172h60zM130 347q-19 19 -19 47q0 29 19 47.5t48 18.5t48 -18.5t19 -47.5q0 -28 -19 -47t-48 -19t-48 19zM199 373q8 8 8 21
t-8 21t-21 8t-21 -8t-8 -21t8 -21t21 -8t21 8z" />
    <glyph glyph-name="Uhungarumlaut" unicode="&#x170;" horiz-adv-x="424" 
d="M95.5 37q-43.5 42 -43.5 113v230h63v-229q0 -46 26 -73t71 -27t71 27t26 73v229h63v-230q0 -71 -43.5 -113t-116.5 -42t-116.5 42zM172 481h72l-59 -73h-43zM268 481h72l-59 -73h-43z" />
    <glyph glyph-name="uhungarumlaut" unicode="&#x171;" 
d="M313 300v-300h-52l-4 47q-18 -24 -45.5 -38t-60.5 -14q-48 0 -78.5 32t-30.5 83v190h60v-174q0 -38 17.5 -59t48.5 -21q36 0 60.5 23t24.5 59v172h60zM138 401h72l-59 -73h-43zM234 401h72l-59 -73h-43z" />
    <glyph glyph-name="Uogonek" unicode="&#x172;" horiz-adv-x="420" 
d="M372 380v-230q0 -49 -21.5 -85t-60.5 -54q-29 -17 -43.5 -28t-14.5 -25q0 -8 5 -12.5t13 -4.5q12 0 28 11l19 -34q-24 -17 -51 -17q-26 0 -42.5 13.5t-16.5 35.5q0 27 24 45q-73 0 -116 42t-43 113v230h63v-229q0 -46 26 -73t71 -27t71 27t26 73v229h63z" />
    <glyph glyph-name="uogonek" unicode="&#x173;" 
d="M321 -85q-22 -16 -49 -16t-43 14.5t-16 37.5q0 18 13 33.5t34 23.5l-3 39q-18 -24 -45.5 -38t-60.5 -14q-48 0 -78.5 32t-30.5 83v190h60v-174q0 -38 17.5 -59t48.5 -21q36 0 60.5 23t24.5 59v172h60v-300h-3q-53 -18 -53 -43q0 -8 5.5 -13t13.5 -5q11 0 26 10z" />
    <glyph glyph-name="Wcircumflex" unicode="&#x174;" horiz-adv-x="561" 
d="M481 380h62l-110 -380h-66l-87 298l-86 -298h-66l-110 380h65l82 -290l82 290h67l83 -292zM373 408h-54l-37 38l-37 -38h-53l59 73h62z" />
    <glyph glyph-name="wcircumflex" unicode="&#x175;" horiz-adv-x="474" 
d="M401 300h59l-92 -300h-65l-66 220l-65 -220h-66l-92 300h62l65 -232l67 232h59l68 -232zM329 328h-54l-37 38l-37 -38h-53l59 73h62z" />
    <glyph glyph-name="Ycircumflex" unicode="&#x176;" horiz-adv-x="371" 
d="M367 380l-150 -230v-150h-63v152l-150 228h73l110 -171l109 171h71zM278 408h-54l-37 38l-37 -38h-53l59 73h62z" />
    <glyph glyph-name="ycircumflex" unicode="&#x177;" horiz-adv-x="328" 
d="M322 300l-111 -311q-15 -43 -41 -68.5t-62 -25.5q-42 0 -64 25.5t-22 62.5l55 9q-2 -43 32 -43q22 0 39 31l-141 320h66l105 -251l82 251h62zM257 328h-54l-37 38l-37 -38h-53l59 73h62z" />
    <glyph glyph-name="Ydieresis" unicode="&#x178;" horiz-adv-x="371" 
d="M367 380l-150 -230v-150h-63v152l-150 228h73l110 -171l109 171h71zM102 482h65v-60h-65v60zM205 482h65v-60h-65v60z" />
    <glyph glyph-name="Zacute" unicode="&#x179;" horiz-adv-x="353" 
d="M329 380v-50l-223 -272h223v-58h-306v50l224 272h-213v58h295zM187 481h72l-59 -73h-43z" />
    <glyph glyph-name="zacute" unicode="&#x17a;" horiz-adv-x="296" 
d="M95 51h181v-51h-257v49l178 200h-169v51h244v-49zM158 401h72l-59 -73h-43z" />
    <glyph glyph-name="Zdotaccent" unicode="&#x17b;" horiz-adv-x="353" 
d="M329 380v-50l-223 -272h223v-58h-306v50l224 272h-213v58h295zM143 482h66v-60h-66v60z" />
    <glyph glyph-name="zdotaccent" unicode="&#x17c;" horiz-adv-x="296" 
d="M95 51h181v-51h-257v49l178 200h-169v51h244v-49zM114 402h66v-60h-66v60z" />
    <glyph glyph-name="Zcaron" unicode="&#x17d;" horiz-adv-x="353" 
d="M329 380v-50l-223 -272h223v-58h-306v50l224 272h-213v58h295zM214 481h53l-59 -73h-62l-60 73h54l37 -38z" />
    <glyph glyph-name="zcaron" unicode="&#x17e;" horiz-adv-x="296" 
d="M95 51h181v-51h-257v49l178 200h-169v51h244v-49zM185 401h53l-59 -73h-62l-60 73h54l37 -38z" />
    <glyph glyph-name="uni0218" unicode="&#x218;" horiz-adv-x="348" 
d="M88.5 9q-39.5 14 -68.5 41l37 48q24 -23 55.5 -35.5t65.5 -12.5q39 0 61 14t22 39q0 20 -18.5 32t-67.5 26q-46 13 -74.5 25.5t-47.5 34.5t-19 56q0 49 39.5 78.5t104.5 29.5q79 0 137 -45l-35 -48q-46 38 -106 38q-35 0 -56 -13.5t-21 -36.5q0 -21 20 -33.5t70 -25.5
q70 -18 103.5 -42.5t33.5 -69.5q0 -53 -40.5 -83.5t-110.5 -30.5q-45 0 -84.5 14zM202 -30v-35q0 -29 -13.5 -43.5t-37.5 -14.5h-13v27h11q18 0 20 21h-31v45h64z" />
    <glyph glyph-name="uni0219" unicode="&#x219;" horiz-adv-x="288" 
d="M16 41l33 43q39 -37 98 -37q29 0 45.5 9t16.5 26q0 15 -15 24t-56 19q-59 15 -84 36t-25 55q0 40 32.5 64.5t85.5 24.5q63 0 114 -37l-34 -45q-37 31 -83 31q-26 0 -41.5 -9t-15.5 -25q0 -14 14.5 -23t52.5 -19q62 -16 87.5 -37t25.5 -56q0 -41 -33 -65.5t-89 -24.5
q-78 0 -129 46zM171 -30v-35q0 -29 -13.5 -43.5t-37.5 -14.5h-13v27h11q18 0 20 21h-31v45h64z" />
    <glyph glyph-name="uni021A" unicode="&#x21a;" horiz-adv-x="354" 
d="M344 380v-58h-135v-322h-64v322h-135v58h334zM207 -30v-35q0 -29 -13.5 -43.5t-37.5 -14.5h-13v27h11q18 0 20 21h-31v45h64z" />
    <glyph glyph-name="uni021B" unicode="&#x21b;" horiz-adv-x="248" 
d="M132 249v-158q0 -22 10 -31t33 -9q25 0 49 6v-55q-28 -7 -61 -7q-44 0 -67.5 21.5t-23.5 62.5v170h-59v51h59l8 80h52v-80h92v-51h-92zM180 -30v-35q0 -29 -13.5 -43.5t-37.5 -14.5h-13v27h11q18 0 20 21h-31v45h64z" />
    <glyph glyph-name="uni0237" unicode="&#x237;" horiz-adv-x="160" 
d="M0 -100v54q8 -1 23 -1q30 0 30 31v316h60v-317q0 -85 -83 -85q-12 0 -30 2z" />
    <glyph glyph-name="uni02BC" unicode="&#x2bc;" horiz-adv-x="121" 
d="M31 285q16 0 22.5 8t6.5 25v2h-38v60h78v-54q0 -39 -18 -58.5t-49 -19.5h-11v37h9z" />
    <glyph glyph-name="circumflex" unicode="&#x2c6;" horiz-adv-x="160" 
d="M192 328h-54l-37 38l-37 -38h-53l59 73h62z" />
    <glyph glyph-name="caron" unicode="&#x2c7;" horiz-adv-x="160" 
d="M138 401h53l-59 -73h-62l-60 73h54l37 -38z" />
    <glyph glyph-name="breve" unicode="&#x2d8;" horiz-adv-x="160" 
d="M40 347.5q-23 19.5 -27 51.5l48 5q4 -34 39 -34t39 34l48 -5q-4 -32 -27 -51.5t-60 -19.5t-60 19.5z" />
    <glyph glyph-name="dotaccent" unicode="&#x2d9;" horiz-adv-x="160" 
d="M67 402h66v-60h-66v60z" />
    <glyph glyph-name="ring" unicode="&#x2da;" horiz-adv-x="160" 
d="M52 347q-19 19 -19 47q0 29 19 47.5t48 18.5t48 -18.5t19 -47.5q0 -28 -19 -47t-48 -19t-48 19zM121 373q8 8 8 21t-8 21t-21 8t-21 -8t-8 -21t8 -21t21 -8t21 8z" />
    <glyph glyph-name="ogonek" unicode="&#x2db;" horiz-adv-x="160" 
d="M73 -43q0 -8 5.5 -13t13.5 -5q11 0 26 10l19 -34q-22 -16 -49 -16t-43 14.5t-16 37.5q0 22 19.5 40t48.5 22l29 -13q-53 -18 -53 -43z" />
    <glyph glyph-name="tilde" unicode="&#x2dc;" horiz-adv-x="160" 
d="M170.5 348q-15.5 -12 -35.5 -12q-16 0 -40 15q-16 10 -24 10q-17 0 -27 -24l-36 19q9 24 24.5 36t34.5 12q17 0 41 -15q16 -10 24 -10q16 0 26 24l36 -19q-8 -24 -23.5 -36z" />
    <glyph glyph-name="hungarumlaut" unicode="&#x2dd;" horiz-adv-x="160" 
d="M60 401h72l-59 -73h-43zM156 401h72l-59 -73h-43z" />
    <glyph glyph-name="gravecomb" unicode="&#x300;" horiz-adv-x="0" 
d="M-204 328l-59 73h72l30 -73h-43z" />
    <glyph glyph-name="acutecomb" unicode="&#x301;" horiz-adv-x="0" 
d="M-169 401h72l-59 -73h-43z" />
    <glyph glyph-name="uni0302" unicode="&#x302;" horiz-adv-x="0" 
d="M-88 328h-54l-37 38l-37 -38h-53l59 73h62z" />
    <glyph glyph-name="tildecomb" unicode="&#x303;" horiz-adv-x="0" 
d="M-109.5 348q-15.5 -12 -35.5 -12q-16 0 -40 15q-16 10 -24 10q-17 0 -27 -24l-36 19q9 24 24.5 36t34.5 12q17 0 41 -15q16 -10 24 -10q16 0 26 24l36 -19q-8 -24 -23.5 -36z" />
    <glyph glyph-name="uni0304" unicode="&#x304;" horiz-adv-x="0" 
d="M-262 400h164v-46h-164v46z" />
    <glyph glyph-name="uni0306" unicode="&#x306;" horiz-adv-x="0" 
d="M-240 347.5q-23 19.5 -27 51.5l48 5q4 -34 39 -34t39 34l48 -5q-4 -32 -27 -51.5t-60 -19.5t-60 19.5z" />
    <glyph glyph-name="uni0307" unicode="&#x307;" horiz-adv-x="0" 
d="M-213 402h66v-60h-66v60z" />
    <glyph glyph-name="uni0308" unicode="&#x308;" horiz-adv-x="0" 
d="M-264 402h65v-60h-65v60zM-161 402h65v-60h-65v60z" />
    <glyph glyph-name="uni030A" unicode="&#x30a;" horiz-adv-x="0" 
d="M-228 347q-19 19 -19 47q0 29 19 47.5t48 18.5t48 -18.5t19 -47.5q0 -28 -19 -47t-48 -19t-48 19zM-159 373q8 8 8 21t-8 21t-21 8t-21 -8t-8 -21t8 -21t21 -8t21 8z" />
    <glyph glyph-name="uni030B" unicode="&#x30b;" horiz-adv-x="0" 
d="M-220 401h72l-59 -73h-43zM-124 401h72l-59 -73h-43z" />
    <glyph glyph-name="uni030C" unicode="&#x30c;" horiz-adv-x="0" 
d="M-142 401h53l-59 -73h-62l-60 73h54l37 -38z" />
    <glyph glyph-name="uni0312" unicode="&#x312;" horiz-adv-x="0" 
d="M-181 392v-6h31v-53h-64v52q0 29 13.5 44t37.5 15h13v-29h-11q-20 0 -20 -23z" />
    <glyph glyph-name="uni0326" unicode="&#x326;" horiz-adv-x="0" 
d="M-150 -30v-35q0 -29 -13.5 -43.5t-37.5 -14.5h-13v27h11q18 0 20 21h-31v45h64z" />
    <glyph glyph-name="uni0327" unicode="&#x327;" horiz-adv-x="0" 
d="M-120 -32.5q14 -11.5 14 -30.5q0 -21 -19 -34t-50 -13q-37 0 -65 20l19 30q23 -17 46 -17q12 0 19 4t7 11q0 6 -5.5 9.5t-13.5 3.5q-12 0 -20 -5l-29 15l26 42h39l-15 -25q4 1 11 1q22 0 36 -11.5z" />
    <glyph glyph-name="uni0328" unicode="&#x328;" horiz-adv-x="0" 
d="M-207 -43q0 -8 5.5 -13t13.5 -5q11 0 26 10l19 -34q-22 -16 -49 -16t-43 14.5t-16 37.5q0 22 19.5 40t48.5 22l29 -13q-53 -18 -53 -43z" />
    <glyph glyph-name="dieresistonos" unicode="&#x385;" 
d="M236 415l-58 -73h-43l29 73h72zM64 402h64v-60h-64v60zM232 402h64v-60h-64v60z" />
    <glyph glyph-name="uni0401" unicode="&#x401;" horiz-adv-x="344" 
d="M120 56h204v-56h-267v380h262v-56h-199v-102h154v-54h-154v-112zM104 482h65v-60h-65v60zM207 482h65v-60h-65v60z" />
    <glyph glyph-name="uni0404" unicode="&#x404;" horiz-adv-x="387" 
d="M311 127l58 -21q-17 -52 -59.5 -81.5t-100.5 -29.5q-82 0 -131.5 53t-49.5 142q0 57 22.5 101.5t64 69t94.5 24.5q59 0 101 -29t59 -82l-58 -21q-25 77 -103 77q-46 0 -76.5 -29t-38.5 -79h153v-54h-154q5 -56 36 -87t80 -31q78 0 103 77z" />
    <glyph glyph-name="uni0406" unicode="&#x406;" horiz-adv-x="177" 
d="M57 380h63v-380h-63v380z" />
    <glyph glyph-name="uni0407" unicode="&#x407;" horiz-adv-x="177" 
d="M57 380h63v-380h-63v380zM5 482h65v-60h-65v60zM108 482h65v-60h-65v60z" />
    <glyph glyph-name="uni040E" unicode="&#x40e;" horiz-adv-x="384" 
d="M371 380l-125 -303q-32 -82 -99 -82q-38 0 -60.5 23.5t-24.5 61.5l53 13q2 -23 10 -34t24 -11q24 0 34 21l-174 311h72l129 -249l94 249h67zM127 426.5q-24 18.5 -28 52.5l47 8q2 -19 13.5 -29t30.5 -10t30.5 10t13.5 29l47 -8q-4 -34 -28 -52.5t-63 -18.5t-63 18.5z" />
    <glyph glyph-name="uni0410" unicode="&#x410;" horiz-adv-x="397" 
d="M323 0l-34 88h-182l-34 -88h-66l153 380h77l153 -380h-67zM129 144h138l-69 178z" />
    <glyph glyph-name="uni0411" unicode="&#x411;" horiz-adv-x="377" 
d="M317 200q36 -31 36 -84t-36 -84.5t-98 -31.5h-162v380h265v-56h-202v-93h99q62 0 98 -31zM288 116q0 63 -77 63h-91v-125h91q77 0 77 62z" />
    <glyph glyph-name="uni0412" unicode="&#x412;" horiz-adv-x="381" 
d="M338.5 158.5q14.5 -23.5 14.5 -54.5q0 -48 -32.5 -76t-89.5 -28h-174v380h171q54 0 86 -27.5t32 -73.5q0 -28 -12.5 -50t-35.5 -35q26 -12 40.5 -35.5zM118 326v-105h100q66 0 66 53q0 52 -66 52h-100zM290 111q0 57 -71 57h-101v-114h101q71 0 71 57z" />
    <glyph glyph-name="uni0413" unicode="&#x413;" horiz-adv-x="322" 
d="M311 380v-58h-191v-322h-63v380h254z" />
    <glyph glyph-name="uni0414" unicode="&#x414;" horiz-adv-x="426" 
d="M407 58v-138h-61v80h-268v-80h-62v138h40q12 47 12 153v169h295v-322h44zM300 57v266h-170v-112q0 -89 -13 -154h183z" />
    <glyph glyph-name="uni0415" unicode="&#x415;" horiz-adv-x="344" 
d="M120 56h204v-56h-267v380h262v-56h-199v-102h154v-54h-154v-112z" />
    <glyph glyph-name="uni0416" unicode="&#x416;" horiz-adv-x="578" 
d="M494 0l-119 184l-54 -55v-129h-63v129l-54 55l-119 -184h-76l150 229l-148 151h79l168 -177v177h63v-176l168 176h78l-147 -152l149 -228h-75z" />
    <glyph glyph-name="uni0417" unicode="&#x417;" horiz-adv-x="348" 
d="M308 162.5q17 -22.5 17 -54.5q0 -51 -41.5 -82t-109.5 -31q-56 0 -97.5 25.5t-59.5 68.5l53 28q13 -31 40.5 -49t64.5 -18q40 0 63.5 17t23.5 46q0 26 -20.5 40.5t-56.5 14.5h-50v53h51q28 0 45.5 13.5t17.5 36.5q0 27 -19.5 43t-55.5 16t-60.5 -17t-36.5 -48l-57 22
q18 45 59.5 71.5t95.5 26.5q62 0 99.5 -29.5t37.5 -78.5q0 -28 -13.5 -49t-39.5 -32q32 -11 49 -33.5z" />
    <glyph glyph-name="uni0418" unicode="&#x418;" horiz-adv-x="432" 
d="M313 380h62v-380h-63v283l-194 -283h-61v380h63v-282z" />
    <glyph glyph-name="uni0419" unicode="&#x419;" horiz-adv-x="432" 
d="M313 380h62v-380h-63v283l-194 -283h-61v380h63v-282zM153 426.5q-24 18.5 -28 52.5l47 8q2 -19 13.5 -29t30.5 -10t30.5 10t13.5 29l47 -8q-4 -34 -28 -52.5t-63 -18.5t-63 18.5z" />
    <glyph glyph-name="uni041A" unicode="&#x41a;" horiz-adv-x="395" 
d="M309 0l-132 182l-57 -56v-126h-63v380h63v-181l178 181h79l-156 -154l165 -226h-77z" />
    <glyph glyph-name="uni041B" unicode="&#x41b;" horiz-adv-x="429" 
d="M372 0h-64v322h-161v-118q0 -81 -7 -124t-25.5 -62.5t-54.5 -19.5q-21 0 -36 2v60h17q20 0 28 8t11.5 38t3.5 102v172h288v-380z" />
    <glyph glyph-name="uni041C" unicode="&#x41c;" horiz-adv-x="538" 
d="M481 380v-380h-61v308l-116 -308h-70l-116 308v-308h-61v380h97l116 -306l115 306h96z" />
    <glyph glyph-name="uni041D" unicode="&#x41d;" horiz-adv-x="430" 
d="M310 380h63v-380h-63v166h-190v-166h-63v380h63v-156h190v156z" />
    <glyph glyph-name="uni041E" unicode="&#x41e;" horiz-adv-x="422" 
d="M78 48q-50 53 -50 142q0 57 23 101.5t65 69t95 24.5q83 0 133 -53t50 -142q0 -57 -23 -101.5t-65 -69t-95 -24.5q-83 0 -133 53zM297 88.5q32 38.5 32 101.5t-32 101.5t-86 38.5t-86 -38.5t-32 -101.5t32 -101.5t86 -38.5t86 38.5z" />
    <glyph glyph-name="uni041F" unicode="&#x41f;" horiz-adv-x="430" 
d="M373 380v-380h-63v322h-190v-322h-63v380h316z" />
    <glyph glyph-name="uni0420" unicode="&#x420;" horiz-adv-x="370" 
d="M314.5 348.5q36.5 -31.5 36.5 -85.5q0 -55 -36.5 -86.5t-98.5 -31.5h-96v-145h-63v380h159q62 0 98.5 -31.5zM267 215q20 16 20 47q0 63 -79 63h-88v-126h88q39 0 59 16z" />
    <glyph glyph-name="uni0421" unicode="&#x421;" horiz-adv-x="387" 
d="M77.5 48q-49.5 53 -49.5 142q0 57 23 101.5t64 69t94 24.5q59 0 101 -29t58 -83l-59 -21q-22 78 -101 78q-52 0 -83.5 -38t-31.5 -102q0 -65 31 -102.5t84 -37.5q79 0 101 78l59 -21q-17 -53 -59 -82.5t-100 -29.5q-82 0 -131.5 53z" />
    <glyph glyph-name="uni0422" unicode="&#x422;" horiz-adv-x="354" 
d="M344 380v-58h-135v-322h-64v322h-135v58h334z" />
    <glyph glyph-name="uni0423" unicode="&#x423;" horiz-adv-x="384" 
d="M371 380l-125 -303q-32 -82 -99 -82q-38 0 -60.5 23.5t-24.5 61.5l53 13q2 -23 10 -34t24 -11q24 0 34 21l-174 311h72l129 -249l94 249h67z" />
    <glyph glyph-name="uni0424" unicode="&#x424;" horiz-adv-x="491" 
d="M423 304.5q44 -40.5 44 -109.5q0 -68 -45 -109t-123 -41h-22v-51h-63v51h-22q-80 0 -124 40.5t-44 109.5q0 68 45 109t123 41h22v41h63v-41h22q80 0 124 -40.5zM214 99v192h-21q-50 0 -77.5 -25t-27.5 -71q0 -96 105 -96h21zM375.5 124q27.5 25 27.5 71q0 96 -105 96h-21
v-192h21q50 0 77.5 25z" />
    <glyph glyph-name="uni0425" unicode="&#x425;" horiz-adv-x="378" 
d="M369 0h-73l-108 150l-106 -150h-73l143 194l-134 186h74l98 -139l99 139h71l-133 -184z" />
    <glyph glyph-name="uni0426" unicode="&#x426;" horiz-adv-x="429" 
d="M410 58v-138h-62v80h-291v380h63v-322h182v322h63v-322h45z" />
    <glyph glyph-name="uni0427" unicode="&#x427;" horiz-adv-x="396" 
d="M339 380v-380h-64v150h-106q-65 0 -99 30t-34 88v112h63v-109q0 -33 18.5 -48.5t56.5 -15.5h101v173h64z" />
    <glyph glyph-name="uni0428" unicode="&#x428;" horiz-adv-x="599" 
d="M478 380h64v-380h-485v380h63v-322h148v322h63v-322h147v322z" />
    <glyph glyph-name="uni0429" unicode="&#x429;" horiz-adv-x="605" 
d="M586 58v-138h-61v80h-468v380h63v-322h148v322h63v-322h147v322h64v-322h44z" />
    <glyph glyph-name="uni042A" unicode="&#x42a;" horiz-adv-x="428" 
d="M368.5 203.5q36.5 -31.5 36.5 -86.5q0 -54 -36.5 -85.5t-99.5 -31.5h-160v322h-99v58h162v-145h97q63 0 99.5 -31.5zM341 118q0 63 -78 63h-91v-126h91q78 0 78 63z" />
    <glyph glyph-name="uni042B" unicode="&#x42b;" horiz-adv-x="534" 
d="M316.5 203.5q36.5 -31.5 36.5 -86.5q0 -54 -36.5 -85.5t-99.5 -31.5h-160v380h63v-145h97q63 0 99.5 -31.5zM289 118q0 63 -78 63h-91v-126h91q78 0 78 63zM414 380h63v-380h-63v380z" />
    <glyph glyph-name="uni042C" unicode="&#x42c;" horiz-adv-x="376" 
d="M316.5 203.5q36.5 -31.5 36.5 -86.5q0 -54 -36.5 -85.5t-99.5 -31.5h-160v380h63v-145h97q63 0 99.5 -31.5zM289 118q0 63 -78 63h-91v-126h91q78 0 78 63z" />
    <glyph glyph-name="uni042D" unicode="&#x42d;" horiz-adv-x="383" 
d="M306 332q49 -53 49 -142q0 -57 -22.5 -101.5t-63.5 -69t-94 -24.5q-58 0 -100.5 29.5t-60.5 81.5l58 21q11 -37 37.5 -57t64.5 -20q49 0 80.5 31.5t36.5 86.5h-154v54h153q-7 51 -38 79.5t-78 28.5q-38 0 -64.5 -20t-37.5 -57l-58 21q18 53 61 82t100 29q82 0 131 -53z
" />
    <glyph glyph-name="uni042E" unicode="&#x42e;" horiz-adv-x="575" 
d="M498.5 331.5q48.5 -53.5 48.5 -141.5q0 -57 -22.5 -101.5t-62.5 -69t-92 -24.5q-75 0 -122 46.5t-54 124.5h-74v-166h-63v380h63v-156h75q10 73 57.5 117t117.5 44q80 0 128.5 -53.5zM451.5 88q30.5 38 30.5 102t-30.5 102t-81.5 38q-52 0 -82.5 -38t-30.5 -102
t30.5 -102t82.5 -38q51 0 81.5 38z" />
    <glyph glyph-name="uni042F" unicode="&#x42f;" horiz-adv-x="389" 
d="M332 0h-63v147h-91l-89 -147h-71l96 157q-35 13 -54.5 40.5t-19.5 66.5q0 53 36.5 84.5t98.5 31.5h157v-380zM269 200v125h-88q-77 0 -77 -63q0 -62 77 -62h88z" />
    <glyph glyph-name="uni0430" unicode="&#x430;" horiz-adv-x="322" 
d="M302 52v-52q-6 -2 -21 -2q-28 0 -41.5 11t-16.5 37q-16 -23 -44 -37t-61 -14q-44 0 -71 24.5t-27 63.5q0 49 35.5 69.5t93.5 29.5q38 5 52.5 11t14.5 22q0 18 -17.5 29t-45.5 11q-25 0 -48.5 -10.5t-41.5 -29.5l-37 39q54 51 130 51q54 0 85 -26.5t31 -72.5v-135
q0 -19 19 -19h11zM188.5 65q25.5 21 25.5 49v39q-7 -5 -22.5 -8.5t-35.5 -6.5q-38 -6 -57.5 -15.5t-19.5 -35.5q0 -21 13 -32t36 -11q35 0 60.5 21z" />
    <glyph glyph-name="uni0431" unicode="&#x431;" horiz-adv-x="343" 
d="M281 34q-41 -39 -105 -39q-67 0 -107 46.5t-40 125.5q0 87 32.5 134.5t101.5 61.5l71 15q16 3 19 20l2 9l57 -10l-1 -10q-4 -50 -58 -62l-87 -18q-40 -8 -59.5 -29t-23.5 -58q17 24 45 36.5t64 12.5q56 0 92 -38t37 -97q1 -61 -40 -100zM236.5 69.5q22.5 23.5 22.5 63.5
q0 41 -22.5 65t-60.5 24t-61 -23t-23 -63t23.5 -65t60.5 -25q38 0 60.5 23.5z" />
    <glyph glyph-name="uni0432" unicode="&#x432;" horiz-adv-x="323" 
d="M296 82q0 -40 -27.5 -61t-76.5 -21h-145v300h134q51 0 79 -19.5t28 -58.5q0 -49 -43 -68q51 -19 51 -72zM105 176h76q26 0 37 9t11 30q0 18 -12 27.5t-33 9.5h-79v-76zM223 58.5q13 10.5 13 30.5t-14.5 31t-39.5 11h-77v-83h81q24 0 37 10.5z" />
    <glyph glyph-name="uni0433" unicode="&#x433;" horiz-adv-x="273" 
d="M263 300v-55h-156v-245h-60v300h216z" />
    <glyph glyph-name="uni0434" unicode="&#x434;" horiz-adv-x="366" 
d="M347 53v-123h-57v70h-216v-70h-57v123h35q9 36 9 122v125h246v-247h40zM248 53v194h-129v-75q0 -74 -9 -119h138z" />
    <glyph glyph-name="uni0435" unicode="&#x435;" horiz-adv-x="341" 
d="M114.5 68.5q24.5 -22.5 63.5 -22.5q59 0 89 39l41 -36q-20 -24 -52.5 -39t-77.5 -15q-72 0 -112.5 43t-40.5 112t41 112t107 43t105.5 -42t39.5 -113q0 -12 -2 -19h-231q5 -40 29.5 -62.5zM115.5 234q-22.5 -21 -29.5 -57h171q-6 37 -28 57.5t-56 20.5q-35 0 -57.5 -21z
" />
    <glyph glyph-name="uni0436" unicode="&#x436;" horiz-adv-x="483" 
d="M406 0l-93 141l-41 -41v-100h-60v99l-42 42l-92 -141h-73l123 181l-118 119h76l126 -133v133h60v-132l126 132h75l-117 -118l122 -182h-72z" />
    <glyph glyph-name="uni0437" unicode="&#x437;" horiz-adv-x="283" 
d="M252.5 129q13.5 -18 13.5 -44q0 -40 -35 -65t-92 -25q-46 0 -80 21t-49 59l50 22q24 -52 80 -52q30 0 47.5 11.5t17.5 31.5q0 19 -15.5 30t-43.5 11h-38v47h36q24 0 37 10.5t13 28.5q0 19 -14 30t-39 11q-52 0 -72 -48l-49 26q16 33 48.5 52t74.5 19q50 0 79.5 -23.5
t30.5 -63.5q0 -43 -39 -63q25 -8 38.5 -26z" />
    <glyph glyph-name="uni0438" unicode="&#x438;" horiz-adv-x="361" 
d="M252 300h62v-300h-59v218l-146 -218h-62v300h59v-216z" />
    <glyph glyph-name="uni0439" unicode="&#x439;" horiz-adv-x="361" 
d="M252 300h62v-300h-59v218l-146 -218h-62v300h59v-216zM117 346.5q-24 18.5 -28 52.5l47 8q2 -19 13.5 -29t30.5 -10t30.5 10t13.5 29l47 -8q-4 -34 -28 -52.5t-63 -18.5t-63 18.5z" />
    <glyph glyph-name="uni043A" unicode="&#x43a;" horiz-adv-x="325" 
d="M251 0l-101 139l-43 -41v-98h-60v300h60v-134l135 134h76l-125 -120l131 -180h-73z" />
    <glyph glyph-name="uni043B" unicode="&#x43b;" horiz-adv-x="353" 
d="M306 0h-60v247h-124v-108q0 -80 -18.5 -110.5t-62.5 -30.5q-14 0 -28 2v55h16q14 0 21 5.5t10 24.5t3 60v155h243v-300z" />
    <glyph glyph-name="uni043C" unicode="&#x43c;" horiz-adv-x="448" 
d="M401 300v-300h-58v237l-87 -237h-64l-87 237v-237h-58v300h92l86 -233l85 233h91z" />
    <glyph glyph-name="uni043D" unicode="&#x43d;" 
d="M253 300h60v-300h-60v126h-146v-126h-60v300h60v-120h146v120z" />
    <glyph glyph-name="uni043E" unicode="&#x43e;" horiz-adv-x="354" 
d="M66.5 37.5q-41.5 42.5 -41.5 112.5q0 69 42 112t110 43q69 0 110.5 -42.5t41.5 -112.5q0 -69 -42 -112t-110 -43q-69 0 -110.5 42.5zM243 74.5q25 28.5 25 75.5t-25 75.5t-66 28.5t-66 -28.5t-25 -75.5t25 -75.5t66 -28.5t66 28.5z" />
    <glyph glyph-name="uni043F" unicode="&#x43f;" 
d="M313 300v-300h-60v247h-146v-247h-60v300h266z" />
    <glyph glyph-name="uni0440" unicode="&#x440;" horiz-adv-x="362" 
d="M301 262.5q36 -42.5 36 -112.5q0 -69 -36.5 -112t-94.5 -43q-31 0 -56.5 11.5t-42.5 33.5v-140h-60v400h52l4 -47q18 25 44.5 38.5t58.5 13.5q59 0 95 -42.5zM253 74.5q23 28.5 23 75.5t-23 75.5t-63 28.5t-63.5 -28.5t-23.5 -75.5t23.5 -75.5t63.5 -28.5t63 28.5z" />
    <glyph glyph-name="uni0441" unicode="&#x441;" horiz-adv-x="326" 
d="M66.5 38q-41.5 43 -41.5 112t41.5 112t108.5 43q49 0 85 -24t49 -66l-57 -18q-10 27 -30 42t-47 15q-41 0 -65 -28.5t-24 -75.5t24 -75.5t65 -28.5q27 0 47 15t30 42l57 -18q-13 -42 -49 -66t-85 -24q-67 0 -108.5 43z" />
    <glyph glyph-name="uni0442" unicode="&#x442;" horiz-adv-x="296" 
d="M286 300v-53h-108v-247h-60v247h-108v53h276z" />
    <glyph glyph-name="uni0443" unicode="&#x443;" horiz-adv-x="328" 
d="M322 300l-111 -311q-15 -43 -41 -68.5t-62 -25.5q-42 0 -64 25.5t-22 62.5l55 9q-2 -43 32 -43q22 0 39 31l-141 320h66l105 -251l82 251h62z" />
    <glyph glyph-name="uni0444" unicode="&#x444;" horiz-adv-x="516" 
d="M459.5 261.5q32.5 -41.5 32.5 -111.5q0 -68 -33.5 -110.5t-85.5 -42.5q-54 0 -85 40v-137h-60v138q-30 -41 -84 -41t-86.5 41.5t-32.5 111.5q0 69 33 111t86 42q54 0 84 -39v136h60v-138q30 41 85 41q54 0 86.5 -41.5zM211.5 74.5q19.5 28.5 19.5 75.5t-19.5 75.5
t-52.5 28.5q-34 0 -53.5 -28.5t-19.5 -75.5t19.5 -75.5t53.5 -28.5q33 0 52.5 28.5zM411 74.5q20 28.5 20 75.5t-20 75.5t-53 28.5q-34 0 -53.5 -28.5t-19.5 -75.5t19.5 -75.5t53.5 -28.5q33 0 53 28.5z" />
    <glyph glyph-name="uni0445" unicode="&#x445;" horiz-adv-x="331" 
d="M318 0h-72l-81 112l-82 -112h-70l115 153l-109 147h71l77 -106l78 106h68l-109 -147z" />
    <glyph glyph-name="uni0446" unicode="&#x446;" horiz-adv-x="367" 
d="M309 53h39v-123h-57v70h-244v300h60v-247h142v247h60v-247z" />
    <glyph glyph-name="uni0447" unicode="&#x447;" horiz-adv-x="330" 
d="M283 300v-300h-60v113h-74q-58 0 -89.5 27.5t-31.5 76.5v83h60v-83q0 -26 14 -38t47 -12h74v133h60z" />
    <glyph glyph-name="uni0448" unicode="&#x448;" horiz-adv-x="502" 
d="M395 300h60v-300h-408v300h60v-247h114v247h60v-247h114v247z" />
    <glyph glyph-name="uni0449" unicode="&#x449;" horiz-adv-x="513" 
d="M455 53h39v-123h-57v70h-390v300h60v-247h114v247h60v-247h114v247h60v-247z" />
    <glyph glyph-name="uni044A" unicode="&#x44a;" horiz-adv-x="361" 
d="M313 162q29 -25 29 -68t-29.5 -68.5t-78.5 -25.5h-142v245h-82v55h142v-113h82q50 0 79 -25zM267.5 61.5q13.5 11.5 13.5 32.5t-13.5 32.5t-39.5 11.5h-76v-88h76q26 0 39.5 11.5z" />
    <glyph glyph-name="uni044B" unicode="&#x44b;" horiz-adv-x="453" 
d="M268 162q29 -25 29 -68t-29.5 -68.5t-78.5 -25.5h-142v300h60v-113h82q50 0 79 -25zM222.5 61.5q13.5 11.5 13.5 32.5t-13.5 32.5t-39.5 11.5h-76v-88h76q26 0 39.5 11.5zM346 300h60v-300h-60v300z" />
    <glyph glyph-name="uni044C" unicode="&#x44c;" horiz-adv-x="316" 
d="M268 162q29 -25 29 -68t-29.5 -68.5t-78.5 -25.5h-142v300h60v-113h82q50 0 79 -25zM222.5 61.5q13.5 11.5 13.5 32.5t-13.5 32.5t-39.5 11.5h-76v-88h76q26 0 39.5 11.5z" />
    <glyph glyph-name="uni044D" unicode="&#x44d;" horiz-adv-x="326" 
d="M259.5 262q41.5 -43 41.5 -112t-41.5 -112t-108.5 -43q-48 0 -84.5 23.5t-49.5 64.5l54 18q10 -26 31 -40.5t49 -14.5q37 0 61 22t29 61h-128v48h127q-7 36 -30 56.5t-59 20.5q-29 0 -49.5 -14.5t-31.5 -40.5l-53 18q14 41 50.5 64.5t83.5 23.5q67 0 108.5 -43z" />
    <glyph glyph-name="uni044E" unicode="&#x44e;" horiz-adv-x="486" 
d="M421 262.5q40 -42.5 40 -112.5q0 -69 -41 -112t-106 -43q-61 0 -100 35.5t-46 95.5h-61v-126h-60v300h60v-120h62q9 57 48.5 91t96.5 34q67 0 107 -42.5zM376.5 74.5q23.5 28.5 23.5 75.5t-23.5 75.5t-62.5 28.5q-40 0 -63.5 -28.5t-23.5 -75.5t23.5 -75.5t63.5 -28.5
q39 0 62.5 28.5z" />
    <glyph glyph-name="uni044F" unicode="&#x44f;" horiz-adv-x="324" 
d="M277 0h-60v113h-66l-73 -113h-67l80 121q-29 11 -44.5 32t-15.5 51q0 44 30 70t81 26h135v-300zM217 158v92h-69q-27 0 -42 -12t-15 -33q0 -22 15 -34.5t42 -12.5h69z" />
    <glyph glyph-name="uni0451" unicode="&#x451;" horiz-adv-x="341" 
d="M114.5 68.5q24.5 -22.5 63.5 -22.5q59 0 89 39l41 -36q-20 -24 -52.5 -39t-77.5 -15q-72 0 -112.5 43t-40.5 112t41 112t107 43t105.5 -42t39.5 -113q0 -12 -2 -19h-231q5 -40 29.5 -62.5zM115.5 234q-22.5 -21 -29.5 -57h171q-6 37 -28 57.5t-56 20.5q-35 0 -57.5 -21z
M87 402h65v-60h-65v60zM190 402h65v-60h-65v60z" />
    <glyph glyph-name="uni0454" unicode="&#x454;" horiz-adv-x="326" 
d="M223.5 60.5q20.5 14.5 31.5 41.5l55 -19q-13 -42 -49.5 -65t-85.5 -23q-67 0 -108.5 43t-41.5 112t41.5 112t108.5 43q49 0 85.5 -23t49.5 -65l-55 -19q-11 27 -31.5 41.5t-48.5 14.5q-36 0 -59 -20.5t-30 -56.5h127v-48h-128q5 -39 29 -61t61 -22q28 0 48.5 14.5z" />
    <glyph glyph-name="uni0456" unicode="&#x456;" horiz-adv-x="164" 
d="M52 300h60v-300h-60v300zM49 402h66v-60h-66v60z" />
    <glyph glyph-name="uni0457" unicode="&#x457;" horiz-adv-x="164" 
d="M52 300h60v-300h-60v300zM-2 402h65v-60h-65v60zM101 402h65v-60h-65v60z" />
    <glyph glyph-name="uni045E" unicode="&#x45e;" horiz-adv-x="328" 
d="M322 300l-111 -311q-15 -43 -41 -68.5t-62 -25.5q-42 0 -64 25.5t-22 62.5l55 9q-2 -43 32 -43q22 0 39 31l-141 320h66l105 -251l82 251h62zM102 346.5q-24 18.5 -28 52.5l47 8q2 -19 13.5 -29t30.5 -10t30.5 10t13.5 29l47 -8q-4 -34 -28 -52.5t-63 -18.5t-63 18.5z
" />
    <glyph glyph-name="uni0490" unicode="&#x490;" horiz-adv-x="322" 
d="M250 460h61v-138h-191v-322h-63v380h193v80z" />
    <glyph glyph-name="uni0491" unicode="&#x491;" horiz-adv-x="273" 
d="M206 380h57v-135h-156v-245h-60v300h159v80z" />
    <glyph glyph-name="Wgrave" unicode="&#x1e80;" horiz-adv-x="561" 
d="M481 380h62l-110 -380h-66l-87 298l-86 -298h-66l-110 380h65l82 -290l82 290h67l83 -292zM257 408l-59 73h72l30 -73h-43z" />
    <glyph glyph-name="wgrave" unicode="&#x1e81;" horiz-adv-x="474" 
d="M401 300h59l-92 -300h-65l-66 220l-65 -220h-66l-92 300h62l65 -232l67 232h59l68 -232zM213 328l-59 73h72l30 -73h-43z" />
    <glyph glyph-name="Wacute" unicode="&#x1e82;" horiz-adv-x="561" 
d="M481 380h62l-110 -380h-66l-87 298l-86 -298h-66l-110 380h65l82 -290l82 290h67l83 -292zM292 481h72l-59 -73h-43z" />
    <glyph glyph-name="wacute" unicode="&#x1e83;" horiz-adv-x="474" 
d="M401 300h59l-92 -300h-65l-66 220l-65 -220h-66l-92 300h62l65 -232l67 232h59l68 -232zM248 401h72l-59 -73h-43z" />
    <glyph glyph-name="Wdieresis" unicode="&#x1e84;" horiz-adv-x="561" 
d="M481 380h62l-110 -380h-66l-87 298l-86 -298h-66l-110 380h65l82 -290l82 290h67l83 -292zM197 482h65v-60h-65v60zM300 482h65v-60h-65v60z" />
    <glyph glyph-name="wdieresis" unicode="&#x1e85;" horiz-adv-x="474" 
d="M401 300h59l-92 -300h-65l-66 220l-65 -220h-66l-92 300h62l65 -232l67 232h59l68 -232zM153 402h65v-60h-65v60zM256 402h65v-60h-65v60z" />
    <glyph glyph-name="uni1E9E" unicode="&#x1e9e;" horiz-adv-x="434" 
d="M374.5 194q32.5 -31 32.5 -80q0 -51 -37 -85t-101 -34q-34 0 -62 11.5t-46 32.5l35 40q27 -32 73 -32q34 0 55 18t21 49q0 29 -19.5 48.5t-52.5 19.5q-27 0 -51 -16l-30 38l111 120h-183v-324h-63v380h323v-48l-98 -107h5q55 0 87.5 -31z" />
    <glyph glyph-name="Ygrave" unicode="&#x1ef2;" horiz-adv-x="371" 
d="M367 380l-150 -230v-150h-63v152l-150 228h73l110 -171l109 171h71zM162 408l-59 73h72l30 -73h-43z" />
    <glyph glyph-name="ygrave" unicode="&#x1ef3;" horiz-adv-x="328" 
d="M322 300l-111 -311q-15 -43 -41 -68.5t-62 -25.5q-42 0 -64 25.5t-22 62.5l55 9q-2 -43 32 -43q22 0 39 31l-141 320h66l105 -251l82 251h62zM141 328l-59 73h72l30 -73h-43z" />
    <glyph glyph-name="endash" unicode="&#x2013;" horiz-adv-x="324" 
d="M35 198h254v-56h-254v56z" />
    <glyph glyph-name="emdash" unicode="&#x2014;" horiz-adv-x="444" 
d="M35 198h374v-56h-374v56z" />
    <glyph glyph-name="quoteleft" unicode="&#x2018;" horiz-adv-x="152" 
d="M79.5 355q-6.5 -8 -6.5 -25v-2h38v-78h-78v72q0 39 18 58.5t49 19.5h11v-37h-10q-15 0 -21.5 -8z" />
    <glyph glyph-name="quoteright" unicode="&#x2019;" horiz-adv-x="152" 
d="M51 267q15 0 21.5 8t6.5 25v2h-38v78h78v-72q0 -39 -18 -58.5t-49 -19.5h-11v37h10z" />
    <glyph glyph-name="quotesinglbase" unicode="&#x201a;" horiz-adv-x="160" 
d="M51 -35q15 0 21.5 8t6.5 25v2h-38v78h78v-72q0 -39 -18 -58.5t-49 -19.5h-11v37h10z" />
    <glyph glyph-name="quotedblleft" unicode="&#x201c;" horiz-adv-x="270" 
d="M79.5 355q-6.5 -8 -6.5 -25v-2h38v-78h-78v72q0 39 18 58.5t49 19.5h11v-37h-10q-15 0 -21.5 -8zM197.5 355q-6.5 -8 -6.5 -25v-2h38v-78h-78v72q0 39 18 58.5t49 19.5h11v-37h-10q-15 0 -21.5 -8z" />
    <glyph glyph-name="quotedblright" unicode="&#x201d;" horiz-adv-x="270" 
d="M51 267q15 0 21.5 8t6.5 25v2h-38v78h78v-72q0 -39 -18 -58.5t-49 -19.5h-11v37h10zM169 267q15 0 21.5 8t6.5 25v2h-38v78h78v-72q0 -39 -18 -58.5t-49 -19.5h-11v37h10z" />
    <glyph glyph-name="quotedblbase" unicode="&#x201e;" horiz-adv-x="278" 
d="M51 -35q15 0 21.5 8t6.5 25v2h-38v78h78v-72q0 -39 -18 -58.5t-49 -19.5h-11v37h10zM169 -35q15 0 21.5 8t6.5 25v2h-38v78h78v-72q0 -39 -18 -58.5t-49 -19.5h-11v37h10z" />
    <glyph glyph-name="dagger" unicode="&#x2020;" horiz-adv-x="232" 
d="M192 350v-36h-56v-92h-40v92h-56v36h56v50h40v-50h56z" />
    <glyph glyph-name="daggerdbl" unicode="&#x2021;" horiz-adv-x="232" 
d="M192 325h-56v-28h56v-36h-56v-39h-40v39h-56v36h56v28h-56v36h56v39h40v-39h56v-36z" />
    <glyph glyph-name="bullet" unicode="&#x2022;" horiz-adv-x="368" 
d="M127 113q-23 23 -23 57q0 35 23 57.5t57 22.5q35 0 57.5 -22.5t22.5 -57.5q0 -34 -22.5 -57t-57.5 -23q-34 0 -57 23z" />
    <glyph glyph-name="ellipsis" unicode="&#x2026;" horiz-adv-x="448" 
d="M41 78h78v-78h-78v78zM185 78h78v-78h-78v78zM329 78h78v-78h-78v78z" />
    <glyph glyph-name="perthousand" unicode="&#x2030;" horiz-adv-x="768" 
d="M55.5 186.5q-27.5 31.5 -27.5 83.5t27.5 83.5t74.5 31.5t74.5 -31.5t27.5 -83.5t-27.5 -83.5t-74.5 -31.5t-74.5 31.5zM172 0h-47l241 380h47zM169.5 217q14.5 20 14.5 53t-14.5 53t-39.5 20t-39.5 -20t-14.5 -53t14.5 -53t39.5 -20t39.5 20zM333.5 26.5
q-27.5 31.5 -27.5 83.5t27.5 83.5t74.5 31.5t74.5 -31.5t27.5 -83.5t-27.5 -83.5t-74.5 -31.5t-74.5 31.5zM571.5 26.5q-27.5 31.5 -27.5 83.5t27.5 83.5t74.5 31.5t74.5 -31.5t27.5 -83.5t-27.5 -83.5t-74.5 -31.5t-74.5 31.5zM447.5 57q14.5 20 14.5 53t-14.5 53t-39.5 20
t-39.5 -20t-14.5 -53t14.5 -53t39.5 -20t39.5 20zM685.5 57q14.5 20 14.5 53t-14.5 53t-39.5 20t-39.5 -20t-14.5 -53t14.5 -53t39.5 -20t39.5 20z" />
    <glyph glyph-name="prime" unicode="&#x2032;" horiz-adv-x="253" 
d="M158 401h72l-59 -73h-43z" />
    <glyph glyph-name="guilsinglleft" unicode="&#x2039;" horiz-adv-x="203" 
d="M158 286v-65l-71 -50l71 -50v-67l-122 86v60z" />
    <glyph glyph-name="guilsinglright" unicode="&#x203a;" horiz-adv-x="203" 
d="M46 286l122 -86v-60l-122 -86v65l70 50l-70 50v67z" />
    <glyph glyph-name="fraction" unicode="&#x2044;" horiz-adv-x="20" 
d="M107 380h47l-241 -380h-47z" />
    <glyph glyph-name="uni2070" unicode="&#x2070;" horiz-adv-x="234" 
d="M44 264.5q-27 31.5 -27 83.5t27 83.5t73 31.5t73 -31.5t27 -83.5t-27 -83.5t-73 -31.5t-73 31.5zM156.5 294.5q14.5 20.5 14.5 53.5q0 34 -14.5 54.5t-39.5 20.5q-24 0 -39 -20.5t-15 -54.5q0 -33 15 -53.5t39 -20.5q25 0 39.5 20.5z" />
    <glyph glyph-name="uni2074" unicode="&#x2074;" horiz-adv-x="234" 
d="M219 327v-40h-37v-51h-44v51h-121v37l110 136h55v-133h37zM65 327h73v91z" />
    <glyph glyph-name="uni2075" unicode="&#x2075;" horiz-adv-x="234" 
d="M181 366.5q22 -20.5 22 -52.5q0 -35 -26.5 -58t-67.5 -23q-29 0 -52 11.5t-35 31.5l31 25q9 -13 23.5 -20.5t32.5 -7.5q22 0 35.5 10.5t13.5 29.5q0 18 -12.5 28t-33.5 10q-14 0 -25.5 -5t-18.5 -15l-33 12l11 117h141v-40h-106l-4 -44q20 11 46 11q36 0 58 -20.5z" />
    <glyph glyph-name="uni2076" unicode="&#x2076;" horiz-adv-x="234" 
d="M193 362q23 -20 23 -52q0 -34 -26 -55.5t-65 -21.5q-47 0 -73 32.5t-26 81.5q0 50 27.5 83t77.5 33q24 0 43.5 -7.5t32.5 -21.5l-32 -32q-8 9 -20.5 14.5t-26.5 5.5q-27 0 -42.5 -19t-17.5 -48q21 27 64 27q38 0 61 -20zM157.5 282q12.5 10 12.5 27q0 16 -12.5 27
t-31.5 11q-21 0 -34 -10.5t-13 -27.5t12.5 -27t33.5 -10q20 0 32.5 10z" />
    <glyph glyph-name="uni2077" unicode="&#x2077;" horiz-adv-x="204" 
d="M197 460v-36q-41 -32 -64.5 -81.5t-23.5 -106.5h-48q0 50 22.5 99t58.5 82h-137v43h192z" />
    <glyph glyph-name="uni2078" unicode="&#x2078;" horiz-adv-x="234" 
d="M210 297q0 -29 -25 -46.5t-68 -17.5t-68 17.5t-25 46.5q0 36 40 54q-33 16 -33 49q0 29 23.5 46t62.5 17t62.5 -17t23.5 -46q0 -33 -33 -49q40 -18 40 -54zM85.5 419q-11.5 -8 -11.5 -23q0 -12 11.5 -20t31.5 -8t31.5 8t11.5 20q0 15 -11.5 23t-31.5 8t-31.5 -8zM152 277
q13 8 13 22t-13 22t-35 8t-35 -8t-13 -22t13 -22t35 -8t35 8z" />
    <glyph glyph-name="uni2079" unicode="&#x2079;" horiz-adv-x="234" 
d="M182 430.5q26 -32.5 26 -81.5q0 -50 -27.5 -83t-77.5 -33q-24 0 -43.5 7.5t-32.5 21.5l32 32q8 -9 20.5 -14.5t26.5 -5.5q27 0 42.5 19t17.5 48q-21 -27 -64 -27q-38 0 -61 20t-23 52q0 34 26 55.5t65 21.5q47 0 73 -32.5zM142 359.5q13 10.5 13 27.5t-12.5 27t-33.5 10
q-20 0 -32.5 -10t-12.5 -27q0 -16 12.5 -27t31.5 -11q21 0 34 10.5z" />
    <glyph glyph-name="uni2080" unicode="&#x2080;" horiz-adv-x="234" 
d="M44 -51.5q-27 31.5 -27 83.5t27 83.5t73 31.5t73 -31.5t27 -83.5t-27 -83.5t-73 -31.5t-73 31.5zM156.5 -21.5q14.5 20.5 14.5 53.5q0 34 -14.5 54.5t-39.5 20.5q-24 0 -39 -20.5t-15 -54.5q0 -33 15 -53.5t39 -20.5q25 0 39.5 20.5z" />
    <glyph glyph-name="uni2081" unicode="&#x2081;" horiz-adv-x="190" 
d="M89 -80v148h-61v38h15q32 0 43.5 8t13.5 30h35v-224h-46z" />
    <glyph glyph-name="uni2082" unicode="&#x2082;" horiz-adv-x="234" 
d="M210 -38v-42h-182v32l86 64q43 33 43 60q0 14 -10.5 22.5t-28.5 8.5q-20 0 -32 -11t-14 -31l-44 6q3 35 27.5 55.5t64.5 20.5q38 0 61 -18t23 -48q0 -23 -16 -44.5t-55 -50.5l-31 -24h108z" />
    <glyph glyph-name="uni2083" unicode="&#x2083;" horiz-adv-x="234" 
d="M186 38.5q19 -18.5 19 -45.5q0 -33 -26.5 -54.5t-65.5 -21.5q-32 0 -57.5 14t-36.5 38l35 22q17 -34 59 -34q21 0 33.5 10t12.5 26t-11 25.5t-29 9.5q-14 0 -26 -6l-20 23l63 58h-105v41h166v-34l-60 -52q30 -1 49 -19.5z" />
    <glyph glyph-name="uni2084" unicode="&#x2084;" horiz-adv-x="234" 
d="M219 11v-40h-37v-51h-44v51h-121v37l110 136h55v-133h37zM65 11h73v91z" />
    <glyph glyph-name="uni2085" unicode="&#x2085;" horiz-adv-x="234" 
d="M181 50.5q22 -20.5 22 -52.5q0 -35 -26.5 -58t-67.5 -23q-29 0 -52 11.5t-35 31.5l31 25q9 -13 23.5 -20.5t32.5 -7.5q22 0 35.5 10.5t13.5 29.5q0 18 -12.5 28t-33.5 10q-14 0 -25.5 -5t-18.5 -15l-33 12l11 117h141v-40h-106l-4 -44q20 11 46 11q36 0 58 -20.5z" />
    <glyph glyph-name="uni2086" unicode="&#x2086;" horiz-adv-x="234" 
d="M193 46q23 -20 23 -52q0 -34 -26 -55.5t-65 -21.5q-47 0 -73 32.5t-26 81.5q0 50 27.5 83t77.5 33q24 0 43.5 -7.5t32.5 -21.5l-32 -32q-8 9 -20.5 14.5t-26.5 5.5q-27 0 -42.5 -19t-17.5 -48q21 27 64 27q38 0 61 -20zM157.5 -34q12.5 10 12.5 27q0 16 -12.5 27
t-31.5 11q-21 0 -34 -10.5t-13 -27.5t12.5 -27t33.5 -10q20 0 32.5 10z" />
    <glyph glyph-name="uni2087" unicode="&#x2087;" horiz-adv-x="204" 
d="M197 144v-36q-41 -32 -64.5 -81.5t-23.5 -106.5h-48q0 50 22.5 99t58.5 82h-137v43h192z" />
    <glyph glyph-name="uni2088" unicode="&#x2088;" horiz-adv-x="234" 
d="M210 -19q0 -29 -25 -46.5t-68 -17.5t-68 17.5t-25 46.5q0 36 40 54q-33 16 -33 49q0 29 23.5 46t62.5 17t62.5 -17t23.5 -46q0 -33 -33 -49q40 -18 40 -54zM85.5 103q-11.5 -8 -11.5 -23q0 -12 11.5 -20t31.5 -8t31.5 8t11.5 20q0 15 -11.5 23t-31.5 8t-31.5 -8zM152 -39
q13 8 13 22t-13 22t-35 8t-35 -8t-13 -22t13 -22t35 -8t35 8z" />
    <glyph glyph-name="uni2089" unicode="&#x2089;" horiz-adv-x="234" 
d="M182 114.5q26 -32.5 26 -81.5q0 -50 -27.5 -83t-77.5 -33q-24 0 -43.5 7.5t-32.5 21.5l32 32q8 -9 20.5 -14.5t26.5 -5.5q27 0 42.5 19t17.5 48q-21 -27 -64 -27q-38 0 -61 20t-23 52q0 34 26 55.5t65 21.5q47 0 73 -32.5zM142 43.5q13 10.5 13 27.5t-12.5 27t-33.5 10
q-20 0 -32.5 -10t-12.5 -27q0 -16 12.5 -27t31.5 -11q21 0 34 10.5z" />
    <glyph glyph-name="Euro" unicode="&#x20ac;" 
d="M242 63.5q20 16.5 31 45.5l56 -25q-19 -43 -52.5 -66t-80.5 -23q-57 0 -96 36t-52 100h-38v38h34q-1 7 -1 21t1 21h-34v38h38q13 64 52 100t96 36q47 0 80.5 -23t52.5 -66l-56 -25q-11 29 -31 45.5t-46 16.5q-31 0 -53.5 -22t-32.5 -62h109v-38h-114q-1 -7 -1 -21t1 -21
h114v-38h-109q10 -40 32.5 -62t53.5 -22q26 0 46 16.5z" />
    <glyph glyph-name="uni20BD" unicode="&#x20bd;" horiz-adv-x="354" 
d="M135 152v-41h139v-39h-139v-72h-61v72h-53v39h53v41h-53v39h53v189h121q61 0 96.5 -31t35.5 -83t-35.5 -83t-96.5 -31h-60zM135 327v-136h44q85 0 85 68t-85 68h-44z" />
    <glyph glyph-name="uni2116" unicode="&#x2116;" horiz-adv-x="623" 
d="M315 101v279h60v-380h-61l-197 281v-281h-60v380h62zM456.5 241q-23.5 23 -23.5 58t23.5 58t59.5 23t59 -23t23 -58t-23 -58t-59 -23t-59.5 23zM483.5 332.5q-12.5 -12.5 -12.5 -33.5t12.5 -33.5t32.5 -12.5t32.5 12.5t12.5 33.5t-12.5 33.5t-32.5 12.5t-32.5 -12.5z
M443 140v40h146v-40h-146z" />
    <glyph glyph-name="trademark" unicode="&#x2122;" horiz-adv-x="497" 
d="M192 380v-42h-64v-148h-45v148h-64v42h173zM449 380v-190h-43v136l-50 -136h-44l-50 138v-138h-43v190h64l51 -136l51 136h64z" />
    <glyph glyph-name="oneeighth" unicode="&#x215b;" horiz-adv-x="444" 
d="M89 156v148h-61v38h15q32 0 43.5 8t13.5 30h35v-224h-46zM297 380h47l-241 -380h-47zM420 61q0 -29 -25 -46.5t-68 -17.5t-68 17.5t-25 46.5q0 36 40 54q-33 16 -33 49q0 29 23.5 46t62.5 17t62.5 -17t23.5 -46q0 -33 -33 -49q40 -18 40 -54zM295.5 183
q-11.5 -8 -11.5 -23q0 -12 11.5 -20t31.5 -8t31.5 8t11.5 20q0 15 -11.5 23t-31.5 8t-31.5 -8zM362 41q13 8 13 22t-13 22t-35 8t-35 -8t-13 -22t13 -22t35 -8t35 8z" />
    <glyph glyph-name="threeeighths" unicode="&#x215c;" horiz-adv-x="488" 
d="M186 274.5q19 -18.5 19 -45.5q0 -33 -26.5 -54.5t-65.5 -21.5q-32 0 -57.5 14t-36.5 38l35 22q17 -34 59 -34q21 0 33.5 10t12.5 26t-11 25.5t-29 9.5q-14 0 -26 -6l-20 23l63 58h-105v41h166v-34l-60 -52q30 -1 49 -19.5zM341 380h47l-241 -380h-47zM464 61
q0 -29 -25 -46.5t-68 -17.5t-68 17.5t-25 46.5q0 36 40 54q-33 16 -33 49q0 29 23.5 46t62.5 17t62.5 -17t23.5 -46q0 -33 -33 -49q40 -18 40 -54zM339.5 183q-11.5 -8 -11.5 -23q0 -12 11.5 -20t31.5 -8t31.5 8t11.5 20q0 15 -11.5 23t-31.5 8t-31.5 -8zM406 41q13 8 13 22
t-13 22t-35 8t-35 -8t-13 -22t13 -22t35 -8t35 8z" />
    <glyph glyph-name="fiveeighths" unicode="&#x215d;" horiz-adv-x="488" 
d="M181 286.5q22 -20.5 22 -52.5q0 -35 -26.5 -58t-67.5 -23q-29 0 -52 11.5t-35 31.5l31 25q9 -13 23.5 -20.5t32.5 -7.5q22 0 35.5 10.5t13.5 29.5q0 18 -12.5 28t-33.5 10q-14 0 -25.5 -5t-18.5 -15l-33 12l11 117h141v-40h-106l-4 -44q20 11 46 11q36 0 58 -20.5z
M341 380h47l-241 -380h-47zM464 61q0 -29 -25 -46.5t-68 -17.5t-68 17.5t-25 46.5q0 36 40 54q-33 16 -33 49q0 29 23.5 46t62.5 17t62.5 -17t23.5 -46q0 -33 -33 -49q40 -18 40 -54zM339.5 183q-11.5 -8 -11.5 -23q0 -12 11.5 -20t31.5 -8t31.5 8t11.5 20q0 15 -11.5 23
t-31.5 8t-31.5 -8zM406 41q13 8 13 22t-13 22t-35 8t-35 -8t-13 -22t13 -22t35 -8t35 8z" />
    <glyph glyph-name="seveneighths" unicode="&#x215e;" horiz-adv-x="458" 
d="M197 380v-36q-41 -32 -64.5 -81.5t-23.5 -106.5h-48q0 50 22.5 99t58.5 82h-137v43h192zM298 380h47l-241 -380h-47zM434 61q0 -29 -25 -46.5t-68 -17.5t-68 17.5t-25 46.5q0 36 40 54q-33 16 -33 49q0 29 23.5 46t62.5 17t62.5 -17t23.5 -46q0 -33 -33 -49
q40 -18 40 -54zM309.5 183q-11.5 -8 -11.5 -23q0 -12 11.5 -20t31.5 -8t31.5 8t11.5 20q0 15 -11.5 23t-31.5 8t-31.5 -8zM376 41q13 8 13 22t-13 22t-35 8t-35 -8t-13 -22t13 -22t35 -8t35 8z" />
    <glyph glyph-name="arrowboth" unicode="&#x2194;" horiz-adv-x="421" 
d="M281 338l148 -148l-148 -148l-39 39l83 82h-229l83 -82l-39 -39l-148 148l148 148l39 -39l-83 -82h229l-83 82z" />
    <glyph glyph-name="arrowupdn" unicode="&#x2195;" horiz-adv-x="400" 
d="M227 70l82 83l39 -39l-148 -148l-148 148l39 39l82 -83v229l-82 -83l-39 39l148 148l148 -148l-39 -39l-82 83v-229z" />
    <glyph glyph-name="minus" unicode="&#x2212;" 
d="M44 215h272v-50h-272v50z" />
    <glyph glyph-name="approxequal" unicode="&#x2248;" 
d="M65.5 150q21.5 18 53.5 18q19 0 34 -6t33 -17q16 -9 28.5 -14t26.5 -5q28 0 51 38l37 -29q-35 -59 -88 -59q-19 0 -34 6t-33 17q-16 9 -28.5 14t-26.5 5q-28 0 -51 -37l-37 29q13 22 34.5 40zM65.5 286q21.5 18 53.5 18q19 0 34 -6t33 -17q16 -9 28.5 -14t26.5 -5
q28 0 51 38l37 -29q-35 -59 -88 -59q-19 0 -34 6t-33 17q-16 9 -28.5 14t-26.5 5q-28 0 -51 -37l-37 29q13 22 34.5 40z" />
    <glyph glyph-name="notequal" unicode="&#x2260;" 
d="M316 233h-88l-44 -86h132v-50h-159l-23 -45h-52l23 45h-61v50h88l44 86h-132v50h159l23 45h52l-23 -45h61v-50z" />
    <glyph glyph-name="lessequal" unicode="&#x2264;" 
d="M316 350v-53l-201 -80l201 -80v-56l-272 109v52zM44 0v50h272v-50h-272z" />
    <glyph glyph-name="greaterequal" unicode="&#x2265;" 
d="M44 351l272 -109v-52l-272 -109v54l201 80l-201 79v57zM44 50h272v-50h-272v50z" />
    <glyph glyph-name="K.ss01" horiz-adv-x="392" 
d="M367 58v-58h-32q-30 0 -46.5 17t-16.5 48v100h-152v-165h-63v380h63v-157h75l98 157h70l-102 -157h74v-146q0 -8 5.5 -13.5t13.5 -5.5h13z" />
    <glyph glyph-name="uni0136.ss01" horiz-adv-x="392" 
d="M367 58v-58h-32q-30 0 -46.5 17t-16.5 48v100h-152v-165h-63v380h63v-157h75l98 157h70l-102 -157h74v-146q0 -8 5.5 -13.5t13.5 -5.5h13zM237 -30v-35q0 -29 -13.5 -43.5t-37.5 -14.5h-13v27h11q18 0 20 21h-31v45h64z" />
    <glyph glyph-name="R.ss01" horiz-adv-x="392" 
d="M369 58v-58h-32q-30 0 -46.5 17t-16.5 48v82h-154v-147h-63v380h159q62 0 98 -29.5t36 -79.5q0 -32 -18 -56t-49 -35h54v-103q0 -8 5.5 -13.5t13.5 -5.5h13zM120 325v-125h89q78 0 78 63q0 62 -78 62h-89z" />
    <glyph glyph-name="Racute.ss01" horiz-adv-x="391" 
d="M369 58v-58h-32q-30 0 -46.5 17t-16.5 48v82h-154v-147h-63v380h159q62 0 98 -29.5t36 -79.5q0 -32 -18 -56t-49 -35h54v-103q0 -8 5.5 -13.5t13.5 -5.5h13zM120 325v-125h89q78 0 78 63q0 62 -78 62h-89zM193 481h72l-59 -73h-43z" />
    <glyph glyph-name="Rcaron.ss01" horiz-adv-x="391" 
d="M369 58v-58h-32q-30 0 -46.5 17t-16.5 48v82h-154v-147h-63v380h159q62 0 98 -29.5t36 -79.5q0 -32 -18 -56t-49 -35h54v-103q0 -8 5.5 -13.5t13.5 -5.5h13zM120 325v-125h89q78 0 78 63q0 62 -78 62h-89zM220 481h53l-59 -73h-62l-60 73h54l37 -38z" />
    <glyph glyph-name="uni0156.ss01" horiz-adv-x="391" 
d="M369 58v-58h-32q-30 0 -46.5 17t-16.5 48v82h-154v-147h-63v380h159q62 0 98 -29.5t36 -79.5q0 -32 -18 -56t-49 -35h54v-103q0 -8 5.5 -13.5t13.5 -5.5h13zM120 325v-125h89q78 0 78 63q0 62 -78 62h-89zM242 -30v-35q0 -29 -13.5 -43.5t-37.5 -14.5h-13v27h11
q18 0 20 21h-31v45h64z" />
    <glyph glyph-name="Y.ss01" horiz-adv-x="382" 
d="M365 380l-106 -289q-35 -96 -114 -96q-43 0 -69 25.5t-26 66.5q0 24 9.5 44.5t27.5 33.5h41l-119 215h71l113 -215h31l74 215h67zM177.5 59q12.5 11 21.5 35l8 23h-88q-11 -13 -11 -29q0 -18 10.5 -29t28.5 -11t30.5 11z" />
    <glyph glyph-name="Yacute.ss01" horiz-adv-x="382" 
d="M365 380l-106 -289q-35 -96 -114 -96q-43 0 -69 25.5t-26 66.5q0 24 9.5 44.5t27.5 33.5h41l-119 215h71l113 -215h31l74 215h67zM177.5 59q12.5 11 21.5 35l8 23h-88q-11 -13 -11 -29q0 -18 10.5 -29t28.5 -11t30.5 11zM198 481h72l-59 -73h-43z" />
    <glyph glyph-name="Ycircumflex.ss01" horiz-adv-x="382" 
d="M365 380l-106 -289q-35 -96 -114 -96q-43 0 -69 25.5t-26 66.5q0 24 9.5 44.5t27.5 33.5h41l-119 215h71l113 -215h31l74 215h67zM177.5 59q12.5 11 21.5 35l8 23h-88q-11 -13 -11 -29q0 -18 10.5 -29t28.5 -11t30.5 11zM279 408h-54l-37 38l-37 -38h-53l59 73h62z" />
    <glyph glyph-name="Ydieresis.ss01" horiz-adv-x="382" 
d="M365 380l-106 -289q-35 -96 -114 -96q-43 0 -69 25.5t-26 66.5q0 24 9.5 44.5t27.5 33.5h41l-119 215h71l113 -215h31l74 215h67zM177.5 59q12.5 11 21.5 35l8 23h-88q-11 -13 -11 -29q0 -18 10.5 -29t28.5 -11t30.5 11zM103 482h65v-60h-65v60zM206 482h65v-60h-65v60z
" />
    <glyph glyph-name="Ygrave.ss01" horiz-adv-x="382" 
d="M365 380l-106 -289q-35 -96 -114 -96q-43 0 -69 25.5t-26 66.5q0 24 9.5 44.5t27.5 33.5h41l-119 215h71l113 -215h31l74 215h67zM177.5 59q12.5 11 21.5 35l8 23h-88q-11 -13 -11 -29q0 -18 10.5 -29t28.5 -11t30.5 11zM163 408l-59 73h72l30 -73h-43z" />
    <glyph glyph-name="K.ss02" horiz-adv-x="395" 
d="M309 0l-132 182l-57 -56v-126h-63v380h63v-181l178 181h79l-156 -154l165 -226h-77z" />
    <glyph glyph-name="uni0136.ss02" horiz-adv-x="395" 
d="M309 0l-132 182l-57 -56v-126h-63v380h63v-181l178 181h79l-156 -154l165 -226h-77zM237 -30v-35q0 -29 -13.5 -43.5t-37.5 -14.5h-13v27h11q18 0 20 21h-31v45h64z" />
    <glyph glyph-name="R.ss02" horiz-adv-x="388" 
d="M209 148h-90v-148h-62v380h157q62 0 98.5 -31.5t36.5 -84.5q0 -39 -19.5 -66.5t-55.5 -40.5l96 -157h-72zM119 200h89q76 0 76 63q0 62 -76 62h-89v-125z" />
    <glyph glyph-name="Racute.ss02" horiz-adv-x="388" 
d="M209 148h-90v-148h-62v380h157q62 0 98.5 -31.5t36.5 -84.5q0 -39 -19.5 -66.5t-55.5 -40.5l96 -157h-72zM119 200h89q76 0 76 63q0 62 -76 62h-89v-125zM192 481h72l-59 -73h-43z" />
    <glyph glyph-name="Rcaron.ss02" horiz-adv-x="388" 
d="M209 148h-90v-148h-62v380h157q62 0 98.5 -31.5t36.5 -84.5q0 -39 -19.5 -66.5t-55.5 -40.5l96 -157h-72zM119 200h89q76 0 76 63q0 62 -76 62h-89v-125zM219 481h53l-59 -73h-62l-60 73h54l37 -38z" />
    <glyph glyph-name="uni0156.ss02" horiz-adv-x="388" 
d="M209 148h-90v-148h-62v380h157q62 0 98.5 -31.5t36.5 -84.5q0 -39 -19.5 -66.5t-55.5 -40.5l96 -157h-72zM119 200h89q76 0 76 63q0 62 -76 62h-89v-125zM241 -30v-35q0 -29 -13.5 -43.5t-37.5 -14.5h-13v27h11q18 0 20 21h-31v45h64z" />
    <glyph glyph-name="Y.ss02" horiz-adv-x="371" 
d="M367 380l-150 -230v-150h-63v152l-150 228h73l110 -171l109 171h71z" />
    <glyph glyph-name="Yacute.ss02" horiz-adv-x="371" 
d="M367 380l-150 -230v-150h-63v152l-150 228h73l110 -171l109 171h71zM197 481h72l-59 -73h-43z" />
    <glyph glyph-name="Ycircumflex.ss02" horiz-adv-x="371" 
d="M367 380l-150 -230v-150h-63v152l-150 228h73l110 -171l109 171h71zM278 408h-54l-37 38l-37 -38h-53l59 73h62z" />
    <glyph glyph-name="Ydieresis.ss02" horiz-adv-x="371" 
d="M367 380l-150 -230v-150h-63v152l-150 228h73l110 -171l109 171h71zM102 482h65v-60h-65v60zM205 482h65v-60h-65v60z" />
    <glyph glyph-name="Ygrave.ss02" horiz-adv-x="371" 
d="M367 380l-150 -230v-150h-63v152l-150 228h73l110 -171l109 171h71zM162 408l-59 73h72l30 -73h-43z" />
    <glyph glyph-name="K.ss03" horiz-adv-x="392" 
d="M367 58v-58h-32q-30 0 -46.5 17t-16.5 48v100h-152v-165h-63v380h63v-157h75l98 157h70l-102 -157h74v-146q0 -8 5.5 -13.5t13.5 -5.5h13z" />
    <glyph glyph-name="uni0136.ss03" horiz-adv-x="392" 
d="M367 58v-58h-32q-30 0 -46.5 17t-16.5 48v100h-152v-165h-63v380h63v-157h75l98 157h70l-102 -157h74v-146q0 -8 5.5 -13.5t13.5 -5.5h13zM237 -30v-35q0 -29 -13.5 -43.5t-37.5 -14.5h-13v27h11q18 0 20 21h-31v45h64z" />
    <glyph glyph-name="R.ss03" horiz-adv-x="392" 
d="M369 58v-58h-32q-30 0 -46.5 17t-16.5 48v82h-154v-147h-63v380h159q62 0 98 -29.5t36 -79.5q0 -32 -18 -56t-49 -35h54v-103q0 -8 5.5 -13.5t13.5 -5.5h13zM120 325v-125h89q78 0 78 63q0 62 -78 62h-89z" />
    <glyph glyph-name="Racute.ss03" horiz-adv-x="392" 
d="M369 58v-58h-32q-30 0 -46.5 17t-16.5 48v82h-154v-147h-63v380h159q62 0 98 -29.5t36 -79.5q0 -32 -18 -56t-49 -35h54v-103q0 -8 5.5 -13.5t13.5 -5.5h13zM120 325v-125h89q78 0 78 63q0 62 -78 62h-89zM193 481h72l-59 -73h-43z" />
    <glyph glyph-name="Rcaron.ss03" horiz-adv-x="392" 
d="M369 58v-58h-32q-30 0 -46.5 17t-16.5 48v82h-154v-147h-63v380h159q62 0 98 -29.5t36 -79.5q0 -32 -18 -56t-49 -35h54v-103q0 -8 5.5 -13.5t13.5 -5.5h13zM120 325v-125h89q78 0 78 63q0 62 -78 62h-89zM220 481h53l-59 -73h-62l-60 73h54l37 -38z" />
    <glyph glyph-name="uni0156.ss03" horiz-adv-x="392" 
d="M369 58v-58h-32q-30 0 -46.5 17t-16.5 48v82h-154v-147h-63v380h159q62 0 98 -29.5t36 -79.5q0 -32 -18 -56t-49 -35h54v-103q0 -8 5.5 -13.5t13.5 -5.5h13zM120 325v-125h89q78 0 78 63q0 62 -78 62h-89zM242 -30v-35q0 -29 -13.5 -43.5t-37.5 -14.5h-13v27h11
q18 0 20 21h-31v45h64z" />
    <glyph glyph-name="Y.ss03" horiz-adv-x="382" 
d="M365 380l-106 -289q-35 -96 -114 -96q-43 0 -69 25.5t-26 66.5q0 24 9.5 44.5t27.5 33.5h41l-119 215h71l113 -215h31l74 215h67zM177.5 59q12.5 11 21.5 35l8 23h-88q-11 -13 -11 -29q0 -18 10.5 -29t28.5 -11t30.5 11z" />
    <glyph glyph-name="Yacute.ss03" horiz-adv-x="382" 
d="M365 380l-106 -289q-35 -96 -114 -96q-43 0 -69 25.5t-26 66.5q0 24 9.5 44.5t27.5 33.5h41l-119 215h71l113 -215h31l74 215h67zM177.5 59q12.5 11 21.5 35l8 23h-88q-11 -13 -11 -29q0 -18 10.5 -29t28.5 -11t30.5 11zM197 481h72l-59 -73h-43z" />
    <glyph glyph-name="Ycircumflex.ss03" horiz-adv-x="382" 
d="M365 380l-106 -289q-35 -96 -114 -96q-43 0 -69 25.5t-26 66.5q0 24 9.5 44.5t27.5 33.5h41l-119 215h71l113 -215h31l74 215h67zM177.5 59q12.5 11 21.5 35l8 23h-88q-11 -13 -11 -29q0 -18 10.5 -29t28.5 -11t30.5 11zM278 408h-54l-37 38l-37 -38h-53l59 73h62z" />
    <glyph glyph-name="Ydieresis.ss03" horiz-adv-x="382" 
d="M365 380l-106 -289q-35 -96 -114 -96q-43 0 -69 25.5t-26 66.5q0 24 9.5 44.5t27.5 33.5h41l-119 215h71l113 -215h31l74 215h67zM177.5 59q12.5 11 21.5 35l8 23h-88q-11 -13 -11 -29q0 -18 10.5 -29t28.5 -11t30.5 11zM102 482h65v-60h-65v60zM205 482h65v-60h-65v60z
" />
    <glyph glyph-name="Ygrave.ss03" horiz-adv-x="382" 
d="M365 380l-106 -289q-35 -96 -114 -96q-43 0 -69 25.5t-26 66.5q0 24 9.5 44.5t27.5 33.5h41l-119 215h71l113 -215h31l74 215h67zM177.5 59q12.5 11 21.5 35l8 23h-88q-11 -13 -11 -29q0 -18 10.5 -29t28.5 -11t30.5 11zM162 408l-59 73h72l30 -73h-43z" />
    <glyph glyph-name="K.ss04" horiz-adv-x="392" 
d="M366 58v-58h-32q-30 0 -46.5 17t-16.5 48v58q0 20 -10.5 31t-29.5 11h-111v-165h-63v380h63v-157h89l86 157h67l-91 -163q31 -5 47 -27.5t16 -59.5v-53q0 -8 5.5 -13.5t13.5 -5.5h13z" />
    <glyph glyph-name="uni0136.ss04" horiz-adv-x="392" 
d="M366 58v-58h-32q-30 0 -46.5 17t-16.5 48v58q0 20 -10.5 31t-29.5 11h-111v-165h-63v380h63v-157h89l86 157h67l-91 -163q31 -5 47 -27.5t16 -59.5v-53q0 -8 5.5 -13.5t13.5 -5.5h13zM237 -30v-35q0 -29 -13.5 -43.5t-37.5 -14.5h-13v27h11q18 0 20 21h-31v45h64z" />
    <glyph glyph-name="R.ss04" horiz-adv-x="391" 
d="M368 58v-58h-33q-28 0 -44.5 17t-16.5 47v41q0 20 -10.5 31t-29.5 11h-114v-147h-63v380h158q61 0 97 -30.5t36 -82.5q0 -60 -51 -88q40 -16 40 -72v-30q0 -8 5 -13.5t14 -5.5h12zM120 325v-125h87q78 0 78 63q0 62 -78 62h-87z" />
    <glyph glyph-name="Racute.ss04" horiz-adv-x="391" 
d="M368 58v-58h-33q-28 0 -44.5 17t-16.5 47v41q0 20 -10.5 31t-29.5 11h-114v-147h-63v380h158q61 0 97 -30.5t36 -82.5q0 -60 -51 -88q40 -16 40 -72v-30q0 -8 5 -13.5t14 -5.5h12zM120 325v-125h87q78 0 78 63q0 62 -78 62h-87zM193 481h72l-59 -73h-43z" />
    <glyph glyph-name="Rcaron.ss04" horiz-adv-x="391" 
d="M368 58v-58h-33q-28 0 -44.5 17t-16.5 47v41q0 20 -10.5 31t-29.5 11h-114v-147h-63v380h158q61 0 97 -30.5t36 -82.5q0 -60 -51 -88q40 -16 40 -72v-30q0 -8 5 -13.5t14 -5.5h12zM120 325v-125h87q78 0 78 63q0 62 -78 62h-87zM220 481h53l-59 -73h-62l-60 73h54l37 -38
z" />
    <glyph glyph-name="uni0156.ss04" horiz-adv-x="391" 
d="M368 58v-58h-33q-28 0 -44.5 17t-16.5 47v41q0 20 -10.5 31t-29.5 11h-114v-147h-63v380h158q61 0 97 -30.5t36 -82.5q0 -60 -51 -88q40 -16 40 -72v-30q0 -8 5 -13.5t14 -5.5h12zM120 325v-125h87q78 0 78 63q0 62 -78 62h-87zM242 -30v-35q0 -29 -13.5 -43.5
t-37.5 -14.5h-13v27h11q18 0 20 21h-31v45h64z" />
    <glyph glyph-name="K.ss05" horiz-adv-x="392" 
d="M366 58v-58h-32q-30 0 -46.5 17t-16.5 48v58q0 20 -10.5 31t-29.5 11h-111v-165h-63v380h63v-157h89l86 157h67l-91 -163q31 -5 47 -27.5t16 -59.5v-53q0 -8 5.5 -13.5t13.5 -5.5h13z" />
    <glyph glyph-name="uni0136.ss05" horiz-adv-x="392" 
d="M366 58v-58h-32q-30 0 -46.5 17t-16.5 48v58q0 20 -10.5 31t-29.5 11h-111v-165h-63v380h63v-157h89l86 157h67l-91 -163q31 -5 47 -27.5t16 -59.5v-53q0 -8 5.5 -13.5t13.5 -5.5h13zM237 -30v-35q0 -29 -13.5 -43.5t-37.5 -14.5h-13v27h11q18 0 20 21h-31v45h64z" />
    <glyph glyph-name="R.ss05" horiz-adv-x="391" 
d="M368 58v-58h-33q-28 0 -44.5 17t-16.5 47v41q0 20 -10.5 31t-29.5 11h-114v-147h-63v380h158q61 0 97 -30.5t36 -82.5q0 -60 -51 -88q40 -16 40 -72v-30q0 -8 5 -13.5t14 -5.5h12zM120 325v-125h87q78 0 78 63q0 62 -78 62h-87z" />
    <glyph glyph-name="Racute.ss05" horiz-adv-x="391" 
d="M368 58v-58h-33q-28 0 -44.5 17t-16.5 47v41q0 20 -10.5 31t-29.5 11h-114v-147h-63v380h158q61 0 97 -30.5t36 -82.5q0 -60 -51 -88q40 -16 40 -72v-30q0 -8 5 -13.5t14 -5.5h12zM120 325v-125h87q78 0 78 63q0 62 -78 62h-87zM193 481h72l-59 -73h-43z" />
    <glyph glyph-name="Rcaron.ss05" horiz-adv-x="391" 
d="M368 58v-58h-33q-28 0 -44.5 17t-16.5 47v41q0 20 -10.5 31t-29.5 11h-114v-147h-63v380h158q61 0 97 -30.5t36 -82.5q0 -60 -51 -88q40 -16 40 -72v-30q0 -8 5 -13.5t14 -5.5h12zM120 325v-125h87q78 0 78 63q0 62 -78 62h-87zM220 481h53l-59 -73h-62l-60 73h54l37 -38
z" />
    <glyph glyph-name="uni0156.ss05" horiz-adv-x="391" 
d="M368 58v-58h-33q-28 0 -44.5 17t-16.5 47v41q0 20 -10.5 31t-29.5 11h-114v-147h-63v380h158q61 0 97 -30.5t36 -82.5q0 -60 -51 -88q40 -16 40 -72v-30q0 -8 5 -13.5t14 -5.5h12zM120 325v-125h87q78 0 78 63q0 62 -78 62h-87zM242 -30v-35q0 -29 -13.5 -43.5
t-37.5 -14.5h-13v27h11q18 0 20 21h-31v45h64z" />
    <glyph glyph-name="i.loclTRK" horiz-adv-x="164" 
d="M52 300h60v-300h-60v300zM49 402h66v-60h-66v60z" />
    <glyph glyph-name="k.ss01" horiz-adv-x="331" 
d="M308 53v-53h-27q-28 0 -43 14t-15 41v71h-116v-126h-60v400h60v-219h61l71 119h64l-76 -122h55v-110q0 -7 4 -11t11 -4h11z" />
    <glyph glyph-name="uni0137.ss01" horiz-adv-x="331" 
d="M308 53v-53h-27q-28 0 -43 14t-15 41v71h-116v-126h-60v400h60v-219h61l71 119h64l-76 -122h55v-110q0 -7 4 -11t11 -4h11zM191 -30v-35q0 -29 -13.5 -43.5t-37.5 -14.5h-13v27h11q18 0 20 21h-31v45h64z" />
    <glyph glyph-name="y.ss01" horiz-adv-x="328" 
d="M321 300l-100 -296q-19 -57 -45.5 -83t-64.5 -26t-61 23.5t-23 63.5t30 70h43l-97 248h66l87 -248h24l77 248h64zM137 -44.5q11 10.5 18 30.5l6 18h-75q-7 -10 -7 -24q0 -16 9.5 -25.5t24.5 -9.5q13 0 24 10.5z" />
    <glyph glyph-name="yacute.ss01" horiz-adv-x="328" 
d="M321 300l-100 -296q-19 -57 -45.5 -83t-64.5 -26t-61 23.5t-23 63.5t30 70h43l-97 248h66l87 -248h24l77 248h64zM137 -44.5q11 10.5 18 30.5l6 18h-75q-7 -10 -7 -24q0 -16 9.5 -25.5t24.5 -9.5q13 0 24 10.5zM176 401h72l-59 -73h-43z" />
    <glyph glyph-name="ycircumflex.ss01" horiz-adv-x="328" 
d="M321 300l-100 -296q-19 -57 -45.5 -83t-64.5 -26t-61 23.5t-23 63.5t30 70h43l-97 248h66l87 -248h24l77 248h64zM137 -44.5q11 10.5 18 30.5l6 18h-75q-7 -10 -7 -24q0 -16 9.5 -25.5t24.5 -9.5q13 0 24 10.5zM257 328h-54l-37 38l-37 -38h-53l59 73h62z" />
    <glyph glyph-name="ydieresis.ss01" horiz-adv-x="328" 
d="M321 300l-100 -296q-19 -57 -45.5 -83t-64.5 -26t-61 23.5t-23 63.5t30 70h43l-97 248h66l87 -248h24l77 248h64zM137 -44.5q11 10.5 18 30.5l6 18h-75q-7 -10 -7 -24q0 -16 9.5 -25.5t24.5 -9.5q13 0 24 10.5zM81 402h65v-60h-65v60zM184 402h65v-60h-65v60z" />
    <glyph glyph-name="ygrave.ss01" horiz-adv-x="328" 
d="M321 300l-100 -296q-19 -57 -45.5 -83t-64.5 -26t-61 23.5t-23 63.5t30 70h43l-97 248h66l87 -248h24l77 248h64zM137 -44.5q11 10.5 18 30.5l6 18h-75q-7 -10 -7 -24q0 -16 9.5 -25.5t24.5 -9.5q13 0 24 10.5zM141 328l-59 73h72l30 -73h-43z" />
    <glyph glyph-name="k.ss02" horiz-adv-x="325" 
d="M251 0l-101 139l-43 -41v-98h-60v400h60v-234l135 134h76l-125 -120l131 -180h-73z" />
    <glyph glyph-name="uni0137.ss02" horiz-adv-x="325" 
d="M251 0l-101 139l-43 -41v-98h-60v400h60v-234l135 134h76l-125 -120l131 -180h-73zM203 -30v-35q0 -29 -13.5 -43.5t-37.5 -14.5h-13v27h11q18 0 20 21h-31v45h64z" />
    <glyph glyph-name="k.ss03" horiz-adv-x="331" 
d="M308 53v-53h-27q-28 0 -43 14t-15 41v71h-116v-126h-60v400h60v-219h61l71 119h64l-76 -122h55v-110q0 -7 4 -11t11 -4h11z" />
    <glyph glyph-name="uni0137.ss03" horiz-adv-x="331" 
d="M308 53v-53h-27q-28 0 -43 14t-15 41v71h-116v-126h-60v400h60v-219h61l71 119h64l-76 -122h55v-110q0 -7 4 -11t11 -4h11zM191 -30v-35q0 -29 -13.5 -43.5t-37.5 -14.5h-13v27h11q18 0 20 21h-31v45h64z" />
    <glyph glyph-name="y.ss03" horiz-adv-x="328" 
d="M321 300l-100 -296q-19 -57 -45.5 -83t-64.5 -26t-61 23.5t-23 63.5t30 70h43l-97 248h66l87 -248h24l77 248h64zM137 -44.5q11 10.5 18 30.5l6 18h-75q-7 -10 -7 -24q0 -16 9.5 -25.5t24.5 -9.5q13 0 24 10.5z" />
    <glyph glyph-name="yacute.ss03" horiz-adv-x="328" 
d="M321 300l-100 -296q-19 -57 -45.5 -83t-64.5 -26t-61 23.5t-23 63.5t30 70h43l-97 248h66l87 -248h24l77 248h64zM137 -44.5q11 10.5 18 30.5l6 18h-75q-7 -10 -7 -24q0 -16 9.5 -25.5t24.5 -9.5q13 0 24 10.5zM176 401h72l-59 -73h-43z" />
    <glyph glyph-name="ycircumflex.ss03" horiz-adv-x="328" 
d="M321 300l-100 -296q-19 -57 -45.5 -83t-64.5 -26t-61 23.5t-23 63.5t30 70h43l-97 248h66l87 -248h24l77 248h64zM137 -44.5q11 10.5 18 30.5l6 18h-75q-7 -10 -7 -24q0 -16 9.5 -25.5t24.5 -9.5q13 0 24 10.5zM257 328h-54l-37 38l-37 -38h-53l59 73h62z" />
    <glyph glyph-name="ydieresis.ss03" horiz-adv-x="328" 
d="M321 300l-100 -296q-19 -57 -45.5 -83t-64.5 -26t-61 23.5t-23 63.5t30 70h43l-97 248h66l87 -248h24l77 248h64zM137 -44.5q11 10.5 18 30.5l6 18h-75q-7 -10 -7 -24q0 -16 9.5 -25.5t24.5 -9.5q13 0 24 10.5zM81 402h65v-60h-65v60zM184 402h65v-60h-65v60z" />
    <glyph glyph-name="ygrave.ss03" horiz-adv-x="328" 
d="M321 300l-100 -296q-19 -57 -45.5 -83t-64.5 -26t-61 23.5t-23 63.5t30 70h43l-97 248h66l87 -248h24l77 248h64zM137 -44.5q11 10.5 18 30.5l6 18h-75q-7 -10 -7 -24q0 -16 9.5 -25.5t24.5 -9.5q13 0 24 10.5zM141 328l-59 73h72l30 -73h-43z" />
    <glyph glyph-name="k.ss04" horiz-adv-x="331" 
d="M306 53v-53h-27q-27 0 -42.5 14t-15.5 41v39q0 14 -8 22.5t-23 8.5h-83v-125h-60v400h60v-223h63l69 123h64l-75 -129q52 -10 52 -72v-31q0 -7 4 -11t11 -4h11z" />
    <glyph glyph-name="uni0137.ss04" horiz-adv-x="331" 
d="M306 53v-53h-27q-27 0 -42.5 14t-15.5 41v39q0 14 -8 22.5t-23 8.5h-83v-125h-60v400h60v-223h63l69 123h64l-75 -129q52 -10 52 -72v-31q0 -7 4 -11t11 -4h11zM205 -30v-35q0 -29 -13.5 -43.5t-37.5 -14.5h-13v27h11q18 0 20 21h-31v45h64z" />
    <glyph glyph-name="k.ss05" horiz-adv-x="331" 
d="M306 53v-53h-27q-27 0 -42.5 14t-15.5 41v39q0 14 -8 22.5t-23 8.5h-83v-125h-60v400h60v-223h63l69 123h64l-75 -129q52 -10 52 -72v-31q0 -7 4 -11t11 -4h11z" />
    <glyph glyph-name="uni0137.ss05" horiz-adv-x="331" 
d="M306 53v-53h-27q-27 0 -42.5 14t-15.5 41v39q0 14 -8 22.5t-23 8.5h-83v-125h-60v400h60v-223h63l69 123h64l-75 -129q52 -10 52 -72v-31q0 -7 4 -11t11 -4h11zM205 -30v-35q0 -29 -13.5 -43.5t-37.5 -14.5h-13v27h11q18 0 20 21h-31v45h64z" />
    <glyph glyph-name="f.ss06" horiz-adv-x="234" 
d="M143.5 341q-8.5 -9 -8.5 -25v-16h87v-51h-86v-249h-60v249h-62v51h62v12q0 88 89 88h57v-50h-54q-16 0 -24.5 -9z" />
    <glyph glyph-name="t.ss06" horiz-adv-x="254" 
d="M133 249v-160q0 -36 35 -36h57v-53h-62q-90 0 -90 89v160h-59v51h59l8 80h52v-80h92v-51h-92z" />
    <glyph glyph-name="tbar.ss06" horiz-adv-x="254" 
d="M133 249v-72h74v-48h-74v-40q0 -36 35 -36h57v-53h-62q-90 0 -90 89v40h-56v48h56v72h-59v51h59l8 80h52v-80h92v-51h-92z" />
    <glyph glyph-name="tcaron.ss06" horiz-adv-x="254" 
d="M133 249v-160q0 -36 35 -36h57v-53h-62q-90 0 -90 89v160h-59v51h59l8 80h52v-80h92v-51h-92zM167 400h60l-20 -84h-40v84z" />
    <glyph glyph-name="uni0163.ss06" horiz-adv-x="254" 
d="M133 249v-160q0 -36 35 -36h57v-53h-48l-13 -22q4 1 11 1q22 0 36 -11.5t14 -30.5q0 -21 -19 -34t-50 -13q-37 0 -65 20l19 30q23 -17 46 -17q12 0 19 4t7 11q0 6 -5.5 9.5t-13.5 3.5q-12 0 -20 -5l-29 15l25 41q-66 10 -66 87v160h-59v51h59l8 80h52v-80h92v-51h-92z
" />
    <glyph glyph-name="uni021B.ss06" horiz-adv-x="254" 
d="M133 249v-160q0 -36 35 -36h57v-53h-62q-90 0 -90 89v160h-59v51h59l8 80h52v-80h92v-51h-92zM181 -30v-35q0 -29 -13.5 -43.5t-37.5 -14.5h-13v27h11q18 0 20 21h-31v45h64z" />
    <glyph glyph-name="y.ss06" horiz-adv-x="328" 
d="M320 300l-131 -342q-22 -58 -80 -58h-61v53h53q23 0 30 19l9 23l-127 305h66l92 -236l84 236h65z" />
    <glyph glyph-name="yacute.ss06" horiz-adv-x="328" 
d="M320 300l-131 -342q-22 -58 -80 -58h-61v53h53q23 0 30 19l9 23l-127 305h66l92 -236l84 236h65zM177 401h72l-59 -73h-43z" />
    <glyph glyph-name="ycircumflex.ss06" horiz-adv-x="328" 
d="M320 300l-131 -342q-22 -58 -80 -58h-61v53h53q23 0 30 19l9 23l-127 305h66l92 -236l84 236h65zM258 328h-54l-37 38l-37 -38h-53l59 73h62z" />
    <glyph glyph-name="ydieresis.ss06" horiz-adv-x="328" 
d="M320 300l-131 -342q-22 -58 -80 -58h-61v53h53q23 0 30 19l9 23l-127 305h66l92 -236l84 236h65zM82 402h65v-60h-65v60zM185 402h65v-60h-65v60z" />
    <glyph glyph-name="ygrave.ss06" horiz-adv-x="328" 
d="M320 300l-131 -342q-22 -58 -80 -58h-61v53h53q23 0 30 19l9 23l-127 305h66l92 -236l84 236h65zM142 328l-59 73h72l30 -73h-43z" />
    <glyph glyph-name="uni0416.ss01" horiz-adv-x="552" 
d="M527 58v-58h-32q-30 0 -46.5 17t-16.5 48v100h-124v-165h-63v165h-125v-100q0 -31 -16.5 -48t-46.5 -17h-31v58h12q9 0 14 5.5t5 13.5v146h70l-98 157h69l95 -157h52v157h63v-157h52l94 157h69l-98 -157h70v-146q0 -8 5.5 -13.5t13.5 -5.5h13z" />
    <glyph glyph-name="uni041A.ss01" horiz-adv-x="392" 
d="M367 58v-58h-32q-30 0 -46.5 17t-16.5 48v100h-152v-165h-63v380h63v-157h75l98 157h70l-102 -157h74v-146q0 -8 5.5 -13.5t13.5 -5.5h13z" />
    <glyph glyph-name="uni0423.ss01" horiz-adv-x="382" 
d="M365 380l-106 -289q-35 -96 -114 -96q-43 0 -69 25.5t-26 66.5q0 24 9.5 44.5t27.5 33.5h41l-119 215h71l113 -215h31l74 215h67zM177.5 59q12.5 11 21.5 35l8 23h-88q-11 -13 -11 -29q0 -18 10.5 -29t28.5 -11t30.5 11z" />
    <glyph glyph-name="uni040E.ss01" horiz-adv-x="382" 
d="M365 380l-106 -289q-35 -96 -114 -96q-43 0 -69 25.5t-26 66.5q0 24 9.5 44.5t27.5 33.5h41l-119 215h71l113 -215h31l74 215h67zM177.5 59q12.5 11 21.5 35l8 23h-88q-11 -13 -11 -29q0 -18 10.5 -29t28.5 -11t30.5 11zM124 426.5q-24 18.5 -28 52.5l47 8
q2 -19 13.5 -29t30.5 -10t30.5 10t13.5 29l47 -8q-4 -34 -28 -52.5t-63 -18.5t-63 18.5z" />
    <glyph glyph-name="uni042F.ss01" horiz-adv-x="391" 
d="M334 0h-63v147h-154v-82q0 -31 -16.5 -48t-46.5 -17h-32v58h13q8 0 13.5 5.5t5.5 13.5v103h54q-31 11 -49 35t-18 56q0 50 36 79.5t98 29.5h159v-380zM105 263q0 -63 78 -63h88v125h-88q-78 0 -78 -62z" />
    <glyph glyph-name="uni0416.ss02" horiz-adv-x="578" 
d="M494 0l-119 184l-54 -55v-129h-63v129l-54 55l-119 -184h-76l150 229l-148 151h79l168 -177v177h63v-176l168 176h78l-147 -152l149 -228h-75z" />
    <glyph glyph-name="uni041A.ss02" horiz-adv-x="395" 
d="M309 0l-132 182l-57 -56v-126h-63v380h63v-181l178 181h79l-156 -154l165 -226h-77z" />
    <glyph glyph-name="uni042F.ss02" horiz-adv-x="389" 
d="M332 0h-63v147h-91l-89 -147h-71l96 157q-35 13 -54.5 40.5t-19.5 66.5q0 53 36.5 84.5t98.5 31.5h157v-380zM269 200v125h-88q-77 0 -77 -63q0 -62 77 -62h88z" />
    <glyph glyph-name="uni0416.ss03" horiz-adv-x="552" 
d="M527 58v-58h-32q-30 0 -46.5 17t-16.5 48v100h-124v-165h-63v165h-125v-100q0 -31 -16.5 -48t-46.5 -17h-31v58h12q9 0 14 5.5t5 13.5v146h70l-98 157h69l95 -157h52v157h63v-157h52l94 157h69l-98 -157h70v-146q0 -8 5.5 -13.5t13.5 -5.5h13z" />
    <glyph glyph-name="uni041A.ss03" horiz-adv-x="392" 
d="M367 58v-58h-32q-30 0 -46.5 17t-16.5 48v100h-152v-165h-63v380h63v-157h75l98 157h70l-102 -157h74v-146q0 -8 5.5 -13.5t13.5 -5.5h13z" />
    <glyph glyph-name="uni0423.ss03" horiz-adv-x="382" 
d="M365 380l-106 -289q-35 -96 -114 -96q-43 0 -69 25.5t-26 66.5q0 24 9.5 44.5t27.5 33.5h41l-119 215h71l113 -215h31l74 215h67zM177.5 59q12.5 11 21.5 35l8 23h-88q-11 -13 -11 -29q0 -18 10.5 -29t28.5 -11t30.5 11z" />
    <glyph glyph-name="uni040E.ss03" horiz-adv-x="382" 
d="M365 380l-106 -289q-35 -96 -114 -96q-43 0 -69 25.5t-26 66.5q0 24 9.5 44.5t27.5 33.5h41l-119 215h71l113 -215h31l74 215h67zM177.5 59q12.5 11 21.5 35l8 23h-88q-11 -13 -11 -29q0 -18 10.5 -29t28.5 -11t30.5 11zM124 426.5q-24 18.5 -28 52.5l47 8
q2 -19 13.5 -29t30.5 -10t30.5 10t13.5 29l47 -8q-4 -34 -28 -52.5t-63 -18.5t-63 18.5z" />
    <glyph glyph-name="uni042F.ss03" horiz-adv-x="391" 
d="M334 0h-63v147h-154v-82q0 -31 -16.5 -48t-46.5 -17h-32v58h13q8 0 13.5 5.5t5.5 13.5v103h54q-31 11 -49 35t-18 56q0 50 36 79.5t98 29.5h159v-380zM105 263q0 -63 78 -63h88v125h-88q-78 0 -78 -62z" />
    <glyph glyph-name="uni0416.ss04" horiz-adv-x="558" 
d="M531 58v-58h-32q-29 0 -45.5 17t-16.5 48v57q0 20 -10.5 31.5t-29.5 11.5h-87v-165h-63v165h-86q-19 0 -29.5 -11.5t-10.5 -31.5v-57q0 -31 -16.5 -48t-46.5 -17h-32v58h13q8 0 13.5 5.5t5.5 13.5v52q0 38 16.5 60t47.5 27l-90 164h68l83 -158h64v158h63v-158h65l82 158
h69l-90 -164q31 -5 47.5 -27.5t16.5 -59.5v-52q0 -8 5 -13.5t14 -5.5h12z" />
    <glyph glyph-name="uni041A.ss04" horiz-adv-x="392" 
d="M366 58v-58h-32q-30 0 -46.5 17t-16.5 48v58q0 20 -10.5 31t-29.5 11h-111v-165h-63v380h63v-157h89l86 157h67l-91 -163q31 -5 47 -27.5t16 -59.5v-53q0 -8 5.5 -13.5t13.5 -5.5h13z" />
    <glyph glyph-name="uni042F.ss04" horiz-adv-x="392" 
d="M335 0h-64v147h-114q-19 0 -29 -11t-10 -31v-41q0 -30 -16.5 -47t-44.5 -17h-34v58h13q8 0 13.5 5.5t5.5 13.5v30q0 56 40 72q-52 28 -52 88q0 52 36.5 82.5t97.5 30.5h158v-380zM107 263q0 -63 78 -63h86v125h-86q-78 0 -78 -62z" />
    <glyph glyph-name="uni0416.ss05" horiz-adv-x="558" 
d="M531 58v-58h-32q-29 0 -45.5 17t-16.5 48v57q0 20 -10.5 31.5t-29.5 11.5h-87v-165h-63v165h-86q-19 0 -29.5 -11.5t-10.5 -31.5v-57q0 -31 -16.5 -48t-46.5 -17h-32v58h13q8 0 13.5 5.5t5.5 13.5v52q0 38 16.5 60t47.5 27l-90 164h68l83 -158h64v158h63v-158h65l82 158
h69l-90 -164q31 -5 47.5 -27.5t16.5 -59.5v-52q0 -8 5 -13.5t14 -5.5h12z" />
    <glyph glyph-name="uni041A.ss05" horiz-adv-x="392" 
d="M366 58v-58h-32q-30 0 -46.5 17t-16.5 48v58q0 20 -10.5 31t-29.5 11h-111v-165h-63v380h63v-157h89l86 157h67l-91 -163q31 -5 47 -27.5t16 -59.5v-53q0 -8 5.5 -13.5t13.5 -5.5h13z" />
    <glyph glyph-name="uni042F.ss05" horiz-adv-x="392" 
d="M335 0h-64v147h-114q-19 0 -29 -11t-10 -31v-41q0 -30 -16.5 -47t-44.5 -17h-34v58h13q8 0 13.5 5.5t5.5 13.5v30q0 56 40 72q-52 28 -52 88q0 52 36.5 82.5t97.5 30.5h158v-380zM107 263q0 -63 78 -63h86v125h-86q-78 0 -78 -62z" />
    <glyph glyph-name="uni0423.ss06" horiz-adv-x="384" 
d="M380 380l-141 -319q-16 -35 -37 -48t-52 -13h-74v58h73q11 0 17 4t11 15l-164 303h72l126 -246l103 246h66z" />
    <glyph glyph-name="uni040E.ss06" horiz-adv-x="384" 
d="M380 380l-141 -319q-16 -35 -37 -48t-52 -13h-74v58h73q11 0 17 4t11 15l-164 303h72l126 -246l103 246h66zM127 426.5q-24 18.5 -28 52.5l47 8q2 -19 13.5 -29t30.5 -10t30.5 10t13.5 29l47 -8q-4 -34 -28 -52.5t-63 -18.5t-63 18.5z" />
    <glyph glyph-name="uni041D.ss07" horiz-adv-x="432" 
d="M315 380h60v-380h-61l-197 281v-281h-60v380h62l196 -279v279z" />
    <glyph glyph-name="uni0410.stress" horiz-adv-x="397" 
d="M323 0l-34 88h-182l-34 -88h-66l153 380h77l153 -380h-67zM129 144h138l-69 178zM210 481h72l-59 -73h-43z" />
    <glyph glyph-name="uni0415.stress" horiz-adv-x="344" 
d="M120 56h204v-56h-267v380h262v-56h-199v-102h154v-54h-154v-112zM199 481h72l-59 -73h-43z" />
    <glyph glyph-name="uni0401.stress" horiz-adv-x="344" 
d="M120 56h204v-56h-267v380h262v-56h-199v-102h154v-54h-154v-112zM244 495l-58 -73h-43l29 73h72zM72 482h64v-60h-64v60zM240 482h64v-60h-64v60z" />
    <glyph glyph-name="uni0418.stress" horiz-adv-x="432" 
d="M313 380h62v-380h-63v283l-194 -283h-61v380h63v-282zM227 481h72l-59 -73h-43z" />
    <glyph glyph-name="uni041E.stress" horiz-adv-x="422" 
d="M78 48q-50 53 -50 142q0 57 23 101.5t65 69t95 24.5q83 0 133 -53t50 -142q0 -57 -23 -101.5t-65 -69t-95 -24.5q-83 0 -133 53zM297 88.5q32 38.5 32 101.5t-32 101.5t-86 38.5t-86 -38.5t-32 -101.5t32 -101.5t86 -38.5t86 38.5zM222 481h72l-59 -73h-43z" />
    <glyph glyph-name="uni0423.stress" horiz-adv-x="384" 
d="M371 380l-125 -303q-32 -82 -99 -82q-38 0 -60.5 23.5t-24.5 61.5l53 13q2 -23 10 -34t24 -11q24 0 34 21l-174 311h72l129 -249l94 249h67zM201 481h72l-59 -73h-43z" />
    <glyph glyph-name="uni042B.stress" horiz-adv-x="534" 
d="M316.5 203.5q36.5 -31.5 36.5 -86.5q0 -54 -36.5 -85.5t-99.5 -31.5h-160v380h63v-145h97q63 0 99.5 -31.5zM289 118q0 63 -78 63h-91v-126h91q78 0 78 63zM414 380h63v-380h-63v380zM278 481h72l-59 -73h-43z" />
    <glyph glyph-name="uni0404.stress" horiz-adv-x="387" 
d="M311 127l58 -21q-17 -52 -59.5 -81.5t-100.5 -29.5q-82 0 -131.5 53t-49.5 142q0 57 22.5 101.5t64 69t94.5 24.5q59 0 101 -29t59 -82l-58 -21q-25 77 -103 77q-46 0 -76.5 -29t-38.5 -79h153v-54h-154q5 -56 36 -87t80 -31q78 0 103 77zM220 481h72l-59 -73h-43z" />
    <glyph glyph-name="uni042D.stress" horiz-adv-x="383" 
d="M306 332q49 -53 49 -142q0 -57 -22.5 -101.5t-63.5 -69t-94 -24.5q-58 0 -100.5 29.5t-60.5 81.5l58 21q11 -37 37.5 -57t64.5 -20q49 0 80.5 31.5t36.5 86.5h-154v54h153q-7 51 -38 79.5t-78 28.5q-38 0 -64.5 -20t-37.5 -57l-58 21q18 53 61 82t100 29q82 0 131 -53z
M186 481h72l-59 -73h-43z" />
    <glyph glyph-name="uni0406.stress" horiz-adv-x="177" 
d="M57 380h63v-380h-63v380zM100 481h72l-59 -73h-43z" />
    <glyph glyph-name="uni0407.stress" horiz-adv-x="177" 
d="M57 380h63v-380h-63v380zM145 495l-58 -73h-43l29 73h72zM-27 482h64v-60h-64v60zM141 482h64v-60h-64v60z" />
    <glyph glyph-name="uni042E.stress" horiz-adv-x="575" 
d="M498.5 331.5q48.5 -53.5 48.5 -141.5q0 -57 -22.5 -101.5t-62.5 -69t-92 -24.5q-75 0 -122 46.5t-54 124.5h-74v-166h-63v380h63v-156h75q10 73 57.5 117t117.5 44q80 0 128.5 -53.5zM451.5 88q30.5 38 30.5 102t-30.5 102t-81.5 38q-52 0 -82.5 -38t-30.5 -102
t30.5 -102t82.5 -38q51 0 81.5 38zM267 481h72l-59 -73h-43z" />
    <glyph glyph-name="uni042F.stress" horiz-adv-x="389" 
d="M332 0h-63v147h-91l-89 -147h-71l96 157q-35 13 -54.5 40.5t-19.5 66.5q0 53 36.5 84.5t98.5 31.5h157v-380zM269 200v125h-88q-77 0 -77 -63q0 -62 77 -62h88zM222 481h72l-59 -73h-43z" />
    <glyph glyph-name="uni0423.ss03.stress" horiz-adv-x="382" 
d="M365 380l-106 -289q-35 -96 -114 -96q-43 0 -69 25.5t-26 66.5q0 24 9.5 44.5t27.5 33.5h41l-119 215h71l113 -215h31l74 215h67zM177.5 59q12.5 11 21.5 35l8 23h-88q-11 -13 -11 -29q0 -18 10.5 -29t28.5 -11t30.5 11zM198 481h72l-59 -73h-43z" />
    <glyph glyph-name="uni042F.ss03.stress" horiz-adv-x="391" 
d="M334 0h-63v147h-154v-82q0 -31 -16.5 -48t-46.5 -17h-32v58h13q8 0 13.5 5.5t5.5 13.5v103h54q-31 11 -49 35t-18 56q0 50 36 79.5t98 29.5h159v-380zM105 263q0 -63 78 -63h88v125h-88q-78 0 -78 -62zM208 481h72l-59 -73h-43z" />
    <glyph glyph-name="uni042F.ss04.stress" horiz-adv-x="392" 
d="M335 0h-64v147h-114q-19 0 -29 -11t-10 -31v-41q0 -30 -16.5 -47t-44.5 -17h-34v58h13q8 0 13.5 5.5t5.5 13.5v30q0 56 40 72q-52 28 -52 88q0 52 36.5 82.5t97.5 30.5h158v-380zM107 263q0 -63 78 -63h86v125h-86q-78 0 -78 -62zM217 481h72l-59 -73h-43z" />
    <glyph glyph-name="uni0423.ss06.stress" horiz-adv-x="384" 
d="M380 380l-141 -319q-16 -35 -37 -48t-52 -13h-74v58h73q11 0 17 4t11 15l-164 303h72l126 -246l103 246h66zM201 481h72l-59 -73h-43z" />
    <glyph glyph-name="uni0436.ss01" horiz-adv-x="476" 
d="M452 53v-53h-28q-27 0 -42 14t-15 41v71h-99v-126h-60v126h-98v-71q0 -27 -15 -41t-42 -14h-28v53h11q7 0 11 4t4 11v109h54l-77 123h64l72 -120h44v220h60v-220h44l73 120h64l-78 -123h54v-109q0 -7 4 -11t11 -4h12z" />
    <glyph glyph-name="uni043A.ss01" horiz-adv-x="331" 
d="M308 53v-53h-27q-28 0 -43 14t-15 41v71h-116v-126h-60v400h60v-219h61l71 119h64l-76 -122h55v-110q0 -7 4 -11t11 -4h11z" />
    <glyph glyph-name="uni0443.ss01" horiz-adv-x="328" 
d="M321 300l-100 -296q-19 -57 -45.5 -83t-64.5 -26t-61 23.5t-23 63.5t30 70h43l-97 248h66l87 -248h24l77 248h64zM137 -44.5q11 10.5 18 30.5l6 18h-75q-7 -10 -7 -24q0 -16 9.5 -25.5t24.5 -9.5q13 0 24 10.5z" />
    <glyph glyph-name="uni045E.ss01" horiz-adv-x="328" 
d="M321 300l-100 -296q-19 -57 -45.5 -83t-64.5 -26t-61 23.5t-23 63.5t30 70h43l-97 248h66l87 -248h24l77 248h64zM137 -44.5q11 10.5 18 30.5l6 18h-75q-7 -10 -7 -24q0 -16 9.5 -25.5t24.5 -9.5q13 0 24 10.5zM102 346.5q-24 18.5 -28 52.5l47 8q2 -19 13.5 -29
t30.5 -10t30.5 10t13.5 29l47 -8q-4 -34 -28 -52.5t-63 -18.5t-63 18.5z" />
    <glyph glyph-name="uni044F.ss01" horiz-adv-x="332" 
d="M285 0h-60v112h-117v-57q0 -27 -15.5 -41t-42.5 -14h-27v53h11q7 0 11 4t4 11v71h49q-27 9 -43.5 28.5t-16.5 45.5q0 39 28 63t75 24h144v-300zM112.5 240q-14.5 -12 -14.5 -34t16.5 -34.5t45.5 -12.5h65v93h-70q-28 0 -42.5 -12z" />
    <glyph glyph-name="uni0436.ss02" horiz-adv-x="483" 
d="M406 0l-93 141l-41 -41v-100h-60v99l-42 42l-92 -141h-73l123 181l-118 119h76l126 -133v233h60v-232l126 132h75l-117 -118l122 -182h-72z" />
    <glyph glyph-name="uni043A.ss02" horiz-adv-x="325" 
d="M251 0l-101 139l-43 -41v-98h-60v400h60v-234l135 134h76l-125 -120l131 -180h-73z" />
    <glyph glyph-name="uni044F.ss02" horiz-adv-x="324" 
d="M277 0h-60v113h-66l-73 -113h-67l80 121q-29 11 -44.5 32t-15.5 51q0 44 30 70t81 26h135v-300zM217 158v92h-69q-27 0 -42 -12t-15 -33q0 -22 15 -34.5t42 -12.5h69z" />
    <glyph glyph-name="uni0436.ss03" horiz-adv-x="476" 
d="M452 53v-53h-28q-27 0 -42 14t-15 41v71h-99v-126h-60v126h-98v-71q0 -27 -15 -41t-42 -14h-28v53h11q7 0 11 4t4 11v109h54l-77 123h64l72 -120h44v120h60v-120h44l73 120h64l-78 -123h54v-109q0 -7 4 -11t11 -4h12z" />
    <glyph glyph-name="uni043A.ss03" horiz-adv-x="331" 
d="M308 53v-53h-27q-28 0 -43 14t-15 41v71h-116v-126h-60v300h60v-119h61l71 119h64l-76 -122h55v-110q0 -7 4 -11t11 -4h11z" />
    <glyph glyph-name="uni0443.ss03" horiz-adv-x="328" 
d="M321 300l-100 -296q-19 -57 -45.5 -83t-64.5 -26t-61 23.5t-23 63.5t30 70h43l-97 248h66l87 -248h24l77 248h64zM137 -44.5q11 10.5 18 30.5l6 18h-75q-7 -10 -7 -24q0 -16 9.5 -25.5t24.5 -9.5q13 0 24 10.5z" />
    <glyph glyph-name="uni045E.ss03" horiz-adv-x="328" 
d="M321 300l-100 -296q-19 -57 -45.5 -83t-64.5 -26t-61 23.5t-23 63.5t30 70h43l-97 248h66l87 -248h24l77 248h64zM137 -44.5q11 10.5 18 30.5l6 18h-75q-7 -10 -7 -24q0 -16 9.5 -25.5t24.5 -9.5q13 0 24 10.5zM102 346.5q-24 18.5 -28 52.5l47 8q2 -19 13.5 -29
t30.5 -10t30.5 10t13.5 29l47 -8q-4 -34 -28 -52.5t-63 -18.5t-63 18.5z" />
    <glyph glyph-name="uni044F.ss03" horiz-adv-x="332" 
d="M285 0h-60v112h-117v-57q0 -27 -15.5 -41t-42.5 -14h-27v53h11q7 0 11 4t4 11v71h49q-27 9 -43.5 28.5t-16.5 45.5q0 39 28 63t75 24h144v-300zM112.5 240q-14.5 -12 -14.5 -34t16.5 -34.5t45.5 -12.5h65v93h-70q-28 0 -42.5 -12z" />
    <glyph glyph-name="uni0436.ss04" horiz-adv-x="477" 
d="M453 53v-53h-27q-27 0 -42.5 14t-15.5 41v39q0 14 -8 22.5t-23 8.5h-68v-125h-60v125h-69q-15 0 -23 -8.5t-8 -22.5v-39q0 -27 -15 -41t-43 -14h-26v53h11q7 0 11 4t4 11v31q0 60 50 71l-73 130h64l65 -123h52v223h60v-223h52l65 123h63l-73 -130q50 -11 50 -71v-31
q0 -7 4 -11t11 -4h12z" />
    <glyph glyph-name="uni043A.ss04" horiz-adv-x="331" 
d="M306 53v-53h-27q-27 0 -42.5 14t-15.5 41v39q0 14 -8 22.5t-23 8.5h-83v-125h-60v400h60v-223h63l69 123h64l-75 -129q52 -10 52 -72v-31q0 -7 4 -11t11 -4h11z" />
    <glyph glyph-name="uni044F.ss04" horiz-adv-x="332" 
d="M285 0h-60v112h-89q-14 0 -22.5 -8t-8.5 -23v-26q0 -27 -15 -41t-42 -14h-26v53h11q7 0 11 4t4 11v21q0 21 8.5 33t25.5 17q-21 11 -32.5 29t-11.5 42q0 41 28 65.5t75 24.5h144v-300zM113 239q-15 -12 -15 -33q0 -23 14.5 -35t42.5 -12h70v92h-70q-27 0 -42 -12z" />
    <glyph glyph-name="uni0436.ss05" horiz-adv-x="477" 
d="M453 53v-53h-27q-27 0 -42.5 14t-15.5 41v39q0 14 -8 22.5t-23 8.5h-68v-125h-60v125h-69q-15 0 -23 -8.5t-8 -22.5v-39q0 -27 -15 -41t-43 -14h-26v53h11q7 0 11 4t4 11v31q0 60 50 71l-73 130h64l65 -123h52v123h60v-123h52l65 123h63l-73 -130q50 -11 50 -71v-31
q0 -7 4 -11t11 -4h12z" />
    <glyph glyph-name="uni043A.ss05" horiz-adv-x="331" 
d="M306 53v-53h-27q-27 0 -42.5 14t-15.5 41v39q0 14 -8 22.5t-23 8.5h-83v-125h-60v300h60v-123h63l69 123h64l-75 -129q52 -10 52 -72v-31q0 -7 4 -11t11 -4h11z" />
    <glyph glyph-name="uni044F.ss05" horiz-adv-x="332" 
d="M285 0h-60v112h-89q-14 0 -22.5 -8t-8.5 -23v-26q0 -27 -15 -41t-42 -14h-26v53h11q7 0 11 4t4 11v21q0 21 8.5 33t25.5 17q-21 11 -32.5 29t-11.5 42q0 41 28 65.5t75 24.5h144v-300zM113 239q-15 -12 -15 -33q0 -23 14.5 -35t42.5 -12h70v92h-70q-27 0 -42 -12z" />
    <glyph glyph-name="uni0443.ss06" horiz-adv-x="328" 
d="M320 300l-131 -342q-22 -58 -80 -58h-61v53h53q23 0 30 19l9 23l-127 305h66l92 -236l84 236h65z" />
    <glyph glyph-name="uni045E.ss06" horiz-adv-x="328" 
d="M320 300l-131 -342q-22 -58 -80 -58h-61v53h53q23 0 30 19l9 23l-127 305h66l92 -236l84 236h65zM103 346.5q-24 18.5 -28 52.5l47 8q2 -19 13.5 -29t30.5 -10t30.5 10t13.5 29l47 -8q-4 -34 -28 -52.5t-63 -18.5t-63 18.5z" />
    <glyph glyph-name="uni043D.ss07" horiz-adv-x="361" 
d="M257 300h57v-300h-61l-149 211v-211h-57v300h61l149 -211v211z" />
    <glyph glyph-name="uni0430.stress" horiz-adv-x="322" 
d="M302 52v-52q-6 -2 -21 -2q-28 0 -41.5 11t-16.5 37q-16 -23 -44 -37t-61 -14q-44 0 -71 24.5t-27 63.5q0 49 35.5 69.5t93.5 29.5q38 5 52.5 11t14.5 22q0 18 -17.5 29t-45.5 11q-25 0 -48.5 -10.5t-41.5 -29.5l-37 39q54 51 130 51q54 0 85 -26.5t31 -72.5v-135
q0 -19 19 -19h11zM188.5 65q25.5 21 25.5 49v39q-7 -5 -22.5 -8.5t-35.5 -6.5q-38 -6 -57.5 -15.5t-19.5 -35.5q0 -21 13 -32t36 -11q35 0 60.5 21zM167 401h72l-59 -73h-43z" />
    <glyph glyph-name="uni0435.stress" horiz-adv-x="341" 
d="M114.5 68.5q24.5 -22.5 63.5 -22.5q59 0 89 39l41 -36q-20 -24 -52.5 -39t-77.5 -15q-72 0 -112.5 43t-40.5 112t41 112t107 43t105.5 -42t39.5 -113q0 -12 -2 -19h-231q5 -40 29.5 -62.5zM115.5 234q-22.5 -21 -29.5 -57h171q-6 37 -28 57.5t-56 20.5q-35 0 -57.5 -21z
M182 401h72l-59 -73h-43z" />
    <glyph glyph-name="uni0451.stress" horiz-adv-x="341" 
d="M114.5 68.5q24.5 -22.5 63.5 -22.5q59 0 89 39l41 -36q-20 -24 -52.5 -39t-77.5 -15q-72 0 -112.5 43t-40.5 112t41 112t107 43t105.5 -42t39.5 -113q0 -12 -2 -19h-231q5 -40 29.5 -62.5zM115.5 234q-22.5 -21 -29.5 -57h171q-6 37 -28 57.5t-56 20.5q-35 0 -57.5 -21z
M227 415l-58 -73h-43l29 73h72zM55 402h64v-60h-64v60zM223 402h64v-60h-64v60z" />
    <glyph glyph-name="uni0438.stress" horiz-adv-x="361" 
d="M252 300h62v-300h-59v218l-146 -218h-62v300h59v-216zM191 401h72l-59 -73h-43z" />
    <glyph glyph-name="uni043E.stress" horiz-adv-x="354" 
d="M66.5 37.5q-41.5 42.5 -41.5 112.5q0 69 42 112t110 43q69 0 110.5 -42.5t41.5 -112.5q0 -69 -42 -112t-110 -43q-69 0 -110.5 42.5zM243 74.5q25 28.5 25 75.5t-25 75.5t-66 28.5t-66 -28.5t-25 -75.5t25 -75.5t66 -28.5t66 28.5zM188 401h72l-59 -73h-43z" />
    <glyph glyph-name="uni0443.stress" horiz-adv-x="328" 
d="M322 300l-111 -311q-15 -43 -41 -68.5t-62 -25.5q-42 0 -64 25.5t-22 62.5l55 9q-2 -43 32 -43q22 0 39 31l-141 320h66l105 -251l82 251h62zM176 401h72l-59 -73h-43z" />
    <glyph glyph-name="uni044B.stress" horiz-adv-x="453" 
d="M268 162q29 -25 29 -68t-29.5 -68.5t-78.5 -25.5h-142v300h60v-113h82q50 0 79 -25zM222.5 61.5q13.5 11.5 13.5 32.5t-13.5 32.5t-39.5 11.5h-76v-88h76q26 0 39.5 11.5zM346 300h60v-300h-60v300zM238 401h72l-59 -73h-43z" />
    <glyph glyph-name="uni0454.stress" horiz-adv-x="326" 
d="M223.5 60.5q20.5 14.5 31.5 41.5l55 -19q-13 -42 -49.5 -65t-85.5 -23q-67 0 -108.5 43t-41.5 112t41.5 112t108.5 43q49 0 85.5 -23t49.5 -65l-55 -19q-11 27 -31.5 41.5t-48.5 14.5q-36 0 -59 -20.5t-30 -56.5h127v-48h-128q5 -39 29 -61t61 -22q28 0 48.5 14.5z
M185 401h72l-59 -73h-43z" />
    <glyph glyph-name="uni044D.stress" horiz-adv-x="326" 
d="M259.5 262q41.5 -43 41.5 -112t-41.5 -112t-108.5 -43q-48 0 -84.5 23.5t-49.5 64.5l54 18q10 -26 31 -40.5t49 -14.5q37 0 61 22t29 61h-128v48h127q-7 36 -30 56.5t-59 20.5q-29 0 -49.5 -14.5t-31.5 -40.5l-53 18q14 41 50.5 64.5t83.5 23.5q67 0 108.5 -43zM162 401
h72l-59 -73h-43z" />
    <glyph glyph-name="uni0456.stress" horiz-adv-x="164" 
d="M52 300h60v-300h-60v300zM93 401h72l-59 -73h-43z" />
    <glyph glyph-name="uni0457.stress" horiz-adv-x="164" 
d="M52 300h60v-300h-60v300zM138 415l-58 -73h-43l29 73h72zM-34 402h64v-60h-64v60zM134 402h64v-60h-64v60z" />
    <glyph glyph-name="uni044E.stress" horiz-adv-x="486" 
d="M421 262.5q40 -42.5 40 -112.5q0 -69 -41 -112t-106 -43q-61 0 -100 35.5t-46 95.5h-61v-126h-60v300h60v-120h62q9 57 48.5 91t96.5 34q67 0 107 -42.5zM376.5 74.5q23.5 28.5 23.5 75.5t-23.5 75.5t-62.5 28.5q-40 0 -63.5 -28.5t-23.5 -75.5t23.5 -75.5t63.5 -28.5
q39 0 62.5 28.5zM228 401h72l-59 -73h-43z" />
    <glyph glyph-name="uni044F.stress" horiz-adv-x="324" 
d="M277 0h-60v113h-66l-73 -113h-67l80 121q-29 11 -44.5 32t-15.5 51q0 44 30 70t81 26h135v-300zM217 158v92h-69q-27 0 -42 -12t-15 -33q0 -22 15 -34.5t42 -12.5h69zM180 401h72l-59 -73h-43z" />
    <glyph glyph-name="uni0443.ss03.stress" horiz-adv-x="328" 
d="M321 300l-100 -296q-19 -57 -45.5 -83t-64.5 -26t-61 23.5t-23 63.5t30 70h43l-97 248h66l87 -248h24l77 248h64zM137 -44.5q11 10.5 18 30.5l6 18h-75q-7 -10 -7 -24q0 -16 9.5 -25.5t24.5 -9.5q13 0 24 10.5zM176 401h72l-59 -73h-43z" />
    <glyph glyph-name="uni044F.ss03.stress" horiz-adv-x="332" 
d="M285 0h-60v112h-117v-57q0 -27 -15.5 -41t-42.5 -14h-27v53h11q7 0 11 4t4 11v71h49q-27 9 -43.5 28.5t-16.5 45.5q0 39 28 63t75 24h144v-300zM112.5 240q-14.5 -12 -14.5 -34t16.5 -34.5t45.5 -12.5h65v93h-70q-28 0 -42.5 -12zM173 401h72l-59 -73h-43z" />
    <glyph glyph-name="uni044F.ss04.stress" horiz-adv-x="332" 
d="M285 0h-60v112h-89q-14 0 -22.5 -8t-8.5 -23v-26q0 -27 -15 -41t-42 -14h-26v53h11q7 0 11 4t4 11v21q0 21 8.5 33t25.5 17q-21 11 -32.5 29t-11.5 42q0 41 28 65.5t75 24.5h144v-300zM113 239q-15 -12 -15 -33q0 -23 14.5 -35t42.5 -12h70v92h-70q-27 0 -42 -12z
M181 401h72l-59 -73h-43z" />
    <glyph glyph-name="uni0443.ss06.stress" horiz-adv-x="328" 
d="M320 300l-131 -342q-22 -58 -80 -58h-61v53h53q23 0 30 19l9 23l-127 305h66l92 -236l84 236h65zM177 401h72l-59 -73h-43z" />
    <glyph glyph-name="zero.lf" 
d="M69 48q-41 53 -41 142t41 142t111 53t111 -53t41 -142t-41 -142t-111 -53t-111 53zM246.5 85.5q24.5 38.5 24.5 104.5t-24.5 104.5t-66.5 38.5t-66.5 -38.5t-24.5 -104.5t24.5 -104.5t66.5 -38.5t66.5 38.5z" />
    <glyph glyph-name="one.lf" horiz-adv-x="225" 
d="M17 268v47h16q49 0 67 13.5t22 51.5h44v-380h-60v268h-89z" />
    <glyph glyph-name="two.lf" horiz-adv-x="301" 
d="M288 54v-54h-272v39l133 118q37 34 53.5 60.5t16.5 52.5q0 28 -18.5 46t-47.5 18q-35 0 -56 -21.5t-24 -62.5l-56 11q4 57 42 90.5t97 33.5q55 0 89 -30.5t34 -79.5q0 -39 -24.5 -75t-81.5 -85l-70 -61h185z" />
    <glyph glyph-name="three.lf" horiz-adv-x="305" 
d="M253.5 201.5q31.5 -31.5 31.5 -80.5q0 -54 -39.5 -90t-100.5 -36q-50 0 -86.5 21.5t-53.5 61.5l46 27q27 -59 90 -59q39 0 61.5 20t22.5 55q0 32 -18.5 51t-49.5 19q-23 0 -42 -11l-29 32l111 114h-176v54h252v-44l-101 -103q50 0 81.5 -31.5z" />
    <glyph glyph-name="four.lf" horiz-adv-x="320" 
d="M321 145v-51h-60v-94h-58v94h-187v48l172 238h73v-235h60zM78 145h125v173z" />
    <glyph glyph-name="five.lf" horiz-adv-x="316" 
d="M254.5 217.5q36.5 -36.5 36.5 -91.5q0 -58 -40 -94.5t-104 -36.5q-44 0 -78.5 18.5t-52.5 51.5l41 32q13 -23 37 -37t52 -14q38 0 62 22t24 58t-22 58t-58 22q-50 0 -73 -39l-45 15l17 198h213v-55h-166l-8 -95q27 24 72 24q56 0 92.5 -36.5z" />
    <glyph glyph-name="six.lf" horiz-adv-x="326" 
d="M282 210.5q36 -32.5 36 -87.5q0 -56 -40.5 -92t-97.5 -36q-74 0 -112 54t-38 136q0 86 40 143t118 57q37 0 68 -13.5t51 -39.5l-40 -37q-27 39 -78 39q-55 0 -80 -41.5t-24 -101.5q17 25 44 38.5t61 13.5q56 0 92 -32.5zM237 66q23 21 23 54q0 35 -22 55.5t-56 20.5
q-35 0 -58 -20.5t-23 -53.5q0 -35 22 -56t57 -21q34 0 57 21z" />
    <glyph glyph-name="seven.lf" horiz-adv-x="279" 
d="M283 380v-45q-62 -58 -98 -146.5t-36 -188.5h-62q0 92 36.5 180t92.5 145h-208v55h275z" />
    <glyph glyph-name="eight.lf" horiz-adv-x="324" 
d="M288.5 157q17.5 -24 17.5 -56q0 -48 -38 -77t-102 -29t-102 29t-38 77q0 32 17.5 56t49.5 37q-26 12 -41 34.5t-15 50.5q0 48 35 77t94 29t94 -29t35 -77q0 -28 -15 -50.5t-41 -34.5q32 -13 49.5 -37zM113.5 321q-19.5 -17 -19.5 -45t19.5 -45t52.5 -17t52.5 17t19.5 45
t-19.5 45t-52.5 17t-52.5 -17zM225 59.5q22 17.5 22 46.5q0 28 -22 45t-59 17t-59 -17t-22 -45q0 -29 22 -46.5t59 -17.5t59 17.5z" />
    <glyph glyph-name="nine.lf" horiz-adv-x="326" 
d="M265 331q38 -54 38 -136q0 -86 -40 -143t-118 -57q-37 0 -68 13.5t-51 39.5l40 37q27 -39 78 -39q55 0 80 41.5t24 101.5q-17 -25 -44 -38.5t-61 -13.5q-56 0 -92 32.5t-36 87.5q0 56 40.5 92t97.5 36q74 0 112 -54zM209 204.5q23 20.5 23 53.5q0 35 -22 56t-57 21
q-34 0 -57 -21t-23 -54q0 -35 22 -55.5t56 -20.5q35 0 58 20.5z" />
    <glyph glyph-name="zero.osf" 
d="M69 40q-41 45 -41 120q0 74 42 119.5t110 45.5q70 0 111 -45t41 -120q0 -74 -42 -119.5t-110 -45.5q-70 0 -111 45zM246.5 77.5q24.5 30.5 24.5 82.5t-24.5 82.5t-66.5 30.5t-66.5 -30.5t-24.5 -82.5t24.5 -82.5t66.5 -30.5t66.5 30.5z" />
    <glyph glyph-name="one.osf" horiz-adv-x="223" 
d="M12 212v47h16q49 0 67 13.5t22 51.5h44v-324h-60v212h-89z" />
    <glyph glyph-name="two.osf" horiz-adv-x="301" 
d="M299 55v-55h-287v39l126 85q46 31 61.5 50.5t15.5 44.5t-17 40t-47 15q-34 0 -55 -18.5t-27 -52.5l-55 10q8 52 46.5 82t94.5 30q54 0 86.5 -28t32.5 -75q0 -34 -23 -62.5t-85 -71.5l-48 -33h181z" />
    <glyph glyph-name="three.osf" horiz-adv-x="300" 
d="M252.5 141.5q31.5 -31.5 31.5 -80.5q0 -54 -39.5 -90t-100.5 -36q-50 0 -86.5 21.5t-53.5 61.5l46 27q27 -59 90 -59q39 0 61.5 20t22.5 55q0 32 -18.5 51t-49.5 19q-23 0 -42 -11l-29 32l111 114h-176v54h252v-44l-101 -103q50 0 81.5 -31.5z" />
    <glyph glyph-name="four.osf" horiz-adv-x="320" 
d="M312 85v-51h-60v-94h-58v94h-187v48l172 238h73v-235h60zM69 85h125v173z" />
    <glyph glyph-name="five.osf" horiz-adv-x="316" 
d="M261.5 157.5q36.5 -36.5 36.5 -91.5q0 -58 -40 -94.5t-104 -36.5q-44 0 -78.5 18.5t-52.5 51.5l41 32q13 -23 37 -37t52 -14q38 0 62 22t24 58t-22 58t-58 22q-50 0 -73 -39l-45 15l17 198h213v-55h-166l-8 -95q27 24 72 24q56 0 92.5 -36.5z" />
    <glyph glyph-name="six.osf" horiz-adv-x="333" 
d="M280 209.5q36 -32.5 36 -87.5q0 -56 -40.5 -92t-97.5 -36q-74 0 -112 54t-38 136q0 86 40 143t118 57q37 0 68 -13.5t51 -39.5l-40 -37q-27 39 -78 39q-55 0 -80 -41.5t-24 -101.5q17 25 44 38.5t61 13.5q56 0 92 -32.5zM235 65q23 21 23 54q0 35 -22 55.5t-56 20.5
q-35 0 -58 -20.5t-23 -53.5q0 -35 22 -56t57 -21q34 0 57 21z" />
    <glyph glyph-name="seven.osf" horiz-adv-x="282" 
d="M278 320v-45q-62 -58 -98 -146.5t-36 -188.5h-62q0 92 36.5 180t92.5 145h-208v55h275z" />
    <glyph glyph-name="eight.osf" horiz-adv-x="324" 
d="M284.5 157q17.5 -24 17.5 -56q0 -48 -38 -77t-102 -29t-102 29t-38 77q0 32 17.5 56t49.5 37q-26 12 -41 34.5t-15 50.5q0 48 35 77t94 29t94 -29t35 -77q0 -28 -15 -50.5t-41 -34.5q32 -13 49.5 -37zM109.5 321q-19.5 -17 -19.5 -45t19.5 -45t52.5 -17t52.5 17t19.5 45
t-19.5 45t-52.5 17t-52.5 -17zM221 59.5q22 17.5 22 46.5q0 28 -22 45t-59 17t-59 -17t-22 -45q0 -29 22 -46.5t59 -17.5t59 17.5z" />
    <glyph glyph-name="nine.osf" horiz-adv-x="328" 
d="M267 271q38 -54 38 -136q0 -86 -40 -143t-118 -57q-37 0 -68 13.5t-51 39.5l40 37q27 -39 78 -39q55 0 80 41.5t24 101.5q-17 -25 -44 -38.5t-61 -13.5q-56 0 -92 32.5t-36 87.5q0 56 40.5 92t97.5 36q74 0 112 -54zM211 144.5q23 20.5 23 53.5q0 35 -22 56t-57 21
q-34 0 -57 -21t-23 -54q0 -35 22 -55.5t56 -20.5q35 0 58 20.5z" />
    <glyph glyph-name="zero.tf" 
d="M69 48q-41 53 -41 142t41 142t111 53t111 -53t41 -142t-41 -142t-111 -53t-111 53zM246.5 85.5q24.5 38.5 24.5 104.5t-24.5 104.5t-66.5 38.5t-66.5 -38.5t-24.5 -104.5t24.5 -104.5t66.5 -38.5t66.5 38.5z" />
    <glyph glyph-name="one.tf" 
d="M332 51v-51h-288v51h116v217h-102v47h29q49 0 67 13.5t22 51.5h44v-329h112z" />
    <glyph glyph-name="two.tf" 
d="M317 54v-54h-272v39l133 118q37 34 53.5 60.5t16.5 52.5q0 28 -18.5 46t-47.5 18q-35 0 -56 -21.5t-24 -62.5l-56 11q4 57 42 90.5t97 33.5q55 0 89 -30.5t34 -79.5q0 -39 -24.5 -75t-81.5 -85l-70 -61h185z" />
    <glyph glyph-name="three.tf" 
d="M281.5 201.5q31.5 -31.5 31.5 -80.5q0 -54 -39.5 -90t-100.5 -36q-50 0 -86.5 21.5t-53.5 61.5l46 27q27 -59 90 -59q39 0 61.5 20t22.5 55q0 32 -18.5 51t-49.5 19q-23 0 -42 -11l-29 32l111 114h-176v54h252v-44l-101 -103q50 0 81.5 -31.5z" />
    <glyph glyph-name="four.tf" 
d="M335 145v-51h-60v-94h-58v94h-187v48l172 238h73v-235h60zM92 145h125v173z" />
    <glyph glyph-name="five.tf" 
d="M275.5 217.5q36.5 -36.5 36.5 -91.5q0 -58 -40 -94.5t-104 -36.5q-44 0 -78.5 18.5t-52.5 51.5l41 32q13 -23 37 -37t52 -14q38 0 62 22t24 58t-22 58t-58 22q-50 0 -73 -39l-45 15l17 198h213v-55h-166l-8 -95q27 24 72 24q56 0 92.5 -36.5z" />
    <glyph glyph-name="six.tf" 
d="M294 210.5q36 -32.5 36 -87.5q0 -56 -40.5 -92t-97.5 -36q-74 0 -112 54t-38 136q0 86 40 143t118 57q37 0 68 -13.5t51 -39.5l-40 -37q-27 39 -78 39q-55 0 -80 -41.5t-24 -101.5q17 25 44 38.5t61 13.5q56 0 92 -32.5zM249 66q23 21 23 54q0 35 -22 55.5t-56 20.5
q-35 0 -58 -20.5t-23 -53.5q0 -35 22 -56t57 -21q34 0 57 21z" />
    <glyph glyph-name="seven.tf" 
d="M331 380v-45q-66 -57 -104.5 -146t-38.5 -189h-63q0 90 39 179.5t99 145.5h-224v55h292z" />
    <glyph glyph-name="eight.tf" 
d="M302.5 157q17.5 -24 17.5 -56q0 -48 -38 -77t-102 -29t-102 29t-38 77q0 32 17.5 56t49.5 37q-26 12 -41 34.5t-15 50.5q0 48 35 77t94 29t94 -29t35 -77q0 -28 -15 -50.5t-41 -34.5q32 -13 49.5 -37zM127.5 321q-19.5 -17 -19.5 -45t19.5 -45t52.5 -17t52.5 17t19.5 45
t-19.5 45t-52.5 17t-52.5 -17zM239 59.5q22 17.5 22 46.5q0 28 -22 45t-59 17t-59 -17t-22 -45q0 -29 22 -46.5t59 -17.5t59 17.5z" />
    <glyph glyph-name="nine.tf" 
d="M280 331q38 -54 38 -136q0 -86 -40 -143t-118 -57q-37 0 -68 13.5t-51 39.5l40 37q27 -39 78 -39q55 0 80 41.5t24 101.5q-17 -25 -44 -38.5t-61 -13.5q-56 0 -92 32.5t-36 87.5q0 56 40.5 92t97.5 36q74 0 112 -54zM224 204.5q23 20.5 23 53.5q0 35 -22 56t-57 21
q-34 0 -57 -21t-23 -54q0 -35 22 -55.5t56 -20.5q35 0 58 20.5z" />
    <glyph glyph-name="zero.tosf" 
d="M69 40q-41 45 -41 120q0 74 42 119.5t110 45.5q70 0 111 -45t41 -120q0 -74 -42 -119.5t-110 -45.5q-70 0 -111 45zM246.5 77.5q24.5 30.5 24.5 82.5t-24.5 82.5t-66.5 30.5t-66.5 -30.5t-24.5 -82.5t24.5 -82.5t66.5 -30.5t66.5 30.5z" />
    <glyph glyph-name="one.tosf" 
d="M332 51v-51h-288v51h116v157h-102v47h29q49 0 67 13.5t22 51.5h44v-269h112z" />
    <glyph glyph-name="two.tosf" 
d="M321 55v-55h-287v39l126 85q46 31 61.5 50.5t15.5 44.5t-17 40t-47 15q-34 0 -55 -18.5t-27 -52.5l-55 10q8 52 46.5 82t94.5 30q54 0 86.5 -28t32.5 -75q0 -34 -23 -62.5t-85 -71.5l-48 -33h181z" />
    <glyph glyph-name="three.tosf" 
d="M281.5 141.5q31.5 -31.5 31.5 -80.5q0 -54 -39.5 -90t-100.5 -36q-50 0 -86.5 21.5t-53.5 61.5l46 27q27 -59 90 -59q39 0 61.5 20t22.5 55q0 32 -18.5 51t-49.5 19q-23 0 -42 -11l-29 32l111 114h-176v54h252v-44l-101 -103q50 0 81.5 -31.5z" />
    <glyph glyph-name="four.tosf" 
d="M335 85v-51h-60v-94h-58v94h-187v48l172 238h73v-235h60zM92 85h125v173z" />
    <glyph glyph-name="five.tosf" 
d="M275.5 157.5q36.5 -36.5 36.5 -91.5q0 -58 -40 -94.5t-104 -36.5q-44 0 -78.5 18.5t-52.5 51.5l41 32q13 -23 37 -37t52 -14q38 0 62 22t24 58t-22 58t-58 22q-50 0 -73 -39l-45 15l17 198h213v-55h-166l-8 -95q27 24 72 24q56 0 92.5 -36.5z" />
    <glyph glyph-name="six.tosf" 
d="M294 210.5q36 -32.5 36 -87.5q0 -56 -40.5 -92t-97.5 -36q-74 0 -112 54t-38 136q0 86 40 143t118 57q37 0 68 -13.5t51 -39.5l-40 -37q-27 39 -78 39q-55 0 -80 -41.5t-24 -101.5q17 25 44 38.5t61 13.5q56 0 92 -32.5zM249 66q23 21 23 54q0 35 -22 55.5t-56 20.5
q-35 0 -58 -20.5t-23 -53.5q0 -35 22 -56t57 -21q34 0 57 21z" />
    <glyph glyph-name="seven.tosf" 
d="M331 320v-45q-66 -57 -104.5 -146t-38.5 -189h-63q0 90 39 179.5t99 145.5h-224v55h292z" />
    <glyph glyph-name="eight.tosf" 
d="M302.5 157q17.5 -24 17.5 -56q0 -48 -38 -77t-102 -29t-102 29t-38 77q0 32 17.5 56t49.5 37q-26 12 -41 34.5t-15 50.5q0 48 35 77t94 29t94 -29t35 -77q0 -28 -15 -50.5t-41 -34.5q32 -13 49.5 -37zM127.5 321q-19.5 -17 -19.5 -45t19.5 -45t52.5 -17t52.5 17t19.5 45
t-19.5 45t-52.5 17t-52.5 -17zM239 59.5q22 17.5 22 46.5q0 28 -22 45t-59 17t-59 -17t-22 -45q0 -29 22 -46.5t59 -17.5t59 17.5z" />
    <glyph glyph-name="nine.tosf" 
d="M280 271q38 -54 38 -136q0 -86 -40 -143t-118 -57q-37 0 -68 13.5t-51 39.5l40 37q27 -39 78 -39q55 0 80 41.5t24 101.5q-17 -25 -44 -38.5t-61 -13.5q-56 0 -92 32.5t-36 87.5q0 56 40.5 92t97.5 36q74 0 112 -54zM224 144.5q23 20.5 23 53.5q0 35 -22 56t-57 21
q-34 0 -57 -21t-23 -54q0 -35 22 -55.5t56 -20.5q35 0 58 20.5z" />
    <glyph glyph-name="zero.dnom" horiz-adv-x="234" 
d="M44 28.5q-27 31.5 -27 83.5t27 83.5t73 31.5t73 -31.5t27 -83.5t-27 -83.5t-73 -31.5t-73 31.5zM156.5 58.5q14.5 20.5 14.5 53.5q0 34 -14.5 54.5t-39.5 20.5q-24 0 -39 -20.5t-15 -54.5q0 -33 15 -53.5t39 -20.5q25 0 39.5 20.5z" />
    <glyph glyph-name="one.dnom" horiz-adv-x="190" 
d="M89 0v148h-61v38h15q32 0 43.5 8t13.5 30h35v-224h-46z" />
    <glyph glyph-name="two.dnom" horiz-adv-x="234" 
d="M210 42v-42h-182v32l86 64q43 33 43 60q0 14 -10.5 22.5t-28.5 8.5q-20 0 -32 -11t-14 -31l-44 6q3 35 27.5 55.5t64.5 20.5q38 0 61 -18t23 -48q0 -23 -16 -44.5t-55 -50.5l-31 -24h108z" />
    <glyph glyph-name="three.dnom" horiz-adv-x="234" 
d="M186 118.5q19 -18.5 19 -45.5q0 -33 -26.5 -54.5t-65.5 -21.5q-32 0 -57.5 14t-36.5 38l35 22q17 -34 59 -34q21 0 33.5 10t12.5 26t-11 25.5t-29 9.5q-14 0 -26 -6l-20 23l63 58h-105v41h166v-34l-60 -52q30 -1 49 -19.5z" />
    <glyph glyph-name="four.dnom" horiz-adv-x="234" 
d="M219 91v-40h-37v-51h-44v51h-121v37l110 136h55v-133h37zM65 91h73v91z" />
    <glyph glyph-name="five.dnom" horiz-adv-x="234" 
d="M181 130.5q22 -20.5 22 -52.5q0 -35 -26.5 -58t-67.5 -23q-29 0 -52 11.5t-35 31.5l31 25q9 -13 23.5 -20.5t32.5 -7.5q22 0 35.5 10.5t13.5 29.5q0 18 -12.5 28t-33.5 10q-14 0 -25.5 -5t-18.5 -15l-33 12l11 117h141v-40h-106l-4 -44q20 11 46 11q36 0 58 -20.5z" />
    <glyph glyph-name="six.dnom" horiz-adv-x="234" 
d="M193 126q23 -20 23 -52q0 -34 -26 -55.5t-65 -21.5q-47 0 -73 32.5t-26 81.5q0 50 27.5 83t77.5 33q24 0 43.5 -7.5t32.5 -21.5l-32 -32q-8 9 -20.5 14.5t-26.5 5.5q-27 0 -42.5 -19t-17.5 -48q21 27 64 27q38 0 61 -20zM157.5 46q12.5 10 12.5 27q0 16 -12.5 27
t-31.5 11q-21 0 -34 -10.5t-13 -27.5t12.5 -27t33.5 -10q20 0 32.5 10z" />
    <glyph glyph-name="seven.dnom" horiz-adv-x="204" 
d="M197 224v-36q-41 -32 -64.5 -81.5t-23.5 -106.5h-48q0 50 22.5 99t58.5 82h-137v43h192z" />
    <glyph glyph-name="eight.dnom" horiz-adv-x="234" 
d="M210 61q0 -29 -25 -46.5t-68 -17.5t-68 17.5t-25 46.5q0 36 40 54q-33 16 -33 49q0 29 23.5 46t62.5 17t62.5 -17t23.5 -46q0 -33 -33 -49q40 -18 40 -54zM85.5 183q-11.5 -8 -11.5 -23q0 -12 11.5 -20t31.5 -8t31.5 8t11.5 20q0 15 -11.5 23t-31.5 8t-31.5 -8zM152 41
q13 8 13 22t-13 22t-35 8t-35 -8t-13 -22t13 -22t35 -8t35 8z" />
    <glyph glyph-name="nine.dnom" horiz-adv-x="234" 
d="M182 194.5q26 -32.5 26 -81.5q0 -50 -27.5 -83t-77.5 -33q-24 0 -43.5 7.5t-32.5 21.5l32 32q8 -9 20.5 -14.5t26.5 -5.5q27 0 42.5 19t17.5 48q-21 -27 -64 -27q-38 0 -61 20t-23 52q0 34 26 55.5t65 21.5q47 0 73 -32.5zM142 123.5q13 10.5 13 27.5t-12.5 27t-33.5 10
q-20 0 -32.5 -10t-12.5 -27q0 -16 12.5 -27t31.5 -11q21 0 34 10.5z" />
    <glyph glyph-name="zero.numr" horiz-adv-x="234" 
d="M44 184.5q-27 31.5 -27 83.5t27 83.5t73 31.5t73 -31.5t27 -83.5t-27 -83.5t-73 -31.5t-73 31.5zM156.5 214.5q14.5 20.5 14.5 53.5q0 34 -14.5 54.5t-39.5 20.5q-24 0 -39 -20.5t-15 -54.5q0 -33 15 -53.5t39 -20.5q25 0 39.5 20.5z" />
    <glyph glyph-name="one.numr" horiz-adv-x="190" 
d="M89 156v148h-61v38h15q32 0 43.5 8t13.5 30h35v-224h-46z" />
    <glyph glyph-name="two.numr" horiz-adv-x="234" 
d="M210 198v-42h-182v32l86 64q43 33 43 60q0 14 -10.5 22.5t-28.5 8.5q-20 0 -32 -11t-14 -31l-44 6q3 35 27.5 55.5t64.5 20.5q38 0 61 -18t23 -48q0 -23 -16 -44.5t-55 -50.5l-31 -24h108z" />
    <glyph glyph-name="three.numr" horiz-adv-x="234" 
d="M186 274.5q19 -18.5 19 -45.5q0 -33 -26.5 -54.5t-65.5 -21.5q-32 0 -57.5 14t-36.5 38l35 22q17 -34 59 -34q21 0 33.5 10t12.5 26t-11 25.5t-29 9.5q-14 0 -26 -6l-20 23l63 58h-105v41h166v-34l-60 -52q30 -1 49 -19.5z" />
    <glyph glyph-name="four.numr" horiz-adv-x="234" 
d="M219 247v-40h-37v-51h-44v51h-121v37l110 136h55v-133h37zM65 247h73v91z" />
    <glyph glyph-name="five.numr" horiz-adv-x="234" 
d="M181 286.5q22 -20.5 22 -52.5q0 -35 -26.5 -58t-67.5 -23q-29 0 -52 11.5t-35 31.5l31 25q9 -13 23.5 -20.5t32.5 -7.5q22 0 35.5 10.5t13.5 29.5q0 18 -12.5 28t-33.5 10q-14 0 -25.5 -5t-18.5 -15l-33 12l11 117h141v-40h-106l-4 -44q20 11 46 11q36 0 58 -20.5z" />
    <glyph glyph-name="six.numr" horiz-adv-x="234" 
d="M193 282q23 -20 23 -52q0 -34 -26 -55.5t-65 -21.5q-47 0 -73 32.5t-26 81.5q0 50 27.5 83t77.5 33q24 0 43.5 -7.5t32.5 -21.5l-32 -32q-8 9 -20.5 14.5t-26.5 5.5q-27 0 -42.5 -19t-17.5 -48q21 27 64 27q38 0 61 -20zM157.5 202q12.5 10 12.5 27q0 16 -12.5 27
t-31.5 11q-21 0 -34 -10.5t-13 -27.5t12.5 -27t33.5 -10q20 0 32.5 10z" />
    <glyph glyph-name="seven.numr" horiz-adv-x="204" 
d="M197 380v-36q-41 -32 -64.5 -81.5t-23.5 -106.5h-48q0 50 22.5 99t58.5 82h-137v43h192z" />
    <glyph glyph-name="eight.numr" horiz-adv-x="234" 
d="M210 217q0 -29 -25 -46.5t-68 -17.5t-68 17.5t-25 46.5q0 36 40 54q-33 16 -33 49q0 29 23.5 46t62.5 17t62.5 -17t23.5 -46q0 -33 -33 -49q40 -18 40 -54zM85.5 339q-11.5 -8 -11.5 -23q0 -12 11.5 -20t31.5 -8t31.5 8t11.5 20q0 15 -11.5 23t-31.5 8t-31.5 -8zM152 197
q13 8 13 22t-13 22t-35 8t-35 -8t-13 -22t13 -22t35 -8t35 8z" />
    <glyph glyph-name="nine.numr" horiz-adv-x="234" 
d="M182 350.5q26 -32.5 26 -81.5q0 -50 -27.5 -83t-77.5 -33q-24 0 -43.5 7.5t-32.5 21.5l32 32q8 -9 20.5 -14.5t26.5 -5.5q27 0 42.5 19t17.5 48q-21 -27 -64 -27q-38 0 -61 20t-23 52q0 34 26 55.5t65 21.5q47 0 73 -32.5zM142 279.5q13 10.5 13 27.5t-12.5 27t-33.5 10
q-20 0 -32.5 -10t-12.5 -27q0 -16 12.5 -27t31.5 -11q21 0 34 10.5z" />
    <glyph glyph-name="exclamdown.case" horiz-adv-x="180" 
d="M51 380h78v-78h-78v78zM55 0l11 254h48l11 -254h-70z" />
    <glyph glyph-name="questiondown.case" horiz-adv-x="310" 
d="M119 380h78v-78h-78v78zM176.5 217q-9.5 -17 -40.5 -42q-27 -22 -36 -35.5t-9 -32.5q0 -29 17 -45t47 -16q34 0 55.5 22t24.5 60l56 -11q-5 -56 -42.5 -89t-95.5 -33q-56 0 -89.5 29.5t-33.5 78.5q0 30 14.5 53.5t48.5 48.5q22 17 31.5 29t9.5 24v4h50q2 -28 -7.5 -45z
" />
    <glyph glyph-name="periodcentered.case" horiz-adv-x="160" 
d="M41 233h78v-78h-78v78z" />
    <glyph glyph-name="bullet.case" 
d="M127 133q-23 23 -23 57q0 35 23 57.5t57 22.5q35 0 57.5 -22.5t22.5 -57.5q0 -34 -22.5 -57t-57.5 -23q-34 0 -57 23z" />
    <glyph glyph-name="asterisk.case" horiz-adv-x="242" 
d="M218 295l-67 -21l41 -57l-30 -22l-41 57l-41 -57l-30 22l41 57l-67 22l11 36l68 -23v71h36v-71l68 23z" />
    <glyph glyph-name="slash.case" horiz-adv-x="238" 
d="M191 380h56l-200 -380h-56z" />
    <glyph glyph-name="backslash.case" horiz-adv-x="238" 
d="M225 0h-56l-200 380h56z" />
    <glyph glyph-name="parenleft.case" horiz-adv-x="236" 
d="M180 16l-25 -34q-52 31 -81.5 86t-29.5 122t29.5 122t81.5 86l25 -34q-74 -64 -74 -174t74 -174z" />
    <glyph glyph-name="parenright.case" horiz-adv-x="236" 
d="M56 364l25 34q52 -31 81.5 -86t29.5 -122t-29.5 -122t-81.5 -86l-25 34q74 64 74 174t-74 174z" />
    <glyph glyph-name="braceleft.case" horiz-adv-x="236" 
d="M100 190q31 -14 31 -61v-60q0 -19 19 -19h46v-50h-58q-31 0 -47.5 16.5t-16.5 47.5v60q0 21 -6.5 31t-21.5 10h-16v50h16q15 0 21.5 10t6.5 31v60q0 31 16.5 47.5t47.5 16.5h58v-50h-46q-19 0 -19 -19v-60q0 -47 -31 -61z" />
    <glyph glyph-name="braceright.case" horiz-adv-x="236" 
d="M206 215v-50h-16q-15 0 -21.5 -10t-6.5 -31v-60q0 -31 -16.5 -47.5t-47.5 -16.5h-58v50h46q19 0 19 19v60q0 47 31 61q-31 14 -31 61v60q0 19 -19 19h-46v50h58q31 0 47.5 -16.5t16.5 -47.5v-60q0 -21 6.5 -31t21.5 -10h16z" />
    <glyph glyph-name="bracketleft.case" horiz-adv-x="236" 
d="M197 330h-83v-280h83v-50h-140v380h140v-50z" />
    <glyph glyph-name="bracketright.case" horiz-adv-x="236" 
d="M179 380v-380h-140v50h83v280h-83v50h140z" />
    <glyph glyph-name="hyphen.case" horiz-adv-x="244" 
d="M35 219h174v-58h-174v58z" />
    <glyph glyph-name="endash.case" horiz-adv-x="324" 
d="M35 218h254v-56h-254v56z" />
    <glyph glyph-name="emdash.case" horiz-adv-x="444" 
d="M35 218h374v-56h-374v56z" />
    <glyph glyph-name="guillemotleft.case" horiz-adv-x="338" 
d="M158 306v-65l-71 -50l71 -50v-67l-122 86v60zM293 306v-65l-71 -50l71 -50v-67l-122 86v60z" />
    <glyph glyph-name="guillemotright.case" horiz-adv-x="333" 
d="M41 239v67l122 -86v-60l-122 -86v65l70 50zM176 306l122 -86v-60l-122 -86v65l70 50l-70 50v67z" />
    <glyph glyph-name="guilsinglleft.case" horiz-adv-x="203" 
d="M158 306v-65l-71 -50l71 -50v-67l-122 86v60z" />
    <glyph glyph-name="guilsinglright.case" horiz-adv-x="203" 
d="M46 306l122 -86v-60l-122 -86v65l70 50l-70 50v67z" />
    <glyph glyph-name="at.case" horiz-adv-x="436" 
d="M415 144v-51q-4 -1 -9.5 -2t-10.5 0q-28 0 -41.5 10.5t-16.5 35.5q-16 -22 -44 -35.5t-60 -13.5q-44 0 -71 24t-27 62q0 46 34.5 67t94.5 29q34 4 46.5 8t12.5 13q0 19 -28.5 33.5t-66.5 14.5q-64 0 -106.5 -40.5t-42.5 -107.5q0 -69 44.5 -111t116.5 -42q53 0 96 26
l21 -40q-54 -30 -119 -30q-62 0 -109.5 24.5t-74 69.5t-26.5 103q0 57 25.5 101t72 68.5t105.5 24.5q69 0 112 -34.5t43 -90.5v-98q0 -18 19 -18h10zM302 155.5q26 20.5 26 47.5v42q-10 -7 -24 -10.5t-36 -7.5q-39 -6 -57.5 -16t-18.5 -35q0 -19 13 -30t36 -11q35 0 61 20.5
z" />
    <glyph glyph-name="bar.case" horiz-adv-x="171" 
d="M57 380h57v-380h-57v380z" />
    <glyph glyph-name="brokenbar.case" horiz-adv-x="171" 
d="M57 380h57v-140h-57v140zM114 0h-57v140h57v-140z" />
    <glyph glyph-name="dagger.case" horiz-adv-x="232" 
d="M192 330v-36h-56v-92h-40v92h-56v36h56v50h40v-50h56z" />
    <glyph glyph-name="daggerdbl.case" horiz-adv-x="232" 
d="M192 305h-56v-28h56v-36h-56v-39h-40v39h-56v36h56v28h-56v36h56v39h40v-39h56v-36z" />
    <glyph glyph-name="caron.alt" 
d="M220 400h60l-20 -84h-40v84z" />
    <glyph glyph-name="uni0308.double" horiz-adv-x="0" 
d="M-356 402h64v-60h-64v60zM-260 402h64v-60h-64v60zM-164 402h64v-60h-64v60zM-68 402h64v-60h-64v60z" />
    <glyph glyph-name="brevecombcy" horiz-adv-x="0" 
d="M-243 346.5q-24 18.5 -28 52.5l47 8q2 -19 13.5 -29t30.5 -10t30.5 10t13.5 29l47 -8q-4 -34 -28 -52.5t-63 -18.5t-63 18.5z" />
    <glyph glyph-name="strokecomb" 
d="M97 219h166v-48h-166v48z" />
    </font>
</defs>
</svg>
