<?xml version="1.0" standalone="no"?>
<!DOCTYPE svg PUBLIC "-//W3C//DTD SVG 1.1//EN" "http://www.w3.org/Graphics/SVG/1.1/DTD/svg11.dtd" >
<svg xmlns="http://www.w3.org/2000/svg" xmlns:xlink="http://www.w3.org/1999/xlink" version="1.1">
<metadata>
Created by FontForge 20170731 at Fri Oct 25 21:42:09 2019
 By Aleksey,,,
https://plan.diia.gov.ua
</metadata>
<defs>
<font id="e-Ukraine-Bold" horiz-adv-x="360" >
  <font-face 
    font-family="e-Ukraine Bold"
    font-weight="700"
    font-stretch="normal"
    units-per-em="512"
    panose-1="0 0 8 0 0 0 0 0 0 0"
    ascent="409"
    descent="-103"
    x-height="300"
    cap-height="380"
    bbox="-385 -154 764 507"
    underline-thickness="40"
    underline-position="-100"
    unicode-range="U+000D-2646"
  />
<missing-glyph horiz-adv-x="558" 
d="M488 -39q13 21 13 45v472h-444v-472q0 -24 13 -45t36 -31l173 -76l173 76q23 10 36 31zM262 -93q-22 17 -37 41t-20 52h-93v402q37 -19 62 -56.5t28 -80.5l14 -113l-7 1q-11 0 -19.5 -8.5t-8.5 -19.5q0 -10 6.5 -17.5t16.5 -9.5l17 -4q44 83 44 156q0 25 -4 75
q-1 10 -2 29.5t-1 34.5q0 31 21 55q21 -24 21 -55q0 -24 -4 -70q-1 -12 -2 -29t-1 -40q0 -73 44 -156l17 4q10 2 16.5 9.5t6.5 17.5q0 11 -8.5 19.5t-19.5 8.5l-7 -1l14 113q5 44 29 81.5t61 55.5v-402h-93q-5 -29 -20 -53t-37 -40q-12 -8 -17 -19q-5 11 -17 19zM185 175
l-11 93q-6 43 -34 76v-205h16q6 23 29 36zM418 344q-30 -35 -34 -76l-11 -93q23 -13 29 -36h16v205zM309 87q-21 39 -30 69q-9 -30 -30 -69q16 -4 30 -20q14 16 30 20zM208 68l-13 3q-14 5 -24.5 15.5t-14.5 24.5h-16v-83h63q0 18 5 40zM418 111h-16q-4 -14 -14.5 -24.5
t-24.5 -15.5l-13 -3q5 -22 5 -40h63v83zM256.5 51q-8.5 10 -21.5 11q-5 -18 -5 -34h35q0 13 -8.5 23zM323 62q-13 -1 -21.5 -11t-8.5 -23h35q0 16 -5 34zM234 0q7 -32 31 -59v59h-31zM324 0h-31v-59q24 27 31 59z" />
    <glyph glyph-name="uni20B4" unicode="&#x3c;&#x433;&#x440;&#x43d;&#x3e;" 
d="M243 208l-46 -36h135v-44h-176q-18 -12 -18 -31q0 -16 12.5 -24.5t34.5 -8.5q42 0 69 41l62 -41q-22 -33 -59.5 -51t-78.5 -18q-51 0 -84.5 23t-33.5 62q0 27 18 48h-53v44h87l46 36h-133v44h176q17 14 17 32q0 14 -12 23t-32 9q-39 0 -64 -39l-59 38q23 35 57 52.5
t74 17.5q51 0 83 -24t32 -61q0 -27 -16 -48h51v-44h-89z" />
    <glyph glyph-name="arrowleft" unicode="&#x3c;&#x2d;" horiz-adv-x="400" 
d="M400 227v-74h-258l87 -87l-53 -52l-176 176l176 176l53 -52l-87 -87h258z" />
    <glyph glyph-name="arrowup" unicode="&#x2d;^" horiz-adv-x="400" 
d="M376 224l-52 -53l-87 87v-258h-74v258l-87 -87l-52 53l176 176z" />
    <glyph glyph-name="arrowright" unicode="&#x2d;&#x3e;" horiz-adv-x="400" 
d="M224 366l176 -176l-176 -176l-53 52l87 87h-258v74h258l-87 87z" />
    <glyph glyph-name="arrowdown" unicode="^&#x2d;" horiz-adv-x="400" 
d="M324 209l52 -53l-176 -176l-176 176l52 53l87 -87v258h74v-258z" />
    <glyph glyph-name="uni2196" unicode="&#x3c;\" horiz-adv-x="400" 
d="M375 64l-53 -53l-182 182v-122l-74 1v248h249v-74h-122z" />
    <glyph glyph-name="uni2197" unicode="&#x2f;&#x3e;" horiz-adv-x="400" 
d="M85 320h249v-248l-74 -1v122l-182 -182l-53 53l182 182h-122v74z" />
    <glyph glyph-name="uni2198" unicode="\&#x3e;" horiz-adv-x="400" 
d="M260 292l74 -1v-248h-249v74h122l-182 182l53 53l182 -182v122z" />
    <glyph glyph-name="uni2199" unicode="&#x3c;&#x2f;" horiz-adv-x="400" 
d="M375 299l-182 -182h122v-74h-249v248l74 1v-122l182 182z" />
    <glyph glyph-name="uni2646" unicode="&#x3c;&#x433;&#x435;&#x440;&#x431;&#x3e;" horiz-adv-x="558" 
d="M64.5 -43q-14.5 23 -14.5 49v479h458v-479q0 -26 -14.5 -49t-38.5 -33l-176 -78l-176 78q-24 10 -38.5 33zM488 -39q13 21 13 45v472h-444v-472q0 -24 13 -45t36 -31l173 -76l173 76q23 10 36 31zM262 -93q-22 17 -37 41t-20 52h-93v402q37 -19 62 -56.5t28 -80.5
l14 -113l-7 1q-11 0 -19.5 -8.5t-8.5 -19.5q0 -10 6.5 -17.5t16.5 -9.5l17 -4q44 83 44 156q0 25 -4 75q-1 10 -2 29.5t-1 34.5q0 31 21 55q21 -24 21 -55q0 -24 -4 -70q-1 -12 -2 -29t-1 -40q0 -73 44 -156l17 4q10 2 16.5 9.5t6.5 17.5q0 11 -8.5 19.5t-19.5 8.5l-7 -1
l14 113q5 44 29 81.5t61 55.5v-402h-93q-5 -29 -20 -53t-37 -40q-12 -8 -17 -19q-5 11 -17 19zM185 175l-11 93q-6 43 -34 76v-205h16q6 23 29 36zM418 344q-30 -35 -34 -76l-11 -93q23 -13 29 -36h16v205zM309 87q-21 39 -30 69q-9 -30 -30 -69q16 -4 30 -20q14 16 30 20z
M208 68l-13 3q-14 5 -24.5 15.5t-14.5 24.5h-16v-83h63q0 18 5 40zM418 111h-16q-4 -14 -14.5 -24.5t-24.5 -15.5l-13 -3q5 -22 5 -40h63v83zM256.5 51q-8.5 10 -21.5 11q-5 -18 -5 -34h35q0 13 -8.5 23zM323 62q-13 -1 -21.5 -11t-8.5 -23h35q0 16 -5 34zM234 0
q7 -32 31 -59v59h-31zM324 0h-31v-59q24 27 31 59z" />
    <glyph glyph-name="I_I.liga" unicode="II" horiz-adv-x="375" 
d="M51 380h86v-380h-86v380zM239 380h86v-380h-86v380z" />
    <glyph glyph-name="dotlessi_dotlessi.liga" unicode="&#x131;&#x131;" horiz-adv-x="344" 
d="M46 300h80v-300h-80v300zM218 300h80v-300h-80v300z" />
    <glyph glyph-name="uni04070407.liga" unicode="&#x407;&#x407;" horiz-adv-x="375" 
d="M51 380h86v-380h-86v380zM239 380h86v-380h-86v380zM-17 486h80v-68h-80v68zM93 486h80v-68h-80v68zM203 486h80v-68h-80v68zM313 486h80v-68h-80v68z" />
    <glyph glyph-name="uni04570457.liga" unicode="&#x457;&#x457;" horiz-adv-x="344" 
d="M46 300h80v-300h-80v300zM218 300h80v-300h-80v300zM-33 406h80v-68h-80v68zM77 406h80v-68h-80v68zM187 406h80v-68h-80v68zM297 406h80v-68h-80v68z" />
    <glyph glyph-name="uni2019_uni0457.liga" unicode="&#x2019;&#x457;" horiz-adv-x="330" 
d="M204 300h80v-300h-80v300zM145 406h82v-68h-82v68zM261 406h82v-68h-82v68zM119 406v-50q0 -47 -21.5 -70.5t-58.5 -23.5h-14v42h9q18 0 26 8t10 26h-45v68h94z" />
    <glyph glyph-name="ampersand.ss08" unicode="&#x3c;&#x442;&#x430;&#x3e;" horiz-adv-x="362" 
d="M343 69v-69q-12 -2 -29 -2q-57 0 -64 48q-38 -52 -123 -52q-46 0 -77 20.5t-31 58.5q0 41 33 59t86 24v49q-47 -6 -81 -35l-35 52q49 38 116 47v45h-112v66h288v-66h-112v-44q53 -5 82.5 -31t29.5 -67v-86q0 -17 17 -17h12zM202 206v-44q22 3 32 7.5t10 12.5q0 22 -42 24
zM231 88q11 14 11 30v13q-13 -11 -40 -16v-50q18 9 29 23zM105.5 59.5q9.5 -7.5 32.5 -8.5v58q-20 -3 -31 -9t-11 -20q0 -13 9.5 -20.5z" />
    <glyph glyph-name="trident.ss01" unicode="&#x3c;&#x442;&#x440;&#x438;&#x437;&#x443;&#x431;&#x3e;" horiz-adv-x="558" 
d="M262 -93q-22 17 -37 41t-20 52h-93v402q37 -19 62 -56.5t28 -80.5l14 -113l-7 1q-11 0 -19.5 -8.5t-8.5 -19.5q0 -10 6.5 -17.5t16.5 -9.5l17 -4q44 83 44 156q0 25 -4 75q-1 10 -2 29.5t-1 34.5q0 31 21 55q21 -24 21 -55q0 -24 -4 -70q-1 -12 -2 -29t-1 -40
q0 -73 44 -156l17 4q10 2 16.5 9.5t6.5 17.5q0 11 -8.5 19.5t-19.5 8.5l-7 -1l14 113q5 44 29 81.5t61 55.5v-402h-93q-5 -29 -20 -53t-37 -40q-12 -8 -17 -19q-5 11 -17 19zM185 175l-11 93q-6 43 -34 76v-205h16q6 23 29 36zM418 344q-30 -35 -34 -76l-11 -93
q23 -13 29 -36h16v205zM309 87q-21 39 -30 69q-9 -30 -30 -69q16 -4 30 -20q14 16 30 20zM208 68l-13 3q-14 5 -24.5 15.5t-14.5 24.5h-16v-83h63q0 18 5 40zM418 111h-16q-4 -14 -14.5 -24.5t-24.5 -15.5l-13 -3q5 -22 5 -40h63v83zM256.5 51q-8.5 10 -21.5 11
q-5 -18 -5 -34h35q0 13 -8.5 23zM323 62q-13 -1 -21.5 -11t-8.5 -23h35q0 16 -5 34zM234 0q7 -32 31 -59v59h-31zM324 0h-31v-59q24 27 31 59z" />
    <glyph glyph-name=".notdef" horiz-adv-x="558" 
d="M488 -39q13 21 13 45v472h-444v-472q0 -24 13 -45t36 -31l173 -76l173 76q23 10 36 31zM262 -93q-22 17 -37 41t-20 52h-93v402q37 -19 62 -56.5t28 -80.5l14 -113l-7 1q-11 0 -19.5 -8.5t-8.5 -19.5q0 -10 6.5 -17.5t16.5 -9.5l17 -4q44 83 44 156q0 25 -4 75
q-1 10 -2 29.5t-1 34.5q0 31 21 55q21 -24 21 -55q0 -24 -4 -70q-1 -12 -2 -29t-1 -40q0 -73 44 -156l17 4q10 2 16.5 9.5t6.5 17.5q0 11 -8.5 19.5t-19.5 8.5l-7 -1l14 113q5 44 29 81.5t61 55.5v-402h-93q-5 -29 -20 -53t-37 -40q-12 -8 -17 -19q-5 11 -17 19zM185 175
l-11 93q-6 43 -34 76v-205h16q6 23 29 36zM418 344q-30 -35 -34 -76l-11 -93q23 -13 29 -36h16v205zM309 87q-21 39 -30 69q-9 -30 -30 -69q16 -4 30 -20q14 16 30 20zM208 68l-13 3q-14 5 -24.5 15.5t-14.5 24.5h-16v-83h63q0 18 5 40zM418 111h-16q-4 -14 -14.5 -24.5
t-24.5 -15.5l-13 -3q5 -22 5 -40h63v83zM256.5 51q-8.5 10 -21.5 11q-5 -18 -5 -34h35q0 13 -8.5 23zM323 62q-13 -1 -21.5 -11t-8.5 -23h35q0 16 -5 34zM234 0q7 -32 31 -59v59h-31zM324 0h-31v-59q24 27 31 59z" />
    <glyph glyph-name=".null" horiz-adv-x="0" 
 />
    <glyph glyph-name="nonmarkingreturn" unicode="&#xd;" horiz-adv-x="160" 
 />
    <glyph glyph-name="space" unicode=" " horiz-adv-x="160" 
 />
    <glyph glyph-name="exclam" unicode="!" horiz-adv-x="195" 
d="M52 380h90l-11 -242h-68zM144 94v-94h-94v94h94z" />
    <glyph glyph-name="quotedbl" unicode="&#x22;" horiz-adv-x="266" 
d="M30 380h82l-8 -148h-67zM154 380h82l-8 -148h-67z" />
    <glyph glyph-name="numbersign" unicode="#" 
d="M338 226h-57v-72h57v-74h-57v-80h-66v80h-70v-80h-66v80h-57v74h57v72h-57v74h57v80h66v-80h70v80h66v-80h57v-74zM215 154v72h-70v-72h70z" />
    <glyph glyph-name="dollar" unicode="$" horiz-adv-x="356" 
d="M293.5 32q-34.5 -31 -95.5 -36v-40h-41v39q-85 5 -140 55l48 58q39 -34 92 -42v93q-60 18 -92.5 42.5t-32.5 72.5q0 46 33.5 75.5t91.5 34.5v36h41v-36q67 -4 121 -47l-43 -59q-34 28 -78 36v-92q63 -17 96.5 -41t33.5 -69q0 -49 -34.5 -80zM120 251.5q12 -9.5 37 -17.5
v81q-24 -2 -36.5 -12.5t-12.5 -26.5q0 -15 12 -24.5zM247 106q0 14 -11 23.5t-38 17.5v-81q49 6 49 40z" />
    <glyph glyph-name="percent" unicode="%" horiz-adv-x="546" 
d="M52.5 186q-28.5 31 -28.5 84t28.5 84t77.5 31t77.5 -31t28.5 -84t-28.5 -84t-77.5 -31t-77.5 31zM421 380l-241 -380h-55l241 380h55zM163.5 224q12.5 17 12.5 46t-12.5 46t-33.5 17t-33.5 -17t-12.5 -46t12.5 -46t33.5 -17t33.5 17zM338.5 26q-28.5 31 -28.5 84t28.5 84
t77.5 31t77.5 -31t28.5 -84t-28.5 -84t-77.5 -31t-77.5 31zM449.5 64q12.5 17 12.5 46t-12.5 46t-33.5 17t-33.5 -17t-12.5 -46t12.5 -46t33.5 -17t33.5 17z" />
    <glyph glyph-name="ampersand" unicode="&#x26;" horiz-adv-x="482" 
d="M478 88q-3 -45 -25.5 -69t-61.5 -24q-24 0 -47 9t-52 30q-58 -39 -130 -39q-65 0 -103 29.5t-38 79.5q0 73 89 104q-20 25 -29 44.5t-9 39.5q0 41 32.5 67t84.5 26q55 0 87 -25.5t32 -63.5q0 -32 -24 -61t-67 -46q30 -29 70 -65q30 39 39 92l72 -16q-13 -65 -55 -119
q28 -19 43 -19q24 0 29 41zM157.5 314.5q-12.5 -11.5 -12.5 -29.5q0 -12 7 -24.5t23 -29.5q58 22 58 57q0 17 -12 27.5t-32 10.5q-19 0 -31.5 -11.5zM238 80q-24 22 -83 81q-53 -19 -53 -56q0 -20 18 -32.5t48 -12.5q38 0 70 20z" />
    <glyph glyph-name="quotesingle" unicode="'" horiz-adv-x="142" 
d="M30 380h82l-8 -148h-67z" />
    <glyph glyph-name="parenleft" unicode="(" horiz-adv-x="248" 
d="M82 23.5q-39 65.5 -39 147.5q0 83 39 148.5t108 97.5l34 -45q-46 -34 -70.5 -85.5t-24.5 -115.5t24.5 -115.5t70.5 -84.5l-34 -46q-69 33 -108 98.5z" />
    <glyph glyph-name="parenright" unicode=")" horiz-adv-x="230" 
d="M23 -29q46 33 70.5 84.5t24.5 115.5t-24.5 115.5t-70.5 85.5l34 45q69 -32 108 -97.5t39 -148.5q0 -82 -39 -147.5t-108 -98.5z" />
    <glyph glyph-name="asterisk" unicode="*" horiz-adv-x="250" 
d="M228 307l-65 -21l40 -55l-38 -27l-40 55l-40 -55l-38 27l40 56l-65 21l14 45l66 -21v68h46v-68l66 21z" />
    <glyph glyph-name="plus" unicode="+" 
d="M318 221v-62h-106v-107h-64v107h-106v62h106v107h64v-107h106z" />
    <glyph glyph-name="comma" unicode="," horiz-adv-x="180" 
d="M137 94v-76q0 -47 -21.5 -70.5t-58.5 -23.5h-14v42h9q18 0 26 8t10 26h-45v94h94z" />
    <glyph glyph-name="hyphen" unicode="-" horiz-adv-x="252" 
d="M35 207h182v-74h-182v74z" />
    <glyph glyph-name="period" unicode="." horiz-adv-x="180" 
d="M43 94h94v-94h-94v94z" />
    <glyph glyph-name="slash" unicode="/" horiz-adv-x="254" 
d="M202 400h72l-222 -420h-72z" />
    <glyph glyph-name="zero" unicode="0" 
d="M65.5 47.5q-42.5 52.5 -42.5 142.5t42.5 142.5t114.5 52.5t114.5 -52.5t42.5 -142.5t-42.5 -142.5t-114.5 -52.5t-114.5 52.5zM236 95q20 34 20 95t-20 95t-56 34t-56 -34t-20 -95t20 -95t56 -34t56 34z" />
    <glyph glyph-name="one" unicode="1" horiz-adv-x="251" 
d="M21 249v65h17q48 0 65.5 13.5t21.5 52.5h62v-380h-80v249h-86z" />
    <glyph glyph-name="two" unicode="2" horiz-adv-x="324" 
d="M301 67v-67h-283v52l135 116q34 29 48 52t14 47q0 23 -15.5 37.5t-40.5 14.5q-30 0 -47 -18.5t-18 -56.5l-75 11q4 61 43 96t102 34q58 -1 94.5 -31.5t36.5 -79.5q0 -43 -25 -77t-89 -87l-52 -43h172z" />
    <glyph glyph-name="three" unicode="3" horiz-adv-x="321" 
d="M267.5 198q28.5 -31 28.5 -78q0 -54 -40.5 -89.5t-103.5 -35.5q-52 0 -90.5 23t-56.5 65l60 35q13 -28 34.5 -43t49.5 -15q32 0 51 16.5t19 45.5q0 27 -17 43t-45 16q-19 0 -36 -9l-35 41l101 98h-164v69h259v-59l-89 -88q46 -4 74.5 -35z" />
    <glyph glyph-name="four" unicode="4" horiz-adv-x="344" 
d="M333 156v-68h-56v-88h-74v88h-187v66l164 226h97v-224h56zM96 156h107v147z" />
    <glyph glyph-name="five" unicode="5" horiz-adv-x="326" 
d="M264.5 215q36.5 -36 36.5 -90q0 -58 -41 -94t-107 -36q-45 0 -81 18.5t-56 50.5l51 43q13 -21 35 -33.5t48 -12.5q32 0 52 18t20 48t-18.5 48t-49.5 18q-40 0 -63 -31l-57 21l17 197h223v-72h-161l-7 -75q27 18 68 18q54 0 90.5 -36z" />
    <glyph glyph-name="six" unicode="6" horiz-adv-x="346" 
d="M292 213q35 -33 35 -89t-40 -92.5t-100 -36.5q-75 0 -115.5 52.5t-40.5 138.5q0 89 42 144t120 55q38 0 70.5 -13.5t53.5 -39.5l-55 -49q-10 17 -28.5 26.5t-39.5 9.5q-44 0 -67 -31.5t-25 -83.5q33 42 97 42q58 0 93 -33zM232.5 76q18.5 18 18.5 47t-18 46.5t-47 17.5
q-30 0 -49 -17.5t-19 -46.5t18.5 -47t48.5 -18q29 0 47.5 18z" />
    <glyph glyph-name="seven" unicode="7" horiz-adv-x="304" 
d="M292 380v-62q-57 -54 -89.5 -138.5t-32.5 -179.5h-80q0 86 32.5 169t85.5 139h-194v72h278z" />
    <glyph glyph-name="eight" unicode="8" horiz-adv-x="346" 
d="M302 158.5q17 -23.5 17 -54.5q0 -50 -39.5 -79.5t-106.5 -29.5t-106.5 29.5t-39.5 79.5q0 31 17 54.5t47 37.5q-26 13 -39.5 34t-13.5 48q0 49 36.5 78t98.5 29t98.5 -29t36.5 -78q0 -27 -13.5 -48t-39.5 -34q30 -14 47 -37.5zM127 311q-17 -14 -17 -38q0 -23 17 -37
t46 -14t46 14t17 37q0 24 -17 38t-46 14t-46 -14zM222.5 70q18.5 15 18.5 41q0 25 -18 39.5t-50 14.5t-50 -14.5t-18 -39.5q0 -26 18.5 -41t49.5 -15t49.5 15z" />
    <glyph glyph-name="nine" unicode="9" horiz-adv-x="346" 
d="M274.5 332.5q40.5 -52.5 40.5 -138.5q0 -89 -42 -144t-120 -55q-38 0 -70.5 13.5t-53.5 39.5l55 49q10 -17 28.5 -26.5t39.5 -9.5q44 0 67 31.5t25 83.5q-33 -42 -97 -42q-58 0 -93 33t-35 89t40 92.5t100 36.5q75 0 115.5 -52.5zM209 210.5q19 17.5 19 46.5t-18.5 47
t-48.5 18q-29 0 -47.5 -18t-18.5 -47t18 -46.5t47 -17.5q30 0 49 17.5z" />
    <glyph glyph-name="colon" unicode=":" horiz-adv-x="174" 
d="M40 94h94v-94h-94v94zM40 300h94v-94h-94v94z" />
    <glyph glyph-name="semicolon" unicode=";" horiz-adv-x="174" 
d="M134 94v-76q0 -47 -21.5 -70.5t-58.5 -23.5h-14v42h9q18 0 26 8t10 26h-45v94h94zM40 300h94v-94h-94v94z" />
    <glyph glyph-name="less" unicode="&#x3c;" 
d="M318 330v-67l-183 -72l183 -72v-69l-276 110v60z" />
    <glyph glyph-name="equal" unicode="=" 
d="M42 149h276v-62h-276v62zM42 293h276v-62h-276v62z" />
    <glyph glyph-name="greater" unicode="&#x3e;" 
d="M42 330l276 -110v-60l-276 -110v67l183 72l-183 72v69z" />
    <glyph glyph-name="question" unicode="?" horiz-adv-x="319" 
d="M130.5 176.5q9.5 16.5 40.5 41.5q23 19 30.5 29.5t7.5 26.5q0 21 -14 33t-37 12q-29 0 -47 -18.5t-21 -51.5l-74 13q6 56 44.5 89.5t98.5 33.5q58 0 94 -29t36 -76q0 -29 -13 -50.5t-44 -42.5q-21 -14 -30.5 -25.5t-9.5 -24.5v-3h-70q-1 26 8.5 42.5zM205 94v-94h-94v94
h94z" />
    <glyph glyph-name="at" unicode="@" horiz-adv-x="439" 
d="M420 69v-69q-12 -2 -29 -1q-29 0 -44 10.5t-19 33.5q-15 -21 -41 -33.5t-57 -12.5q-44 0 -71.5 24t-27.5 62q0 40 28 63.5t86 31.5q7 1 31.5 4t31 7.5t6.5 12.5q0 19 -23.5 32t-62.5 13q-65 0 -104.5 -39.5t-39.5 -104.5q0 -69 41 -108.5t112 -39.5q51 0 90 25l25 -51
q-52 -29 -114 -29q-98 0 -156 55t-58 148q0 59 26 105t73.5 71.5t109.5 25.5q68 0 113 -34.5t45 -87.5v-97q0 -17 17 -17h12zM293 75q21 17 21 42v27q-11 -5 -52 -12q-32 -5 -45.5 -15t-13.5 -27q0 -15 10.5 -23.5t28.5 -8.5q30 0 51 17z" />
    <glyph glyph-name="A" unicode="A" horiz-adv-x="412" 
d="M315 0l-27 75h-166l-27 -75h-90l148 380h106l148 -380h-92zM149 149h112l-56 156z" />
    <glyph glyph-name="B" unicode="B" horiz-adv-x="384" 
d="M345.5 158q14.5 -23 14.5 -54q0 -49 -34.5 -76.5t-95.5 -27.5h-179v380h178q58 0 91 -27t33 -74q0 -58 -49 -85q27 -13 41.5 -36zM133 311v-84h82q54 0 54 42t-54 42h-82zM275 115q0 46 -59 46h-83v-92h83q59 0 59 46z" />
    <glyph glyph-name="C" unicode="C" horiz-adv-x="391" 
d="M75 48.5q-51 53.5 -51 141.5t51.5 141.5t134.5 53.5q61 0 104 -29t60 -82l-81 -28q-21 67 -85 67q-44 0 -70 -33t-26 -90t25.5 -90t70.5 -33q64 0 85 67l81 -28q-16 -52 -59 -81.5t-105 -29.5q-84 0 -135 53.5z" />
    <glyph glyph-name="D" unicode="D" horiz-adv-x="415" 
d="M340.5 328.5q50.5 -51.5 50.5 -138.5q0 -85 -51.5 -137.5t-140.5 -52.5h-148v380h148q91 0 141.5 -51.5zM275.5 103q27.5 31 27.5 87t-27.5 87t-78.5 31h-60v-236h60q51 0 78.5 31z" />
    <glyph glyph-name="E" unicode="E" horiz-adv-x="351" 
d="M135 75h196v-75h-280v380h275v-75h-191v-74h146v-72h-146v-84z" />
    <glyph glyph-name="F" unicode="F" horiz-adv-x="338" 
d="M325 304h-188v-81h143v-72h-143v-151h-86v380h274v-76z" />
    <glyph glyph-name="G" unicode="G" horiz-adv-x="421" 
d="M387 198v-198h-63l-5 53q-40 -58 -119 -58t-127.5 53t-48.5 140q0 89 53 143t141 54q58 0 100 -26t62 -74l-79 -30q-11 27 -33.5 42.5t-52.5 15.5q-48 0 -75.5 -33t-27.5 -90q0 -58 26.5 -90.5t73.5 -32.5q34 0 58.5 18.5t34.5 53.5h-86v59h168z" />
    <glyph glyph-name="H" unicode="H" horiz-adv-x="430" 
d="M293 380h86v-380h-86v156h-156v-156h-86v380h86v-146h156v146z" />
    <glyph glyph-name="I" unicode="I" horiz-adv-x="188" 
d="M51 380h86v-380h-86v380z" />
    <glyph glyph-name="J" unicode="J" horiz-adv-x="298" 
d="M42 19.5q-33 24.5 -44 66.5l70 28q9 -46 51 -46q22 0 34.5 14.5t12.5 38.5v259h86v-257q0 -59 -35 -93.5t-95 -34.5q-47 0 -80 24.5z" />
    <glyph glyph-name="K" unicode="K" horiz-adv-x="409" 
d="M300 0l-113 170l-50 -50v-120h-86v380h86v-161l152 161h107l-148 -149l154 -231h-102z" />
    <glyph glyph-name="L" unicode="L" horiz-adv-x="338" 
d="M137 78h186v-78h-272v380h86v-302z" />
    <glyph glyph-name="M" unicode="M" horiz-adv-x="554" 
d="M503 380v-380h-84v268l-98 -268h-88l-98 268v-268h-84v380h126l101 -275l100 275h125z" />
    <glyph glyph-name="N" unicode="N" horiz-adv-x="436" 
d="M302 380h83v-380h-80l-171 242v-242h-83v380h81l170 -242v242z" />
    <glyph glyph-name="O" unicode="O" horiz-adv-x="426" 
d="M75.5 48.5q-51.5 53.5 -51.5 141.5t52 141.5t137 53.5q86 0 137.5 -53.5t51.5 -141.5t-52 -141.5t-137 -53.5q-86 0 -137.5 53.5zM286.5 102q27.5 33 27.5 88t-27.5 88t-73.5 33t-73.5 -33t-27.5 -88t27.5 -88t73.5 -33t73.5 33z" />
    <glyph glyph-name="P" unicode="P" horiz-adv-x="375" 
d="M319.5 347.5q38.5 -32.5 38.5 -89.5q0 -58 -38.5 -90t-106.5 -32h-77v-136h-85v380h162q68 0 106.5 -32.5zM253.5 217.5q17.5 13.5 17.5 38.5q0 52 -68 52h-67v-104h67q33 0 50.5 13.5z" />
    <glyph glyph-name="Q" unicode="Q" horiz-adv-x="426" 
d="M362 63q-40 -51 -107 -64v-13q0 -24 27 -24l46 1v-63q-30 -2 -52 -2q-50 0 -73.5 21.5t-23.5 69.5v8q-72 11 -113.5 62.5t-41.5 130.5q0 88 52 141.5t137 53.5q86 0 137.5 -53.5t51.5 -141.5q0 -76 -40 -127zM139.5 102q27.5 -33 73.5 -33t73.5 33t27.5 88t-27.5 88
t-73.5 33t-73.5 -33t-27.5 -88t27.5 -88z" />
    <glyph glyph-name="R" unicode="R" horiz-adv-x="397" 
d="M205 140h-69v-140h-85v380h168q68 0 105.5 -31.5t37.5 -87.5q0 -39 -18.5 -67t-53.5 -42l92 -152h-96zM136 207h77q62 0 62 51q0 50 -62 50h-77v-101z" />
    <glyph glyph-name="S" unicode="S" horiz-adv-x="348" 
d="M85 9.5q-43 14.5 -73 41.5l47 64q23 -23 54 -35t65 -12q32 0 50 10t18 28q0 16 -15 23t-59 20q-44 12 -73.5 24.5t-50.5 36.5t-21 62q0 52 41 82.5t111 30.5q81 0 145 -46l-46 -64q-21 17 -47.5 26.5t-54.5 9.5q-29 0 -46.5 -9.5t-17.5 -25.5q0 -15 18.5 -25t61.5 -22
t71.5 -23.5t49 -34.5t20.5 -59q0 -55 -41.5 -86t-115.5 -31q-48 0 -91 14.5z" />
    <glyph glyph-name="T" unicode="T" horiz-adv-x="362" 
d="M352 380v-78h-128v-302h-86v302h-128v78h342z" />
    <glyph glyph-name="U" unicode="U" horiz-adv-x="432" 
d="M91.5 38q-45.5 43 -45.5 115v227h86v-224q0 -41 22 -63t62 -22t62 22t22 63v224h86v-227q0 -72 -45.5 -115t-124.5 -43t-124.5 43z" />
    <glyph glyph-name="V" unicode="V" horiz-adv-x="401" 
d="M301 380h91l-136 -380h-111l-136 380h92l100 -299z" />
    <glyph glyph-name="W" unicode="W" horiz-adv-x="576" 
d="M476 380h86l-110 -380h-90l-75 262l-74 -262h-90l-109 380h88l70 -266l74 266h83l74 -264z" />
    <glyph glyph-name="X" unicode="X" horiz-adv-x="391" 
d="M384 0h-97l-92 133l-90 -133h-98l138 195l-131 185h98l85 -122l85 122h95l-131 -185z" />
    <glyph glyph-name="Y" unicode="Y" horiz-adv-x="390" 
d="M387 380l-149 -232v-148h-86v149l-149 231h98l95 -154l95 154h96z" />
    <glyph glyph-name="Z" unicode="Z" horiz-adv-x="353" 
d="M331 380v-63l-200 -240h200v-77h-311v63l200 240h-189v77h300z" />
    <glyph glyph-name="bracketleft" unicode="[" horiz-adv-x="248" 
d="M211 330h-82v-320h82v-70h-160v460h160v-70z" />
    <glyph glyph-name="backslash" unicode="\" horiz-adv-x="254" 
d="M274 -20h-72l-222 420h72z" />
    <glyph glyph-name="bracketright" unicode="]" horiz-adv-x="240" 
d="M209 400v-460h-160v70h82v320h-82v70h160z" />
    <glyph glyph-name="asciicircum" unicode="^" 
d="M315 190h-69l-66 132l-67 -132h-68l98 190h74z" />
    <glyph glyph-name="underscore" unicode="_" horiz-adv-x="280" 
d="M270 13v-73h-260v73h260z" />
    <glyph glyph-name="grave" unicode="`" horiz-adv-x="160" 
d="M51 324l-61 79h86l30 -79h-55z" />
    <glyph glyph-name="a" unicode="a" horiz-adv-x="332" 
d="M313 69v-69q-12 -2 -29 -2q-28 0 -43.5 11t-19.5 34q-16 -22 -43.5 -35t-60.5 -13q-44 0 -71 24t-27 63q0 52 36 72t93 27q30 4 45.5 9.5t15.5 17.5q0 14 -14.5 23t-39.5 9q-47 0 -82 -35l-48 49q54 51 135 51q58 0 91 -27t33 -74v-118q0 -17 17 -17h12zM186 75
q21 17 21 42v26q-8 -5 -21.5 -8t-29.5 -6q-30 -5 -45 -12.5t-15 -26.5q0 -15 10 -23.5t29 -8.5q30 0 51 17z" />
    <glyph glyph-name="b" unicode="b" horiz-adv-x="362" 
d="M307 263q35 -42 35 -113q0 -70 -35.5 -112.5t-92.5 -42.5q-30 0 -55 12t-42 34l-4 -41h-72v400h80v-137q36 42 93 42q58 0 93 -42zM242 85q19 24 19 65t-19 65t-53 24t-52.5 -23.5t-18.5 -65.5t18.5 -65.5t52.5 -23.5t53 24z" />
    <glyph glyph-name="c" unicode="c" horiz-adv-x="325" 
d="M62.5 37.5q-42.5 42.5 -42.5 112.5t42.5 112.5t112.5 42.5q52 0 89 -24t50 -66l-76 -23q-17 47 -64 47q-33 0 -52.5 -24t-19.5 -65t19.5 -65t52.5 -24q47 0 64 47l76 -23q-13 -42 -50 -66t-89 -24q-70 0 -112.5 42.5z" />
    <glyph glyph-name="d" unicode="d" horiz-adv-x="362" 
d="M321 400v-400h-72l-4 42q-36 -47 -97 -47q-58 0 -93 42t-35 113q0 70 35.5 112.5t92.5 42.5q56 0 93 -40v135h80zM225.5 84.5q18.5 23.5 18.5 65.5t-18.5 65.5t-52.5 23.5t-53 -24t-19 -65t19 -65t53 -24t52.5 23.5z" />
    <glyph glyph-name="e" unicode="e" horiz-adv-x="340" 
d="M125.5 77.5q20.5 -16.5 52.5 -16.5q51 0 82 34l49 -48q-49 -52 -132 -52q-76 0 -116.5 43t-40.5 112t41.5 112t110.5 43q68 0 108.5 -42t40.5 -113q0 -12 -3 -26h-219q6 -30 26.5 -46.5zM125.5 225.5q-18.5 -15.5 -25.5 -43.5h141q-6 29 -23.5 44t-45.5 15t-46.5 -15.5z
" />
    <glyph glyph-name="f" unicode="f" horiz-adv-x="247" 
d="M152 300h84v-66h-83v-234h-80v234h-61v66h61v11q0 45 28.5 72.5t76.5 27.5q53 0 94 -27l-37 -58q-27 19 -55 19q-13 0 -20.5 -8.5t-7.5 -23.5v-13z" />
    <glyph glyph-name="g" unicode="g" horiz-adv-x="362" 
d="M321 300v-260q0 -67 -41 -106t-115 -39q-84 0 -128 39l36 57q38 -30 90 -30q42 0 62 20.5t20 56.5v21q-37 -43 -96 -43q-58 0 -93.5 40t-35.5 105t35.5 104.5t93.5 39.5q60 0 97 -43l3 38h72zM225.5 99q18.5 22 18.5 60t-18.5 59t-52.5 21q-33 0 -52.5 -21.5t-19.5 -58.5
q0 -38 19.5 -60t52.5 -22q34 0 52.5 22z" />
    <glyph glyph-name="h" unicode="h" 
d="M294 273.5q30 -31.5 30 -83.5v-190h-80v172q0 32 -14.5 49.5t-39.5 17.5q-29 0 -49 -19t-20 -49v-171h-80v400h80v-136q17 19 41.5 30t53.5 11q48 0 78 -31.5z" />
    <glyph glyph-name="i" unicode="i" horiz-adv-x="172" 
d="M46 300h80v-300h-80v300zM43 406h86v-68h-86v68z" />
    <glyph glyph-name="j" unicode="j" horiz-adv-x="170" 
d="M0 -100v71q8 -1 24 -1q11 0 18 6.5t7 18.5v305h80v-304q0 -51 -24 -74.5t-72 -23.5q-11 0 -33 2zM46 406h86v-68h-86v68z" />
    <glyph glyph-name="k" unicode="k" horiz-adv-x="343" 
d="M245 0l-85 127l-39 -38v-89h-80v400h80v-220l114 120h100l-119 -118l123 -182h-94z" />
    <glyph glyph-name="l" unicode="l" horiz-adv-x="162" 
d="M41 400h80v-400h-80v400z" />
    <glyph glyph-name="m" unicode="m" horiz-adv-x="550" 
d="M485 273.5q29 -31.5 29 -83.5v-190h-80v172q0 32 -13 49.5t-38 17.5q-29 0 -47.5 -19t-18.5 -49v-171h-80v172q0 33 -13 50t-38 17q-29 0 -47 -19t-18 -49v-171h-80v300h72l3 -40q17 21 42 33t55 12q31 0 55 -14.5t36 -40.5q16 26 43.5 40.5t61.5 14.5q47 0 76 -31.5z
" />
    <glyph glyph-name="n" unicode="n" 
d="M294 273.5q30 -31.5 30 -83.5v-190h-80v172q0 32 -14 49.5t-40 17.5q-29 0 -49 -19t-20 -49v-171h-80v300h72l3 -42q18 22 44 34.5t56 12.5q48 0 78 -31.5z" />
    <glyph glyph-name="o" unicode="o" horiz-adv-x="354" 
d="M63 37.5q-43 42.5 -43 112.5t43 112.5t114 42.5t114 -42.5t43 -112.5t-43 -112.5t-114 -42.5t-114 42.5zM232 84.5q20 23.5 20 65.5t-20 65.5t-55 23.5t-55 -23.5t-20 -65.5t20 -65.5t55 -23.5t55 23.5z" />
    <glyph glyph-name="p" unicode="p" horiz-adv-x="362" 
d="M307 263q35 -42 35 -113q0 -70 -35.5 -112.5t-92.5 -42.5q-56 0 -93 40v-135h-80v400h72l4 -42q36 47 97 47q58 0 93 -42zM242 85q19 24 19 65t-19 65t-53 24t-52.5 -23.5t-18.5 -65.5t18.5 -65.5t52.5 -23.5t53 24z" />
    <glyph glyph-name="q" unicode="q" horiz-adv-x="362" 
d="M321 300v-400h-80v137q-36 -42 -93 -42q-58 0 -93 42t-35 113q0 70 35.5 112.5t92.5 42.5q30 0 55 -12t42 -34l4 41h72zM225.5 84.5q18.5 23.5 18.5 65.5t-18.5 65.5t-52.5 23.5t-53 -24t-19 -65t19 -65t53 -24t52.5 23.5z" />
    <glyph glyph-name="r" unicode="r" horiz-adv-x="254" 
d="M243 301l-1 -74q-25 3 -48 3q-34 0 -53.5 -17t-19.5 -50v-163h-80v300h72l4 -45q15 23 41 36t58 13q14 0 27 -3z" />
    <glyph glyph-name="s" unicode="s" horiz-adv-x="288" 
d="M68 7q-36 12 -60 33l41 57q38 -35 98 -35q22 0 36 6t14 17q0 10 -12.5 16.5t-49.5 15.5q-59 14 -86 37t-27 59q0 42 34 67t92 25q64 0 121 -37l-41 -58q-20 15 -41 22t-46 7q-20 0 -31.5 -6t-11.5 -17t11.5 -17.5t43.5 -13.5q66 -16 93.5 -38t27.5 -59q0 -44 -34 -68.5
t-96 -24.5q-40 0 -76 12z" />
    <glyph glyph-name="t" unicode="t" horiz-adv-x="256" 
d="M150 234v-131q0 -19 9.5 -27t28.5 -8q28 0 48 5v-71q-29 -8 -66 -8q-48 0 -74 23t-26 67v150h-60v66h60l8 80h72v-80h86v-66h-86z" />
    <glyph glyph-name="u" unicode="u" 
d="M319 300v-300h-72l-3 42q-18 -22 -44 -34.5t-56 -12.5q-48 0 -78 31.5t-30 83.5v190h80v-172q0 -32 14 -49.5t40 -17.5q29 0 49 19t20 49v171h80z" />
    <glyph glyph-name="v" unicode="v" horiz-adv-x="341" 
d="M249 300h85l-114 -300h-99l-114 300h87l78 -222z" />
    <glyph glyph-name="w" unicode="w" horiz-adv-x="487" 
d="M394 300h81l-88 -300h-89l-55 192l-53 -192h-89l-89 300h83l55 -216l57 216h73l59 -219z" />
    <glyph glyph-name="x" unicode="x" horiz-adv-x="340" 
d="M331 0h-93l-68 97l-68 -97h-93l110 152l-105 148h91l66 -95l67 95h89l-105 -149z" />
    <glyph glyph-name="y" unicode="y" horiz-adv-x="343" 
d="M337 300l-104 -300q-37 -105 -118 -105q-51 0 -75 27.5t-27 67.5l75 13q2 -39 29 -39q17 0 30 21l-141 315h88l91 -226l68 226h84z" />
    <glyph glyph-name="z" unicode="z" horiz-adv-x="300" 
d="M121 67h158v-67h-261v60l157 174h-148v66h250v-60z" />
    <glyph glyph-name="braceleft" unicode="{" horiz-adv-x="248" 
d="M113 170q37 -18 37 -72v-71q0 -8 4.5 -12.5t12.5 -4.5h41v-70h-64q-34 0 -53 18.5t-19 53.5v85q0 21 -6.5 29.5t-20.5 8.5h-15v70h15q14 0 20.5 9t6.5 29v85q0 35 19 53.5t53 18.5h64v-70h-41q-8 0 -12.5 -4.5t-4.5 -12.5v-71q0 -53 -37 -72z" />
    <glyph glyph-name="bar" unicode="|" horiz-adv-x="180" 
d="M51 400h78v-460h-78v460z" />
    <glyph glyph-name="braceright" unicode="}" horiz-adv-x="230" 
d="M190 205v-70h-15q-14 0 -20.5 -8.5t-6.5 -29.5v-85q0 -35 -18.5 -53.5t-53.5 -18.5h-64v70h41q8 0 12.5 4.5t4.5 12.5v71q0 54 37 72q-37 19 -37 72v71q0 8 -4.5 12.5t-12.5 4.5h-41v70h64q35 0 53.5 -18.5t18.5 -53.5v-85q0 -20 6.5 -29t20.5 -9h15z" />
    <glyph glyph-name="asciitilde" unicode="~" 
d="M58.5 220q24.5 22 60.5 22q20 0 34.5 -5.5t36.5 -17.5q16 -9 27 -13.5t24 -4.5t26 10t22 28l48 -32q-10 -24 -35 -46t-61 -22q-20 0 -34.5 5.5t-36.5 17.5q-16 9 -27 13.5t-24 4.5t-26 -10t-22 -28l-48 32q11 24 35.5 46z" />
    <glyph glyph-name="exclamdown" unicode="&#xa1;" horiz-adv-x="195" 
d="M50 206v94h94v-94h-94zM63 162h68l11 -242h-90z" />
    <glyph glyph-name="cent" unicode="&#xa2;" horiz-adv-x="326" 
d="M244 150l71 -22q-11 -39 -43 -63t-78 -29v-36h-45v37q-59 8 -94 49t-35 104t35 104t94 49v37h45v-36q46 -5 78 -29t43 -63l-72 -22q-14 38 -49 47v-174q36 9 50 47zM111 135q14 -22 38 -30v170q-24 -8 -38 -30t-14 -55t14 -55z" />
    <glyph glyph-name="sterling" unicode="&#xa3;" 
d="M346 101q-1 -56 -23 -81t-64 -25q-28 0 -52.5 11.5t-51.5 32.5q-14 -20 -34 -32t-43 -12q-34 0 -54 18.5t-20 48.5q0 31 20.5 49t54.5 18q14 0 34 -4q-2 17 -12 43h-70v44h46q-9 18 -14 34t-5 35q0 47 35 75.5t94 28.5q55 0 89.5 -27t41.5 -72l-73 -21q-4 27 -19.5 41
t-39.5 14q-22 0 -36 -12.5t-14 -34.5q0 -13 5 -27t14 -34h87v-44h-69q7 -24 7 -48q0 -10 -2 -26q26 -17 40.5 -24t30.5 -7q15 0 20.5 12t6.5 34zM98 51.5q9 7.5 13 21.5q-17 11 -33 11q-12 0 -19 -5.5t-7 -15.5q0 -9 7 -14t17 -5q13 0 22 7.5z" />
    <glyph glyph-name="currency" unicode="&#xa4;" 
d="M284 126l52 -52l-40 -40l-52 52q-29 -18 -64 -18t-64 18l-52 -52l-40 40l52 52q-18 29 -18 64t18 64l-52 52l40 40l52 -52q29 18 64 18t64 -18l52 52l40 -40l-52 -52q18 -29 18 -64t-18 -64zM140.5 150.5q16.5 -16.5 39.5 -16.5t39.5 16.5t16.5 39.5t-16.5 39.5
t-39.5 16.5t-39.5 -16.5t-16.5 -39.5t16.5 -39.5z" />
    <glyph glyph-name="yen" unicode="&#xa5;" horiz-adv-x="391" 
d="M386 380l-122 -190h49v-44h-76v-36h76v-44h-76v-66h-86v66h-73v44h73v36h-73v44h47l-123 190h98l95 -154l95 154h96z" />
    <glyph glyph-name="brokenbar" unicode="&#xa6;" horiz-adv-x="180" 
d="M51 400h78v-180h-78v180zM129 -60h-78v180h78v-180z" />
    <glyph glyph-name="section" unicode="&#xa7;" horiz-adv-x="317" 
d="M287 25q0 -42 -35 -66t-97 -24q-38 0 -74.5 12t-61.5 34l39 55q20 -18 46.5 -27.5t53.5 -9.5q56 0 56 27q0 13 -16.5 21t-56.5 17q-60 15 -89 36t-29 60q0 47 56 71q-44 21 -44 67q0 40 33.5 63.5t92.5 23.5q64 0 119 -37l-38 -57q-40 30 -86 30q-21 0 -35 -7t-14 -20
q0 -15 13 -20.5t53 -15.5q56 -12 90 -31t34 -63q0 -49 -54 -72q44 -23 44 -67zM209 131.5q16 8.5 16 26.5q0 19 -22 29t-52 10q-24 0 -40 -8.5t-16 -26.5q0 -19 22.5 -29t51.5 -10q24 0 40 8.5z" />
    <glyph glyph-name="dieresis" unicode="&#xa8;" horiz-adv-x="160" 
d="M-19 406h82v-68h-82v68zM97 406h82v-68h-82v68z" />
    <glyph glyph-name="copyright" unicode="&#xa9;" horiz-adv-x="438" 
d="M118.5 20q-44.5 25 -69.5 69.5t-25 100.5t25 100.5t69.5 69.5t100.5 25t100.5 -25t69.5 -69.5t25 -100.5t-25 -100.5t-69.5 -69.5t-100.5 -25t-100.5 25zM327.5 80q42.5 43 42.5 110t-42.5 110t-108.5 43t-108.5 -43t-42.5 -110t42.5 -110t108.5 -43t108.5 43zM146.5 113
q-28.5 29 -28.5 77t28.5 77t76.5 29q34 0 59 -16.5t33 -45.5l-57 -19q-9 28 -36 28q-20 0 -32 -14t-12 -39t12 -39t32 -14q27 0 36 28l57 -19q-8 -29 -33 -45.5t-59 -16.5q-48 0 -76.5 29z" />
    <glyph glyph-name="guillemotleft" unicode="&#xab;" horiz-adv-x="335" 
d="M153 293v-82l-59 -40l59 -41v-83l-126 85v76zM298 293v-82l-59 -40l59 -41v-83l-126 85v76z" />
    <glyph glyph-name="logicalnot" unicode="&#xac;" 
d="M318 221v-173h-64v111h-212v62h276z" />
    <glyph glyph-name="registered" unicode="&#xae;" horiz-adv-x="268" 
d="M206 357q28 -28 28 -72q0 -43 -28 -71.5t-72 -28.5q-43 0 -71.5 28.5t-28.5 71.5q0 44 28.5 72t71.5 28q44 0 72 -28zM186 233.5q20 20.5 20 51.5q0 32 -20 52t-52 20q-31 0 -51.5 -20t-20.5 -52q0 -31 20.5 -51.5t51.5 -20.5q32 0 52 20.5zM179 260h1v-25h-15
q-10 0 -15.5 5.5t-5.5 15.5v3q0 8 -8 8h-14v-32h-30v102h50q16 0 26.5 -8.5t10.5 -22.5q0 -19 -15 -25q10 -3 10 -15v-1q0 -5 5 -5zM122 308v-15h16q10 0 10 8q0 7 -10 7h-16z" />
    <glyph glyph-name="macron" unicode="&#xaf;" horiz-adv-x="160" 
d="M-6 400h172v-58h-172v58z" />
    <glyph glyph-name="degree" unicode="&#xb0;" horiz-adv-x="250" 
d="M60.5 231q-26.5 26 -26.5 64t26.5 64t64.5 26t64.5 -26t26.5 -64t-26.5 -64t-64.5 -26t-64.5 26zM154 265q12 12 12 30t-12 30t-29 12t-29 -12t-12 -30t12 -30t29 -12t29 12z" />
    <glyph glyph-name="plusminus" unicode="&#xb1;" 
d="M318 258v-62h-106v-107h-64v107h-106v62h106v107h64v-107h106zM42 53h276v-62h-276v62z" />
    <glyph glyph-name="uni00B2" unicode="&#xb2;" horiz-adv-x="234" 
d="M215 286v-50h-188v41l88 60q17 12 27 25.5t10 26.5q0 12 -8.5 19t-23.5 7q-18 0 -28.5 -10t-10.5 -27l-54 7q2 35 27.5 56.5t68.5 21.5q39 0 63 -18.5t24 -49.5q0 -23 -16.5 -44.5t-59.5 -51.5l-18 -13h99z" />
    <glyph glyph-name="uni00B3" unicode="&#xb3;" horiz-adv-x="234" 
d="M191.5 352q17.5 -18 17.5 -44q0 -33 -26.5 -54t-69.5 -21q-35 0 -60.5 14.5t-36.5 40.5l42 26q8 -15 22.5 -24t32.5 -9t28.5 8.5t10.5 22.5q0 13 -9.5 20t-23.5 7t-26 -6l-23 29l58 48h-99v50h171v-44l-54 -43q28 -3 45.5 -21z" />
    <glyph glyph-name="acute" unicode="&#xb4;" horiz-adv-x="160" 
d="M84 403h86l-61 -79h-55z" />
    <glyph glyph-name="paragraph" unicode="&#xb6;" horiz-adv-x="421" 
d="M240 -100h-81v256h-5q-59 0 -93.5 30.5t-34.5 81.5t34.5 81.5t93.5 30.5h86v-480zM289 380h81v-480h-81v480z" />
    <glyph glyph-name="periodcentered" unicode="&#xb7;" horiz-adv-x="180" 
d="M43 217h94v-94h-94v94z" />
    <glyph glyph-name="cedilla" unicode="&#xb8;" horiz-adv-x="160" 
d="M144 -29q15 -12 15 -31q0 -22 -20 -36t-52 -14q-39 0 -67 19l20 34q19 -15 44 -15q12 0 19 3.5t7 8.5t-5 8.5t-13 3.5q-13 0 -19 -6l-31 16l28 46h45l-16 -25h7q23 0 38 -12z" />
    <glyph glyph-name="uni00B9" unicode="&#xb9;" horiz-adv-x="190" 
d="M87 236v139h-62v46h18q31 0 42.5 8t13.5 31h45v-224h-57z" />
    <glyph glyph-name="guillemotright" unicode="&#xbb;" horiz-adv-x="335" 
d="M37 210v83l126 -85v-76l-126 -85v82l59 40zM182 293l126 -85v-76l-126 -85v82l59 40l-59 41v83z" />
    <glyph glyph-name="onequarter" unicode="&#xbc;" horiz-adv-x="444" 
d="M87 156v139h-62v46h18q31 0 42.5 8t13.5 31h45v-224h-57zM309 380h55l-241 -380h-55zM432 97v-49h-35v-48h-54v48h-119v46l104 130h69v-127h35zM282 97h61v76z" />
    <glyph glyph-name="onehalf" unicode="&#xbd;" horiz-adv-x="444" 
d="M87 156v139h-62v46h18q31 0 42.5 8t13.5 31h45v-224h-57zM293 380h55l-241 -380h-55zM425 50v-50h-188v41l88 60q17 12 27 25.5t10 26.5q0 12 -8.5 19t-23.5 7q-18 0 -28.5 -10t-10.5 -27l-54 7q2 35 27.5 56.5t68.5 21.5q39 0 63 -18.5t24 -49.5q0 -23 -16.5 -44.5
t-59.5 -51.5l-18 -13h99z" />
    <glyph glyph-name="threequarters" unicode="&#xbe;" horiz-adv-x="488" 
d="M191.5 272q17.5 -18 17.5 -44q0 -33 -26.5 -54t-69.5 -21q-35 0 -60.5 14.5t-36.5 40.5l42 26q8 -15 22.5 -24t32.5 -9t28.5 8.5t10.5 22.5q0 13 -9.5 20t-23.5 7t-26 -6l-23 29l58 48h-99v50h171v-44l-54 -43q28 -3 45.5 -21zM350 380h55l-241 -380h-55zM476 97v-49h-35
v-48h-54v48h-119v46l104 130h69v-127h35zM326 97h61v76z" />
    <glyph glyph-name="questiondown" unicode="&#xbf;" horiz-adv-x="319" 
d="M114 300h94v-94h-94v94zM188.5 123.5q-9.5 -16.5 -40.5 -41.5q-23 -19 -30.5 -29.5t-7.5 -26.5q0 -21 14 -33t37 -12q29 0 47 18.5t21 51.5l74 -13q-6 -56 -44.5 -89.5t-98.5 -33.5q-59 0 -94.5 29t-35.5 76q0 29 13 50.5t44 42.5q21 14 30.5 25.5t9.5 24.5v3h70
q1 -26 -8.5 -42.5z" />
    <glyph glyph-name="Agrave" unicode="&#xc0;" horiz-adv-x="412" 
d="M315 0l-27 75h-166l-27 -75h-90l148 380h106l148 -380h-92zM149 149h112l-56 156zM177 404l-61 79h86l30 -79h-55z" />
    <glyph glyph-name="Aacute" unicode="&#xc1;" horiz-adv-x="412" 
d="M315 0l-27 75h-166l-27 -75h-90l148 380h106l148 -380h-92zM149 149h112l-56 156zM210 483h86l-61 -79h-55z" />
    <glyph glyph-name="Acircumflex" unicode="&#xc2;" horiz-adv-x="412" 
d="M315 0l-27 75h-166l-27 -75h-90l148 380h106l148 -380h-92zM149 149h112l-56 156zM311 404h-66l-37 38l-38 -38h-66l65 79h78z" />
    <glyph glyph-name="Atilde" unicode="&#xc3;" horiz-adv-x="412" 
d="M315 0l-27 75h-166l-27 -75h-90l148 380h106l148 -380h-92zM149 149h112l-56 156zM284 421q-18 -14 -40 -14q-18 0 -42 15q-2 1 -9.5 5.5t-14.5 4.5q-19 0 -27 -24l-45 23q8 26 25.5 40t39.5 14q18 0 42 -15q2 -1 9.5 -5.5t14.5 -4.5q19 0 27 24l45 -23q-7 -26 -25 -40z
" />
    <glyph glyph-name="Adieresis" unicode="&#xc4;" horiz-adv-x="412" 
d="M315 0l-27 75h-166l-27 -75h-90l148 380h106l148 -380h-92zM149 149h112l-56 156zM107 486h82v-68h-82v68zM223 486h82v-68h-82v68z" />
    <glyph glyph-name="Aring" unicode="&#xc5;" horiz-adv-x="412" 
d="M288 75h-166l-27 -75h-90l148 379q-22 20 -22 54q0 32 21.5 53t53.5 21t53.5 -21t21.5 -53q0 -34 -22 -54l148 -379h-92zM186 453q-8 -8 -8 -20q0 -13 8 -21t20 -8t20 8t8 21q0 12 -8 20t-20 8t-20 -8zM149 149h112l-56 156z" />
    <glyph glyph-name="AE" unicode="&#xc6;" horiz-adv-x="510" 
d="M351 75h139v-75h-201l-27 78h-144l-26 -78h-87l136 380h344v-75h-216l27 -75h146v-70h-121zM141 146h98l-49 145z" />
    <glyph glyph-name="Ccedilla" unicode="&#xc7;" horiz-adv-x="391" 
d="M293 134l81 -28q-14 -47 -51 -76t-90 -34l-8 -13h7q23 0 38 -12t15 -31q0 -22 -20 -36t-52 -14q-39 0 -67 19l20 34q19 -15 44 -15q12 0 19 3.5t7 8.5t-5 8.5t-13 3.5q-13 0 -19 -6l-31 16l21 34q-75 7 -120 59.5t-45 134.5q0 88 51.5 141.5t134.5 53.5q61 0 104 -29
t60 -82l-81 -28q-21 67 -85 67q-44 0 -70 -33t-26 -90t25.5 -90t70.5 -33q64 0 85 67z" />
    <glyph glyph-name="Egrave" unicode="&#xc8;" horiz-adv-x="351" 
d="M135 75h196v-75h-280v380h275v-75h-191v-74h146v-72h-146v-84zM164 404l-61 79h86l30 -79h-55z" />
    <glyph glyph-name="Eacute" unicode="&#xc9;" horiz-adv-x="351" 
d="M135 75h196v-75h-280v380h275v-75h-191v-74h146v-72h-146v-84zM197 483h86l-61 -79h-55z" />
    <glyph glyph-name="Ecircumflex" unicode="&#xca;" horiz-adv-x="351" 
d="M135 75h196v-75h-280v380h275v-75h-191v-74h146v-72h-146v-84zM298 404h-66l-37 38l-38 -38h-66l65 79h78z" />
    <glyph glyph-name="Edieresis" unicode="&#xcb;" horiz-adv-x="351" 
d="M135 75h196v-75h-280v380h275v-75h-191v-74h146v-72h-146v-84zM94 486h82v-68h-82v68zM210 486h82v-68h-82v68z" />
    <glyph glyph-name="Igrave" unicode="&#xcc;" horiz-adv-x="188" 
d="M51 380h86v-380h-86v380zM65 404l-61 79h86l30 -79h-55z" />
    <glyph glyph-name="Iacute" unicode="&#xcd;" horiz-adv-x="188" 
d="M51 380h86v-380h-86v380zM98 483h86l-61 -79h-55z" />
    <glyph glyph-name="Icircumflex" unicode="&#xce;" horiz-adv-x="188" 
d="M51 380h86v-380h-86v380zM199 404h-66l-37 38l-38 -38h-66l65 79h78z" />
    <glyph glyph-name="Idieresis" unicode="&#xcf;" horiz-adv-x="188" 
d="M51 380h86v-380h-86v380zM-5 486h82v-68h-82v68zM111 486h82v-68h-82v68z" />
    <glyph glyph-name="Eth" unicode="&#xd0;" horiz-adv-x="415" 
d="M340.5 328.5q50.5 -51.5 50.5 -138.5q0 -85 -51.5 -137.5t-140.5 -52.5h-148v167h-41v56h41v157h148q91 0 141.5 -51.5zM275.5 103q27.5 31 27.5 87t-27.5 87t-78.5 31h-60v-85h68v-56h-68v-95h60q51 0 78.5 31z" />
    <glyph glyph-name="Ntilde" unicode="&#xd1;" horiz-adv-x="436" 
d="M302 380h83v-380h-80l-171 242v-242h-83v380h81l170 -242v242zM301 421q-18 -14 -40 -14q-18 0 -42 15q-2 1 -9.5 5.5t-14.5 4.5q-19 0 -27 -24l-45 23q8 26 25.5 40t39.5 14q18 0 42 -15q2 -1 9.5 -5.5t14.5 -4.5q19 0 27 24l45 -23q-7 -26 -25 -40z" />
    <glyph glyph-name="Ograve" unicode="&#xd2;" horiz-adv-x="426" 
d="M75.5 48.5q-51.5 53.5 -51.5 141.5t52 141.5t137 53.5q86 0 137.5 -53.5t51.5 -141.5t-52 -141.5t-137 -53.5q-86 0 -137.5 53.5zM286.5 102q27.5 33 27.5 88t-27.5 88t-73.5 33t-73.5 -33t-27.5 -88t27.5 -88t73.5 -33t73.5 33zM184 404l-61 79h86l30 -79h-55z" />
    <glyph glyph-name="Oacute" unicode="&#xd3;" horiz-adv-x="426" 
d="M75.5 48.5q-51.5 53.5 -51.5 141.5t52 141.5t137 53.5q86 0 137.5 -53.5t51.5 -141.5t-52 -141.5t-137 -53.5q-86 0 -137.5 53.5zM286.5 102q27.5 33 27.5 88t-27.5 88t-73.5 33t-73.5 -33t-27.5 -88t27.5 -88t73.5 -33t73.5 33zM217 483h86l-61 -79h-55z" />
    <glyph glyph-name="Ocircumflex" unicode="&#xd4;" horiz-adv-x="426" 
d="M75.5 48.5q-51.5 53.5 -51.5 141.5t52 141.5t137 53.5q86 0 137.5 -53.5t51.5 -141.5t-52 -141.5t-137 -53.5q-86 0 -137.5 53.5zM286.5 102q27.5 33 27.5 88t-27.5 88t-73.5 33t-73.5 -33t-27.5 -88t27.5 -88t73.5 -33t73.5 33zM318 404h-66l-37 38l-38 -38h-66l65 79
h78z" />
    <glyph glyph-name="Otilde" unicode="&#xd5;" horiz-adv-x="426" 
d="M75.5 48.5q-51.5 53.5 -51.5 141.5t52 141.5t137 53.5q86 0 137.5 -53.5t51.5 -141.5t-52 -141.5t-137 -53.5q-86 0 -137.5 53.5zM286.5 102q27.5 33 27.5 88t-27.5 88t-73.5 33t-73.5 -33t-27.5 -88t27.5 -88t73.5 -33t73.5 33zM291 421q-18 -14 -40 -14q-18 0 -42 15
q-2 1 -9.5 5.5t-14.5 4.5q-19 0 -27 -24l-45 23q8 26 25.5 40t39.5 14q18 0 42 -15q2 -1 9.5 -5.5t14.5 -4.5q19 0 27 24l45 -23q-7 -26 -25 -40z" />
    <glyph glyph-name="Odieresis" unicode="&#xd6;" horiz-adv-x="426" 
d="M75.5 48.5q-51.5 53.5 -51.5 141.5t52 141.5t137 53.5q86 0 137.5 -53.5t51.5 -141.5t-52 -141.5t-137 -53.5q-86 0 -137.5 53.5zM286.5 102q27.5 33 27.5 88t-27.5 88t-73.5 33t-73.5 -33t-27.5 -88t27.5 -88t73.5 -33t73.5 33zM114 486h82v-68h-82v68zM230 486h82v-68
h-82v68z" />
    <glyph glyph-name="multiply" unicode="&#xd7;" 
d="M310 276l-86 -86l86 -86l-44 -44l-86 86l-86 -86l-44 44l86 86l-86 86l44 44l86 -86l86 86z" />
    <glyph glyph-name="Oslash" unicode="&#xd8;" horiz-adv-x="426" 
d="M357 324q45 -51 45 -134q0 -88 -52 -141.5t-137 -53.5q-53 0 -95 22l-17 -22h-79l47 61q-45 51 -45 134q0 88 52 141.5t137 53.5q53 0 95 -22l17 22h79zM124 127l135 173q-20 11 -46 11q-46 0 -73.5 -33t-27.5 -88q0 -36 12 -63zM302 253l-135 -173q20 -11 46 -11
q46 0 73.5 33t27.5 88q0 36 -12 63z" />
    <glyph glyph-name="Ugrave" unicode="&#xd9;" horiz-adv-x="432" 
d="M91.5 38q-45.5 43 -45.5 115v227h86v-224q0 -41 22 -63t62 -22t62 22t22 63v224h86v-227q0 -72 -45.5 -115t-124.5 -43t-124.5 43zM187 404l-61 79h86l30 -79h-55z" />
    <glyph glyph-name="Uacute" unicode="&#xda;" horiz-adv-x="432" 
d="M91.5 38q-45.5 43 -45.5 115v227h86v-224q0 -41 22 -63t62 -22t62 22t22 63v224h86v-227q0 -72 -45.5 -115t-124.5 -43t-124.5 43zM220 483h86l-61 -79h-55z" />
    <glyph glyph-name="Ucircumflex" unicode="&#xdb;" horiz-adv-x="432" 
d="M91.5 38q-45.5 43 -45.5 115v227h86v-224q0 -41 22 -63t62 -22t62 22t22 63v224h86v-227q0 -72 -45.5 -115t-124.5 -43t-124.5 43zM321 404h-66l-37 38l-38 -38h-66l65 79h78z" />
    <glyph glyph-name="Udieresis" unicode="&#xdc;" horiz-adv-x="432" 
d="M91.5 38q-45.5 43 -45.5 115v227h86v-224q0 -41 22 -63t62 -22t62 22t22 63v224h86v-227q0 -72 -45.5 -115t-124.5 -43t-124.5 43zM117 486h82v-68h-82v68zM233 486h82v-68h-82v68z" />
    <glyph glyph-name="Yacute" unicode="&#xdd;" horiz-adv-x="390" 
d="M387 380l-149 -232v-148h-86v149l-149 231h98l95 -154l95 154h96zM200 483h86l-61 -79h-55z" />
    <glyph glyph-name="Thorn" unicode="&#xde;" horiz-adv-x="377" 
d="M319.5 285q38.5 -32 38.5 -90t-38.5 -90t-106.5 -32h-76v-73h-86v380h86v-63h76q68 0 106.5 -32zM254.5 151q17.5 14 17.5 40q0 27 -17.5 41t-49.5 14h-68v-109h68q32 0 49.5 14z" />
    <glyph glyph-name="germandbls" unicode="&#xdf;" horiz-adv-x="400" 
d="M150 31l39 55q31 -25 73 -25q45 0 45 19q0 10 -11 16.5t-40 14.5q-50 17 -69 34t-19 49q0 28 16.5 44t45.5 30q18 9 27 16.5t9 17.5q0 20 -18.5 31t-50.5 11q-37 0 -56.5 -15t-19.5 -43v-286h-80v290q0 56 42.5 88.5t116.5 32.5q64 0 105.5 -28.5t41.5 -71.5
q0 -40 -21.5 -60t-54.5 -34q-14 -6 -20.5 -11t-6.5 -11q0 -7 9 -11.5t31 -9.5q46 -13 73.5 -32t27.5 -60q0 -40 -32.5 -63.5t-88.5 -23.5q-67 0 -114 36z" />
    <glyph glyph-name="agrave" unicode="&#xe0;" horiz-adv-x="332" 
d="M313 69v-69q-12 -2 -29 -2q-28 0 -43.5 11t-19.5 34q-16 -22 -43.5 -35t-60.5 -13q-44 0 -71 24t-27 63q0 52 36 72t93 27q30 4 45.5 9.5t15.5 17.5q0 14 -14.5 23t-39.5 9q-47 0 -82 -35l-48 49q54 51 135 51q58 0 91 -27t33 -74v-118q0 -17 17 -17h12zM186 75
q21 17 21 42v26q-8 -5 -21.5 -8t-29.5 -6q-30 -5 -45 -12.5t-15 -26.5q0 -15 10 -23.5t29 -8.5q30 0 51 17zM130 324l-61 79h86l30 -79h-55z" />
    <glyph glyph-name="aacute" unicode="&#xe1;" horiz-adv-x="332" 
d="M313 69v-69q-12 -2 -29 -2q-28 0 -43.5 11t-19.5 34q-16 -22 -43.5 -35t-60.5 -13q-44 0 -71 24t-27 63q0 52 36 72t93 27q30 4 45.5 9.5t15.5 17.5q0 14 -14.5 23t-39.5 9q-47 0 -82 -35l-48 49q54 51 135 51q58 0 91 -27t33 -74v-118q0 -17 17 -17h12zM186 75
q21 17 21 42v26q-8 -5 -21.5 -8t-29.5 -6q-30 -5 -45 -12.5t-15 -26.5q0 -15 10 -23.5t29 -8.5q30 0 51 17zM163 403h86l-61 -79h-55z" />
    <glyph glyph-name="acircumflex" unicode="&#xe2;" horiz-adv-x="332" 
d="M313 69v-69q-12 -2 -29 -2q-28 0 -43.5 11t-19.5 34q-16 -22 -43.5 -35t-60.5 -13q-44 0 -71 24t-27 63q0 52 36 72t93 27q30 4 45.5 9.5t15.5 17.5q0 14 -14.5 23t-39.5 9q-47 0 -82 -35l-48 49q54 51 135 51q58 0 91 -27t33 -74v-118q0 -17 17 -17h12zM186 75
q21 17 21 42v26q-8 -5 -21.5 -8t-29.5 -6q-30 -5 -45 -12.5t-15 -26.5q0 -15 10 -23.5t29 -8.5q30 0 51 17zM264 324h-66l-37 38l-38 -38h-66l65 79h78z" />
    <glyph glyph-name="atilde" unicode="&#xe3;" horiz-adv-x="332" 
d="M313 69v-69q-12 -2 -29 -2q-28 0 -43.5 11t-19.5 34q-16 -22 -43.5 -35t-60.5 -13q-44 0 -71 24t-27 63q0 52 36 72t93 27q30 4 45.5 9.5t15.5 17.5q0 14 -14.5 23t-39.5 9q-47 0 -82 -35l-48 49q54 51 135 51q58 0 91 -27t33 -74v-118q0 -17 17 -17h12zM186 75
q21 17 21 42v26q-8 -5 -21.5 -8t-29.5 -6q-30 -5 -45 -12.5t-15 -26.5q0 -15 10 -23.5t29 -8.5q30 0 51 17zM237 341q-18 -14 -40 -14q-18 0 -42 15q-2 1 -9.5 5.5t-14.5 4.5q-19 0 -27 -24l-45 23q8 26 25.5 40t39.5 14q18 0 42 -15q2 -1 9.5 -5.5t14.5 -4.5q19 0 27 24
l45 -23q-7 -26 -25 -40z" />
    <glyph glyph-name="adieresis" unicode="&#xe4;" horiz-adv-x="332" 
d="M313 69v-69q-12 -2 -29 -2q-28 0 -43.5 11t-19.5 34q-16 -22 -43.5 -35t-60.5 -13q-44 0 -71 24t-27 63q0 52 36 72t93 27q30 4 45.5 9.5t15.5 17.5q0 14 -14.5 23t-39.5 9q-47 0 -82 -35l-48 49q54 51 135 51q58 0 91 -27t33 -74v-118q0 -17 17 -17h12zM186 75
q21 17 21 42v26q-8 -5 -21.5 -8t-29.5 -6q-30 -5 -45 -12.5t-15 -26.5q0 -15 10 -23.5t29 -8.5q30 0 51 17zM60 406h82v-68h-82v68zM176 406h82v-68h-82v68z" />
    <glyph glyph-name="aring" unicode="&#xe5;" horiz-adv-x="332" 
d="M313 69v-69q-12 -2 -29 -2q-28 0 -43.5 11t-19.5 34q-16 -22 -43.5 -35t-60.5 -13q-44 0 -71 24t-27 63q0 52 36 72t93 27q30 4 45.5 9.5t15.5 17.5q0 14 -14.5 23t-39.5 9q-47 0 -82 -35l-48 49q54 51 135 51q58 0 91 -27t33 -74v-118q0 -17 17 -17h12zM186 75
q21 17 21 42v26q-8 -5 -21.5 -8t-29.5 -6q-30 -5 -45 -12.5t-15 -26.5q0 -15 10 -23.5t29 -8.5q30 0 51 17zM105 345.5q-21 20.5 -21 53.5q0 32 21.5 53t53.5 21t53.5 -21t21.5 -53q0 -33 -21 -53.5t-54 -20.5t-54 20.5zM179 378q8 8 8 21q0 12 -8 20t-20 8t-20 -8t-8 -20
q0 -13 8 -21t20 -8t20 8z" />
    <glyph glyph-name="ae" unicode="&#xe6;" horiz-adv-x="511" 
d="M300 77.5q20 -17.5 52 -17.5q49 0 80 34l47 -47q-49 -52 -128 -52q-37 0 -66 14t-47 39q-18 -24 -46 -38.5t-65 -14.5q-49 0 -78.5 24t-29.5 64q0 80 119 95q9 1 34 4.5t31 8.5t6 16q0 14 -14 23.5t-38 9.5q-46 0 -84 -35l-48 50q52 50 126 50q68 0 96 -44q39 44 105 44
q63 0 101.5 -42.5t38.5 -112.5q0 -14 -2 -23h-215q5 -32 25 -49.5zM299.5 224.5q-18.5 -16.5 -24.5 -46.5h138q-5 30 -22.5 46.5t-44.5 16.5q-28 0 -46.5 -16.5zM186.5 75.5q20.5 17.5 20.5 46.5v22q-18 -7 -52 -12q-32 -5 -46 -15t-14 -27q0 -15 11 -23.5t30 -8.5
q30 0 50.5 17.5z" />
    <glyph glyph-name="ccedilla" unicode="&#xe7;" horiz-adv-x="325" 
d="M238 108l76 -23q-11 -37 -41.5 -60.5t-73.5 -28.5l-9 -13h7q23 0 38 -12t15 -31q0 -22 -20 -36t-52 -14q-39 0 -67 19l20 34q19 -15 44 -15q12 0 19 3.5t7 8.5t-5 8.5t-13 3.5q-13 0 -19 -6l-31 16l21 34q-61 7 -97.5 48.5t-36.5 105.5q0 70 42.5 112.5t112.5 42.5
q52 0 89 -24t50 -66l-76 -23q-17 47 -64 47q-33 0 -52.5 -24t-19.5 -65t19.5 -65t52.5 -24q47 0 64 47z" />
    <glyph glyph-name="egrave" unicode="&#xe8;" horiz-adv-x="340" 
d="M125.5 77.5q20.5 -16.5 52.5 -16.5q51 0 82 34l49 -48q-49 -52 -132 -52q-76 0 -116.5 43t-40.5 112t41.5 112t110.5 43q68 0 108.5 -42t40.5 -113q0 -12 -3 -26h-219q6 -30 26.5 -46.5zM125.5 225.5q-18.5 -15.5 -25.5 -43.5h141q-6 29 -23.5 44t-45.5 15t-46.5 -15.5z
M141 324l-61 79h86l30 -79h-55z" />
    <glyph glyph-name="eacute" unicode="&#xe9;" horiz-adv-x="340" 
d="M125.5 77.5q20.5 -16.5 52.5 -16.5q51 0 82 34l49 -48q-49 -52 -132 -52q-76 0 -116.5 43t-40.5 112t41.5 112t110.5 43q68 0 108.5 -42t40.5 -113q0 -12 -3 -26h-219q6 -30 26.5 -46.5zM125.5 225.5q-18.5 -15.5 -25.5 -43.5h141q-6 29 -23.5 44t-45.5 15t-46.5 -15.5z
M174 403h86l-61 -79h-55z" />
    <glyph glyph-name="ecircumflex" unicode="&#xea;" horiz-adv-x="340" 
d="M125.5 77.5q20.5 -16.5 52.5 -16.5q51 0 82 34l49 -48q-49 -52 -132 -52q-76 0 -116.5 43t-40.5 112t41.5 112t110.5 43q68 0 108.5 -42t40.5 -113q0 -12 -3 -26h-219q6 -30 26.5 -46.5zM125.5 225.5q-18.5 -15.5 -25.5 -43.5h141q-6 29 -23.5 44t-45.5 15t-46.5 -15.5z
M275 324h-66l-37 38l-38 -38h-66l65 79h78z" />
    <glyph glyph-name="edieresis" unicode="&#xeb;" horiz-adv-x="340" 
d="M125.5 77.5q20.5 -16.5 52.5 -16.5q51 0 82 34l49 -48q-49 -52 -132 -52q-76 0 -116.5 43t-40.5 112t41.5 112t110.5 43q68 0 108.5 -42t40.5 -113q0 -12 -3 -26h-219q6 -30 26.5 -46.5zM125.5 225.5q-18.5 -15.5 -25.5 -43.5h141q-6 29 -23.5 44t-45.5 15t-46.5 -15.5z
M71 406h82v-68h-82v68zM187 406h82v-68h-82v68z" />
    <glyph glyph-name="igrave" unicode="&#xec;" horiz-adv-x="172" 
d="M46 300h80v-300h-80v300zM57 324l-61 79h86l30 -79h-55z" />
    <glyph glyph-name="iacute" unicode="&#xed;" horiz-adv-x="172" 
d="M46 300h80v-300h-80v300zM90 403h86l-61 -79h-55z" />
    <glyph glyph-name="icircumflex" unicode="&#xee;" horiz-adv-x="172" 
d="M46 300h80v-300h-80v300zM191 324h-66l-37 38l-38 -38h-66l65 79h78z" />
    <glyph glyph-name="idieresis" unicode="&#xef;" horiz-adv-x="172" 
d="M46 300h80v-300h-80v300zM-13 406h82v-68h-82v68zM103 406h82v-68h-82v68z" />
    <glyph glyph-name="eth" unicode="&#xf0;" horiz-adv-x="339" 
d="M302 269.5q23 -48.5 23 -107.5q0 -78 -41.5 -122.5t-114.5 -44.5q-68 0 -108.5 38t-40.5 102q0 59 36.5 98t91.5 39q51 0 85 -32q-12 48 -61 80l-56 -31l-25 40l32 17q-18 7 -36 13l30 54q40 -11 75 -30l65 36l25 -40l-46 -25q43 -36 66 -84.5zM224.5 78.5
q19.5 20.5 19.5 55.5q0 33 -19.5 53.5t-51.5 20.5t-52 -20t-20 -54t20 -55t52 -21t51.5 20.5z" />
    <glyph glyph-name="ntilde" unicode="&#xf1;" 
d="M294 273.5q30 -31.5 30 -83.5v-190h-80v172q0 32 -14 49.5t-40 17.5q-29 0 -49 -19t-20 -49v-171h-80v300h72l3 -42q18 22 44 34.5t56 12.5q48 0 78 -31.5zM259 341q-18 -14 -40 -14q-18 0 -42 15q-2 1 -9.5 5.5t-14.5 4.5q-19 0 -27 -24l-45 23q8 26 25.5 40t39.5 14
q18 0 42 -15q2 -1 9.5 -5.5t14.5 -4.5q19 0 27 24l45 -23q-7 -26 -25 -40z" />
    <glyph glyph-name="ograve" unicode="&#xf2;" horiz-adv-x="354" 
d="M63 37.5q-43 42.5 -43 112.5t43 112.5t114 42.5t114 -42.5t43 -112.5t-43 -112.5t-114 -42.5t-114 42.5zM232 84.5q20 23.5 20 65.5t-20 65.5t-55 23.5t-55 -23.5t-20 -65.5t20 -65.5t55 -23.5t55 23.5zM148 324l-61 79h86l30 -79h-55z" />
    <glyph glyph-name="oacute" unicode="&#xf3;" horiz-adv-x="354" 
d="M63 37.5q-43 42.5 -43 112.5t43 112.5t114 42.5t114 -42.5t43 -112.5t-43 -112.5t-114 -42.5t-114 42.5zM232 84.5q20 23.5 20 65.5t-20 65.5t-55 23.5t-55 -23.5t-20 -65.5t20 -65.5t55 -23.5t55 23.5zM181 403h86l-61 -79h-55z" />
    <glyph glyph-name="ocircumflex" unicode="&#xf4;" horiz-adv-x="354" 
d="M63 37.5q-43 42.5 -43 112.5t43 112.5t114 42.5t114 -42.5t43 -112.5t-43 -112.5t-114 -42.5t-114 42.5zM232 84.5q20 23.5 20 65.5t-20 65.5t-55 23.5t-55 -23.5t-20 -65.5t20 -65.5t55 -23.5t55 23.5zM282 324h-66l-37 38l-38 -38h-66l65 79h78z" />
    <glyph glyph-name="otilde" unicode="&#xf5;" horiz-adv-x="354" 
d="M63 37.5q-43 42.5 -43 112.5t43 112.5t114 42.5t114 -42.5t43 -112.5t-43 -112.5t-114 -42.5t-114 42.5zM232 84.5q20 23.5 20 65.5t-20 65.5t-55 23.5t-55 -23.5t-20 -65.5t20 -65.5t55 -23.5t55 23.5zM255 341q-18 -14 -40 -14q-18 0 -42 15q-2 1 -9.5 5.5t-14.5 4.5
q-19 0 -27 -24l-45 23q8 26 25.5 40t39.5 14q18 0 42 -15q2 -1 9.5 -5.5t14.5 -4.5q19 0 27 24l45 -23q-7 -26 -25 -40z" />
    <glyph glyph-name="odieresis" unicode="&#xf6;" horiz-adv-x="354" 
d="M63 37.5q-43 42.5 -43 112.5t43 112.5t114 42.5t114 -42.5t43 -112.5t-43 -112.5t-114 -42.5t-114 42.5zM232 84.5q20 23.5 20 65.5t-20 65.5t-55 23.5t-55 -23.5t-20 -65.5t20 -65.5t55 -23.5t55 23.5zM78 406h82v-68h-82v68zM194 406h82v-68h-82v68z" />
    <glyph glyph-name="divide" unicode="&#xf7;" 
d="M42 221h276v-62h-276v62zM137 334h86v-68h-86v68zM137 114h86v-68h-86v68z" />
    <glyph glyph-name="oslash" unicode="&#xf8;" horiz-adv-x="354" 
d="M334 150q0 -70 -43 -112.5t-114 -42.5q-37 0 -66 12l-9 -12h-72l32 43q-42 42 -42 112t43 112.5t114 42.5q38 0 71 -14l10 14h72l-34 -47q38 -43 38 -108zM110 104l96 130q-15 5 -29 5q-35 0 -55 -23.5t-20 -65.5q0 -25 8 -46zM232 84.5q20 23.5 20 65.5q0 24 -6 40
l-93 -126q11 -3 24 -3q35 0 55 23.5z" />
    <glyph glyph-name="ugrave" unicode="&#xf9;" 
d="M319 300v-300h-72l-3 42q-18 -22 -44 -34.5t-56 -12.5q-48 0 -78 31.5t-30 83.5v190h80v-172q0 -32 14 -49.5t40 -17.5q29 0 49 19t20 49v171h80zM149 324l-61 79h86l30 -79h-55z" />
    <glyph glyph-name="uacute" unicode="&#xfa;" 
d="M319 300v-300h-72l-3 42q-18 -22 -44 -34.5t-56 -12.5q-48 0 -78 31.5t-30 83.5v190h80v-172q0 -32 14 -49.5t40 -17.5q29 0 49 19t20 49v171h80zM182 403h86l-61 -79h-55z" />
    <glyph glyph-name="ucircumflex" unicode="&#xfb;" 
d="M319 300v-300h-72l-3 42q-18 -22 -44 -34.5t-56 -12.5q-48 0 -78 31.5t-30 83.5v190h80v-172q0 -32 14 -49.5t40 -17.5q29 0 49 19t20 49v171h80zM283 324h-66l-37 38l-38 -38h-66l65 79h78z" />
    <glyph glyph-name="udieresis" unicode="&#xfc;" 
d="M319 300v-300h-72l-3 42q-18 -22 -44 -34.5t-56 -12.5q-48 0 -78 31.5t-30 83.5v190h80v-172q0 -32 14 -49.5t40 -17.5q29 0 49 19t20 49v171h80zM79 406h82v-68h-82v68zM195 406h82v-68h-82v68z" />
    <glyph glyph-name="yacute" unicode="&#xfd;" horiz-adv-x="343" 
d="M337 300l-104 -300q-37 -105 -118 -105q-51 0 -75 27.5t-27 67.5l75 13q2 -39 29 -39q17 0 30 21l-141 315h88l91 -226l68 226h84zM176 403h86l-61 -79h-55z" />
    <glyph glyph-name="thorn" unicode="&#xfe;" horiz-adv-x="362" 
d="M307 263q35 -42 35 -113q0 -70 -35.5 -112.5t-92.5 -42.5q-56 0 -93 40v-135h-80v500h80v-137q36 42 93 42q58 0 93 -42zM242 85q19 24 19 65t-19 65t-53 24t-52.5 -23.5t-18.5 -65.5t18.5 -65.5t52.5 -23.5t53 24z" />
    <glyph glyph-name="ydieresis" unicode="&#xff;" horiz-adv-x="343" 
d="M337 300l-104 -300q-37 -105 -118 -105q-51 0 -75 27.5t-27 67.5l75 13q2 -39 29 -39q17 0 30 21l-141 315h88l91 -226l68 226h84zM73 406h82v-68h-82v68zM189 406h82v-68h-82v68z" />
    <glyph glyph-name="Amacron" unicode="&#x100;" horiz-adv-x="412" 
d="M315 0l-27 75h-166l-27 -75h-90l148 380h106l148 -380h-92zM149 149h112l-56 156zM120 480h172v-58h-172v58z" />
    <glyph glyph-name="amacron" unicode="&#x101;" horiz-adv-x="332" 
d="M313 69v-69q-12 -2 -29 -2q-28 0 -43.5 11t-19.5 34q-16 -22 -43.5 -35t-60.5 -13q-44 0 -71 24t-27 63q0 52 36 72t93 27q30 4 45.5 9.5t15.5 17.5q0 14 -14.5 23t-39.5 9q-47 0 -82 -35l-48 49q54 51 135 51q58 0 91 -27t33 -74v-118q0 -17 17 -17h12zM186 75
q21 17 21 42v26q-8 -5 -21.5 -8t-29.5 -6q-30 -5 -45 -12.5t-15 -26.5q0 -15 10 -23.5t29 -8.5q30 0 51 17zM73 400h172v-58h-172v58z" />
    <glyph glyph-name="Abreve" unicode="&#x102;" horiz-adv-x="412" 
d="M315 0l-27 75h-166l-27 -75h-90l148 380h106l148 -380h-92zM149 149h112l-56 156zM140.5 423.5q-25.5 20.5 -29.5 55.5l62 5q3 -31 33 -31t33 31l62 -5q-4 -35 -29.5 -55.5t-65.5 -20.5t-65.5 20.5z" />
    <glyph glyph-name="abreve" unicode="&#x103;" horiz-adv-x="332" 
d="M313 69v-69q-12 -2 -29 -2q-28 0 -43.5 11t-19.5 34q-16 -22 -43.5 -35t-60.5 -13q-44 0 -71 24t-27 63q0 52 36 72t93 27q30 4 45.5 9.5t15.5 17.5q0 14 -14.5 23t-39.5 9q-47 0 -82 -35l-48 49q54 51 135 51q58 0 91 -27t33 -74v-118q0 -17 17 -17h12zM186 75
q21 17 21 42v26q-8 -5 -21.5 -8t-29.5 -6q-30 -5 -45 -12.5t-15 -26.5q0 -15 10 -23.5t29 -8.5q30 0 51 17zM93.5 343.5q-25.5 20.5 -29.5 55.5l62 5q3 -31 33 -31t33 31l62 -5q-4 -35 -29.5 -55.5t-65.5 -20.5t-65.5 20.5z" />
    <glyph glyph-name="Aogonek" unicode="&#x104;" horiz-adv-x="412" 
d="M429 -83q-22 -19 -53 -19q-29 0 -47 15t-18 40q0 26 24 47h-20l-27 75h-166l-27 -75h-90l148 380h106l148 -380q-41 -18 -41 -40q0 -7 4 -11t10 -4q9 0 26 12zM149 149h112l-56 156z" />
    <glyph glyph-name="aogonek" unicode="&#x105;" horiz-adv-x="332" 
d="M324 -83q-22 -19 -53 -19q-29 0 -47 15t-18 40q0 17 9.5 31.5t25.5 23.5q-16 13 -20 35q-16 -22 -43.5 -35t-60.5 -13q-44 0 -71 24t-27 63q0 52 36 72t93 27q30 4 45.5 9.5t15.5 17.5q0 14 -14.5 23t-39.5 9q-47 0 -82 -35l-48 49q54 51 135 51q58 0 91 -27t33 -74v-118
q0 -17 17 -17h12v-69l-14 -2q-38 -17 -38 -38q0 -7 4 -11t10 -4q9 0 26 12zM186 75q21 17 21 42v26q-8 -5 -21.5 -8t-29.5 -6q-30 -5 -45 -12.5t-15 -26.5q0 -15 10 -23.5t29 -8.5q30 0 51 17z" />
    <glyph glyph-name="Cacute" unicode="&#x106;" horiz-adv-x="391" 
d="M75 48.5q-51 53.5 -51 141.5t51.5 141.5t134.5 53.5q61 0 104 -29t60 -82l-81 -28q-21 67 -85 67q-44 0 -70 -33t-26 -90t25.5 -90t70.5 -33q64 0 85 67l81 -28q-16 -52 -59 -81.5t-105 -29.5q-84 0 -135 53.5zM210 483h86l-61 -79h-55z" />
    <glyph glyph-name="cacute" unicode="&#x107;" horiz-adv-x="325" 
d="M62.5 37.5q-42.5 42.5 -42.5 112.5t42.5 112.5t112.5 42.5q52 0 89 -24t50 -66l-76 -23q-17 47 -64 47q-33 0 -52.5 -24t-19.5 -65t19.5 -65t52.5 -24q47 0 64 47l76 -23q-13 -42 -50 -66t-89 -24q-70 0 -112.5 42.5zM175 403h86l-61 -79h-55z" />
    <glyph glyph-name="Cdotaccent" unicode="&#x10a;" horiz-adv-x="391" 
d="M75 48.5q-51 53.5 -51 141.5t51.5 141.5t134.5 53.5q61 0 104 -29t60 -82l-81 -28q-21 67 -85 67q-44 0 -70 -33t-26 -90t25.5 -90t70.5 -33q64 0 85 67l81 -28q-16 -52 -59 -81.5t-105 -29.5q-84 0 -135 53.5zM163 486h86v-68h-86v68z" />
    <glyph glyph-name="cdotaccent" unicode="&#x10b;" horiz-adv-x="325" 
d="M62.5 37.5q-42.5 42.5 -42.5 112.5t42.5 112.5t112.5 42.5q52 0 89 -24t50 -66l-76 -23q-17 47 -64 47q-33 0 -52.5 -24t-19.5 -65t19.5 -65t52.5 -24q47 0 64 47l76 -23q-13 -42 -50 -66t-89 -24q-70 0 -112.5 42.5zM128 406h86v-68h-86v68z" />
    <glyph glyph-name="Ccaron" unicode="&#x10c;" horiz-adv-x="391" 
d="M75 48.5q-51 53.5 -51 141.5t51.5 141.5t134.5 53.5q61 0 104 -29t60 -82l-81 -28q-21 67 -85 67q-44 0 -70 -33t-26 -90t25.5 -90t70.5 -33q64 0 85 67l81 -28q-16 -52 -59 -81.5t-105 -29.5q-84 0 -135 53.5zM244 483h66l-65 -79h-78l-64 79h66l38 -38z" />
    <glyph glyph-name="ccaron" unicode="&#x10d;" horiz-adv-x="325" 
d="M62.5 37.5q-42.5 42.5 -42.5 112.5t42.5 112.5t112.5 42.5q52 0 89 -24t50 -66l-76 -23q-17 47 -64 47q-33 0 -52.5 -24t-19.5 -65t19.5 -65t52.5 -24q47 0 64 47l76 -23q-13 -42 -50 -66t-89 -24q-70 0 -112.5 42.5zM209 403h66l-65 -79h-78l-64 79h66l38 -38z" />
    <glyph glyph-name="Dcaron" unicode="&#x10e;" horiz-adv-x="415" 
d="M340.5 328.5q50.5 -51.5 50.5 -138.5q0 -85 -51.5 -137.5t-140.5 -52.5h-148v380h148q91 0 141.5 -51.5zM275.5 103q27.5 31 27.5 87t-27.5 87t-78.5 31h-60v-236h60q51 0 78.5 31zM224 483h66l-65 -79h-78l-64 79h66l38 -38z" />
    <glyph glyph-name="dcaron" unicode="&#x10f;" horiz-adv-x="362" 
d="M321 400v-400h-72l-4 42q-36 -47 -97 -47q-58 0 -93 42t-35 113q0 70 35.5 112.5t92.5 42.5q56 0 93 -40v135h80zM225.5 84.5q18.5 23.5 18.5 65.5t-18.5 65.5t-52.5 23.5t-53 -24t-19 -65t19 -65t53 -24t52.5 23.5zM355 400h72l-20 -92h-52v92z" />
    <glyph glyph-name="Dcroat" unicode="&#x110;" horiz-adv-x="415" 
d="M340.5 328.5q50.5 -51.5 50.5 -138.5q0 -85 -51.5 -137.5t-140.5 -52.5h-148v167h-41v56h41v157h148q91 0 141.5 -51.5zM275.5 103q27.5 31 27.5 87t-27.5 87t-78.5 31h-60v-85h68v-56h-68v-95h60q51 0 78.5 31z" />
    <glyph glyph-name="dcroat" unicode="&#x111;" horiz-adv-x="362" 
d="M362 318h-41v-318h-72l-4 42q-36 -47 -97 -47q-58 0 -93 42t-35 113q0 70 35.5 112.5t92.5 42.5q56 0 93 -40v53h-59v52h59v30h80v-30h41v-52zM225.5 84.5q18.5 23.5 18.5 65.5t-18.5 65.5t-52.5 23.5t-53 -24t-19 -65t19 -65t53 -24t52.5 23.5z" />
    <glyph glyph-name="Emacron" unicode="&#x112;" horiz-adv-x="351" 
d="M135 75h196v-75h-280v380h275v-75h-191v-74h146v-72h-146v-84zM107 480h172v-58h-172v58z" />
    <glyph glyph-name="emacron" unicode="&#x113;" horiz-adv-x="340" 
d="M125.5 77.5q20.5 -16.5 52.5 -16.5q51 0 82 34l49 -48q-49 -52 -132 -52q-76 0 -116.5 43t-40.5 112t41.5 112t110.5 43q68 0 108.5 -42t40.5 -113q0 -12 -3 -26h-219q6 -30 26.5 -46.5zM125.5 225.5q-18.5 -15.5 -25.5 -43.5h141q-6 29 -23.5 44t-45.5 15t-46.5 -15.5z
M84 400h172v-58h-172v58z" />
    <glyph glyph-name="Edotaccent" unicode="&#x116;" horiz-adv-x="351" 
d="M135 75h196v-75h-280v380h275v-75h-191v-74h146v-72h-146v-84zM150 486h86v-68h-86v68z" />
    <glyph glyph-name="edotaccent" unicode="&#x117;" horiz-adv-x="340" 
d="M125.5 77.5q20.5 -16.5 52.5 -16.5q51 0 82 34l49 -48q-49 -52 -132 -52q-76 0 -116.5 43t-40.5 112t41.5 112t110.5 43q68 0 108.5 -42t40.5 -113q0 -12 -3 -26h-219q6 -30 26.5 -46.5zM125.5 225.5q-18.5 -15.5 -25.5 -43.5h141q-6 29 -23.5 44t-45.5 15t-46.5 -15.5z
M127 406h86v-68h-86v68z" />
    <glyph glyph-name="Eogonek" unicode="&#x118;" horiz-adv-x="351" 
d="M353 -83q-22 -19 -53 -19q-29 0 -47 15t-18 40q0 26 24 47h-208v380h275v-75h-191v-74h146v-72h-146v-84h196v-75q-41 -18 -41 -40q0 -7 4 -11t10 -4q9 0 26 12z" />
    <glyph glyph-name="eogonek" unicode="&#x119;" horiz-adv-x="343" 
d="M125.5 77.5q20.5 -16.5 52.5 -16.5q51 0 82 34l49 -48q-21 -23 -52 -36q-18 -10 -31 -25.5t-13 -25.5q0 -7 4 -11t10 -4q9 0 26 12l23 -40q-22 -19 -53 -19q-29 0 -47 15t-18 40q0 23 19 42q-76 0 -116.5 43t-40.5 112t41.5 112t110.5 43q68 0 108.5 -42t40.5 -113
q0 -12 -3 -26h-219q6 -30 26.5 -46.5zM125.5 225.5q-18.5 -15.5 -25.5 -43.5h141q-6 29 -23.5 44t-45.5 15t-46.5 -15.5z" />
    <glyph glyph-name="Ecaron" unicode="&#x11a;" horiz-adv-x="351" 
d="M135 75h196v-75h-280v380h275v-75h-191v-74h146v-72h-146v-84zM231 483h66l-65 -79h-78l-64 79h66l38 -38z" />
    <glyph glyph-name="ecaron" unicode="&#x11b;" horiz-adv-x="340" 
d="M125.5 77.5q20.5 -16.5 52.5 -16.5q51 0 82 34l49 -48q-49 -52 -132 -52q-76 0 -116.5 43t-40.5 112t41.5 112t110.5 43q68 0 108.5 -42t40.5 -113q0 -12 -3 -26h-219q6 -30 26.5 -46.5zM125.5 225.5q-18.5 -15.5 -25.5 -43.5h141q-6 29 -23.5 44t-45.5 15t-46.5 -15.5z
M208 403h66l-65 -79h-78l-64 79h66l38 -38z" />
    <glyph glyph-name="Gbreve" unicode="&#x11e;" horiz-adv-x="421" 
d="M387 198v-198h-63l-5 53q-40 -58 -119 -58t-127.5 53t-48.5 140q0 89 53 143t141 54q58 0 100 -26t62 -74l-79 -30q-11 27 -33.5 42.5t-52.5 15.5q-48 0 -75.5 -33t-27.5 -90q0 -58 26.5 -90.5t73.5 -32.5q34 0 58.5 18.5t34.5 53.5h-86v59h168zM146.5 423.5
q-25.5 20.5 -29.5 55.5l62 5q3 -31 33 -31t33 31l62 -5q-4 -35 -29.5 -55.5t-65.5 -20.5t-65.5 20.5z" />
    <glyph glyph-name="gbreve" unicode="&#x11f;" horiz-adv-x="362" 
d="M321 300v-260q0 -67 -41 -106t-115 -39q-84 0 -128 39l36 57q38 -30 90 -30q42 0 62 20.5t20 56.5v21q-37 -43 -96 -43q-58 0 -93.5 40t-35.5 105t35.5 104.5t93.5 39.5q60 0 97 -43l3 38h72zM225.5 99q18.5 22 18.5 60t-18.5 59t-52.5 21q-33 0 -52.5 -21.5t-19.5 -58.5
q0 -38 19.5 -60t52.5 -22q34 0 52.5 22zM106.5 343.5q-25.5 20.5 -29.5 55.5l62 5q3 -31 33 -31t33 31l62 -5q-4 -35 -29.5 -55.5t-65.5 -20.5t-65.5 20.5z" />
    <glyph glyph-name="Gdotaccent" unicode="&#x120;" horiz-adv-x="421" 
d="M387 198v-198h-63l-5 53q-40 -58 -119 -58t-127.5 53t-48.5 140q0 89 53 143t141 54q58 0 100 -26t62 -74l-79 -30q-11 27 -33.5 42.5t-52.5 15.5q-48 0 -75.5 -33t-27.5 -90q0 -58 26.5 -90.5t73.5 -32.5q34 0 58.5 18.5t34.5 53.5h-86v59h168zM169 486h86v-68h-86v68z
" />
    <glyph glyph-name="gdotaccent" unicode="&#x121;" horiz-adv-x="362" 
d="M321 300v-260q0 -67 -41 -106t-115 -39q-84 0 -128 39l36 57q38 -30 90 -30q42 0 62 20.5t20 56.5v21q-37 -43 -96 -43q-58 0 -93.5 40t-35.5 105t35.5 104.5t93.5 39.5q60 0 97 -43l3 38h72zM225.5 99q18.5 22 18.5 60t-18.5 59t-52.5 21q-33 0 -52.5 -21.5t-19.5 -58.5
q0 -38 19.5 -60t52.5 -22q34 0 52.5 22zM129 406h86v-68h-86v68z" />
    <glyph glyph-name="uni0122" unicode="&#x122;" horiz-adv-x="421" 
d="M387 198v-198h-63l-5 53q-40 -58 -119 -58t-127.5 53t-48.5 140q0 89 53 143t141 54q58 0 100 -26t62 -74l-79 -30q-11 27 -33.5 42.5t-52.5 15.5q-48 0 -75.5 -33t-27.5 -90q0 -58 26.5 -90.5t73.5 -32.5q34 0 58.5 18.5t34.5 53.5h-86v59h168zM251 -30v-30
q0 -30 -15.5 -46.5t-43.5 -16.5h-23v27h17q18 0 20 18h-37v48h82z" />
    <glyph glyph-name="uni0123" unicode="&#x123;" horiz-adv-x="362" 
d="M321 300v-260q0 -67 -41 -106t-115 -39q-84 0 -128 39l36 57q38 -30 90 -30q42 0 62 20.5t20 56.5v21q-37 -43 -96 -43q-58 0 -93.5 40t-35.5 105t35.5 104.5t93.5 39.5q60 0 97 -43l3 38h72zM225.5 99q18.5 22 18.5 60t-18.5 59t-52.5 21q-33 0 -52.5 -21.5t-19.5 -58.5
q0 -38 19.5 -60t52.5 -22q34 0 52.5 22zM170 390v-7h37v-51h-82v48q0 31 15.5 47.5t43.5 16.5h23v-34h-17q-20 0 -20 -20z" />
    <glyph glyph-name="Hbar" unicode="&#x126;" horiz-adv-x="430" 
d="M422 326v-56h-43v-270h-86v156h-156v-156h-86v270h-43v56h43v54h86v-54h156v54h86v-54h43zM293 234v36h-156v-36h156z" />
    <glyph glyph-name="hbar" unicode="&#x127;" 
d="M294 273.5q30 -31.5 30 -83.5v-190h-80v172q0 32 -14.5 49.5t-39.5 17.5q-29 0 -49 -19t-20 -49v-171h-80v318h-41v52h41v30h80v-30h59v-52h-59v-54q17 19 41.5 30t53.5 11q48 0 78 -31.5z" />
    <glyph glyph-name="Imacron" unicode="&#x12a;" horiz-adv-x="188" 
d="M51 380h86v-380h-86v380zM8 480h172v-58h-172v58z" />
    <glyph glyph-name="imacron" unicode="&#x12b;" horiz-adv-x="172" 
d="M46 300h80v-300h-80v300zM0 400h172v-58h-172v58z" />
    <glyph glyph-name="Iogonek" unicode="&#x12e;" horiz-adv-x="188" 
d="M159 -83q-22 -19 -53 -19q-29 0 -47 15t-18 40q0 26 24 47h-14v380h86v-380q-41 -18 -41 -40q0 -7 4 -11t10 -4q9 0 26 12z" />
    <glyph glyph-name="iogonek" unicode="&#x12f;" horiz-adv-x="172" 
d="M129 406v-68h-86v68h86zM148 -83q-22 -19 -53 -19q-29 0 -47 15t-18 40q0 26 24 47h-8v300h80v-300q-41 -18 -41 -40q0 -7 4 -11t10 -4q9 0 26 12z" />
    <glyph glyph-name="Idotaccent" unicode="&#x130;" horiz-adv-x="188" 
d="M51 380h86v-380h-86v380zM51 486h86v-68h-86v68z" />
    <glyph glyph-name="dotlessi" unicode="&#x131;" horiz-adv-x="172" 
d="M46 300h80v-300h-80v300z" />
    <glyph glyph-name="uni0136" unicode="&#x136;" horiz-adv-x="409" 
d="M300 0l-113 170l-50 -50v-120h-86v380h86v-161l152 161h107l-148 -149l154 -231h-102zM242 -30v-30q0 -30 -15.5 -46.5t-43.5 -16.5h-23v27h17q18 0 20 18h-37v48h82z" />
    <glyph glyph-name="uni0137" unicode="&#x137;" horiz-adv-x="343" 
d="M245 0l-85 127l-39 -38v-89h-80v400h80v-220l114 120h100l-119 -118l123 -182h-94zM220 -30v-30q0 -30 -15.5 -46.5t-43.5 -16.5h-23v27h17q18 0 20 18h-37v48h82z" />
    <glyph glyph-name="kgreenlandic" unicode="&#x138;" horiz-adv-x="343" 
d="M245 0l-85 127l-39 -38v-89h-80v300h80v-120l114 120h100l-119 -118l123 -182h-94z" />
    <glyph glyph-name="Lacute" unicode="&#x139;" horiz-adv-x="338" 
d="M137 78h186v-78h-272v380h86v-302zM98 503h86l-61 -79h-55z" />
    <glyph glyph-name="lacute" unicode="&#x13a;" horiz-adv-x="162" 
d="M41 400h80v-400h-80v400zM85 503h86l-61 -79h-55z" />
    <glyph glyph-name="uni013B" unicode="&#x13b;" horiz-adv-x="338" 
d="M137 78h186v-78h-272v380h86v-302zM232 -30v-30q0 -30 -15.5 -46.5t-43.5 -16.5h-23v27h17q18 0 20 18h-37v48h82z" />
    <glyph glyph-name="uni013C" unicode="&#x13c;" horiz-adv-x="162" 
d="M41 400h80v-400h-80v400zM116 -30v-30q0 -30 -15.5 -46.5t-43.5 -16.5h-23v27h17q18 0 20 18h-37v48h82z" />
    <glyph glyph-name="Lcaron" unicode="&#x13d;" horiz-adv-x="338" 
d="M137 78h186v-78h-272v380h86v-302zM160 380h72l-20 -92h-52v92z" />
    <glyph glyph-name="lcaron" unicode="&#x13e;" horiz-adv-x="162" 
d="M41 400h80v-400h-80v400zM146 400h72l-20 -92h-52v92z" />
    <glyph glyph-name="Lslash" unicode="&#x141;" horiz-adv-x="338" 
d="M137 78h186v-78h-272v140l-44 -14v60l44 14v180h86v-154l100 31v-60l-100 -31v-88z" />
    <glyph glyph-name="lslash" unicode="&#x142;" horiz-adv-x="200" 
d="M190 254v-62l-50 -15v-177h-80v152l-50 -15v62l50 15v186h80v-161z" />
    <glyph glyph-name="Nacute" unicode="&#x143;" horiz-adv-x="436" 
d="M302 380h83v-380h-80l-171 242v-242h-83v380h81l170 -242v242zM227 483h86l-61 -79h-55z" />
    <glyph glyph-name="nacute" unicode="&#x144;" 
d="M294 273.5q30 -31.5 30 -83.5v-190h-80v172q0 32 -14 49.5t-40 17.5q-29 0 -49 -19t-20 -49v-171h-80v300h72l3 -42q18 22 44 34.5t56 12.5q48 0 78 -31.5zM185 403h86l-61 -79h-55z" />
    <glyph glyph-name="uni0145" unicode="&#x145;" horiz-adv-x="436" 
d="M302 380h83v-380h-80l-171 242v-242h-83v380h81l170 -242v242zM258 -30v-30q0 -30 -15.5 -46.5t-43.5 -16.5h-23v27h17q18 0 20 18h-37v48h82z" />
    <glyph glyph-name="uni0146" unicode="&#x146;" 
d="M294 273.5q30 -31.5 30 -83.5v-190h-80v172q0 32 -14 49.5t-40 17.5q-29 0 -49 -19t-20 -49v-171h-80v300h72l3 -42q18 22 44 34.5t56 12.5q48 0 78 -31.5zM216 -30v-30q0 -30 -15.5 -46.5t-43.5 -16.5h-23v27h17q18 0 20 18h-37v48h82z" />
    <glyph glyph-name="Ncaron" unicode="&#x147;" horiz-adv-x="436" 
d="M302 380h83v-380h-80l-171 242v-242h-83v380h81l170 -242v242zM261 483h66l-65 -79h-78l-64 79h66l38 -38z" />
    <glyph glyph-name="ncaron" unicode="&#x148;" 
d="M294 273.5q30 -31.5 30 -83.5v-190h-80v172q0 32 -14 49.5t-40 17.5q-29 0 -49 -19t-20 -49v-171h-80v300h72l3 -42q18 22 44 34.5t56 12.5q48 0 78 -31.5zM219 403h66l-65 -79h-78l-64 79h66l38 -38z" />
    <glyph glyph-name="Eng" unicode="&#x14a;" horiz-adv-x="436" 
d="M385 380v-384q0 -51 -24 -74.5t-72 -23.5q-15 0 -45 2v70h36q11 0 18 6.5t7 18.5v4l-171 243v-242h-83v380h81l170 -242v242h83z" />
    <glyph glyph-name="eng" unicode="&#x14b;" 
d="M294 273.5q30 -31.5 30 -83.5v-194q0 -51 -24 -74.5t-72 -23.5q-11 0 -33 2v70h24q11 0 18 6.5t7 18.5v177q0 32 -14.5 49.5t-39.5 17.5q-29 0 -49 -19t-20 -49v-171h-80v300h72l3 -42q18 22 44 34.5t56 12.5q48 0 78 -31.5z" />
    <glyph glyph-name="Omacron" unicode="&#x14c;" horiz-adv-x="426" 
d="M75.5 48.5q-51.5 53.5 -51.5 141.5t52 141.5t137 53.5q86 0 137.5 -53.5t51.5 -141.5t-52 -141.5t-137 -53.5q-86 0 -137.5 53.5zM286.5 102q27.5 33 27.5 88t-27.5 88t-73.5 33t-73.5 -33t-27.5 -88t27.5 -88t73.5 -33t73.5 33zM127 480h172v-58h-172v58z" />
    <glyph glyph-name="omacron" unicode="&#x14d;" horiz-adv-x="354" 
d="M63 37.5q-43 42.5 -43 112.5t43 112.5t114 42.5t114 -42.5t43 -112.5t-43 -112.5t-114 -42.5t-114 42.5zM232 84.5q20 23.5 20 65.5t-20 65.5t-55 23.5t-55 -23.5t-20 -65.5t20 -65.5t55 -23.5t55 23.5zM91 400h172v-58h-172v58z" />
    <glyph glyph-name="Ohungarumlaut" unicode="&#x150;" horiz-adv-x="426" 
d="M75.5 48.5q-51.5 53.5 -51.5 141.5t52 141.5t137 53.5q86 0 137.5 -53.5t51.5 -141.5t-52 -141.5t-137 -53.5q-86 0 -137.5 53.5zM286.5 102q27.5 33 27.5 88t-27.5 88t-73.5 33t-73.5 -33t-27.5 -88t27.5 -88t73.5 -33t73.5 33zM114 486h82v-68h-82v68zM230 486h82v-68
h-82v68z" />
    <glyph glyph-name="ohungarumlaut" unicode="&#x151;" horiz-adv-x="354" 
d="M63 37.5q-43 42.5 -43 112.5t43 112.5t114 42.5t114 -42.5t43 -112.5t-43 -112.5t-114 -42.5t-114 42.5zM232 84.5q20 23.5 20 65.5t-20 65.5t-55 23.5t-55 -23.5t-20 -65.5t20 -65.5t55 -23.5t55 23.5zM126 403h86l-61 -79h-55zM234 403h86l-61 -79h-55z" />
    <glyph glyph-name="OE" unicode="&#x152;" horiz-adv-x="535" 
d="M515 75v-75h-298q-90 0 -141.5 52t-51.5 138q0 87 51 138.5t142 51.5h293v-75h-170v-75h125v-70h-125v-85h175zM260 72v236h-42q-51 0 -78 -31t-27 -87t27 -87t78 -31h42z" />
    <glyph glyph-name="oe" unicode="&#x153;" horiz-adv-x="557" 
d="M345.5 77.5q19.5 -17.5 52.5 -17.5q51 0 80 34l47 -48q-46 -51 -122 -51q-40 0 -70 14.5t-48 40.5q-20 -26 -50.5 -40.5t-67.5 -14.5q-67 0 -107 42.5t-40 112.5t40.5 112.5t106.5 42.5q39 0 69 -14.5t49 -40.5q18 27 47 41t66 14q65 0 102.5 -42t37.5 -113q0 -11 -2 -23
h-215q5 -32 24.5 -49.5zM345.5 224.5q-18.5 -16.5 -24.5 -46.5h138q-5 30 -22.5 46.5t-44.5 16.5q-28 0 -46.5 -16.5zM229.5 84.5q19.5 23.5 19.5 65.5t-19.5 65.5t-54.5 23.5t-54.5 -23.5t-19.5 -65.5t19.5 -65.5t54.5 -23.5t54.5 23.5z" />
    <glyph glyph-name="Racute" unicode="&#x154;" horiz-adv-x="397" 
d="M205 140h-69v-140h-85v380h168q68 0 105.5 -31.5t37.5 -87.5q0 -39 -18.5 -67t-53.5 -42l92 -152h-96zM136 207h77q62 0 62 51q0 50 -62 50h-77v-101zM186 483h86l-61 -79h-55z" />
    <glyph glyph-name="racute" unicode="&#x155;" horiz-adv-x="254" 
d="M243 301l-1 -74q-25 3 -48 3q-34 0 -53.5 -17t-19.5 -50v-163h-80v300h72l4 -45q15 23 41 36t58 13q14 0 27 -3zM138 403h86l-61 -79h-55z" />
    <glyph glyph-name="uni0156" unicode="&#x156;" horiz-adv-x="397" 
d="M205 140h-69v-140h-85v380h168q68 0 105.5 -31.5t37.5 -87.5q0 -39 -18.5 -67t-53.5 -42l92 -152h-96zM136 207h77q62 0 62 51q0 50 -62 50h-77v-101zM247 -30v-30q0 -30 -15.5 -46.5t-43.5 -16.5h-23v27h17q18 0 20 18h-37v48h82z" />
    <glyph glyph-name="uni0157" unicode="&#x157;" horiz-adv-x="254" 
d="M243 301l-1 -74q-25 3 -48 3q-34 0 -53.5 -17t-19.5 -50v-163h-80v300h72l4 -45q15 23 41 36t58 13q14 0 27 -3zM110 -30v-30q0 -30 -15.5 -46.5t-43.5 -16.5h-23v27h17q18 0 20 18h-37v48h82z" />
    <glyph glyph-name="Rcaron" unicode="&#x158;" horiz-adv-x="397" 
d="M205 140h-69v-140h-85v380h168q68 0 105.5 -31.5t37.5 -87.5q0 -39 -18.5 -67t-53.5 -42l92 -152h-96zM136 207h77q62 0 62 51q0 50 -62 50h-77v-101zM220 483h66l-65 -79h-78l-64 79h66l38 -38z" />
    <glyph glyph-name="rcaron" unicode="&#x159;" horiz-adv-x="254" 
d="M243 301l-1 -74q-25 3 -48 3q-34 0 -53.5 -17t-19.5 -50v-163h-80v300h72l4 -45q15 23 41 36t58 13q14 0 27 -3zM172 403h66l-65 -79h-78l-64 79h66l38 -38z" />
    <glyph glyph-name="Sacute" unicode="&#x15a;" horiz-adv-x="348" 
d="M85 9.5q-43 14.5 -73 41.5l47 64q23 -23 54 -35t65 -12q32 0 50 10t18 28q0 16 -15 23t-59 20q-44 12 -73.5 24.5t-50.5 36.5t-21 62q0 52 41 82.5t111 30.5q81 0 145 -46l-46 -64q-21 17 -47.5 26.5t-54.5 9.5q-29 0 -46.5 -9.5t-17.5 -25.5q0 -15 18.5 -25t61.5 -22
t71.5 -23.5t49 -34.5t20.5 -59q0 -55 -41.5 -86t-115.5 -31q-48 0 -91 14.5zM176 483h86l-61 -79h-55z" />
    <glyph glyph-name="sacute" unicode="&#x15b;" horiz-adv-x="288" 
d="M68 7q-36 12 -60 33l41 57q38 -35 98 -35q22 0 36 6t14 17q0 10 -12.5 16.5t-49.5 15.5q-59 14 -86 37t-27 59q0 42 34 67t92 25q64 0 121 -37l-41 -58q-20 15 -41 22t-46 7q-20 0 -31.5 -6t-11.5 -17t11.5 -17.5t43.5 -13.5q66 -16 93.5 -38t27.5 -59q0 -44 -34 -68.5
t-96 -24.5q-40 0 -76 12zM145 403h86l-61 -79h-55z" />
    <glyph glyph-name="Scedilla" unicode="&#x15e;" horiz-adv-x="348" 
d="M298 31q-35 -30 -99 -35l-8 -13h7q23 0 38 -12t15 -31q0 -22 -20 -36t-52 -14q-39 0 -67 19l20 34q19 -15 44 -15q12 0 19 3.5t7 8.5t-5 8.5t-13 3.5q-13 0 -19 -6l-31 16l21 34q-43 3 -80 17t-63 38l47 64q23 -23 54 -35t65 -12q32 0 50 10t18 28q0 16 -15 23t-59 20
q-44 12 -73.5 24.5t-50.5 36.5t-21 62q0 52 41 82.5t111 30.5q81 0 145 -46l-46 -64q-21 17 -47.5 26.5t-54.5 9.5q-29 0 -46.5 -9.5t-17.5 -25.5q0 -15 18.5 -25t61.5 -22t71.5 -23.5t49 -34.5t20.5 -59q0 -51 -35 -81z" />
    <glyph glyph-name="scedilla" unicode="&#x15f;" horiz-adv-x="288" 
d="M246.5 24q-27.5 -24 -78.5 -28l-8 -13h7q23 0 38 -12t15 -31q0 -22 -20 -36t-52 -14q-39 0 -67 19l20 34q19 -15 44 -15q12 0 19 3.5t7 8.5t-5 8.5t-13 3.5q-13 0 -19 -6l-31 16l21 34q-34 3 -64.5 14.5t-51.5 29.5l41 57q38 -35 98 -35q22 0 36 6t14 17q0 10 -12.5 16.5
t-49.5 15.5q-59 14 -86 37t-27 59q0 42 34 67t92 25q64 0 121 -37l-41 -58q-20 15 -41 22t-46 7q-20 0 -31.5 -6t-11.5 -17t11.5 -17.5t43.5 -13.5q66 -16 93.5 -38t27.5 -59q0 -40 -27.5 -64z" />
    <glyph glyph-name="Scaron" unicode="&#x160;" horiz-adv-x="348" 
d="M85 9.5q-43 14.5 -73 41.5l47 64q23 -23 54 -35t65 -12q32 0 50 10t18 28q0 16 -15 23t-59 20q-44 12 -73.5 24.5t-50.5 36.5t-21 62q0 52 41 82.5t111 30.5q81 0 145 -46l-46 -64q-21 17 -47.5 26.5t-54.5 9.5q-29 0 -46.5 -9.5t-17.5 -25.5q0 -15 18.5 -25t61.5 -22
t71.5 -23.5t49 -34.5t20.5 -59q0 -55 -41.5 -86t-115.5 -31q-48 0 -91 14.5zM210 483h66l-65 -79h-78l-64 79h66l38 -38z" />
    <glyph glyph-name="scaron" unicode="&#x161;" horiz-adv-x="288" 
d="M68 7q-36 12 -60 33l41 57q38 -35 98 -35q22 0 36 6t14 17q0 10 -12.5 16.5t-49.5 15.5q-59 14 -86 37t-27 59q0 42 34 67t92 25q64 0 121 -37l-41 -58q-20 15 -41 22t-46 7q-20 0 -31.5 -6t-11.5 -17t11.5 -17.5t43.5 -13.5q66 -16 93.5 -38t27.5 -59q0 -44 -34 -68.5
t-96 -24.5q-40 0 -76 12zM179 403h66l-65 -79h-78l-64 79h66l38 -38z" />
    <glyph glyph-name="uni0162" unicode="&#x162;" horiz-adv-x="362" 
d="M210 0l-11 -17h7q23 0 38 -12t15 -31q0 -22 -20 -36t-52 -14q-39 0 -67 19l20 34q19 -15 44 -15q12 0 19 3.5t7 8.5t-5 8.5t-13 3.5q-13 0 -19 -6l-31 16l23 38h-27v302h-128v78h342v-78h-128v-302h-14z" />
    <glyph glyph-name="uni0163" unicode="&#x163;" horiz-adv-x="256" 
d="M150 234v-131q0 -19 9.5 -27t28.5 -8q28 0 48 5v-71q-22 -6 -55 -8l-7 -11h7q23 0 38 -12t15 -31q0 -22 -20 -36t-52 -14q-39 0 -67 19l20 34q19 -15 44 -15q12 0 19 3.5t7 8.5t-5 8.5t-13 3.5q-13 0 -19 -6l-31 16l21 35q-33 7 -50.5 29t-17.5 58v150h-60v66h60l8 80h72
v-80h86v-66h-86z" />
    <glyph glyph-name="Tcaron" unicode="&#x164;" horiz-adv-x="362" 
d="M352 380v-78h-128v-302h-86v302h-128v78h342zM218 483h66l-65 -79h-78l-64 79h66l38 -38z" />
    <glyph glyph-name="tcaron" unicode="&#x165;" horiz-adv-x="256" 
d="M150 234v-131q0 -19 9.5 -27t28.5 -8q28 0 48 5v-71q-29 -8 -66 -8q-48 0 -74 23t-26 67v150h-60v66h60l8 80h72v-80h86v-66h-86zM171 400h72l-20 -92h-52v92z" />
    <glyph glyph-name="Tbar" unicode="&#x166;" horiz-adv-x="362" 
d="M352 302h-128v-79h78v-56h-78v-167h-86v167h-77v56h77v79h-128v78h342v-78z" />
    <glyph glyph-name="tbar" unicode="&#x167;" horiz-adv-x="256" 
d="M150 234v-53h69v-56h-69v-22q0 -19 9.5 -27t28.5 -8q28 0 48 5v-71q-29 -8 -66 -8q-48 0 -74 23t-26 67v41h-57v56h57v53h-60v66h60l8 80h72v-80h86v-66h-86z" />
    <glyph glyph-name="Umacron" unicode="&#x16a;" horiz-adv-x="432" 
d="M91.5 38q-45.5 43 -45.5 115v227h86v-224q0 -41 22 -63t62 -22t62 22t22 63v224h86v-227q0 -72 -45.5 -115t-124.5 -43t-124.5 43zM130 480h172v-58h-172v58z" />
    <glyph glyph-name="umacron" unicode="&#x16b;" 
d="M319 300v-300h-72l-3 42q-18 -22 -44 -34.5t-56 -12.5q-48 0 -78 31.5t-30 83.5v190h80v-172q0 -32 14 -49.5t40 -17.5q29 0 49 19t20 49v171h80zM92 400h172v-58h-172v58z" />
    <glyph glyph-name="Uring" unicode="&#x16e;" horiz-adv-x="432" 
d="M91.5 38q-45.5 43 -45.5 115v227h86v-224q0 -41 22 -63t62 -22t62 22t22 63v224h86v-227q0 -72 -45.5 -115t-124.5 -43t-124.5 43zM162 379.5q-21 20.5 -21 53.5q0 32 21.5 53t53.5 21t53.5 -21t21.5 -53q0 -33 -21 -53.5t-54 -20.5t-54 20.5zM236 412q8 8 8 21
q0 12 -8 20t-20 8t-20 -8t-8 -20q0 -13 8 -21t20 -8t20 8z" />
    <glyph glyph-name="uring" unicode="&#x16f;" 
d="M319 300v-300h-72l-3 42q-18 -22 -44 -34.5t-56 -12.5q-48 0 -78 31.5t-30 83.5v190h80v-172q0 -32 14 -49.5t40 -17.5q29 0 49 19t20 49v171h80zM124 345.5q-21 20.5 -21 53.5q0 32 21.5 53t53.5 21t53.5 -21t21.5 -53q0 -33 -21 -53.5t-54 -20.5t-54 20.5zM198 378
q8 8 8 21q0 12 -8 20t-20 8t-20 -8t-8 -20q0 -13 8 -21t20 -8t20 8z" />
    <glyph glyph-name="Uhungarumlaut" unicode="&#x170;" horiz-adv-x="432" 
d="M91.5 38q-45.5 43 -45.5 115v227h86v-224q0 -41 22 -63t62 -22t62 22t22 63v224h86v-227q0 -72 -45.5 -115t-124.5 -43t-124.5 43zM165 483h86l-61 -79h-55zM273 483h86l-61 -79h-55z" />
    <glyph glyph-name="uhungarumlaut" unicode="&#x171;" 
d="M319 300v-300h-72l-3 42q-18 -22 -44 -34.5t-56 -12.5q-48 0 -78 31.5t-30 83.5v190h80v-172q0 -32 14 -49.5t40 -17.5q29 0 49 19t20 49v171h80zM127 403h86l-61 -79h-55zM235 403h86l-61 -79h-55z" />
    <glyph glyph-name="Uogonek" unicode="&#x172;" horiz-adv-x="420" 
d="M386 380v-227q0 -50 -22.5 -87t-63.5 -55q-29 -11 -46 -25.5t-17 -25.5q0 -7 4 -11t10 -4q9 0 26 12l23 -40q-22 -19 -53 -19q-29 0 -47 15t-18 40t19 42q-72 4 -113.5 46.5t-41.5 111.5v227h86v-224q0 -41 22 -63t62 -22t62 22t22 63v224h86z" />
    <glyph glyph-name="uogonek" unicode="&#x173;" 
d="M332 -83q-22 -19 -53 -19q-29 0 -47 15t-18 40q0 16 8.5 30t23.5 23l-2 36q-18 -22 -44 -34.5t-56 -12.5q-48 0 -78 31.5t-30 83.5v190h80v-172q0 -32 14 -49.5t40 -17.5q29 0 49 19t20 49v171h80v-300h-9q-41 -18 -41 -40q0 -7 4 -11t10 -4q9 0 26 12z" />
    <glyph glyph-name="Wcircumflex" unicode="&#x174;" horiz-adv-x="576" 
d="M476 380h86l-110 -380h-90l-75 262l-74 -262h-90l-109 380h88l70 -266l74 266h83l74 -264zM393 404h-66l-37 38l-38 -38h-66l65 79h78z" />
    <glyph glyph-name="wcircumflex" unicode="&#x175;" horiz-adv-x="487" 
d="M394 300h81l-88 -300h-89l-55 192l-53 -192h-89l-89 300h83l55 -216l57 216h73l59 -219zM349 324h-66l-37 38l-38 -38h-66l65 79h78z" />
    <glyph glyph-name="Ycircumflex" unicode="&#x176;" horiz-adv-x="390" 
d="M387 380l-149 -232v-148h-86v149l-149 231h98l95 -154l95 154h96zM301 404h-66l-37 38l-38 -38h-66l65 79h78z" />
    <glyph glyph-name="ycircumflex" unicode="&#x177;" horiz-adv-x="343" 
d="M337 300l-104 -300q-37 -105 -118 -105q-51 0 -75 27.5t-27 67.5l75 13q2 -39 29 -39q17 0 30 21l-141 315h88l91 -226l68 226h84zM277 324h-66l-37 38l-38 -38h-66l65 79h78z" />
    <glyph glyph-name="Ydieresis" unicode="&#x178;" horiz-adv-x="390" 
d="M387 380l-149 -232v-148h-86v149l-149 231h98l95 -154l95 154h96zM97 486h82v-68h-82v68zM213 486h82v-68h-82v68z" />
    <glyph glyph-name="Zacute" unicode="&#x179;" horiz-adv-x="353" 
d="M331 380v-63l-200 -240h200v-77h-311v63l200 240h-189v77h300zM177 483h86l-61 -79h-55z" />
    <glyph glyph-name="zacute" unicode="&#x17a;" horiz-adv-x="300" 
d="M121 67h158v-67h-261v60l157 174h-148v66h250v-60zM150 403h86l-61 -79h-55z" />
    <glyph glyph-name="Zdotaccent" unicode="&#x17b;" horiz-adv-x="353" 
d="M331 380v-63l-200 -240h200v-77h-311v63l200 240h-189v77h300zM130 486h86v-68h-86v68z" />
    <glyph glyph-name="zdotaccent" unicode="&#x17c;" horiz-adv-x="300" 
d="M121 67h158v-67h-261v60l157 174h-148v66h250v-60zM103 406h86v-68h-86v68z" />
    <glyph glyph-name="Zcaron" unicode="&#x17d;" horiz-adv-x="353" 
d="M331 380v-63l-200 -240h200v-77h-311v63l200 240h-189v77h300zM211 483h66l-65 -79h-78l-64 79h66l38 -38z" />
    <glyph glyph-name="zcaron" unicode="&#x17e;" horiz-adv-x="300" 
d="M121 67h158v-67h-261v60l157 174h-148v66h250v-60zM184 403h66l-65 -79h-78l-64 79h66l38 -38z" />
    <glyph glyph-name="uni0218" unicode="&#x218;" horiz-adv-x="348" 
d="M85 9.5q-43 14.5 -73 41.5l47 64q23 -23 54 -35t65 -12q32 0 50 10t18 28q0 16 -15 23t-59 20q-44 12 -73.5 24.5t-50.5 36.5t-21 62q0 52 41 82.5t111 30.5q81 0 145 -46l-46 -64q-21 17 -47.5 26.5t-54.5 9.5q-29 0 -46.5 -9.5t-17.5 -25.5q0 -15 18.5 -25t61.5 -22
t71.5 -23.5t49 -34.5t20.5 -59q0 -55 -41.5 -86t-115.5 -31q-48 0 -91 14.5zM207 -30v-30q0 -30 -15.5 -46.5t-43.5 -16.5h-23v27h17q18 0 20 18h-37v48h82z" />
    <glyph glyph-name="uni0219" unicode="&#x219;" horiz-adv-x="288" 
d="M68 7q-36 12 -60 33l41 57q38 -35 98 -35q22 0 36 6t14 17q0 10 -12.5 16.5t-49.5 15.5q-59 14 -86 37t-27 59q0 42 34 67t92 25q64 0 121 -37l-41 -58q-20 15 -41 22t-46 7q-20 0 -31.5 -6t-11.5 -17t11.5 -17.5t43.5 -13.5q66 -16 93.5 -38t27.5 -59q0 -44 -34 -68.5
t-96 -24.5q-40 0 -76 12zM176 -30v-30q0 -30 -15.5 -46.5t-43.5 -16.5h-23v27h17q18 0 20 18h-37v48h82z" />
    <glyph glyph-name="uni021A" unicode="&#x21a;" horiz-adv-x="362" 
d="M352 380v-78h-128v-302h-86v302h-128v78h342zM215 -30v-30q0 -30 -15.5 -46.5t-43.5 -16.5h-23v27h17q18 0 20 18h-37v48h82z" />
    <glyph glyph-name="uni021B" unicode="&#x21b;" horiz-adv-x="256" 
d="M150 234v-131q0 -19 9.5 -27t28.5 -8q28 0 48 5v-71q-29 -8 -66 -8q-48 0 -74 23t-26 67v150h-60v66h60l8 80h72v-80h86v-66h-86zM190 -30v-30q0 -30 -15.5 -46.5t-43.5 -16.5h-23v27h17q18 0 20 18h-37v48h82z" />
    <glyph glyph-name="uni0237" unicode="&#x237;" horiz-adv-x="170" 
d="M0 -100v71q8 -1 24 -1q11 0 18 6.5t7 18.5v305h80v-304q0 -51 -24 -74.5t-72 -23.5q-11 0 -33 2z" />
    <glyph glyph-name="uni02BC" unicode="&#x2bc;" horiz-adv-x="144" 
d="M119 380v-50q0 -47 -21.5 -70.5t-58.5 -23.5h-14v42h9q18 0 26 8t10 26h-45v68h94z" />
    <glyph glyph-name="circumflex" unicode="&#x2c6;" horiz-adv-x="160" 
d="M185 324h-66l-37 38l-38 -38h-66l65 79h78z" />
    <glyph glyph-name="caron" unicode="&#x2c7;" horiz-adv-x="160" 
d="M118 403h66l-65 -79h-78l-64 79h66l38 -38z" />
    <glyph glyph-name="breve" unicode="&#x2d8;" horiz-adv-x="160" 
d="M14.5 343.5q-25.5 20.5 -29.5 55.5l62 5q3 -31 33 -31t33 31l62 -5q-4 -35 -29.5 -55.5t-65.5 -20.5t-65.5 20.5z" />
    <glyph glyph-name="dotaccent" unicode="&#x2d9;" horiz-adv-x="160" 
d="M37 406h86v-68h-86v68z" />
    <glyph glyph-name="ring" unicode="&#x2da;" horiz-adv-x="160" 
d="M26 345.5q-21 20.5 -21 53.5q0 32 21.5 53t53.5 21t53.5 -21t21.5 -53q0 -33 -21 -53.5t-54 -20.5t-54 20.5zM100 378q8 8 8 21q0 12 -8 20t-20 8t-20 -8t-8 -20q0 -13 8 -21t20 -8t20 8z" />
    <glyph glyph-name="ogonek" unicode="&#x2db;" horiz-adv-x="160" 
d="M72 -40q0 -7 4 -11t10 -4q9 0 26 12l23 -40q-22 -19 -53 -19q-29 0 -47 15t-18 40q0 23 18 41.5t45 25.5l33 -20q-41 -18 -41 -40z" />
    <glyph glyph-name="tilde" unicode="&#x2dc;" horiz-adv-x="160" 
d="M158 341q-18 -14 -40 -14q-18 0 -42 15q-2 1 -9.5 5.5t-14.5 4.5q-19 0 -27 -24l-45 23q8 26 25.5 40t39.5 14q18 0 42 -15q2 -1 9.5 -5.5t14.5 -4.5q19 0 27 24l45 -23q-7 -26 -25 -40z" />
    <glyph glyph-name="hungarumlaut" unicode="&#x2dd;" horiz-adv-x="160" 
d="M29 403h86l-61 -79h-55zM137 403h86l-61 -79h-55z" />
    <glyph glyph-name="gravecomb" unicode="&#x300;" horiz-adv-x="0" 
d="M-209 324l-61 79h86l30 -79h-55z" />
    <glyph glyph-name="acutecomb" unicode="&#x301;" horiz-adv-x="0" 
d="M-176 403h86l-61 -79h-55z" />
    <glyph glyph-name="uni0302" unicode="&#x302;" horiz-adv-x="0" 
d="M-75 324h-66l-37 38l-38 -38h-66l65 79h78z" />
    <glyph glyph-name="tildecomb" unicode="&#x303;" horiz-adv-x="0" 
d="M-102 341q-18 -14 -40 -14q-18 0 -42 15q-2 1 -9.5 5.5t-14.5 4.5q-19 0 -27 -24l-45 23q8 26 25.5 40t39.5 14q18 0 42 -15q2 -1 9.5 -5.5t14.5 -4.5q19 0 27 24l45 -23q-7 -26 -25 -40z" />
    <glyph glyph-name="uni0304" unicode="&#x304;" horiz-adv-x="0" 
d="M-266 400h172v-58h-172v58z" />
    <glyph glyph-name="uni0306" unicode="&#x306;" horiz-adv-x="0" 
d="M-245.5 343.5q-25.5 20.5 -29.5 55.5l62 5q3 -31 33 -31t33 31l62 -5q-4 -35 -29.5 -55.5t-65.5 -20.5t-65.5 20.5z" />
    <glyph glyph-name="uni0307" unicode="&#x307;" horiz-adv-x="0" 
d="M-223 406h86v-68h-86v68z" />
    <glyph glyph-name="uni0308" unicode="&#x308;" horiz-adv-x="0" 
d="M-279 406h82v-68h-82v68zM-163 406h82v-68h-82v68z" />
    <glyph glyph-name="uni030A" unicode="&#x30a;" horiz-adv-x="0" 
d="M-234 345.5q-21 20.5 -21 53.5q0 32 21.5 53t53.5 21t53.5 -21t21.5 -53q0 -33 -21 -53.5t-54 -20.5t-54 20.5zM-160 378q8 8 8 21q0 12 -8 20t-20 8t-20 -8t-8 -20q0 -13 8 -21t20 -8t20 8z" />
    <glyph glyph-name="uni030B" unicode="&#x30b;" horiz-adv-x="0" 
d="M-231 403h86l-61 -79h-55zM-123 403h86l-61 -79h-55z" />
    <glyph glyph-name="uni030C" unicode="&#x30c;" horiz-adv-x="0" 
d="M-142 403h66l-65 -79h-78l-64 79h66l38 -38z" />
    <glyph glyph-name="uni0312" unicode="&#x312;" horiz-adv-x="0" 
d="M-182 390v-7h37v-51h-82v48q0 31 15.5 47.5t43.5 16.5h23v-34h-17q-20 0 -20 -20z" />
    <glyph glyph-name="uni0326" unicode="&#x326;" horiz-adv-x="0" 
d="M-145 -30v-30q0 -30 -15.5 -46.5t-43.5 -16.5h-23v27h17q18 0 20 18h-37v48h82z" />
    <glyph glyph-name="uni0327" unicode="&#x327;" horiz-adv-x="0" 
d="M-116 -29q15 -12 15 -31q0 -22 -20 -36t-52 -14q-39 0 -67 19l20 34q19 -15 44 -15q12 0 19 3.5t7 8.5t-5 8.5t-13 3.5q-13 0 -19 -6l-31 16l28 46h45l-16 -25h7q23 0 38 -12z" />
    <glyph glyph-name="uni0328" unicode="&#x328;" horiz-adv-x="0" 
d="M-188 -40q0 -7 4 -11t10 -4q9 0 26 12l23 -40q-22 -19 -53 -19q-29 0 -47 15t-18 40q0 23 18 41.5t45 25.5l33 -20q-41 -18 -41 -40z" />
    <glyph glyph-name="dieresistonos" unicode="&#x385;" 
d="M245 417l-61 -79h-55l30 79h86zM37 406h82v-68h-82v68zM241 406h82v-68h-82v68z" />
    <glyph glyph-name="uni0401" unicode="&#x401;" horiz-adv-x="351" 
d="M135 75h196v-75h-280v380h275v-75h-191v-74h146v-72h-146v-84zM94 486h82v-68h-82v68zM210 486h82v-68h-82v68z" />
    <glyph glyph-name="uni0404" unicode="&#x404;" horiz-adv-x="391" 
d="M264 84q23 17 34 48l78 -28q-17 -51 -61 -80t-105 -29q-85 0 -135.5 53t-50.5 142q0 88 51 141.5t135 53.5q62 0 105.5 -28.5t60.5 -80.5l-78 -28q-11 31 -34 48t-55 17q-37 0 -62 -22t-32 -62h134v-68h-136q6 -45 31 -69.5t65 -24.5q32 0 55 17z" />
    <glyph glyph-name="uni0406" unicode="&#x406;" horiz-adv-x="188" 
d="M51 380h86v-380h-86v380z" />
    <glyph glyph-name="uni0407" unicode="&#x407;" horiz-adv-x="188" 
d="M51 380h86v-380h-86v380zM-5 486h82v-68h-82v68zM111 486h82v-68h-82v68z" />
    <glyph glyph-name="uni040E" unicode="&#x40e;" horiz-adv-x="384" 
d="M375 380l-114 -284q-19 -49 -46.5 -75t-72.5 -26q-42 0 -68.5 27t-28.5 67l67 17q2 -43 34 -43q19 0 28 13l-172 304h96l111 -221l77 221h89zM118.5 428q-26.5 20 -30.5 55l61 8q3 -16 13.5 -24.5t26.5 -8.5q15 0 26 8.5t14 24.5l61 -8q-4 -35 -30.5 -55t-70.5 -20
t-70.5 20z" />
    <glyph glyph-name="uni0410" unicode="&#x410;" horiz-adv-x="412" 
d="M315 0l-27 75h-166l-27 -75h-90l148 380h106l148 -380h-92zM149 149h112l-56 156z" />
    <glyph glyph-name="uni0411" unicode="&#x411;" horiz-adv-x="380" 
d="M321 203q37 -31 37 -84q0 -56 -37 -87.5t-102 -31.5h-168v380h276v-74h-190l-1 -72h83q65 0 102 -31zM255.5 82q15.5 13 15.5 37t-16 36.5t-46 12.5h-73l-1 -99h74q31 0 46.5 13z" />
    <glyph glyph-name="uni0412" unicode="&#x412;" horiz-adv-x="384" 
d="M345.5 158q14.5 -23 14.5 -54q0 -49 -34.5 -76.5t-95.5 -27.5h-179v380h178q58 0 91 -27t33 -74q0 -58 -49 -85q27 -13 41.5 -36zM133 311v-84h82q54 0 54 42t-54 42h-82zM275 115q0 46 -59 46h-83v-92h83q59 0 59 46z" />
    <glyph glyph-name="uni0413" unicode="&#x413;" horiz-adv-x="326" 
d="M313 380v-78h-176v-302h-86v380h262z" />
    <glyph glyph-name="uni0414" unicode="&#x414;" horiz-adv-x="435" 
d="M418 78v-158h-84v80h-237v-80h-84v158h42q8 48 8 133v169h309v-302h46zM287 76v228h-140v-93q0 -67 -9 -135h149z" />
    <glyph glyph-name="uni0415" unicode="&#x415;" horiz-adv-x="351" 
d="M135 75h196v-75h-280v380h275v-75h-191v-74h146v-72h-146v-84z" />
    <glyph glyph-name="uni0416" unicode="&#x416;" horiz-adv-x="603" 
d="M495 0l-102 171l-49 -50v-121h-85v121l-49 50l-102 -171h-101l141 230l-139 150h107l143 -160v160h85v-161l144 161h106l-139 -150l141 -230h-101z" />
    <glyph glyph-name="uni0417" unicode="&#x417;" horiz-adv-x="355" 
d="M336 109q0 -51 -43.5 -82.5t-113.5 -31.5q-57 0 -101 26t-64 70l70 37q12 -28 36.5 -43.5t57.5 -15.5q35 0 54 12.5t19 36.5q0 20 -16 31.5t-45 11.5h-52v66h51q23 0 37 10.5t14 28.5q0 21 -16.5 33.5t-46.5 12.5q-62 0 -88 -59l-72 30q19 47 63 74.5t100 27.5
q65 0 104.5 -30t39.5 -79q0 -56 -52 -81q64 -22 64 -86z" />
    <glyph glyph-name="uni0418" unicode="&#x418;" horiz-adv-x="436" 
d="M302 380h83v-380h-84v248l-168 -248h-82v380h84v-247z" />
    <glyph glyph-name="uni0419" unicode="&#x419;" horiz-adv-x="436" 
d="M302 380h83v-380h-84v248l-168 -248h-82v380h84v-247zM147.5 428q-26.5 20 -30.5 55l61 8q3 -16 13.5 -24.5t26.5 -8.5q15 0 26 8.5t14 24.5l61 -8q-4 -35 -30.5 -55t-70.5 -20t-70.5 20z" />
    <glyph glyph-name="uni041A" unicode="&#x41a;" horiz-adv-x="409" 
d="M300 0l-113 170l-50 -50v-120h-86v380h86v-161l152 161h107l-148 -149l154 -231h-102z" />
    <glyph glyph-name="uni041B" unicode="&#x41b;" horiz-adv-x="426" 
d="M375 0h-86v302h-131v-111q0 -73 -8 -114t-29 -60.5t-61 -19.5q-19 0 -45 3v79h21q17 0 24 6t10 31t3 83v181h302v-380z" />
    <glyph glyph-name="uni041C" unicode="&#x41c;" horiz-adv-x="554" 
d="M503 380v-380h-84v268l-98 -268h-88l-98 268v-268h-84v380h126l101 -275l100 275h125z" />
    <glyph glyph-name="uni041D" unicode="&#x41d;" horiz-adv-x="430" 
d="M293 380h86v-380h-86v156h-156v-156h-86v380h86v-146h156v146z" />
    <glyph glyph-name="uni041E" unicode="&#x41e;" horiz-adv-x="426" 
d="M75.5 48.5q-51.5 53.5 -51.5 141.5t52 141.5t137 53.5q86 0 137.5 -53.5t51.5 -141.5t-52 -141.5t-137 -53.5q-86 0 -137.5 53.5zM286.5 102q27.5 33 27.5 88t-27.5 88t-73.5 33t-73.5 -33t-27.5 -88t27.5 -88t73.5 -33t73.5 33z" />
    <glyph glyph-name="uni041F" unicode="&#x41f;" horiz-adv-x="430" 
d="M379 380v-380h-86v302h-156v-302h-86v380h328z" />
    <glyph glyph-name="uni0420" unicode="&#x420;" horiz-adv-x="375" 
d="M319.5 347.5q38.5 -32.5 38.5 -89.5q0 -58 -38.5 -90t-106.5 -32h-77v-136h-85v380h162q68 0 106.5 -32.5zM253.5 217.5q17.5 13.5 17.5 38.5q0 52 -68 52h-67v-104h67q33 0 50.5 13.5z" />
    <glyph glyph-name="uni0421" unicode="&#x421;" horiz-adv-x="391" 
d="M75 48.5q-51 53.5 -51 141.5t51.5 141.5t134.5 53.5q61 0 104 -29t60 -82l-81 -28q-21 67 -85 67q-44 0 -70 -33t-26 -90t25.5 -90t70.5 -33q64 0 85 67l81 -28q-16 -52 -59 -81.5t-105 -29.5q-84 0 -135 53.5z" />
    <glyph glyph-name="uni0422" unicode="&#x422;" horiz-adv-x="362" 
d="M352 380v-78h-128v-302h-86v302h-128v78h342z" />
    <glyph glyph-name="uni0423" unicode="&#x423;" horiz-adv-x="384" 
d="M375 380l-114 -284q-19 -49 -46.5 -75t-72.5 -26q-42 0 -68.5 27t-28.5 67l67 17q2 -43 34 -43q19 0 28 13l-172 304h96l111 -221l77 221h89z" />
    <glyph glyph-name="uni0424" unicode="&#x424;" horiz-adv-x="510" 
d="M442.5 304q45.5 -40 45.5 -109q0 -68 -46 -108.5t-126 -40.5h-18v-52h-86v52h-19q-81 0 -126 40t-45 109q0 68 45.5 108.5t125.5 40.5h19v42h86v-42h18q81 0 126.5 -40zM212 116v158h-16q-43 0 -65.5 -20.5t-22.5 -58.5q0 -79 88 -79h16zM379.5 136.5
q22.5 20.5 22.5 58.5q0 79 -88 79h-16v-158h16q43 0 65.5 20.5z" />
    <glyph glyph-name="uni0425" unicode="&#x425;" horiz-adv-x="391" 
d="M384 0h-97l-92 133l-90 -133h-98l138 195l-131 185h98l85 -122l85 122h95l-131 -185z" />
    <glyph glyph-name="uni0426" unicode="&#x426;" horiz-adv-x="438" 
d="M375 78h46v-158h-84v80h-286v380h86v-302h152v302h86v-302z" />
    <glyph glyph-name="uni0427" unicode="&#x427;" horiz-adv-x="395" 
d="M344 380v-380h-86v143h-92q-68 0 -103 31t-35 91v115h86v-106q0 -29 14 -42t46 -13h84v161h86z" />
    <glyph glyph-name="uni0428" unicode="&#x428;" horiz-adv-x="604" 
d="M467 380h86v-380h-502v380h86v-302h122v302h86v-302h122v302z" />
    <glyph glyph-name="uni0429" unicode="&#x429;" horiz-adv-x="616" 
d="M553 78h46v-158h-84v80h-464v380h86v-302h122v302h86v-302h122v302h86v-302z" />
    <glyph glyph-name="uni042A" unicode="&#x42a;" horiz-adv-x="434" 
d="M376.5 212q38.5 -32 38.5 -90q0 -57 -38.5 -89.5t-106.5 -32.5h-163v303h-97v77h183v-136h77q68 0 106.5 -32zM328 124q0 52 -64 52h-71v-104h71q64 0 64 52z" />
    <glyph glyph-name="uni042B" unicode="&#x42b;" horiz-adv-x="549" 
d="M320.5 212q38.5 -32 38.5 -90q0 -57 -38.5 -89.5t-106.5 -32.5h-163v380h86v-136h77q68 0 106.5 -32zM272 124q0 52 -64 52h-71v-104h71q64 0 64 52zM412 380h86v-380h-86v380z" />
    <glyph glyph-name="uni042C" unicode="&#x42c;" horiz-adv-x="378" 
d="M320.5 212q38.5 -32 38.5 -90q0 -57 -38.5 -89.5t-106.5 -32.5h-163v380h86v-136h77q68 0 106.5 -32zM272 124q0 52 -64 52h-71v-104h71q64 0 64 52z" />
    <glyph glyph-name="uni042D" unicode="&#x42d;" horiz-adv-x="389" 
d="M314.5 331.5q50.5 -53.5 50.5 -141.5t-50.5 -141.5t-133.5 -53.5q-60 0 -104 29.5t-63 80.5l76 27q11 -32 34 -48.5t55 -16.5q40 0 65.5 24.5t31.5 69.5h-136v68h135q-8 41 -33 62.5t-63 21.5q-32 0 -55 -16.5t-34 -48.5l-76 27q19 52 63.5 81t103.5 29q83 0 133.5 -53.5
z" />
    <glyph glyph-name="uni042E" unicode="&#x42e;" horiz-adv-x="585" 
d="M511.5 332q49.5 -53 49.5 -142q0 -88 -50 -141.5t-131 -53.5q-74 0 -121.5 43t-57.5 118h-64v-156h-86v380h86v-146h66q12 69 59.5 110t117.5 41q82 0 131.5 -53zM447 100q25 33 25 90t-25 90t-68 33t-68 -33t-25 -90t25 -90t68 -33t68 33z" />
    <glyph glyph-name="uni042F" unicode="&#x42f;" horiz-adv-x="397" 
d="M346 0h-86v136h-73l-79 -136h-93l90 149q-34 14 -52 42t-18 68q0 57 38.5 89t106.5 32h166v-380zM260 205v103h-74q-31 0 -47.5 -13t-16.5 -38q0 -52 64 -52h74z" />
    <glyph glyph-name="uni0430" unicode="&#x430;" horiz-adv-x="332" 
d="M313 69v-69q-12 -2 -29 -2q-28 0 -43.5 11t-19.5 34q-16 -22 -43.5 -35t-60.5 -13q-44 0 -71 24t-27 63q0 52 36 72t93 27q30 4 45.5 9.5t15.5 17.5q0 14 -14.5 23t-39.5 9q-47 0 -82 -35l-48 49q54 51 135 51q58 0 91 -27t33 -74v-118q0 -17 17 -17h12zM186 75
q21 17 21 42v26q-8 -5 -21.5 -8t-29.5 -6q-30 -5 -45 -12.5t-15 -26.5q0 -15 10 -23.5t29 -8.5q30 0 51 17z" />
    <glyph glyph-name="uni0431" unicode="&#x431;" horiz-adv-x="343" 
d="M292 227.5q37 -36.5 37 -93.5q0 -62 -42.5 -100.5t-109.5 -38.5q-72 0 -112.5 46.5t-40.5 128.5q0 83 33.5 131.5t102.5 63.5l71 16q16 3 19 18l3 12l75 -13l-1 -11q-4 -32 -21.5 -49.5t-49.5 -25.5l-89 -18q-41 -8 -58.5 -26.5t-19.5 -54.5q17 24 44.5 37.5t63.5 13.5
q58 0 95 -36.5zM227.5 80.5q18.5 19.5 18.5 53.5q0 35 -18.5 54.5t-50.5 19.5t-51 -19.5t-19 -53.5t19 -54t51 -20t50.5 19.5z" />
    <glyph glyph-name="uni0432" unicode="&#x432;" horiz-adv-x="323" 
d="M289.5 127.5q13.5 -18.5 13.5 -44.5q0 -40 -29.5 -61.5t-82.5 -21.5h-150v300h139q55 0 85 -19.5t30 -59.5q0 -48 -45 -67q26 -8 39.5 -26.5zM116 181h64q20 0 29 7t9 23q0 14 -9.5 22t-27.5 8h-65v-60zM212.5 68.5q10.5 8.5 10.5 23.5q0 16 -11 25t-31 9h-65v-66h67
q19 0 29.5 8.5z" />
    <glyph glyph-name="uni0433" unicode="&#x433;" horiz-adv-x="279" 
d="M269 300v-74h-148v-226h-80v300h228z" />
    <glyph glyph-name="uni0434" unicode="&#x434;" horiz-adv-x="377" 
d="M360 72v-142h-77v70h-191v-70h-77v142h37q6 35 6 103v125h262v-228h40zM241 70v160h-105v-58q0 -60 -6 -102h111z" />
    <glyph glyph-name="uni0435" unicode="&#x435;" horiz-adv-x="340" 
d="M125.5 77.5q20.5 -16.5 52.5 -16.5q51 0 82 34l49 -48q-49 -52 -132 -52q-76 0 -116.5 43t-40.5 112t41.5 112t110.5 43q68 0 108.5 -42t40.5 -113q0 -12 -3 -26h-219q6 -30 26.5 -46.5zM125.5 225.5q-18.5 -15.5 -25.5 -43.5h141q-6 29 -23.5 44t-45.5 15t-46.5 -15.5z
" />
    <glyph glyph-name="uni0436" unicode="&#x436;" horiz-adv-x="506" 
d="M407 0l-78 128l-36 -38v-90h-80v90l-37 38l-77 -128h-94l113 181l-111 119h100l106 -123v123h80v-122l106 122h99l-111 -118l114 -182h-94z" />
    <glyph glyph-name="uni0437" unicode="&#x437;" horiz-adv-x="290" 
d="M262 128q13 -18 13 -42q0 -40 -38 -65.5t-97 -25.5q-46 0 -81.5 19t-53.5 55l61 34q23 -44 75 -44q25 0 39.5 9t14.5 25q0 14 -12 22.5t-34 8.5h-41v55h39q17 0 28 8.5t11 22.5q0 15 -12 23t-34 8q-47 0 -72 -40l-53 41q20 30 54 46.5t76 16.5q53 0 85.5 -24t32.5 -64
q0 -42 -37 -62q23 -9 36 -27z" />
    <glyph glyph-name="uni0438" unicode="&#x438;" horiz-adv-x="362" 
d="M242 300h79v-300h-78v185l-123 -185h-79v300h78v-185z" />
    <glyph glyph-name="uni0439" unicode="&#x439;" horiz-adv-x="362" 
d="M242 300h79v-300h-78v185l-123 -185h-79v300h78v-185zM110.5 348q-26.5 20 -30.5 55l61 8q3 -16 13.5 -24.5t26.5 -8.5q15 0 26 8.5t14 24.5l61 -8q-4 -35 -30.5 -55t-70.5 -20t-70.5 20z" />
    <glyph glyph-name="uni043A" unicode="&#x43a;" horiz-adv-x="343" 
d="M245 0l-85 127l-39 -38v-89h-80v300h80v-120l114 120h100l-119 -118l123 -182h-94z" />
    <glyph glyph-name="uni043B" unicode="&#x43b;" horiz-adv-x="354" 
d="M313 0h-80v228h-98v-88q0 -80 -20.5 -111t-71.5 -31q-14 0 -34 2v72h19q12 0 17.5 5.5t8 21.5t2.5 49v152h257v-300z" />
    <glyph glyph-name="uni043C" unicode="&#x43c;" horiz-adv-x="464" 
d="M423 300v-300h-77v208l-75 -208h-78l-75 208v-208h-77v300h117l75 -207l74 207h116z" />
    <glyph glyph-name="uni043D" unicode="&#x43d;" 
d="M239 300h80v-300h-80v117h-118v-117h-80v300h80v-111h118v111z" />
    <glyph glyph-name="uni043E" unicode="&#x43e;" horiz-adv-x="354" 
d="M63 37.5q-43 42.5 -43 112.5t43 112.5t114 42.5t114 -42.5t43 -112.5t-43 -112.5t-114 -42.5t-114 42.5zM232 84.5q20 23.5 20 65.5t-20 65.5t-55 23.5t-55 -23.5t-20 -65.5t20 -65.5t55 -23.5t55 23.5z" />
    <glyph glyph-name="uni043F" unicode="&#x43f;" 
d="M319 300v-300h-80v228h-118v-228h-80v300h278z" />
    <glyph glyph-name="uni0440" unicode="&#x440;" horiz-adv-x="362" 
d="M307 263q35 -42 35 -113q0 -70 -35.5 -112.5t-92.5 -42.5q-56 0 -93 40v-135h-80v400h72l4 -42q36 47 97 47q58 0 93 -42zM242 85q19 24 19 65t-19 65t-53 24t-52.5 -23.5t-18.5 -65.5t18.5 -65.5t52.5 -23.5t53 24z" />
    <glyph glyph-name="uni0441" unicode="&#x441;" horiz-adv-x="325" 
d="M62.5 37.5q-42.5 42.5 -42.5 112.5t42.5 112.5t112.5 42.5q52 0 89 -24t50 -66l-76 -23q-17 47 -64 47q-33 0 -52.5 -24t-19.5 -65t19.5 -65t52.5 -24q47 0 64 47l76 -23q-13 -42 -50 -66t-89 -24q-70 0 -112.5 42.5z" />
    <glyph glyph-name="uni0442" unicode="&#x442;" horiz-adv-x="308" 
d="M298 300v-72h-104v-228h-80v228h-104v72h288z" />
    <glyph glyph-name="uni0443" unicode="&#x443;" horiz-adv-x="343" 
d="M337 300l-104 -300q-37 -105 -118 -105q-51 0 -75 27.5t-27 67.5l75 13q2 -39 29 -39q17 0 30 21l-141 315h88l91 -226l68 226h84z" />
    <glyph glyph-name="uni0444" unicode="&#x444;" horiz-adv-x="521" 
d="M468 262.5q33 -41.5 33 -112.5q0 -70 -33 -112t-88 -42q-48 0 -79 34v-130h-80v132q-30 -36 -80 -36q-55 0 -88 41.5t-33 112.5q0 70 33 112t88 42q50 0 80 -34v130h80v-130q31 34 79 34q55 0 88 -41.5zM207.5 85q16.5 24 16.5 65t-16.5 65t-44.5 24q-29 0 -45.5 -24
t-16.5 -65t16.5 -65t45.5 -24q28 0 44.5 24zM403.5 85q16.5 24 16.5 65t-16.5 65t-44.5 24q-29 0 -45.5 -24t-16.5 -65t16.5 -65t45.5 -24q28 0 44.5 24z" />
    <glyph glyph-name="uni0445" unicode="&#x445;" horiz-adv-x="340" 
d="M331 0h-93l-68 97l-68 -97h-93l110 152l-105 148h91l66 -95l67 95h89l-105 -149z" />
    <glyph glyph-name="uni0446" unicode="&#x446;" horiz-adv-x="374" 
d="M317 72h40v-142h-77v70h-239v300h80v-228h116v228h80v-228z" />
    <glyph glyph-name="uni0447" unicode="&#x447;" horiz-adv-x="334" 
d="M293 300v-300h-80v104h-59q-61 0 -96 30t-35 83v83h80v-83q0 -23 11.5 -32t39.5 -9h59v124h80z" />
    <glyph glyph-name="uni0448" unicode="&#x448;" horiz-adv-x="506" 
d="M385 300h80v-300h-424v300h80v-228h92v228h80v-228h92v228z" />
    <glyph glyph-name="uni0449" unicode="&#x449;" horiz-adv-x="522" 
d="M465 72h40v-142h-77v70h-387v300h80v-228h92v228h80v-228h92v228h80v-228z" />
    <glyph glyph-name="uni044A" unicode="&#x44a;" horiz-adv-x="368" 
d="M320.5 172q30.5 -26 30.5 -73q0 -46 -31 -72.5t-85 -26.5h-149v228h-76v72h156v-102h69q55 0 85.5 -26zM270 100q0 38 -47 38h-57v-76h57q47 0 47 38z" />
    <glyph glyph-name="uni044B" unicode="&#x44b;" horiz-adv-x="469" 
d="M275.5 172q30.5 -26 30.5 -73q0 -46 -31 -72.5t-85 -26.5h-149v300h80v-102h69q55 0 85.5 -26zM225 100q0 38 -47 38h-57v-76h57q47 0 47 38zM348 300h80v-300h-80v300z" />
    <glyph glyph-name="uni044C" unicode="&#x44c;" horiz-adv-x="323" 
d="M275.5 172q30.5 -26 30.5 -73q0 -46 -31 -72.5t-85 -26.5h-149v300h80v-102h69q55 0 85.5 -26zM225 100q0 38 -47 38h-57v-76h57q47 0 47 38z" />
    <glyph glyph-name="uni044D" unicode="&#x44d;" horiz-adv-x="323" 
d="M261 262.5q42 -42.5 42 -112.5t-42 -112.5t-111 -42.5q-51 0 -88 23t-52 63l71 23q18 -45 68 -45q28 0 48 18t26 48h-108v56h106q-7 28 -26 44t-46 16q-50 0 -69 -45l-69 23q14 40 51.5 63t87.5 23q69 0 111 -42.5z" />
    <glyph glyph-name="uni044E" unicode="&#x44e;" horiz-adv-x="493" 
d="M431.5 262.5q41.5 -42.5 41.5 -112.5t-42 -112.5t-110 -42.5q-60 0 -99.5 32.5t-48.5 89.5h-52v-117h-80v300h80v-111h53q11 54 50 85t97 31q69 0 110.5 -42.5zM372.5 84.5q18.5 23.5 18.5 65.5t-18.5 65.5t-51.5 23.5t-52 -23.5t-19 -65.5t19 -65.5t52 -23.5t51.5 23.5z
" />
    <glyph glyph-name="uni044F" unicode="&#x44f;" horiz-adv-x="333" 
d="M292 0h-79v102h-54l-62 -102h-88l73 114q-27 11 -41.5 33t-14.5 52q0 46 32.5 73.5t88.5 27.5h145v-300zM213 161v75h-56q-24 0 -37 -10t-13 -28t13 -27.5t37 -9.5h56z" />
    <glyph glyph-name="uni0451" unicode="&#x451;" horiz-adv-x="340" 
d="M125.5 77.5q20.5 -16.5 52.5 -16.5q51 0 82 34l49 -48q-49 -52 -132 -52q-76 0 -116.5 43t-40.5 112t41.5 112t110.5 43q68 0 108.5 -42t40.5 -113q0 -12 -3 -26h-219q6 -30 26.5 -46.5zM125.5 225.5q-18.5 -15.5 -25.5 -43.5h141q-6 29 -23.5 44t-45.5 15t-46.5 -15.5z
M71 406h82v-68h-82v68zM187 406h82v-68h-82v68z" />
    <glyph glyph-name="uni0454" unicode="&#x454;" horiz-adv-x="325" 
d="M216 71.5q18 12.5 27 34.5l72 -26q-14 -40 -51.5 -62.5t-88.5 -22.5q-70 0 -112.5 42.5t-42.5 112.5t42.5 112.5t112.5 42.5q51 0 88.5 -22.5t51.5 -62.5l-72 -26q-9 22 -27 34.5t-42 12.5q-27 0 -46 -16t-26 -44h106v-56h-107q6 -31 25 -48.5t48 -17.5q24 0 42 12.5z
" />
    <glyph glyph-name="uni0456" unicode="&#x456;" horiz-adv-x="172" 
d="M46 300h80v-300h-80v300zM43 406h86v-68h-86v68z" />
    <glyph glyph-name="uni0457" unicode="&#x457;" horiz-adv-x="172" 
d="M46 300h80v-300h-80v300zM-13 406h82v-68h-82v68zM103 406h82v-68h-82v68z" />
    <glyph glyph-name="uni045E" unicode="&#x45e;" horiz-adv-x="343" 
d="M337 300l-104 -300q-37 -105 -118 -105q-51 0 -75 27.5t-27 67.5l75 13q2 -39 29 -39q17 0 30 21l-141 315h88l91 -226l68 226h84zM101.5 348q-26.5 20 -30.5 55l61 8q3 -16 13.5 -24.5t26.5 -8.5q15 0 26 8.5t14 24.5l61 -8q-4 -35 -30.5 -55t-70.5 -20t-70.5 20z" />
    <glyph glyph-name="uni0490" unicode="&#x490;" horiz-adv-x="326" 
d="M229 460h84v-158h-176v-302h-86v380h178v80z" />
    <glyph glyph-name="uni0491" unicode="&#x491;" horiz-adv-x="279" 
d="M192 380h77v-154h-148v-226h-80v300h151v80z" />
    <glyph glyph-name="Wgrave" unicode="&#x1e80;" horiz-adv-x="576" 
d="M476 380h86l-110 -380h-90l-75 262l-74 -262h-90l-109 380h88l70 -266l74 266h83l74 -264zM259 404l-61 79h86l30 -79h-55z" />
    <glyph glyph-name="wgrave" unicode="&#x1e81;" horiz-adv-x="487" 
d="M394 300h81l-88 -300h-89l-55 192l-53 -192h-89l-89 300h83l55 -216l57 216h73l59 -219zM215 324l-61 79h86l30 -79h-55z" />
    <glyph glyph-name="Wacute" unicode="&#x1e82;" horiz-adv-x="576" 
d="M476 380h86l-110 -380h-90l-75 262l-74 -262h-90l-109 380h88l70 -266l74 266h83l74 -264zM292 483h86l-61 -79h-55z" />
    <glyph glyph-name="wacute" unicode="&#x1e83;" horiz-adv-x="487" 
d="M394 300h81l-88 -300h-89l-55 192l-53 -192h-89l-89 300h83l55 -216l57 216h73l59 -219zM248 403h86l-61 -79h-55z" />
    <glyph glyph-name="Wdieresis" unicode="&#x1e84;" horiz-adv-x="576" 
d="M476 380h86l-110 -380h-90l-75 262l-74 -262h-90l-109 380h88l70 -266l74 266h83l74 -264zM189 486h82v-68h-82v68zM305 486h82v-68h-82v68z" />
    <glyph glyph-name="wdieresis" unicode="&#x1e85;" horiz-adv-x="487" 
d="M394 300h81l-88 -300h-89l-55 192l-53 -192h-89l-89 300h83l55 -216l57 216h73l59 -219zM145 406h82v-68h-82v68zM261 406h82v-68h-82v68z" />
    <glyph glyph-name="uni1E9E" unicode="&#x1e9e;" horiz-adv-x="444" 
d="M390 191q29 -31 29 -74q0 -51 -37 -86.5t-106 -35.5q-65 0 -107 36l42 57q27 -24 65 -24q27 0 43.5 15t16.5 39t-16 39.5t-43 15.5q-25 0 -44 -14l-36 44l94 103h-154v-306h-86v380h339v-64l-83 -90q54 -4 83 -35z" />
    <glyph glyph-name="Ygrave" unicode="&#x1ef2;" horiz-adv-x="390" 
d="M387 380l-149 -232v-148h-86v149l-149 231h98l95 -154l95 154h96zM167 404l-61 79h86l30 -79h-55z" />
    <glyph glyph-name="ygrave" unicode="&#x1ef3;" horiz-adv-x="343" 
d="M337 300l-104 -300q-37 -105 -118 -105q-51 0 -75 27.5t-27 67.5l75 13q2 -39 29 -39q17 0 30 21l-141 315h88l91 -226l68 226h84zM143 324l-61 79h86l30 -79h-55z" />
    <glyph glyph-name="endash" unicode="&#x2013;" horiz-adv-x="332" 
d="M35 207h262v-74h-262v74z" />
    <glyph glyph-name="emdash" unicode="&#x2014;" horiz-adv-x="452" 
d="M35 207h382v-74h-382v74z" />
    <glyph glyph-name="quoteleft" unicode="&#x2018;" horiz-adv-x="176" 
d="M98 350q-8 -8 -10 -26h45v-94h-94v76q0 47 21.5 70.5t58.5 23.5h14v-42h-9q-18 0 -26 -8z" />
    <glyph glyph-name="quoteright" unicode="&#x2019;" horiz-adv-x="176" 
d="M137 380v-76q0 -47 -21.5 -70.5t-58.5 -23.5h-14v42h9q18 0 26 8t10 26h-45v94h94z" />
    <glyph glyph-name="quotesinglbase" unicode="&#x201a;" horiz-adv-x="180" 
d="M137 94v-76q0 -47 -21.5 -70.5t-58.5 -23.5h-14v42h9q18 0 26 8t10 26h-45v94h94z" />
    <glyph glyph-name="quotedblleft" unicode="&#x201c;" horiz-adv-x="310" 
d="M60.5 376.5q21.5 23.5 58.5 23.5h14v-42h-9q-18 0 -26 -8t-10 -26h45v-94h-94v76q0 47 21.5 70.5zM232 350q-8 -8 -10 -26h45v-94h-94v76q0 47 21.5 70.5t58.5 23.5h14v-42h-9q-18 0 -26 -8z" />
    <glyph glyph-name="quotedblright" unicode="&#x201d;" horiz-adv-x="310" 
d="M137 380v-76q0 -47 -21.5 -70.5t-58.5 -23.5h-14v42h9q18 0 26 8t10 26h-45v94h94zM271 380v-76q0 -47 -21.5 -70.5t-58.5 -23.5h-14v42h9q18 0 26 8t10 26h-45v94h94z" />
    <glyph glyph-name="quotedblbase" unicode="&#x201e;" horiz-adv-x="314" 
d="M137 94v-76q0 -47 -21.5 -70.5t-58.5 -23.5h-14v42h9q18 0 26 8t10 26h-45v94h94zM271 94v-76q0 -47 -21.5 -70.5t-58.5 -23.5h-14v42h9q18 0 26 8t10 26h-45v94h94z" />
    <glyph glyph-name="dagger" unicode="&#x2020;" horiz-adv-x="232" 
d="M192 353v-42h-52v-100h-48v100h-52v42h52v47h48v-47h52z" />
    <glyph glyph-name="daggerdbl" unicode="&#x2021;" horiz-adv-x="232" 
d="M192 320h-52v-29h52v-43h-52v-37h-48v37h-52v43h52v29h-52v43h52v37h48v-37h52v-43z" />
    <glyph glyph-name="bullet" unicode="&#x2022;" horiz-adv-x="384" 
d="M128 106q-26 26 -26 64t26 64t64 26t64 -26t26 -64t-26 -64t-64 -26t-64 26z" />
    <glyph glyph-name="ellipsis" unicode="&#x2026;" horiz-adv-x="484" 
d="M43 94h94v-94h-94v94zM195 94h94v-94h-94v94zM347 94h94v-94h-94v94z" />
    <glyph glyph-name="perthousand" unicode="&#x2030;" horiz-adv-x="784" 
d="M52.5 186q-28.5 31 -28.5 84t28.5 84t77.5 31t77.5 -31t28.5 -84t-28.5 -84t-77.5 -31t-77.5 31zM180 0h-55l241 380h55zM163.5 224q12.5 17 12.5 46t-12.5 46t-33.5 17t-33.5 -17t-12.5 -46t12.5 -46t33.5 -17t33.5 17zM338.5 26q-28.5 31 -28.5 84t28.5 84t77.5 31
t77.5 -31t28.5 -84t-28.5 -84t-77.5 -31t-77.5 31zM580.5 26q-28.5 31 -28.5 84t28.5 84t77.5 31t77.5 -31t28.5 -84t-28.5 -84t-77.5 -31t-77.5 31zM449.5 64q12.5 17 12.5 46t-12.5 46t-33.5 17t-33.5 -17t-12.5 -46t12.5 -46t33.5 -17t33.5 17zM691.5 64q12.5 17 12.5 46
t-12.5 46t-33.5 17t-33.5 -17t-12.5 -46t12.5 -46t33.5 -17t33.5 17z" />
    <glyph glyph-name="prime" unicode="&#x2032;" horiz-adv-x="160" 
d="M84 403h86l-61 -79h-55z" />
    <glyph glyph-name="guilsinglleft" unicode="&#x2039;" horiz-adv-x="190" 
d="M153 293v-82l-59 -40l59 -41v-83l-126 85v76z" />
    <glyph glyph-name="guilsinglright" unicode="&#x203a;" horiz-adv-x="190" 
d="M37 293l126 -85v-76l-126 -85v82l59 40l-59 41v83z" />
    <glyph glyph-name="fraction" unicode="&#x2044;" horiz-adv-x="20" 
d="M103 380h55l-241 -380h-55z" />
    <glyph glyph-name="uni2070" unicode="&#x2070;" horiz-adv-x="234" 
d="M42 264q-28 31 -28 84t28 84t75 31t75 -31t28 -84t-28 -84t-75 -31t-75 31zM150.5 301q12.5 18 12.5 47q0 30 -12.5 48t-33.5 18q-20 0 -32.5 -18t-12.5 -48q0 -29 12.5 -47t32.5 -18q21 0 33.5 18z" />
    <glyph glyph-name="uni2074" unicode="&#x2074;" horiz-adv-x="234" 
d="M222 333v-49h-35v-48h-54v48h-119v46l104 130h69v-127h35zM72 333h61v76z" />
    <glyph glyph-name="uni2075" unicode="&#x2075;" horiz-adv-x="234" 
d="M184 366.5q22 -19.5 22 -51.5q0 -35 -27.5 -58.5t-70.5 -23.5q-29 0 -52.5 11.5t-36.5 30.5l37 32q19 -26 52 -26q19 0 30 8.5t11 24.5q0 14 -10 22t-27 8q-27 0 -40 -16l-38 16l10 116h146v-48h-102l-4 -35q18 9 42 9q36 0 58 -19.5z" />
    <glyph glyph-name="uni2076" unicode="&#x2076;" horiz-adv-x="234" 
d="M195.5 363.5q22.5 -19.5 22.5 -51.5q0 -36 -26.5 -57.5t-67.5 -21.5q-48 0 -74.5 31t-26.5 83t28.5 84t78.5 32t78 -28l-39 -39q-7 8 -19 13t-24 5q-20 0 -34 -14.5t-16 -36.5q20 20 59 20q38 0 60.5 -19.5zM150.5 288.5q9.5 8.5 9.5 22.5t-9.5 22.5t-25.5 8.5
q-17 0 -27.5 -9t-10.5 -23t10 -22t27 -8t26.5 8.5z" />
    <glyph glyph-name="uni2077" unicode="&#x2077;" horiz-adv-x="205" 
d="M198 460v-47q-38 -30 -59.5 -76.5t-21.5 -100.5h-59q0 48 21 94t57 78h-132v52h194z" />
    <glyph glyph-name="uni2078" unicode="&#x2078;" horiz-adv-x="234" 
d="M213 299q0 -31 -25.5 -48.5t-70.5 -17.5t-70.5 17.5t-25.5 48.5q0 35 35 52q-28 17 -28 47t24 47.5t65 17.5t65 -17.5t24 -47.5q0 -14 -7.5 -26.5t-20.5 -19.5q35 -19 35 -53zM89 411.5q-10 -6.5 -10 -17.5q0 -10 10 -16t28 -6t28 6t10 16q0 11 -10 17.5t-28 6.5
t-28 -6.5zM147 284.5q11 6.5 11 17.5t-11 17.5t-30 6.5t-30 -6.5t-11 -17.5t11 -17.5t30 -6.5t30 6.5z" />
    <glyph glyph-name="uni2079" unicode="&#x2079;" horiz-adv-x="234" 
d="M184.5 432q26.5 -31 26.5 -83t-28.5 -84t-78.5 -32t-78 28l39 39q7 -8 19 -13t24 -5q20 0 34 14.5t16 36.5q-20 -20 -59 -20q-38 0 -60.5 19.5t-22.5 51.5q0 36 26.5 57.5t67.5 21.5q48 0 74.5 -31zM136.5 363q10.5 9 10.5 23t-10 22t-27 8t-26.5 -8.5t-9.5 -22.5
t9.5 -22.5t25.5 -8.5q17 0 27.5 9z" />
    <glyph glyph-name="uni2080" unicode="&#x2080;" horiz-adv-x="234" 
d="M42 -52q-28 31 -28 84t28 84t75 31t75 -31t28 -84t-28 -84t-75 -31t-75 31zM150.5 -15q12.5 18 12.5 47q0 30 -12.5 48t-33.5 18q-20 0 -32.5 -18t-12.5 -48q0 -29 12.5 -47t32.5 -18q21 0 33.5 18z" />
    <glyph glyph-name="uni2081" unicode="&#x2081;" horiz-adv-x="190" 
d="M87 -80v139h-62v46h18q31 0 42.5 8t13.5 31h45v-224h-57z" />
    <glyph glyph-name="uni2082" unicode="&#x2082;" horiz-adv-x="234" 
d="M215 -30v-50h-188v41l88 60q17 12 27 25.5t10 26.5q0 12 -8.5 19t-23.5 7q-18 0 -28.5 -10t-10.5 -27l-54 7q2 35 27.5 56.5t68.5 21.5q39 0 63 -18.5t24 -49.5q0 -23 -16.5 -44.5t-59.5 -51.5l-18 -13h99z" />
    <glyph glyph-name="uni2083" unicode="&#x2083;" horiz-adv-x="234" 
d="M191.5 36q17.5 -18 17.5 -44q0 -33 -26.5 -54t-69.5 -21q-35 0 -60.5 14.5t-36.5 40.5l42 26q8 -15 22.5 -24t32.5 -9t28.5 8.5t10.5 22.5q0 13 -9.5 20t-23.5 7t-26 -6l-23 29l58 48h-99v50h171v-44l-54 -43q28 -3 45.5 -21z" />
    <glyph glyph-name="uni2084" unicode="&#x2084;" horiz-adv-x="234" 
d="M222 17v-49h-35v-48h-54v48h-119v46l104 130h69v-127h35zM72 17h61v76z" />
    <glyph glyph-name="uni2085" unicode="&#x2085;" horiz-adv-x="234" 
d="M184 50.5q22 -19.5 22 -51.5q0 -35 -27.5 -58.5t-70.5 -23.5q-29 0 -52.5 11.5t-36.5 30.5l37 32q19 -26 52 -26q19 0 30 8.5t11 24.5q0 14 -10 22t-27 8q-27 0 -40 -16l-38 16l10 116h146v-48h-102l-4 -35q18 9 42 9q36 0 58 -19.5z" />
    <glyph glyph-name="uni2086" unicode="&#x2086;" horiz-adv-x="234" 
d="M195.5 47.5q22.5 -19.5 22.5 -51.5q0 -36 -26.5 -57.5t-67.5 -21.5q-48 0 -74.5 31t-26.5 83t28.5 84t78.5 32t78 -28l-39 -39q-7 8 -19 13t-24 5q-20 0 -34 -14.5t-16 -36.5q20 20 59 20q38 0 60.5 -19.5zM150.5 -27.5q9.5 8.5 9.5 22.5t-9.5 22.5t-25.5 8.5
q-17 0 -27.5 -9t-10.5 -23t10 -22t27 -8t26.5 8.5z" />
    <glyph glyph-name="uni2087" unicode="&#x2087;" horiz-adv-x="205" 
d="M198 144v-47q-38 -30 -59.5 -76.5t-21.5 -100.5h-59q0 48 21 94t57 78h-132v52h194z" />
    <glyph glyph-name="uni2088" unicode="&#x2088;" horiz-adv-x="234" 
d="M213 -17q0 -31 -25.5 -48.5t-70.5 -17.5t-70.5 17.5t-25.5 48.5q0 35 35 52q-28 17 -28 47t24 47.5t65 17.5t65 -17.5t24 -47.5q0 -14 -7.5 -26.5t-20.5 -19.5q35 -19 35 -53zM89 95.5q-10 -6.5 -10 -17.5q0 -10 10 -16t28 -6t28 6t10 16q0 11 -10 17.5t-28 6.5t-28 -6.5
zM147 -31.5q11 6.5 11 17.5t-11 17.5t-30 6.5t-30 -6.5t-11 -17.5t11 -17.5t30 -6.5t30 6.5z" />
    <glyph glyph-name="uni2089" unicode="&#x2089;" horiz-adv-x="234" 
d="M184.5 116q26.5 -31 26.5 -83t-28.5 -84t-78.5 -32t-78 28l39 39q7 -8 19 -13t24 -5q20 0 34 14.5t16 36.5q-20 -20 -59 -20q-38 0 -60.5 19.5t-22.5 51.5q0 36 26.5 57.5t67.5 21.5q48 0 74.5 -31zM136.5 47q10.5 9 10.5 23t-10 22t-27 8t-26.5 -8.5t-9.5 -22.5
t9.5 -22.5t25.5 -8.5q17 0 27.5 9z" />
    <glyph glyph-name="Euro" unicode="&#x20ac;" 
d="M245 76q16 15 24 42l74 -34q-18 -42 -53 -65.5t-83 -23.5q-59 0 -99 35t-54 98h-45v44h39v18v18h-39v44h45q14 63 54 98t99 35q48 0 83 -23.5t53 -65.5l-74 -34q-8 27 -24 42t-39 15q-26 0 -44 -17t-26 -50h90v-44h-97v-18v-18h97v-44h-90q8 -33 26 -50t44 -17
q23 0 39 15z" />
    <glyph glyph-name="uni20BD" unicode="&#x20bd;" horiz-adv-x="369" 
d="M156 156v-36h135v-44h-135v-76h-85v76h-57v44h57v36h-57v44h57v180h145q62 0 97.5 -30t35.5 -82q0 -53 -35.5 -82.5t-97.5 -29.5h-60zM156 304v-104h38q33 0 50.5 13.5t17.5 38.5q0 52 -68 52h-38z" />
    <glyph glyph-name="uni2116" unicode="&#x2116;" horiz-adv-x="623" 
d="M302 138v242h83v-380h-80l-171 242v-242h-83v380h81zM455.5 240.5q-23.5 22.5 -23.5 58.5t23.5 58.5t61.5 22.5t61.5 -22.5t23.5 -58.5t-23.5 -58.5t-61.5 -22.5t-61.5 22.5zM489 326.5q-11 -10.5 -11 -27.5t11 -27.5t28 -10.5t28 10.5t11 27.5t-11 27.5t-28 10.5
t-28 -10.5zM442 133v50h150v-50h-150z" />
    <glyph glyph-name="trademark" unicode="&#x2122;" horiz-adv-x="522" 
d="M199 380v-51h-63v-139h-56v139h-63v51h182zM478 380v-190h-56v126l-45 -126h-51l-45 126v-126h-55v190h80l46 -126l46 126h80z" />
    <glyph glyph-name="oneeighth" unicode="&#x215b;" horiz-adv-x="444" 
d="M87 156v139h-62v46h18q31 0 42.5 8t13.5 31h45v-224h-57zM293 380h55l-241 -380h-55zM423 63q0 -31 -25.5 -48.5t-70.5 -17.5t-70.5 17.5t-25.5 48.5q0 35 35 52q-28 17 -28 47t24 47.5t65 17.5t65 -17.5t24 -47.5q0 -14 -7.5 -26.5t-20.5 -19.5q35 -19 35 -53z
M299 175.5q-10 -6.5 -10 -17.5q0 -10 10 -16t28 -6t28 6t10 16q0 11 -10 17.5t-28 6.5t-28 -6.5zM357 48.5q11 6.5 11 17.5t-11 17.5t-30 6.5t-30 -6.5t-11 -17.5t11 -17.5t30 -6.5t30 6.5z" />
    <glyph glyph-name="threeeighths" unicode="&#x215c;" horiz-adv-x="488" 
d="M191.5 272q17.5 -18 17.5 -44q0 -33 -26.5 -54t-69.5 -21q-35 0 -60.5 14.5t-36.5 40.5l42 26q8 -15 22.5 -24t32.5 -9t28.5 8.5t10.5 22.5q0 13 -9.5 20t-23.5 7t-26 -6l-23 29l58 48h-99v50h171v-44l-54 -43q28 -3 45.5 -21zM337 380h55l-241 -380h-55zM467 63
q0 -31 -25.5 -48.5t-70.5 -17.5t-70.5 17.5t-25.5 48.5q0 35 35 52q-28 17 -28 47t24 47.5t65 17.5t65 -17.5t24 -47.5q0 -14 -7.5 -26.5t-20.5 -19.5q35 -19 35 -53zM343 175.5q-10 -6.5 -10 -17.5q0 -10 10 -16t28 -6t28 6t10 16q0 11 -10 17.5t-28 6.5t-28 -6.5z
M401 48.5q11 6.5 11 17.5t-11 17.5t-30 6.5t-30 -6.5t-11 -17.5t11 -17.5t30 -6.5t30 6.5z" />
    <glyph glyph-name="fiveeighths" unicode="&#x215d;" horiz-adv-x="488" 
d="M184 286.5q22 -19.5 22 -51.5q0 -35 -27.5 -58.5t-70.5 -23.5q-29 0 -52.5 11.5t-36.5 30.5l37 32q19 -26 52 -26q19 0 30 8.5t11 24.5q0 14 -10 22t-27 8q-27 0 -40 -16l-38 16l10 116h146v-48h-102l-4 -35q18 9 42 9q36 0 58 -19.5zM337 380h55l-241 -380h-55zM467 63
q0 -31 -25.5 -48.5t-70.5 -17.5t-70.5 17.5t-25.5 48.5q0 35 35 52q-28 17 -28 47t24 47.5t65 17.5t65 -17.5t24 -47.5q0 -14 -7.5 -26.5t-20.5 -19.5q35 -19 35 -53zM343 175.5q-10 -6.5 -10 -17.5q0 -10 10 -16t28 -6t28 6t10 16q0 11 -10 17.5t-28 6.5t-28 -6.5z
M401 48.5q11 6.5 11 17.5t-11 17.5t-30 6.5t-30 -6.5t-11 -17.5t11 -17.5t30 -6.5t30 6.5z" />
    <glyph glyph-name="seveneighths" unicode="&#x215e;" horiz-adv-x="459" 
d="M198 380v-47q-38 -30 -59.5 -76.5t-21.5 -100.5h-59q0 48 21 94t57 78h-132v52h194zM294 380h55l-241 -380h-55zM438 63q0 -31 -25.5 -48.5t-70.5 -17.5t-70.5 17.5t-25.5 48.5q0 35 35 52q-28 17 -28 47t24 47.5t65 17.5t65 -17.5t24 -47.5q0 -14 -7.5 -26.5
t-20.5 -19.5q35 -19 35 -53zM314 175.5q-10 -6.5 -10 -17.5q0 -10 10 -16t28 -6t28 6t10 16q0 11 -10 17.5t-28 6.5t-28 -6.5zM372 48.5q11 6.5 11 17.5t-11 17.5t-30 6.5t-30 -6.5t-11 -17.5t11 -17.5t30 -6.5t30 6.5z" />
    <glyph glyph-name="arrowboth" unicode="&#x2194;" horiz-adv-x="463" 
d="M305 352l162 -162l-162 -162l-52 53l73 73h-189l74 -73l-53 -53l-162 162l162 162l53 -52l-74 -74h189l-73 74z" />
    <glyph glyph-name="arrowupdn" unicode="&#x2195;" horiz-adv-x="400" 
d="M236 79l74 74l52 -53l-162 -162l-162 162l53 53l73 -74v189l-73 -73l-53 52l162 162l162 -162l-52 -52l-74 73v-189z" />
    <glyph glyph-name="minus" unicode="&#x2212;" 
d="M42 221h276v-62h-276v62z" />
    <glyph glyph-name="approxequal" unicode="&#x2248;" 
d="M58.5 148q24.5 22 60.5 22q20 0 34.5 -5.5t36.5 -17.5q16 -9 27 -13.5t24 -4.5t26 10t22 28l48 -32q-10 -24 -35 -46t-61 -22q-20 0 -34.5 5.5t-36.5 17.5q-16 9 -27 13.5t-24 4.5t-26 -10t-22 -28l-48 32q11 24 35.5 46zM58.5 292q24.5 22 60.5 22q20 0 34.5 -5.5
t36.5 -17.5q16 -9 27 -13.5t24 -4.5t26 10t22 28l48 -32q-10 -24 -35 -46t-61 -22q-20 0 -34.5 5.5t-36.5 17.5q-16 9 -27 13.5t-24 4.5t-26 -10t-22 -28l-48 32q11 24 35.5 46z" />
    <glyph glyph-name="notequal" unicode="&#x2260;" 
d="M318 231h-84l-44 -82h128v-62h-160l-22 -41h-64l22 41h-52v62h84l44 82h-128v62h160l22 41h64l-22 -41h52v-62z" />
    <glyph glyph-name="lessequal" unicode="&#x2264;" 
d="M318 367v-67l-183 -72l183 -72v-69l-276 110v60zM42 0v62h276v-62h-276z" />
    <glyph glyph-name="greaterequal" unicode="&#x2265;" 
d="M42 367l276 -110v-60l-276 -110v67l183 72l-183 72v69zM42 62h276v-62h-276v62z" />
    <glyph glyph-name="K.ss01" horiz-adv-x="398" 
d="M352 83q5 -5 12 -5h14v-78h-44q-35 0 -54 18.5t-19 52.5v83h-124v-154h-86v380h86v-150h57l90 150h94l-97 -150h66v-135q0 -7 5 -12z" />
    <glyph glyph-name="uni0136.ss01" horiz-adv-x="398" 
d="M352 83q5 -5 12 -5h14v-78h-44q-35 0 -54 18.5t-19 52.5v83h-124v-154h-86v380h86v-150h57l90 150h94l-97 -150h66v-135q0 -7 5 -12zM242 -30v-30q0 -30 -15.5 -46.5t-43.5 -16.5h-23v27h17q18 0 20 18h-37v48h82z" />
    <glyph glyph-name="R.ss01" horiz-adv-x="396" 
d="M381 78v-78h-44q-35 0 -54 18.5t-19 52.5v69h-127v-140h-86v380h176q65 0 102 -28t37 -78q0 -36 -23 -61t-57 -36h64v-82q0 -7 5 -12t12 -5h14zM137 310v-104h77q33 0 49.5 12.5t16.5 39.5q0 52 -66 52h-77z" />
    <glyph glyph-name="Racute.ss01" horiz-adv-x="396" 
d="M381 78v-78h-44q-35 0 -54 18.5t-19 52.5v69h-127v-140h-86v380h176q65 0 102 -28t37 -78q0 -36 -23 -61t-57 -36h64v-82q0 -7 5 -12t12 -5h14zM137 310v-104h77q33 0 49.5 12.5t16.5 39.5q0 52 -66 52h-77zM186 483h86l-61 -79h-55z" />
    <glyph glyph-name="Rcaron.ss01" horiz-adv-x="396" 
d="M381 78v-78h-44q-35 0 -54 18.5t-19 52.5v69h-127v-140h-86v380h176q65 0 102 -28t37 -78q0 -36 -23 -61t-57 -36h64v-82q0 -7 5 -12t12 -5h14zM137 310v-104h77q33 0 49.5 12.5t16.5 39.5q0 52 -66 52h-77zM220 483h66l-65 -79h-78l-64 79h66l38 -38z" />
    <glyph glyph-name="uni0156.ss01" horiz-adv-x="396" 
d="M381 78v-78h-44q-35 0 -54 18.5t-19 52.5v69h-127v-140h-86v380h176q65 0 102 -28t37 -78q0 -36 -23 -61t-57 -36h64v-82q0 -7 5 -12t12 -5h14zM137 310v-104h77q33 0 49.5 12.5t16.5 39.5q0 52 -66 52h-77zM247 -30v-30q0 -30 -15.5 -46.5t-43.5 -16.5h-23v27h17
q18 0 20 18h-37v48h82z" />
    <glyph glyph-name="Y.ss01" horiz-adv-x="377" 
d="M372 380l-103 -279q-19 -54 -50.5 -80t-76.5 -26q-47 0 -76 28t-29 73q0 49 34 80h37l-105 204h94l97 -204h21l66 204h91zM189 97l7 20h-79q-6 -9 -6 -21q0 -16 8.5 -25t24.5 -9q31 0 45 35z" />
    <glyph glyph-name="Yacute.ss01" horiz-adv-x="377" 
d="M372 380l-103 -279q-19 -54 -50.5 -80t-76.5 -26q-47 0 -76 28t-29 73q0 49 34 80h37l-105 204h94l97 -204h21l66 204h91zM189 97l7 20h-79q-6 -9 -6 -21q0 -16 8.5 -25t24.5 -9q31 0 45 35zM195 483h86l-61 -79h-55z" />
    <glyph glyph-name="Ycircumflex.ss01" horiz-adv-x="377" 
d="M372 380l-103 -279q-19 -54 -50.5 -80t-76.5 -26q-47 0 -76 28t-29 73q0 49 34 80h37l-105 204h94l97 -204h21l66 204h91zM189 97l7 20h-79q-6 -9 -6 -21q0 -16 8.5 -25t24.5 -9q31 0 45 35zM296 404h-66l-37 38l-38 -38h-66l65 79h78z" />
    <glyph glyph-name="Ydieresis.ss01" horiz-adv-x="377" 
d="M372 380l-103 -279q-19 -54 -50.5 -80t-76.5 -26q-47 0 -76 28t-29 73q0 49 34 80h37l-105 204h94l97 -204h21l66 204h91zM189 97l7 20h-79q-6 -9 -6 -21q0 -16 8.5 -25t24.5 -9q31 0 45 35zM92 486h82v-68h-82v68zM208 486h82v-68h-82v68z" />
    <glyph glyph-name="Ygrave.ss01" horiz-adv-x="377" 
d="M372 380l-103 -279q-19 -54 -50.5 -80t-76.5 -26q-47 0 -76 28t-29 73q0 49 34 80h37l-105 204h94l97 -204h21l66 204h91zM189 97l7 20h-79q-6 -9 -6 -21q0 -16 8.5 -25t24.5 -9q31 0 45 35zM162 404l-61 79h86l30 -79h-55z" />
    <glyph glyph-name="K.ss02" horiz-adv-x="409" 
d="M300 0l-113 170l-50 -50v-120h-86v380h86v-161l152 161h107l-148 -149l154 -231h-102z" />
    <glyph glyph-name="uni0136.ss02" horiz-adv-x="409" 
d="M300 0l-113 170l-50 -50v-120h-86v380h86v-161l152 161h107l-148 -149l154 -231h-102zM242 -30v-30q0 -30 -15.5 -46.5t-43.5 -16.5h-23v27h17q18 0 20 18h-37v48h82z" />
    <glyph glyph-name="R.ss02" horiz-adv-x="397" 
d="M205 140h-69v-140h-85v380h168q68 0 105.5 -31.5t37.5 -87.5q0 -39 -18.5 -67t-53.5 -42l92 -152h-96zM136 207h77q62 0 62 51q0 50 -62 50h-77v-101z" />
    <glyph glyph-name="Racute.ss02" horiz-adv-x="397" 
d="M205 140h-69v-140h-85v380h168q68 0 105.5 -31.5t37.5 -87.5q0 -39 -18.5 -67t-53.5 -42l92 -152h-96zM136 207h77q62 0 62 51q0 50 -62 50h-77v-101zM186 483h86l-61 -79h-55z" />
    <glyph glyph-name="Rcaron.ss02" horiz-adv-x="397" 
d="M205 140h-69v-140h-85v380h168q68 0 105.5 -31.5t37.5 -87.5q0 -39 -18.5 -67t-53.5 -42l92 -152h-96zM136 207h77q62 0 62 51q0 50 -62 50h-77v-101zM220 483h66l-65 -79h-78l-64 79h66l38 -38z" />
    <glyph glyph-name="uni0156.ss02" horiz-adv-x="397" 
d="M205 140h-69v-140h-85v380h168q68 0 105.5 -31.5t37.5 -87.5q0 -39 -18.5 -67t-53.5 -42l92 -152h-96zM136 207h77q62 0 62 51q0 50 -62 50h-77v-101zM247 -30v-30q0 -30 -15.5 -46.5t-43.5 -16.5h-23v27h17q18 0 20 18h-37v48h82z" />
    <glyph glyph-name="Y.ss02" horiz-adv-x="390" 
d="M387 380l-149 -232v-148h-86v149l-149 231h98l95 -154l95 154h96z" />
    <glyph glyph-name="Yacute.ss02" horiz-adv-x="390" 
d="M387 380l-149 -232v-148h-86v149l-149 231h98l95 -154l95 154h96zM200 483h86l-61 -79h-55z" />
    <glyph glyph-name="Ycircumflex.ss02" horiz-adv-x="390" 
d="M387 380l-149 -232v-148h-86v149l-149 231h98l95 -154l95 154h96zM301 404h-66l-37 38l-38 -38h-66l65 79h78z" />
    <glyph glyph-name="Ydieresis.ss02" horiz-adv-x="390" 
d="M387 380l-149 -232v-148h-86v149l-149 231h98l95 -154l95 154h96zM97 486h82v-68h-82v68zM213 486h82v-68h-82v68z" />
    <glyph glyph-name="Ygrave.ss02" horiz-adv-x="390" 
d="M387 380l-149 -232v-148h-86v149l-149 231h98l95 -154l95 154h96zM167 404l-61 79h86l30 -79h-55z" />
    <glyph glyph-name="K.ss03" horiz-adv-x="398" 
d="M352 83q5 -5 12 -5h14v-78h-44q-35 0 -54 18.5t-19 52.5v83h-124v-154h-86v380h86v-150h57l90 150h94l-97 -150h66v-135q0 -7 5 -12z" />
    <glyph glyph-name="uni0136.ss03" horiz-adv-x="398" 
d="M352 83q5 -5 12 -5h14v-78h-44q-35 0 -54 18.5t-19 52.5v83h-124v-154h-86v380h86v-150h57l90 150h94l-97 -150h66v-135q0 -7 5 -12zM242 -30v-30q0 -30 -15.5 -46.5t-43.5 -16.5h-23v27h17q18 0 20 18h-37v48h82z" />
    <glyph glyph-name="R.ss03" horiz-adv-x="396" 
d="M381 78v-78h-44q-35 0 -54 18.5t-19 52.5v69h-127v-140h-86v380h176q65 0 102 -28t37 -78q0 -36 -23 -61t-57 -36h64v-82q0 -7 5 -12t12 -5h14zM137 310v-104h77q33 0 49.5 12.5t16.5 39.5q0 52 -66 52h-77z" />
    <glyph glyph-name="Racute.ss03" horiz-adv-x="396" 
d="M381 78v-78h-44q-35 0 -54 18.5t-19 52.5v69h-127v-140h-86v380h176q65 0 102 -28t37 -78q0 -36 -23 -61t-57 -36h64v-82q0 -7 5 -12t12 -5h14zM137 310v-104h77q33 0 49.5 12.5t16.5 39.5q0 52 -66 52h-77zM186 483h86l-61 -79h-55z" />
    <glyph glyph-name="Rcaron.ss03" horiz-adv-x="396" 
d="M381 78v-78h-44q-35 0 -54 18.5t-19 52.5v69h-127v-140h-86v380h176q65 0 102 -28t37 -78q0 -36 -23 -61t-57 -36h64v-82q0 -7 5 -12t12 -5h14zM137 310v-104h77q33 0 49.5 12.5t16.5 39.5q0 52 -66 52h-77zM220 483h66l-65 -79h-78l-64 79h66l38 -38z" />
    <glyph glyph-name="uni0156.ss03" horiz-adv-x="396" 
d="M381 78v-78h-44q-35 0 -54 18.5t-19 52.5v69h-127v-140h-86v380h176q65 0 102 -28t37 -78q0 -36 -23 -61t-57 -36h64v-82q0 -7 5 -12t12 -5h14zM137 310v-104h77q33 0 49.5 12.5t16.5 39.5q0 52 -66 52h-77zM247 -30v-30q0 -30 -15.5 -46.5t-43.5 -16.5h-23v27h17
q18 0 20 18h-37v48h82z" />
    <glyph glyph-name="Y.ss03" horiz-adv-x="377" 
d="M372 380l-103 -279q-19 -54 -50.5 -80t-76.5 -26q-47 0 -76 28t-29 73q0 49 34 80h37l-105 204h94l97 -204h21l66 204h91zM189 97l7 20h-79q-6 -9 -6 -21q0 -16 8.5 -25t24.5 -9q31 0 45 35z" />
    <glyph glyph-name="Yacute.ss03" horiz-adv-x="377" 
d="M372 380l-103 -279q-19 -54 -50.5 -80t-76.5 -26q-47 0 -76 28t-29 73q0 49 34 80h37l-105 204h94l97 -204h21l66 204h91zM189 97l7 20h-79q-6 -9 -6 -21q0 -16 8.5 -25t24.5 -9q31 0 45 35zM199 483h86l-61 -79h-55z" />
    <glyph glyph-name="Ycircumflex.ss03" horiz-adv-x="377" 
d="M372 380l-103 -279q-19 -54 -50.5 -80t-76.5 -26q-47 0 -76 28t-29 73q0 49 34 80h37l-105 204h94l97 -204h21l66 204h91zM189 97l7 20h-79q-6 -9 -6 -21q0 -16 8.5 -25t24.5 -9q31 0 45 35zM300 404h-66l-37 38l-38 -38h-66l65 79h78z" />
    <glyph glyph-name="Ydieresis.ss03" horiz-adv-x="377" 
d="M372 380l-103 -279q-19 -54 -50.5 -80t-76.5 -26q-47 0 -76 28t-29 73q0 49 34 80h37l-105 204h94l97 -204h21l66 204h91zM189 97l7 20h-79q-6 -9 -6 -21q0 -16 8.5 -25t24.5 -9q31 0 45 35zM96 486h82v-68h-82v68zM212 486h82v-68h-82v68z" />
    <glyph glyph-name="Ygrave.ss03" horiz-adv-x="377" 
d="M372 380l-103 -279q-19 -54 -50.5 -80t-76.5 -26q-47 0 -76 28t-29 73q0 49 34 80h37l-105 204h94l97 -204h21l66 204h91zM189 97l7 20h-79q-6 -9 -6 -21q0 -16 8.5 -25t24.5 -9q31 0 45 35zM166 404l-61 79h86l30 -79h-55z" />
    <glyph glyph-name="K.ss04" horiz-adv-x="399" 
d="M349 83q5 -5 12 -5h14v-78h-44q-35 0 -54 18.5t-19 52.5v45q0 20 -9 29t-28 9h-84v-154h-86v380h86v-149h66l82 149h92l-92 -157q29 -7 44 -28.5t15 -55.5v-44q0 -7 5 -12z" />
    <glyph glyph-name="uni0136.ss04" horiz-adv-x="399" 
d="M349 83q5 -5 12 -5h14v-78h-44q-35 0 -54 18.5t-19 52.5v45q0 20 -9 29t-28 9h-84v-154h-86v380h86v-149h66l82 149h92l-92 -157q29 -7 44 -28.5t15 -55.5v-44q0 -7 5 -12zM242 -30v-30q0 -30 -15.5 -46.5t-43.5 -16.5h-23v27h17q18 0 20 18h-37v48h82z" />
    <glyph glyph-name="R.ss04" horiz-adv-x="396" 
d="M377 78v-78h-49q-29 0 -47.5 18.5t-18.5 49.5v33q0 39 -37 39h-88v-140h-86v380h171q65 0 102 -29t37 -79q0 -63 -53 -89q38 -16 38 -66v-22q0 -7 5 -12t12 -5h14zM137 310v-104h71q34 0 50.5 12.5t16.5 39.5q0 52 -67 52h-71z" />
    <glyph glyph-name="Racute.ss04" horiz-adv-x="396" 
d="M377 78v-78h-49q-29 0 -47.5 18.5t-18.5 49.5v33q0 39 -37 39h-88v-140h-86v380h171q65 0 102 -29t37 -79q0 -63 -53 -89q38 -16 38 -66v-22q0 -7 5 -12t12 -5h14zM137 310v-104h71q34 0 50.5 12.5t16.5 39.5q0 52 -67 52h-71zM186 483h86l-61 -79h-55z" />
    <glyph glyph-name="Rcaron.ss04" horiz-adv-x="396" 
d="M377 78v-78h-49q-29 0 -47.5 18.5t-18.5 49.5v33q0 39 -37 39h-88v-140h-86v380h171q65 0 102 -29t37 -79q0 -63 -53 -89q38 -16 38 -66v-22q0 -7 5 -12t12 -5h14zM137 310v-104h71q34 0 50.5 12.5t16.5 39.5q0 52 -67 52h-71zM220 483h66l-65 -79h-78l-64 79h66l38 -38z
" />
    <glyph glyph-name="uni0156.ss04" horiz-adv-x="396" 
d="M377 78v-78h-49q-29 0 -47.5 18.5t-18.5 49.5v33q0 39 -37 39h-88v-140h-86v380h171q65 0 102 -29t37 -79q0 -63 -53 -89q38 -16 38 -66v-22q0 -7 5 -12t12 -5h14zM137 310v-104h71q34 0 50.5 12.5t16.5 39.5q0 52 -67 52h-71zM247 -30v-30q0 -30 -15.5 -46.5
t-43.5 -16.5h-23v27h17q18 0 20 18h-37v48h82z" />
    <glyph glyph-name="K.ss05" horiz-adv-x="399" 
d="M349 83q5 -5 12 -5h14v-78h-44q-35 0 -54 18.5t-19 52.5v45q0 20 -9 29t-28 9h-84v-154h-86v380h86v-149h66l82 149h92l-92 -157q29 -7 44 -28.5t15 -55.5v-44q0 -7 5 -12z" />
    <glyph glyph-name="uni0136.ss05" horiz-adv-x="399" 
d="M349 83q5 -5 12 -5h14v-78h-44q-35 0 -54 18.5t-19 52.5v45q0 20 -9 29t-28 9h-84v-154h-86v380h86v-149h66l82 149h92l-92 -157q29 -7 44 -28.5t15 -55.5v-44q0 -7 5 -12zM242 -30v-30q0 -30 -15.5 -46.5t-43.5 -16.5h-23v27h17q18 0 20 18h-37v48h82z" />
    <glyph glyph-name="R.ss05" horiz-adv-x="396" 
d="M377 78v-78h-49q-29 0 -47.5 18.5t-18.5 49.5v33q0 39 -37 39h-88v-140h-86v380h171q65 0 102 -29t37 -79q0 -63 -53 -89q38 -16 38 -66v-22q0 -7 5 -12t12 -5h14zM137 310v-104h71q34 0 50.5 12.5t16.5 39.5q0 52 -67 52h-71z" />
    <glyph glyph-name="Racute.ss05" horiz-adv-x="396" 
d="M377 78v-78h-49q-29 0 -47.5 18.5t-18.5 49.5v33q0 39 -37 39h-88v-140h-86v380h171q65 0 102 -29t37 -79q0 -63 -53 -89q38 -16 38 -66v-22q0 -7 5 -12t12 -5h14zM137 310v-104h71q34 0 50.5 12.5t16.5 39.5q0 52 -67 52h-71zM186 483h86l-61 -79h-55z" />
    <glyph glyph-name="Rcaron.ss05" horiz-adv-x="396" 
d="M377 78v-78h-49q-29 0 -47.5 18.5t-18.5 49.5v33q0 39 -37 39h-88v-140h-86v380h171q65 0 102 -29t37 -79q0 -63 -53 -89q38 -16 38 -66v-22q0 -7 5 -12t12 -5h14zM137 310v-104h71q34 0 50.5 12.5t16.5 39.5q0 52 -67 52h-71zM220 483h66l-65 -79h-78l-64 79h66l38 -38z
" />
    <glyph glyph-name="uni0156.ss05" horiz-adv-x="396" 
d="M377 78v-78h-49q-29 0 -47.5 18.5t-18.5 49.5v33q0 39 -37 39h-88v-140h-86v380h171q65 0 102 -29t37 -79q0 -63 -53 -89q38 -16 38 -66v-22q0 -7 5 -12t12 -5h14zM137 310v-104h71q34 0 50.5 12.5t16.5 39.5q0 52 -67 52h-71zM247 -30v-30q0 -30 -15.5 -46.5
t-43.5 -16.5h-23v27h17q18 0 20 18h-37v48h82z" />
    <glyph glyph-name="i.loclTRK" horiz-adv-x="172" 
d="M46 300h80v-300h-80v300zM43 406h86v-68h-86v68z" />
    <glyph glyph-name="k.ss01" horiz-adv-x="336" 
d="M319 70v-70q-13 -1 -35 -1q-70 0 -70 65v53h-93v-117h-80v400h80v-210h39l72 110h84l-76 -110h51v-105q0 -7 4 -11t11 -4h13z" />
    <glyph glyph-name="uni0137.ss01" horiz-adv-x="336" 
d="M319 70v-70q-13 -1 -35 -1q-70 0 -70 65v53h-93v-117h-80v400h80v-210h39l72 110h84l-76 -110h51v-105q0 -7 4 -11t11 -4h13zM196 -30v-30q0 -30 -15.5 -46.5t-43.5 -16.5h-23v27h17q18 0 20 18h-37v48h82z" />
    <glyph glyph-name="y.ss01" horiz-adv-x="343" 
d="M337 300l-95 -289q-20 -61 -49 -88.5t-73 -27.5q-45 0 -72.5 27t-27.5 71q0 42 31 76h42l-89 231h86l79 -231h16l67 231h85zM161 -1l4 13h-72q-5 -12 -5 -22q0 -13 9 -21.5t23 -8.5q29 0 41 39z" />
    <glyph glyph-name="yacute.ss01" horiz-adv-x="343" 
d="M337 300l-95 -289q-20 -61 -49 -88.5t-73 -27.5q-45 0 -72.5 27t-27.5 71q0 42 31 76h42l-89 231h86l79 -231h16l67 231h85zM161 -1l4 13h-72q-5 -12 -5 -22q0 -13 9 -21.5t23 -8.5q29 0 41 39zM176 403h86l-61 -79h-55z" />
    <glyph glyph-name="ycircumflex.ss01" horiz-adv-x="343" 
d="M337 300l-95 -289q-20 -61 -49 -88.5t-73 -27.5q-45 0 -72.5 27t-27.5 71q0 42 31 76h42l-89 231h86l79 -231h16l67 231h85zM161 -1l4 13h-72q-5 -12 -5 -22q0 -13 9 -21.5t23 -8.5q29 0 41 39zM277 324h-66l-37 38l-38 -38h-66l65 79h78z" />
    <glyph glyph-name="ydieresis.ss01" horiz-adv-x="343" 
d="M337 300l-95 -289q-20 -61 -49 -88.5t-73 -27.5q-45 0 -72.5 27t-27.5 71q0 42 31 76h42l-89 231h86l79 -231h16l67 231h85zM161 -1l4 13h-72q-5 -12 -5 -22q0 -13 9 -21.5t23 -8.5q29 0 41 39zM73 406h82v-68h-82v68zM189 406h82v-68h-82v68z" />
    <glyph glyph-name="ygrave.ss01" horiz-adv-x="343" 
d="M337 300l-95 -289q-20 -61 -49 -88.5t-73 -27.5q-45 0 -72.5 27t-27.5 71q0 42 31 76h42l-89 231h86l79 -231h16l67 231h85zM161 -1l4 13h-72q-5 -12 -5 -22q0 -13 9 -21.5t23 -8.5q29 0 41 39zM143 324l-61 79h86l30 -79h-55z" />
    <glyph glyph-name="k.ss02" horiz-adv-x="343" 
d="M245 0l-85 127l-39 -38v-89h-80v400h80v-220l114 120h100l-119 -118l123 -182h-94z" />
    <glyph glyph-name="uni0137.ss02" horiz-adv-x="343" 
d="M245 0l-85 127l-39 -38v-89h-80v400h80v-220l114 120h100l-119 -118l123 -182h-94zM220 -30v-30q0 -30 -15.5 -46.5t-43.5 -16.5h-23v27h17q18 0 20 18h-37v48h82z" />
    <glyph glyph-name="k.ss03" horiz-adv-x="336" 
d="M319 70v-70q-13 -1 -35 -1q-70 0 -70 65v53h-93v-117h-80v400h80v-210h39l72 110h84l-76 -110h51v-105q0 -7 4 -11t11 -4h13z" />
    <glyph glyph-name="uni0137.ss03" horiz-adv-x="336" 
d="M319 70v-70q-13 -1 -35 -1q-70 0 -70 65v53h-93v-117h-80v400h80v-210h39l72 110h84l-76 -110h51v-105q0 -7 4 -11t11 -4h13zM196 -30v-30q0 -30 -15.5 -46.5t-43.5 -16.5h-23v27h17q18 0 20 18h-37v48h82z" />
    <glyph glyph-name="y.ss03" horiz-adv-x="343" 
d="M337 300l-95 -289q-20 -61 -49 -88.5t-73 -27.5q-45 0 -72.5 27t-27.5 71q0 42 31 76h42l-89 231h86l79 -231h16l67 231h85zM161 -1l4 13h-72q-5 -12 -5 -22q0 -13 9 -21.5t23 -8.5q29 0 41 39z" />
    <glyph glyph-name="yacute.ss03" horiz-adv-x="343" 
d="M337 300l-95 -289q-20 -61 -49 -88.5t-73 -27.5q-45 0 -72.5 27t-27.5 71q0 42 31 76h42l-89 231h86l79 -231h16l67 231h85zM161 -1l4 13h-72q-5 -12 -5 -22q0 -13 9 -21.5t23 -8.5q29 0 41 39zM176 403h86l-61 -79h-55z" />
    <glyph glyph-name="ycircumflex.ss03" horiz-adv-x="343" 
d="M337 300l-95 -289q-20 -61 -49 -88.5t-73 -27.5q-45 0 -72.5 27t-27.5 71q0 42 31 76h42l-89 231h86l79 -231h16l67 231h85zM161 -1l4 13h-72q-5 -12 -5 -22q0 -13 9 -21.5t23 -8.5q29 0 41 39zM277 324h-66l-37 38l-38 -38h-66l65 79h78z" />
    <glyph glyph-name="ydieresis.ss03" horiz-adv-x="343" 
d="M337 300l-95 -289q-20 -61 -49 -88.5t-73 -27.5q-45 0 -72.5 27t-27.5 71q0 42 31 76h42l-89 231h86l79 -231h16l67 231h85zM161 -1l4 13h-72q-5 -12 -5 -22q0 -13 9 -21.5t23 -8.5q29 0 41 39zM73 406h82v-68h-82v68zM189 406h82v-68h-82v68z" />
    <glyph glyph-name="ygrave.ss03" horiz-adv-x="343" 
d="M337 300l-95 -289q-20 -61 -49 -88.5t-73 -27.5q-45 0 -72.5 27t-27.5 71q0 42 31 76h42l-89 231h86l79 -231h16l67 231h85zM161 -1l4 13h-72q-5 -12 -5 -22q0 -13 9 -21.5t23 -8.5q29 0 41 39zM143 324l-61 79h86l30 -79h-55z" />
    <glyph glyph-name="k.ss04" horiz-adv-x="335" 
d="M317 70v-70q-12 -1 -35 -1q-34 0 -52 16.5t-18 48.5v29q0 11 -6 17t-17 6h-68v-116h-80v400h80v-215h46l65 115h84l-74 -124q48 -13 48 -70v-21q0 -7 4 -11t11 -4h12z" />
    <glyph glyph-name="uni0137.ss04" horiz-adv-x="335" 
d="M317 70v-70q-12 -1 -35 -1q-34 0 -52 16.5t-18 48.5v29q0 11 -6 17t-17 6h-68v-116h-80v400h80v-215h46l65 115h84l-74 -124q48 -13 48 -70v-21q0 -7 4 -11t11 -4h12zM214 -30v-30q0 -30 -15.5 -46.5t-43.5 -16.5h-23v27h17q18 0 20 18h-37v48h82z" />
    <glyph glyph-name="k.ss05" horiz-adv-x="335" 
d="M317 70v-70q-12 -1 -35 -1q-34 0 -52 16.5t-18 48.5v29q0 11 -6 17t-17 6h-68v-116h-80v400h80v-215h46l65 115h84l-74 -124q48 -13 48 -70v-21q0 -7 4 -11t11 -4h12z" />
    <glyph glyph-name="uni0137.ss05" horiz-adv-x="335" 
d="M317 70v-70q-12 -1 -35 -1q-34 0 -52 16.5t-18 48.5v29q0 11 -6 17t-17 6h-68v-116h-80v400h80v-215h46l65 115h84l-74 -124q48 -13 48 -70v-21q0 -7 4 -11t11 -4h12zM214 -30v-30q0 -30 -15.5 -46.5t-43.5 -16.5h-23v27h17q18 0 20 18h-37v48h82z" />
    <glyph glyph-name="f.ss06" horiz-adv-x="247" 
d="M156.5 329q-6.5 -7 -6.5 -19v-10h86v-66h-83v-234h-80v234h-61v66h61v11q0 89 91 89h72v-64h-61q-12 0 -18.5 -7z" />
    <glyph glyph-name="t.ss06" horiz-adv-x="265" 
d="M152 234v-129q0 -33 32 -33h54v-72h-72q-94 0 -94 94v140h-60v66h60l8 80h72v-80h86v-66h-86z" />
    <glyph glyph-name="tbar.ss06" horiz-adv-x="265" 
d="M152 234v-53h69v-56h-69v-20q0 -33 32 -33h54v-72h-72q-94 0 -94 94v31h-57v56h57v53h-60v66h60l8 80h72v-80h86v-66h-86z" />
    <glyph glyph-name="tcaron.ss06" horiz-adv-x="265" 
d="M152 234v-129q0 -33 32 -33h54v-72h-72q-94 0 -94 94v140h-60v66h60l8 80h72v-80h86v-66h-86zM173 400h72l-20 -92h-52v92z" />
    <glyph glyph-name="uni0163.ss06" horiz-adv-x="265" 
d="M152 234v-129q0 -33 32 -33h54v-72h-51l-11 -17h7q23 0 38 -12t15 -31q0 -22 -20 -36t-52 -14q-39 0 -67 19l20 34q19 -15 44 -15q12 0 19 3.5t7 8.5t-5 8.5t-13 3.5q-13 0 -19 -6l-31 16l24 40q-71 10 -71 92v140h-60v66h60l8 80h72v-80h86v-66h-86z" />
    <glyph glyph-name="uni021B.ss06" horiz-adv-x="265" 
d="M152 234v-129q0 -33 32 -33h54v-72h-72q-94 0 -94 94v140h-60v66h60l8 80h72v-80h86v-66h-86zM192 -30v-30q0 -30 -15.5 -46.5t-43.5 -16.5h-23v27h17q18 0 20 18h-37v48h82z" />
    <glyph glyph-name="y.ss06" horiz-adv-x="343" 
d="M337 300l-118 -319q-16 -42 -41 -61.5t-62 -19.5h-68v72h56q26 0 31 16l1 4l-127 308h89l81 -223l72 223h86z" />
    <glyph glyph-name="yacute.ss06" horiz-adv-x="343" 
d="M337 300l-118 -319q-16 -42 -41 -61.5t-62 -19.5h-68v72h56q26 0 31 16l1 4l-127 308h89l81 -223l72 223h86zM177 403h86l-61 -79h-55z" />
    <glyph glyph-name="ycircumflex.ss06" horiz-adv-x="343" 
d="M337 300l-118 -319q-16 -42 -41 -61.5t-62 -19.5h-68v72h56q26 0 31 16l1 4l-127 308h89l81 -223l72 223h86zM278 324h-66l-37 38l-38 -38h-66l65 79h78z" />
    <glyph glyph-name="ydieresis.ss06" horiz-adv-x="343" 
d="M337 300l-118 -319q-16 -42 -41 -61.5t-62 -19.5h-68v72h56q26 0 31 16l1 4l-127 308h89l81 -223l72 223h86zM74 406h82v-68h-82v68zM190 406h82v-68h-82v68z" />
    <glyph glyph-name="ygrave.ss06" horiz-adv-x="343" 
d="M337 300l-118 -319q-16 -42 -41 -61.5t-62 -19.5h-68v72h56q26 0 31 16l1 4l-127 308h89l81 -223l72 223h86zM144 324l-61 79h86l30 -79h-55z" />
    <glyph glyph-name="uni0416.ss01" horiz-adv-x="565" 
d="M519 83q5 -5 12 -5h14v-78h-44q-35 0 -53.5 18.5t-18.5 52.5v83h-103v-154h-86v154h-104v-83q0 -34 -18.5 -52.5t-53.5 -18.5h-43v78h13q8 0 12.5 4.5t4.5 12.5v135h57l-88 150h94l81 -150h45v150h86v-150h44l81 150h94l-88 -150h57v-135q0 -7 5 -12z" />
    <glyph glyph-name="uni041A.ss01" horiz-adv-x="398" 
d="M352 83q5 -5 12 -5h14v-78h-44q-35 0 -54 18.5t-19 52.5v83h-124v-154h-86v380h86v-150h57l90 150h94l-97 -150h66v-135q0 -7 5 -12z" />
    <glyph glyph-name="uni0423.ss01" horiz-adv-x="377" 
d="M372 380l-103 -279q-19 -54 -50.5 -80t-76.5 -26q-47 0 -76 28t-29 73q0 49 34 80h37l-105 204h94l97 -204h21l66 204h91zM189 97l7 20h-79q-6 -9 -6 -21q0 -16 8.5 -25t24.5 -9q31 0 45 35z" />
    <glyph glyph-name="uni040E.ss01" horiz-adv-x="377" 
d="M372 380l-103 -279q-19 -54 -50.5 -80t-76.5 -26q-47 0 -76 28t-29 73q0 49 34 80h37l-105 204h94l97 -204h21l66 204h91zM189 97l7 20h-79q-6 -9 -6 -21q0 -16 8.5 -25t24.5 -9q31 0 45 35zM120.5 428q-26.5 20 -30.5 55l61 8q3 -16 13.5 -24.5t26.5 -8.5q15 0 26 8.5
t14 24.5l61 -8q-4 -35 -30.5 -55t-70.5 -20t-70.5 20z" />
    <glyph glyph-name="uni042F.ss01" horiz-adv-x="396" 
d="M345 0h-86v140h-127v-69q0 -34 -19 -52.5t-54 -18.5h-44v78h14q8 0 12.5 5t4.5 12v82h64q-34 11 -57 36t-23 61q0 50 37 78t102 28h176v-380zM116 258q0 -27 16.5 -39.5t49.5 -12.5h77v104h-77q-66 0 -66 -52z" />
    <glyph glyph-name="uni0416.ss02" horiz-adv-x="603" 
d="M495 0l-102 171l-49 -50v-121h-85v121l-49 50l-102 -171h-101l141 230l-139 150h107l143 -160v160h85v-161l144 161h106l-139 -150l141 -230h-101z" />
    <glyph glyph-name="uni041A.ss02" horiz-adv-x="409" 
d="M300 0l-113 170l-50 -50v-120h-86v380h86v-161l152 161h107l-148 -149l154 -231h-102z" />
    <glyph glyph-name="uni042F.ss02" horiz-adv-x="397" 
d="M346 0h-86v136h-73l-79 -136h-93l90 149q-34 14 -52 42t-18 68q0 57 38.5 89t106.5 32h166v-380zM260 205v103h-74q-31 0 -47.5 -13t-16.5 -38q0 -52 64 -52h74z" />
    <glyph glyph-name="uni0416.ss03" horiz-adv-x="565" 
d="M519 83q5 -5 12 -5h14v-78h-44q-35 0 -53.5 18.5t-18.5 52.5v83h-103v-154h-86v154h-104v-83q0 -34 -18.5 -52.5t-53.5 -18.5h-43v78h13q8 0 12.5 4.5t4.5 12.5v135h57l-88 150h94l81 -150h45v150h86v-150h44l81 150h94l-88 -150h57v-135q0 -7 5 -12z" />
    <glyph glyph-name="uni041A.ss03" horiz-adv-x="398" 
d="M352 83q5 -5 12 -5h14v-78h-44q-35 0 -54 18.5t-19 52.5v83h-124v-154h-86v380h86v-150h57l90 150h94l-97 -150h66v-135q0 -7 5 -12z" />
    <glyph glyph-name="uni0423.ss03" horiz-adv-x="377" 
d="M372 380l-103 -279q-19 -54 -50.5 -80t-76.5 -26q-47 0 -76 28t-29 73q0 49 34 80h37l-105 204h94l97 -204h21l66 204h91zM189 97l7 20h-79q-6 -9 -6 -21q0 -16 8.5 -25t24.5 -9q31 0 45 35z" />
    <glyph glyph-name="uni040E.ss03" horiz-adv-x="377" 
d="M372 380l-103 -279q-19 -54 -50.5 -80t-76.5 -26q-47 0 -76 28t-29 73q0 49 34 80h37l-105 204h94l97 -204h21l66 204h91zM189 97l7 20h-79q-6 -9 -6 -21q0 -16 8.5 -25t24.5 -9q31 0 45 35zM120.5 428q-26.5 20 -30.5 55l61 8q3 -16 13.5 -24.5t26.5 -8.5q15 0 26 8.5
t14 24.5l61 -8q-4 -35 -30.5 -55t-70.5 -20t-70.5 20z" />
    <glyph glyph-name="uni042F.ss03" horiz-adv-x="396" 
d="M345 0h-86v140h-127v-69q0 -34 -19 -52.5t-54 -18.5h-44v78h14q8 0 12.5 5t4.5 12v82h64q-34 11 -57 36t-23 61q0 50 37 78t102 28h176v-380zM116 258q0 -27 16.5 -39.5t49.5 -12.5h77v104h-77q-66 0 -66 -52z" />
    <glyph glyph-name="uni0416.ss04" horiz-adv-x="573" 
d="M550 78v-78h-44q-35 0 -53.5 18.5t-18.5 52.5v44q0 20 -9 29.5t-29 9.5h-67v-154h-85v154h-68q-19 0 -28 -9.5t-9 -29.5v-44q0 -34 -18.5 -52.5t-53.5 -18.5h-44v78h13q8 0 12.5 4.5t4.5 12.5v43q0 33 15 54.5t42 28.5l-87 159h92l76 -149h53v149h85v-149h53l75 149h92
l-86 -159q27 -7 41.5 -28t14.5 -55v-43q0 -7 5 -12t12 -5h14z" />
    <glyph glyph-name="uni041A.ss04" horiz-adv-x="399" 
d="M349 83q5 -5 12 -5h14v-78h-44q-35 0 -54 18.5t-19 52.5v45q0 20 -9 29t-28 9h-84v-154h-86v380h86v-149h66l82 149h92l-92 -157q29 -7 44 -28.5t15 -55.5v-44q0 -7 5 -12z" />
    <glyph glyph-name="uni042F.ss04" horiz-adv-x="397" 
d="M346 0h-86v140h-88q-37 0 -37 -39v-33q0 -31 -18.5 -49.5t-48.5 -18.5h-48v78h13q8 0 12.5 4.5t4.5 12.5v22q0 50 38 66q-52 26 -52 89q0 50 37 79t102 29h171v-380zM122 258q0 -27 16.5 -39.5t49.5 -12.5h72v104h-72q-66 0 -66 -52z" />
    <glyph glyph-name="uni0416.ss05" horiz-adv-x="573" 
d="M550 78v-78h-44q-35 0 -53.5 18.5t-18.5 52.5v44q0 20 -9 29.5t-29 9.5h-67v-154h-85v154h-68q-19 0 -28 -9.5t-9 -29.5v-44q0 -34 -18.5 -52.5t-53.5 -18.5h-44v78h13q8 0 12.5 4.5t4.5 12.5v43q0 33 15 54.5t42 28.5l-87 159h92l76 -149h53v149h85v-149h53l75 149h92
l-86 -159q27 -7 41.5 -28t14.5 -55v-43q0 -7 5 -12t12 -5h14z" />
    <glyph glyph-name="uni041A.ss05" horiz-adv-x="399" 
d="M349 83q5 -5 12 -5h14v-78h-44q-35 0 -54 18.5t-19 52.5v45q0 20 -9 29t-28 9h-84v-154h-86v380h86v-149h66l82 149h92l-92 -157q29 -7 44 -28.5t15 -55.5v-44q0 -7 5 -12z" />
    <glyph glyph-name="uni042F.ss05" horiz-adv-x="397" 
d="M346 0h-86v140h-88q-37 0 -37 -39v-33q0 -31 -18.5 -49.5t-48.5 -18.5h-48v78h13q8 0 12.5 4.5t4.5 12.5v22q0 50 38 66q-52 26 -52 89q0 50 37 79t102 29h171v-380zM122 258q0 -27 16.5 -39.5t49.5 -12.5h72v104h-72q-66 0 -66 -52z" />
    <glyph glyph-name="uni0423.ss06" horiz-adv-x="384" 
d="M389 380l-133 -303q-20 -43 -43.5 -60t-59.5 -17h-86v78h86q8 0 13 5l-162 297h99l105 -217l90 217h91z" />
    <glyph glyph-name="uni040E.ss06" horiz-adv-x="384" 
d="M389 380l-133 -303q-20 -43 -43.5 -60t-59.5 -17h-86v78h86q8 0 13 5l-162 297h99l105 -217l90 217h91zM118.5 428q-26.5 20 -30.5 55l61 8q3 -16 13.5 -24.5t26.5 -8.5q15 0 26 8.5t14 24.5l61 -8q-4 -35 -30.5 -55t-70.5 -20t-70.5 20z" />
    <glyph glyph-name="uni041D.ss07" horiz-adv-x="436" 
d="M302 380h83v-380h-80l-171 242v-242h-83v380h81l170 -242v242z" />
    <glyph glyph-name="uni0410.stress" horiz-adv-x="412" 
d="M315 0l-27 75h-166l-27 -75h-90l148 380h106l148 -380h-92zM149 149h112l-56 156zM210 483h86l-61 -79h-55z" />
    <glyph glyph-name="uni0415.stress" horiz-adv-x="351" 
d="M135 75h196v-75h-280v380h275v-75h-191v-74h146v-72h-146v-84zM197 483h86l-61 -79h-55z" />
    <glyph glyph-name="uni0401.stress" horiz-adv-x="351" 
d="M135 75h196v-75h-280v380h275v-75h-191v-74h146v-72h-146v-84zM258 497l-61 -79h-55l30 79h86zM50 486h82v-68h-82v68zM254 486h82v-68h-82v68z" />
    <glyph glyph-name="uni0418.stress" horiz-adv-x="436" 
d="M302 380h83v-380h-84v248l-168 -248h-82v380h84v-247zM222 483h86l-61 -79h-55z" />
    <glyph glyph-name="uni041E.stress" horiz-adv-x="426" 
d="M75.5 48.5q-51.5 53.5 -51.5 141.5t52 141.5t137 53.5q86 0 137.5 -53.5t51.5 -141.5t-52 -141.5t-137 -53.5q-86 0 -137.5 53.5zM286.5 102q27.5 33 27.5 88t-27.5 88t-73.5 33t-73.5 -33t-27.5 -88t27.5 -88t73.5 -33t73.5 33zM217 483h86l-61 -79h-55z" />
    <glyph glyph-name="uni0423.stress" horiz-adv-x="384" 
d="M375 380l-114 -284q-19 -49 -46.5 -75t-72.5 -26q-42 0 -68.5 27t-28.5 67l67 17q2 -43 34 -43q19 0 28 13l-172 304h96l111 -221l77 221h89zM193 483h86l-61 -79h-55z" />
    <glyph glyph-name="uni042B.stress" horiz-adv-x="549" 
d="M320.5 212q38.5 -32 38.5 -90q0 -57 -38.5 -89.5t-106.5 -32.5h-163v380h86v-136h77q68 0 106.5 -32zM272 124q0 52 -64 52h-71v-104h71q64 0 64 52zM412 380h86v-380h-86v380zM278 483h86l-61 -79h-55z" />
    <glyph glyph-name="uni0404.stress" horiz-adv-x="391" 
d="M264 84q23 17 34 48l78 -28q-17 -51 -61 -80t-105 -29q-85 0 -135.5 53t-50.5 142q0 88 51 141.5t135 53.5q62 0 105.5 -28.5t60.5 -80.5l-78 -28q-11 31 -34 48t-55 17q-37 0 -62 -22t-32 -62h134v-68h-136q6 -45 31 -69.5t65 -24.5q32 0 55 17zM214 483h86l-61 -79h-55
z" />
    <glyph glyph-name="uni042D.stress" horiz-adv-x="389" 
d="M314.5 331.5q50.5 -53.5 50.5 -141.5t-50.5 -141.5t-133.5 -53.5q-60 0 -104 29.5t-63 80.5l76 27q11 -32 34 -48.5t55 -16.5q40 0 65.5 24.5t31.5 69.5h-136v68h135q-8 41 -33 62.5t-63 21.5q-32 0 -55 -16.5t-34 -48.5l-76 27q19 52 63.5 81t103.5 29q83 0 133.5 -53.5
zM185 483h86l-61 -79h-55z" />
    <glyph glyph-name="uni0406.stress" horiz-adv-x="188" 
d="M51 380h86v-380h-86v380zM98 483h86l-61 -79h-55z" />
    <glyph glyph-name="uni0407.stress" horiz-adv-x="188" 
d="M51 380h86v-380h-86v380zM159 497l-61 -79h-55l30 79h86zM-49 486h82v-68h-82v68zM155 486h82v-68h-82v68z" />
    <glyph glyph-name="uni042E.stress" horiz-adv-x="585" 
d="M511.5 332q49.5 -53 49.5 -142q0 -88 -50 -141.5t-131 -53.5q-74 0 -121.5 43t-57.5 118h-64v-156h-86v380h86v-146h66q12 69 59.5 110t117.5 41q82 0 131.5 -53zM447 100q25 33 25 90t-25 90t-68 33t-68 -33t-25 -90t25 -90t68 -33t68 33zM257 483h86l-61 -79h-55z" />
    <glyph glyph-name="uni042F.stress" horiz-adv-x="397" 
d="M346 0h-86v136h-73l-79 -136h-93l90 149q-34 14 -52 42t-18 68q0 57 38.5 89t106.5 32h166v-380zM260 205v103h-74q-31 0 -47.5 -13t-16.5 -38q0 -52 64 -52h74zM222 483h86l-61 -79h-55z" />
    <glyph glyph-name="uni0423.ss03.stress" horiz-adv-x="377" 
d="M372 380l-103 -279q-19 -54 -50.5 -80t-76.5 -26q-47 0 -76 28t-29 73q0 49 34 80h37l-105 204h94l97 -204h21l66 204h91zM189 97l7 20h-79q-6 -9 -6 -21q0 -16 8.5 -25t24.5 -9q31 0 45 35zM195 483h86l-61 -79h-55z" />
    <glyph glyph-name="uni042F.ss03.stress" horiz-adv-x="396" 
d="M345 0h-86v140h-127v-69q0 -34 -19 -52.5t-54 -18.5h-44v78h14q8 0 12.5 5t4.5 12v82h64q-34 11 -57 36t-23 61q0 50 37 78t102 28h176v-380zM116 258q0 -27 16.5 -39.5t49.5 -12.5h77v104h-77q-66 0 -66 -52zM198 483h86l-61 -79h-55z" />
    <glyph glyph-name="uni042F.ss04.stress" horiz-adv-x="397" 
d="M346 0h-86v140h-88q-37 0 -37 -39v-33q0 -31 -18.5 -49.5t-48.5 -18.5h-48v78h13q8 0 12.5 4.5t4.5 12.5v22q0 50 38 66q-52 26 -52 89q0 50 37 79t102 29h171v-380zM122 258q0 -27 16.5 -39.5t49.5 -12.5h72v104h-72q-66 0 -66 -52zM215 483h86l-61 -79h-55z" />
    <glyph glyph-name="uni0423.ss06.stress" horiz-adv-x="384" 
d="M389 380l-133 -303q-20 -43 -43.5 -60t-59.5 -17h-86v78h86q8 0 13 5l-162 297h99l105 -217l90 217h91zM193 483h86l-61 -79h-55z" />
    <glyph glyph-name="uni0436.ss01" horiz-adv-x="491" 
d="M448 74q4 -4 11 -4h12v-70q-12 -1 -34 -1q-34 0 -52.5 16.5t-18.5 48.5v53h-79v-117h-80v117h-79v-53q0 -32 -18 -48.5t-52 -16.5q-23 0 -35 1v70h12q7 0 11 4t4 11v102h48l-78 113h83l73 -111h31v211h80v-211h31l73 111h83l-78 -113h48v-102q0 -7 4 -11z" />
    <glyph glyph-name="uni043A.ss01" horiz-adv-x="336" 
d="M319 70v-70q-13 -1 -35 -1q-70 0 -70 65v53h-93v-117h-80v400h80v-210h39l72 110h84l-76 -110h51v-105q0 -7 4 -11t11 -4h13z" />
    <glyph glyph-name="uni0443.ss01" horiz-adv-x="343" 
d="M337 300l-95 -289q-20 -61 -49 -88.5t-73 -27.5q-45 0 -72.5 27t-27.5 71q0 42 31 76h42l-89 231h86l79 -231h16l67 231h85zM161 -1l4 13h-72q-5 -12 -5 -22q0 -13 9 -21.5t23 -8.5q29 0 41 39z" />
    <glyph glyph-name="uni045E.ss01" horiz-adv-x="343" 
d="M337 300l-95 -289q-20 -61 -49 -88.5t-73 -27.5q-45 0 -72.5 27t-27.5 71q0 42 31 76h42l-89 231h86l79 -231h16l67 231h85zM161 -1l4 13h-72q-5 -12 -5 -22q0 -13 9 -21.5t23 -8.5q29 0 41 39zM101.5 348q-26.5 20 -30.5 55l61 8q3 -16 13.5 -24.5t26.5 -8.5
q15 0 26 8.5t14 24.5l61 -8q-4 -35 -30.5 -55t-70.5 -20t-70.5 20z" />
    <glyph glyph-name="uni044F.ss01" horiz-adv-x="337" 
d="M296 0h-80v107h-95v-43q0 -32 -18 -48.5t-52 -16.5q-23 0 -35 1v70h12q7 0 11 4t4 11v55h49q-27 9 -44.5 29t-17.5 47q0 39 27.5 61.5t74.5 22.5h164v-300zM111 201q0 -19 13.5 -29t38.5 -10h53v77h-55q-50 0 -50 -38z" />
    <glyph glyph-name="uni0436.ss02" horiz-adv-x="506" 
d="M407 0l-78 128l-36 -38v-90h-80v90l-37 38l-77 -128h-94l113 181l-111 119h100l106 -123v223h80v-222l106 122h99l-111 -118l114 -182h-94z" />
    <glyph glyph-name="uni043A.ss02" horiz-adv-x="343" 
d="M245 0l-85 127l-39 -38v-89h-80v400h80v-220l114 120h100l-119 -118l123 -182h-94z" />
    <glyph glyph-name="uni044F.ss02" horiz-adv-x="333" 
d="M292 0h-79v102h-54l-62 -102h-88l73 114q-27 11 -41.5 33t-14.5 52q0 46 32.5 73.5t88.5 27.5h145v-300zM213 161v75h-56q-24 0 -37 -10t-13 -28t13 -27.5t37 -9.5h56z" />
    <glyph glyph-name="uni0436.ss03" horiz-adv-x="491" 
d="M448 74q4 -4 11 -4h12v-70q-12 -1 -34 -1q-34 0 -52.5 16.5t-18.5 48.5v53h-79v-117h-80v117h-79v-53q0 -32 -18 -48.5t-52 -16.5q-23 0 -35 1v70h12q7 0 11 4t4 11v102h48l-78 113h83l73 -111h31v111h80v-111h31l73 111h83l-78 -113h48v-102q0 -7 4 -11z" />
    <glyph glyph-name="uni043A.ss03" horiz-adv-x="336" 
d="M319 70v-70q-13 -1 -35 -1q-70 0 -70 65v53h-93v-117h-80v300h80v-110h39l72 110h84l-76 -110h51v-105q0 -7 4 -11t11 -4h13z" />
    <glyph glyph-name="uni0443.ss03" horiz-adv-x="343" 
d="M337 300l-95 -289q-20 -61 -49 -88.5t-73 -27.5q-45 0 -72.5 27t-27.5 71q0 42 31 76h42l-89 231h86l79 -231h16l67 231h85zM161 -1l4 13h-72q-5 -12 -5 -22q0 -13 9 -21.5t23 -8.5q29 0 41 39z" />
    <glyph glyph-name="uni045E.ss03" horiz-adv-x="343" 
d="M337 300l-95 -289q-20 -61 -49 -88.5t-73 -27.5q-45 0 -72.5 27t-27.5 71q0 42 31 76h42l-89 231h86l79 -231h16l67 231h85zM161 -1l4 13h-72q-5 -12 -5 -22q0 -13 9 -21.5t23 -8.5q29 0 41 39zM101.5 348q-26.5 20 -30.5 55l61 8q3 -16 13.5 -24.5t26.5 -8.5
q15 0 26 8.5t14 24.5l61 -8q-4 -35 -30.5 -55t-70.5 -20t-70.5 20z" />
    <glyph glyph-name="uni044F.ss03" horiz-adv-x="337" 
d="M296 0h-80v107h-95v-43q0 -32 -18 -48.5t-52 -16.5q-23 0 -35 1v70h12q7 0 11 4t4 11v55h49q-27 9 -44.5 29t-17.5 47q0 39 27.5 61.5t74.5 22.5h164v-300zM111 201q0 -19 13.5 -29t38.5 -10h53v77h-55q-50 0 -50 -38z" />
    <glyph glyph-name="uni0436.ss04" horiz-adv-x="484" 
d="M466 70v-70q-12 -1 -35 -1q-34 0 -52 16.5t-18 48.5v29q0 11 -6 17t-17 6h-56v-116h-80v116h-57q-11 0 -17 -6t-6 -17v-29q0 -65 -70 -65q-22 0 -34 1v70h12q7 0 11 4t4 11v21q0 54 44 69l-70 125h84l60 -115h39v215h80v-215h39l60 115h83l-70 -125q45 -13 45 -69v-21
q0 -7 4 -11t11 -4h12z" />
    <glyph glyph-name="uni043A.ss04" horiz-adv-x="335" 
d="M317 70v-70q-12 -1 -35 -1q-34 0 -52 16.5t-18 48.5v29q0 11 -6 17t-17 6h-68v-116h-80v400h80v-215h46l65 115h84l-74 -124q48 -13 48 -70v-21q0 -7 4 -11t11 -4h12z" />
    <glyph glyph-name="uni044F.ss04" horiz-adv-x="337" 
d="M296 0h-80v107h-73q-10 0 -16.5 -6t-6.5 -17v-20q0 -65 -70 -65q-22 0 -34 1v70h12q7 0 11 4t4 11v15q0 33 33 42q-46 21 -46 72q0 40 27.5 63t74.5 23h164v-300zM111 201q0 -39 50 -39h55v76h-55q-50 0 -50 -37z" />
    <glyph glyph-name="uni0436.ss05" horiz-adv-x="484" 
d="M466 70v-70q-12 -1 -35 -1q-34 0 -52 16.5t-18 48.5v29q0 11 -6 17t-17 6h-56v-116h-80v116h-57q-11 0 -17 -6t-6 -17v-29q0 -65 -70 -65q-22 0 -34 1v70h12q7 0 11 4t4 11v21q0 54 44 69l-70 125h84l60 -115h39v115h80v-115h39l60 115h83l-70 -125q45 -13 45 -69v-21
q0 -7 4 -11t11 -4h12z" />
    <glyph glyph-name="uni043A.ss05" horiz-adv-x="335" 
d="M317 70v-70q-12 -1 -35 -1q-34 0 -52 16.5t-18 48.5v29q0 11 -6 17t-17 6h-68v-116h-80v300h80v-115h46l65 115h84l-74 -124q48 -13 48 -70v-21q0 -7 4 -11t11 -4h12z" />
    <glyph glyph-name="uni044F.ss05" horiz-adv-x="337" 
d="M296 0h-80v107h-73q-10 0 -16.5 -6t-6.5 -17v-20q0 -65 -70 -65q-22 0 -34 1v70h12q7 0 11 4t4 11v15q0 33 33 42q-46 21 -46 72q0 40 27.5 63t74.5 23h164v-300zM111 201q0 -39 50 -39h55v76h-55q-50 0 -50 -37z" />
    <glyph glyph-name="uni0443.ss06" horiz-adv-x="343" 
d="M337 300l-118 -319q-16 -42 -41 -61.5t-62 -19.5h-68v72h56q26 0 31 16l1 4l-127 308h89l81 -223l72 223h86z" />
    <glyph glyph-name="uni045E.ss06" horiz-adv-x="343" 
d="M337 300l-118 -319q-16 -42 -41 -61.5t-62 -19.5h-68v72h56q26 0 31 16l1 4l-127 308h89l81 -223l72 223h86zM102.5 348q-26.5 20 -30.5 55l61 8q3 -16 13.5 -24.5t26.5 -8.5q15 0 26 8.5t14 24.5l61 -8q-4 -35 -30.5 -55t-70.5 -20t-70.5 20z" />
    <glyph glyph-name="uni043D.ss07" horiz-adv-x="364" 
d="M247 300h76v-300h-77l-129 182v-182h-76v300h76l130 -184v184z" />
    <glyph glyph-name="uni0430.stress" horiz-adv-x="332" 
d="M313 69v-69q-12 -2 -29 -2q-28 0 -43.5 11t-19.5 34q-16 -22 -43.5 -35t-60.5 -13q-44 0 -71 24t-27 63q0 52 36 72t93 27q30 4 45.5 9.5t15.5 17.5q0 14 -14.5 23t-39.5 9q-47 0 -82 -35l-48 49q54 51 135 51q58 0 91 -27t33 -74v-118q0 -17 17 -17h12zM186 75
q21 17 21 42v26q-8 -5 -21.5 -8t-29.5 -6q-30 -5 -45 -12.5t-15 -26.5q0 -15 10 -23.5t29 -8.5q30 0 51 17zM163 403h86l-61 -79h-55z" />
    <glyph glyph-name="uni0435.stress" horiz-adv-x="340" 
d="M125.5 77.5q20.5 -16.5 52.5 -16.5q51 0 82 34l49 -48q-49 -52 -132 -52q-76 0 -116.5 43t-40.5 112t41.5 112t110.5 43q68 0 108.5 -42t40.5 -113q0 -12 -3 -26h-219q6 -30 26.5 -46.5zM125.5 225.5q-18.5 -15.5 -25.5 -43.5h141q-6 29 -23.5 44t-45.5 15t-46.5 -15.5z
M174 403h86l-61 -79h-55z" />
    <glyph glyph-name="uni0451.stress" horiz-adv-x="340" 
d="M125.5 77.5q20.5 -16.5 52.5 -16.5q51 0 82 34l49 -48q-49 -52 -132 -52q-76 0 -116.5 43t-40.5 112t41.5 112t110.5 43q68 0 108.5 -42t40.5 -113q0 -12 -3 -26h-219q6 -30 26.5 -46.5zM125.5 225.5q-18.5 -15.5 -25.5 -43.5h141q-6 29 -23.5 44t-45.5 15t-46.5 -15.5z
M235 417l-61 -79h-55l30 79h86zM27 406h82v-68h-82v68zM231 406h82v-68h-82v68z" />
    <glyph glyph-name="uni0438.stress" horiz-adv-x="362" 
d="M242 300h79v-300h-78v185l-123 -185h-79v300h78v-185zM185 403h86l-61 -79h-55z" />
    <glyph glyph-name="uni043E.stress" horiz-adv-x="354" 
d="M63 37.5q-43 42.5 -43 112.5t43 112.5t114 42.5t114 -42.5t43 -112.5t-43 -112.5t-114 -42.5t-114 42.5zM232 84.5q20 23.5 20 65.5t-20 65.5t-55 23.5t-55 -23.5t-20 -65.5t20 -65.5t55 -23.5t55 23.5zM181 403h86l-61 -79h-55z" />
    <glyph glyph-name="uni0443.stress" horiz-adv-x="343" 
d="M337 300l-104 -300q-37 -105 -118 -105q-51 0 -75 27.5t-27 67.5l75 13q2 -39 29 -39q17 0 30 21l-141 315h88l91 -226l68 226h84zM176 403h86l-61 -79h-55z" />
    <glyph glyph-name="uni044B.stress" horiz-adv-x="469" 
d="M275.5 172q30.5 -26 30.5 -73q0 -46 -31 -72.5t-85 -26.5h-149v300h80v-102h69q55 0 85.5 -26zM225 100q0 38 -47 38h-57v-76h57q47 0 47 38zM348 300h80v-300h-80v300zM239 403h86l-61 -79h-55z" />
    <glyph glyph-name="uni0454.stress" horiz-adv-x="325" 
d="M216 71.5q18 12.5 27 34.5l72 -26q-14 -40 -51.5 -62.5t-88.5 -22.5q-70 0 -112.5 42.5t-42.5 112.5t42.5 112.5t112.5 42.5q51 0 88.5 -22.5t51.5 -62.5l-72 -26q-9 22 -27 34.5t-42 12.5q-27 0 -46 -16t-26 -44h106v-56h-107q6 -31 25 -48.5t48 -17.5q24 0 42 12.5z
M178 403h86l-61 -79h-55z" />
    <glyph glyph-name="uni044D.stress" horiz-adv-x="323" 
d="M261 262.5q42 -42.5 42 -112.5t-42 -112.5t-111 -42.5q-51 0 -88 23t-52 63l71 23q18 -45 68 -45q28 0 48 18t26 48h-108v56h106q-7 28 -26 44t-46 16q-50 0 -69 -45l-69 23q14 40 51.5 63t87.5 23q69 0 111 -42.5zM154 403h86l-61 -79h-55z" />
    <glyph glyph-name="uni0456.stress" horiz-adv-x="172" 
d="M46 300h80v-300h-80v300zM90 403h86l-61 -79h-55z" />
    <glyph glyph-name="uni0457.stress" horiz-adv-x="172" 
d="M46 300h80v-300h-80v300zM151 417l-61 -79h-55l30 79h86zM-57 406h82v-68h-82v68zM147 406h82v-68h-82v68z" />
    <glyph glyph-name="uni044E.stress" horiz-adv-x="493" 
d="M431.5 262.5q41.5 -42.5 41.5 -112.5t-42 -112.5t-110 -42.5q-60 0 -99.5 32.5t-48.5 89.5h-52v-117h-80v300h80v-111h53q11 54 50 85t97 31q69 0 110.5 -42.5zM372.5 84.5q18.5 23.5 18.5 65.5t-18.5 65.5t-51.5 23.5t-52 -23.5t-19 -65.5t19 -65.5t52 -23.5t51.5 23.5z
M224 403h86l-61 -79h-55z" />
    <glyph glyph-name="uni044F.stress" horiz-adv-x="333" 
d="M292 0h-79v102h-54l-62 -102h-88l73 114q-27 11 -41.5 33t-14.5 52q0 46 32.5 73.5t88.5 27.5h145v-300zM213 161v75h-56q-24 0 -37 -10t-13 -28t13 -27.5t37 -9.5h56zM180 403h86l-61 -79h-55z" />
    <glyph glyph-name="uni0443.ss03.stress" horiz-adv-x="343" 
d="M337 300l-95 -289q-20 -61 -49 -88.5t-73 -27.5q-45 0 -72.5 27t-27.5 71q0 42 31 76h42l-89 231h86l79 -231h16l67 231h85zM161 -1l4 13h-72q-5 -12 -5 -22q0 -13 9 -21.5t23 -8.5q29 0 41 39zM176 403h86l-61 -79h-55z" />
    <glyph glyph-name="uni044F.ss03.stress" horiz-adv-x="337" 
d="M296 0h-80v107h-95v-43q0 -32 -18 -48.5t-52 -16.5q-23 0 -35 1v70h12q7 0 11 4t4 11v55h49q-27 9 -44.5 29t-17.5 47q0 39 27.5 61.5t74.5 22.5h164v-300zM111 201q0 -19 13.5 -29t38.5 -10h53v77h-55q-50 0 -50 -38zM169 403h86l-61 -79h-55z" />
    <glyph glyph-name="uni044F.ss04.stress" horiz-adv-x="337" 
d="M296 0h-80v107h-73q-10 0 -16.5 -6t-6.5 -17v-20q0 -65 -70 -65q-22 0 -34 1v70h12q7 0 11 4t4 11v15q0 33 33 42q-46 21 -46 72q0 40 27.5 63t74.5 23h164v-300zM111 201q0 -39 50 -39h55v76h-55q-50 0 -50 -37zM175 403h86l-61 -79h-55z" />
    <glyph glyph-name="uni0443.ss06.stress" horiz-adv-x="343" 
d="M337 300l-118 -319q-16 -42 -41 -61.5t-62 -19.5h-68v72h56q26 0 31 16l1 4l-127 308h89l81 -223l72 223h86zM177 403h86l-61 -79h-55z" />
    <glyph glyph-name="zero.lf" 
d="M65.5 47.5q-42.5 52.5 -42.5 142.5t42.5 142.5t114.5 52.5t114.5 -52.5t42.5 -142.5t-42.5 -142.5t-114.5 -52.5t-114.5 52.5zM236 95q20 34 20 95t-20 95t-56 34t-56 -34t-20 -95t20 -95t56 -34t56 34z" />
    <glyph glyph-name="one.lf" horiz-adv-x="225" 
d="M21 249v65h17q48 0 65.5 13.5t21.5 52.5h62v-380h-80v249h-86z" />
    <glyph glyph-name="two.lf" horiz-adv-x="301" 
d="M301 67v-67h-283v52l135 116q34 29 48 52t14 47q0 23 -15.5 37.5t-40.5 14.5q-30 0 -47 -18.5t-18 -56.5l-75 11q4 61 43 96t102 34q58 -1 94.5 -31.5t36.5 -79.5q0 -43 -25 -77t-89 -87l-52 -43h172z" />
    <glyph glyph-name="three.lf" horiz-adv-x="305" 
d="M267.5 198q28.5 -31 28.5 -78q0 -54 -40.5 -89.5t-103.5 -35.5q-52 0 -90.5 23t-56.5 65l60 35q13 -28 34.5 -43t49.5 -15q32 0 51 16.5t19 45.5q0 27 -17 43t-45 16q-19 0 -36 -9l-35 41l101 98h-164v69h259v-59l-89 -88q46 -4 74.5 -35z" />
    <glyph glyph-name="four.lf" horiz-adv-x="320" 
d="M333 156v-68h-56v-88h-74v88h-187v66l164 226h97v-224h56zM96 156h107v147z" />
    <glyph glyph-name="five.lf" horiz-adv-x="316" 
d="M264.5 215q36.5 -36 36.5 -90q0 -58 -41 -94t-107 -36q-45 0 -81 18.5t-56 50.5l51 43q13 -21 35 -33.5t48 -12.5q32 0 52 18t20 48t-18.5 48t-49.5 18q-40 0 -63 -31l-57 21l17 197h223v-72h-161l-7 -75q27 18 68 18q54 0 90.5 -36z" />
    <glyph glyph-name="six.lf" horiz-adv-x="326" 
d="M292 213q35 -33 35 -89t-40 -92.5t-100 -36.5q-75 0 -115.5 52.5t-40.5 138.5q0 89 42 144t120 55q38 0 70.5 -13.5t53.5 -39.5l-55 -49q-10 17 -28.5 26.5t-39.5 9.5q-44 0 -67 -31.5t-25 -83.5q33 42 97 42q58 0 93 -33zM232.5 76q18.5 18 18.5 47t-18 46.5t-47 17.5
q-30 0 -49 -17.5t-19 -46.5t18.5 -47t48.5 -18q29 0 47.5 18z" />
    <glyph glyph-name="seven.lf" horiz-adv-x="279" 
d="M292 380v-62q-57 -54 -89.5 -138.5t-32.5 -179.5h-80q0 86 32.5 169t85.5 139h-194v72h278z" />
    <glyph glyph-name="eight.lf" horiz-adv-x="324" 
d="M302 158.5q17 -23.5 17 -54.5q0 -50 -39.5 -79.5t-106.5 -29.5t-106.5 29.5t-39.5 79.5q0 31 17 54.5t47 37.5q-26 13 -39.5 34t-13.5 48q0 49 36.5 78t98.5 29t98.5 -29t36.5 -78q0 -27 -13.5 -48t-39.5 -34q30 -14 47 -37.5zM127 311q-17 -14 -17 -38q0 -23 17 -37
t46 -14t46 14t17 37q0 24 -17 38t-46 14t-46 -14zM222.5 70q18.5 15 18.5 41q0 25 -18 39.5t-50 14.5t-50 -14.5t-18 -39.5q0 -26 18.5 -41t49.5 -15t49.5 15z" />
    <glyph glyph-name="nine.lf" horiz-adv-x="326" 
d="M274.5 332.5q40.5 -52.5 40.5 -138.5q0 -89 -42 -144t-120 -55q-38 0 -70.5 13.5t-53.5 39.5l55 49q10 -17 28.5 -26.5t39.5 -9.5q44 0 67 31.5t25 83.5q-33 -42 -97 -42q-58 0 -93 33t-35 89t40 92.5t100 36.5q75 0 115.5 -52.5zM209 210.5q19 17.5 19 46.5t-18.5 47
t-48.5 18q-29 0 -47.5 -18t-18.5 -47t18 -46.5t47 -17.5q30 0 49 17.5z" />
    <glyph glyph-name="zero.osf" 
d="M65.5 39.5q-42.5 44.5 -42.5 120.5q0 75 43 120t114 45q72 0 114.5 -44.5t42.5 -120.5q0 -75 -43 -120t-114 -45q-72 0 -114.5 44.5zM236 87q20 26 20 73t-20 73t-56 26t-56 -26t-20 -73t20 -73t56 -26t56 26z" />
    <glyph glyph-name="one.osf" horiz-adv-x="218" 
d="M2 191v65h17q48 0 65.5 13.5t21.5 52.5h62v-322h-80v191h-86z" />
    <glyph glyph-name="two.osf" horiz-adv-x="303" 
d="M300 68v-68h-295v53l124 80q44 28 58.5 44.5t14.5 36.5t-14 32.5t-38 12.5q-28 0 -46 -16.5t-23 -46.5l-74 14q7 53 47 84t100 31q58 0 92.5 -28t34.5 -75q0 -35 -24 -63t-91 -71l-31 -20h165z" />
    <glyph glyph-name="three.osf" horiz-adv-x="300" 
d="M262.5 138q28.5 -31 28.5 -78q0 -54 -40.5 -89.5t-103.5 -35.5q-52 0 -90.5 23t-56.5 65l60 35q13 -28 34.5 -43t49.5 -15q32 0 51 16.5t19 45.5q0 27 -17 43t-45 16q-19 0 -36 -9l-35 41l101 98h-164v69h259v-59l-89 -88q46 -4 74.5 -35z" />
    <glyph glyph-name="four.osf" horiz-adv-x="320" 
d="M317 96v-68h-56v-88h-74v88h-187v66l164 226h97v-224h56zM80 96h107v147z" />
    <glyph glyph-name="five.osf" horiz-adv-x="316" 
d="M266.5 155q36.5 -36 36.5 -90q0 -58 -41 -94t-107 -36q-45 0 -81 18.5t-56 50.5l51 43q13 -21 35 -33.5t48 -12.5q32 0 52 18t20 48t-18.5 48t-49.5 18q-40 0 -63 -31l-57 21l17 197h223v-72h-161l-7 -75q27 18 68 18q54 0 90.5 -36z" />
    <glyph glyph-name="six.osf" horiz-adv-x="326" 
d="M279 211q35 -33 35 -89t-40 -92.5t-100 -36.5q-75 0 -115.5 52.5t-40.5 138.5q0 89 42 144t120 55q38 0 70.5 -13.5t53.5 -39.5l-55 -49q-10 17 -28.5 26.5t-39.5 9.5q-44 0 -67 -31.5t-25 -83.5q33 42 97 42q58 0 93 -33zM219.5 74q18.5 18 18.5 47t-18 46.5t-47 17.5
q-30 0 -49 -17.5t-19 -46.5t18.5 -47t48.5 -18q29 0 47.5 18z" />
    <glyph glyph-name="seven.osf" horiz-adv-x="288" 
d="M283 320v-62q-57 -54 -89.5 -138.5t-32.5 -179.5h-80q0 86 32.5 169t85.5 139h-194v72h278z" />
    <glyph glyph-name="eight.osf" horiz-adv-x="324" 
d="M291 158.5q17 -23.5 17 -54.5q0 -50 -39.5 -79.5t-106.5 -29.5t-106.5 29.5t-39.5 79.5q0 31 17 54.5t47 37.5q-26 13 -39.5 34t-13.5 48q0 49 36.5 78t98.5 29t98.5 -29t36.5 -78q0 -27 -13.5 -48t-39.5 -34q30 -14 47 -37.5zM116 311q-17 -14 -17 -38q0 -23 17 -37
t46 -14t46 14t17 37q0 24 -17 38t-46 14t-46 -14zM211.5 70q18.5 15 18.5 41q0 25 -18 39.5t-50 14.5t-50 -14.5t-18 -39.5q0 -26 18.5 -41t49.5 -15t49.5 15z" />
    <glyph glyph-name="nine.osf" horiz-adv-x="328" 
d="M276.5 272.5q40.5 -52.5 40.5 -138.5q0 -89 -42 -144t-120 -55q-38 0 -70.5 13.5t-53.5 39.5l55 49q10 -17 28.5 -26.5t39.5 -9.5q44 0 67 31.5t25 83.5q-33 -42 -97 -42q-58 0 -93 33t-35 89t40 92.5t100 36.5q75 0 115.5 -52.5zM211 150.5q19 17.5 19 46.5t-18.5 47
t-48.5 18q-29 0 -47.5 -18t-18.5 -47t18 -46.5t47 -17.5q30 0 49 17.5z" />
    <glyph glyph-name="zero.tf" 
d="M65.5 47.5q-42.5 52.5 -42.5 142.5t42.5 142.5t114.5 52.5t114.5 -52.5t42.5 -142.5t-42.5 -142.5t-114.5 -52.5t-114.5 52.5zM236 95q20 34 20 95t-20 95t-56 34t-56 -34t-20 -95t20 -95t56 -34t56 34z" />
    <glyph glyph-name="one.tf" 
d="M336 68v-68h-304v68h116v181h-102v65h33q48 0 65.5 13.5t21.5 52.5h62v-312h108z" />
    <glyph glyph-name="two.tf" 
d="M325 67v-67h-283v52l135 116q34 29 48 52t14 47q0 23 -15.5 37.5t-40.5 14.5q-30 0 -47 -18.5t-18 -56.5l-75 11q4 61 43 96t102 34q58 -1 94.5 -31.5t36.5 -79.5q0 -43 -25 -77t-89 -87l-52 -43h172z" />
    <glyph glyph-name="three.tf" 
d="M290.5 198q28.5 -31 28.5 -78q0 -54 -40.5 -89.5t-103.5 -35.5q-52 0 -90.5 23t-56.5 65l60 35q13 -28 34.5 -43t49.5 -15q32 0 51 16.5t19 45.5q0 27 -17 43t-45 16q-19 0 -36 -9l-35 41l101 98h-164v69h259v-59l-89 -88q46 -4 74.5 -35z" />
    <glyph glyph-name="four.tf" 
d="M340 156v-68h-56v-88h-74v88h-187v66l164 226h97v-224h56zM103 156h107v147z" />
    <glyph glyph-name="five.tf" 
d="M280.5 215q36.5 -36 36.5 -90q0 -58 -41 -94t-107 -36q-45 0 -81 18.5t-56 50.5l51 43q13 -21 35 -33.5t48 -12.5q32 0 52 18t20 48t-18.5 48t-49.5 18q-40 0 -63 -31l-57 21l17 197h223v-72h-161l-7 -75q27 18 68 18q54 0 90.5 -36z" />
    <glyph glyph-name="six.tf" 
d="M298 213q35 -33 35 -89t-40 -92.5t-100 -36.5q-75 0 -115.5 52.5t-40.5 138.5q0 89 42 144t120 55q38 0 70.5 -13.5t53.5 -39.5l-55 -49q-10 17 -28.5 26.5t-39.5 9.5q-44 0 -67 -31.5t-25 -83.5q33 42 97 42q58 0 93 -33zM238.5 76q18.5 18 18.5 47t-18 46.5t-47 17.5
q-30 0 -49 -17.5t-19 -46.5t18.5 -47t48.5 -18q29 0 47.5 18z" />
    <glyph glyph-name="seven.tf" 
d="M331 380v-62q-61 -54 -95.5 -138.5t-34.5 -179.5h-83q0 85 35.5 168t92.5 140h-211v72h296z" />
    <glyph glyph-name="eight.tf" 
d="M309 158.5q17 -23.5 17 -54.5q0 -50 -39.5 -79.5t-106.5 -29.5t-106.5 29.5t-39.5 79.5q0 31 17 54.5t47 37.5q-26 13 -39.5 34t-13.5 48q0 49 36.5 78t98.5 29t98.5 -29t36.5 -78q0 -27 -13.5 -48t-39.5 -34q30 -14 47 -37.5zM134 311q-17 -14 -17 -38q0 -23 17 -37
t46 -14t46 14t17 37q0 24 -17 38t-46 14t-46 -14zM229.5 70q18.5 15 18.5 41q0 25 -18 39.5t-50 14.5t-50 -14.5t-18 -39.5q0 -26 18.5 -41t49.5 -15t49.5 15z" />
    <glyph glyph-name="nine.tf" 
d="M282.5 332.5q40.5 -52.5 40.5 -138.5q0 -89 -42 -144t-120 -55q-38 0 -70.5 13.5t-53.5 39.5l55 49q10 -17 28.5 -26.5t39.5 -9.5q44 0 67 31.5t25 83.5q-33 -42 -97 -42q-58 0 -93 33t-35 89t40 92.5t100 36.5q75 0 115.5 -52.5zM217 210.5q19 17.5 19 46.5t-18.5 47
t-48.5 18q-29 0 -47.5 -18t-18.5 -47t18 -46.5t47 -17.5q30 0 49 17.5z" />
    <glyph glyph-name="zero.tosf" 
d="M65.5 39.5q-42.5 44.5 -42.5 120.5q0 75 43 120t114 45q72 0 114.5 -44.5t42.5 -120.5q0 -75 -43 -120t-114 -45q-72 0 -114.5 44.5zM236 87q20 26 20 73t-20 73t-56 26t-56 -26t-20 -73t20 -73t56 -26t56 26z" />
    <glyph glyph-name="one.tosf" 
d="M336 68v-68h-304v68h116v121h-102v65h33q48 0 65.5 13.5t21.5 52.5h62v-252h108z" />
    <glyph glyph-name="two.tosf" 
d="M332 68v-68h-295v53l124 80q44 28 58.5 44.5t14.5 36.5t-14 32.5t-38 12.5q-28 0 -46 -16.5t-23 -46.5l-74 14q7 53 47 84t100 31q58 0 92.5 -28t34.5 -75q0 -35 -24 -63t-91 -71l-31 -20h165z" />
    <glyph glyph-name="three.tosf" 
d="M290.5 138q28.5 -31 28.5 -78q0 -54 -40.5 -89.5t-103.5 -35.5q-52 0 -90.5 23t-56.5 65l60 35q13 -28 34.5 -43t49.5 -15q32 0 51 16.5t19 45.5q0 27 -17 43t-45 16q-19 0 -36 -9l-35 41l101 98h-164v69h259v-59l-89 -88q46 -4 74.5 -35z" />
    <glyph glyph-name="four.tosf" 
d="M340 96v-68h-56v-88h-74v88h-187v66l164 226h97v-224h56zM103 96h107v147z" />
    <glyph glyph-name="five.tosf" 
d="M280.5 155q36.5 -36 36.5 -90q0 -58 -41 -94t-107 -36q-45 0 -81 18.5t-56 50.5l51 43q13 -21 35 -33.5t48 -12.5q32 0 52 18t20 48t-18.5 48t-49.5 18q-40 0 -63 -31l-57 21l17 197h223v-72h-161l-7 -75q27 18 68 18q54 0 90.5 -36z" />
    <glyph glyph-name="six.tosf" 
d="M298 213q35 -33 35 -89t-40 -92.5t-100 -36.5q-75 0 -115.5 52.5t-40.5 138.5q0 89 42 144t120 55q38 0 70.5 -13.5t53.5 -39.5l-55 -49q-10 17 -28.5 26.5t-39.5 9.5q-44 0 -67 -31.5t-25 -83.5q33 42 97 42q58 0 93 -33zM238.5 76q18.5 18 18.5 47t-18 46.5t-47 17.5
q-30 0 -49 -17.5t-19 -46.5t18.5 -47t48.5 -18q29 0 47.5 18z" />
    <glyph glyph-name="seven.tosf" 
d="M331 320v-62q-61 -54 -95.5 -138.5t-34.5 -179.5h-83q0 85 35.5 168t92.5 140h-211v72h296z" />
    <glyph glyph-name="eight.tosf" 
d="M309 158.5q17 -23.5 17 -54.5q0 -50 -39.5 -79.5t-106.5 -29.5t-106.5 29.5t-39.5 79.5q0 31 17 54.5t47 37.5q-26 13 -39.5 34t-13.5 48q0 49 36.5 78t98.5 29t98.5 -29t36.5 -78q0 -27 -13.5 -48t-39.5 -34q30 -14 47 -37.5zM134 311q-17 -14 -17 -38q0 -23 17 -37
t46 -14t46 14t17 37q0 24 -17 38t-46 14t-46 -14zM229.5 70q18.5 15 18.5 41q0 25 -18 39.5t-50 14.5t-50 -14.5t-18 -39.5q0 -26 18.5 -41t49.5 -15t49.5 15z" />
    <glyph glyph-name="nine.tosf" 
d="M282.5 272.5q40.5 -52.5 40.5 -138.5q0 -89 -42 -144t-120 -55q-38 0 -70.5 13.5t-53.5 39.5l55 49q10 -17 28.5 -26.5t39.5 -9.5q44 0 67 31.5t25 83.5q-33 -42 -97 -42q-58 0 -93 33t-35 89t40 92.5t100 36.5q75 0 115.5 -52.5zM217 150.5q19 17.5 19 46.5t-18.5 47
t-48.5 18q-29 0 -47.5 -18t-18.5 -47t18 -46.5t47 -17.5q30 0 49 17.5z" />
    <glyph glyph-name="zero.dnom" horiz-adv-x="234" 
d="M42 28q-28 31 -28 84t28 84t75 31t75 -31t28 -84t-28 -84t-75 -31t-75 31zM150.5 65q12.5 18 12.5 47q0 30 -12.5 48t-33.5 18q-20 0 -32.5 -18t-12.5 -48q0 -29 12.5 -47t32.5 -18q21 0 33.5 18z" />
    <glyph glyph-name="one.dnom" horiz-adv-x="190" 
d="M87 0v139h-62v46h18q31 0 42.5 8t13.5 31h45v-224h-57z" />
    <glyph glyph-name="two.dnom" horiz-adv-x="234" 
d="M215 50v-50h-188v41l88 60q17 12 27 25.5t10 26.5q0 12 -8.5 19t-23.5 7q-18 0 -28.5 -10t-10.5 -27l-54 7q2 35 27.5 56.5t68.5 21.5q39 0 63 -18.5t24 -49.5q0 -23 -16.5 -44.5t-59.5 -51.5l-18 -13h99z" />
    <glyph glyph-name="three.dnom" horiz-adv-x="234" 
d="M191.5 116q17.5 -18 17.5 -44q0 -33 -26.5 -54t-69.5 -21q-35 0 -60.5 14.5t-36.5 40.5l42 26q8 -15 22.5 -24t32.5 -9t28.5 8.5t10.5 22.5q0 13 -9.5 20t-23.5 7t-26 -6l-23 29l58 48h-99v50h171v-44l-54 -43q28 -3 45.5 -21z" />
    <glyph glyph-name="four.dnom" horiz-adv-x="234" 
d="M222 97v-49h-35v-48h-54v48h-119v46l104 130h69v-127h35zM72 97h61v76z" />
    <glyph glyph-name="five.dnom" horiz-adv-x="234" 
d="M184 130.5q22 -19.5 22 -51.5q0 -35 -27.5 -58.5t-70.5 -23.5q-29 0 -52.5 11.5t-36.5 30.5l37 32q19 -26 52 -26q19 0 30 8.5t11 24.5q0 14 -10 22t-27 8q-27 0 -40 -16l-38 16l10 116h146v-48h-102l-4 -35q18 9 42 9q36 0 58 -19.5z" />
    <glyph glyph-name="six.dnom" horiz-adv-x="234" 
d="M195.5 127.5q22.5 -19.5 22.5 -51.5q0 -36 -26.5 -57.5t-67.5 -21.5q-48 0 -74.5 31t-26.5 83t28.5 84t78.5 32t78 -28l-39 -39q-7 8 -19 13t-24 5q-20 0 -34 -14.5t-16 -36.5q20 20 59 20q38 0 60.5 -19.5zM150.5 52.5q9.5 8.5 9.5 22.5t-9.5 22.5t-25.5 8.5
q-17 0 -27.5 -9t-10.5 -23t10 -22t27 -8t26.5 8.5z" />
    <glyph glyph-name="seven.dnom" horiz-adv-x="205" 
d="M198 224v-47q-38 -30 -59.5 -76.5t-21.5 -100.5h-59q0 48 21 94t57 78h-132v52h194z" />
    <glyph glyph-name="eight.dnom" horiz-adv-x="234" 
d="M213 63q0 -31 -25.5 -48.5t-70.5 -17.5t-70.5 17.5t-25.5 48.5q0 35 35 52q-28 17 -28 47t24 47.5t65 17.5t65 -17.5t24 -47.5q0 -14 -7.5 -26.5t-20.5 -19.5q35 -19 35 -53zM89 175.5q-10 -6.5 -10 -17.5q0 -10 10 -16t28 -6t28 6t10 16q0 11 -10 17.5t-28 6.5t-28 -6.5
zM147 48.5q11 6.5 11 17.5t-11 17.5t-30 6.5t-30 -6.5t-11 -17.5t11 -17.5t30 -6.5t30 6.5z" />
    <glyph glyph-name="nine.dnom" horiz-adv-x="234" 
d="M184.5 196q26.5 -31 26.5 -83t-28.5 -84t-78.5 -32t-78 28l39 39q7 -8 19 -13t24 -5q20 0 34 14.5t16 36.5q-20 -20 -59 -20q-38 0 -60.5 19.5t-22.5 51.5q0 36 26.5 57.5t67.5 21.5q48 0 74.5 -31zM136.5 127q10.5 9 10.5 23t-10 22t-27 8t-26.5 -8.5t-9.5 -22.5
t9.5 -22.5t25.5 -8.5q17 0 27.5 9z" />
    <glyph glyph-name="zero.numr" horiz-adv-x="234" 
d="M42 184q-28 31 -28 84t28 84t75 31t75 -31t28 -84t-28 -84t-75 -31t-75 31zM150.5 221q12.5 18 12.5 47q0 30 -12.5 48t-33.5 18q-20 0 -32.5 -18t-12.5 -48q0 -29 12.5 -47t32.5 -18q21 0 33.5 18z" />
    <glyph glyph-name="one.numr" horiz-adv-x="190" 
d="M87 156v139h-62v46h18q31 0 42.5 8t13.5 31h45v-224h-57z" />
    <glyph glyph-name="two.numr" horiz-adv-x="234" 
d="M215 206v-50h-188v41l88 60q17 12 27 25.5t10 26.5q0 12 -8.5 19t-23.5 7q-18 0 -28.5 -10t-10.5 -27l-54 7q2 35 27.5 56.5t68.5 21.5q39 0 63 -18.5t24 -49.5q0 -23 -16.5 -44.5t-59.5 -51.5l-18 -13h99z" />
    <glyph glyph-name="three.numr" horiz-adv-x="234" 
d="M191.5 272q17.5 -18 17.5 -44q0 -33 -26.5 -54t-69.5 -21q-35 0 -60.5 14.5t-36.5 40.5l42 26q8 -15 22.5 -24t32.5 -9t28.5 8.5t10.5 22.5q0 13 -9.5 20t-23.5 7t-26 -6l-23 29l58 48h-99v50h171v-44l-54 -43q28 -3 45.5 -21z" />
    <glyph glyph-name="four.numr" horiz-adv-x="234" 
d="M222 253v-49h-35v-48h-54v48h-119v46l104 130h69v-127h35zM72 253h61v76z" />
    <glyph glyph-name="five.numr" horiz-adv-x="234" 
d="M184 286.5q22 -19.5 22 -51.5q0 -35 -27.5 -58.5t-70.5 -23.5q-29 0 -52.5 11.5t-36.5 30.5l37 32q19 -26 52 -26q19 0 30 8.5t11 24.5q0 14 -10 22t-27 8q-27 0 -40 -16l-38 16l10 116h146v-48h-102l-4 -35q18 9 42 9q36 0 58 -19.5z" />
    <glyph glyph-name="six.numr" horiz-adv-x="234" 
d="M195.5 283.5q22.5 -19.5 22.5 -51.5q0 -36 -26.5 -57.5t-67.5 -21.5q-48 0 -74.5 31t-26.5 83t28.5 84t78.5 32t78 -28l-39 -39q-7 8 -19 13t-24 5q-20 0 -34 -14.5t-16 -36.5q20 20 59 20q38 0 60.5 -19.5zM150.5 208.5q9.5 8.5 9.5 22.5t-9.5 22.5t-25.5 8.5
q-17 0 -27.5 -9t-10.5 -23t10 -22t27 -8t26.5 8.5z" />
    <glyph glyph-name="seven.numr" horiz-adv-x="205" 
d="M198 380v-47q-38 -30 -59.5 -76.5t-21.5 -100.5h-59q0 48 21 94t57 78h-132v52h194z" />
    <glyph glyph-name="eight.numr" horiz-adv-x="234" 
d="M213 219q0 -31 -25.5 -48.5t-70.5 -17.5t-70.5 17.5t-25.5 48.5q0 35 35 52q-28 17 -28 47t24 47.5t65 17.5t65 -17.5t24 -47.5q0 -14 -7.5 -26.5t-20.5 -19.5q35 -19 35 -53zM89 331.5q-10 -6.5 -10 -17.5q0 -10 10 -16t28 -6t28 6t10 16q0 11 -10 17.5t-28 6.5
t-28 -6.5zM147 204.5q11 6.5 11 17.5t-11 17.5t-30 6.5t-30 -6.5t-11 -17.5t11 -17.5t30 -6.5t30 6.5z" />
    <glyph glyph-name="nine.numr" horiz-adv-x="234" 
d="M184.5 352q26.5 -31 26.5 -83t-28.5 -84t-78.5 -32t-78 28l39 39q7 -8 19 -13t24 -5q20 0 34 14.5t16 36.5q-20 -20 -59 -20q-38 0 -60.5 19.5t-22.5 51.5q0 36 26.5 57.5t67.5 21.5q48 0 74.5 -31zM136.5 283q10.5 9 10.5 23t-10 22t-27 8t-26.5 -8.5t-9.5 -22.5
t9.5 -22.5t25.5 -8.5q17 0 27.5 9z" />
    <glyph glyph-name="exclamdown.case" horiz-adv-x="195" 
d="M51 380h94v-94h-94v94zM53 0l11 242h68l11 -242h-90z" />
    <glyph glyph-name="questiondown.case" horiz-adv-x="319" 
d="M114 380h94v-94h-94v94zM188.5 203.5q-9.5 -16.5 -40.5 -41.5q-23 -19 -30.5 -29.5t-7.5 -26.5q0 -21 14 -33t37 -12q29 0 47 18.5t21 51.5l74 -13q-6 -56 -44.5 -89.5t-98.5 -33.5q-59 0 -94.5 29t-35.5 76q0 29 13 50.5t44 42.5q21 14 30.5 25.5t9.5 24.5v3h70
q1 -26 -8.5 -42.5z" />
    <glyph glyph-name="periodcentered.case" horiz-adv-x="180" 
d="M43 249h94v-94h-94v94z" />
    <glyph glyph-name="bullet.case" 
d="M128 126q-26 26 -26 64t26 64t64 26t64 -26t26 -64t-26 -64t-64 -26t-64 26z" />
    <glyph glyph-name="asterisk.case" horiz-adv-x="250" 
d="M228 287l-65 -21l40 -55l-38 -27l-40 55l-40 -55l-38 27l40 56l-65 21l14 45l66 -21v68h46v-68l66 21z" />
    <glyph glyph-name="slash.case" horiz-adv-x="254" 
d="M192 380h72l-201 -380h-72z" />
    <glyph glyph-name="backslash.case" horiz-adv-x="254" 
d="M225 0h-72l-201 380h72z" />
    <glyph glyph-name="parenleft.case" horiz-adv-x="248" 
d="M205 27l-29 -50q-65 28 -100.5 84t-35.5 129t35.5 129t100.5 84l29 -50q-80 -59 -80 -163t80 -163z" />
    <glyph glyph-name="parenright.case" horiz-adv-x="248" 
d="M43 353l29 50q65 -28 100.5 -84t35.5 -129t-35.5 -129t-100.5 -84l-29 50q80 59 80 163t-80 163z" />
    <glyph glyph-name="braceleft.case" horiz-adv-x="248" 
d="M119 190q31 -15 31 -64v-39q0 -8 4.5 -12.5t12.5 -4.5h41v-70h-64q-34 0 -53 19t-19 53v45q0 21 -6.5 29.5t-20.5 8.5h-15v70h15q14 0 20.5 9t6.5 29v45q0 35 19 53.5t53 18.5h64v-70h-41q-8 0 -12.5 -4.5t-4.5 -12.5v-39q0 -48 -31 -64z" />
    <glyph glyph-name="braceright.case" horiz-adv-x="248" 
d="M218 225v-70h-15q-14 0 -20.5 -8.5t-6.5 -29.5v-45q0 -34 -18.5 -53t-53.5 -19h-64v70h41q8 0 12.5 4.5t4.5 12.5v39q0 49 31 64q-31 16 -31 64v39q0 8 -4.5 12.5t-12.5 4.5h-41v70h64q35 0 53.5 -18.5t18.5 -53.5v-45q0 -21 6.5 -29.5t20.5 -8.5h15z" />
    <glyph glyph-name="bracketleft.case" horiz-adv-x="248" 
d="M211 310h-82v-240h82v-70h-160v380h160v-70z" />
    <glyph glyph-name="bracketright.case" horiz-adv-x="248" 
d="M197 380v-380h-160v70h82v240h-82v70h160z" />
    <glyph glyph-name="hyphen.case" horiz-adv-x="252" 
d="M35 227h182v-74h-182v74z" />
    <glyph glyph-name="endash.case" horiz-adv-x="332" 
d="M35 227h262v-74h-262v74z" />
    <glyph glyph-name="emdash.case" horiz-adv-x="452" 
d="M35 227h382v-74h-382v74z" />
    <glyph glyph-name="guillemotleft.case" horiz-adv-x="335" 
d="M153 313v-82l-59 -40l59 -41v-83l-126 85v76zM298 313v-82l-59 -40l59 -41v-83l-126 85v76z" />
    <glyph glyph-name="guillemotright.case" horiz-adv-x="320" 
d="M22 230v83l126 -85v-76l-126 -85v82l59 40zM167 313l126 -85v-76l-126 -85v82l59 40l-59 41v83z" />
    <glyph glyph-name="guilsinglleft.case" horiz-adv-x="190" 
d="M153 313v-82l-59 -40l59 -41v-83l-126 85v76z" />
    <glyph glyph-name="guilsinglright.case" horiz-adv-x="190" 
d="M37 313l126 -85v-76l-126 -85v82l59 40l-59 41v83z" />
    <glyph glyph-name="at.case" horiz-adv-x="445" 
d="M424 163v-67q-5 -1 -27 -1q-29 0 -43.5 10.5t-18.5 32.5q-15 -21 -41.5 -33t-57.5 -12q-44 0 -71 23t-27 61q0 40 26 62t87 29q10 1 34 3.5t30 6.5t6 12q0 14 -27 25.5t-64 11.5q-57 0 -99.5 -35t-42.5 -102q0 -66 41 -103.5t112 -37.5q49 0 92 24l25 -50
q-53 -28 -120 -28q-98 0 -156 52.5t-58 142.5q0 58 27 102.5t75 68.5t111 24q71 0 115.5 -33t44.5 -87v-86q0 -16 17 -16h10zM299.5 169q21.5 17 21.5 40v27q-13 -6 -52 -13q-32 -5 -46 -14.5t-14 -25.5q0 -15 10 -23t29 -8q30 0 51.5 17z" />
    <glyph glyph-name="bar.case" horiz-adv-x="180" 
d="M51 380h78v-380h-78v380z" />
    <glyph glyph-name="brokenbar.case" horiz-adv-x="180" 
d="M51 380h78v-140h-78v140zM129 0h-78v140h78v-140z" />
    <glyph glyph-name="dagger.case" horiz-adv-x="232" 
d="M192 333v-42h-52v-100h-48v100h-52v42h52v47h48v-47h52z" />
    <glyph glyph-name="daggerdbl.case" horiz-adv-x="232" 
d="M192 300h-52v-29h52v-43h-52v-37h-48v37h-52v43h52v29h-52v43h52v37h48v-37h52v-43z" />
    <glyph glyph-name="caron.alt" 
d="M220 400h72l-20 -92h-52v92z" />
    <glyph glyph-name="uni0308.double" horiz-adv-x="0" 
d="M-385 406h80v-68h-80v68zM-275 406h80v-68h-80v68zM-165 406h80v-68h-80v68zM-55 406h80v-68h-80v68z" />
    <glyph glyph-name="brevecombcy" horiz-adv-x="0" 
d="M-250.5 348q-26.5 20 -30.5 55l61 8q3 -16 13.5 -24.5t26.5 -8.5q15 0 26 8.5t14 24.5l61 -8q-4 -35 -30.5 -55t-70.5 -20t-70.5 20z" />
    <glyph glyph-name="strokecomb" 
d="M90 223h180v-56h-180v56z" />
    </font>
</defs>
</svg>
